<svg id="Layer_1" enable-background="new 0 0 512 512" height="512" viewBox="0 0 512 512" width="512" xmlns="http://www.w3.org/2000/svg"><g id="XMLID_831_"><circle id="XMLID_1609_" cx="256" cy="256" fill="#91def5" r="92.197"/><circle id="XMLID_890_" cx="256" cy="42" fill="#f6838d" r="32"/><circle id="XMLID_889_" cx="256" cy="470" fill="#f6838d" r="32"/><circle id="XMLID_1020_" cx="70.671" cy="363" fill="#ffcb7c" r="32"/><circle id="XMLID_1019_" cx="441.329" cy="149" fill="#ffcb7c" r="32"/><circle id="XMLID_1608_" cx="441.329" cy="363" fill="#d8ec84" r="32"/><circle id="XMLID_1607_" cx="70.671" cy="149" fill="#d8ec84" r="32"/><g id="XMLID_14_"><path id="XMLID_1436_" d="m256 219.901c19.905 0 36.099 16.194 36.099 36.099 0 5.523 4.477 10 10 10s10-4.477 10-10c0-30.933-25.166-56.099-56.099-56.099-5.523 0-10 4.477-10 10s4.477 10 10 10z"/><path id="XMLID_1677_" d="m246 82.787v36.016c0 5.523 4.477 10 10 10s10-4.477 10-10v-36.016c18.345-4.499 32-21.075 32-40.787 0-23.159-18.841-42-42-42s-42 18.841-42 42c0 19.713 13.655 36.288 32 40.787zm10-62.787c12.131 0 22 9.869 22 22s-9.869 22-22 22-22-9.869-22-22 9.869-22 22-22z"/><path id="XMLID_1680_" d="m462.33 326.627c-17.073-9.857-38.255-6.319-51.323 7.319l-61.932-35.756c5.856-12.868 9.122-27.155 9.122-42.19 0-14.823-3.212-29.159-9.119-42.192l61.941-35.761c8.018 8.365 19.077 12.945 30.382 12.945 7.12 0 14.332-1.81 20.929-5.619 20.056-11.58 26.953-37.317 15.373-57.373s-37.318-26.953-57.373-15.373c-9.716 5.609-16.666 14.666-19.569 25.502-2.02 7.538-1.908 15.309.232 22.612l-61.916 35.747c-8.855-12.363-20.498-22.815-34.358-30.345-4.853-2.637-10.924-.839-13.561 4.014-2.636 4.853-.839 10.924 4.014 13.561 26.538 14.417 43.024 42.113 43.024 72.282 0 45.323-36.874 82.197-82.197 82.197s-82.196-36.874-82.196-82.197c0-30.342 16.625-58.114 43.387-72.478 4.866-2.612 6.694-8.674 4.082-13.54-2.611-4.866-8.674-6.695-13.54-4.082-14.067 7.55-25.869 18.089-34.819 30.583l-61.906-35.741c2.14-7.303 2.252-15.074.232-22.612-2.903-10.836-9.853-19.894-19.569-25.502-20.055-11.58-45.792-4.684-57.373 15.372-11.58 20.056-4.683 45.793 15.373 57.373 6.598 3.81 13.808 5.619 20.929 5.619 11.303 0 22.363-4.58 30.381-12.945l61.933 35.757c-5.902 13.027-9.11 27.361-9.11 42.197 0 15.035 3.266 29.322 9.122 42.19l-61.932 35.756c-13.069-13.638-34.25-17.176-51.323-7.319-20.056 11.579-26.952 37.316-15.373 57.372 7.771 13.459 21.917 20.992 36.444 20.992 7.12 0 14.333-1.81 20.929-5.619 9.716-5.609 16.666-14.666 19.569-25.502 2.02-7.538 1.908-15.309-.232-22.612l61.948-35.765c16.732 23.289 43.002 39.282 73.045 42.214v71.506c-18.345 4.499-32 21.075-32 40.787 0 23.159 18.841 42 42 42s42-18.841 42-42c0-19.713-13.655-36.288-32-40.787v-71.506c30.043-2.931 56.314-18.925 73.045-42.214l61.948 35.765c-2.14 7.303-2.252 15.074-.232 22.612 2.903 10.836 9.853 19.894 19.569 25.502 6.598 3.81 13.808 5.619 20.929 5.619 14.525-.001 28.673-7.534 36.444-20.992 11.579-20.056 4.683-45.793-15.373-57.373zm-42.251-183.321c1.521-5.676 5.161-10.42 10.25-13.358 3.456-1.995 7.232-2.943 10.963-2.943 7.608 0 15.02 3.946 19.09 10.996 2.938 5.089 3.719 11.018 2.198 16.694s-5.162 10.42-10.25 13.359c-10.506 6.064-23.988 2.452-30.053-8.053-2.938-5.09-3.719-11.019-2.198-16.695zm-360.409 24.747c-5.089-2.938-8.729-7.683-10.25-13.359s-.74-11.605 2.198-16.694c6.066-10.506 19.547-14.117 30.053-8.053 5.089 2.938 8.729 7.683 10.25 13.358 1.521 5.676.74 11.605-2.198 16.694-6.065 10.507-19.546 14.119-30.053 8.054zm32.251 200.641c-1.521 5.676-5.161 10.42-10.25 13.358-10.504 6.064-23.987 2.453-30.053-8.053-2.938-5.089-3.719-11.018-2.198-16.694s5.162-10.42 10.25-13.359c10.505-6.066 23.988-2.453 30.053 8.053 2.938 5.09 3.719 11.019 2.198 16.695zm186.079 101.306c0 12.131-9.869 22-22 22s-22-9.869-22-22 9.869-22 22-22 22 9.869 22 22zm182.382-96c-6.066 10.505-19.548 14.117-30.053 8.053-5.089-2.938-8.729-7.683-10.25-13.358-1.521-5.676-.74-11.605 2.198-16.694 4.07-7.05 11.48-10.996 19.09-10.996 3.729 0 7.507.948 10.963 2.943 5.089 2.938 8.729 7.683 10.25 13.359s.74 11.604-2.198 16.693z"/><path id="XMLID_1690_" d="m256 173.8c2.63 0 5.21-1.06 7.07-2.93 1.86-1.86 2.93-4.43 2.93-7.07 0-2.63-1.07-5.2-2.93-7.07-1.86-1.86-4.44-2.93-7.07-2.93s-5.21 1.07-7.07 2.93-2.93 4.44-2.93 7.07c0 2.64 1.07 5.21 2.93 7.07 1.86 1.87 4.44 2.93 7.07 2.93z"/></g></g></svg>