<svg id="Layer_1" enable-background="new 0 0 512 512" height="512" viewBox="0 0 512 512" width="512" xmlns="http://www.w3.org/2000/svg"><g id="XMLID_3142_"><g id="XMLID_1974_"><g id="XMLID_1326_"><path id="XMLID_1328_" d="m92 82c-45.287 0-82 36.713-82 82h164c0-45.287-36.713-82-82-82z" fill="#d8ec84"/><path id="XMLID_1327_" d="m92 10c-17.673 0-32 14.327-32 32v8c0 17.673 14.327 32 32 32 17.673 0 32-14.327 32-32v-8c0-17.673-14.327-32-32-32z" fill="#ffbf9e"/></g><g id="XMLID_1336_"><path id="XMLID_1338_" d="m420 82c-45.287 0-82 36.713-82 82h164c0-45.287-36.713-82-82-82z" fill="#ffcb7c"/><path id="XMLID_1337_" d="m420 10c-17.673 0-32 14.327-32 32v8c0 17.673 14.327 32 32 32 17.673 0 32-14.327 32-32v-8c0-17.673-14.327-32-32-32z" fill="#ffbf9e"/></g><g id="XMLID_1355_"><path id="XMLID_1362_" d="m92 420c-45.287 0-82 36.713-82 82h164c0-45.287-36.713-82-82-82z" fill="#f5737f"/><path id="XMLID_1361_" d="m92 348c-17.673 0-32 14.327-32 32v8c0 17.673 14.327 32 32 32 17.673 0 32-14.327 32-32v-8c0-17.673-14.327-32-32-32z" fill="#ffbf9e"/></g><g id="XMLID_1342_"><path id="XMLID_1344_" d="m420 420c-45.287 0-82 36.713-82 82h164c0-45.287-36.713-82-82-82z" fill="#b0e7f8"/><path id="XMLID_1343_" d="m420 348c-17.673 0-32 14.327-32 32v8c0 17.673 14.327 32 32 32 17.673 0 32-14.327 32-32v-8c0-17.673-14.327-32-32-32z" fill="#ffbf9e"/></g></g><g id="XMLID_781_"><path id="XMLID_784_" d="m123.619 415.599c6.456-7.387 10.381-17.041 10.381-27.599v-8c0-23.159-18.841-42-42-42s-42 18.841-42 42v8c0 10.558 3.925 20.212 10.381 27.599-35.2 12.922-60.381 46.776-60.381 86.401 0 5.523 4.477 10 10 10h164c5.523 0 10-4.477 10-10 0-39.625-25.181-73.479-60.381-86.401zm-53.619-27.599v-8c0-12.131 9.869-22 22-22s22 9.869 22 22v8c0 12.131-9.869 22-22 22s-22-9.869-22-22zm-49.308 104c4.882-34.985 35-62 71.308-62s66.426 27.015 71.308 62z"/><path id="XMLID_788_" d="m451.619 415.599c6.456-7.387 10.381-17.041 10.381-27.599v-8c0-23.159-18.841-42-42-42s-42 18.841-42 42v8c0 10.558 3.925 20.212 10.381 27.599-35.2 12.922-60.381 46.776-60.381 86.401 0 5.523 4.477 10 10 10h37c5.523 0 10-4.477 10-10s-4.477-10-10-10h-26.309c4.882-34.985 35-62 71.308-62s66.426 27.015 71.308 62h-26.307c-5.523 0-10 4.477-10 10s4.477 10 10 10h37c5.523 0 10-4.477 10-10 0-39.625-25.181-73.479-60.381-86.401zm-53.619-27.599v-8c0-12.131 9.869-22 22-22s22 9.869 22 22v8c0 12.131-9.869 22-22 22s-22-9.869-22-22z"/><path id="XMLID_789_" d="m219.712 75.854c1.953 1.952 4.512 2.929 7.071 2.929s5.119-.977 7.071-2.929c3.905-3.905 3.905-10.237 0-14.143l-1.711-1.711h47.715l-1.712 1.712c-3.905 3.905-3.905 10.237 0 14.143 1.953 1.952 4.512 2.929 7.071 2.929s5.119-.977 7.071-2.929l18.783-18.783c3.905-3.905 3.905-10.237 0-14.143l-18.783-18.783c-3.905-3.904-10.237-3.904-14.143 0-3.905 3.905-3.905 10.237 0 14.143l1.712 1.711h-47.715l1.712-1.712c3.905-3.905 3.905-10.237 0-14.143-3.905-3.904-10.237-3.904-14.143 0l-18.783 18.783c-3.905 3.905-3.905 10.237 0 14.143z"/><path id="XMLID_793_" d="m292.288 436.146c-3.905-3.904-10.237-3.904-14.143 0-3.905 3.905-3.905 10.237 0 14.143l1.712 1.712h-47.715l1.712-1.712c3.905-3.905 3.905-10.237 0-14.143-3.905-3.904-10.237-3.904-14.143 0l-18.783 18.783c-3.905 3.905-3.905 10.237 0 14.143l18.783 18.783c1.953 1.952 4.512 2.929 7.071 2.929s5.119-.977 7.071-2.929c3.905-3.905 3.905-10.237 0-14.143l-1.71-1.712h47.715l-1.712 1.712c-3.905 3.905-3.905 10.237 0 14.143 1.953 1.952 4.512 2.929 7.071 2.929s5.119-.977 7.071-2.929l18.783-18.783c3.905-3.905 3.905-10.237 0-14.143z"/><path id="XMLID_794_" d="m473.712 233.854c1.953 1.953 4.512 2.929 7.071 2.929s5.119-.976 7.071-2.929c3.905-3.905 3.905-10.237 0-14.143l-18.783-18.783c-3.905-3.905-10.237-3.905-14.143 0l-18.783 18.783c-3.905 3.905-3.905 10.237 0 14.143 3.905 3.905 10.237 3.905 14.143 0l1.712-1.712v47.715l-1.712-1.712c-3.905-3.905-10.237-3.905-14.143 0-3.905 3.905-3.905 10.237 0 14.143l18.783 18.783c1.953 1.953 4.512 2.929 7.071 2.929s5.119-.976 7.071-2.929l18.783-18.783c3.905-3.905 3.905-10.237 0-14.143-3.905-3.905-10.237-3.905-14.143 0l-1.71 1.712v-47.715z"/><path id="XMLID_795_" d="m38.288 278.146c-3.905-3.905-10.237-3.905-14.143 0-3.905 3.905-3.905 10.237 0 14.143l18.783 18.783c1.953 1.952 4.513 2.928 7.072 2.928s5.119-.976 7.071-2.929l18.783-18.783c3.905-3.905 3.905-10.237 0-14.143-3.905-3.905-10.237-3.905-14.143 0l-1.711 1.712v-47.715l1.712 1.712c1.953 1.953 4.512 2.929 7.071 2.929s5.119-.976 7.071-2.929c3.905-3.905 3.905-10.237 0-14.143l-18.783-18.783c-3.905-3.905-10.237-3.905-14.143 0l-18.783 18.783c-3.905 3.905-3.905 10.237 0 14.143 3.905 3.905 10.237 3.905 14.143 0l1.712-1.711v47.715z"/><path id="XMLID_801_" d="m357.833 347.833v-26.563c0-5.523-4.477-10-10-10s-10 4.477-10 10v2.421l-67.69-67.691 67.691-67.691v2.421c0 5.523 4.477 10 10 10s10-4.477 10-10v-16.73h144.166c5.523 0 10-4.477 10-10 0-39.625-25.181-73.479-60.381-86.401 6.456-7.387 10.381-17.041 10.381-27.599v-8c0-23.159-18.841-42-42-42s-42 18.841-42 42v8c0 10.558 3.925 20.212 10.381 27.599-32.249 11.839-56.084 41.249-59.855 76.568h-7.257c-5.523 0-10 4.477-10 10s4.477 10 10 10h2.421l-67.69 67.69-67.691-67.691h2.421c5.523 0 10-4.477 10-10s-4.477-10-10-10h-7.257c-3.77-35.319-27.605-64.729-59.855-76.568 6.457-7.386 10.382-17.04 10.382-27.598v-8c0-23.159-18.841-42-42-42s-42 18.841-42 42v8c0 10.558 3.925 20.212 10.381 27.599-35.2 12.922-60.381 46.776-60.381 86.401 0 5.523 4.477 10 10 10h144.167v16.73c0 5.523 4.477 10 10 10s10-4.477 10-10v-2.421l67.69 67.691-67.691 67.691v-2.421c0-5.523-4.477-10-10-10s-10 4.477-10 10v26.564c0 5.523 4.477 10 10 10h26.564c5.523 0 10-4.477 10-10s-4.477-10-10-10h-2.421l67.691-67.691 67.691 67.691h-2.421c-5.523 0-10 4.477-10 10s4.477 10 10 10h26.564c5.522-.001 9.999-4.478 9.999-10.001zm40.167-297.833v-8c0-12.131 9.869-22 22-22s22 9.869 22 22v8c0 12.131-9.869 22-22 22s-22-9.869-22-22zm22 42c36.309 0 66.426 27.015 71.308 62h-142.616c4.882-34.985 34.999-62 71.308-62zm-350-42v-8c0-12.131 9.869-22 22-22s22 9.869 22 22v8c0 12.131-9.869 22-22 22s-22-9.869-22-22zm22 42c36.309 0 66.426 27.015 71.308 62h-142.616c4.882-34.985 34.999-62 71.308-62z"/><path id="XMLID_807_" d="m420 492c-2.63 0-5.21 1.07-7.07 2.93s-2.93 4.44-2.93 7.07 1.07 5.21 2.93 7.07 4.44 2.93 7.07 2.93 5.21-1.07 7.07-2.93 2.93-4.44 2.93-7.07-1.07-5.21-2.93-7.07-4.44-2.93-7.07-2.93z"/></g></g></svg>