<svg id="Layer_1" enable-background="new 0 0 512 512" height="512" viewBox="0 0 512 512" width="512" xmlns="http://www.w3.org/2000/svg"><g id="XMLID_825_"><g id="XMLID_1028_"><g id="XMLID_1069_"><path d="m134.503 331.094c-16.032-32.253-24.43-70.631-24.43-104.771 0-99.467 82.801-175.929 181.991-175.929 96.814 0 176.119 81.133 176.119 179.044l33.817 110.107h-53.591v51.341c0 28.894-23.423 52.317-52.317 52.317h-61.287l-10.253 58.741h-191.976l14.743-61.141c8.905-36.931 4.094-75.691-12.816-109.709z" fill="#ffcbbe"/></g><g id="XMLID_1053_"><g id="XMLID_1058_"><path id="XMLID_13_" d="m186.705 245.472c2.674 12.03 7.409 23.283 13.822 33.367l-14.092 14.092 32.355 32.355 14.089-14.089c10.084 6.416 21.338 11.154 33.37 13.83v19.916h45.757v-19.916c12.032-2.676 23.286-7.414 33.37-13.83l14.089 14.089 32.355-32.355-14.092-14.092c6.413-10.084 11.148-21.336 13.822-33.367h19.928v-45.757h-19.934c-2.677-12.026-7.414-23.275-13.827-33.355l14.104-14.104-32.355-32.355-14.107 14.107c-10.079-6.41-21.327-11.145-33.352-13.819v-19.946h-45.757v19.946c-12.025 2.674-23.272 7.409-33.352 13.819l-14.107-14.107-32.355 32.355 14.104 14.104c-6.414 10.08-11.151 21.329-13.827 33.355h-19.934v45.757zm53.401-22.863c0-27.074 21.948-49.021 49.021-49.021s49.021 21.948 49.021 49.021-21.948 49.021-49.021 49.021-49.021-21.948-49.021-49.021z" fill="#91def5"/></g></g></g><g id="XMLID_813_"><path id="XMLID_274_" d="m259.116 204.277c36.129 0 65.417-29.288 65.417-65.417s-29.288-65.417-65.417-65.417c-6.421 0-12.619.941-18.482 2.665-8.091-37.749-41.631-66.056-81.796-66.056-39.235 0-72.148 27.01-81.194 63.447-.741-.025-1.48-.056-2.227-.056-36.129.001-65.417 29.289-65.417 65.418s29.288 65.417 65.417 65.417h183.699z" fill="#dff6fc"/></g><g id="XMLID_2572_"><g id="XMLID_1034_"><path id="XMLID_270_" d="m123.667 145.944-50.167 98.175h47.25l-12.75 95.492 107.167-135.334h-40.667l36-58.333z" fill="#f6838d"/></g><g id="XMLID_269_"><path id="XMLID_284_" d="m322.006 344.944v-12.188c7.552-2.248 14.83-5.265 21.766-9.021l8.622 8.622c3.905 3.905 10.237 3.905 14.143 0l32.355-32.355c3.905-3.905 3.905-10.237 0-14.143l-8.626-8.626c3.754-6.934 6.769-14.211 9.015-21.761h12.198c5.523 0 10-4.477 10-10v-45.757c0-5.523-4.477-10-10-10h-12.207c-2.248-7.547-5.263-14.82-9.018-21.75l8.637-8.637c3.905-3.905 3.905-10.237 0-14.143l-32.355-32.355c-3.905-3.905-10.237-3.905-14.143 0l-8.643 8.644c-4.188-2.265-8.514-4.268-12.945-5.992-9.865-30.172-38.264-52.037-71.689-52.037-.057 0-.114.003-.171.003 10.864-2.03 21.943-3.054 33.118-3.054 28.948 0 57.531 7.852 82.657 22.708 1.597.944 3.35 1.394 5.08 1.394 3.419 0 6.751-1.755 8.617-4.912 2.811-4.754 1.235-10.887-3.519-13.697-28.207-16.677-60.309-25.492-92.835-25.492-17.646 0-35.085 2.306-51.938 6.85-5.663-9.887-13.112-18.762-22.03-26.058-16.656-13.629-37.7-21.134-59.258-21.134-40.522 0-75.963 25.777-88.718 63.575-39.121 2.729-70.119 35.429-70.119 75.233 0 41.585 33.832 75.417 75.417 75.417h2.102l-12.923 25.291c-1.584 3.1-1.442 6.801.375 9.771 1.817 2.969 5.048 4.78 8.529 4.78h35.826l-11.238 84.169c-.596 4.461 1.863 8.771 6.006 10.529 1.265.537 2.59.795 3.902.795 2.987 0 5.901-1.341 7.843-3.792l9.111-11.506c.2.409.395.827.597 1.233 16.007 32.203 20.287 68.751 12.05 102.914l-14.742 61.138c-1.295 5.369 2.008 10.771 7.377 12.065.788.19 1.576.281 2.353.281 4.513 0 8.608-3.077 9.713-7.658l14.743-61.141c9.337-38.724 4.514-80.1-13.583-116.505-1.593-3.204-3.123-6.527-4.583-9.912l42.604-53.801c1.837 4.907 4.01 9.682 6.512 14.305l-8.626 8.626c-3.905 3.905-3.905 10.237 0 14.143l32.355 32.355c3.906 3.905 10.238 3.905 14.142 0l8.623-8.622c6.935 3.757 14.213 6.773 21.765 9.021v12.188c0 5.523 4.477 10 10 10h45.757c5.522-.001 9.999-4.478 9.999-10.001zm6.142-122.335c0 21.516-17.505 39.021-39.021 39.021-21.517 0-39.021-17.505-39.021-39.021 0-2.828.306-5.612.897-8.331h8.112c21.041 0 40.088-8.671 53.781-22.615 9.546 7.3 15.252 18.598 15.252 30.946zm-252.731-28.331c-30.557 0-55.417-24.86-55.417-55.417s24.86-55.416 55.417-55.416c.491 0 .977.019 1.463.036l.435.015c4.727.128 8.898-3.006 10.035-7.585 8.165-32.888 37.562-55.856 71.488-55.856 34.508 0 64.796 24.457 72.019 58.152.583 2.721 2.273 5.075 4.664 6.498 2.391 1.422 5.267 1.786 7.936 1 5.096-1.499 10.364-2.259 15.66-2.259 30.557 0 55.417 24.86 55.417 55.416 0 30.557-24.86 55.417-55.417 55.417h-66.693l26.587-43.082c1.904-3.085 1.989-6.959.223-10.125s-5.107-5.127-8.732-5.127h-86.833c-3.756 0-7.196 2.105-8.905 5.45l-27.023 52.884h-12.324zm14.423 39.84 39.947-78.174h62.791l-26.587 43.082c-1.904 3.085-1.989 6.959-.223 10.125s5.107 5.127 8.732 5.127h19.992l-71.771 90.634 7.94-59.47c.381-2.857-.489-5.741-2.388-7.91s-4.642-3.414-7.524-3.414zm219.995 81.148c-4.575 1.018-7.829 5.075-7.829 9.762v9.917h-25.757v-9.917c0-4.687-3.254-8.744-7.829-9.762-10.729-2.386-20.88-6.593-30.172-12.505-3.955-2.517-9.126-1.947-12.439 1.366l-7.018 7.018-18.213-18.213 7.021-7.021c3.313-3.313 3.881-8.483 1.367-12.438-5.811-9.138-9.964-19.108-12.368-29.637l23.406-29.558h10.69c-.388 2.745-.588 5.525-.588 8.331 0 32.544 26.477 59.021 59.021 59.021s59.021-26.477 59.021-59.021c0-18.754-8.689-35.921-23.235-46.955 6.058-10.791 9.546-23.206 9.61-36.422 1.856 1.012 3.682 2.08 5.468 3.216 3.954 2.514 9.124 1.946 12.438-1.367l7.036-7.036 18.213 18.213-7.033 7.032c-3.314 3.314-3.882 8.485-1.366 12.439 5.91 9.289 10.117 19.436 12.503 30.159 1.018 4.574 5.075 7.828 9.761 7.828h9.935v25.757h-9.928c-4.687 0-8.745 3.255-9.762 7.831-2.384 10.728-6.589 20.878-12.498 30.17-2.515 3.954-1.947 9.124 1.367 12.438l7.021 7.021-18.213 18.213-7.017-7.018c-3.314-3.313-8.484-3.882-12.439-1.366-9.294 5.911-19.445 10.118-30.174 12.504z"/><path id="XMLID_766_" d="m511.559 336.609-33.383-108.692c-.27-33.54-9.466-66.491-26.637-95.39-2.822-4.748-8.958-6.31-13.705-3.489-4.748 2.821-6.31 8.957-3.489 13.705 15.595 26.246 23.838 56.225 23.838 86.695 0 .995.148 1.985.441 2.936l29.845 97.171h-40.059c-5.523 0-10 4.477-10 10v51.341c0 23.333-18.983 42.317-42.317 42.317h-61.287c-4.859 0-9.016 3.494-9.851 8.28l-10.253 58.741c-.95 5.441 2.691 10.621 8.131 11.571.582.102 1.161.15 1.731.15 4.769 0 8.991-3.423 9.839-8.282l8.808-50.461h52.881c34.362 0 62.317-27.955 62.317-62.317v-41.341h43.591c3.172 0 6.157-1.505 8.042-4.057 1.886-2.55 2.449-5.845 1.517-8.878z"/><path id="XMLID_767_" d="m415.34 112.098c2.63 0 5.21-1.06 7.07-2.93 1.86-1.86 2.93-4.43 2.93-7.07 0-2.63-1.07-5.21-2.93-7.07s-4.44-2.93-7.07-2.93-5.21 1.07-7.07 2.93-2.93 4.44-2.93 7.07c0 2.64 1.07 5.21 2.93 7.07 1.86 1.871 4.44 2.93 7.07 2.93z"/></g></g></g></svg>