<svg id="Layer_1" enable-background="new 0 0 512 512" height="512" viewBox="0 0 512 512" width="512" xmlns="http://www.w3.org/2000/svg"><g id="XMLID_2511_"><g id="XMLID_1643_"><g id="XMLID_1933_"><g id="XMLID_1938_"><path id="XMLID_1939_" d="m473.715 388.749c-21.031-21.032-21.031-55.252 0-76.284l28.285 28.284c-5.437 5.436-5.437 14.28 0 19.716z" fill="#91def5"/></g><g id="XMLID_1936_"><path id="XMLID_1937_" d="m417.026 445.438c-52.289-52.29-52.289-137.371 0-189.661l28.285 28.284c-36.693 36.694-36.693 96.398 0 133.092z" fill="#91def5"/></g><g id="XMLID_1934_"><path id="XMLID_1935_" d="m360.464 502c-40.438-40.438-62.709-94.204-62.709-151.393 0-57.188 22.271-110.954 62.71-151.393l28.284 28.284c-32.884 32.883-50.994 76.604-50.994 123.108s18.11 90.225 50.994 123.109z" fill="#91def5"/></g></g><g id="XMLID_1659_"><path id="XMLID_2787_" d="m150.487 10c-77.589 0-140.487 62.898-140.487 140.487v191.403c0 37.616 30.494 68.11 68.11 68.11 27.89 0 52.962-17.004 63.279-42.915l4.013-10.08c10.491-26.348 30.282-47.933 55.623-60.664 55.144-27.704 89.949-84.14 89.949-145.853.001-77.59-62.898-140.488-140.487-140.488z" fill="#f2bb88"/><g id="XMLID_1668_"><path id="XMLID_296_" d="m78.11 420c-43.07 0-78.11-35.04-78.11-78.11v-191.403c0-82.979 67.508-150.487 150.487-150.487s150.487 67.508 150.487 150.487c0 48.415-20.464 94.951-56.146 127.676-4.069 3.733-10.395 3.461-14.129-.61-3.733-4.07-3.46-10.396.61-14.129 31.562-28.947 49.664-70.111 49.664-112.937.002-71.95-58.535-130.487-130.486-130.487s-130.487 58.537-130.487 130.487v191.403c0 32.042 26.068 58.11 58.11 58.11 23.94 0 45.132-14.372 53.988-36.614l4.014-10.08c5.23-13.135 12.578-25.211 21.839-35.893 3.618-4.172 9.933-4.623 14.106-1.004 4.172 3.618 4.622 9.934 1.004 14.106-7.79 8.984-13.97 19.141-18.369 30.188l-4.014 10.08c-11.903 29.899-40.387 49.217-72.568 49.217z"/></g><g id="XMLID_1667_"><path id="XMLID_295_" d="m65.285 241.951c-5.523 0-10-4.477-10-10s4.477-10 10-10c16.946 0 30.732-13.786 30.732-30.732 0-10.226-5.068-19.754-13.557-25.489-20.727-14.003-26.8-42.039-13.825-63.825 17.126-28.756 48.49-46.62 81.852-46.62 52.495 0 95.203 42.708 95.203 95.203 0 5.523-4.477 10-10 10s-10-4.477-10-10c0-41.467-33.736-75.203-75.203-75.203-26.351 0-51.13 14.122-64.668 36.854-7.555 12.686-4.112 28.946 7.837 37.02 14.001 9.459 22.36 25.183 22.36 42.062.001 27.972-22.758 50.73-50.731 50.73z"/></g><g id="XMLID_1666_"><path id="XMLID_294_" d="m94.036 346.557c-1.231 0-2.483-.229-3.696-.712-5.131-2.043-7.634-7.858-5.591-12.99 16.419-41.239 47.306-74.924 86.969-94.851 4.935-2.479 10.945-.489 13.425 4.446 2.479 4.935.489 10.946-4.446 13.425-35.284 17.727-62.76 47.692-77.367 84.378-1.56 3.918-5.32 6.304-9.294 6.304z"/></g><g id="XMLID_1665_"><path id="XMLID_293_" d="m180.732 160.487c-5.523 0-10-4.477-10-10 0-11.163-9.082-20.245-20.245-20.245-5.523 0-10-4.477-10-10s4.477-10 10-10c22.191 0 40.245 18.054 40.245 40.245 0 5.523-4.477 10-10 10z"/></g></g><g id="XMLID_1650_"><g id="XMLID_1655_"><g id="XMLID_1656_"><path id="XMLID_290_" d="m473.715 398.749c-2.56 0-5.118-.976-7.071-2.929-24.93-24.93-24.93-65.496 0-90.426 3.905-3.905 10.237-3.906 14.142 0l28.285 28.284c1.875 1.875 2.929 4.419 2.929 7.072s-1.054 5.196-2.93 7.071c-.999.999-1.148 2.174-1.148 2.786s.149 1.788 1.148 2.786c1.876 1.875 2.93 4.419 2.93 7.071s-1.054 5.196-2.929 7.072l-28.285 28.284c-1.953 1.952-4.512 2.929-7.071 2.929zm.812-71.331c-8.788 14.144-8.788 32.233 0 46.377l14.871-14.871c-.97-2.626-1.476-5.433-1.476-8.318s.506-5.691 1.476-8.318z"/></g></g><g id="XMLID_1653_"><g id="XMLID_1654_"><path id="XMLID_287_" d="m417.026 455.438c-2.56 0-5.118-.976-7.071-2.929-56.188-56.188-56.188-147.614 0-203.802 3.905-3.905 10.237-3.906 14.142 0l28.285 28.284c1.875 1.875 2.929 4.419 2.929 7.071s-1.054 5.196-2.929 7.071c-32.794 32.795-32.794 86.156 0 118.951 1.875 1.875 2.929 4.419 2.929 7.071s-1.054 5.196-2.929 7.071l-28.285 28.284c-1.952 1.951-4.512 2.928-7.071 2.928zm.283-185.237c-39.336 46.189-39.336 114.623 0 160.812l14.198-14.197c-31.61-38.306-31.61-94.112 0-132.418z"/></g></g><g id="XMLID_1651_"><g id="XMLID_1652_"><path id="XMLID_280_" d="m360.464 512c-2.56 0-5.118-.976-7.071-2.929-42.328-42.328-65.638-98.604-65.638-158.464s23.311-116.137 65.639-158.464c3.905-3.904 10.237-3.905 14.142 0l28.284 28.284c1.875 1.875 2.929 4.419 2.929 7.071s-1.054 5.196-2.929 7.071c-30.995 30.995-48.065 72.204-48.065 116.037s17.07 85.042 48.065 116.038c1.875 1.875 2.929 4.419 2.929 7.071s-1.054 5.196-2.929 7.071l-28.285 28.284c-1.952 1.953-4.512 2.93-7.071 2.93zm.17-298.475c-34.173 37.613-52.879 85.911-52.879 137.082s18.706 99.468 52.878 137.082l14.162-14.161c-30.41-33.823-47.04-77.093-47.04-122.921s16.63-89.098 47.04-122.921z"/></g></g></g></g><g id="XMLID_2509_"><g id="XMLID_2510_"><path id="XMLID_279_" d="m201.03 306.34c-2.64 0-5.21-1.07-7.07-2.93-1.87-1.86-2.93-4.43-2.93-7.07 0-2.63 1.06-5.21 2.93-7.07 1.86-1.86 4.43-2.93 7.07-2.93 2.63 0 5.2 1.07 7.07 2.93 1.86 1.86 2.93 4.44 2.93 7.07s-1.07 5.21-2.93 7.07c-1.87 1.86-4.44 2.93-7.07 2.93z"/></g></g></g></svg>