<svg id="Layer_1" enable-background="new 0 0 512.002 512.002" height="512" viewBox="0 0 512.002 512.002" width="512" xmlns="http://www.w3.org/2000/svg"><g id="XMLID_3197_"><path id="XMLID_3624_" d="m134.504 331.15c-16.032-32.253-24.43-70.631-24.43-104.771 0-99.467 82.801-175.929 181.991-175.929 96.814 0 176.119 81.133 176.119 179.044l33.818 110.107h-53.591v51.341c0 28.894-23.423 52.317-52.317 52.317h-61.287l-10.254 58.741h-191.976l14.743-61.141c8.905-36.931 4.094-75.692-12.816-109.709z" fill="#ffbf9e"/><g id="XMLID_3620_"><path id="XMLID_3621_" d="m186.706 245.528c2.674 12.03 7.409 23.283 13.822 33.367l-14.092 14.092 32.355 32.355 14.089-14.089c10.084 6.416 21.338 11.154 33.37 13.83v19.917h45.757v-19.916c12.032-2.676 23.286-7.414 33.37-13.83l14.089 14.089 32.355-32.355-14.092-14.092c6.413-10.084 11.148-21.336 13.822-33.367h19.928v-45.757h-19.934c-2.677-12.026-7.414-23.275-13.827-33.355l14.104-14.104-32.355-32.355-14.107 14.107c-10.079-6.41-21.327-11.145-33.352-13.819v-19.946h-45.758v19.946c-12.025 2.674-23.272 7.409-33.352 13.819l-14.107-14.107-32.355 32.355 14.104 14.104c-6.414 10.08-11.151 21.329-13.827 33.355h-19.934v45.757h19.927zm53.401-22.864c0-27.074 21.947-49.021 49.021-49.021s49.021 21.948 49.021 49.021-21.948 49.021-49.021 49.021c-27.073.001-49.021-21.947-49.021-49.021z" fill="#91def5"/></g><path id="XMLID_3615_" d="m221.472 115.735c0-58.897-48.155-106.547-107.241-105.725-56.949.793-103.427 47.27-104.219 104.219-.822 59.086 46.827 107.241 105.725 107.241 11.343 0 22.266-1.793 32.509-5.1l22.034 22.034c6.044 6.044 16.377 1.763 16.377-6.784v-37.464c21.381-19.347 34.815-47.314 34.815-78.421z" fill="#ffcb7c"/><g id="XMLID_324_"><path id="XMLID_327_" d="m289.129 163.643c-32.544 0-59.021 26.477-59.021 59.021s26.477 59.021 59.021 59.021 59.021-26.477 59.021-59.021-26.477-59.021-59.021-59.021zm0 98.042c-21.517 0-39.021-17.505-39.021-39.021s17.505-39.021 39.021-39.021 39.021 17.505 39.021 39.021-17.505 39.021-39.021 39.021z"/><path id="XMLID_330_" d="m322.007 345v-12.188c7.552-2.248 14.83-5.265 21.766-9.021l8.622 8.622c3.905 3.904 10.237 3.904 14.143 0l32.355-32.355c3.905-3.905 3.905-10.236 0-14.142l-8.626-8.627c3.754-6.934 6.769-14.21 9.015-21.761h12.198c5.523 0 10-4.477 10-10v-45.757c0-5.523-4.477-10-10-10h-12.207c-2.248-7.547-5.263-14.82-9.018-21.75l8.637-8.637c3.905-3.905 3.905-10.237 0-14.143l-32.355-32.355c-3.905-3.905-10.237-3.905-14.143 0l-8.641 8.642c-6.929-3.751-14.202-6.765-21.746-9.011v-12.217c0-5.523-4.477-10-10-10h-45.757c-5.523 0-10 4.477-10 10v12.217c-7.544 2.246-14.817 5.26-21.746 9.011l-3.066-3.066c.021-.908.035-1.816.035-2.726 0-14.531-2.656-28.638-7.733-41.78 21.56-8.962 44.499-13.506 68.325-13.506 28.948 0 57.531 7.852 82.657 22.708 1.597.944 3.35 1.394 5.08 1.394 3.419 0 6.751-1.755 8.617-4.912 2.811-4.754 1.235-10.887-3.519-13.697-28.207-16.677-60.309-25.492-92.835-25.492-26.913 0-52.819 5.232-77.152 15.53-4.94-8.163-10.934-15.77-17.912-22.653-22.226-21.918-51.688-33.741-82.908-33.316-30.161.42-58.608 12.487-80.1 33.979s-33.561 49.938-33.98 80.099c-.435 31.238 11.397 60.682 33.316 82.908 18.226 18.481 41.529 30.051 66.808 33.431.649 35.695 9.813 73.791 25.413 105.172 16.007 32.203 20.287 68.751 12.05 102.913l-14.743 61.142c-1.295 5.369 2.008 10.771 7.377 12.065.788.19 1.576.281 2.353.281 4.513 0 8.608-3.077 9.713-7.658l14.743-61.142c9.337-38.724 4.514-80.099-13.583-116.504-14.134-28.432-22.518-62.89-23.307-95.32 8.545-.322 16.989-1.571 25.215-3.746l27.917 27.917c1.932 1.932 4.331 3.189 6.88 3.722 2.085 6.216 4.699 12.236 7.829 18.017l-8.626 8.627c-3.905 3.905-3.905 10.237 0 14.142l32.355 32.355c3.906 3.905 10.238 3.905 14.142 0l8.623-8.622c6.935 3.757 14.213 6.773 21.765 9.021v12.189c0 5.523 4.477 10 10 10h45.757c5.52 0 9.997-4.477 9.997-10zm-145.35-114.361-21.339-21.34c-1.905-1.905-4.461-2.929-7.072-2.929-1.027 0-2.063.159-3.071.484-9.489 3.063-19.393 4.617-29.437 4.617-25.824 0-50.033-10.127-68.167-28.516-18.131-18.385-27.918-42.742-27.559-68.586.714-51.316 43.043-93.646 94.359-94.359 25.839-.357 50.201 9.428 68.586 27.559 18.389 18.135 28.516 42.344 28.516 68.167 0 26.996-11.491 52.877-31.525 71.006-2.095 1.896-3.29 4.59-3.29 7.415v36.482zm133.179 84.683c-4.575 1.018-7.829 5.075-7.829 9.762v9.916h-25.757v-9.917c0-4.687-3.254-8.744-7.829-9.762-10.729-2.386-20.88-6.593-30.172-12.505-3.955-2.516-9.125-1.948-12.439 1.366l-7.018 7.018-18.213-18.213 7.021-7.021c3.313-3.313 3.881-8.483 1.367-12.437-5.767-9.069-9.898-18.959-12.31-29.4v-45.653c15.61-15.279 26.483-34.617 31.561-55.582 3.112 1.65 6.951 1.58 10.048-.39 9.287-5.906 19.433-10.11 30.156-12.495 4.575-1.018 7.829-5.075 7.829-9.762v-9.946h25.757v9.946c0 4.687 3.254 8.744 7.829 9.762 10.723 2.385 20.869 6.589 30.156 12.495 3.955 2.515 9.124 1.946 12.438-1.367l7.036-7.036 18.213 18.213-7.032 7.032c-3.314 3.314-3.882 8.485-1.366 12.439 5.91 9.289 10.117 19.436 12.503 30.159 1.018 4.574 5.075 7.828 9.761 7.828h9.935v25.757h-9.928c-4.687 0-8.745 3.255-9.762 7.831-2.384 10.728-6.589 20.878-12.498 30.169-2.515 3.954-1.947 9.124 1.367 12.438l7.021 7.021-18.215 18.212-7.017-7.018c-3.314-3.313-8.484-3.882-12.439-1.366-9.293 5.912-19.445 10.12-30.174 12.506z"/><path id="XMLID_858_" d="m92.46 110.302c1.432 0 2.887-.309 4.268-.962 4.993-2.361 7.126-8.322 4.765-13.315-4.355-9.21-13.749-15.162-23.932-15.162s-19.577 5.951-23.932 15.162c-2.361 4.993-.228 10.954 4.765 13.315 4.993 2.36 10.955.228 13.315-4.765 1.066-2.255 3.363-3.711 5.852-3.711s4.786 1.457 5.852 3.711c1.708 3.611 5.3 5.727 9.047 5.727z"/><path id="XMLID_913_" d="m153.912 80.863c-10.183 0-19.577 5.951-23.933 15.161-2.361 4.993-.228 10.954 4.765 13.315 1.381.653 2.836.962 4.269.962 3.747 0 7.339-2.115 9.047-5.727 1.066-2.255 3.364-3.712 5.853-3.712s4.786 1.457 5.852 3.711c2.361 4.993 8.321 7.129 13.315 4.765 4.993-2.361 7.126-8.322 4.765-13.315-4.355-9.209-13.749-15.16-23.933-15.16z"/><path id="XMLID_916_" d="m131.017 144.384c-8.426 8.426-22.136 8.426-30.561 0-3.905-3.905-10.237-3.905-14.143 0-3.905 3.905-3.905 10.237 0 14.143 8.113 8.112 18.766 12.167 29.423 12.167 10.654 0 21.312-4.057 29.422-12.167 3.905-3.905 3.906-10.237 0-14.142-3.904-3.906-10.236-3.906-14.141-.001z"/><path id="XMLID_1071_" d="m511.56 336.665-33.383-108.692c-.27-33.54-9.466-66.491-26.637-95.39-2.822-4.748-8.958-6.31-13.705-3.489-4.748 2.821-6.31 8.957-3.489 13.705 15.595 26.246 23.838 56.225 23.838 86.695 0 .995.148 1.985.441 2.936l29.845 97.171h-40.058c-5.523 0-10 4.477-10 10v51.341c0 23.333-18.983 42.317-42.317 42.317h-61.287c-4.859 0-9.016 3.494-9.851 8.28l-10.253 58.741c-.95 5.441 2.691 10.621 8.131 11.571.582.102 1.161.15 1.731.15 4.769 0 8.991-3.423 9.839-8.282l8.808-50.461h52.881c34.362 0 62.317-27.955 62.317-62.317v-41.341h43.59c3.172 0 6.157-1.505 8.042-4.057 1.886-2.551 2.449-5.845 1.517-8.878z"/><path id="XMLID_1072_" d="m415.341 112.159c2.63 0 5.21-1.07 7.07-2.93s2.93-4.44 2.93-7.07-1.07-5.21-2.93-7.07-4.44-2.93-7.07-2.93-5.21 1.07-7.07 2.93-2.93 4.44-2.93 7.07 1.07 5.21 2.93 7.07c1.86 1.861 4.44 2.93 7.07 2.93z"/></g></g></svg>