<svg id="Layer_1" enable-background="new 0 0 512 512" height="512" viewBox="0 0 512 512" width="512" xmlns="http://www.w3.org/2000/svg"><g id="XMLID_2459_"><g id="XMLID_2425_"><path id="XMLID_2460_" d="m375.334 502v-88c69.844 0 126.666-56.822 126.666-126.666v-28.841c0-17.673-14.327-32-32-32s-32 14.327-32 32v28.841c0 34.554-28.112 62.666-62.666 62.666h-63.334-112-63.333c-34.554 0-62.667-28.112-62.667-62.666v-28.841c0-17.673-14.327-32-32-32s-32 14.327-32 32v28.841c0 69.844 56.823 126.666 126.667 126.666v88z" fill="#91def5"/><path id="XMLID_2489_" d="m318.72 350.001-62.72 152-62.719-152z" fill="#fff"/><path id="XMLID_2473_" d="m256 350c-34.242 0-62-27.758-62-62v-46.05c0-34.242 27.758-62 62-62 34.242 0 62 27.758 62 62v46.05c0 34.242-27.758 62-62 62z" fill="#ffbf9e"/><path id="XMLID_2472_" d="m256 179.95c-34.242 0-62 27.758-62 62v10.1h10.043c18.669 0 36.685-5.501 51.957-15.495 15.272 9.994 33.288 15.495 51.957 15.495h10.043v-10.1c0-34.241-27.758-62-62-62z" fill="#8690a6"/><g fill="#ffcb7c"><path id="XMLID_2457_" d="m379.948 117.924 25.284 18.454c6.461 4.716 15.175-1.615 12.686-9.217l-9.738-29.749 25.441-18.399c6.474-4.682 3.162-14.914-4.828-14.914h-31.397l-9.609-29.728c-2.459-7.606-13.219-7.606-15.678 0l-9.609 29.728h-31.397c-7.99 0-11.302 10.232-4.828 14.914l25.441 18.399-9.738 29.749c-2.488 7.602 6.225 13.933 12.686 9.217z"/><path id="XMLID_2454_" d="m132.052 117.924-25.284 18.454c-6.461 4.716-15.175-1.615-12.686-9.217l9.738-29.749-25.441-18.399c-6.474-4.682-3.162-14.914 4.828-14.914h31.397l9.609-29.728c2.459-7.606 13.219-7.606 15.678 0l9.609 29.728h31.397c7.99 0 11.302 10.232 4.828 14.914l-25.441 18.399 9.738 29.749c2.488 7.602-6.225 13.933-12.686 9.217z"/><path id="XMLID_2439_" d="m256 114.497-29.6 21.605c-7.564 5.521-17.766-1.891-14.852-10.791l11.4-34.828-29.785-21.541c-7.58-5.482-3.702-17.46 5.652-17.46h36.758l11.25-34.803c2.878-8.904 15.476-8.904 18.355 0l11.25 34.803h36.758c9.354 0 13.232 11.979 5.652 17.46l-29.785 21.541 11.4 34.828c2.913 8.9-7.288 16.312-14.852 10.791z"/></g></g><g id="XMLID_347_"><path id="XMLID_350_" d="m470 216.493c-23.159 0-42 18.841-42 42v28.841c0 29.041-23.626 52.666-52.666 52.666h-69.612c13.712-13.116 22.278-31.571 22.278-52v-46.05c0-39.701-32.299-72-72-72s-72 32.299-72 72v46.05c0 20.429 8.566 38.883 22.279 52h-69.612c-29.041 0-52.667-23.625-52.667-52.666v-28.841c0-23.159-18.841-42-42-42s-42 18.841-42 42v28.841c0 19.779 4.154 38.875 12.348 56.755 2.3 5.021 8.235 7.227 13.257 4.925 5.021-2.301 7.226-8.236 4.925-13.257-6.987-15.248-10.53-31.54-10.53-48.423v-28.841c0-12.131 9.869-22 22-22s22 9.869 22 22v28.841c0 40.068 32.598 72.666 72.667 72.666h49.922l54.467 132h-94.389v-78c0-5.523-4.477-10-10-10-16.884 0-33.178-3.543-48.428-10.532-5.023-2.301-10.957-.096-13.257 4.925-2.301 5.021-.096 10.956 4.925 13.257 14.851 6.806 30.539 10.825 46.76 11.993v78.357c0 5.523 4.477 10 10 10h238.667c5.523 0 10-4.477 10-10v-78.362c70.708-5.137 126.666-64.308 126.666-136.304v-28.841c0-23.159-18.841-42-42-42zm-214-26.543c28.673 0 52 23.327 52 52v.1h-.043c-16.55 0-32.623-4.794-46.481-13.863-3.326-2.177-7.626-2.177-10.952 0-13.858 9.069-29.931 13.863-46.481 13.863h-.043v-.1c0-28.673 23.327-52 52-52zm-52 98.05v-25.95h.043c18.305 0 36.138-4.746 51.957-13.777 15.819 9.031 33.652 13.777 51.957 13.777h.043v25.95c0 28.673-23.327 52-52 52s-52-23.327-52-52zm42 72v24c0 5.523 4.477 10 10 10s10-4.477 10-10v-24h37.775l-47.775 115.784-47.775-115.784zm246-72.666c0 64.33-52.336 116.666-116.666 116.666-5.523 0-10 4.477-10 10v78h-94.389l54.467-132h49.922c40.068 0 72.666-32.598 72.666-72.666v-28.841c0-12.131 9.869-22 22-22s22 9.869 22 22z"/><path id="XMLID_846_" d="m257.517 295.364c-.476.477-1.019.576-1.39.576s-.914-.1-1.39-.576c-3.904-3.904-10.236-3.906-14.142 0-3.905 3.905-3.906 10.236 0 14.142 4.148 4.149 9.665 6.434 15.533 6.434 5.867 0 11.383-2.285 15.533-6.434 3.905-3.905 3.905-10.237 0-14.143-3.906-3.904-10.238-3.904-14.144.001z"/><path id="XMLID_850_" d="m72.518 87.116 19.527 14.122-7.468 22.812c-2.471 7.55.187 15.76 6.614 20.429 3.208 2.331 6.964 3.495 10.72 3.495 3.77 0 7.539-1.173 10.752-3.519l19.388-14.151 19.388 14.151c6.415 4.683 15.044 4.692 21.472.024 6.427-4.669 9.085-12.879 6.614-20.429l-7.467-22.812 19.527-14.122c1.59-1.15 2.948-2.518 4.059-4.038l15.529 11.23-9.13 27.891c-2.704 8.26.092 16.897 7.123 22.005 3.509 2.55 7.529 3.824 11.547 3.824 4.033 0 8.065-1.283 11.581-3.85l23.706-17.301 23.705 17.302c7.021 5.125 16.099 5.133 23.129.025s9.826-13.746 7.123-22.004l-9.13-27.891 15.529-11.23c1.111 1.52 2.469 2.888 4.059 4.038l19.527 14.122-7.467 22.812c-2.471 7.55.187 15.76 6.614 20.429 3.208 2.331 6.964 3.495 10.72 3.495 3.77 0 7.539-1.173 10.752-3.519l19.388-14.151 19.388 14.151c6.415 4.683 15.044 4.692 21.472.024 6.427-4.669 9.085-12.879 6.614-20.429l-7.468-22.812 19.527-14.122c6.43-4.65 9.107-12.846 6.664-20.396s-9.417-12.622-17.352-12.622h-24.121l-7.371-22.803c-2.441-7.554-9.416-12.629-17.354-12.629s-14.913 5.075-17.354 12.629l-7.372 22.803h-23.706c-2.921-7.695-10.001-12.617-18.332-12.617h-29.481l-9.012-27.879c-2.669-8.264-10.007-13.603-18.691-13.603s-16.021 5.339-18.692 13.603l-9.012 27.879h-29.481c-8.33 0-15.41 4.922-18.332 12.617h-23.707l-7.371-22.803c-2.441-7.554-9.416-12.629-17.354-12.629s-14.913 5.075-17.354 12.629l-7.371 22.803h-24.12c-7.935 0-14.908 5.072-17.352 12.622s.235 15.745 6.664 20.395zm289.982-13.017c4.338 0 8.181-2.796 9.515-6.924l7.934-24.542 7.933 24.542c1.334 4.127 5.177 6.924 9.515 6.924h25.956l-21.033 15.211c-3.523 2.548-4.996 7.082-3.644 11.214l8.039 24.557-20.872-15.233c-3.513-2.563-8.278-2.563-11.791 0l-20.872 15.233 8.039-24.557c1.353-4.132-.12-8.666-3.644-11.214l-21.032-15.21h25.957zm-126.927-12.617c4.338 0 8.181-2.797 9.515-6.924l10.914-33.753 10.911 33.753c1.334 4.127 5.177 6.924 9.515 6.924l35.657.003-28.893 20.895c-3.523 2.548-4.996 7.082-3.644 11.214l11.054 33.779-28.707-20.953c-1.756-1.282-3.826-1.923-5.896-1.923-2.069 0-4.14.641-5.896 1.923l-28.709 20.951 11.056-33.776c1.353-4.132-.12-8.666-3.644-11.214l-28.892-20.898h35.659zm-120.969 12.617c4.338 0 8.181-2.797 9.515-6.924l7.933-24.542 7.933 24.542c1.334 4.127 5.177 6.924 9.515 6.924h25.956l-21.032 15.21c-3.523 2.548-4.996 7.082-3.644 11.214l8.039 24.558-20.872-15.234c-1.756-1.282-3.826-1.923-5.896-1.923s-4.139.641-5.896 1.923l-20.872 15.233 8.039-24.557c1.353-4.132-.12-8.666-3.644-11.214l-21.032-15.21z"/><path id="XMLID_853_" d="m47.14 366.86c-2.63 0-5.21 1.06-7.07 2.92-1.86 1.87-2.93 4.45-2.93 7.08s1.07 5.21 2.93 7.07 4.44 2.93 7.07 2.93c2.64 0 5.21-1.07 7.07-2.93s2.93-4.44 2.93-7.07c0-2.64-1.07-5.21-2.93-7.08-1.86-1.86-4.43-2.92-7.07-2.92z"/></g></g></svg>