<svg id="Layer_1" enable-background="new 0 0 512.007 512.007" height="512" viewBox="0 0 512.007 512.007" width="512" xmlns="http://www.w3.org/2000/svg"><g id="XMLID_1495_"><path id="XMLID_2395_" d="m281.217 271.411c1.656 8.396 4.308 16.512 7.844 24.206v206.387h45.715 120.061v-151.452l15.41-15.366c20.333-20.274 31.76-47.807 31.76-76.521v-22.3-1.55-73.328c0-12.15-9.85-22-22-22-11.719 0-21.294 9.163-21.96 20.715v-48.247c0-12.15-9.85-22-22-22-12.15 0-22 9.85-22 22v-33.582c0-12.15-9.85-22-22-22-12.15 0-22 9.85-22 22v33.584c0-12.15-9.85-22-22-22-12.15 0-22 9.85-22 22v92.728l-.002-52.992v82.964c0 2.703-3.865 3.17-4.508.544z" fill="#cc9e83"/><g id="XMLID_1281_"><g id="XMLID_1282_"><path id="XMLID_1283_" d="m195.605 502.003v-197.82l15.41-15.366c20.332-20.274 31.76-47.807 31.76-76.521v-23.85 1.55-74.878c0-12.15-9.85-22-22-22-12.15 0-22 9.85-22 22v59.467h.04v-108.998c0-12.15-9.85-22-22-22-12.15 0-22 9.85-22 22v108.999-43.737-98.846c0-12.15-9.85-22-22-22-12.15 0-22 9.85-22 22v98.846 43.737-108.999c0-12.15-9.85-22-22-22-12.15 0-22 9.85-22 22v92.728l-.002-52.992v82.964c0 2.703-3.865 3.17-4.508.545l-7.864-32.076c-2.827-11.53-14.113-18.891-25.805-16.83-12.434 2.192-20.642 14.17-18.199 26.557l11.548 58.559c4.157 21.08 14.503 40.442 29.718 55.613l23.842 23.774v197.574z" fill="#f2bb88"/></g></g><g id="XMLID_1944_"><g id="XMLID_1946_"><path id="XMLID_1947_" d="m322.832 502.003v-39.612l15.41-15.366c20.332-20.274 31.76-47.807 31.76-76.521v-23.85 1.55-74.878c0-12.15-9.85-22-22-22-12.15 0-22 9.85-22 22v59.467h.04v-108.998c0-12.15-9.85-22-22-22-12.15 0-22 9.85-22 22v108.999-43.737-98.846c0-12.15-9.85-22-22-22-12.15 0-22 9.85-22 22v98.846 43.737-108.999c0-12.15-9.85-22-22-22-12.15 0-22 9.85-22 22v92.728l-.002-52.992v82.964c0 2.703-3.865 3.17-4.508.545l-7.864-32.076c-2.827-11.53-14.113-18.891-25.805-16.83-12.434 2.192-20.642 14.17-18.199 26.557l11.548 58.559c4.157 21.08 14.503 40.442 29.718 55.613l23.842 23.774v39.366z" fill="#ffcbbe"/></g></g><g id="XMLID_339_"><path id="XMLID_396_" d="m454.837 385.552c-5.522 0-10 4.477-10 10v106.452c0 5.523 4.478 10 10 10s10-4.477 10-10v-106.452c0-5.523-4.478-10-10-10z"/><path id="XMLID_397_" d="m454.837 340.553c-2.63 0-5.21 1.07-7.07 2.93s-2.93 4.44-2.93 7.07 1.069 5.21 2.93 7.07c1.86 1.86 4.44 2.93 7.07 2.93s5.21-1.07 7.069-2.93c1.86-1.86 2.931-4.44 2.931-7.07s-1.07-5.21-2.931-7.07c-1.859-1.86-4.439-2.93-7.069-2.93z"/></g><path id="XMLID_334_" d="m480.007 129.488c-4.228 0-8.262.832-11.96 2.328v-19.859c0-17.645-14.355-32-32-32-4.243 0-8.292.837-12 2.343v-3.927c0-17.645-14.355-32-32-32s-32 14.355-32 32v3.927c-3.708-1.506-7.757-2.343-12-2.343-17.645 0-32 14.355-32 32v82.185c-3.71-1.507-7.76-2.345-12.005-2.345-4.243 0-8.292.837-12 2.343v-3.927c0-17.645-14.355-32-32-32-2.5 0-4.93.297-7.267.842v-43.935c0-17.645-14.355-32-32.001-32-4.227 0-8.262.832-11.959 2.327v-19.86c0-17.645-14.355-32-32-32-4.243 0-8.292.837-12 2.343v-3.927c0-17.645-14.355-32-32-32s-32 14.355-32 32v3.927c-3.708-1.506-7.757-2.343-12-2.343-17.645 0-32 14.355-32 32l-.002 74.88c-7.295-8.136-18.504-12.402-29.913-10.39-8.683 1.531-16.209 6.38-21.192 13.652-4.982 7.272-6.787 16.04-5.082 24.688l11.547 58.559c4.559 23.113 15.786 44.124 32.468 60.759l20.903 20.844v193.424c0 5.523 4.478 10 10 10s10-4.477 10-10v-197.574c0-2.657-1.058-5.205-2.938-7.081l-23.842-23.774c-13.856-13.817-23.182-31.269-26.968-50.467l-11.548-58.559c-.657-3.333.038-6.711 1.959-9.514 1.92-2.802 4.82-4.671 8.166-5.261 6.481-1.142 12.789 2.97 14.356 9.363l7.862 32.076c1.503 6.13 7.153 10.031 13.407 9.273 6.267-.757 10.814-5.887 10.814-12.198l.002-122.7c0-6.617 5.383-12 12-12s12 5.383 12 12v108.999c0 5.523 4.478 10 10 10s10-4.477 10-10v-142.583c0-6.617 5.383-12 12-12s12 5.383 12 12v142.583c0 5.523 4.478 10 10 10s10-4.477 10-10v-108.999c0-6.617 5.383-12 12-12s12 5.383 12 12v96.208c0 5.523 4.478 10 10 10s10-4.477 10-10v-47.467c.41-6.248 5.61-11.21 11.96-11.21 6.617 0 12 5.383 12 12v58.373c-2.997 4.87-4.733 10.595-4.733 16.72v3.927c-3.708-1.506-7.757-2.343-12-2.343-17.645 0-32 14.355-32 32l-.002 74.879c-7.294-8.135-18.499-12.401-29.913-10.389-8.682 1.531-16.207 6.378-21.19 13.65s-6.789 16.04-5.084 24.689l11.548 58.559c4.558 23.114 15.785 44.125 32.468 60.76l20.903 20.844v35.216c0 5.523 4.478 10 10 10s10-4.477 10-10v-39.366c0-2.657-1.058-5.205-2.939-7.081l-23.842-23.775c-13.856-13.817-23.182-31.268-26.967-50.466l-11.548-58.559c-.657-3.333.038-6.712 1.959-9.514 1.92-2.802 4.82-4.67 8.165-5.26 6.483-1.141 12.788 2.969 14.356 9.363l7.863 32.076c1.503 6.129 7.128 10.031 13.407 9.273 6.266-.757 10.813-5.887 10.813-12.198l.002-122.7c0-6.617 5.383-12 12-12s12 5.383 12 12v108.999c0 5.523 4.478 10 10 10s10-4.477 10-10v-142.584c0-6.617 5.383-12 12-12s12 5.383 12 12v142.583c0 5.523 4.478 10 10 10s10-4.477 10-10v-108.999c0-6.617 5.383-12 12-12 6.35 0 11.55 4.962 11.96 11.21v109.789c0 5.523 4.478 10 10 10 .007 0 .013-.001.02-.001s.013.001.02.001c5.522 0 10-4.477 10-10v-60.257c.41-6.248 5.61-11.21 11.96-11.21 6.617 0 12 5.383 12 12v97.177c0 25.866-10.505 51.176-28.82 69.44l-15.41 15.366c-1.882 1.876-2.939 4.424-2.939 7.081v39.612c0 5.523 4.478 10 10 10s10-4.477 10-10v-35.462l12.471-12.435c22.376-22.313 34.699-52.003 34.699-83.602v-97.177c0-17.645-14.355-32-32-32-4.228 0-8.262.832-11.96 2.328l.005-131.699c0-6.617 5.383-12 12-12s12 5.383 12 12v98.058c0 5.523 4.478 10 10 10s10-4.477 10-10v-131.641c0-6.617 5.383-12 12-12s12 5.383 12 12v142.583c0 5.523 4.478 10 10 10s10-4.477 10-10v-109c0-6.617 5.383-12 12-12s12 5.383 12 12l-.04 108.999c0 5.523 4.478 10 10 10 .007 0 .013-.001.02-.001s.013.001.02.001c5.522 0 10-4.477 10-10v-60.258c.41-6.248 5.61-11.21 11.96-11.21 6.617 0 12 5.383 12 12v97.178c0 18.823-5.376 37.145-15.546 52.983-2.983 4.647-1.636 10.834 3.012 13.818 1.673 1.074 3.544 1.586 5.394 1.586 3.291 0 6.515-1.623 8.425-4.598 12.244-19.069 18.716-41.127 18.716-63.79v-97.178c0-17.643-14.356-31.998-32-31.998z"/></g></svg>