<svg id="Layer_1" enable-background="new 0 0 511.994 511.994" height="512" viewBox="0 0 511.994 511.994" width="512" xmlns="http://www.w3.org/2000/svg"><g id="XMLID_1184_"><g id="XMLID_1795_"><g id="XMLID_1836_"><path d="m134.497 331.141c-16.032-32.253-24.43-70.631-24.43-104.771 0-99.467 82.801-175.929 181.991-175.929 96.814 0 176.119 81.133 176.119 179.044l33.818 110.107h-53.591v51.341c0 28.894-23.423 52.317-52.317 52.317h-61.287l-10.253 58.741h-191.976l14.743-61.141c8.905-36.931 4.093-75.692-12.817-109.709z" fill="#ffcbbe"/></g><g id="XMLID_1832_"><g id="XMLID_1833_"><path id="XMLID_12_" d="m186.699 245.519c2.674 12.03 7.409 23.283 13.822 33.367l-14.092 14.092 32.355 32.355 14.089-14.089c10.084 6.416 21.338 11.154 33.37 13.83v19.916h45.757v-19.916c12.032-2.676 23.286-7.414 33.37-13.83l14.089 14.089 32.355-32.355-14.092-14.092c6.413-10.084 11.148-21.336 13.822-33.367h19.928v-45.757h-19.934c-2.677-12.026-7.414-23.275-13.827-33.355l14.104-14.104-32.355-32.355-14.107 14.107c-10.079-6.41-21.327-11.145-33.352-13.819v-19.946h-45.757v19.946c-12.025 2.674-23.272 7.409-33.352 13.819l-14.107-14.107-32.355 32.355 14.104 14.104c-6.414 10.08-11.151 21.329-13.827 33.355h-19.934v45.757zm53.402-22.864c0-27.074 21.948-49.021 49.021-49.021s49.021 21.948 49.021 49.021-21.948 49.021-49.021 49.021-49.021-21.947-49.021-49.021z" fill="#91def5"/></g></g><g id="XMLID_2385_"><circle id="XMLID_354_" cx="120" cy="120.001" fill="#ffcb7c" r="110"/></g></g><g id="XMLID_353_"><path id="XMLID_394_" d="m322 344.991v-12.187c7.552-2.249 14.831-5.265 21.766-9.022l8.622 8.623c1.876 1.875 4.419 2.929 7.071 2.929s5.196-1.054 7.071-2.929l32.354-32.355c3.905-3.905 3.905-10.237 0-14.142l-8.627-8.626c3.755-6.934 6.77-14.211 9.016-21.761h12.198c5.522 0 10-4.477 10-10v-45.757c0-5.523-4.478-10-10-10h-12.206c-2.248-7.547-5.263-14.82-9.018-21.751l8.637-8.637c3.905-3.905 3.905-10.237 0-14.142l-32.354-32.355c-3.904-3.905-10.234-3.905-14.143 0l-8.642 8.642c-6.93-3.752-14.201-6.765-21.746-9.011v-12.22c0-5.523-4.478-10-10-10h-45.757c-5.522 0-10 4.477-10 10v12.217c-5.581 1.661-11.005 3.758-16.259 6.247-.172-16.767-3.798-32.719-10.202-47.18 19.819-7.385 40.718-11.133 62.275-11.133 27.685 0 55.167 7.218 79.476 20.874 1.549.871 3.229 1.284 4.889 1.284 3.497 0 6.893-1.838 8.728-5.104 2.705-4.815.994-10.912-3.821-13.616-27.293-15.333-58.162-23.437-89.271-23.437-24.948 0-49.116 4.523-71.977 13.43-21.503-32.437-58.333-53.871-100.08-53.871-66.168 0-120 53.832-120 120 0 59.496 43.527 109.01 100.407 118.392 1.775 33.308 10.767 68.293 25.135 97.199 16.009 32.203 20.288 68.752 12.05 102.914l-14.743 61.141c-1.294 5.369 2.009 10.771 7.378 12.065.787.19 1.576.281 2.352.281 4.514 0 8.608-3.077 9.714-7.658l14.743-61.141c9.337-38.724 4.514-80.099-13.583-116.504-12.815-25.781-20.965-56.858-22.913-86.695 12.629-.056 24.802-2.075 36.232-5.764v11.288c0 5.523 4.478 10 10 10h12.198c2.246 7.55 5.261 14.827 9.016 21.761l-8.627 8.626c-3.905 3.905-3.905 10.237 0 14.142l32.354 32.355c1.875 1.875 4.419 2.929 7.071 2.929s5.195-1.054 7.071-2.929l8.622-8.623c6.935 3.757 14.214 6.773 21.766 9.022v12.187c0 5.523 4.478 10 10 10h45.757c5.522.002 10-4.475 10-9.998zm-302-224.99c0-55.14 44.859-100 100-100s100 44.86 100 100-44.859 100-100 100-100-44.859-100-100zm289.829 195.312c-4.575 1.017-7.829 5.075-7.829 9.761v9.916h-25.757v-9.916c0-4.686-3.254-8.744-7.829-9.761-10.729-2.387-20.881-6.594-30.173-12.506-3.953-2.516-9.125-1.948-12.439 1.366l-7.018 7.018-18.213-18.213 7.021-7.021c3.313-3.313 3.882-8.483 1.367-12.438-5.909-9.292-10.114-19.442-12.499-30.17-1.017-4.575-5.075-7.831-9.762-7.831h-9.928v-9.821c31.207-16.829 54.149-47.076 61.059-82.962.142-.081.288-.154.427-.243 9.287-5.906 19.434-10.11 30.156-12.496 4.574-1.017 7.829-5.075 7.829-9.761v-9.946h25.759v9.946c0 4.687 3.255 8.744 7.829 9.761 10.723 2.385 20.869 6.589 30.156 12.496 3.953 2.515 9.123 1.947 12.438-1.367l7.036-7.036 18.213 18.213-7.033 7.032c-3.313 3.314-3.882 8.485-1.365 12.44 5.91 9.288 10.116 19.435 12.502 30.159 1.019 4.574 5.075 7.828 9.762 7.828h9.935v25.757h-9.928c-4.687 0-8.745 3.255-9.762 7.831-2.385 10.728-6.59 20.878-12.499 30.17-2.515 3.954-1.946 9.124 1.367 12.438l7.021 7.021-18.213 18.213-7.018-7.018c-3.315-3.315-8.487-3.882-12.439-1.366-9.292 5.912-19.443 10.12-30.173 12.506z"/><path id="XMLID_1056_" d="m289.122 163.634c-32.545 0-59.021 26.477-59.021 59.021s26.477 59.021 59.021 59.021 59.021-26.477 59.021-59.021-26.477-59.021-59.021-59.021zm0 98.043c-21.517 0-39.021-17.505-39.021-39.021s17.505-39.021 39.021-39.021 39.021 17.505 39.021 39.021-17.505 39.021-39.021 39.021z"/><path id="XMLID_1057_" d="m511.554 336.656-33.383-108.692c-.28-34.969-10.213-69.13-28.77-98.89-2.922-4.687-9.091-6.117-13.776-3.194-4.687 2.922-6.117 9.09-3.194 13.776 16.843 27.013 25.746 58.075 25.746 89.829 0 .995.148 1.985.44 2.936l29.845 97.171h-40.058c-5.522 0-10 4.477-10 10v51.341c0 23.333-18.983 42.316-42.317 42.316h-61.287c-4.859 0-9.016 3.494-9.852 8.281l-10.253 58.741c-.949 5.44 2.691 10.621 8.132 11.57.582.102 1.16.15 1.731.15 4.769 0 8.991-3.423 9.839-8.282l8.808-50.46h52.882c34.362 0 62.317-27.955 62.317-62.316v-41.341h43.59c3.173 0 6.157-1.505 8.042-4.057 1.886-2.552 2.449-5.847 1.518-8.879z"/><path id="XMLID_1060_" d="m130 178.97v-2.598c15.151-4.062 26.273-17.101 26.273-32.526 0-18.662-16.272-33.845-36.273-33.845-8.974 0-16.274-6.211-16.274-13.845s7.301-13.845 16.274-13.845 16.273 6.211 16.273 13.845c0 5.523 4.478 10 10 10s10-4.477 10-10c0-15.426-11.122-28.465-26.273-32.527v-2.598c0-5.523-4.478-10-10-10s-10 4.477-10 10v2.598c-15.152 4.062-26.274 17.101-26.274 32.527 0 18.662 16.272 33.845 36.274 33.845 8.974 0 16.273 6.211 16.273 13.845s-7.3 13.845-16.273 13.845-16.274-6.211-16.274-13.845c0-5.523-4.478-10-10-10s-10 4.477-10 10c0 15.426 11.122 28.465 26.274 32.526v2.598c0 5.523 4.478 10 10 10s10-4.477 10-10z"/><path id="XMLID_1070_" d="m412.566 109.416c2.631 0 5.211-1.07 7.07-2.93 1.86-1.86 2.93-4.44 2.93-7.07s-1.069-5.21-2.93-7.07c-1.859-1.86-4.439-2.93-7.07-2.93-2.63 0-5.21 1.07-7.069 2.93-1.86 1.86-2.931 4.44-2.931 7.07s1.07 5.21 2.931 7.07c1.859 1.86 4.44 2.93 7.069 2.93z"/></g></g></svg>