<svg id="Layer_1" enable-background="new 0 0 512.008 512.008" height="512" viewBox="0 0 512.008 512.008" width="512" xmlns="http://www.w3.org/2000/svg"><g id="XMLID_759_"><path id="XMLID_2008_" d="m329.183 199.438v-59.685h-26.002c-3.491-15.687-9.67-30.36-18.036-43.508l18.396-18.396-42.203-42.203-18.401 18.401c-13.147-8.362-27.819-14.537-43.503-18.025v-26.018h-59.685v26.017c-15.685 3.488-30.356 9.664-43.503 18.025l-18.401-18.4-42.204 42.203 18.396 18.396c-8.366 13.148-14.545 27.821-18.036 43.508h-26.001v59.685h25.994c3.487 15.692 9.664 30.37 18.029 43.523l-18.381 18.382 42.203 42.203 18.377-18.377c13.154 8.369 27.833 14.55 43.527 18.04v25.979h59.685v-25.979c15.694-3.49 30.374-9.671 43.527-18.04l18.377 18.377 42.203-42.203-18.382-18.382c8.365-13.153 14.542-27.831 18.029-43.523z" fill="#91def5"/><g id="XMLID_1963_"><path id="XMLID_1973_" d="m346.008 350.004c-34.242 0-62-27.758-62-62v-46.05c0-34.242 27.758-62 62-62 34.242 0 62 27.758 62 62v46.05c0 34.242-27.758 62-62 62z" fill="#ffbf9e"/><path id="XMLID_1972_" d="m346.008 179.954c-34.242 0-62 27.758-62 62v10.1h10.043c18.669 0 36.685-5.501 51.957-15.495 15.272 9.994 33.288 15.495 51.957 15.495h10.043v-10.1c0-34.242-27.758-62-62-62z" fill="#8690a6"/><path id="XMLID_1968_" d="m408.728 350.004h-125.439c-51.517 0-93.281 41.763-93.281 93.281v58.719h312v-58.719c0-51.518-41.763-93.281-93.28-93.281z" fill="#f6838d"/><path id="XMLID_1966_" d="m408.728 350.004-62.72 152-62.719-152z" fill="#fff"/></g><circle id="XMLID_2110_" cx="169.591" cy="170.505" fill="#ffcb7c" r="88"/><g id="XMLID_427_"><path id="XMLID_432_" d="m408.728 340.004h-12.998c13.712-13.117 22.278-31.571 22.278-52v-46.05c0-39.701-32.299-72-72-72-2.303 0-4.577.12-6.825.332v-30.533c0-5.523-4.478-10-10-10h-18.21c-3.133-11.148-7.566-21.842-13.245-31.949l12.885-12.884c3.905-3.905 3.905-10.237 0-14.143l-42.203-42.203c-3.904-3.904-10.234-3.905-14.143 0l-12.89 12.89c-10.105-5.675-20.798-10.106-31.943-13.237v-18.223c0-5.523-4.478-10-10-10h-59.685c-5.522 0-10 4.477-10 10v18.224c-11.146 3.13-21.838 7.562-31.943 13.237l-12.89-12.89c-3.906-3.905-10.236-3.904-14.143 0l-42.203 42.203c-3.905 3.905-3.905 10.237 0 14.143l12.885 12.884c-5.678 10.106-10.112 20.802-13.245 31.949h-18.21c-5.522 0-10 4.477-10 10v59.685c0 5.523 4.478 10 10 10h18.198c3.131 11.151 7.564 21.853 13.242 31.963l-12.87 12.871c-3.905 3.905-3.905 10.237 0 14.142l42.203 42.204c1.876 1.875 4.419 2.929 7.071 2.929s5.195-1.054 7.071-2.929l12.864-12.865c10.112 5.682 20.814 10.118 31.969 13.25v18.185c0 5.523 4.478 10 10 10h59.685c5.522 0 10-4.477 10-10v-18.185c11.154-3.133 21.856-7.569 31.969-13.25l12.864 12.865c3.906 3.905 10.236 3.905 14.143 0l7.263-7.263c3.106 14.243 10.438 26.915 20.614 36.649h-12.997c-56.949 0-103.281 46.332-103.281 103.281v58.719c0 5.523 4.478 10 10 10h312c5.522 0 10-4.477 10-10v-58.719c0-56.951-46.331-103.282-103.28-103.282zm-72.72 20v24c0 5.523 4.478 10 10 10s10-4.477 10-10v-24h37.775l-47.775 115.783-47.774-115.783zm62-118.05v.1h-.043c-16.549 0-32.622-4.794-46.481-13.863-3.326-2.177-7.625-2.176-10.951 0-13.858 9.069-29.932 13.863-46.481 13.863h-.043v-.1c0-28.673 23.327-52 52-52s51.999 23.327 51.999 52zm-136.67 47.45-11.306-11.306c-3.315-3.315-8.487-3.882-12.439-1.366-12.42 7.902-25.988 13.526-40.33 16.715-4.574 1.018-7.829 5.075-7.829 9.762v15.979h-39.685v-15.979c0-4.687-3.255-8.744-7.829-9.762-14.342-3.189-27.91-8.813-40.33-16.715-3.953-2.516-9.125-1.948-12.439 1.366l-11.306 11.306-28.062-28.062 11.311-11.311c3.313-3.313 3.882-8.483 1.367-12.438-7.898-12.418-13.52-25.986-16.706-40.326-1.017-4.575-5.075-7.831-9.762-7.831h-15.993v-39.685h16.002c4.686 0 8.743-3.254 9.761-7.828 3.19-14.335 8.813-27.898 16.712-40.312 2.517-3.954 1.948-9.125-1.365-12.439l-11.326-11.323 28.061-28.061 11.33 11.33c3.313 3.313 8.485 3.881 12.438 1.367 12.414-7.895 25.976-13.514 40.308-16.702 4.574-1.018 7.829-5.075 7.829-9.762v-16.017h39.685v16.017c0 4.687 3.255 8.744 7.829 9.762 14.332 3.188 27.894 8.807 40.308 16.702 3.953 2.514 9.123 1.947 12.438-1.367l11.33-11.33 28.061 28.061-11.325 11.325c-3.313 3.314-3.882 8.485-1.365 12.439 7.898 12.414 13.521 25.977 16.712 40.312 1.018 4.574 5.075 7.828 9.761 7.828h16.002v25.404c-26.45 10.661-45.175 36.575-45.175 66.797v34.78zm32.67-1.4v-25.95h.043c18.305 0 36.139-4.746 51.957-13.777 15.82 9.032 33.651 13.777 51.957 13.777h.043v25.95c0 28.673-23.327 52-52 52s-52-23.327-52-52zm-94 155.28c0-43.706 33.85-79.631 76.706-82.997l54.35 131.716h-131.056zm292 48.72h-131.056l54.351-131.716c42.855 3.367 76.705 39.291 76.705 82.997z"/><path id="XMLID_1523_" d="m218.066 85.315c-4.798-2.735-10.904-1.064-13.641 3.734-2.735 4.798-1.063 10.905 3.734 13.64 24.322 13.867 39.431 39.852 39.431 67.815 0 43.009-34.99 78-78 78s-78-34.991-78-78c0-27.964 15.111-53.95 39.436-67.817 4.798-2.735 6.471-8.842 3.735-13.64s-8.844-6.47-13.64-3.735c-30.552 17.416-49.531 50.06-49.531 85.192 0 54.038 43.963 98 98 98s98-43.962 98-98c.001-35.129-18.976-67.772-49.524-85.189z"/><path id="XMLID_1528_" d="m169.591 198.656c-6.075 0-11.019-4.071-11.019-9.076 0-5.523-4.478-10-10-10s-10 4.477-10 10c0 12.753 8.809 23.606 21.019 27.516v.583c0 5.523 4.478 10 10 10s10-4.477 10-10v-.583c12.211-3.91 21.02-14.764 21.02-27.517 0-16.033-13.915-29.076-31.02-29.076-6.075 0-11.019-4.071-11.019-9.076s4.943-9.076 11.019-9.076 11.02 4.072 11.02 9.076c0 5.523 4.478 10 10 10s10-4.477 10-10c0-12.753-8.809-23.607-21.02-27.517v-.583c0-5.523-4.478-10-10-10s-10 4.477-10 10v.583c-12.21 3.91-21.019 14.764-21.019 27.517 0 16.032 13.915 29.076 31.019 29.076 6.076 0 11.02 4.072 11.02 9.076s-4.944 9.077-11.02 9.077z"/><path id="XMLID_1555_" d="m169.594 92.504c2.63 0 5.21-1.07 7.07-2.93 1.859-1.86 2.93-4.44 2.93-7.07s-1.07-5.21-2.93-7.07-4.44-2.93-7.07-2.93c-2.64 0-5.21 1.07-7.07 2.93-1.87 1.86-2.93 4.44-2.93 7.07s1.06 5.21 2.93 7.07c1.86 1.86 4.44 2.93 7.07 2.93z"/></g></g></svg>