<svg id="Layer_1" enable-background="new 0 0 512 512" height="512" viewBox="0 0 512 512" width="512" xmlns="http://www.w3.org/2000/svg"><g id="XMLID_1422_"><g id="XMLID_2426_"><g id="XMLID_2471_"><g id="XMLID_2432_"><g id="XMLID_2435_"><path d="m25.358 394.771c-10.062-20.242-15.697-44.333-15.333-65.757 1.058-62.245 52.15-110.417 114.222-110.417 61.224 0 110.537 50.921 110.537 112.373l21.225 69.106h-33.635v26.891c0 21.079-17.088 38.168-38.168 38.168h-33.133l-10.561 36.865h-116.363l9.315-38.631c5.57-23.101 2.472-47.319-8.106-68.598z" fill="#ffcbbe"/></g><g id="XMLID_2434_"><path d="m486.659 394.771c10.062-20.242 15.697-44.333 15.333-65.757-1.058-62.245-51.968-110.417-114.222-110.417-61.262 0-110.537 50.921-110.537 112.373l-21.225 69.106h33.635v26.891c0 21.079 17.088 38.168 38.168 38.168h33.133l10.561 36.865h116.363l-9.315-38.631c-5.571-23.101-2.472-47.319 8.106-68.598z" fill="#f2bb88"/></g></g></g><g id="XMLID_2427_"><g id="XMLID_2431_"><path id="XMLID_34_" d="m348.239 185.244 60.741-41-60.741-41v18.923h-148.202v44.154h148.202z" fill="#91def5"/></g><g id="XMLID_2429_"><path id="XMLID_29_" d="m163.778 10-60.741 41 60.741 41v-18.923h148.202v-44.154h-148.202z" fill="#91def5"/></g></g></g><g id="XMLID_38_"><path id="XMLID_45_" d="m488.274 461.025c-4.925-20.425-2.318-42.375 7.339-61.803 10.409-20.94 16.378-46.53 16.378-70.208 0-32.616-12.986-63.043-36.565-85.678-23.337-22.402-54.468-34.739-87.656-34.739-65.961 0-119.718 54.067-120.528 120.841l-11.234 36.577-11.234-36.577c-.594-48.207-29.117-91.617-73.008-110.883-5.06-2.222-10.957.08-13.176 5.137s.08 10.957 5.137 13.176c37.09 16.281 61.056 53.217 61.056 94.101 0 .995.148 1.985.441 2.936l17.251 56.169h-20.103c-5.523 0-10 4.477-10 10v26.891c0 15.532-12.636 28.167-28.167 28.167h-33.133c-4.462 0-8.384 2.957-9.613 7.246l-8.485 29.622h-96.127l6.338-26.287c6.025-24.988 2.875-51.763-8.873-75.394-9.419-18.949-14.627-41.232-14.289-61.136.691-40.67 25.617-77.021 63.503-92.61 5.107-2.101 7.544-7.945 5.443-13.053-2.101-5.106-7.943-7.544-13.053-5.442-45.274 18.628-75.063 62.106-75.89 110.765-.391 23.002 5.579 48.654 16.377 70.378 9.658 19.429 12.264 41.378 7.339 61.803l-9.315 38.631c-.719 2.979-.031 6.124 1.865 8.531 1.896 2.408 4.792 3.813 7.856 3.813h116.363c4.462 0 8.384-2.957 9.613-7.246l8.485-29.622h25.596c26.56 0 48.167-21.608 48.167-48.167v-16.891h47.27v16.891c0 26.56 21.608 48.167 48.167 48.167h25.596l8.485 29.622c1.229 4.29 5.151 7.246 9.613 7.246h116.363c3.064 0 5.96-1.405 7.856-3.813s2.583-5.552 1.865-8.531zm-19.442 4.689 6.338 26.286h-96.127l-8.485-29.622c-1.229-4.29-5.151-7.246-9.613-7.246h-33.133c-15.532 0-28.167-12.636-28.167-28.167v-26.891c0-5.523-4.477-10-10-10h-20.103l17.251-56.169c.292-.951.441-1.941.441-2.936 0-56.448 45.101-102.373 100.537-102.373 58.442 0 104.222 44.108 104.222 100.417 0 20.694-5.208 43.039-14.288 61.306-11.748 23.632-14.899 50.407-8.873 75.395z"/><path id="XMLID_48_" d="m190.037 122.167v44.154c0 5.523 4.477 10 10 10h138.202v8.923c0 3.698 2.041 7.095 5.307 8.83 1.472.783 3.084 1.17 4.693 1.17 1.959 0 3.912-.575 5.595-1.711l60.741-41c2.754-1.859 4.405-4.965 4.405-8.289s-1.651-6.429-4.405-8.289l-60.741-41c-3.065-2.069-7.022-2.278-10.288-.542-3.266 1.735-5.307 5.132-5.307 8.83v8.923h-138.202c-5.523.001-10 4.478-10 10.001zm20 10h138.202c5.523 0 10-4.477 10-10v-.108l32.867 22.185-32.867 22.185v-.108c0-5.523-4.477-10-10-10h-138.202z"/><path id="XMLID_51_" d="m97.443 59.289 60.741 41c1.684 1.136 3.636 1.711 5.595 1.711 1.608 0 3.221-.387 4.693-1.17 3.266-1.735 5.307-5.132 5.307-8.83v-8.923h138.201c5.523 0 10-4.477 10-10v-44.154c0-5.523-4.477-10-10-10h-138.202v-8.923c0-3.698-2.041-7.095-5.307-8.83-3.266-1.736-7.223-1.528-10.288.542l-60.741 41c-2.754 1.859-4.405 4.965-4.405 8.289s1.651 6.428 4.406 8.288zm56.335-30.474v.108c0 5.523 4.477 10 10 10h138.202v24.154h-138.202c-5.523 0-10 4.477-10 10v.108l-32.867-22.185z"/><path id="XMLID_860_" d="m116.609 211.52c-1.87 1.87-2.93 4.44-2.93 7.08 0 2.63 1.06 5.21 2.93 7.07 1.86 1.86 4.43 2.93 7.07 2.93 2.63 0 5.21-1.07 7.07-2.93s2.93-4.44 2.93-7.07c0-2.64-1.07-5.21-2.93-7.08-1.86-1.86-4.44-2.92-7.07-2.92-2.641 0-5.211 1.06-7.07 2.92z"/></g></g></svg>