<svg id="Layer_1" enable-background="new 0 0 512 512" height="512" viewBox="0 0 512 512" width="512" xmlns="http://www.w3.org/2000/svg"><g id="XMLID_1206_"><g id="XMLID_2559_"><g id="XMLID_2356_"><path id="XMLID_1557_" d="m10 50h384v344h-384z" fill="#91def5"/><path id="XMLID_1556_" d="m50 91h304v262h-304z" fill="#dff6fc"/><g id="XMLID_1525_"><path id="XMLID_1524_" d="m202 243c-25.405 0-46-20.595-46-46v-20c0-25.405 20.595-46 46-46 25.405 0 46 20.595 46 46v20c0 25.405-20.595 46-46 46z" fill="#ffbf9e"/><path id="XMLID_1522_" d="m246.762 243h-89.525c-37.134 0-67.237 30.103-67.237 67.238v42.762h224v-42.762c0-37.135-30.103-67.238-67.238-67.238z" fill="#ffd89e"/><path id="XMLID_1507_" d="m247.389 243-45.389 110-45.389-110z" fill="#fff"/></g></g><g id="XMLID_2357_"><path id="XMLID_2362_" d="m390 303.5c-25.405 0-46-20.595-46-46v-20c0-25.405 20.595-46 46-46 25.405 0 46 20.595 46 46v20c0 25.405-20.595 46-46 46z" fill="#8690a6"/><path id="XMLID_2360_" d="m434.762 303.5h-89.525c-37.134 0-67.238 30.103-67.238 67.238v91.262h224v-91.262c.001-37.135-30.102-67.238-67.237-67.238z" fill="#ffcb7c"/></g></g><g id="XMLID_214_"><path id="XMLID_429_" d="m434.763 293.5h-1.912c8.198-9.742 13.149-22.301 13.149-36v-20c0-26.046-17.874-47.996-42-54.228v-133.272c0-5.523-4.478-10-10-10h-384c-5.522 0-10 4.477-10 10v344c0 5.523 4.478 10 10 10h258v58c0 5.523 4.478 10 10 10h224c5.522 0 10-4.477 10-10v-91.262c0-42.589-34.648-77.238-77.237-77.238zm-8.763-56v20c0 19.851-16.149 36-36 36s-36-16.149-36-36v-20c0-19.851 16.149-36 36-36s36 16.149 36 36zm-406 146.5v-324h364v121.826c-7.154.766-13.905 2.889-20 6.099v-96.925c0-5.523-4.478-10-10-10h-106.999c-5.522 0-10 4.477-10 10s4.478 10 10 10h96.999v104.617c-6.296 9.056-10 20.042-10 31.883v20c0 13.699 4.952 26.258 13.149 36h-1.912c-7.798 0-15.325 1.172-22.426 3.331-6.309-35.879-37.449-63.295-74.99-63.804-.145-.006-.287-.027-.433-.027h-.626-1.912c8.198-9.742 13.149-22.301 13.149-36v-20c0-30.878-25.121-56-56-56s-56 25.122-56 56v20c0 13.699 4.952 26.258 13.149 36h-1.912-.626c-.146 0-.288.021-.433.027-42.099.571-76.177 34.977-76.177 77.211v32.762h-20v-242h97.004c5.522 0 10-4.477 10-10s-4.478-10-10-10h-107.004c-5.522 0-10 4.477-10 10v262c0 5.523 4.478 10 10 10h218.388c-.254 2.546-.388 5.126-.388 7.738v13.262zm253.172-41h-56.228l36.946-89.54c26.697 3.334 47.73 25.114 49.906 52.15-13.814 8.821-24.643 21.903-30.624 37.39zm-123.063-89.54 36.947 89.54h-87.056v-32.762c0-29.146 21.902-53.256 50.109-56.778zm15.891-56.46v-20c0-19.851 16.149-36 36-36s36 16.149 36 36v20c0 19.851-16.149 36-36 36s-36-16.149-36-36zm66.444 56-30.444 73.783-30.444-73.783zm259.556 199h-204v-81.262c0-31.561 25.677-57.238 57.237-57.238h89.525c31.561 0 57.237 25.677 57.237 57.238v81.262z"/><path id="XMLID_884_" d="m202 101c2.63 0 5.21-1.07 7.069-2.93 1.861-1.86 2.931-4.44 2.931-7.07s-1.07-5.21-2.931-7.07c-1.859-1.86-4.439-2.93-7.069-2.93s-5.21 1.07-7.07 2.93-2.93 4.44-2.93 7.07 1.069 5.21 2.93 7.07 4.44 2.93 7.07 2.93z"/></g></g></svg>