<svg id="Layer_1" enable-background="new 0 0 512 512" height="512" viewBox="0 0 512 512" width="512" xmlns="http://www.w3.org/2000/svg"><g id="XMLID_1065_"><g id="XMLID_2752_"><path id="XMLID_1664_" d="m468.182 229.438c0-97.912-79.305-179.044-176.119-179.044-91.723 0-169.424 65.387-180.603 153.884h105.932v297.667h107.16l10.253-58.741h61.287c28.894 0 52.317-23.423 52.317-52.317v-51.341h53.591z" fill="#ffbf9e"/><path id="XMLID_2757_" d="m259.116 204.278c36.129 0 65.417-29.288 65.417-65.417s-29.288-65.417-65.417-65.417c-6.421 0-12.619.941-18.482 2.665-8.091-37.749-41.631-66.056-81.796-66.056-39.234 0-72.148 27.01-81.194 63.447-.741-.025-1.48-.056-2.227-.056-36.129 0-65.417 29.288-65.417 65.417s29.288 65.417 65.417 65.417z" fill="#dff6fc"/></g><path id="XMLID_2759_" d="m95.168 501.944c11.046 0 20-8.954 20-20v-300c0-11.046-8.954-20-20-20-11.046 0-20 8.954-20 20v300c0 11.046 8.954 20 20 20z" fill="#ffcb7c"/><path id="XMLID_1471_" d="m236.127 501.944c11.046 0 20-8.954 20-20v-300c0-11.046-8.954-20-20-20-11.046 0-20 8.954-20 20v300c0 11.046 8.954 20 20 20z" fill="#ffcb7c"/><g id="XMLID_241_"><path id="XMLID_242_" d="m511.559 336.609-33.383-108.692c-.27-33.539-9.466-66.49-26.637-95.39-2.822-4.749-8.958-6.311-13.705-3.489-4.748 2.821-6.31 8.957-3.489 13.705 15.595 26.247 23.838 56.226 23.838 86.695 0 .995.148 1.985.441 2.936l29.845 97.17h-40.059c-5.523 0-10 4.478-10 10v51.342c0 23.333-18.983 42.316-42.317 42.316h-61.287c-4.859 0-9.016 3.493-9.851 8.28l-10.253 58.741c-.95 5.44 2.691 10.621 8.131 11.57.582.102 1.161.151 1.731.151 4.769 0 8.991-3.424 9.839-8.282l8.808-50.461h52.881c34.362 0 62.317-27.955 62.317-62.316v-41.342h43.591c3.172 0 6.157-1.506 8.042-4.057 1.886-2.549 2.449-5.844 1.517-8.877z"/><path id="XMLID_261_" d="m415.34 112.099c2.63 0 5.21-1.06 7.07-2.93 1.86-1.86 2.93-4.43 2.93-7.07 0-2.63-1.07-5.21-2.93-7.07s-4.44-2.93-7.07-2.93-5.21 1.07-7.07 2.93-2.93 4.44-2.93 7.07c0 2.64 1.07 5.21 2.93 7.07 1.86 1.87 4.44 2.93 7.07 2.93z"/><path id="XMLID_264_" d="m334.533 138.861c0-41.585-33.832-75.416-75.417-75.416-.054 0-.109.003-.163.003 10.861-2.029 21.938-3.053 33.11-3.053 28.948 0 57.531 7.852 82.657 22.708 1.597.944 3.35 1.394 5.08 1.394 3.419 0 6.751-1.755 8.617-4.912 2.811-4.754 1.235-10.887-3.519-13.697-28.207-16.677-60.309-25.492-92.835-25.492-17.647 0-35.086 2.305-51.938 6.849-5.663-9.887-13.112-18.761-22.029-26.057-16.657-13.629-37.701-21.134-59.259-21.134-40.522 0-75.963 25.777-88.718 63.575-39.121 2.728-70.119 35.429-70.119 75.232 0 19.911 7.688 38.692 21.649 52.885 11.836 12.032 27.044 19.592 43.519 21.822v268.377c0 16.542 13.458 30 30 30s30-13.458 30-30v-9h80.959v9c0 16.542 13.458 30 30 30s30-13.458 30-30v-268.005c38.309-3.55 68.406-35.859 68.406-75.079zm-314.533 0c0-30.557 24.86-55.416 55.417-55.416.491 0 .977.019 1.463.036l.435.015c4.726.129 8.898-3.006 10.035-7.585 8.165-32.888 37.562-55.856 71.488-55.856 34.508 0 64.796 24.457 72.019 58.152.583 2.721 2.273 5.075 4.664 6.498 2.391 1.422 5.267 1.785 7.936 1 5.096-1.499 10.364-2.259 15.66-2.259 30.557 0 55.417 24.86 55.417 55.416 0 28.181-21.149 51.499-48.406 54.958v-11.874c0-16.542-13.458-30-30-30s-30 13.458-30 30v12.333h-80.959v-12.333c0-16.542-13.458-30-30-30s-30 13.458-30 30v11.359c-25.615-4.862-45.169-27.575-45.169-54.444zm105.168 127.417h80.959v31.666h-80.959zm0 51.666h80.959v31.667h-80.959zm80.959-71.666h-80.959v-32h80.959zm-80.959 123.333h80.959v31.666h-80.959zm-20 112.333c0 5.514-4.486 10-10 10s-10-4.486-10-10v-300c0-5.514 4.486-10 10-10s10 4.486 10 10zm20-29v-31.667h80.959v31.667zm120.959 29c0 5.514-4.486 10-10 10s-10-4.486-10-10v-300c0-5.514 4.486-10 10-10s10 4.486 10 10z"/><path id="XMLID_440_" d="m331.27 355.944v-71.858l1.713 1.713c1.953 1.952 4.512 2.929 7.071 2.929s5.119-.977 7.071-2.929c3.905-3.905 3.905-10.237 0-14.143l-18.784-18.783c-3.905-3.905-10.237-3.904-14.142 0l-18.783 18.783c-3.905 3.905-3.905 10.237 0 14.143 3.905 3.904 10.237 3.904 14.143 0l1.712-1.712v71.858c0 5.522 4.477 10 10 10s9.999-4.478 9.999-10.001z"/></g></g></svg>