<svg id="Layer_1" enable-background="new 0 0 512 512" height="512" viewBox="0 0 512 512" width="512" xmlns="http://www.w3.org/2000/svg"><g id="XMLID_2659_"><g id="XMLID_2862_"><g id="XMLID_2873_"><path id="XMLID_2875_" d="m256 251c-45.287 0-82 36.713-82 82h164c0-45.287-36.713-82-82-82z" fill="#f5737f"/><path id="XMLID_2874_" d="m256 179c-17.673 0-32 14.327-32 32v8c0 17.673 14.327 32 32 32 17.673 0 32-14.327 32-32v-8c0-17.673-14.327-32-32-32z" fill="#ffbf9e"/></g><circle id="XMLID_2872_" cx="256" cy="42" fill="#f6838d" r="32"/><circle id="XMLID_2871_" cx="256" cy="470" fill="#f6838d" r="32"/><circle id="XMLID_2870_" cx="470" cy="256" fill="#b0e7f8" r="32"/><circle id="XMLID_2869_" cx="42" cy="256" fill="#b0e7f8" r="32"/><circle id="XMLID_2868_" cx="407.321" cy="104.679" fill="#ffcb7c" r="32"/><circle id="XMLID_2867_" cx="104.679" cy="407.321" fill="#ffcb7c" r="32"/><g fill="#d8ec84"><circle id="XMLID_2866_" cx="407.321" cy="407.321" r="32"/><circle id="XMLID_2865_" cx="104.679" cy="104.679" r="32"/></g></g><g id="XMLID_256_"><path id="XMLID_476_" d="m287.619 246.599c6.456-7.387 10.381-17.041 10.381-27.599v-8c0-23.159-18.841-42-42-42s-42 18.841-42 42v8c0 10.558 3.925 20.212 10.381 27.599-35.2 12.922-60.381 46.776-60.381 86.401 0 5.522 4.477 10 10 10h37c5.523 0 10-4.478 10-10s-4.477-10-10-10h-26.309c4.882-34.985 35-62 71.308-62s66.426 27.015 71.308 62h-26.307c-5.523 0-10 4.478-10 10s4.477 10 10 10h37c5.523 0 10-4.478 10-10 0-39.625-25.181-73.479-60.381-86.401zm-53.619-27.599v-8c0-12.131 9.869-22 22-22s22 9.869 22 22v8c0 12.131-9.869 22-22 22s-22-9.869-22-22z"/><path id="XMLID_479_" d="m246 82.787v53.213c0 5.523 4.477 10 10 10s10-4.477 10-10v-53.213c18.345-4.499 32-21.075 32-40.787 0-23.159-18.841-42-42-42s-42 18.841-42 42c0 19.713 13.655 36.288 32 40.787zm10-62.787c12.131 0 22 9.869 22 22s-9.869 22-22 22-22-9.869-22-22 9.869-22 22-22z"/><path id="XMLID_482_" d="m266 429.213v-51.213c0-5.522-4.477-10-10-10s-10 4.478-10 10v51.213c-18.345 4.499-32 21.074-32 40.787 0 23.159 18.841 42 42 42s42-18.841 42-42c0-19.713-13.655-36.289-32-40.787zm-10 62.787c-12.131 0-22-9.869-22-22s9.869-22 22-22 22 9.869 22 22-9.869 22-22 22z"/><path id="XMLID_485_" d="m470 214c-19.713 0-36.288 13.655-40.787 32h-53.213c-5.523 0-10 4.477-10 10 0 5.522 4.477 10 10 10h53.213c4.499 18.345 21.075 32 40.787 32 23.159 0 42-18.841 42-42s-18.841-42-42-42zm0 64c-12.131 0-22-9.869-22-22s9.869-22 22-22 22 9.869 22 22-9.869 22-22 22z"/><path id="XMLID_488_" d="m82.787 266h53.213c5.523 0 10-4.478 10-10 0-5.523-4.477-10-10-10h-53.213c-4.499-18.345-21.074-32-40.787-32-23.159 0-42 18.841-42 42s18.841 42 42 42c19.713 0 36.288-13.655 40.787-32zm-40.787 12c-12.131 0-22-9.869-22-22s9.869-22 22-22 22 9.869 22 22-9.869 22-22 22z"/><path id="XMLID_491_" d="m407.321 365.32c-7.804 0-15.281 2.119-21.781 6.077l-14.684-14.684c-3.905-3.904-10.237-3.904-14.143 0-3.905 3.905-3.905 10.237 0 14.143l14.696 14.696c-9.79 16.154-7.725 37.529 6.214 51.469 7.933 7.933 18.48 12.302 29.699 12.302s21.766-4.369 29.699-12.302c16.375-16.376 16.375-43.021 0-59.397-7.934-7.935-18.481-12.304-29.7-12.304zm15.556 57.557c-4.155 4.155-9.68 6.444-15.556 6.444s-11.401-2.289-15.556-6.444c-8.578-8.577-8.578-22.535 0-31.112 4.155-4.155 9.68-6.444 15.556-6.444s11.401 2.289 15.556 6.444c8.578 8.577 8.578 22.535 0 31.112z"/><path id="XMLID_810_" d="m74.98 134.378c8.188 8.188 18.943 12.281 29.698 12.281 7.554 0 15.105-2.028 21.77-6.068l37.627 37.627c1.953 1.953 4.512 2.929 7.071 2.929s5.119-.976 7.071-2.929c3.905-3.905 3.905-10.237 0-14.143l-37.627-37.627c9.791-16.154 7.725-37.53-6.214-51.469-16.376-16.375-43.021-16.374-59.397 0-16.374 16.377-16.374 43.022.001 59.399 0-.001 0-.001 0 0zm14.143-45.255c8.577-8.578 22.535-8.578 31.112 0 8.577 8.577 8.577 22.532.003 31.11-.001.001-.002.002-.003.002-.001.001-.001.002-.002.002-8.579 8.576-22.534 8.574-31.11-.002-8.578-8.577-8.578-22.534 0-31.112z"/><path id="XMLID_815_" d="m340.853 181.147c2.559 0 5.119-.976 7.071-2.929l37.627-37.627c6.665 4.039 14.215 6.068 21.77 6.068 10.755 0 21.511-4.094 29.699-12.281 16.375-16.376 16.375-43.021 0-59.397-16.376-16.375-43.021-16.375-59.397 0-13.939 13.939-16.004 35.314-6.213 51.468l-37.627 37.627c-3.905 3.905-3.905 10.237 0 14.143 1.951 1.952 4.511 2.928 7.07 2.928zm50.911-92.024c4.29-4.29 9.922-6.434 15.557-6.434 5.633 0 11.268 2.145 15.556 6.434 8.578 8.578 8.578 22.535 0 31.112-8.577 8.577-22.533 8.577-31.11.003-.001-.001-.002-.002-.002-.003-.001-.001-.002-.001-.002-.002-8.576-8.578-8.576-22.533.001-31.11z"/><path id="XMLID_819_" d="m141.145 356.713-14.684 14.684c-6.5-3.958-13.977-6.077-21.781-6.077-11.219 0-21.766 4.369-29.699 12.302-16.375 16.376-16.375 43.021 0 59.397 7.933 7.933 18.48 12.302 29.699 12.302 11.218 0 21.766-4.369 29.699-12.302 13.938-13.939 16.004-35.315 6.214-51.469l14.696-14.696c3.905-3.905 3.905-10.237 0-14.143-3.907-3.902-10.239-3.902-14.144.002zm-20.91 66.164c-4.155 4.155-9.68 6.444-15.556 6.444s-11.401-2.289-15.556-6.444c-8.578-8.577-8.578-22.535 0-31.112 4.155-4.155 9.68-6.444 15.556-6.444s11.401 2.289 15.556 6.444c8.578 8.577 8.578 22.535 0 31.112z"/><path id="XMLID_821_" d="m256 343c2.63 0 5.21-1.07 7.07-2.931 1.86-1.859 2.93-4.439 2.93-7.069s-1.07-5.21-2.93-7.07-4.44-2.93-7.07-2.93-5.21 1.069-7.07 2.93c-1.86 1.86-2.93 4.44-2.93 7.07s1.07 5.21 2.93 7.069c1.86 1.861 4.44 2.931 7.07 2.931z"/></g></g></svg>