<svg id="Layer_1" enable-background="new 0 0 512.002 512.002" height="512" viewBox="0 0 512.002 512.002" width="512" xmlns="http://www.w3.org/2000/svg"><g id="XMLID_1059_"><g id="XMLID_2524_"><path id="XMLID_2542_" d="m64.001 229.494c.491 33.349 8.835 70.377 24.383 101.656 16.91 34.018 21.721 72.778 12.816 109.709l-14.742 61.141h191.976l10.253-58.741h61.287c28.894 0 52.317-23.423 52.317-52.316v-51.341h53.591l-33.818-110.107h-358.063z" fill="#ffcbbe"/><circle id="XMLID_2535_" cx="256.001" cy="42" fill="#f6838d" r="32"/><circle id="XMLID_2531_" cx="80.001" cy="82.45" fill="#91def5" r="32"/><circle id="XMLID_2527_" cx="432.001" cy="82.45" fill="#ffcb7c" r="32"/><g id="XMLID_2412_"><path id="XMLID_2420_" d="m144.002 275.739h223.999v44h-223.999z" fill="#ffcb7c"/><path id="XMLID_2419_" d="m256.001 295.781c-.001-10.973-8.896-19.868-19.869-19.868h-92.131v-136.664h92.131c10.973 0 19.869 8.895 19.869 19.868z" fill="#fff"/><path id="XMLID_2417_" d="m256.001 295.781c.001-10.973 8.896-19.868 19.869-19.868h92.131v-136.664h-92.131c-10.973 0-19.869 8.895-19.869 19.868z" fill="#ffe6c0"/><path id="XMLID_2416_" d="m256.001 295.781c.001-10.973 8.896-19.868 19.869-19.868h92.131v-136.664h-92.131c-10.973 0-19.869 8.895-19.869 19.868z" fill="#fff"/></g></g><g id="XMLID_452_"><path id="XMLID_499_" d="m431.623 226.558c-1.289-4.198-5.167-7.064-9.559-7.064h-44.063v-80.245c0-5.523-4.477-10-10-10h-92.131c-3.458 0-6.777.597-9.869 1.683v-48.145c18.345-4.499 32-21.075 32-40.787 0-23.159-18.841-42-42-42s-42 18.841-42 42c0 19.713 13.655 36.288 32 40.787v48.145c-3.092-1.086-6.411-1.683-9.869-1.683h-92.131c-5.523 0-10 4.477-10 10v80.245h-70c-2.678 0-5.244 1.074-7.123 2.981s-2.916 4.488-2.876 7.166c.297 20.148 3.374 41.584 8.897 61.989 1.206 4.456 5.241 7.39 9.646 7.39.864-.001 1.744-.113 2.619-.351 5.331-1.443 8.483-6.935 7.04-12.266-4.173-15.416-6.832-31.445-7.807-46.91h59.604l.001 80.245c0 5.522 4.477 10 10 10h223.999c5.523 0 10-4.478 10-10v-80.245h36.673l27.675 90.106h-40.058c-5.523 0-10 4.478-10 10v51.342c0 23.333-18.983 42.316-42.317 42.316h-61.287c-4.859 0-9.016 3.493-9.851 8.28l-10.253 58.741c-.95 5.44 2.691 10.621 8.131 11.57.582.102 1.161.151 1.731.151 4.769 0 8.991-3.424 9.839-8.282l8.808-50.461h52.881c34.362 0 62.317-27.955 62.317-62.316v-41.342h43.59c3.172 0 6.157-1.506 8.042-4.057 1.885-2.552 2.448-5.847 1.517-8.88zm-155.753-77.309h82.131v116.663h-82.131c-3.457 0-6.778.59-9.869 1.676v-108.47c0-5.442 4.428-9.869 9.869-9.869zm-41.869-107.249c0-12.131 9.869-22 22-22s22 9.869 22 22-9.869 22-22 22-22-9.869-22-22zm-80 107.249h82.131c5.441 0 9.869 4.427 9.869 9.868v108.471c-3.091-1.086-6.412-1.676-9.869-1.676h-82.131zm.001 136.663h82.129c5.441 0 9.869 4.427 9.869 9.868v13.959h-91.999v-23.827zm111.999 23.827v-13.959c0-5.441 4.428-9.868 9.869-9.868h82.131v23.827z"/><path id="XMLID_504_" d="m100.895 363.975c-5.426 1.03-8.989 6.264-7.959 11.689 4.004 21.091 3.515 42.237-1.456 62.851l-14.743 61.142c-1.295 5.368 2.008 10.771 7.377 12.065.788.189 1.576.28 2.353.28 4.513 0 8.608-3.076 9.713-7.658l14.743-61.142c5.641-23.392 6.2-47.369 1.663-71.269-1.032-5.425-6.265-8.99-11.691-7.958z"/><path id="XMLID_507_" d="m70.001 176.45c0 5.523 4.477 10 10 10s10-4.477 10-10v-53.213c18.345-4.499 32-21.075 32-40.787 0-23.159-18.841-42-42-42s-42 18.841-42 42c0 19.713 13.655 36.288 32 40.787zm-12-94c0-12.131 9.869-22 22-22s22 9.869 22 22-9.869 22-22 22-22-9.869-22-22z"/><path id="XMLID_510_" d="m422.001 123.237v53.213c0 5.523 4.477 10 10 10s10-4.477 10-10v-53.213c18.345-4.499 32-21.075 32-40.787 0-23.159-18.841-42-42-42s-42 18.841-42 42c0 19.712 13.655 36.288 32 40.787zm10-62.787c12.131 0 22 9.869 22 22s-9.869 22-22 22-22-9.869-22-22 9.869-22 22-22z"/><path id="XMLID_511_" d="m296.001 194.746h32c5.523 0 10-4.477 10-10s-4.477-10-10-10h-32c-5.523 0-10 4.477-10 10s4.478 10 10 10z"/><path id="XMLID_512_" d="m296.001 240.243h32c5.523 0 10-4.477 10-10s-4.477-10-10-10h-32c-5.523 0-10 4.477-10 10s4.478 10 10 10z"/><path id="XMLID_513_" d="m184 194.746h32c5.523 0 10-4.477 10-10s-4.477-10-10-10h-32c-5.523 0-10 4.477-10 10s4.478 10 10 10z"/><path id="XMLID_514_" d="m184 240.243h32c5.523 0 10-4.477 10-10s-4.477-10-10-10h-32c-5.523 0-10 4.477-10 10s4.478 10 10 10z"/><path id="XMLID_515_" d="m95.451 338.22c1.86-1.86 2.93-4.439 2.93-7.07 0-2.63-1.07-5.21-2.93-7.069-1.86-1.86-4.44-2.931-7.07-2.931s-5.21 1.07-7.07 2.931c-1.86 1.859-2.93 4.439-2.93 7.069 0 2.631 1.07 5.21 2.93 7.07s4.44 2.93 7.07 2.93 5.21-1.07 7.07-2.93z"/></g></g></svg>