<svg id="Layer_1" enable-background="new 0 0 512 512" height="512" viewBox="0 0 512 512" width="512" xmlns="http://www.w3.org/2000/svg"><g id="XMLID_1140_"><g id="XMLID_1208_"><g id="XMLID_1227_"><path id="XMLID_1611_" d="m162.688 372.264 172.184 78.729c10.667 4.877 16.903 16.143 15.373 27.772-2.192 16.661-19.043 27.181-34.974 21.835l-179.494-60.229c-22.231-7.46-31.843-33.583-19.749-53.672 9.619-15.978 29.699-22.189 46.66-14.435z" fill="#8690a6"/><path id="XMLID_1547_" d="m438.967 354.034c-30.129-16.253-52.3-45.186-59.666-79.161l-2.609-12.034c-4.326-19.958-15.464-38.011-31.361-50.832-15.897-12.82-35.899-19.88-56.322-19.88h-66.017c-20.423 0-40.425 7.061-56.322 19.88-15.897 12.82-27.035 30.873-31.361 50.832l-2.609 12.034c-7.365 33.975-29.536 62.908-59.666 79.161-10.33 5.572-15.246 17.683-11.526 28.815 4.735 14.17 21.089 20.555 34.248 13.481 16.932-9.101 32.248-21.108 45.144-35.493 19.223-21.442 32.609-47.651 38.71-75.795l2.609-12.035v108.303l73.781 33.736 73.782-33.736v-108.301l2.609 12.035c6.101 28.144 19.487 54.353 38.71 75.795 12.897 14.385 28.213 26.392 45.144 35.493 13.159 7.073 29.513.688 34.248-13.481 3.72-11.133-1.197-23.245-11.526-28.817z" fill="#91def5"/><path id="XMLID_1492_" d="m256 73.27c-28.719 0-52 23.281-52 52v14.857c0 28.719 23.281 52 52 52 28.719 0 52-23.281 52-52v-14.857c0-28.719-23.281-52-52-52z" fill="#ffbf9e"/><path id="XMLID_1229_" d="m396.225 386.699c12.095 20.09 2.483 46.213-19.749 53.672l-179.493 60.229c-15.931 5.346-32.782-5.175-34.974-21.835-1.53-11.629 4.706-22.894 15.373-27.772l172.184-78.729c16.961-7.754 37.04-1.543 46.659 14.435z" fill="#8690a6"/><path id="XMLID_1649_" d="m295.667 192.127-39.54 67.619-39.54-67.619z" fill="#fff"/></g><circle id="XMLID_1225_" cx="42" cy="198.496" fill="#f6838d" r="32"/><circle id="XMLID_1220_" cx="128" cy="42.001" fill="#d8ec84" r="32"/><circle id="XMLID_1210_" cx="470" cy="198.496" fill="#ffcb7c" r="32"/><circle id="XMLID_1136_" cx="384" cy="42.001" fill="#dff6fc" r="32"/></g><g id="XMLID_839_"><path id="XMLID_128_" d="m443.714 345.234c-28.015-15.113-47.931-41.53-54.64-72.479l-2.609-12.033c-4.808-22.184-17.188-42.248-34.857-56.498-14.576-11.755-32.26-19.138-50.747-21.368 10.607-11.131 17.139-26.177 17.139-42.729v-14.857c0-34.187-27.813-62-62-62s-62 27.813-62 62v14.857c0 16.552 6.532 31.597 17.138 42.728-18.487 2.23-36.17 9.614-50.747 21.368-8.034 6.479-15 14.163-20.705 22.841-3.034 4.615-1.752 10.815 2.863 13.849 4.614 3.033 10.814 1.752 13.849-2.863 4.563-6.941 10.131-13.085 16.547-18.259 11.086-8.94 24.422-14.71 38.417-16.787l36.131 61.789c1.793 3.067 5.08 4.952 8.632 4.952s6.839-1.885 8.632-4.952l36.11-61.753c13.911 2.106 27.16 7.862 38.185 16.752 14.125 11.392 24.021 27.432 27.866 45.167l2.609 12.034c7.948 36.665 31.527 67.953 64.691 85.843 6.096 3.289 8.952 10.373 6.79 16.845-1.327 3.971-4.2 7.007-8.089 8.55-3.885 1.54-8.237 1.282-11.94-.708-9.262-4.978-17.931-10.829-25.941-17.482-.011-.01-.023-.019-.035-.029-5.849-4.861-11.347-10.148-16.457-15.848-18.068-20.154-30.648-44.788-36.383-71.238l-2.609-12.035c-1.169-5.398-6.493-8.82-11.892-7.655-4.687 1.017-7.883 5.165-7.879 9.773h-.003v.07.057 101.751l-63.783 29.164-63.781-29.163v-101.753c0-.019 0-.038 0-.057v-.07h-.003c.004-4.608-3.192-8.757-7.879-9.773-5.399-1.169-10.722 2.258-11.892 7.655l-2.609 12.035c-5.734 26.45-18.315 51.084-36.383 71.237-12.116 13.515-26.393 24.738-42.433 33.359-3.702 1.992-8.053 2.249-11.939.708-3.89-1.543-6.762-4.579-8.089-8.55-2.162-6.472.693-13.556 6.79-16.845 18.197-9.816 33.967-24.098 45.605-41.301 3.095-4.574 1.895-10.792-2.679-13.886-4.576-3.096-10.792-1.895-13.886 2.679-9.839 14.544-23.164 26.614-38.535 34.906-14.675 7.916-21.515 25.068-16.263 40.784 3.181 9.521 10.356 17.104 19.685 20.803 4.059 1.61 8.325 2.408 12.581 2.408 5.581 0 11.145-1.373 16.2-4.09.01-.005.02-.011.03-.017-.054 5.58.884 11.197 2.873 16.602 4.912 13.351 15.464 23.603 28.95 28.128l23.802 7.987c-3.564 6.611-5.089 14.33-4.05 22.231 1.436 10.914 7.615 20.518 16.953 26.348 5.914 3.692 12.63 5.581 19.412 5.581 3.927 0 7.877-.634 11.705-1.918l55.838-18.734 55.836 18.735c3.828 1.284 7.777 1.918 11.704 1.918 6.782 0 13.499-1.89 19.412-5.581 9.338-5.83 15.518-15.434 16.954-26.349 1.034-7.858-.461-15.583-4.052-22.229l23.804-7.987c13.486-4.525 24.038-14.777 28.95-28.128 1.989-5.405 2.926-11.021 2.873-16.602.01.005.02.011.03.017 5.055 2.717 10.619 4.09 16.201 4.09 4.256 0 8.522-.799 12.581-2.408 9.329-3.699 16.504-11.281 19.685-20.803 5.251-15.716-1.588-32.868-16.264-40.784zm-187.587-105.299-22.108-37.808h44.216zm41.873-99.808c0 23.152-18.831 41.989-41.981 42h-.039c-23.15-.01-41.981-18.847-41.981-42v-14.857c0-23.159 18.841-42 42-42s42 18.841 42 42v14.857zm41.782 193.38c4.948 9.174 10.701 17.913 17.211 26.097-3.92.669-7.813 1.84-11.586 3.565l-5.625 2.572zm-167.564 0v32.235l-5.626-2.573c-3.772-1.725-7.665-2.896-11.586-3.564 6.51-8.184 12.264-16.924 17.212-26.098zm-33.514 97.384c-7.706-2.586-13.736-8.444-16.543-16.073s-2.012-15.998 2.181-22.961c7-11.63 21.588-16.143 33.934-10.498l73.675 33.687-58.727 26.852c-.238.109-.469.226-.704.339zm201.373 46.569c-.654 4.968-3.466 9.339-7.716 11.992s-9.413 3.26-14.162 1.667l-30.763-10.323 48.769-16.364c3.014 3.554 4.493 8.306 3.872 13.028zm49.761-62.642c-2.807 7.629-8.837 13.487-16.543 16.073l-179.493 60.229c-4.751 1.595-9.913.985-14.163-1.667-4.25-2.654-7.063-7.024-7.716-11.992-.963-7.32 2.902-14.303 9.617-17.373l172.184-78.729c3.586-1.64 7.36-2.422 11.084-2.422 9.094 0 17.883 4.669 22.849 12.919 4.193 6.965 4.988 15.334 2.181 22.962z"/><path id="XMLID_911_" d="m52 239.283c18.345-4.499 32-21.075 32-40.787 0-23.159-18.841-42-42-42s-42 18.841-42 42c0 19.713 13.655 36.288 32 40.787v53.213c0 5.522 4.477 10 10 10s10-4.478 10-10zm-32-40.787c0-12.131 9.869-22 22-22s22 9.869 22 22-9.869 22-22 22-22-9.87-22-22z"/><path id="XMLID_918_" d="m118 82.789v53.213c0 5.523 4.477 10 10 10s10-4.477 10-10v-53.213c18.345-4.499 32-21.075 32-40.787 0-23.159-18.841-42-42-42s-42 18.841-42 42c0 19.712 13.655 36.288 32 40.787zm10-62.788c12.131 0 22 9.869 22 22s-9.869 22-22 22-22-9.869-22-22 9.869-22 22-22z"/><path id="XMLID_927_" d="m512 198.496c0-23.159-18.841-42-42-42s-42 18.841-42 42c0 19.713 13.655 36.288 32 40.787v53.213c0 5.522 4.477 10 10 10s10-4.478 10-10v-53.213c18.345-4.499 32-21.075 32-40.787zm-42 22c-12.131 0-22-9.869-22-22s9.869-22 22-22 22 9.869 22 22-9.869 22-22 22z"/><path id="XMLID_932_" d="m374 82.789v53.213c0 5.523 4.477 10 10 10s10-4.477 10-10v-53.213c18.345-4.499 32-21.075 32-40.787 0-23.159-18.841-42-42-42s-42 18.841-42 42c0 19.712 13.655 36.288 32 40.787zm10-62.788c12.131 0 22 9.869 22 22s-9.869 22-22 22-22-9.869-22-22 9.869-22 22-22z"/><path id="XMLID_933_" d="m125.63 267.801c-1.86 1.86-2.93 4.44-2.93 7.07s1.07 5.21 2.93 7.069c1.86 1.86 4.44 2.931 7.07 2.931s5.21-1.07 7.07-2.931c1.86-1.859 2.93-4.43 2.93-7.069 0-2.63-1.07-5.21-2.93-7.07s-4.44-2.93-7.07-2.93c-2.63.001-5.21 1.07-7.07 2.93z"/></g></g></svg>