<svg id="Layer_1" enable-background="new 0 0 512.034 512.034" height="512" viewBox="0 0 512.034 512.034" width="512" xmlns="http://www.w3.org/2000/svg"><g id="XMLID_1234_"><g id="XMLID_1044_"><g id="XMLID_3161_"><path id="XMLID_6_" d="" fill="#ffbf9e"/></g><g id="XMLID_3156_"><g id="XMLID_3157_"><path id="XMLID_8_" d="m349.246 383.941 11.343-11.167c19.822-19.822 51.9-19.822 71.722 0v.028l.004.001v-90.179h-.584c-2.968 1.499-6.246 2.28-9.57 2.28-11.725 0-21.23-9.505-21.23-21.23v-6.411c0-10.514 8.523-19.038 19.038-19.038h25.531c8.797 0 16.572 5.717 19.192 14.115 8.408 26.957 26.57 85.656 34.402 114.627 7.442 27.526.479 56.948-18.661 78.386-19.016 21.299-47.45 31.636-75.704 27.522l-90.701-13.208-.757-60.43c-.165.003-.254.004-.254.004v-20.241z" fill="#f2bb88"/></g></g><g id="XMLID_3153_"><g id="XMLID_3154_"><path d="m162.788 383.941-11.343-11.167c-19.822-19.822-51.9-19.822-71.722 0v.028l-.004.001v-90.179h.584c2.968 1.499 6.246 2.28 9.57 2.28 11.725 0 21.23-9.505 21.23-21.23v-6.411c0-10.514-8.523-19.038-19.038-19.038h-25.531c-8.797 0-16.572 5.717-19.192 14.115-8.408 26.957-26.57 85.656-34.402 114.627-7.442 27.526-.479 56.948 18.661 78.386 19.016 21.299 47.45 31.636 75.704 27.522l90.701-13.208.757-60.43c.165.003.254.004.254.004v-20.241z" fill="#f2bb88"/></g></g><g id="XMLID_3122_"><path id="XMLID_7_" d="" style="fill:none;stroke:#000;stroke-width:20;stroke-linecap:round;stroke-linejoin:round;stroke-miterlimit:10"/></g><g id="XMLID_2962_"><path d="m256.017 365.017c-25.405 0-46-20.595-46-46v-20c0-25.405 20.595-46 46-46 25.405 0 46 20.595 46 46v20c0 25.405-20.595 46-46 46z" fill="#f2bb88"/></g><g id="XMLID_2961_"><path id="XMLID_542_" d="m316.267 365.017h-120.5c-22.506 0-40.75 18.244-40.75 40.75v69.25h202v-69.25c0-22.506-18.244-40.75-40.75-40.75z" fill="#ffcb7c"/></g><g id="XMLID_1039_"><g id="XMLID_2996_"><path id="XMLID_535_" d="m393.176 145.292-45.318-67.138-45.317 67.138h20.916v73.851h48.803v-73.851z" fill="#cff1fb"/></g><g id="XMLID_1040_"><path id="XMLID_533_" d="m209.494 104.154-45.318-67.137-45.318 67.137h20.916v73.851h48.804v-73.851z" fill="#cff1fb"/></g></g></g><g id="XMLID_2_"><path id="XMLID_539_" d="m508.748 364.358c-7.98-29.516-26.792-90.252-34.51-114.994-3.943-12.644-15.492-21.138-28.738-21.138h-25.532c-16.011 0-29.038 13.026-29.038 29.038v6.411c0 17.271 14.083 31.274 31.384 31.229v58.796c-22.508-10.574-50.208-6.584-68.731 11.938l-2.915 2.861c-9.051-8.361-21.137-13.482-34.402-13.482h-17.399c8.198-9.742 13.149-22.301 13.149-36v-20c0-30.879-25.122-56-56-56s-56 25.121-56 56v20c0 13.699 4.952 26.258 13.149 36h-17.399c-13.264 0-25.351 5.121-34.402 13.482l-2.849-2.797c-18.575-18.573-46.287-22.574-68.796-12.002v-58.797h.155c17.22 0 31.229-14.01 31.229-31.229v-6.411c0-16.011-13.026-29.038-29.038-29.038h-25.531c-13.246 0-24.794 8.495-28.738 21.138-7.718 24.742-26.529 85.479-34.51 114.994-8.355 30.902-.559 63.671 20.854 87.656 18.209 20.396 43.949 31.759 70.81 31.759 4.576 0 9.186-.33 13.795-1.001l36.58-5.327c1.086 4.347 5.007 7.572 9.691 7.572h56c5.523 0 10-4.478 10-10s-4.477-10-10-10h-46v-59.25c0-16.956 13.794-30.75 30.75-30.75h50.25v19c0 5.522 4.477 10 10 10s10-4.478 10-10v-19h50.25c16.956 0 30.75 13.794 30.75 30.75v59.25h-46c-5.523 0-10 4.478-10 10s4.477 10 10 10h56c4.684 0 8.604-3.225 9.691-7.572l36.58 5.327c4.611.672 9.217 1.001 13.795 1.001 26.859 0 52.603-11.364 70.81-31.759 21.414-23.984 29.21-56.753 20.856-87.655zm-402.884 98.623c-25.005 3.642-49.977-5.438-66.804-24.287-16.896-18.925-23.051-44.763-16.467-69.115 7.89-29.183 26.613-89.627 34.296-114.26 1.323-4.243 5.199-7.093 9.645-7.093h25.532c4.983 0 9.038 4.054 9.038 9.038v6.411c0 6.192-5.038 11.229-11.229 11.229-1.949 0-4.219-.484-5.648-1.206-3.101-1.565-6.791-1.411-9.748.41-2.958 1.82-4.759 5.044-4.759 8.517v90.179c0 3.138 1.475 6.094 3.98 7.983 2.504 1.889 5.751 2.49 8.771 1.631 1.829-.522 3.415-1.539 4.634-2.879 15.9-15.568 41.498-15.466 57.335.371l5.084 4.991c-2.886 6.37-4.507 13.43-4.507 20.866v51.512zm114.153-143.964v-20c0-19.851 16.149-36 36-36s36 16.149 36 36v20c0 19.851-16.149 36-36 36s-36-16.149-36-36zm252.956 119.677c-16.827 18.849-41.8 27.929-66.803 24.287l-39.153-5.702v-51.512c0-7.436-1.621-14.497-4.507-20.866l5.149-5.055c15.748-15.749 41.294-15.873 57.199-.377 1.229 1.375 2.843 2.417 4.709 2.95 3.017.86 6.264.258 8.769-1.632s3.978-4.846 3.978-7.983v-90.179c0-3.473-1.801-6.696-4.759-8.517-2.957-1.82-6.647-1.976-9.748-.41-1.429.722-3.699 1.206-5.648 1.206-6.192 0-11.229-5.037-11.229-11.229v-6.411c0-4.983 4.054-9.038 9.038-9.038h25.532c4.446 0 8.322 2.851 9.645 7.093 7.683 24.633 26.406 85.077 34.296 114.259 6.584 24.354.428 50.192-16.468 69.116z"/><path id="XMLID_545_" d="m302.541 155.291h10.916v63.851c0 5.523 4.477 10 10 10h48.804c5.523 0 10-4.477 10-10v-63.851h10.916c3.698 0 7.095-2.041 8.83-5.307 1.736-3.266 1.527-7.223-.542-10.288l-45.318-67.136c-1.859-2.754-4.965-4.405-8.289-4.405s-6.429 1.651-8.289 4.405l-45.318 67.137c-2.069 3.065-2.277 7.022-.542 10.288 1.737 3.265 5.133 5.306 8.832 5.306zm45.317-59.263 26.502 39.263h-2.101c-5.523 0-10 4.477-10 10v63.851h-28.804v-63.851c0-5.523-4.477-10-10-10h-2.101z"/><path id="XMLID_548_" d="m118.859 114.154h10.916v63.851c0 5.523 4.477 10 10 10h48.804c5.523 0 10-4.477 10-10v-63.851h10.916c3.698 0 7.095-2.041 8.83-5.307 1.736-3.266 1.527-7.223-.542-10.288l-45.318-67.137c-1.859-2.754-4.965-4.405-8.289-4.405s-6.429 1.651-8.289 4.405l-45.317 67.138c-2.069 3.065-2.277 7.022-.542 10.288 1.736 3.265 5.132 5.306 8.831 5.306zm45.317-59.263 26.503 39.263h-2.101c-5.523 0-10 4.477-10 10v63.851h-28.804v-63.851c0-5.523-4.477-10-10-10h-2.101z"/><path id="XMLID_549_" d="m256.017 465.017c-2.63 0-5.21 1.069-7.07 2.93-1.86 1.86-2.93 4.44-2.93 7.07s1.07 5.21 2.93 7.069c1.86 1.86 4.44 2.931 7.07 2.931s5.21-1.07 7.07-2.931c1.86-1.859 2.93-4.439 2.93-7.069s-1.07-5.21-2.93-7.07-4.44-2.93-7.07-2.93z"/></g></g></svg>