<svg id="Layer_1" enable-background="new 0 0 512 512" height="512" viewBox="0 0 512 512" width="512" xmlns="http://www.w3.org/2000/svg"><g id="XMLID_754_"><g id="XMLID_1458_"><g id="XMLID_1766_"><path id="XMLID_552_" d="m255.961 50h246v192h-246z" fill="#91def5"/></g><g id="XMLID_1741_"><path id="XMLID_21_" d="m255.946 241.16c-.444-12.463-11.066-22.16-23.537-22.16h-6.448c-13.255 0-24-10.745-24-24v-32.385c0-35.346-28.654-64-64-64h-32-31.922c-35.346 0-64 28.654-64 64v123.385c0 12.703 10.297 23 23 23s23-10.297 23-23v-60.5l.01-.004v30.504h99.221v-70.72l.691-.28v8c0 39.764 32.235 72 72 72h5c12.981 0 23.451-10.755 22.985-23.84z" fill="#ffcb7c"/></g><g id="XMLID_1692_"><path d="m156.049 256.127v220.873c0 13.807-11.193 25-25 25-13.807 0-25-11.193-25-25v-137.311-21.09 158.401c0 13.807-11.193 25-25 25-13.807 0-25-11.193-25-25v-220.873z" fill="#8690a6"/></g><g id="XMLID_1196_"><path d="m105.961 98.615c-21.752 0-39.385-17.633-39.385-39.385v-9.846c0-21.751 17.633-39.384 39.385-39.384 21.752 0 39.385 17.633 39.385 39.385v9.846c0 21.751-17.634 39.384-39.385 39.384z" fill="#cc9e83"/></g><g id="XMLID_1259_"><path id="XMLID_15_" d="m378.961 180.591 25.284 18.454c6.461 4.716 15.175-1.615 12.686-9.217l-9.738-29.749 25.441-18.399c6.474-4.682 3.162-14.914-4.828-14.914h-31.397l-9.609-29.728c-2.459-7.606-13.219-7.606-15.678 0l-9.609 29.728h-31.397c-7.99 0-11.302 10.232-4.828 14.914l25.441 18.399-9.738 29.749c-2.488 7.602 6.225 13.933 12.686 9.217z" fill="#ffcb7c"/></g></g><g id="XMLID_28_"><path id="XMLID_36_" d="m501.961 40h-236v-30c0-5.523-4.478-10-10-10s-10 4.477-10 10v201.742c-4.12-1.76-8.671-2.742-13.466-2.742h-6.448c-7.72 0-14-6.28-14-14v-32.385c0-38.339-29.309-69.957-66.697-73.636 6.269-8.28 9.996-18.585 9.996-29.748v-9.846c0-27.231-22.155-49.385-49.385-49.385s-49.385 22.154-49.385 49.385v9.846c0 11.168 3.731 21.478 10.005 29.76-37.315 3.751-66.542 35.338-66.542 73.625v123.384c0 18.196 14.804 33 33 33 4.618 0 9.015-.957 13.01-2.677v160.677c0 19.299 15.701 35 35 35 9.786 0 18.642-4.042 25-10.539 6.358 6.496 15.214 10.539 25 10.539 19.299 0 35-15.701 35-35v-230.424c15.047 17.39 37.251 28.424 61.998 28.424h5c4.521 0 8.89-.896 12.914-2.606v229.606c0 5.522 4.478 10 10 10s10-4.478 10-10v-250h68c5.522 0 10-4.477 10-10s-4.478-10-10-10h-68v-172h226v172h-68c-5.522 0-10 4.477-10 10s4.478 10 10 10h78c5.522 0 10-4.477 10-10v-192c0-5.523-4.478-10-10-10zm-425.385 9.385c0-16.203 13.182-29.385 29.385-29.385s29.385 13.182 29.385 29.385v9.846c0 16.203-13.182 29.384-29.385 29.384s-29.385-13.181-29.385-29.384zm54.473 442.615c-8.271 0-15-6.729-15-15v-158.4c0-5.522-4.478-10-10-10s-10 4.478-10 10v158.4c0 8.271-6.729 15-15 15s-15-6.729-15-15v-211h80v211c0 8.271-6.729 15-15 15zm101.998-237h-5c-34.161 0-61.956-27.771-61.998-61.923v-8.077c0-5.523-4.478-10-10-10h-.001-.001c-5.522 0-10 4.477-10 10l.002 61h-80v-61c0-5.523-4.478-10-10-10s-10 4.477-10 10l-.01 101c0 7.168-5.832 13-13 13s-13-5.832-13-13v-123.385c0-29.776 24.225-54 54-54h64.008c29.775 0 54 24.224 54 54v32.385c0 18.748 15.252 34 34 34h6.448c7.223 0 13.298 5.615 13.543 12.516.128 3.571-1.163 6.948-3.635 9.509-2.473 2.563-5.796 3.975-9.356 3.975z"/><path id="XMLID_42_" d="m426.435 186.717-7.467-22.812 19.527-14.122c6.43-4.65 9.107-12.847 6.663-20.396-2.443-7.549-9.417-12.621-17.352-12.621h-24.12l-7.371-22.803c-2.441-7.554-9.416-12.629-17.354-12.629s-14.913 5.076-17.354 12.629l-7.371 22.804h-24.12c-7.935 0-14.908 5.072-17.352 12.621s.233 15.746 6.663 20.396l19.527 14.122-7.467 22.811c-2.472 7.549.186 15.759 6.611 20.429 6.427 4.67 15.058 4.662 21.475-.022l19.388-14.151 19.389 14.151c3.214 2.346 6.982 3.519 10.752 3.519 3.757 0 7.514-1.165 10.722-3.497 6.425-4.671 9.082-12.881 6.611-20.429zm-28.746-23.527 8.038 24.558-20.871-15.234c-1.756-1.282-3.826-1.923-5.896-1.923s-4.14.641-5.896 1.923l-20.871 15.233 8.038-24.557c1.353-4.133-.12-8.666-3.644-11.214l-21.032-15.21h25.956c4.338 0 8.181-2.797 9.516-6.924l7.933-24.542 7.933 24.542c1.335 4.127 5.178 6.924 9.516 6.924h25.956l-21.032 15.21c-3.523 2.548-4.996 7.081-3.644 11.214z"/><path id="XMLID_537_" d="m378.96 232c-2.63 0-5.21 1.07-7.07 2.93-1.859 1.86-2.93 4.44-2.93 7.07s1.07 5.21 2.93 7.07 4.44 2.93 7.07 2.93 5.21-1.07 7.07-2.93c1.859-1.86 2.93-4.44 2.93-7.07s-1.07-5.21-2.93-7.07-4.44-2.93-7.07-2.93z"/></g></g></svg>