<svg id="Layer_1" enable-background="new 0 0 512 512" height="512" viewBox="0 0 512 512" width="512" xmlns="http://www.w3.org/2000/svg"><g id="XMLID_1285_"><path id="XMLID_1827_" d="m501 260.037-52-77.037-52 77.037h24v187.963h56v-187.963z" fill="#91def5"/><path id="XMLID_1826_" d="m115 141.037-52-77.037-52 77.037h24v187.963h56v-187.963z" fill="#91def5"/><circle id="XMLID_2450_" cx="255" cy="110" fill="#ffcb7c" r="100"/><circle id="XMLID_1814_" cx="255" cy="402" fill="#ffd89e" r="100"/><g id="XMLID_33_"><path id="XMLID_68_" d="m274.008 103.026c4.991 2.359 10.954.228 13.315-4.765 1.066-2.255 3.363-3.712 5.853-3.712s4.786 1.457 5.853 3.712c1.708 3.612 5.3 5.727 9.047 5.727 1.433 0 2.888-.31 4.269-.962 4.992-2.361 7.126-8.323 4.765-13.315-4.355-9.21-13.75-15.161-23.933-15.161s-19.578 5.95-23.934 15.16c-2.361 4.993-.227 10.955 4.765 13.316z"/><path id="XMLID_90_" d="m192.892 89.71c-2.361 4.993-.228 10.954 4.765 13.315 4.991 2.359 10.954.228 13.315-4.765 1.066-2.255 3.363-3.712 5.853-3.712s4.786 1.457 5.853 3.712c1.708 3.612 5.3 5.727 9.047 5.727 1.433 0 2.888-.31 4.269-.962 4.992-2.361 7.126-8.323 4.765-13.315-4.355-9.21-13.75-15.161-23.933-15.161s-19.579 5.951-23.934 15.161z"/><path id="XMLID_91_" d="m270.28 138.07c-8.426 8.426-22.135 8.426-30.561 0-3.906-3.905-10.236-3.905-14.143 0-3.905 3.905-3.905 10.237 0 14.143 8.112 8.112 18.768 12.167 29.423 12.167s21.311-4.056 29.423-12.167c3.905-3.905 3.905-10.237 0-14.143-3.905-3.905-10.235-3.905-14.142 0z"/><path id="XMLID_92_" d="m303.249 11.121c-4.964-2.426-10.95-.368-13.376 4.593-2.425 4.962-.369 10.951 4.593 13.376 31.171 15.235 50.534 46.238 50.534 80.91 0 49.626-40.374 90-90 90s-90-40.374-90-90c0-34.673 19.365-65.677 50.537-80.912 4.962-2.425 7.019-8.414 4.594-13.375s-8.413-7.017-13.375-4.593c-18.238 8.914-33.655 22.69-44.584 39.84-11.234 17.629-17.172 38.045-17.172 59.04 0 60.654 49.346 110 110 110s110-49.346 110-110c0-20.994-5.938-41.41-17.171-59.039-10.928-17.149-26.344-30.926-44.58-39.84z"/><path id="XMLID_93_" d="m225.577 430.07c-3.905 3.905-3.905 10.237 0 14.143 3.906 3.904 10.236 3.904 14.143 0 8.426-8.426 22.135-8.426 30.561 0 1.953 1.952 4.512 2.929 7.071 2.929s5.118-.977 7.071-2.929c3.905-3.905 3.905-10.237 0-14.143-16.225-16.222-42.621-16.222-58.846 0z"/><path id="XMLID_94_" d="m295.5 372.54c-2.63 0-5.21 1.069-7.07 2.93s-2.93 4.44-2.93 7.07 1.069 5.21 2.93 7.069c1.86 1.87 4.44 2.931 7.07 2.931s5.21-1.061 7.069-2.931c1.86-1.859 2.931-4.439 2.931-7.069s-1.07-5.21-2.931-7.07c-1.859-1.861-4.439-2.93-7.069-2.93z"/><path id="XMLID_95_" d="m221.569 375.47c-1.859-1.86-4.439-2.93-7.069-2.93s-5.21 1.069-7.07 2.93-2.93 4.44-2.93 7.07 1.069 5.21 2.93 7.069c1.86 1.86 4.44 2.931 7.07 2.931s5.21-1.07 7.069-2.931c1.86-1.859 2.931-4.43 2.931-7.069 0-2.63-1.07-5.21-2.931-7.07z"/><path id="XMLID_550_" d="m255 292c-60.654 0-110 49.346-110 110s49.346 110 110 110 110-49.346 110-110-49.346-110-110-110zm0 200c-49.626 0-90-40.374-90-90s40.374-90 90-90 90 40.374 90 90-40.374 90-90 90z"/><path id="XMLID_554_" d="m509.288 254.442-52-77.037c-1.858-2.754-4.965-4.405-8.288-4.405s-6.43 1.651-8.288 4.405l-52 77.037c-2.069 3.065-2.278 7.022-.542 10.288 1.735 3.266 5.132 5.307 8.83 5.307h14v177.963c0 5.522 4.478 10 10 10h56c5.522 0 10-4.478 10-10v-177.963h14c3.698 0 7.095-2.041 8.83-5.307 1.736-3.265 1.527-7.222-.542-10.288zm-32.288-4.405c-5.522 0-10 4.477-10 10v177.963h-36v-177.963c0-5.523-4.478-10-10-10h-5.186l33.186-49.163 33.186 49.163z"/><path id="XMLID_557_" d="m71.288 58.405c-1.858-2.754-4.965-4.405-8.288-4.405s-6.43 1.651-8.288 4.405l-52 77.037c-2.069 3.065-2.278 7.022-.542 10.288 1.735 3.266 5.132 5.307 8.83 5.307h14v177.963c0 5.522 4.478 10 10 10h56c5.522 0 10-4.478 10-10v-177.963h14c3.698 0 7.095-2.041 8.83-5.307 1.736-3.266 1.527-7.223-.542-10.288zm19.712 72.632c-5.522 0-10 4.477-10 10v177.963h-36v-177.963c0-5.523-4.478-10-10-10h-5.186l33.186-49.163 33.186 49.163z"/><path id="XMLID_558_" d="m255 20c2.63 0 5.21-1.07 7.069-2.93 1.861-1.86 2.931-4.44 2.931-7.07s-1.07-5.21-2.931-7.07c-1.859-1.86-4.439-2.93-7.069-2.93s-5.21 1.07-7.07 2.93c-1.861 1.86-2.93 4.44-2.93 7.07s1.069 5.21 2.93 7.07 4.44 2.93 7.07 2.93z"/></g></g></svg>