<svg id="Layer_1" enable-background="new 0 0 511.987 511.987" height="512" viewBox="0 0 511.987 511.987" width="512" xmlns="http://www.w3.org/2000/svg"><g id="XMLID_2469_"><g id="XMLID_2487_"><path d="m134.489 331.135c-16.032-32.253-24.43-70.631-24.43-104.771 0-99.467 82.801-175.929 181.991-175.929 96.814 0 176.119 81.133 176.119 179.044l33.818 110.107h-53.591v51.341c0 28.894-23.423 52.317-52.317 52.317h-61.287l-10.253 58.741h-191.977l14.743-61.141c8.905-36.931 4.094-75.692-12.816-109.709z" fill="#cc9e83"/></g><g id="XMLID_2520_"><g id="XMLID_2547_"><path id="XMLID_573_" d="m158.398 167.324c-23.9 20.75-57.544 27.585-88 17.041-1.064 5.522-1.628 11.222-1.628 17.054 0 49.5 40.128 89.628 89.628 89.628s89.628-40.128 89.628-89.628c0-5.832-.564-11.532-1.628-17.054-30.456 10.544-64.1 3.71-88-17.041z" fill="#d8ec84"/></g><g id="XMLID_2546_"><path id="XMLID_572_" d="m187.64 116.675c29.92 10.323 52.661 36.042 58.758 67.69 5.314-1.84 10.532-4.201 15.583-7.118 42.868-24.75 57.556-79.566 32.806-122.434s-79.565-57.555-122.433-32.805c-5.051 2.916-9.705 6.254-13.955 9.937 24.359 21.104 35.262 53.657 29.241 84.73z" fill="#91def5"/></g><g id="XMLID_2545_"><path id="XMLID_571_" d="m187.64 116.675c-1.844 9.519-5.272 18.898-10.391 27.766-5.12 8.868-11.529 16.526-18.851 22.882 23.9 20.75 57.544 27.585 88 17.041-6.097-31.647-28.837-57.366-58.758-67.689z" fill="#dff6fc"/></g><g id="XMLID_2543_"><path id="XMLID_570_" d="m54.815 177.248c5.051 2.916 10.269 5.278 15.583 7.118 6.097-31.648 28.838-57.367 58.758-67.69-6.021-31.073 4.883-63.626 29.242-84.731-4.25-3.682-8.905-7.02-13.955-9.937-42.869-24.75-97.684-10.063-122.434 32.806-24.75 42.868-10.062 97.684 32.806 122.434z" fill="#f6838d"/></g><g id="XMLID_2523_"><path id="XMLID_569_" d="m158.398 167.324c-7.321-6.356-13.731-14.014-18.851-22.882s-8.547-18.248-10.392-27.766c-29.92 10.323-52.661 36.042-58.758 67.69 30.458 10.543 64.101 3.709 88.001-17.042z" fill="#f9fceb"/></g><g id="XMLID_2522_"><path id="XMLID_86_" d="m129.156 116.675c9.165-3.162 19.002-4.884 29.242-4.884s20.077 1.722 29.242 4.884c6.021-31.073-4.883-63.626-29.242-84.731-24.359 21.105-35.262 53.658-29.242 84.731z" fill="#fbc2c7"/></g><g id="XMLID_2521_"><path d="m158.398 167.324c7.321-6.356 13.731-14.014 18.851-22.882s8.547-18.248 10.391-27.766c-9.165-3.162-19.002-4.884-29.242-4.884s-20.077 1.722-29.242 4.884c1.844 9.519 5.272 18.898 10.392 27.766s11.529 16.526 18.85 22.882z" fill="#fff"/></g></g><g id="XMLID_574_"><path id="XMLID_577_" d="m316.795 99.628c0-13.555-2.726-26.484-7.65-38.274 23.013 2.464 45.406 9.873 65.561 21.788 1.597.945 3.349 1.394 5.079 1.394 3.42 0 6.752-1.755 8.618-4.912 2.811-4.754 1.235-10.887-3.52-13.697-26.674-15.77-56.855-24.497-87.562-25.395-18.16-24.569-47.326-40.532-80.153-40.532-21.962 0-42.283 7.149-58.77 19.233-16.487-12.084-36.808-19.233-58.77-19.233-54.934 0-99.627 44.693-99.627 99.628 0 40.605 24.421 75.609 59.343 91.11-.376 3.51-.574 7.073-.574 10.681 0 36.508 19.743 68.486 49.108 85.836 4.336 17.19 10.253 33.437 17.656 48.33 16.008 32.203 20.288 68.752 12.05 102.914l-14.743 61.142c-1.294 5.368 2.009 10.771 7.378 12.065.787.189 1.576.28 2.352.28 4.514 0 8.608-3.076 9.714-7.658l14.743-61.142c9.337-38.723 4.514-80.099-13.583-116.504-4.585-9.224-8.561-19.031-11.888-29.313 8.543 2.393 17.545 3.677 26.842 3.677 54.935 0 99.628-44.693 99.628-99.628 0-3.608-.198-7.171-.574-10.681 34.922-15.5 59.342-50.504 59.342-91.109zm-137.661 4.34c-6.691-1.422-13.627-2.177-20.736-2.177s-14.044.754-20.736 2.177c-.078-1.438-.123-2.884-.123-4.34 0-20.658 7.911-39.501 20.858-53.667 12.947 14.166 20.858 33.009 20.858 53.667.001 1.456-.044 2.903-.121 4.34zm-20.736 49.327c-7.697-8.422-13.608-18.498-17.141-29.626 5.525-1.217 11.255-1.878 17.141-1.878s11.616.661 17.141 1.878c-3.533 11.128-9.444 21.205-17.141 29.626zm35.982-22.875c18.872 9.603 33.433 26.494 39.928 46.958-5.525 1.217-11.255 1.878-17.141 1.878-16.059 0-31.011-4.794-43.532-13.003 9.236-10.25 16.376-22.421 20.745-35.833zm-51.219 35.833c-12.521 8.209-27.474 13.003-43.532 13.003-5.885 0-11.616-.661-17.141-1.878 6.496-20.463 21.057-37.354 39.928-46.958 4.369 13.412 11.509 25.583 20.745 35.833zm-123.16-66.625c0-43.907 35.72-79.628 79.627-79.628 16.059 0 31.011 4.794 43.532 13.003-15.917 17.664-25.621 41.031-25.621 66.625 0 3.608.198 7.171.574 10.681-25.683 11.401-45.681 33.35-54.467 60.318-25.871-13.165-43.645-40.036-43.645-70.999zm218.025 101.791c0 43.907-35.721 79.628-79.628 79.628s-79.628-35.72-79.628-79.628c0-1.457.045-2.903.123-4.34 6.691 1.422 13.627 2.177 20.736 2.177 21.962 0 42.283-7.149 58.77-19.233 16.487 12.085 36.808 19.233 58.77 19.233 7.109 0 14.044-.754 20.736-2.177.076 1.438.121 2.884.121 4.34zm15.123-30.792c-8.786-26.969-28.783-48.918-54.467-60.318.376-3.51.574-7.073.574-10.681 0-25.594-9.704-48.961-25.621-66.625 12.522-8.209 27.474-13.003 43.533-13.003 43.907 0 79.628 35.721 79.628 79.628-.001 30.963-17.775 57.834-43.647 70.999z"/><path id="XMLID_584_" d="m511.545 336.65-33.383-108.692c-.271-33.538-9.467-66.489-26.639-95.39-2.82-4.748-8.954-6.312-13.705-3.489-4.747 2.821-6.31 8.957-3.488 13.705 15.595 26.248 23.838 56.226 23.838 86.695 0 .995.148 1.985.44 2.936l29.845 97.17h-40.059c-5.522 0-10 4.478-10 10v51.342c0 23.333-18.983 42.316-42.316 42.316h-61.287c-4.859 0-9.016 3.493-9.851 8.28l-10.254 58.741c-.95 5.44 2.69 10.621 8.131 11.57.582.102 1.16.151 1.731.151 4.769 0 8.991-3.424 9.839-8.282l8.809-50.461h52.882c34.361 0 62.316-27.955 62.316-62.316v-41.342h43.591c3.173 0 6.157-1.506 8.042-4.057 1.887-2.55 2.45-5.845 1.518-8.877z"/><path id="XMLID_585_" d="m415.326 112.145c2.63 0 5.21-1.07 7.07-2.93 1.859-1.86 2.93-4.44 2.93-7.07 0-2.64-1.07-5.21-2.93-7.07s-4.431-2.93-7.07-2.93c-2.63 0-5.21 1.07-7.07 2.93-1.859 1.86-2.93 4.44-2.93 7.07s1.07 5.21 2.93 7.07 4.44 2.93 7.07 2.93z"/></g></g></svg>