<svg id="Layer_1" enable-background="new 0 0 512.001 512.001" height="512" viewBox="0 0 512.001 512.001" width="512" xmlns="http://www.w3.org/2000/svg"><g id="XMLID_1496_"><g id="XMLID_2368_"><path d="m25.725 190.488c-10.308-20.736-16.08-45.414-15.707-67.361 1.084-63.763 53.244-114.14 117.008-113.11 62.709 1.013 113.233 52.163 113.233 115.113l21.743 70.791h-34.455v27.546c0 21.594-17.505 39.099-39.099 39.099h-33.941l-10.819 37.767h-119.202l9.542-39.573c5.707-23.665 2.533-48.474-8.303-70.272z" fill="#ffcbbe"/></g><g id="XMLID_2367_"><path d="m486.277 392.156c10.308-20.736 16.08-45.414 15.707-67.361-1.084-63.763-53.244-114.14-117.008-113.111-62.709 1.013-113.233 52.163-113.233 115.113l-21.743 70.791h34.455v27.546c0 21.594 17.505 39.099 39.099 39.099h33.941l10.819 37.767h119.201l-9.542-39.573c-5.706-23.664-2.532-48.473 8.304-70.271z" fill="#f2bb88"/></g><g id="XMLID_2358_"><g id="XMLID_2364_"><path id="XMLID_4_" d="m123.668 146.381c-12.15 0-22-9.85-22-22s9.85-22 22-22 22 9.85 22 22-9.85 22-22 22z" fill="#fff"/></g><g id="XMLID_2363_"><path id="XMLID_100_" d="m184.715 124.381c0-4.48-.496-8.843-1.413-13.049l10.561-6.097-18.517-32.072-10.561 6.097c-6.427-5.86-14.112-10.36-22.601-13.059v-12.185h-37.034v12.185c-8.488 2.699-16.173 7.199-22.6 13.059l-10.561-6.098-18.517 32.072 10.561 6.097c-.916 4.206-1.412 8.568-1.412 13.049s.496 8.843 1.412 13.049l-10.561 6.097 18.517 32.072 10.561-6.098c6.427 5.86 14.112 10.36 22.601 13.059v12.185h37.034v-12.185c8.488-2.699 16.174-7.199 22.601-13.059l10.561 6.097 18.517-32.072-10.561-6.097c.916-4.204 1.412-8.567 1.412-13.047z" fill="#91def5"/></g></g><g id="XMLID_2936_"><path id="XMLID_3_" d="m123.668 146.381c-12.15 0-22-9.85-22-22s9.85-22 22-22 22 9.85 22 22-9.85 22-22 22z" fill="#fff"/></g><g id="XMLID_2206_"><path id="XMLID_101_" d="m465.604 291.063c20.101 0 36.397-16.295 36.397-36.397 0-20.101-16.295-36.397-36.397-36.397-3.573 0-7.021.524-10.283 1.483-4.502-21.003-23.163-36.752-45.51-36.752-21.829 0-40.142 15.028-45.175 35.301-.412-.014-.823-.031-1.239-.031-20.101 0-36.397 16.295-36.397 36.397 0 20.101 16.295 36.397 36.397 36.397h102.207z" fill="#dff6fc"/></g><g id="XMLID_127_"><path id="XMLID_138_" d="m511.984 324.795c0-15.064-2.782-29.748-8.258-43.727 5.21-7.5 8.275-16.597 8.275-26.401 0-25.219-20.229-45.788-45.311-46.369-8.961-39.796-28.876-75.954-57.954-105.032-49.707-49.707-120.016-71.963-189.135-60.183-1.708-1.963-3.477-3.885-5.318-5.754-23.174-23.528-54.104-36.779-87.097-37.311-17.299-.287-34.102 2.883-49.921 9.4-5.107 2.104-7.541 7.949-5.438 13.055 2.103 5.105 7.946 7.541 13.055 5.437 13.288-5.474 27.394-8.122 41.981-7.895 57.012.92 103.395 48.075 103.395 105.115 0 .995.148 1.985.44 2.936l17.77 57.855h-20.923c-2.652 0-5.195 1.054-7.071 2.929-1.875 1.875-2.929 4.419-2.929 7.071v27.547c0 16.045-13.054 29.099-29.099 29.099h-33.941c-4.462 0-8.385 2.957-9.613 7.246l-8.743 30.521h-98.965l6.565-27.229c6.159-25.541 2.938-52.91-9.07-77.068-9.665-19.442-15.01-42.311-14.663-62.739.226-13.266 2.853-26.128 7.808-38.231 2.093-5.111-.354-10.951-5.465-13.043s-10.951.355-13.043 5.465c-5.9 14.411-9.028 29.709-9.298 45.469-.398 23.528 5.707 49.764 16.752 71.981 9.919 19.955 12.596 42.498 7.536 63.477l-9.542 39.573c-.718 2.979-.03 6.123 1.865 8.531 1.896 2.407 4.792 3.813 7.856 3.813h22.429c9.625 37.17 29 71.052 56.35 98.403 41.098 41.098 95.758 63.331 152.375 63.331 14.413 0 28.958-1.46 43.434-4.399 7.212 4.167 15.569 6.566 24.48 6.566h26.403l8.743 30.521c1.229 4.29 5.151 7.246 9.613 7.246h119.201c3.064 0 5.96-1.405 7.856-3.813s2.583-5.553 1.865-8.531l-9.542-39.574c-5.06-20.978-2.383-43.521 7.535-63.476 10.651-21.417 16.757-47.592 16.757-71.812zm-19.983-70.128c0 14.555-11.842 26.396-26.396 26.396h-39.043l4.729-11.162c2.154-5.085-.222-10.954-5.308-13.108s-10.954.223-13.108 5.308l-8.033 18.963h-41.444c-14.555 0-26.396-11.842-26.396-26.396 0-14.555 11.842-26.396 26.396-26.396.224 0 .444.01.666.018l.241.008c4.735.141 8.9-3.005 10.037-7.585 4.051-16.315 18.637-27.71 35.47-27.71 17.121 0 32.148 12.132 35.731 28.848.584 2.721 2.273 5.075 4.665 6.498 2.391 1.423 5.266 1.785 7.936 1 2.428-.714 4.938-1.077 7.461-1.077 14.554-.002 26.396 11.84 26.396 26.395zm-374.593 139.927c-23.583-23.583-40.626-52.513-49.757-84.261h76.036c4.462 0 8.385-2.956 9.613-7.246l8.743-30.521h26.403c27.073 0 49.099-22.025 49.099-49.099v-17.547h24.455c3.173 0 6.157-1.505 8.042-4.057 1.886-2.552 2.449-5.847 1.518-8.879l-21.311-69.386c-.266-22.217-6.307-43.538-17.399-62.216 59.489-7.067 119.008 13.291 161.743 56.025 18.127 18.127 32.324 39.285 42.076 62.457-8.067-4.386-17.248-6.864-26.858-6.864-22.034 0-41.579 12.626-50.872 31.807-56.077 12.776-96.485 62.634-97.187 120.459l-21.312 69.388c-.932 3.032-.368 6.327 1.518 8.879 1.885 2.552 4.87 4.057 8.042 4.057l24.455-.001v17.547c0 9.215 2.556 17.841 6.99 25.217-60.277 7.936-120.537-12.258-164.037-55.759zm359.913-6.889c-12.008 24.157-15.229 51.527-9.069 77.066l6.565 27.229h-98.965l-8.743-30.521c-1.229-4.29-5.151-7.246-9.613-7.246h-33.941c-16.045 0-29.099-13.054-29.099-29.099v-27.547c0-2.652-1.054-5.195-2.929-7.071-1.876-1.875-4.419-2.929-7.071-2.929l-20.923.001 17.77-57.856c.292-.951.44-1.94.44-2.936 0-31.1 13.684-59.547 35.771-78.993-.334 2.24-.514 4.53-.514 6.862 0 25.583 20.813 46.396 46.396 46.396h32.972l-11.062 26.114c-1.309 3.088-.981 6.627.871 9.423s4.983 4.478 8.337 4.478h28.553l-10.647 39.841c-1.426 5.336 1.744 10.817 7.079 12.243.865.231 1.733.342 2.588.342 4.418-.001 8.46-2.95 9.655-7.421l14.01-52.423c.802-3.003.163-6.207-1.729-8.672s-4.824-3.91-7.932-3.91h-26.48l8.479-20.015h47.515c7.953 0 15.444-2.014 21.994-5.555 2.909 9.471 4.386 19.279 4.386 29.286-.001 21.239-5.346 44.169-14.664 62.913z"/><path id="XMLID_143_" d="m123.668 156.381c17.645 0 32-14.355 32-32s-14.355-32-32-32-32 14.355-32 32 14.355 32 32 32zm0-44c6.617 0 12 5.383 12 12s-5.383 12-12 12-12-5.383-12-12 5.383-12 12-12z"/><path id="XMLID_146_" d="m48.471 113.895 4.585 2.647c-.29 2.609-.437 5.229-.437 7.838s.146 5.229.437 7.839l-4.585 2.647c-4.783 2.762-6.422 8.877-3.66 13.66l18.517 32.072c1.326 2.297 3.51 3.973 6.072 4.659 2.561.686 5.291.328 7.588-.999l4.588-2.648c4.22 3.1 8.788 5.74 13.574 7.845v5.29c0 5.523 4.478 10 10 10h37.034c5.522 0 10-4.477 10-10v-5.29c4.786-2.105 9.354-4.746 13.575-7.845l4.587 2.648c2.296 1.326 5.025 1.686 7.588.999 2.562-.686 4.746-2.362 6.072-4.659l18.518-32.072c1.326-2.297 1.686-5.026.999-7.588s-2.362-4.746-4.659-6.072l-4.586-2.647c.291-2.61.438-5.229.438-7.839 0-2.609-.146-5.228-.438-7.838l4.586-2.647c2.297-1.326 3.973-3.51 4.659-6.072.687-2.562.327-5.291-.999-7.588l-18.518-32.072c-1.326-2.297-3.511-3.973-6.072-4.659-2.561-.685-5.291-.327-7.588.999l-4.587 2.648c-4.221-3.099-8.789-5.74-13.575-7.845v-5.29c0-5.523-4.478-10-10-10h-37.034c-5.522 0-10 4.477-10 10v5.29c-4.786 2.105-9.354 4.746-13.574 7.845l-4.588-2.648c-2.296-1.327-5.027-1.685-7.588-.999-2.563.687-4.746 2.362-6.072 4.659l-18.517 32.072c-2.761 4.782-1.123 10.898 3.66 13.66zm25.332 21.406c-.784-3.604-1.183-7.278-1.183-10.92s.398-7.316 1.183-10.92c.927-4.251-1.003-8.613-4.771-10.789l-1.9-1.098 8.517-14.752 1.901 1.098c3.773 2.179 8.52 1.662 11.737-1.271 5.411-4.933 11.944-8.709 18.894-10.919 4.15-1.32 6.97-5.174 6.97-9.53v-2.185h17.034v2.185c0 4.355 2.819 8.21 6.97 9.53 6.95 2.21 13.483 5.986 18.895 10.919 3.219 2.935 7.967 3.447 11.737 1.271l1.9-1.097 8.518 14.751-1.901 1.098c-3.768 2.175-5.697 6.537-4.771 10.789.785 3.607 1.184 7.281 1.184 10.92s-.398 7.314-1.184 10.921c-.927 4.251 1.003 8.613 4.771 10.789l1.901 1.097-8.518 14.751-1.9-1.097c-3.769-2.176-8.517-1.665-11.737 1.271-5.411 4.933-11.944 8.709-18.895 10.919-4.15 1.32-6.97 5.174-6.97 9.53v2.185h-17.035v-2.185c0-4.355-2.819-8.21-6.97-9.53-6.95-2.21-13.483-5.986-18.893-10.918-3.22-2.936-7.967-3.448-11.738-1.271l-1.901 1.098-8.517-14.752 1.9-1.098c3.769-2.177 5.698-6.539 4.772-10.79z"/><path id="XMLID_147_" d="m43.64 53.631c2.63 0 5.2-1.06 7.061-2.93 1.869-1.86 2.939-4.44 2.939-7.07s-1.07-5.2-2.939-7.07c-1.86-1.86-4.431-2.93-7.061-2.93-2.64 0-5.22 1.07-7.08 2.93-1.859 1.86-2.92 4.44-2.92 7.07 0 2.64 1.061 5.21 2.92 7.07 1.861 1.87 4.441 2.93 7.08 2.93z"/></g></g></svg>