<svg id="Layer_1" enable-background="new 0 0 512 512" height="512" viewBox="0 0 512 512" width="512" xmlns="http://www.w3.org/2000/svg"><g id="XMLID_1139_"><g id="XMLID_2068_"><path id="XMLID_2003_" d="m502 302v-92h-40.081c-5.382-24.18-14.906-46.797-27.801-67.064l28.357-28.357-65.054-65.054-28.364 28.364c-20.265-12.889-42.88-22.408-67.057-27.785v-40.104h-92v40.104c-24.177 5.377-46.792 14.896-67.057 27.784l-28.364-28.364-65.054 65.054 28.357 28.357c-12.896 20.268-22.42 42.885-27.801 67.065h-40.081v92h40.068c5.376 24.188 14.897 46.813 27.791 67.087l-28.334 28.334 65.054 65.054 28.327-28.327c20.275 12.901 42.903 22.427 67.094 27.808v40.044h92v-40.044c24.191-5.38 46.819-14.907 67.094-27.808l28.327 28.327 65.054-65.054-28.334-28.334c12.894-20.274 22.415-42.899 27.791-67.087zm-246 106.03c-83.947 0-152-68.053-152-152s68.053-152 152-152 152 68.053 152 152-68.053 152-152 152z" fill="#91def5"/><path id="XMLID_1824_" d="m177.667 285.667c-16.385 0-29.667-13.283-29.667-29.667 0-16.384 13.282-29.667 29.667-29.667 16.384 0 29.667 13.282 29.667 29.667-.001 16.384-13.283 29.667-29.667 29.667z" fill="#f6838d"/><path id="XMLID_1820_" d="m301.537 230.139h51.722v51.722h-51.722z" fill="#cff1fb" transform="matrix(.707 -.707 .707 .707 -85.127 306.486)"/><path id="XMLID_1818_" d="m228 148h56v56h-56z" fill="#d8ec84" transform="matrix(0 1 -1 0 432 -80)"/><path id="XMLID_1817_" d="m216.854 356.445 39.273-68.023 39.273 68.023z" fill="#ffcb7c"/><g id="XMLID_1763_"><path id="XMLID_69_" d="m256 418.03c-89.327 0-162-72.673-162-162s72.673-162 162-162c26.368 0 52.545 6.48 75.702 18.741 4.881 2.584 6.743 8.636 4.159 13.517-2.583 4.881-8.636 6.742-13.517 4.159-20.285-10.74-43.226-16.417-66.344-16.417-78.299 0-142 63.701-142 142s63.701 142 142 142 142-63.701 142-142c0-23.375-5.797-46.542-16.766-66.998-2.61-4.868-.78-10.929 4.087-13.539 4.868-2.609 10.929-.779 13.539 4.087 12.522 23.353 19.14 49.789 19.14 76.45 0 89.327-72.673 162-162 162z"/></g><g id="XMLID_1793_"><path id="XMLID_65_" d="m302 512h-92c-5.523 0-10-4.477-10-10v-32.174c-19.523-5.095-38.161-12.82-55.589-23.041l-22.761 22.761c-3.904 3.904-10.237 3.904-14.142 0l-65.054-65.054c-3.905-3.905-3.905-10.237 0-14.142l22.769-22.769c-10.216-17.426-17.936-36.062-23.027-55.581h-32.196c-5.523 0-10-4.477-10-10v-92c0-5.523 4.477-10 10-10h32.211c5.095-19.512 12.818-38.142 23.033-55.56l-22.791-22.791c-3.905-3.905-3.905-10.237 0-14.142l65.054-65.054c3.905-3.904 10.238-3.904 14.142 0l22.799 22.799c17.42-10.21 36.042-17.927 55.552-23.018v-32.234c0-5.523 4.477-10 10-10h92c5.523 0 10 4.477 10 10v32.234c19.51 5.091 38.132 12.808 55.552 23.019l22.799-22.799c3.904-3.904 10.237-3.904 14.142 0l65.054 65.054c3.905 3.905 3.905 10.237 0 14.142l-22.791 22.791c10.215 17.418 17.938 36.048 23.033 55.56h32.211c5.523 0 10 4.477 10 10v92c0 5.523-4.477 10-10 10h-32.196c-5.091 19.52-12.812 38.156-23.026 55.582l22.769 22.769c3.905 3.905 3.905 10.237 0 14.142l-65.054 65.054c-1.875 1.875-4.419 2.929-7.071 2.929s-5.196-1.054-7.071-2.929l-22.76-22.761c-17.428 10.221-36.066 17.946-55.59 23.041v32.172c-.001 5.523-4.478 10-10.001 10zm-82-20h72v-30.044c0-4.687 3.254-8.744 7.829-9.762 22.724-5.054 44.222-13.964 63.897-26.483 3.954-2.517 9.125-1.949 12.439 1.366l21.255 21.256 50.912-50.912-21.263-21.263c-3.313-3.314-3.881-8.484-1.367-12.438 12.513-19.675 21.417-41.171 26.467-63.891 1.017-4.575 5.075-7.831 9.762-7.831h30.069v-72h-30.081c-4.686 0-8.743-3.254-9.761-7.828-5.055-22.712-13.963-44.201-26.477-63.869-2.516-3.954-1.948-9.125 1.366-12.439l21.286-21.286-50.912-50.912-21.292 21.296c-3.314 3.313-8.483 3.882-12.438 1.367-19.668-12.508-41.154-21.411-63.862-26.461-4.575-1.018-7.829-5.075-7.829-9.762v-30.104h-72v30.104c0 4.687-3.254 8.744-7.829 9.762-22.708 5.05-44.194 13.953-63.862 26.461-3.953 2.516-9.124 1.946-12.438-1.367l-21.292-21.293-50.912 50.912 21.286 21.286c3.314 3.314 3.882 8.485 1.366 12.439-12.514 19.667-21.422 41.155-26.477 63.869-1.018 4.574-5.076 7.828-9.761 7.828h-30.081v72h30.068c4.687 0 8.745 3.255 9.762 7.831 5.049 22.719 13.954 44.214 26.467 63.891 2.515 3.954 1.947 9.124-1.367 12.438l-21.263 21.263 50.912 50.912 21.256-21.256c3.313-3.313 8.484-3.883 12.439-1.366 19.676 12.52 41.174 21.43 63.897 26.483 4.575 1.018 7.829 5.075 7.829 9.762z"/></g><g id="XMLID_1819_"><path id="XMLID_62_" d="m177.667 295.667c-21.873 0-39.667-17.795-39.667-39.667s17.794-39.667 39.667-39.667 39.667 17.794 39.667 39.667-17.795 39.667-39.667 39.667zm0-59.334c-10.845 0-19.667 8.823-19.667 19.667s8.822 19.667 19.667 19.667 19.667-8.822 19.667-19.667-8.823-19.667-19.667-19.667z"/></g><g id="XMLID_1821_"><path id="XMLID_59_" d="m327.397 302.573c-2.559 0-5.119-.976-7.071-2.929l-36.573-36.573c-3.905-3.905-3.905-10.237 0-14.143l36.573-36.573c3.905-3.905 10.237-3.905 14.143 0l36.573 36.573c3.905 3.905 3.905 10.237 0 14.143l-36.573 36.573c-1.953 1.953-4.512 2.929-7.072 2.929zm-22.43-46.573 22.431 22.431 22.43-22.431-22.431-22.431z"/></g><g id="XMLID_1822_"><path id="XMLID_56_" d="m284 214h-56c-5.523 0-10-4.477-10-10v-56c0-5.523 4.477-10 10-10h56c5.523 0 10 4.477 10 10v56c0 5.523-4.477 10-10 10zm-46-20h36v-36h-36z"/></g><g id="XMLID_1823_"><path id="XMLID_53_" d="m295.4 366.445h-78.547c-3.573 0-6.874-1.906-8.66-5-1.787-3.094-1.787-6.906 0-10l39.273-68.023c1.786-3.094 5.087-5 8.66-5s6.874 1.906 8.66 5l39.273 68.023c1.787 3.094 1.787 6.906 0 10-1.785 3.094-5.086 5-8.659 5zm-61.226-20h43.905l-21.953-38.023z"/></g></g><g id="XMLID_1141_"><g id="XMLID_1142_"><path id="XMLID_52_" d="m363.46 158c-2.63 0-5.21-1.07-7.07-2.93s-2.93-4.44-2.93-7.07 1.07-5.21 2.93-7.07 4.44-2.93 7.07-2.93 5.21 1.07 7.07 2.93 2.93 4.44 2.93 7.07-1.07 5.21-2.93 7.07-4.44 2.93-7.07 2.93z"/></g></g></g></svg>