<svg id="Layer_1" enable-background="new 0 0 512.048 512.048" height="512" viewBox="0 0 512.048 512.048" width="512" xmlns="http://www.w3.org/2000/svg"><g id="XMLID_805_"><path id="XMLID_2639_" d="m64.024 229.54c.491 33.349 8.835 70.377 24.383 101.656 16.91 34.018 21.721 72.778 12.816 109.709l-14.743 61.141h191.976l10.253-58.741h61.287c28.894 0 52.317-23.423 52.317-52.316v-51.341h53.591l-33.817-110.108z" fill="#f2bb88"/><g id="XMLID_755_"><ellipse id="XMLID_1120_" cx="256.024" cy="97.193" fill="#fff" rx="129.656" ry="87.193"/><g id="XMLID_1062_"><circle id="XMLID_1118_" cx="256.024" cy="96.448" fill="#91def5" r="48.263"/><circle id="XMLID_1117_" cx="274.823" cy="77.649" fill="#fff" r="21.677"/></g></g><g id="XMLID_134_"><path id="XMLID_135_" d="m211.025 219.54h-147.001c-2.678 0-5.243 1.074-7.123 2.981-1.879 1.908-2.915 4.489-2.876 7.167.528 35.894 9.797 74.515 25.427 105.959 16.009 32.203 20.288 68.752 12.05 102.914l-14.743 61.142c-1.294 5.368 2.009 10.771 7.378 12.065.787.189 1.576.28 2.352.28 4.514 0 8.609-3.076 9.714-7.658l14.743-61.142c9.337-38.724 4.514-80.099-13.583-116.504-12.886-25.922-21.061-57.188-22.943-87.205h136.606c5.522 0 10-4.477 10-10s-4.478-9.999-10.001-9.999z"/><path id="XMLID_168_" d="m431.646 226.604c-1.29-4.198-5.168-7.064-9.56-7.064h-121.06c-5.522 0-10 4.477-10 10s4.478 10 10 10h113.67l27.675 90.107h-40.058c-5.522 0-10 4.478-10 10v51.341c0 23.333-18.983 42.316-42.316 42.316h-61.287c-4.859 0-9.016 3.493-9.851 8.28l-10.253 58.742c-.95 5.44 2.69 10.621 8.131 11.57.582.102 1.16.151 1.731.151 4.769 0 8.991-3.424 9.839-8.282l8.808-50.462h52.883c34.361 0 62.316-27.955 62.316-62.316v-41.341h43.59c3.173 0 6.157-1.506 8.042-4.057 1.886-2.552 2.448-5.847 1.518-8.879z"/><path id="XMLID_171_" d="m256.024 154.71c32.126 0 58.263-26.136 58.263-58.262s-26.137-58.263-58.263-58.263-58.263 26.137-58.263 58.263 26.137 58.262 58.263 58.262zm10.542-85.318c2.276-2.277 5.267-3.415 8.257-3.415s5.98 1.138 8.257 3.414c4.553 4.553 4.553 11.961 0 16.514-4.553 4.554-11.961 4.552-16.514 0s-4.553-11.96 0-16.513zm-17.181-10.619c-9.208 12.393-8.197 30.038 3.038 41.274 6.176 6.175 14.288 9.263 22.399 9.263 6.647 0 13.293-2.077 18.875-6.224-3.154 17.943-18.841 31.624-37.674 31.624-21.098 0-38.263-17.165-38.263-38.262.001-18.833 13.683-34.521 31.625-37.675z"/><path id="XMLID_175_" d="m256.024 194.386c58.652 0 111.802-35.614 138.708-92.944 1.263-2.691 1.263-5.806 0-8.497-26.905-57.331-80.055-92.945-138.708-92.945s-111.803 35.614-138.708 92.944c-1.263 2.691-1.263 5.806 0 8.497 26.906 57.33 80.056 92.945 138.708 92.945zm0-174.386c49.366 0 94.389 29.453 118.532 77.193-24.144 47.74-69.166 77.193-118.532 77.193s-94.389-29.453-118.532-77.193c24.143-47.74 69.166-77.193 118.532-77.193z"/><path id="XMLID_176_" d="m483.274 87.193h-53.595c-5.522 0-10 4.477-10 10s4.478 10 10 10h53.595c5.522 0 10-4.477 10-10s-4.477-10-10-10z"/><path id="XMLID_177_" d="m429.679 63.193c2.559 0 5.118-.977 7.071-2.929l28.746-28.746c3.905-3.905 3.905-10.237 0-14.142s-10.235-3.905-14.143 0l-28.746 28.746c-3.905 3.905-3.905 10.237 0 14.142 1.954 1.953 4.513 2.929 7.072 2.929z"/><path id="XMLID_178_" d="m436.751 134.122c-3.906-3.905-10.236-3.905-14.143 0-3.905 3.905-3.905 10.237 0 14.142l28.746 28.745c1.953 1.953 4.512 2.929 7.071 2.929s5.118-.977 7.071-2.929c3.905-3.905 3.905-10.237 0-14.142z"/><path id="XMLID_181_" d="m92.369 97.193c0-5.523-4.478-10-10-10h-53.595c-5.522 0-10 4.477-10 10s4.478 10 10 10h53.595c5.522 0 10-4.477 10-10z"/><path id="XMLID_182_" d="m75.298 60.264c1.953 1.953 4.512 2.929 7.071 2.929s5.118-.977 7.071-2.929c3.905-3.905 3.905-10.237 0-14.142l-28.746-28.746c-3.906-3.905-10.236-3.905-14.143 0-3.905 3.905-3.905 10.237 0 14.142z"/><path id="XMLID_183_" d="m89.44 148.264c3.905-3.905 3.905-10.237 0-14.142s-10.235-3.905-14.143 0l-28.746 28.745c-3.905 3.905-3.905 10.237 0 14.142 1.953 1.953 4.512 2.929 7.071 2.929s5.118-.977 7.071-2.929z"/><path id="XMLID_184_" d="m256.024 219.543c-2.63 0-5.21 1.06-7.07 2.93-1.86 1.86-2.93 4.44-2.93 7.07s1.069 5.2 2.93 7.07c1.86 1.86 4.44 2.93 7.07 2.93s5.21-1.07 7.069-2.93c1.86-1.86 2.931-4.44 2.931-7.07s-1.07-5.21-2.931-7.07c-1.859-1.87-4.439-2.93-7.069-2.93z"/></g></g></svg>