<svg id="Layer_1" enable-background="new 0 0 512 512" height="512" viewBox="0 0 512 512" width="512" xmlns="http://www.w3.org/2000/svg"><g id="XMLID_2709_"><path id="XMLID_1178_" d="m194.5 10h244v154h-244z" fill="#91def5"/><path id="XMLID_1231_" d="m178.746 502 161.627-267.5 161.627 267.5z" fill="#8690a6"/><g id="XMLID_1174_"><path id="XMLID_1176_" d="m316.5 82c-45.287 0-82 36.713-82 82h164c0-45.287-36.713-82-82-82z" fill="#d8ec84"/><path id="XMLID_1175_" d="m316.5 10c-17.673 0-32 14.327-32 32v8c0 17.673 14.327 32 32 32 17.673 0 32-14.327 32-32v-8c0-17.673-14.327-32-32-32z" fill="#ffbf9e"/></g><path id="XMLID_1082_" d="m10 502 184.5-312 184.5 312z" fill="#b5bcc9"/><path id="XMLID_2602_" d="m194.5 190-73.918 125 36.418 64 44.75-44.75 59.409 60.75 34.48-33.969z" fill="#fff"/><g id="XMLID_727_"><path id="XMLID_730_" d="m510.559 496.828-161.627-267.5c-1.811-2.997-5.058-4.828-8.559-4.828s-6.748 1.831-8.559 4.828l-51.771 85.684-75.543-127.747v-13.265h234c5.523 0 10-4.478 10-10v-154c0-5.522-4.477-10-10-10h-244c-5.523 0-10 4.478-10 10v177.265l-183.107 309.645c-1.828 3.091-1.858 6.925-.079 10.045 1.779 3.119 5.095 5.045 8.686 5.045h139.5c5.523 0 10-4.478 10-10s-4.477-10-10-10h-121.969l92.884-157.073 27.893 49.018c1.543 2.712 4.263 4.548 7.355 4.965 3.09.42 6.202-.633 8.408-2.839l37.599-37.6 52.339 53.52c1.859 1.901 4.398 2.983 7.056 3.009h.093c2.625 0 5.146-1.032 7.018-2.876l25.366-24.99 67.927 114.866h-121.969c-5.523 0-10 4.478-10 10s4.477 10 10 10h262.5c3.608 0 6.937-1.943 8.709-5.087 1.773-3.142 1.716-6.996-.15-10.085zm-306.059-476.828h76.242c-3.954 6.403-6.242 13.938-6.242 22v8c0 10.558 3.925 20.212 10.381 27.599-32.198 11.82-56.008 41.156-59.836 76.401h-20.545zm134 22v8c0 12.131-9.869 22-22 22s-22-9.869-22-22v-8c0-12.131 9.869-22 22-22s22 9.869 22 22zm-93.308 112c4.882-34.985 35-62 71.308-62s66.426 27.015 71.308 62zm183.308 0h-20.545c-3.828-35.245-27.637-64.581-59.836-76.401 6.456-7.387 10.381-17.041 10.381-27.599v-8c0-8.062-2.288-15.597-6.242-22h76.242zm-167.209 226.832-52.391-53.573c-1.868-1.91-4.422-2.994-7.094-3.009-2.683-.037-5.238 1.04-7.127 2.929l-35.475 35.476-27.062-47.557 62.358-105.45 88.552 149.747zm123.413 111.168-93.103-157.442 48.772-80.721 143.901 238.163z"/><path id="XMLID_736_" d="m194.5 492c-2.63 0-5.21 1.069-7.07 2.93-1.86 1.86-2.93 4.44-2.93 7.07s1.07 5.21 2.93 7.069c1.86 1.86 4.44 2.931 7.07 2.931s5.21-1.07 7.07-2.931c1.86-1.859 2.93-4.439 2.93-7.069s-1.07-5.21-2.93-7.07-4.44-2.93-7.07-2.93z"/></g></g></svg>