<svg id="Layer_1" enable-background="new 0 0 512 512" height="512" viewBox="0 0 512 512" width="512" xmlns="http://www.w3.org/2000/svg"><g id="XMLID_905_"><g id="XMLID_2720_"><path id="XMLID_1412_" d="m438 98.615h-63.844c-35.346 0-64 28.654-64 64v123.385c0 12.703 10.297 23 23 23 12.703 0 23-10.297 23-23v-30h99.844v30c0 12.703 10.297 23 23 23s23-10.297 23-23v-123.385c0-35.346-28.654-64-64-64z" fill="#ffcb7c"/><path id="XMLID_2742_" d="m456.166 260.333v216.667c0 13.807-11.193 25-25 25-13.807 0-25-11.193-25-25v-137.311-21.09 158.401c0 13.807-11.193 25-25 25-13.807 0-25-11.193-25-25v-216.667z" fill="#8690a6"/><path id="XMLID_2741_" d="m406.078 98.615c-21.752 0-39.385-17.633-39.385-39.385v-9.846c0-21.752 17.633-39.385 39.385-39.385 21.751 0 39.385 17.633 39.385 39.385v9.846c0 21.752-17.633 39.385-39.385 39.385z" fill="#cc9e83"/></g><path id="XMLID_2895_" d="m114 333.037-52-77.037-52 77.037h24v168.963h56v-168.963z" fill="#91def5"/><path id="XMLID_2898_" d="m264.078 205.037-52-77.037-52 77.037h24v296.963h56v-296.963z" fill="#91def5"/><g id="XMLID_689_"><path id="XMLID_693_" d="m445.457 88.99c6.275-8.282 10.006-18.592 10.006-29.76v-9.846c0-27.23-22.154-49.384-49.385-49.384s-49.385 22.154-49.385 49.385v9.846c0 11.168 3.731 21.478 10.006 29.76-37.315 3.751-66.543 35.338-66.543 73.625v123.384c0 18.196 14.804 33 33 33 4.618 0 9.015-.957 13.01-2.677v160.677c0 19.299 15.701 35 35 35 9.786 0 18.642-4.042 25-10.539 6.358 6.497 15.214 10.539 25 10.539 19.299 0 35-15.701 35-35v-160.598c3.947 1.672 8.284 2.598 12.834 2.598 18.196 0 33-14.804 33-33v-123.385c0-38.287-29.228-69.873-66.543-73.625zm-68.764-39.605c0-16.203 13.182-29.385 29.385-29.385s29.385 13.182 29.385 29.385v9.846c0 16.203-13.182 29.385-29.385 29.385s-29.385-13.182-29.385-29.385zm54.473 442.615c-8.271 0-15-6.729-15-15v-158.4c0-5.522-4.477-10-10-10s-10 4.478-10 10v158.4c0 8.271-6.729 15-15 15s-15-6.729-15-15v-211h79.834l.166 211c0 8.271-6.729 15-15 15zm60.834-206c0 7.168-5.832 13-13 13-6.496 0-11.879-4.795-12.834-11.027v-102.973c0-5.522-4.477-10-10-10s-10 4.478-10 10l-.166 61h-79.834v-61c0-5.522-4.477-10-10-10s-10 4.478-10 10l-.01 101c0 7.168-5.832 13-13 13s-13-5.832-13-13v-123.385c0-29.775 24.224-54 54-54h63.844c29.776 0 54 24.225 54 54z"/><path id="XMLID_724_" d="m70.289 250.405c-1.86-2.754-4.966-4.405-8.289-4.405s-6.429 1.651-8.289 4.405l-52 77.037c-2.069 3.065-2.277 7.022-.542 10.288s5.132 5.307 8.83 5.307h14v158.963c0 5.522 4.477 10 10 10h56c5.523 0 10-4.478 10-10v-158.963h14c3.698 0 7.095-2.041 8.83-5.307 1.736-3.266 1.527-7.223-.542-10.288zm19.711 72.632c-5.523 0-10 4.478-10 10v158.963h-36v-158.963c0-5.522-4.477-10-10-10h-5.185l33.185-49.163 33.185 49.163z"/><path id="XMLID_725_" d="m220.367 122.405c-1.859-2.755-4.965-4.405-8.289-4.405s-6.429 1.65-8.289 4.405l-52 77.037c-2.069 3.065-2.277 7.022-.542 10.288s5.132 5.307 8.83 5.307h14v286.963c0 5.522 4.477 10 10 10h56c5.523 0 10-4.478 10-10v-103.48c0-5.522-4.477-10-10-10s-10 4.478-10 10v93.48h-36v-286.963c0-5.522-4.477-10-10-10h-5.185l33.185-49.163 33.185 49.163h-5.185c-5.523 0-10 4.478-10 10v103.483c0 5.522 4.477 10 10 10s10-4.478 10-10v-93.482h14c3.698 0 7.095-2.041 8.83-5.307 1.736-3.266 1.527-7.223-.542-10.288z"/><path id="XMLID_726_" d="m240.08 343.52c-2.63 0-5.21 1.07-7.07 2.931-1.86 1.859-2.93 4.43-2.93 7.069 0 2.63 1.07 5.21 2.93 7.07s4.44 2.93 7.07 2.93 5.21-1.069 7.07-2.93 2.93-4.44 2.93-7.07-1.07-5.21-2.93-7.069c-1.86-1.861-4.44-2.931-7.07-2.931z"/></g></g></svg>