<svg id="Layer_1" enable-background="new 0 0 512 512" height="512" viewBox="0 0 512 512" width="512" xmlns="http://www.w3.org/2000/svg"><g id="XMLID_2242_"><g id="XMLID_2255_"><ellipse id="XMLID_712_" cx="221.671" cy="158.896" fill="#d8ec84" rx="27.053" ry="46.849" transform="matrix(.707 -.707 .707 .707 -47.431 203.285)"/></g><g id="XMLID_2251_"><path id="XMLID_694_" d="m313.261 193.52c-19.567-4.827-39.6-.985-57.246 9.364-17.645-10.349-37.679-14.191-57.246-9.364-46.069 11.364-72.098 66.456-58.138 123.05s62.624 93.261 108.693 81.897c.023-.006.046-.011.068-.017 4.355-1.079 8.888-1.079 13.243 0 .023.006.046.011.068.017 46.069 11.364 94.733-25.302 108.693-81.897 13.963-56.595-12.066-111.686-58.135-123.05z" fill="#f6838d"/></g><g id="XMLID_2950_"><circle id="XMLID_690_" cx="256.015" cy="44.226" fill="#f6838d" r="34.226"/></g><g id="XMLID_2986_"><circle id="XMLID_686_" cx="57.793" cy="387.557" fill="#ffcb7c" r="34.226"/></g><g id="XMLID_2247_"><circle id="XMLID_674_" cx="454.237" cy="387.557" fill="#91def5" r="34.226"/></g><g id="XMLID_713_"><path id="XMLID_716_" d="m481.339 352.619c8.996-25.48 13.563-52.191 13.563-79.506 0-47.825-14.085-93.979-40.734-133.468-3.089-4.578-9.304-5.784-13.883-2.695-4.578 3.089-5.785 9.305-2.695 13.883 24.41 36.173 37.312 78.456 37.312 122.28 0 24.419-3.983 48.302-11.824 71.119-18.128-3.685-37.397 4.331-47.142 21.211-9.735 16.861-7.058 37.527 5.16 51.383-41.664 47.884-101.295 75.174-165.081 75.174s-123.416-27.29-165.081-75.173c12.218-13.856 14.894-34.522 5.16-51.383-9.746-16.881-29.016-24.895-47.144-21.21-7.841-22.816-11.822-46.696-11.822-71.12 0-104.361 75.438-195.111 176.952-214.866 5.878 17.532 22.449 30.205 41.935 30.205 19.484 0 36.053-12.67 41.933-30.199 28.202 5.45 54.679 16.268 78.813 32.26 1.7 1.126 3.618 1.665 5.515 1.665 3.241 0 6.421-1.573 8.345-4.478 3.051-4.604 1.792-10.809-2.813-13.859-26.898-17.824-56.464-29.767-87.982-35.591-2.928-21.57-21.452-38.251-43.811-38.251s-40.884 16.682-43.811 38.252c-52.838 9.812-101.096 37.394-136.611 78.284-37.701 43.407-58.464 99.014-58.464 156.577 0 27.317 4.57 54.02 13.564 79.496-7.618 5.883-13.085 14.044-15.618 23.501-3.058 11.41-1.489 23.329 4.418 33.56 8.183 14.173 23.078 22.104 38.375 22.104 5.616 0 11.287-1.07 16.699-3.293 45.52 53.178 111.174 83.519 181.448 83.519 70.272 0 135.927-30.342 181.448-83.519 5.412 2.223 11.082 3.293 16.7 3.293 15.295 0 30.193-7.934 38.375-22.104 11.175-19.355 5.999-43.727-11.199-57.051zm-225.324-332.619c13.358 0 24.226 10.868 24.226 24.227s-10.868 24.226-24.226 24.226-24.226-10.867-24.226-24.226 10.868-24.227 24.226-24.227zm-219.203 379.67c-3.235-5.604-4.095-12.133-2.42-18.384 1.675-6.25 5.684-11.475 11.288-14.71 3.806-2.197 7.965-3.241 12.072-3.241 8.379 0 16.54 4.346 21.021 12.108 3.235 5.604 4.095 12.133 2.42 18.384-1.675 6.25-5.684 11.475-11.288 14.71-11.568 6.681-26.413 2.701-33.093-8.867zm438.406 0c-6.679 11.568-21.525 15.544-33.094 8.867-5.604-3.235-9.613-8.46-11.288-14.71-1.675-6.251-.815-12.779 2.42-18.384 4.482-7.764 12.642-12.108 21.021-12.108 4.107 0 8.267 1.045 12.072 3.241 5.604 3.235 9.613 8.46 11.288 14.71 1.676 6.251.816 12.779-2.419 18.384z"/><path id="XMLID_721_" d="m138.148 233.812c-11.96 25.314-14.526 55.556-7.225 85.152 13.355 54.141 56.531 91.553 101.529 91.551 6.414 0 12.867-.76 19.274-2.341 2.806-.693 5.771-.693 8.584.002 6.41 1.581 12.854 2.34 19.27 2.34 44.991 0 88.173-37.415 101.527-91.552 15.259-61.856-14.103-122.486-65.452-135.153-16.127-3.978-33.224-2.798-49.454 3.215.788-15.831 10.273-30.282 24.626-37.222 4.972-2.404 7.054-8.384 4.65-13.356s-8.384-7.053-13.356-4.649c-8.763 4.237-16.278 10.398-22.143 17.82-3.048-6.187-7.107-11.92-12.107-16.921-16.121-16.121-39.842-22.479-61.906-16.589-3.458.923-6.16 3.625-7.083 7.084-5.788 21.688.262 44.971 15.779 61.069-24.477 6.597-44.502 24.128-56.513 49.55zm58.905-99.534c13.389-1.658 27.02 2.903 36.676 12.561 9.657 9.657 14.219 23.285 12.561 36.676-13.388 1.656-27.02-2.903-36.677-12.561-9.657-9.656-14.219-23.285-12.56-36.676zm4.111 68.951c16.429-4.054 33.647-1.189 49.792 8.281 3.124 1.832 6.994 1.832 10.118 0 16.145-9.471 33.364-12.333 49.792-8.281 40.642 10.025 63.441 59.796 50.824 110.946s-55.949 84.611-96.583 74.585c-2.975-.736-6.034-1.104-9.093-1.104-3.057 0-6.114.367-9.083 1.102-40.641 10.023-83.972-23.433-96.589-74.583-6.203-25.146-4.111-50.651 5.89-71.819 9.67-20.47 25.628-34.366 44.932-39.127z"/><path id="XMLID_723_" d="m417.175 120.59c2.63 0 5.21-1.07 7.07-2.93s2.93-4.44 2.93-7.07-1.07-5.21-2.93-7.07c-1.86-1.87-4.44-2.93-7.07-2.93s-5.21 1.06-7.07 2.93c-1.86 1.86-2.93 4.431-2.93 7.07 0 2.63 1.07 5.21 2.93 7.07s4.44 2.93 7.07 2.93z"/></g></g></svg>