<svg id="Layer_1" enable-background="new 0 0 511.897 511.897" height="512" viewBox="0 0 511.897 511.897" width="512" xmlns="http://www.w3.org/2000/svg"><g id="XMLID_1675_"><g id="XMLID_2500_"><path id="XMLID_1290_" d="m183.148 181.058c4.11 0 7.995.957 11.45 2.655v-68.655h-68.655c1.698-3.455 2.655-7.34 2.655-11.45 0-14.359-11.641-26-26-26s-26 11.641-26 26c0 4.11.957 7.995 2.655 11.45h-68.655v184h68.655c-1.698-3.455-2.655-7.34-2.655-11.45 0-14.359 11.641-26 26-26s26 11.641 26 26c0 4.11-.957 7.995-2.655 11.45h68.655v-68.655c-3.455 1.698-7.34 2.655-11.45 2.655-14.359 0-26-11.641-26-26s11.641-26 26-26z" fill="#f6838d"/><g id="XMLID_3287_"><path id="XMLID_3288_" d="m282.038 216.733c2.608 11.735 7.227 22.712 13.483 32.548l-13.747 13.747 31.562 31.562 13.743-13.743c9.837 6.259 20.815 10.881 32.552 13.491v19.428h44.635v-19.428c11.737-2.61 22.715-7.232 32.552-13.491l13.743 13.743 31.562-31.562-13.747-13.747c6.256-9.836 10.875-20.813 13.483-32.548h19.439v-44.635h-19.446c-2.611-11.731-7.232-22.704-13.488-32.537l13.758-13.758-31.562-31.562-13.76 13.761c-9.832-6.253-20.804-10.871-32.534-13.48v-19.457h-44.635v19.457c-11.73 2.609-22.702 7.227-32.534 13.48l-13.761-13.761-31.562 31.562 13.758 13.758c-6.256 9.833-10.877 20.806-13.488 32.537h-19.446v44.635zm52.092-22.303c0-26.41 21.409-47.819 47.819-47.819s47.819 21.409 47.819 47.819-21.409 47.819-47.819 47.819-47.819-21.409-47.819-47.819z" fill="#91def5"/></g><g id="XMLID_2319_"><path id="XMLID_2321_" d="m256.599 419.897c-45.287 0-82 36.713-82 82h164c-.001-45.287-36.713-82-82-82z" fill="#ffcb7c"/><path id="XMLID_2320_" d="m256.598 347.897c-17.673 0-32 14.327-32 32v8c0 17.673 14.327 32 32 32 17.673 0 32-14.327 32-32v-8c0-17.673-14.326-32-32-32z" fill="#ffbf9e"/></g></g><g id="XMLID_601_"><path id="XMLID_603_" d="m102.599 45.147c5.523 0 10-4.478 10-10v-25.147c0-5.522-4.477-10-10-10s-10 4.478-10 10v25.147c0 5.523 4.477 10 10 10z"/><path id="XMLID_746_" d="m24.544 64.997c1.953 1.952 4.512 2.929 7.071 2.929s5.119-.977 7.071-2.929c3.905-3.905 3.905-10.237 0-14.143l-21.016-21.016c-3.905-3.904-10.237-3.904-14.143 0-3.905 3.905-3.905 10.237 0 14.143z"/><path id="XMLID_943_" d="m173.582 67.926c2.559 0 5.119-.977 7.071-2.929l21.017-21.017c3.905-3.905 3.905-10.237 0-14.143-3.905-3.904-10.237-3.904-14.143 0l-21.017 21.017c-3.905 3.905-3.905 10.237 0 14.143 1.953 1.952 4.513 2.929 7.072 2.929z"/><path id="XMLID_946_" d="m501.299 162.099h-11.725c-2.174-7.257-5.076-14.256-8.676-20.929l8.296-8.296c1.875-1.876 2.929-4.419 2.929-7.071s-1.054-5.195-2.929-7.071l-31.562-31.562c-1.875-1.875-4.419-2.929-7.071-2.929s-5.196 1.054-7.071 2.929l-8.3 8.301c-6.672-3.599-13.669-6.498-20.924-8.671v-11.735c0-5.522-4.477-10-10-10h-44.635c-5.523 0-10 4.478-10 10v11.735c-7.255 2.173-14.251 5.072-20.924 8.671l-8.3-8.301c-1.875-1.875-4.419-2.929-7.071-2.929s-5.196 1.054-7.071 2.929l-31.562 31.562c-1.875 1.876-2.929 4.419-2.929 7.071s1.054 5.195 2.929 7.071l8.297 8.296c-3.601 6.673-6.502 13.672-8.676 20.929h-11.725c-5.523 0-10 4.478-10 10v44.635c0 5.522 4.477 10 10 10h11.716c2.173 7.261 5.074 14.262 8.675 20.938l-8.286 8.286c-3.905 3.905-3.905 10.237 0 14.143l31.562 31.562c3.905 3.904 10.237 3.904 14.142 0l8.281-8.281c6.678 3.603 13.68 6.506 20.942 8.68v11.706c0 5.522 4.477 10 10 10h12.317v98.805h-68.805c-4.724-2.782-9.713-5.16-14.926-7.074 6.456-7.387 10.381-17.04 10.381-27.599v-8c0-23.159-18.841-42-42-42s-42 18.841-42 42v8c0 10.558 3.925 20.212 10.381 27.599-5.213 1.914-10.202 4.292-14.926 7.074h-97.455v-87.094c0-5.522-4.477-10-10-10s-10 4.478-10 10v97.094c0 5.522 4.477 10 10 10h83.745c-13.557 16.03-21.745 36.739-21.745 59.327 0 5.522 4.477 10 10 10h164c5.523 0 10-4.478 10-10 0-22.589-8.188-43.298-21.746-59.327h55.096c5.523 0 10-4.478 10-10v-108.807h12.317c5.523 0 10-4.478 10-10v-11.706c7.262-2.174 14.265-5.077 20.942-8.68l8.281 8.281c3.906 3.906 10.238 3.905 14.142 0l31.562-31.562c3.905-3.905 3.906-10.237 0-14.143l-8.286-8.286c3.601-6.676 6.501-13.677 8.675-20.938h11.716c5.523 0 10-4.478 10-10v-44.635c.002-5.521-4.475-9.998-9.998-9.998zm-266.7 217.798c0-12.131 9.869-22 22-22s22 9.869 22 22v8c0 12.131-9.869 22-22 22s-22-9.869-22-22zm-49.308 112c4.882-34.985 35-62 71.308-62s66.426 27.015 71.308 62zm306.008-285.164h-9.439c-4.687 0-8.745 3.255-9.762 7.83-2.32 10.438-6.411 20.313-12.16 29.351-2.515 3.954-1.947 9.125 1.367 12.438l6.676 6.676-17.42 17.419-6.672-6.672c-3.314-3.314-8.485-3.881-12.439-1.366-9.04 5.752-18.916 9.846-29.354 12.167-4.575 1.018-7.829 5.075-7.829 9.762v9.428h-24.635v-9.428c0-4.687-3.254-8.744-7.829-9.762-10.438-2.321-20.314-6.415-29.354-12.167-3.955-2.515-9.126-1.948-12.439 1.366l-6.672 6.672-17.42-17.419 6.676-6.676c3.313-3.313 3.881-8.484 1.367-12.438-5.749-9.038-9.84-18.913-12.16-29.351-1.017-4.575-5.075-7.83-9.762-7.83h-9.439v-24.635h9.445c4.686 0 8.743-3.254 9.761-7.827 2.323-10.436 6.415-20.308 12.164-29.343 2.516-3.954 1.948-9.125-1.366-12.439l-6.687-6.687 17.419-17.419 6.69 6.69c3.314 3.314 8.484 3.883 12.438 1.366 9.036-5.746 18.906-9.837 29.338-12.156 4.575-1.018 7.829-5.075 7.829-9.762v-9.457h24.635v9.457c0 4.687 3.254 8.744 7.829 9.762 10.432 2.319 20.303 6.41 29.338 12.156 3.954 2.516 9.125 1.945 12.438-1.366l6.69-6.69 17.419 17.419-6.687 6.687c-3.314 3.314-3.882 8.485-1.366 12.439 5.749 9.035 9.841 18.907 12.164 29.343 1.018 4.573 5.076 7.827 9.761 7.827h9.445v24.635z"/><path id="XMLID_951_" d="m381.949 136.611c-31.882 0-57.819 25.938-57.819 57.819s25.938 57.818 57.819 57.818 57.819-25.938 57.819-57.818c0-31.881-25.937-57.819-57.819-57.819zm0 95.638c-20.854 0-37.819-16.965-37.819-37.818s16.966-37.819 37.819-37.819 37.819 16.966 37.819 37.819-16.966 37.818-37.819 37.818z"/><path id="XMLID_952_" d="m102.599 271.607c8.822 0 16 7.178 16 16 0 2.471-.548 4.839-1.63 7.039-1.523 3.1-1.34 6.766.486 9.697s5.035 4.714 8.489 4.714h68.655c5.523 0 10-4.478 10-10v-68.655c0-3.453-1.782-6.663-4.713-8.488-2.931-1.826-6.598-2.01-9.697-.486-2.201 1.081-4.569 1.63-7.04 1.63-8.822 0-16-7.178-16-16s7.178-16 16-16c2.47 0 4.839.549 7.04 1.63 3.099 1.522 6.764 1.338 9.697-.486 2.931-1.825 4.713-5.035 4.713-8.488v-68.655c0-5.522-4.477-10-10-10h-56.029c.019-.481.028-.965.028-1.45 0-19.851-16.149-36-36-36s-36 16.149-36 36c0 .485.009.969.028 1.45h-56.027c-5.523 0-10 4.478-10 10v47c0 5.522 4.477 10 10 10s10-4.478 10-10v-37h58.655c3.454 0 6.663-1.782 8.489-4.714s2.009-6.598.486-9.697c-1.082-2.2-1.63-4.568-1.63-7.039 0-8.822 7.178-16 16-16s16 7.178 16 16c0 2.471-.548 4.839-1.63 7.039-1.523 3.1-1.34 6.766.486 9.697s5.035 4.714 8.489 4.714h58.655v46.028c-.482-.019-.965-.028-1.45-.028-19.851 0-36 16.149-36 36s16.149 36 36 36c.485 0 .968-.01 1.45-.028v46.028h-46.029c.019-.481.028-.965.028-1.45 0-19.851-16.149-36-36-36s-36 16.149-36 36c0 .485.009.969.028 1.45h-46.027v-37c0-5.522-4.477-10-10-10s-10 4.478-10 10v47c0 5.522 4.477 10 10 10h68.655c3.454 0 6.663-1.782 8.489-4.714s2.009-6.598.486-9.697c-1.082-2.2-1.63-4.568-1.63-7.039 0-8.824 7.177-16.002 16-16.002z"/><path id="XMLID_953_" d="m10.599 217.058c2.63 0 5.21-1.07 7.07-2.931 1.86-1.859 2.93-4.439 2.93-7.069s-1.07-5.21-2.93-7.07-4.44-2.93-7.07-2.93-5.21 1.069-7.07 2.93c-1.86 1.86-2.93 4.44-2.93 7.07s1.07 5.21 2.93 7.069c1.86 1.86 4.44 2.931 7.07 2.931z"/></g></g></svg>