<svg id="Layer_1" enable-background="new 0 0 511.899 511.899" height="512" viewBox="0 0 511.899 511.899" width="512" xmlns="http://www.w3.org/2000/svg"><g id="XMLID_1401_"><g id="XMLID_1369_"><path id="XMLID_1409_" d="m60.009 229.392c.491 33.349 8.835 70.377 24.383 101.656 16.91 34.018 21.721 72.778 12.816 109.709l-14.743 61.141h191.976l10.253-58.741h61.287c28.894 0 52.317-23.423 52.317-52.316v-51.341h53.591l-33.818-110.107h-358.062z" fill="#ffcbbe"/><g id="XMLID_1371_"><path id="XMLID_1392_" d="m351.241 174.297c0-54.813-44.442-99.246-99.259-99.231-54.874.015-99.21 44.368-99.204 99.242.004 34.725 17.847 65.279 44.861 83.006 8.256 5.418 13.961 13.95 15.762 23.66h77.215l.001-.006c1.787-9.629 7.369-18.174 15.57-23.528 27.126-17.712 45.054-48.332 45.054-83.143z" fill="#d8ec84"/><path id="XMLID_1391_" d="m270.976 346.968h-37.934c-7.67-7.67-11.97-11.97-19.641-19.641v-46.355h77.215v46.355c-7.669 7.671-11.969 11.971-19.64 19.641z" fill="#91def5"/><path id="XMLID_1387_" d="m252.047 206.643-23.468 17.129c-5.997 4.377-14.085-1.499-11.776-8.555l9.039-27.613-23.615-17.078c-6.009-4.346-2.935-13.843 4.481-13.843h29.143l8.92-27.593c2.282-7.06 12.27-7.06 14.552 0l8.92 27.593h29.143c7.416 0 10.491 9.497 4.481 13.843l-23.615 17.078 9.039 27.613c2.31 7.056-5.778 12.933-11.776 8.555z" fill="#ffcb7c"/></g></g><g id="XMLID_414_"><path id="XMLID_415_" d="m96.903 363.869c-5.426 1.03-8.989 6.264-7.959 11.689 4.004 21.092 3.515 42.238-1.456 62.854l-14.743 61.142c-1.294 5.368 2.009 10.771 7.378 12.065.787.189 1.576.28 2.352.28 4.514 0 8.609-3.076 9.714-7.658l14.743-61.142c5.64-23.393 6.199-47.372 1.661-71.271-1.03-5.425-6.261-8.993-11.69-7.959z"/><path id="XMLID_609_" d="m461.45 336.562-33.818-110.106c-1.29-4.198-5.168-7.063-9.56-7.063h-66.543c6.311-13.937 9.712-29.255 9.712-45.095 0-29.182-11.365-56.616-32.003-77.248-20.632-20.626-48.056-31.983-77.229-31.983-.009 0-.021 0-.03 0-60.219.016-109.206 49.022-109.201 109.243.002 15.83 3.404 31.146 9.717 45.083h-92.486c-2.678 0-5.243 1.074-7.123 2.981-1.879 1.907-2.915 4.488-2.876 7.166.297 20.148 3.374 41.587 8.899 61.996 1.206 4.456 5.24 7.39 9.646 7.39.864-.001 1.744-.113 2.619-.351 5.331-1.443 8.482-6.935 7.039-12.266-4.174-15.42-6.833-31.451-7.809-46.917h93.867c7.557 10.169 16.933 19.098 27.88 26.281 5.736 3.764 9.797 9.685 11.249 16.333v45.323c0 2.652 1.054 5.195 2.929 7.071l19.641 19.64c1.875 1.876 4.419 2.93 7.071 2.93h37.935c2.652 0 5.196-1.054 7.071-2.93l19.64-19.64c1.875-1.876 2.929-4.419 2.929-7.071v-45.321c1.448-6.665 5.433-12.536 11.038-16.196 11.041-7.208 20.489-16.186 28.095-26.42h70.932l27.676 90.106h-40.059c-5.522 0-10 4.478-10 10v51.342c0 23.333-18.983 42.316-42.316 42.316h-61.287c-4.859 0-9.016 3.493-9.851 8.28l-10.254 58.741c-.95 5.44 2.69 10.621 8.131 11.57.582.102 1.16.151 1.731.151 4.769 0 8.991-3.424 9.839-8.282l8.809-50.461h52.882c34.361 0 62.316-27.955 62.316-62.316v-41.342h43.591c3.173 0 6.157-1.506 8.042-4.057 1.887-2.55 2.45-5.845 1.519-8.878zm-180.833-13.375-13.782 13.782h-29.649l-13.783-13.783v-32.213h57.215v32.214zm20.104-74.122c-8.021 5.235-14.181 12.97-17.623 21.907h-62.188c-3.463-8.93-9.679-16.702-17.784-22.021-25.261-16.576-40.345-44.481-40.348-74.646-.004-49.194 40.014-89.229 89.207-89.241h.024c23.83 0 46.235 9.278 63.088 26.127 16.859 16.854 26.144 39.266 26.144 63.104 0 30.254-15.148 58.205-40.52 74.77z"/><path id="XMLID_624_" d="m297.385 146.683h-21.865l-6.682-20.669c-2.362-7.309-9.109-12.219-16.79-12.22h-.001c-7.681 0-14.429 4.91-16.792 12.219l-6.682 20.67h-21.865c-7.678 0-14.425 4.907-16.789 12.212s.227 15.234 6.447 19.734l17.701 12.801-6.769 20.676c-2.391 7.305.181 15.249 6.398 19.767 6.219 4.517 14.567 4.509 20.776-.022l17.573-12.826 17.572 12.826c3.11 2.27 6.756 3.405 10.403 3.405 3.635-.001 7.271-1.128 10.374-3.384 6.219-4.519 8.789-12.462 6.397-19.765l-6.768-20.677 17.699-12.801c6.222-4.499 8.813-12.429 6.449-19.733-2.361-7.305-9.108-12.213-16.786-12.213zm-24.993 32.818c-3.523 2.548-4.996 7.081-3.644 11.213l6.769 20.68-17.574-12.828c-3.512-2.564-8.279-2.565-11.791 0l-17.575 12.828 6.77-20.679c1.353-4.133-.12-8.666-3.644-11.215l-17.725-12.817h21.873c4.338 0 8.181-2.797 9.516-6.924l6.681-20.667 6.68 20.667c1.335 4.127 5.178 6.924 9.516 6.924h21.873z"/><path id="XMLID_625_" d="m252.009 43.897c5.522 0 10-4.478 10-10v-23.897c0-5.522-4.478-10-10-10s-10 4.478-10 10v23.897c0 5.523 4.478 10 10 10z"/><path id="XMLID_626_" d="m111.295 107.302c1.953 1.952 4.512 2.929 7.071 2.929s5.118-.977 7.071-2.929c3.905-3.905 3.905-10.237 0-14.143l-39.567-39.568c-3.906-3.904-10.236-3.904-14.143 0-3.905 3.905-3.905 10.237 0 14.143z"/><path id="XMLID_627_" d="m385.652 110.23c2.56 0 5.118-.977 7.071-2.929l39.568-39.568c3.905-3.905 3.905-10.237 0-14.143-3.906-3.904-10.236-3.904-14.143 0l-39.568 39.569c-3.905 3.905-3.905 10.237 0 14.143 1.954 1.952 4.512 2.928 7.072 2.928z"/><path id="XMLID_628_" d="m91.459 338.117c1.87-1.86 2.93-4.439 2.93-7.07 0-2.63-1.06-5.21-2.93-7.069-1.86-1.86-4.44-2.931-7.07-2.931s-5.21 1.07-7.069 2.931c-1.86 1.859-2.931 4.439-2.931 7.069 0 2.631 1.07 5.21 2.931 7.07 1.859 1.86 4.439 2.93 7.069 2.93 2.641 0 5.21-1.069 7.07-2.93z"/></g></g></svg>