<svg id="Layer_1" enable-background="new 0 0 512.001 512.001" height="512" viewBox="0 0 512.001 512.001" width="512" xmlns="http://www.w3.org/2000/svg"><g id="XMLID_2057_"><g id="XMLID_1200_"><circle id="XMLID_2195_" cx="256" cy="162" fill="#cff1fb" r="152"/><g fill="#d8ec84"><path id="XMLID_1230_" d="m171.446 143.965h-66.376c-.7 5.916-1.07 11.932-1.07 18.035 0 28.347 7.769 54.875 21.279 77.589h46.166c26.406 0 47.813-21.406 47.813-47.812s-21.406-47.812-47.812-47.812z"/><path id="XMLID_1207_" d="m122.446 89.369h60.565c17.24 0 31.216-13.976 31.216-31.216 0-16.253-12.425-29.591-28.292-31.067-26.856 13.977-49.018 35.73-63.489 62.283z"/><path id="XMLID_2194_" d="m408 162c0-30.5-8.99-58.897-24.455-82.699h-105.498c-20.308 0-36.772 16.463-36.772 36.772 0 20.308 16.463 36.772 36.772 36.772h34.891c14.407 0 26.087 11.68 26.087 26.087 0 14.408-11.68 26.087-26.087 26.087h-6.256c-17.664 0-31.983 14.319-31.983 31.983 0 17.664 14.319 31.983 31.983 31.983h57.282c27.22-27.467 44.036-65.26 44.036-106.985z"/></g><g id="XMLID_2188_" fill="#ffbf9e"><path id="XMLID_2215_" d="m131.667 339.757-73.76-61.644-.044-.613v-111.833c0-13.213-10.712-23.925-23.925-23.925h-.011c-13.214 0-23.926 10.712-23.925 23.926l.011 195.717c.001 23.583 6.526 46.705 18.854 66.809l45.253 73.806h114.888v-39.593c0-47.359-21.001-92.28-57.341-122.65z"/><path id="XMLID_2202_" d="m380.334 339.757 73.76-61.644.044-.613v-111.833c0-13.213 10.712-23.925 23.925-23.925h.011c13.214 0 23.926 10.712 23.925 23.926l-.011 195.717c-.001 23.583-6.526 46.705-18.854 66.809l-45.253 73.806h-114.888v-39.593c0-47.359 21.001-92.28 57.341-122.65z"/></g></g><g id="XMLID_221_"><path id="XMLID_374_" d="m385.588 259.231c21.204-28.217 32.412-61.84 32.412-97.231 0-89.327-72.672-162-162-162s-162 72.673-162 162c0 35.391 11.208 69.013 32.412 97.23 20.502 27.283 49.675 47.778 82.146 57.709 5.276 1.618 10.873-1.355 12.487-6.638 1.615-5.281-1.356-10.872-6.638-12.487-28.755-8.794-52.987-25.893-70.44-48.225h27.478c31.878 0 57.813-25.935 57.813-57.813s-25.935-57.813-57.813-57.813h-54.66c2.445-12.163 6.452-23.765 11.798-34.596h54.428c22.727 0 41.216-18.489 41.216-41.216 0-12.04-5.329-23.049-13.796-30.654 14.31-4.861 29.637-7.5 45.57-7.5 42.903 0 81.422 19.127 107.481 49.301h-85.435c-25.79 0-46.771 20.981-46.771 46.771s20.981 46.771 46.771 46.771h34.891c8.87 0 16.087 7.217 16.087 16.088 0 8.87-7.217 16.087-16.087 16.087h-6.256c-23.149 0-41.983 18.834-41.983 41.983s18.834 41.983 41.983 41.983h30.065c-11.759 8.067-24.901 14.47-39.156 18.83-5.281 1.615-8.253 7.206-6.638 12.487 1.317 4.307 5.277 7.078 9.559 7.078.969 0 1.954-.143 2.929-.44 32.472-9.926 61.645-30.421 82.147-57.705zm-214.142-105.266c20.85 0 37.813 16.963 37.813 37.813s-16.963 37.813-37.813 37.813h-40.537c-10.871-20.217-16.909-43.283-16.909-67.591 0-2.697.083-5.375.232-8.035zm32.781-95.812c0 11.698-9.518 21.216-21.216 21.216h-42.425c12.371-17.229 28.497-31.586 47.174-41.864 9.434 2.181 16.467 10.725 16.467 20.648zm80.472 178.849c0-12.122 9.861-21.983 21.983-21.983h6.256c19.898 0 36.087-16.188 36.087-36.087s-16.188-36.088-36.087-36.088h-34.891c-14.762 0-26.771-12.01-26.771-26.771s12.01-26.771 26.771-26.771h99.885c12.736 21.278 20.068 46.146 20.068 72.698 0 37.141-14.087 71.387-37.998 96.985h-53.321c-12.121 0-21.982-9.861-21.982-21.983z"/><path id="XMLID_403_" d="m138.081 332.084-70.218-58.682v-107.735c0-18.706-15.219-33.925-33.938-33.925-9.063 0-17.581 3.529-23.989 9.937-6.407 6.408-9.936 14.927-9.936 23.99l.011 195.717c.001 25.438 7.03 50.348 20.328 72.036l45.256 73.806c1.888 3.077 5.172 4.773 8.535 4.773 1.782 0 3.587-.476 5.218-1.476 4.708-2.888 6.185-9.045 3.298-13.753l-45.256-73.805c-11.368-18.54-17.378-39.835-17.379-61.582l-.002-37.589 70.087 86.41c3.48 4.29 9.776 4.946 14.066 1.467 4.289-3.479 4.945-9.776 1.467-14.066l-74.458-91.799c-2.852-3.515-3.867-8.052-2.788-12.446 1.08-4.396 4.083-7.945 8.239-9.738 4.996-2.155 10.693-1.328 14.868 2.161l73.764 61.646c34.161 28.55 53.754 70.457 53.754 114.978v39.591c0 5.522 4.478 10 10 10s10-4.478 10-10v-39.593c0-50.463-22.207-97.964-60.927-130.323zm-109.384-66.824c-3.205 1.384-6.119 3.208-8.69 5.391l-.007-104.984c0-3.719 1.448-7.216 4.078-9.846 2.63-2.631 6.127-4.079 9.858-4.079 7.679 0 13.926 6.247 13.926 13.925v97.221c-6.347-1.043-12.979-.299-19.165 2.372z"/><path id="XMLID_406_" d="m502.065 141.679c-6.408-6.407-14.927-9.937-24.001-9.937-18.707 0-33.926 15.219-33.926 33.925v107.735l-70.218 58.682c-38.721 32.359-60.928 79.86-60.928 130.323v39.593c0 5.522 4.478 10 10 10s10-4.478 10-10v-39.593c0-44.521 19.593-86.428 53.754-114.978l73.764-61.646c4.175-3.49 9.875-4.317 14.868-2.161 4.156 1.793 7.159 5.343 8.239 9.738 1.079 4.395.063 8.932-2.788 12.446l-74.458 91.799c-3.479 4.29-2.822 10.587 1.467 14.066 4.291 3.479 10.587 2.822 14.066-1.467l70.087-86.41-.002 37.59c-.001 21.746-6.011 43.041-17.379 61.581l-45.256 73.806c-2.887 4.708-1.41 10.865 3.298 13.753 1.631 1 3.436 1.477 5.218 1.476 3.363 0 6.647-1.696 8.535-4.773l45.256-73.806c13.298-21.688 20.327-46.598 20.328-72.035l.011-195.717c.001-9.063-3.528-17.582-9.935-23.99zm-18.761 123.581c-6.187-2.67-12.818-3.415-19.166-2.372v-97.221c0-7.678 6.247-13.925 13.938-13.925 3.72 0 7.217 1.448 9.847 4.079 2.63 2.63 4.078 6.127 4.078 9.846l-.006 104.984c-2.572-2.183-5.485-4.008-8.691-5.391z"/><path id="XMLID_407_" d="m256 304c-2.63 0-5.21 1.069-7.07 2.93s-2.93 4.44-2.93 7.07 1.069 5.21 2.93 7.069c1.86 1.86 4.44 2.931 7.07 2.931s5.21-1.07 7.069-2.931c1.861-1.859 2.931-4.439 2.931-7.069s-1.07-5.21-2.931-7.07c-1.859-1.861-4.439-2.93-7.069-2.93z"/></g></g></svg>