<svg id="Layer_1" enable-background="new 0 0 512 512" height="512" viewBox="0 0 512 512" width="512" xmlns="http://www.w3.org/2000/svg"><g id="XMLID_1180_"><g id="XMLID_2252_"><path id="XMLID_2272_" d="m187.645 352.652h136.71v47.815h-136.71z" fill="#cff1fb"/><path id="XMLID_2271_" d="m192.682 352.652c-50.923-23.841-86.203-75.536-86.203-135.479 0-82.525 66.856-149.434 149.36-149.521 82.711-.087 149.683 66.813 149.681 149.524-.001 59.942-35.281 111.636-86.203 135.476" fill="#ffcb7c"/><g id="XMLID_2269_"><path id="XMLID_2270_" d="m208 454c0 26.51 21.49 48 48 48s48-21.49 48-48z" fill="#f6838d"/></g><path id="XMLID_2115_" d="m187.645 400.837h136.71v47.815h-136.71z" fill="#cff1fb"/><path id="XMLID_1980_" d="m266.864 308.296v-34.647h23.143c10.911 0 19.756-8.845 19.756-19.756v-19.388h20.237l-12.77-41.579c0-36.974-29.674-67.016-66.506-67.611-37.452-.604-68.088 28.985-68.724 66.435v91.615z" fill="#ffcbbe"/><circle id="XMLID_1804_" cx="427.015" cy="46" fill="#91def5" r="36"/><circle id="XMLID_928_" cx="427.015" cy="388.351" fill="#d8ec84" r="36"/><circle id="XMLID_1025_" cx="84.985" cy="46" fill="#f6838d" r="36"/><circle id="XMLID_1015_" cx="84.985" cy="388.351" fill="#ffcb7c" r="36"/></g><g id="XMLID_887_"><path id="XMLID_1013_" d="m276.864 308.295v-24.647h13.144c16.407 0 29.756-13.349 29.756-29.756v-9.388h10.236c3.173 0 6.157-1.505 8.043-4.057 1.885-2.552 2.448-5.847 1.517-8.879l-12.345-40.193c-.389-19.934-8.273-38.671-22.301-52.915-14.375-14.595-33.562-22.815-54.028-23.145-20.771-.357-40.415 7.39-55.278 21.754-14.869 14.37-23.252 33.728-23.605 54.509-.003.059-.003.115-.003.172v91.615c0 4.438 2.924 8.344 7.182 9.595l84.864 24.93c.926.272 1.875.405 2.818.405 2.136 0 4.243-.684 5.993-1.994 2.521-1.888 4.007-4.855 4.007-8.006zm-10-44.647c-5.523 0-10 4.477-10 10v21.287l-64.864-19.055v-84.042c.577-31.372 26.318-56.531 57.618-56.531.315 0 .628.002.944.007 31.247.505 56.667 26.35 56.667 57.613 0 .995.148 1.985.441 2.936l8.797 28.642h-6.704c-2.652 0-5.196 1.054-7.071 2.929s-2.929 4.419-2.929 7.071v19.388c0 5.379-4.376 9.756-9.756 9.756h-23.143z"/><path id="XMLID_1018_" d="m38.985 388.351c0 25.364 20.636 46 46 46s46-20.636 46-46c0-9.069-2.649-17.526-7.198-24.659l26.8-26.8c8.307 7.318 17.369 13.767 27.059 19.236v92.523c0 5.523 4.477 10 10 10h10.558c2.379 29.813 27.382 53.349 57.796 53.349s55.417-23.536 57.797-53.348h10.558c5.523 0 10-4.477 10-10v-92.523c9.69-5.469 18.752-11.918 27.059-19.236l26.8 26.8c-4.549 7.133-7.198 15.59-7.198 24.659 0 25.364 20.636 46 46 46s46-20.636 46-46-20.636-46-46-46c-9.069 0-17.526 2.649-24.659 7.198l-26.795-26.795c5.211-5.901 10.016-12.192 14.342-18.858 16.759-25.821 25.617-55.808 25.618-86.721 0-34.774-10.969-67.813-31.723-95.544-2.596-3.469-5.338-6.825-8.208-10.064l26.766-26.766c7.133 4.549 15.59 7.198 24.659 7.198 25.364 0 46-20.636 46-46s-20.636-46-46-46-46 20.636-46 46c0 9.069 2.649 17.526 7.198 24.659l-26.801 26.801c-16.843-14.798-36.74-26.073-58.108-32.688-5.278-1.635-10.877 1.319-12.51 6.595s1.319 10.877 6.595 12.51c58.696 18.173 98.132 71.741 98.131 133.298-.001 53.204-30.758 102.206-78.521 125.477h-122c-47.764-23.272-78.521-72.274-78.521-125.479 0-61.379 39.324-114.906 97.854-133.195 5.271-1.647 8.209-7.256 6.563-12.527-1.648-5.271-7.259-8.207-12.527-6.563-21.229 6.633-41 17.874-57.755 32.597l-26.825-26.826c4.549-7.133 7.198-15.59 7.198-24.659 0-25.364-20.636-46-46-46s-46 20.636-46 46 20.636 46 46 46c9.069 0 17.526-2.649 24.659-7.198l26.792 26.792c-2.912 3.286-5.692 6.69-8.322 10.211-20.696 27.711-31.635 60.688-31.635 95.368 0 30.913 8.858 60.901 25.617 86.722 4.327 6.666 9.132 12.958 14.343 18.859l-26.795 26.795c-7.133-4.549-15.59-7.198-24.659-7.198-25.366 0-46.002 20.636-46.002 46zm72-342.351c0 14.336-11.664 26-26 26s-26-11.664-26-26 11.664-26 26-26 26 11.664 26 26zm316.03 26c-14.336 0-26-11.664-26-26s11.664-26 26-26 26 11.664 26 26-11.663 26-26 26zm-112.66 290.652v27.814h-116.71v-27.814zm86.66 25.699c0-14.336 11.664-26 26-26s26 11.664 26 26-11.664 26-26 26-26-11.663-26-26zm-182.72 70.301h75.41c-2.302 18.765-18.328 33.348-37.705 33.348s-35.403-14.583-37.705-33.348zm-20.65-47.815h116.71v27.815h-116.71zm-138.66-22.486c0-14.336 11.664-26 26-26s26 11.664 26 26-11.664 26-26 26-26-11.663-26-26z"/><path id="XMLID_1604_" d="m255.84 77.65c-2.63 0-5.21-1.07-7.07-2.93s-2.93-4.44-2.93-7.07 1.07-5.21 2.93-7.07 4.44-2.93 7.07-2.93 5.21 1.07 7.07 2.93 2.93 4.44 2.93 7.07-1.07 5.21-2.93 7.07c-1.86 1.87-4.44 2.93-7.07 2.93z"/></g></g></svg>