<svg id="Layer_1" enable-background="new 0 0 512 512" height="512" viewBox="0 0 512 512" width="512" xmlns="http://www.w3.org/2000/svg"><g id="XMLID_1403_"><g id="XMLID_1309_"><g id="XMLID_3595_"><path id="XMLID_3598_" d="m147.006 189.225v-38.369h17.635c2.214-9.84 6.093-19.049 11.327-27.317l-12.478-12.478 27.13-27.131 12.481 12.481c8.267-5.231 17.475-9.108 27.314-11.32v-17.644h38.369v17.645c9.839 2.212 19.047 6.089 27.314 11.32l12.482-12.482 27.131 27.131-12.478 12.478c5.234 8.268 9.113 17.477 11.327 27.317h17.635v38.369h-17.63c-2.212 9.843-6.09 19.056-11.323 27.326l12.469 12.469-27.131 27.131-12.466-12.466c-8.271 5.236-17.484 9.116-27.329 11.329v17.621h-38.369v-17.621c-9.845-2.214-19.058-6.094-27.329-11.329l-12.466 12.466-27.131-27.131 12.469-12.469c-5.233-8.271-9.111-17.483-11.323-27.326z" fill="#91def5"/><path id="XMLID_3596_" d="m212.666 170.053c0-20.398 16.536-36.934 36.934-36.934s36.934 16.536 36.934 36.934-16.536 36.934-36.934 36.934-36.934-16.536-36.934-36.934z" fill="#fff"/></g><circle id="XMLID_3594_" cx="118.273" cy="38.726" fill="#f6838d" r="28.726"/><circle id="XMLID_3593_" cx="380.927" cy="38.726" fill="#ffcb7c" r="28.726"/><circle id="XMLID_3592_" cx="118.273" cy="301.38" fill="#d8ec84" r="28.726"/><circle id="XMLID_3591_" cx="380.927" cy="301.38" fill="#b0e7f8" r="28.726"/><g id="XMLID_3589_"><path id="XMLID_3590_" d="m28.392 377.633 35.781-27.38c17.076-13.067 37.979-20.147 59.481-20.147 26.271 0 51.439 10.561 69.844 29.307l17.887 18.219s52.037 0 83.387.001c16.487 0 29.847 13.366 29.847 29.853 0 16.487-13.365 29.852-29.852 29.852l-131.326.002h71.198 65.149c27.79 0 54.441-11.041 74.088-30.694l58.626-58.643c11.651-11.655 30.531-11.7 42.239-.102 11.784 11.674 11.828 30.704.099 42.433l-65.518 65.518c-29.546 29.549-69.621 46.148-111.406 46.148h-269.524" fill="#f2bb88"/></g></g><g id="XMLID_161_"><path id="XMLID_162_" d="m368.721 473.902c-21.65 11.84-46.133 18.098-70.806 18.098h-269.523c-5.522 0-10 4.478-10 10s4.478 10 10 10h269.523c28.017 0 55.819-7.106 80.401-20.551 4.846-2.649 6.626-8.727 3.976-13.571-2.65-4.846-8.726-6.626-13.571-3.976z"/><path id="XMLID_588_" d="m481.779 340.799c-15.572-15.43-40.85-15.37-56.349.135l-58.626 58.643c-10.017 10.02-21.883 17.521-34.827 22.184 1.706-4.433 2.642-9.246 2.642-14.272 0-21.976-17.875-39.854-39.847-39.854l-79.191-.001-14.947-15.225c-13.884-14.142-31.52-24.128-50.554-28.973 4.357-6.264 6.92-13.864 6.92-22.055 0-7.054-1.905-13.667-5.214-19.37l25.275-25.275 6.488 6.488c3.906 3.904 10.237 3.905 14.142 0l7.052-7.051c5.03 2.627 10.268 4.798 15.674 6.498v9.966c0 5.522 4.478 10 10 10h38.368c5.522 0 10-4.478 10-10v-9.966c5.406-1.7 10.644-3.871 15.674-6.498l7.052 7.051c3.904 3.904 10.235 3.904 14.142 0l6.488-6.488 25.275 25.275c-3.309 5.702-5.214 12.316-5.214 19.37 0 21.354 17.373 38.727 38.727 38.727s38.727-17.373 38.727-38.727-17.373-38.726-38.727-38.726c-7.054 0-13.667 1.905-19.37 5.214l-25.275-25.276 6.5-6.5c1.875-1.876 2.929-4.419 2.929-7.071s-1.054-5.196-2.93-7.071l-7.055-7.055c2.625-5.028 4.795-10.265 6.494-15.669h9.974c5.522 0 10-4.478 10-10v-38.369c0-5.522-4.478-10-10-10h-9.981c-1.699-5.401-3.869-10.635-6.494-15.661l7.063-7.063c3.905-3.905 3.905-10.237 0-14.143l-6.488-6.488 25.263-25.263c5.703 3.309 12.316 5.214 19.37 5.214 21.354 0 38.727-17.373 38.727-38.727s-17.376-38.727-38.729-38.727-38.727 17.373-38.727 38.727c0 7.054 1.905 13.667 5.214 19.37l-25.263 25.263-6.5-6.5c-3.906-3.904-10.236-3.904-14.143 0l-7.066 7.067c-5.025-2.623-10.258-4.792-15.658-6.491v-9.989c0-5.522-4.478-10-10-10h-38.368c-5.522 0-10 4.478-10 10v9.989c-5.4 1.699-10.633 3.868-15.658 6.491l-7.066-7.067c-3.906-3.904-10.236-3.904-14.143 0l-6.5 6.5-25.263-25.263c3.309-5.702 5.214-12.316 5.214-19.37 0-21.354-17.373-38.727-38.726-38.727s-38.727 17.373-38.727 38.727 17.373 38.727 38.727 38.727c7.054 0 13.667-1.905 19.37-5.214l25.263 25.263-6.488 6.488c-3.905 3.905-3.905 10.237 0 14.143l7.063 7.063c-2.625 5.026-4.795 10.26-6.494 15.661h-9.981c-5.522 0-10 4.478-10 10v38.369c0 5.522 4.478 10 10 10h9.974c1.699 5.404 3.869 10.641 6.494 15.669l-7.055 7.055c-1.876 1.875-2.93 4.419-2.93 7.071s1.054 5.195 2.929 7.071l6.5 6.5-25.275 25.276c-5.703-3.309-12.316-5.214-19.37-5.214-21.354 0-38.727 17.372-38.727 38.726 0 9.37 3.346 17.972 8.905 24.677-10.88 3.757-21.171 9.226-30.357 16.255l-35.78 27.379c-4.386 3.355-5.221 9.632-1.864 14.019s9.633 5.219 14.019 1.864l35.78-27.379c15.243-11.665 34.209-18.089 53.404-18.089 23.435 0 46.291 9.591 62.709 26.313l17.887 18.219c1.88 1.915 4.452 2.994 7.136 2.994l83.388.001c10.943 0 19.847 8.906 19.847 19.854 0 10.946-8.905 19.852-19.852 19.852l-131.326.002c-5.522 0-10 4.478-10 10s4.478 10 10 10h136.347c30.661 0 59.484-11.941 81.161-33.624l58.626-58.643c7.737-7.738 20.355-7.771 28.128-.067 3.796 3.76 5.893 8.771 5.905 14.114s-2.061 10.366-5.839 14.144l-33.537 33.536c-3.905 3.905-3.905 10.237 0 14.143 3.906 3.903 10.236 3.905 14.143 0l33.537-33.537c7.567-7.567 11.722-17.63 11.696-28.333-.027-10.704-4.228-20.745-11.831-28.276zm-82.126-39.419c0 10.326-8.4 18.727-18.727 18.727s-18.727-8.4-18.727-18.727c0-10.325 8.4-18.726 18.727-18.726s18.727 8.401 18.727 18.726zm-18.726-281.38c10.326 0 18.727 8.4 18.727 18.727s-8.4 18.727-18.727 18.727-18.727-8.4-18.727-18.727 8.401-18.727 18.727-18.727zm-281.38 18.727c0-10.326 8.4-18.727 18.727-18.727s18.726 8.4 18.726 18.727-8.4 18.727-18.727 18.727-18.726-8.401-18.726-18.727zm57.459 140.499v-18.369h7.636c4.677 0 8.729-3.242 9.756-7.805 1.931-8.58 5.302-16.71 10.02-24.163 2.502-3.953 1.93-9.112-1.378-12.42l-5.407-5.407 12.988-12.988 5.41 5.41c3.309 3.307 8.467 3.88 12.418 1.379 7.454-4.716 15.583-8.086 24.161-10.014 4.563-1.026 7.807-5.079 7.807-9.757v-7.646h18.368v7.646c0 4.678 3.243 8.73 7.807 9.757 8.578 1.928 16.707 5.298 24.161 10.014 3.951 2.502 9.109 1.93 12.418-1.379l5.41-5.41 12.988 12.988-5.407 5.407c-3.308 3.308-3.88 8.467-1.378 12.42 4.718 7.453 8.089 15.583 10.02 24.163 1.026 4.563 5.079 7.805 9.756 7.805h7.636v18.369h-7.63c-4.678 0-8.731 3.243-9.757 7.808-1.929 8.583-5.299 16.716-10.017 24.171-2.501 3.953-1.929 9.111 1.379 12.419l5.398 5.397-12.989 12.989-5.396-5.396c-3.307-3.309-8.466-3.88-12.419-1.378-7.456 4.72-15.589 8.092-24.175 10.022-4.563 1.025-7.806 5.078-7.806 9.756v7.621h-18.368v-7.621c0-4.678-3.242-8.73-7.806-9.756-8.586-1.931-16.719-5.303-24.175-10.022-3.951-2.501-9.11-1.93-12.42 1.378l-5.396 5.396-12.988-12.989 5.397-5.397c3.309-3.308 3.881-8.466 1.38-12.419-4.718-7.455-8.088-15.588-10.017-24.171-1.025-4.564-5.079-7.808-9.757-7.808zm-38.732 103.428c10.326 0 18.727 8.4 18.727 18.726s-8.4 18.727-18.727 18.727-18.727-8.4-18.727-18.727c0-10.325 8.4-18.726 18.727-18.726z"/><path id="XMLID_595_" d="m249.6 216.987c25.88 0 46.935-21.055 46.935-46.934 0-25.88-21.055-46.935-46.935-46.935-25.879 0-46.934 21.055-46.934 46.935s21.055 46.934 46.934 46.934zm0-73.868c14.852 0 26.935 12.083 26.935 26.935s-12.083 26.934-26.935 26.934-26.934-12.082-26.934-26.934 12.082-26.935 26.934-26.935z"/><path id="XMLID_596_" d="m409.65 445.85c-2.63 0-5.21 1.07-7.069 2.931-1.86 1.859-2.931 4.439-2.931 7.069 0 2.641 1.07 5.21 2.931 7.07 1.859 1.87 4.439 2.939 7.069 2.939 2.641 0 5.21-1.069 7.07-2.939 1.87-1.86 2.93-4.44 2.93-7.07s-1.06-5.21-2.93-7.069c-1.86-1.861-4.43-2.931-7.07-2.931z"/></g></g></svg>