<svg id="Layer_1" enable-background="new 0 0 512 512" height="512" viewBox="0 0 512 512" width="512" xmlns="http://www.w3.org/2000/svg"><g id="XMLID_2398_"><path id="XMLID_2235_" d="m228 176h-140.963v-24l-77.037 52 77.037 52v-24h82.582v181.963h58.381z" fill="#d8ec84"/><path id="XMLID_1067_" d="m308 87.037-52-77.037-52 77.037h24v209.963h56v-209.963z" fill="#f6838d"/><path id="XMLID_2232_" d="m502 204-77.037-52v24h-140.963v237.963h58.381v-181.963h82.582v24z" fill="#91def5"/><g id="XMLID_3112_"><path id="XMLID_3117_" d="m256.381 392c-25.405 0-46-20.595-46-46v-20c0-25.405 20.595-46 46-46 25.405 0 46 20.595 46 46v20c0 25.405-20.595 46-46 46z" fill="#ffbf9e"/><path id="XMLID_3116_" d="m300.762 392h-89.525c-37.134 0-67.237 30.103-67.237 67.238v42.762h224v-42.762c0-37.135-30.103-67.238-67.238-67.238z" fill="#ffcb7c"/></g><g id="XMLID_996_"><path id="XMLID_1009_" d="m507.595 195.712-77.037-52c-3.065-2.07-7.022-2.277-10.288-.542s-5.307 5.132-5.307 8.83v14h-120.963v-68.963h14c3.698 0 7.095-2.041 8.83-5.307 1.736-3.266 1.527-7.223-.542-10.288l-52-77.037c-1.859-2.755-4.965-4.405-8.288-4.405s-6.429 1.65-8.289 4.405l-52 77.037c-2.069 3.065-2.277 7.022-.542 10.288s5.132 5.307 8.83 5.307h14v68.963h-120.962v-14c0-3.698-2.041-7.095-5.307-8.83s-7.223-1.529-10.288.542l-77.037 52c-2.754 1.858-4.405 4.965-4.405 8.288s1.651 6.43 4.405 8.288l77.037 52c3.065 2.069 7.022 2.276 10.288.542 3.266-1.735 5.307-5.132 5.307-8.83v-14h62.582v159.84c-15.717 14.149-25.619 34.636-25.619 57.397v42.763c0 5.522 4.477 10 10 10h67c5.523 0 10-4.478 10-10s-4.477-10-10-10h-57v-32.763c0-31.56 25.677-57.237 57.238-57.237h34.762v19c0 5.522 4.477 10 10 10s10-4.478 10-10v-19h34.762c31.561 0 57.238 25.677 57.238 57.237v32.763h-57c-5.523 0-10 4.478-10 10s4.477 10 10 10h67c5.523 0 10-4.478 10-10v-42.763c0-22.761-9.902-43.249-25.619-57.397v-159.84h62.582v14c0 3.698 2.041 7.095 5.307 8.83 3.265 1.734 7.222 1.527 10.288-.542l77.037-52c2.754-1.858 4.405-4.965 4.405-8.288s-1.651-6.43-4.405-8.288zm-287.214 150.288v-20c0-19.851 16.149-36 36-36s36 16.149 36 36v20c0 19.851-16.149 36-36 36s-36-16.149-36-36zm35.619-318.126 33.185 49.163h-5.185c-5.523 0-10 4.478-10 10v185.818c-5.544-1.843-11.464-2.855-17.619-2.855-6.438 0-12.619 1.106-18.381 3.114v-186.077c0-5.522-4.477-10-10-10h-5.185zm-76.381 360.922v-156.796c0-5.522-4.477-10-10-10h-82.582c-5.523 0-10 4.478-10 10v5.186l-49.163-33.186 49.163-33.186v5.186c0 5.522 4.477 10 10 10h130.963v99.278c-10.835 10.218-17.619 24.688-17.619 40.722v20c0 13.699 4.952 26.258 13.15 36h-2.293c-11.264 0-21.961 2.444-31.619 6.796zm255.344-151.61v-5.186c0-5.522-4.477-10-10-10h-82.582c-5.523 0-10 4.478-10 10v156.796c-9.659-4.353-20.356-6.796-31.619-6.796h-1.53c8.198-9.742 13.15-22.301 13.15-36v-20c0-16.411-7.096-31.196-18.381-41.448v-98.552h130.963c5.523 0 10-4.478 10-10v-5.186l49.162 33.186z"/><path id="XMLID_1030_" d="m256 492c-2.63 0-5.21 1.069-7.07 2.93-1.86 1.86-2.93 4.44-2.93 7.07s1.07 5.21 2.93 7.069c1.86 1.86 4.44 2.931 7.07 2.931s5.21-1.07 7.07-2.931c1.86-1.859 2.93-4.439 2.93-7.069s-1.07-5.21-2.93-7.07-4.44-2.93-7.07-2.93z"/></g></g></svg>