<svg id="Layer_1" enable-background="new 0 0 511.979 511.979" height="512" viewBox="0 0 511.979 511.979" width="512" xmlns="http://www.w3.org/2000/svg"><g id="XMLID_828_"><path id="XMLID_2927_" d="m56.068 260.313v25.667c0 12.703-10.297 23-23 23-12.703 0-23-10.297-23-23v-123.385c0-35.346 28.654-64 64-64h69.058l-53.52-.012h96.385c13.255 0 24-10.745 24-24v-12.828c0-12.471 9.697-23.093 22.16-23.537 13.085-.466 23.84 10.004 23.84 22.985v11.38c0 39.765-32.236 72-72 72h-27.912v115.73z" fill="#91def5"/><path id="XMLID_2991_" d="m455.912 260.313v25.667c0 12.703 10.297 23 23 23 12.703 0 23-10.297 23-23v-123.385c0-35.346-28.654-64-64-64h-69.058l53.52-.012h-96.384c-13.255 0-24-10.745-24-24v-12.828c0-12.471-9.697-23.093-22.16-23.537-13.085-.466-23.84 10.004-23.84 22.985v11.38c0 39.765 32.236 72 72 72h27.912v115.73z" fill="#ffcb7c"/><path id="XMLID_2924_" d="m105.99 98.615c-21.752 0-39.385-17.633-39.385-39.385v-9.846c0-21.751 17.633-39.384 39.385-39.384 21.752 0 39.385 17.633 39.385 39.385v9.846c-.001 21.751-17.634 39.384-39.385 39.384z" fill="#cc9e83"/><path id="XMLID_2919_" d="m156.078 260.313v216.667c0 13.807-11.193 25-25 25-13.807 0-25-11.193-25-25v-137.312-21.09 158.402c0 13.807-11.193 25-25 25-13.807 0-25-11.193-25-25v-216.667z" fill="#8690a6"/><path id="XMLID_2914_" d="m405.99 98.615c21.752 0 39.385-17.633 39.385-39.385v-9.846c-.001-21.751-17.634-39.384-39.385-39.384-21.751 0-39.385 17.633-39.385 39.385v9.846c0 21.751 17.633 39.384 39.385 39.384z" fill="#ffbf9e"/><path id="XMLID_2909_" d="m355.902 260.313v216.667c0 13.807 11.193 25 25 25 13.807 0 25-11.193 25-25v-137.312-21.09 158.402c0 13.807 11.193 25 25 25 13.807 0 25-11.193 25-25v-216.667z" fill="#8690a6"/><g id="XMLID_332_"><path id="XMLID_306_" d="m445.384 88.971c6.266-8.279 9.99-18.582 9.99-29.741v-9.846c.001-27.23-22.153-49.384-49.384-49.384s-49.385 22.154-49.385 49.385v9.846c0 10.985 3.609 21.141 9.698 29.353h-40.313c-7.72 0-14-6.28-14-14v-12.829c0-18.167-13.97-32.896-31.804-33.53-9.053-.299-17.607 2.957-24.109 9.231-.03.029-.057.059-.086.088-.03-.029-.057-.059-.086-.088-6.502-6.274-15.064-9.542-24.109-9.231-17.834.635-31.805 15.363-31.805 33.53v12.828c0 7.72-6.28 14-14 14h-40.319c6.091-8.212 9.704-18.366 9.704-29.353v-9.846c-.001-27.23-22.155-49.384-49.386-49.384s-49.385 22.154-49.385 49.385v9.846c0 11.159 3.725 21.462 9.99 29.741-37.308 3.758-66.528 35.342-66.528 73.624v123.385c0 18.196 14.804 33 33 33 4.618 0 9.015-.957 13.01-2.677v160.677c0 19.299 15.701 35 35 35 9.786 0 18.642-4.042 25-10.539 6.358 6.496 15.214 10.539 25 10.539 19.299 0 35-15.701 35-35v-171.668c0-5.522-4.477-10-10-10s-10 4.478-10 10v171.667c0 8.271-6.729 15-15 15s-15-6.729-15-15v-158.4c0-5.522-4.477-10-10-10s-10 4.478-10 10v158.4c0 8.271-6.729 15-15 15s-15-6.729-15-15v-206.667h45c5.523 0 10-4.478 10-10s-4.477-10-10-10h-45l-.01-68.505c0-5.522-4.477-10-10-10s-10 4.478-10 10v104.172c0 7.168-5.832 13-13 13s-13-5.832-13-13v-123.385c0-29.775 24.224-54 54-54l111.922-.012c18.748 0 34-15.252 34-34v-12.828c0-7.222 5.615-13.297 12.516-13.542 3.574-.126 6.948 1.163 9.509 3.635 2.563 2.474 3.975 5.796 3.975 9.356v11.379c0 34.187-27.813 62-62 62h-27.912c-5.523 0-10 4.478-10 10v70.729c0 5.522 4.477 10 10 10s10-4.478 10-10v-60.729h17.912c31.022 0 58.072-17.318 72-42.792 13.928 25.474 40.978 42.792 72 42.792h17.912v322.396c0 19.299 15.701 35 35 35 9.786 0 18.642-4.042 25-10.539 6.358 6.496 15.214 10.539 25 10.539 19.299 0 35-15.701 35-35v-160.677c3.994 1.72 8.392 2.677 13.01 2.677 18.196 0 33-14.804 33-33v-123.384c.001-38.282-29.219-69.866-66.527-73.624zm-310.009-29.741c0 16.203-13.182 29.385-29.385 29.385s-29.385-13.181-29.385-29.385v-9.846c0-16.202 13.182-29.384 29.385-29.384s29.385 13.182 29.385 29.385zm241.23-9.845c0-16.203 13.182-29.385 29.385-29.385s29.385 13.182 29.385 29.385v9.846c0 16.203-13.182 29.385-29.385 29.385s-29.385-13.182-29.385-29.385zm69.297 427.594c0 8.271-6.729 15-15 15s-15-6.729-15-15v-158.4c0-5.522-4.477-10-10-10s-10 4.478-10 10v158.4c0 8.271-6.729 15-15 15s-15-6.729-15-15v-206.666h80zm46.01-191c0 7.168-5.832 13-13 13s-13-5.832-13-13v-104.171c0-5.522-4.477-10-10-10s-10 4.478-10 10l-.01 68.505h-80v-105.73c0-5.522-4.477-10-10-10h-27.912c-34.187 0-62-27.813-62-62v-11.379c0-3.561 1.412-6.883 3.975-9.356 2.561-2.472 5.936-3.759 9.51-3.635 6.901.245 12.516 6.32 12.516 13.542v12.828c0 18.748 15.252 34 34 34l111.922.012c29.776 0 54 24.225 54 54v123.384z"/><path id="XMLID_1038_" d="m156.08 250.31c-2.63 0-5.21 1.069-7.07 2.93-1.86 1.86-2.93 4.44-2.93 7.07s1.07 5.21 2.93 7.069c1.86 1.87 4.44 2.931 7.07 2.931s5.21-1.061 7.07-2.931c1.86-1.859 2.93-4.439 2.93-7.069s-1.07-5.2-2.93-7.07c-1.86-1.861-4.441-2.93-7.07-2.93z"/></g></g></svg>