<svg id="Layer_1" enable-background="new 0 0 512.002 512.002" height="512" viewBox="0 0 512.002 512.002" width="512" xmlns="http://www.w3.org/2000/svg"><g><path d="m127.5 90.165 47 47 46.274-46.274c-3.684-3.538-19.867-18.29-45.231-18.958-26.967-.711-44.588 15.017-48.043 18.232z" fill="#f9f9f9"/><path d="m286.164 90.165 47 47 46.274-46.274c-3.684-3.538-19.867-18.29-45.231-18.958-26.967-.711-44.588 15.017-48.043 18.232z" fill="#f9f9f9"/><g id="XMLID_2575_"><g id="XMLID_2686_"><path id="XMLID_2705_" d="m116.798 351.399c-14.132-28.43-21.535-62.26-21.535-92.353 0-87.678 72.988-155.078 160.421-155.078 85.339 0 155.245 71.517 155.245 157.824l29.81 97.057h-47.239v45.256c0 25.469-20.647 46.116-46.116 46.116h-54.024l-9.038 51.779h-169.222l12.996-53.895c7.849-32.553 3.608-66.72-11.298-96.706z" fill="#ffcbbe"/><g id="XMLID_2694_"><g fill="#91def5"><circle id="XMLID_2703_" cx="411.98" cy="34" r="24"/><circle id="XMLID_2702_" cx="253.622" cy="34" r="24"/><circle id="XMLID_2701_" cx="95.263" cy="34" r="24"/></g><g id="XMLID_2698_"><path id="XMLID_2700_" d="m95.263 58v172h316.717v-172l-79.179 79.179-79.179-79.179-79.18 79.179z" fill="#ffcb7c"/><path id="XMLID_1674_" d="m95.263 185h316.717v45h-316.717z" fill="#ffd89e"/></g></g></g><g id="XMLID_243_"><path id="XMLID_281_" d="m450.327 356.008-28.347-95.666v-193.845c13.882-4.281 24-17.228 24-32.497 0-18.748-15.252-34-34-34s-34 15.252-34 34c0 11.89 6.14 22.368 15.411 28.447l-15.108 15.108c-13.005-9.962-28.824-15.373-45.482-15.373s-32.477 5.411-45.482 15.373l-15.108-15.108c9.271-6.079 15.411-16.556 15.411-28.447 0-18.748-15.252-34-34-34s-34 15.252-34 34c0 11.89 6.14 22.368 15.411 28.447l-15.108 15.108c-13.005-9.962-28.824-15.373-45.482-15.373s-32.477 5.411-45.482 15.373l-15.108-15.108c9.271-6.079 15.411-16.556 15.411-28.447 0-18.748-15.252-34-34-34s-34 15.252-34 34c0 15.269 10.118 28.217 24 32.497v192.549c0 32.653 8.23 67.938 22.58 96.805 13.987 28.137 17.727 60.067 10.531 89.911l-12.996 53.895c-1.295 5.368 2.008 10.771 7.377 12.065.788.189 1.576.28 2.353.28 4.513 0 8.608-3.077 9.713-7.658l12.996-53.895c8.296-34.404 4.012-71.162-12.064-103.501-13.021-26.194-20.489-58.233-20.489-87.902v-19.046h103.359c5.523 0 10-4.478 10-10s-4.477-10-10-10h-103.361v-26.506h296.717v26.506h-103.358c-5.523 0-10 4.478-10 10s4.477 10 10 10h103.358v21.792c0 .962.139 1.919.412 2.841l24.954 84.216h-33.846c-5.523 0-10 4.478-10 10v45.256c0 19.915-16.202 36.116-36.116 36.116h-54.024c-4.859 0-9.016 3.493-9.851 8.28l-9.038 51.779c-.95 5.44 2.691 10.621 8.131 11.57.582.102 1.161.151 1.731.151 4.769 0 8.991-3.424 9.839-8.282l7.593-43.499h45.618c30.942 0 56.116-25.174 56.116-56.116v-35.256h37.239c3.155 0 6.125-1.489 8.013-4.018 1.888-2.526 2.472-5.798 1.576-8.822zm-38.347-336.008c7.72 0 14 6.28 14 14s-6.28 14-14 14-14-6.28-14-14 6.28-14 14-14zm-79.179 62.182c11.298 0 22.07 3.396 31.17 9.685l-31.17 31.17-31.17-31.17c9.1-6.289 19.871-9.685 31.17-9.685zm-79.179-62.182c7.72 0 14 6.28 14 14s-6.28 14-14 14-14-6.28-14-14 6.28-14 14-14zm-79.18 62.182c11.298 0 22.07 3.396 31.17 9.685l-31.17 31.17-31.17-31.17c9.101-6.289 19.872-9.685 31.17-9.685zm-79.179-62.182c7.72 0 14 6.28 14 14s-6.28 14-14 14-14-6.28-14-14 6.28-14 14-14zm10 153.494v-91.351l62.108 62.108c1.875 1.875 4.419 2.929 7.071 2.929s5.196-1.054 7.071-2.929l72.108-72.108 72.108 72.108c1.875 1.875 4.419 2.929 7.071 2.929s5.196-1.054 7.071-2.929l62.108-62.108v91.352h-296.716z"/><path id="XMLID_301_" d="m253.621 220c-2.63 0-5.21 1.069-7.07 2.93s-2.93 4.44-2.93 7.07 1.07 5.21 2.93 7.069c1.86 1.86 4.44 2.931 7.07 2.931s5.21-1.07 7.07-2.931c1.86-1.859 2.93-4.439 2.93-7.069s-1.07-5.21-2.93-7.07-4.44-2.93-7.07-2.93z"/></g></g></g></svg>