<svg id="Layer_1" enable-background="new 0 0 512 512" height="512" viewBox="0 0 512 512" width="512" xmlns="http://www.w3.org/2000/svg"><g id="XMLID_2314_"><g id="XMLID_1353_"><path id="XMLID_2544_" d="m154 190.667-72-106.667-72 106.667h33.231v117.333h77.538v-117.333z" fill="#cff1fb"/><path id="XMLID_1114_" d="m502 116.667-72-106.667-72 106.667h33.231v117.333h77.538v-117.333z" fill="#f6838d"/><path id="XMLID_2541_" d="m318.719 350h-125.438c-51.518 0-93.281 41.763-93.281 93.281v58.719h312v-58.719c0-51.518-41.763-93.281-93.281-93.281z" fill="#91def5"/><path id="XMLID_2540_" d="m317 228h-122v61c0 33.689 27.311 61 61 61 33.689 0 61-27.311 61-61z" fill="#ffbf9e"/><path id="XMLID_2537_" d="m333.362 176h-91.863c-25.681 0-46.499 20.818-46.499 46.499v33.501h91.863c25.681 0 46.499-20.818 46.499-46.499z" fill="#8690a6"/><path id="XMLID_908_" d="m299.301 350-43.301 75-43.301-75z" fill="#fff"/></g><g id="XMLID_273_"><path id="XMLID_317_" d="m130.769 308v-107.333h23.231c3.698 0 7.095-2.041 8.83-5.307 1.736-3.266 1.527-7.223-.542-10.288l-72-106.667c-1.859-2.755-4.965-4.405-8.288-4.405s-6.429 1.65-8.289 4.405l-72 106.667c-2.069 3.065-2.277 7.022-.542 10.288s5.132 5.307 8.83 5.307h23.231v107.333c0 5.522 4.477 10 10 10h77.538c5.524 0 10.001-4.478 10.001-10zm-20-117.333v107.333h-57.538v-107.333c0-5.522-4.477-10-10-10h-14.416l53.185-78.793 53.185 78.793h-14.416c-5.523 0-10 4.478-10 10z"/><path id="XMLID_336_" d="m510.289 111.072-72-106.667c-1.86-2.755-4.966-4.405-8.289-4.405s-6.429 1.65-8.289 4.405l-72 106.667c-2.069 3.065-2.277 7.022-.542 10.288s5.132 5.307 8.83 5.307h23.231v107.333c0 5.522 4.477 10 10 10h77.538c5.523 0 10-4.478 10-10v-107.333h23.232c3.698 0 7.095-2.041 8.83-5.307 1.736-3.265 1.527-7.222-.541-10.288zm-41.52-4.405c-5.523 0-10 4.478-10 10v107.333h-57.538v-107.333c0-5.522-4.477-10-10-10h-14.416l53.185-78.793 53.185 78.793z"/><path id="XMLID_340_" d="m318.719 340h-13.397c13.352-12.917 21.678-31 21.678-51v-39.782c10.107-10.213 16.362-24.247 16.362-39.717v-33.501c0-5.522-4.477-10-10-10h-91.863c-31.154 0-56.499 25.346-56.499 56.499v66.501c0 20 8.326 38.083 21.678 51h-13.397c-56.949 0-103.281 46.331-103.281 103.28v58.72c0 5.522 4.477 10 10 10h111c5.523 0 10-4.478 10-10s-4.477-10-10-10h-101v-48.72c0-45.921 37.36-83.28 83.281-83.28h13.645l40.415 70c1.786 3.094 5.087 5 8.66 5s6.874-1.906 8.66-5l40.415-70h13.645c45.919 0 83.279 37.359 83.279 83.28v48.72h-101c-5.523 0-10 4.478-10 10s4.477 10 10 10h111c5.523 0 10-4.478 10-10v-58.72c0-56.949-46.332-103.28-103.281-103.28zm-113.719-117.501c0-20.126 16.374-36.499 36.499-36.499h81.863v23.501c0 20.126-16.374 36.499-36.499 36.499h-81.863zm0 66.501v-23h81.863c7.092 0 13.877-1.326 20.137-3.723v26.723c0 28.121-22.878 51-51 51s-51-22.879-51-51zm51 116-25.981-45h51.962z"/><path id="XMLID_343_" d="m256 492c-2.63 0-5.21 1.069-7.07 2.93-1.86 1.86-2.93 4.44-2.93 7.07s1.07 5.21 2.93 7.069c1.86 1.86 4.44 2.931 7.07 2.931s5.21-1.07 7.07-2.931c1.86-1.859 2.93-4.439 2.93-7.069s-1.07-5.21-2.93-7.07-4.44-2.93-7.07-2.93z"/></g></g></svg>