<svg id="Layer_1" enable-background="new 0 0 512 512" height="512" viewBox="0 0 512 512" width="512" xmlns="http://www.w3.org/2000/svg"><g id="XMLID_799_"><g id="XMLID_871_"><path id="XMLID_877_" d="m30 446v-256c0-22.091 17.909-40 40-40h56.83 258.34 56.83c22.091 0 40 17.909 40 40v256z" fill="#dff6fc"/><path id="XMLID_875_" d="m211.058 446h-201.058c0 30.928 25.072 56 56 56h380c30.928 0 56-25.072 56-56h-200.941z" fill="#91def5"/></g><path id="XMLID_869_" d="m385.17 139.17c0-71.339-57.832-129.17-129.17-129.17s-129.17 57.831-129.17 129.17 57.831 129.17 129.17 129.17c13.857 0 27.201-2.191 39.714-6.23l33.587 33.587c4.922 4.922 13.337 1.436 13.337-5.524v-55.2c26.12-23.637 42.532-57.803 42.532-95.803z" fill="#ffcb7c"/><g id="XMLID_319_"><path id="XMLID_391_" d="m502 436h-10v-246c0-27.57-22.43-50-50-50h-46.841c.002-.277.011-.553.011-.83 0-76.738-62.431-139.17-139.17-139.17s-139.17 62.432-139.17 139.17c0 .278.009.553.01.83h-46.84c-27.57 0-50 22.43-50 50v246h-10c-5.523 0-10 4.478-10 10 0 36.393 29.607 66 66 66h380c36.393 0 66-29.607 66-66 0-5.522-4.477-10-10-10zm-246-416c65.71 0 119.17 53.459 119.17 119.17 0 33.604-14.303 65.82-39.241 88.387-2.095 1.896-3.291 4.59-3.291 7.415v49.919l-29.853-29.853c-1.905-1.905-4.461-2.929-7.072-2.929-1.027 0-2.063.158-3.071.483-11.814 3.813-24.143 5.747-36.643 5.747-65.71 0-119.17-53.459-119.17-119.17s53.461-119.169 119.171-119.169zm190 472h-380c-21.931 0-40.327-15.429-44.905-36h189.963c5.523 0 10-4.478 10-10s-4.477-10-10-10h-171.058v-246c0-16.542 13.458-30 30-30h48.389c10.083 66.893 67.95 118.34 137.611 118.34 12.512 0 24.882-1.661 36.857-4.945l29.373 29.372c3.416 3.417 7.95 5.228 12.577 5.227 2.297 0 4.618-.446 6.834-1.364 6.68-2.767 10.997-9.227 10.997-16.457v-50.861c22.052-21.298 36.387-49.278 40.954-79.311h48.408c16.542 0 30 13.458 30 30v246h-170.941c-5.523 0-10 4.478-10 10s4.477 10 10 10h189.846c-4.578 20.57-22.974 35.999-44.905 35.999z"/><path id="XMLID_441_" d="m256.06 436.06c-2.63 0-5.21 1.07-7.07 2.931-1.86 1.859-2.93 4.439-2.93 7.069 0 2.641 1.07 5.21 2.93 7.07 1.86 1.87 4.44 2.93 7.07 2.93 2.64 0 5.21-1.06 7.07-2.93 1.87-1.86 2.93-4.43 2.93-7.07 0-2.63-1.06-5.21-2.93-7.069-1.86-1.861-4.43-2.931-7.07-2.931z"/><path id="XMLID_442_" d="m207.803 126.364h37.669c-3.258 25.053-18.653 46.777-41.814 58.123-4.959 2.43-7.011 8.42-4.581 13.38 1.736 3.544 5.291 5.603 8.988 5.603 1.477 0 2.977-.328 4.392-1.021 19.409-9.509 34.5-24.786 43.67-43.228 9.171 18.442 24.261 33.719 43.67 43.228 1.416.693 2.915 1.021 4.392 1.021 3.697 0 7.251-2.059 8.988-5.603 2.43-4.96.378-10.95-4.581-13.38-23.161-11.346-38.557-33.07-41.814-58.123h37.415c5.523 0 10-4.478 10-10s-4.477-10-10-10h-38.07v-14.562c0-5.522-4.477-10-10-10s-10 4.478-10 10v14.563h-38.324c-5.523 0-10 4.478-10 10s4.477 9.999 10 9.999z"/><path id="XMLID_443_" d="m92 308h51.667c5.523 0 10-4.478 10-10s-4.477-10-10-10h-51.667c-5.523 0-10 4.478-10 10s4.477 10 10 10z"/><path id="XMLID_444_" d="m92 356h110c5.523 0 10-4.478 10-10s-4.477-10-10-10h-110c-5.523 0-10 4.478-10 10s4.477 10 10 10z"/><path id="XMLID_445_" d="m322 394c0-5.522-4.477-10-10-10h-123c-5.523 0-10 4.478-10 10s4.477 10 10 10h123c5.523 0 10-4.478 10-10z"/><path id="XMLID_446_" d="m250.07 356h61.93c5.523 0 10-4.478 10-10s-4.477-10-10-10h-61.93c-5.523 0-10 4.478-10 10s4.477 10 10 10z"/><path id="XMLID_447_" d="m143.667 384h-51.667c-5.523 0-10 4.478-10 10s4.477 10 10 10h51.667c5.523 0 10-4.478 10-10s-4.478-10-10-10z"/></g></g></svg>