<svg id="Layer_1" enable-background="new 0 0 511.855 511.855" height="512" viewBox="0 0 511.855 511.855" width="512" xmlns="http://www.w3.org/2000/svg"><g id="XMLID_1589_"><path id="XMLID_842_" d="m492.144 170.847c-12.007-12.007-31.475-12.007-43.482-.001l3.662-3.662c12.726-12.726 12.726-33.359 0-46.085s-33.359-12.726-46.085 0l6.625-6.625c12.779-12.779 12.779-33.499 0-46.278s-33.499-12.779-46.278 0l-1.665 1.665c13.699-13.699 13.699-35.909 0-49.608s-35.909-13.699-49.608 0l-49.534 49.534c-21.243-16.015-51.573-14.359-70.922 4.991l-40.106 40.106c-13.206 13.206-18.686 32.279-14.504 50.481l6.802 29.602-137.899 137.898.123 168.99h108.379l160.71-160.71 27.687 5.345c28.27 5.458 57.406-3.47 77.764-23.829l51.931-51.931 56.4-56.4c12.007-12.007 12.007-31.476 0-43.483z" fill="#f2bb88"/><g id="XMLID_360_"><path id="XMLID_465_" d="m499.215 163.775c-7.758-7.756-17.89-11.715-28.078-11.897 2.441-13.314-1.468-27.575-11.743-37.85-7.587-7.587-17.534-11.955-28.185-12.427.815-3.32 1.239-6.76 1.239-10.267 0-11.412-4.444-22.142-12.514-30.211-9.53-9.53-22.477-13.597-34.933-12.224 1.085-12.789-3.246-25.955-13.01-35.72-17.577-17.575-46.176-17.573-63.751 0l-43.81 43.811c-9.445-5.274-20.12-8.095-31.235-8.095-17.154 0-33.281 6.68-45.411 18.81l-40.106 40.105c-15.742 15.742-22.163 38.095-17.178 59.792l5.562 24.206-132.408 132.41c-3.905 3.905-3.905 10.237 0 14.143 1.953 1.952 4.512 2.929 7.071 2.929s5.118-.977 7.071-2.929l136.322-136.323c2.436-2.436 3.446-5.953 2.675-9.311l-6.801-29.602c-3.434-14.94.988-30.332 11.828-41.171l40.106-40.105c8.352-8.353 19.456-12.952 31.269-12.952 11.812 0 22.916 4.6 31.268 12.952l33.998 33.998c4.737 4.736 7.346 11.034 7.346 17.732s-2.608 12.996-7.346 17.732c-4.736 4.737-11.034 7.346-17.733 7.346-6.698 0-12.996-2.608-17.732-7.346l-19.794-19.794c-3.906-3.904-10.236-3.904-14.143 0-3.905 3.905-3.905 10.237 0 14.143 26.978 26.977 26.978 70.872 0 97.849l-.691.691c-3.905 3.905-3.905 10.237 0 14.143 1.953 1.952 4.512 2.929 7.071 2.929s5.118-.977 7.071-2.929l.691-.691c21.966-21.966 30.04-52.631 24.255-81.007 6.505 1.993 13.372 2.487 20.057 1.477 1.838 3.155 4.07 6.075 6.709 8.715 8.069 8.069 18.799 12.513 30.211 12.513 1.231 0 2.453-.062 3.666-.164-.106 1.23-.168 2.469-.168 3.719 0 11.375 4.43 22.07 12.474 30.114 8.304 8.303 19.206 12.453 30.113 12.453.968 0 1.936-.045 2.903-.11-.105 1.2-.167 2.409-.167 3.628 0 10.884 4.238 21.117 11.935 28.813 5.355 5.354 11.844 8.896 18.699 10.642l-27.147 27.147c-18.034 18.036-43.751 25.915-68.798 21.082l-27.687-5.345c-3.261-.631-6.619.4-8.967 2.747l-55.173 55.173c-3.905 3.905-3.905 10.237 0 14.143 1.953 1.952 4.512 2.929 7.071 2.929s5.118-.977 7.071-2.929l51.419-51.419 22.474 4.338c31.57 6.099 63.994-3.84 86.731-26.576l108.331-108.331c15.889-15.89 15.889-41.741.002-57.629zm-218.911-94.371 42.08-42.081c9.777-9.777 25.688-9.778 35.466.001 4.736 4.736 7.345 11.033 7.345 17.732 0 6.698-2.608 12.996-7.345 17.732l-42.234 42.234c-.943-1.148-1.947-2.255-3.011-3.319zm28.063 103.29c-.677-.677-1.301-1.391-1.88-2.133 2.149-1.498 4.201-3.192 6.116-5.108 8.515-8.514 13.204-19.834 13.204-31.875 0-3.22-.346-6.386-1-9.463l48.85-48.85c8.858-8.858 23.273-8.86 32.136 0 4.292 4.292 6.655 9.998 6.655 16.068 0 6.069-2.363 11.775-6.656 16.067l-65.29 65.291c-4.292 4.292-9.998 6.655-16.067 6.655-6.071.003-11.777-2.361-16.068-6.652zm46.181 46.181c-4.267-4.267-6.616-9.938-6.616-15.972s2.35-11.705 6.616-15.971l58.762-58.762c4.266-4.267 9.938-6.616 15.971-6.616s11.705 2.35 15.972 6.616c8.807 8.807 8.807 23.135 0 31.941l-58.761 58.763c-8.808 8.806-23.137 8.81-31.944.001zm130.524-11.616-56.399 56.399c-8.09 8.089-21.251 8.091-29.341 0 0 0 0 0-.001 0-3.918-3.918-6.076-9.128-6.076-14.67s2.158-10.752 6.077-14.67l56.4-56.401c4.045-4.045 9.357-6.067 14.67-6.067s10.625 2.022 14.67 6.067c8.09 8.09 8.09 21.253 0 29.342z"/><path id="XMLID_469_" d="m152.505 452.859-41.925 41.925c-3.905 3.905-3.905 10.237 0 14.143 1.953 1.952 4.512 2.929 7.071 2.929s5.118-.977 7.071-2.929l41.925-41.925c3.905-3.905 3.905-10.237 0-14.143-3.906-3.904-10.236-3.904-14.142 0z"/><path id="XMLID_471_" d="m191.369 418.137c-2.63 0-5.21 1.07-7.07 2.93-1.859 1.86-2.93 4.44-2.93 7.07s1.07 5.21 2.93 7.07c1.86 1.859 4.44 2.93 7.07 2.93s5.21-1.07 7.07-2.93c1.859-1.86 2.93-4.44 2.93-7.07s-1.07-5.21-2.93-7.07-4.44-2.93-7.07-2.93z"/></g></g></svg>