<svg id="Layer_1" enable-background="new 0 0 512 512" height="512" viewBox="0 0 512 512" width="512" xmlns="http://www.w3.org/2000/svg"><g id="XMLID_1087_"><g id="XMLID_837_"><g id="XMLID_3017_"><path id="XMLID_3033_" d="m410 247.398v-74.797h-32.586c-4.375-19.659-12.119-38.047-22.603-54.524l23.054-23.054-52.889-52.889-23.06 23.06c-16.476-10.479-34.862-18.217-54.518-22.589v-32.605h-74.797v32.605c-19.656 4.372-38.042 12.11-54.518 22.589l-23.06-23.06-52.889 52.889 23.054 23.054c-10.484 16.477-18.227 34.865-22.603 54.524h-32.585v74.797h32.575c4.371 19.665 12.111 38.059 22.594 54.543l-23.036 23.036 52.889 52.889 23.03-23.03c16.484 10.488 34.881 18.234 54.548 22.608v32.556h74.797v-32.556c19.668-4.374 38.064-12.12 54.548-22.608l23.03 23.03 52.889-52.889-23.036-23.036c10.483-16.483 18.224-34.878 22.594-54.543z" fill="#91def5"/><path id="XMLID_3031_" d="m210 323.834c-62.855 0-113.81-50.954-113.81-113.81s50.955-113.809 113.81-113.809 113.81 50.954 113.81 113.81-50.955 113.809-113.81 113.809z" fill="#fff"/><g id="XMLID_3024_"><path id="XMLID_3030_" d="m210.309 234.543c-20.622 0-37.34-16.718-37.34-37.34v-16.235c0-20.622 16.718-37.34 37.34-37.34 20.622 0 37.34 16.718 37.34 37.34v16.235c0 20.622-16.717 37.34-37.34 37.34z" fill="#ffbf9e"/><path id="XMLID_906_" d="m300.068 279.594c-4.509-25.598-26.842-45.051-53.733-45.051h-72.67c-26.891 0-49.224 19.453-53.733 45.051 20.815 26.909 53.416 44.24 90.068 44.24s69.253-17.331 90.068-44.24z" fill="#ffcb7c"/></g></g><g id="XMLID_3010_"><circle id="XMLID_3016_" cx="394.5" cy="394.5" fill="#f6838d" r="107.5"/><path id="XMLID_3014_" d="m394.363 424.306-25.403 18.541c-6.492 4.738-15.247-1.623-12.746-9.261l9.784-29.889-25.561-18.486c-6.505-4.704-3.177-14.984 4.851-14.984h31.545l9.655-29.868c2.47-7.642 13.282-7.642 15.752 0l9.655 29.868h31.545c8.028 0 11.355 10.28 4.851 14.984l-25.561 18.486 9.784 29.889c2.5 7.638-6.255 13.999-12.746 9.261z" fill="#ffcb7c"/></g></g><g id="XMLID_463_"><path id="XMLID_762_" d="m258 95.866c-5.091-2.141-10.954.246-13.097 5.337s.247 10.954 5.337 13.097c38.617 16.255 63.569 53.829 63.569 95.725 0 16.963-4.09 32.988-11.335 47.143-10.793-19.009-30.822-31.684-53.594-32.567 5.513-7.739 8.77-17.192 8.77-27.396v-16.235c0-26.104-21.236-47.34-47.34-47.34s-47.34 21.236-47.34 47.34v16.235c0 10.199 3.253 19.646 8.76 27.383-23.023.679-43.314 13.403-54.204 32.581-7.245-14.154-11.335-30.18-11.335-47.143 0-41.817 24.888-79.364 63.405-95.656 5.087-2.151 7.466-8.019 5.314-13.105-2.15-5.087-8.019-7.466-13.105-5.314-45.934 19.429-75.614 64.206-75.614 114.076 0 68.269 55.541 123.81 123.81 123.81s123.81-55.541 123.81-123.81c-.001-49.965-29.758-94.776-75.811-114.161zm-75.03 85.102c0-15.075 12.265-27.34 27.34-27.34s27.34 12.265 27.34 27.34v16.235c0 15.075-12.265 27.34-27.34 27.34s-27.34-12.265-27.34-27.34zm27.03 132.866c-31.73 0-60.175-14.314-79.232-36.818 5.331-19.056 22.716-32.473 42.897-32.473h26.335v13.54c0 5.522 4.478 10 10 10s10-4.478 10-10v-13.54h26.335c20.182 0 37.566 13.417 42.897 32.473-19.057 22.504-47.502 36.818-79.232 36.818z"/><path id="XMLID_826_" d="m394.5 277c-5.499 0-10.908.389-16.209 1.123 2.737-6.76 5.07-13.678 6.97-20.725h24.739c5.522 0 10-4.478 10-10v-74.797c0-5.522-4.478-10-10-10h-24.75c-4.061-15.059-10.032-29.464-17.824-42.995l17.512-17.512c3.905-3.905 3.905-10.237 0-14.143l-52.89-52.89c-1.876-1.875-4.419-2.929-7.071-2.929s-5.196 1.054-7.071 2.929l-17.518 17.519c-13.53-7.787-27.936-13.756-42.989-17.813v-24.767c0-5.522-4.478-10-10-10h-74.797c-5.522 0-10 4.478-10 10v24.768c-15.054 4.058-29.458 10.026-42.989 17.813l-17.518-17.519c-1.875-1.875-4.419-2.929-7.071-2.929s-5.195 1.054-7.071 2.929l-52.89 52.89c-3.905 3.905-3.905 10.237 0 14.143l17.512 17.512c-7.792 13.531-13.764 27.937-17.824 42.995h-24.751c-5.522 0-10 4.478-10 10v74.797c0 5.522 4.478 10 10 10h24.737c4.058 15.064 10.028 29.477 17.819 43.014l-17.494 17.493c-1.875 1.875-2.929 4.419-2.929 7.071s1.054 5.195 2.929 7.071l52.89 52.89c3.906 3.904 10.236 3.904 14.143 0l17.487-17.487c13.538 7.796 27.953 13.771 43.02 17.83v24.719c0 5.522 4.478 10 10 10h74.797c5.522 0 10-4.478 10-10v-24.721c7.046-1.901 13.964-4.23 20.722-6.967-.733 5.293-1.12 10.696-1.12 16.188 0 64.79 52.71 117.5 117.5 117.5s117.499-52.71 117.499-117.5-52.71-117.5-117.5-117.5zm-149.272 90.682c-4.574 1.018-7.829 5.075-7.829 9.762v22.556h-54.797v-22.557c0-4.687-3.255-8.744-7.829-9.762-18.262-4.062-35.539-11.222-51.351-21.282-3.953-2.517-9.125-1.947-12.439 1.365l-15.959 15.959-38.747-38.747 15.965-15.964c3.313-3.313 3.882-8.483 1.367-12.438-10.056-15.812-17.213-33.087-21.271-51.347-1.017-4.575-5.075-7.83-9.762-7.83h-22.576v-54.797h22.586c4.686 0 8.743-3.254 9.761-7.828 4.063-18.254 11.222-35.522 21.278-51.327 2.517-3.954 1.948-9.125-1.365-12.439l-15.984-15.983 38.747-38.747 15.988 15.989c3.313 3.313 8.483 3.881 12.438 1.367 15.807-10.053 33.074-17.208 51.323-21.267 4.575-1.018 7.829-5.075 7.829-9.762v-22.603h54.797v22.604c0 4.687 3.254 8.744 7.829 9.762 18.249 4.06 35.518 11.214 51.323 21.267 3.952 2.515 9.123 1.945 12.438-1.367l15.988-15.989 38.747 38.747-15.983 15.983c-3.313 3.314-3.882 8.485-1.365 12.439 10.057 15.805 17.216 33.073 21.278 51.327 1.018 4.574 5.075 7.828 9.761 7.828h22.586v54.797h-22.575c-4.687 0-8.745 3.255-9.762 7.83-3.031 13.639-7.852 26.807-14.3 39.209-31.756 11.908-57.028 37.183-68.931 68.941-12.398 6.45-25.562 11.27-39.204 14.304zm149.272 124.318c-53.762 0-97.5-43.738-97.5-97.5s43.738-97.5 97.5-97.5 97.5 43.738 97.5 97.5-43.738 97.5-97.5 97.5z"/><path id="XMLID_832_" d="m443.438 360.228h-24.268l-7.417-22.944c-2.446-7.569-9.436-12.655-17.391-12.656 0 0 0 0-.001 0-7.954 0-14.943 5.086-17.392 12.656l-7.416 22.944h-24.269c-7.951 0-14.939 5.083-17.389 12.647-2.449 7.565.234 15.779 6.678 20.44l19.647 14.208-7.514 22.953c-2.477 7.565.187 15.792 6.627 20.472 6.439 4.68 15.088 4.67 21.52-.023l19.507-14.238 19.508 14.238c3.221 2.352 6.997 3.527 10.775 3.526 3.764 0 7.529-1.167 10.743-3.503 6.441-4.68 9.104-12.907 6.627-20.472l-7.513-22.953 19.646-14.209c6.443-4.66 9.127-12.875 6.678-20.439s-9.433-12.647-17.386-12.647zm-26.57 35.367c-3.523 2.548-4.996 7.081-3.644 11.213l8.122 24.813-21.089-15.392c-3.512-2.564-8.279-2.564-11.791 0l-21.089 15.393 8.123-24.813c1.353-4.133-.12-8.666-3.644-11.215l-21.249-15.366h26.224c4.338 0 8.181-2.797 9.516-6.925l8.015-24.797 8.016 24.798c1.335 4.127 5.178 6.924 9.516 6.924h26.223z"/><path id="XMLID_833_" d="m210 106.21c2.63 0 5.21-1.061 7.069-2.93 1.86-1.86 2.931-4.431 2.931-7.061 0-2.64-1.07-5.21-2.931-7.08-1.859-1.859-4.439-2.92-7.069-2.92s-5.21 1.061-7.07 2.92c-1.86 1.87-2.93 4.44-2.93 7.08 0 2.63 1.069 5.21 2.93 7.061 1.86 1.869 4.44 2.93 7.07 2.93z"/></g></g></svg>