<svg id="Layer_1" enable-background="new 0 0 512.002 512.002" height="512" viewBox="0 0 512.002 512.002" width="512" xmlns="http://www.w3.org/2000/svg"><g id="XMLID_2138_"><path id="XMLID_1959_" d="m134.504 331.15c-16.032-32.253-24.43-70.631-24.43-104.771 0-99.467 82.801-175.929 181.991-175.929 96.814 0 176.119 81.133 176.119 179.044l33.818 110.107h-53.591v51.341c0 28.894-23.423 52.317-52.317 52.317h-61.287l-10.254 58.741h-191.976l14.743-61.141c8.905-36.931 4.093-75.691-12.816-109.709z" fill="#f2bb88"/><circle id="XMLID_1960_" cx="158.019" cy="158.018" fill="#f5737f" r="148.018"/><circle id="XMLID_1105_" cx="105.492" cy="218.553" fill="#ffcbbe" r="24"/><g id="XMLID_2046_"><g id="XMLID_2011_"><path id="XMLID_2022_" d="m208.846 293.823v-35.196h16.177c2.031-9.027 5.589-17.474 10.39-25.058l-11.447-11.447 24.887-24.887 11.449 11.449c7.584-4.799 16.03-8.355 25.056-10.384v-16.186h35.196v16.186c9.025 2.029 17.472 5.585 25.056 10.384l11.449-11.449 24.887 24.887-11.447 11.447c4.801 7.584 8.359 16.032 10.39 25.058h16.177v35.196h-16.172c-2.029 9.03-5.586 17.48-10.387 25.067l11.438 11.438-24.887 24.887-11.436-11.436c-7.587 4.803-16.039 8.362-25.069 10.393v16.164h-35.196v-16.164c-9.031-2.03-17.482-5.59-25.069-10.393l-11.436 11.436-24.887-24.887 11.438-11.438c-4.801-7.587-8.358-16.037-10.387-25.067z" fill="#91def5"/><path id="XMLID_2012_" d="m269.077 276.236c0-18.711 15.169-33.88 33.88-33.88s33.88 15.169 33.88 33.88-15.169 33.88-33.88 33.88-33.88-15.168-33.88-33.88z" fill="#fff"/></g><g id="XMLID_520_"><path id="XMLID_521_" d="m511.56 336.665-33.383-108.692c-.271-33.538-9.467-66.489-26.639-95.39-2.82-4.747-8.954-6.313-13.705-3.488-4.748 2.82-6.31 8.957-3.488 13.705 15.595 26.247 23.838 56.226 23.838 86.694 0 .995.148 1.984.44 2.936l29.845 97.171h-40.058c-5.522 0-10 4.478-10 10v51.342c0 23.333-18.983 42.316-42.316 42.316h-61.287c-4.859 0-9.016 3.493-9.851 8.28l-10.254 58.741c-.95 5.44 2.69 10.621 8.131 11.57.582.102 1.16.151 1.731.151 4.769 0 8.991-3.424 9.839-8.282l8.809-50.461h52.882c34.361 0 62.316-27.955 62.316-62.316v-41.342h43.591c3.173 0 6.157-1.506 8.042-4.057 1.886-2.551 2.449-5.846 1.517-8.878z"/><path id="XMLID_863_" d="m415.341 112.16c2.63 0 5.21-1.07 7.07-2.931 1.859-1.859 2.93-4.439 2.93-7.069 0-2.641-1.07-5.21-2.93-7.07s-4.44-2.93-7.07-2.93-5.21 1.069-7.07 2.93c-1.859 1.86-2.93 4.44-2.93 7.07s1.07 5.21 2.93 7.069c1.86 1.861 4.44 2.931 7.07 2.931z"/><path id="XMLID_864_" d="m196.468 190.711c1.953 1.952 4.512 2.929 7.071 2.929s5.118-.977 7.071-2.929c3.905-3.905 3.905-10.237 0-14.143l-7.071-7.071 7.071-7.071c3.905-3.905 3.905-10.237 0-14.143-3.906-3.904-10.236-3.904-14.143 0l-7.071 7.071-7.071-7.071c-3.906-3.904-10.236-3.904-14.143 0-3.905 3.905-3.905 10.237 0 14.143l7.071 7.071-7.071 7.071c-3.905 3.905-3.905 10.237 0 14.143 1.953 1.952 4.512 2.929 7.071 2.929s5.118-.977 7.071-2.929l7.071-7.071z"/><path id="XMLID_865_" d="m72.915 113.546c1.953 1.952 4.512 2.929 7.071 2.929s5.118-.977 7.071-2.929l7.071-7.071 7.071 7.071c1.953 1.952 4.512 2.929 7.071 2.929s5.118-.977 7.071-2.929c3.905-3.905 3.905-10.237 0-14.143l-7.071-7.071 7.071-7.071c3.905-3.905 3.905-10.237 0-14.143-3.906-3.904-10.236-3.904-14.143 0l-7.071 7.071-7.071-7.071c-3.906-3.904-10.236-3.904-14.143 0-3.905 3.905-3.905 10.237 0 14.143l7.071 7.071-7.071 7.071c-3.903 3.906-3.903 10.238.002 14.143z"/><path id="XMLID_868_" d="m214.722 113.352c1.953 1.952 4.512 2.929 7.071 2.929s5.118-.977 7.071-2.929l15.556-15.556c3.905-3.905 3.905-10.237 0-14.143l-15.556-15.557c-3.905-3.903-10.235-3.904-14.143 0-3.832 3.832-3.894 9.994-.206 13.915-55.342 7.598-101.268 48.255-114.921 103.065-15.946 2.801-28.104 16.741-28.104 33.478 0 18.748 15.252 34 34 34s34-15.252 34-34c0-13.719-8.171-25.557-19.898-30.925 11.939-44.129 48.496-77.104 92.913-85.059-1.434 3.6-.698 7.867 2.217 10.782zm-109.23 119.202c-7.72 0-14-6.28-14-14s6.28-14 14-14 14 6.28 14 14-6.28 14-14 14z"/><path id="XMLID_874_" d="m330.555 370.336v-8.537c4.607-1.483 9.082-3.339 13.394-5.553l6.04 6.04c3.906 3.904 10.236 3.904 14.143 0l24.887-24.887c3.905-3.905 3.905-10.236 0-14.142l-6.044-6.045c2.213-4.311 4.066-8.783 5.55-13.39h8.544c5.522 0 10-4.478 10-10v-35.196c0-5.522-4.478-10-10-10h-8.551c-1.483-4.604-3.337-9.074-5.55-13.383l6.051-6.051c3.905-3.905 3.905-10.237 0-14.143l-24.887-24.888c-1.875-1.875-4.419-2.929-7.071-2.929s-5.195 1.054-7.071 2.929l-6.055 6.055c-4.307-2.21-8.776-4.063-13.379-5.545v-8.56c0-5.522-4.478-10-10-10h-5.148c.414-4.682.629-9.395.629-14.096 0-36.672-12.559-70.464-33.599-97.307 3.207-.17 6.419-.261 9.626-.261 28.947 0 57.529 7.853 82.657 22.708 1.597.944 3.35 1.394 5.079 1.394 3.42 0 6.751-1.756 8.618-4.913 2.811-4.754 1.235-10.887-3.52-13.697-28.207-16.677-60.31-25.491-92.835-25.491-8.907 0-17.853.596-26.648 1.772-28.21-26.182-65.962-42.22-107.396-42.22-87.131 0-158.018 70.887-158.018 158.018 0 72.134 48.584 133.133 114.748 151.996 3.165 8.924 6.786 17.514 10.8 25.587 16.008 32.203 20.288 68.752 12.05 102.914l-14.743 61.142c-1.294 5.368 2.009 10.771 7.378 12.065.787.189 1.576.28 2.352.28 4.514 0 8.608-3.076 9.714-7.658l14.743-61.142c9.337-38.723 4.514-80.099-13.584-116.505-1.912-3.847-3.724-7.833-5.437-11.922 6.551.831 13.225 1.26 19.998 1.26 20.635 0 40.657-3.915 59.573-11.626 1.449 4.399 3.229 8.678 5.347 12.803l-6.044 6.044c-1.875 1.876-2.929 4.419-2.929 7.071s1.054 5.196 2.929 7.071l24.888 24.887c3.906 3.904 10.236 3.904 14.143 0l6.04-6.04c4.312 2.215 8.785 4.069 13.394 5.554v8.536c0 5.522 4.478 10 10 10h35.196c5.521.001 9.998-4.477 9.998-9.999zm-310.554-212.318c0-76.104 61.915-138.018 138.018-138.018s138.018 61.914 138.018 138.018c0 4.707-.261 9.422-.735 14.096h-9.943c-5.522 0-10 4.478-10 10v8.56c-4.603 1.481-9.072 3.335-13.379 5.545l-6.055-6.055c-3.906-3.904-10.236-3.904-14.143 0l-24.888 24.888c-3.905 3.905-3.905 10.237 0 14.143l6.051 6.051c-2.212 4.308-4.065 8.778-5.549 13.383h-8.552c-5.522 0-10 4.478-10 10v31.271c-13.146 4.072-26.822 6.136-40.826 6.136-76.102 0-138.017-61.915-138.017-138.018zm290.554 196.154v6.164h-15.196v-6.164c0-4.678-3.243-8.73-7.807-9.757-7.78-1.749-15.153-4.806-21.914-9.085-3.952-2.501-9.11-1.93-12.42 1.378l-4.364 4.365-10.745-10.745 4.367-4.367c3.308-3.308 3.88-8.466 1.379-12.418-4.276-6.759-7.331-14.131-9.08-21.912-1.026-4.564-5.079-7.808-9.757-7.808h-6.173v-15.196h6.178c4.677 0 8.729-3.241 9.756-7.805 1.751-7.78 4.807-15.149 9.083-21.905 2.502-3.953 1.93-9.112-1.378-12.42l-4.375-4.375 10.745-10.745 4.378 4.378c3.309 3.307 8.468 3.88 12.418 1.379 6.756-4.274 14.125-7.329 21.902-9.077 4.564-1.026 7.807-5.079 7.807-9.757v-6.187h15.196v6.187c0 4.678 3.242 8.73 7.807 9.757 7.777 1.748 15.146 4.803 21.902 9.077 3.951 2.502 9.109 1.93 12.418-1.379l4.378-4.378 10.745 10.745-4.376 4.375c-3.308 3.308-3.88 8.467-1.378 12.42 4.277 6.757 7.333 14.127 9.084 21.905 1.026 4.563 5.079 7.805 9.756 7.805h6.177v15.196h-6.173c-4.679 0-8.731 3.243-9.757 7.809-1.747 7.777-4.802 15.15-9.08 21.911-2.5 3.953-1.927 9.11 1.38 12.417l4.367 4.368-10.745 10.744-4.364-4.364c-3.31-3.309-8.467-3.88-12.42-1.378-6.761 4.279-14.135 7.336-21.914 9.085-4.563 1.026-7.807 5.079-7.807 9.757z"/><path id="XMLID_1031_" d="m302.957 232.356c-24.195 0-43.88 19.685-43.88 43.88s19.685 43.88 43.88 43.88 43.88-19.685 43.88-43.88-19.685-43.88-43.88-43.88zm0 67.76c-13.167 0-23.88-10.713-23.88-23.88s10.713-23.88 23.88-23.88 23.88 10.713 23.88 23.88-10.713 23.88-23.88 23.88z"/></g></g></g></svg>