<svg id="Layer_1" enable-background="new 0 0 512 512" height="512" viewBox="0 0 512 512" width="512" xmlns="http://www.w3.org/2000/svg"><g id="XMLID_1333_"><g id="XMLID_1755_"><circle id="XMLID_1151_" cx="122" cy="92.332" fill="#b0e7f8" r="22"/><path id="XMLID_2371_" d="m64 232h384v48h-384z" fill="#ffd89e"/><g id="XMLID_1356_"><path id="XMLID_1364_" d="m92 400c-45.287 0-82 36.713-82 82h164c0-45.287-36.713-82-82-82z" fill="#ffcb7c"/><path id="XMLID_1363_" d="m92 328c-17.673 0-32 14.327-32 32v8c0 17.673 14.327 32 32 32 17.673 0 32-14.327 32-32v-8c0-17.673-14.327-32-32-32z" fill="#ffbf9e"/></g><g id="XMLID_1414_"><path id="XMLID_1416_" d="m420 400c45.287 0 82 36.713 82 82h-164c0-45.287 36.713-82 82-82z" fill="#ffcb7c"/><path id="XMLID_1415_" d="m420 328c17.673 0 32 14.327 32 32v8c0 17.673-14.327 32-32 32-17.673 0-32-14.327-32-32v-8c0-17.673 14.327-32 32-32z" fill="#ffbf9e"/></g><g id="XMLID_1115_"><path id="XMLID_1164_" d="m256 400c45.287 0 82 36.713 82 82h-164c0-45.287 36.713-82 82-82z" fill="#91def5"/><path id="XMLID_1163_" d="m256 328c17.673 0 32 14.327 32 32v8c0 17.673-14.327 32-32 32-17.673 0-32-14.327-32-32v-8c0-17.673 14.327-32 32-32z" fill="#cc9e83"/></g><path id="XMLID_1540_" d="m256 127.391c-22.091 0-40-17.909-40-40v-17.391c0-22.091 17.909-40 40-40 22.091 0 40 17.909 40 40v17.391c0 22.092-17.909 40-40 40z" fill="#f2bb88"/><path id="XMLID_1538_" d="m299.164 127.391h-86.327c-35.808 0-64.836 29.028-64.836 64.836v39.773h216v-39.772c-.001-35.808-29.029-64.837-64.837-64.837z" fill="#f5737f"/></g><g id="XMLID_840_"><path id="XMLID_1051_" d="m451.619 395.599c6.456-7.387 10.381-17.04 10.381-27.599v-8c0-23.159-18.841-42-42-42s-42 18.841-42 42v8c0 10.559 3.925 20.212 10.381 27.599-21.878 8.032-39.884 24.151-50.381 44.715-10.497-20.564-28.503-36.683-50.381-44.715 6.456-7.387 10.381-17.04 10.381-27.599v-8c0-23.159-18.841-42-42-42s-42 18.841-42 42v8c0 10.559 3.925 20.212 10.381 27.599-21.878 8.032-39.884 24.151-50.381 44.715-10.497-20.564-28.503-36.683-50.381-44.715 6.456-7.387 10.381-17.04 10.381-27.599v-8c0-23.159-18.841-42-42-42s-42 18.841-42 42v8c0 10.559 3.925 20.212 10.381 27.599-35.2 12.922-60.381 46.776-60.381 86.401 0 5.522 4.478 10 10 10h492c5.522 0 10-4.478 10-10 0-39.625-25.181-73.479-60.381-86.401zm-53.619-27.599v-8c0-12.131 9.869-22 22-22s22 9.869 22 22v8c0 12.131-9.869 22-22 22s-22-9.869-22-22zm-164 0v-8c0-12.131 9.869-22 22-22s22 9.869 22 22v8c0 12.131-9.869 22-22 22s-22-9.869-22-22zm-164 0v-8c0-12.131 9.869-22 22-22s22 9.869 22 22v8c0 12.131-9.869 22-22 22s-22-9.869-22-22zm-49.308 104c4.882-34.985 34.999-62 71.308-62s66.426 27.015 71.308 62zm164 0c4.882-34.985 34.999-62 71.308-62s66.426 27.015 71.308 62zm164 0c4.882-34.985 34.999-62 71.308-62s66.426 27.015 71.308 62z"/><path id="XMLID_1097_" d="m64 290h147.001c5.522 0 10-4.478 10-10s-4.478-10-10-10h-137.001v-28h364v28h-136.998c-5.522 0-10 4.478-10 10s4.478 10 10 10h146.998c5.522 0 10-4.478 10-10v-48c0-5.522-4.478-10-10-10h-74v-29.772c0-41.265-33.571-74.836-74.836-74.836h-3.191c6.292-8.363 10.027-18.752 10.027-30v-17.392c0-27.57-22.43-50-50-50s-50 22.43-50 50v17.392c0 11.248 3.735 21.637 10.027 30h-3.191c-41.265 0-74.836 33.571-74.836 74.836v29.772h-64v-96.501c0-10.935 7.617-20.118 17.822-22.538 4.393 12.434 16.259 21.371 30.178 21.371 17.645 0 32-14.355 32-32s-14.355-32-32-32c-14.296 0-26.431 9.425-30.522 22.387-21.122 2.795-37.478 20.907-37.478 42.78v154.501c0 5.522 4.478 10 10 10zm58-209.668c6.617 0 12 5.383 12 12s-5.383 12-12 12-12-5.383-12-12 5.383-12 12-12zm104 7.06v-17.392c0-16.542 13.458-30 30-30s30 13.458 30 30v17.392c0 16.542-13.458 30-30 30s-30-13.458-30-30zm-68 104.836c0-30.236 24.6-54.836 54.836-54.836h33.164v17.964c0 5.522 4.478 10 10 10s10-4.478 10-10v-17.964h33.164c30.236 0 54.836 24.6 54.836 54.836v29.772h-196z"/><path id="XMLID_1100_" d="m248.93 272.93c-1.86 1.86-2.93 4.44-2.93 7.07s1.069 5.21 2.93 7.069c1.86 1.86 4.44 2.931 7.07 2.931s5.21-1.07 7.069-2.931c1.861-1.859 2.931-4.439 2.931-7.069s-1.07-5.21-2.931-7.07c-1.859-1.86-4.439-2.93-7.069-2.93s-5.21 1.069-7.07 2.93z"/></g></g></svg>