<svg id="Layer_1" enable-background="new 0 0 512.82 512.82" height="512" viewBox="0 0 512.82 512.82" width="512" xmlns="http://www.w3.org/2000/svg"><g id="XMLID_919_"><path id="XMLID_2025_" d="m391.798 395.201v-49.504h-21.567c-2.896-13.011-8.021-25.181-14.96-36.087l15.259-15.259-35.005-35.005-15.262 15.262c-10.905-6.935-23.074-12.057-36.083-14.951v-21.58h-49.504v21.58c-13.009 2.893-25.178 8.015-36.083 14.951l-15.262-15.262-35.005 35.005 15.259 15.259c-6.939 10.906-12.064 23.076-14.96 36.087h-21.567v49.504h21.56c2.893 13.015 8.016 25.19 14.954 36.099l-15.246 15.246 35.005 35.005 15.242-15.242c10.91 6.942 23.086 12.068 36.103 14.963v21.547h49.504v-21.547c13.017-2.895 25.193-8.021 36.103-14.963l15.242 15.242 35.005-35.005-15.246-15.246c6.938-10.909 12.061-23.084 14.954-36.099zm-132.371 37.767c-34.519 0-62.503-27.984-62.503-62.503s27.983-62.503 62.503-62.503 62.503 27.983 62.503 62.503-27.983 62.503-62.503 62.503z" fill="#91def5"/><g id="XMLID_1357_"><g id="XMLID_1700_"><g id="XMLID_1702_"><path id="XMLID_85_" d="m402.931 234.722-97.861-97.861-37.51-57.9c-22.136-13.938-47.932-21.503-74.507-21.503l-115.433 129.557 186.509 186.509c9.583 9.582 25.118 9.582 34.701 0 9.582-9.582 9.582-25.118 0-34.701 9.582 9.582 25.118 9.582 34.7 0 9.582-9.582 9.582-25.118 0-34.701 9.582 9.582 25.118 9.582 34.7 0 9.582-9.582 9.582-25.118 0-34.701 9.582 9.582 25.118 9.582 34.7 0 9.584-9.581 9.584-25.117.001-34.699z" fill="#ffcbbe"/><g id="XMLID_1705_" fill="#fff"><path id="XMLID_2018_" d="m110.051 223.487 19.368-19.368c9.582-9.582 25.118-9.582 34.701 0 9.582 9.582 9.582 25.118 0 34.701l-19.368 19.368c-9.582 9.582-25.118 9.582-34.701 0-9.582-9.582-9.582-25.118 0-34.701z"/><path id="XMLID_2017_" d="m144.751 258.188 19.368-19.368c9.582-9.582 25.118-9.582 34.701 0 9.582 9.582 9.582 25.118 0 34.701l-19.368 19.368c-9.582 9.582-25.118 9.582-34.701 0-9.582-9.583-9.582-25.119 0-34.701z"/><path id="XMLID_2016_" d="m179.452 292.888 19.368-19.368c9.582-9.582 25.118-9.582 34.701 0 9.582 9.582 9.582 25.118 0 34.701l-19.368 19.368c-9.582 9.582-25.118 9.582-34.701 0-9.582-9.582-9.582-25.118 0-34.701z"/><path id="XMLID_2015_" d="m214.152 327.589 19.368-19.368c9.582-9.582 25.118-9.582 34.701 0 9.582 9.582 9.582 25.118 0 34.701l-19.368 19.368c-9.582 9.582-25.118 9.582-34.701 0-9.582-9.583-9.582-25.119 0-34.701z"/><path id="XMLID_2014_" d="m110.051 223.487 19.368-19.368c9.582-9.582 25.118-9.582 34.701 0 9.582 9.582 9.582 25.118 0 34.701l-19.368 19.368c-9.582 9.582-25.118 9.582-34.701 0-9.582-9.582-9.582-25.118 0-34.701z"/><path id="XMLID_1884_" d="m144.751 258.188 19.368-19.368c9.582-9.582 25.118-9.582 34.701 0 9.582 9.582 9.582 25.118 0 34.701l-19.368 19.368c-9.582 9.582-25.118 9.582-34.701 0-9.582-9.583-9.582-25.119 0-34.701z"/><path id="XMLID_1707_" d="m179.452 292.888 19.368-19.368c9.582-9.582 25.118-9.582 34.701 0 9.582 9.582 9.582 25.118 0 34.701l-19.368 19.368c-9.582 9.582-25.118 9.582-34.701 0-9.582-9.582-9.582-25.118 0-34.701z"/><path id="XMLID_1706_" d="m214.152 327.589 19.368-19.368c9.582-9.582 25.118-9.582 34.701 0 9.582 9.582 9.582 25.118 0 34.701l-19.368 19.368c-9.582 9.582-25.118 9.582-34.701 0-9.582-9.583-9.582-25.119 0-34.701z"/></g><path id="XMLID_1703_" d="m402.931 234.722 39.987-39.987-119.526-120.179h-21.039c-37.085 0-72.651 14.732-98.874 40.955-10.688 10.688-10.688 28.016 0 38.704 10.688 10.688 28.016 10.688 38.704 0l17.262-17.262h45.625z" fill="#f2bb88"/></g></g><g id="XMLID_1571_"><g id="XMLID_1388_" fill="#f2bb88"><path id="XMLID_1406_" d="m110.051 223.487 19.368-19.368c9.582-9.582 25.118-9.582 34.701 0 9.582 9.582 9.582 25.118 0 34.701l-19.368 19.368c-9.582 9.582-25.118 9.582-34.701 0-9.582-9.582-9.582-25.118 0-34.701z"/><path id="XMLID_1402_" d="m144.751 258.188 19.368-19.368c9.582-9.582 25.118-9.582 34.701 0 9.582 9.582 9.582 25.118 0 34.701l-19.368 19.368c-9.582 9.582-25.118 9.582-34.701 0-9.582-9.583-9.582-25.119 0-34.701z"/><path id="XMLID_1386_" d="m179.452 292.888 19.368-19.368c9.582-9.582 25.118-9.582 34.701 0 9.582 9.582 9.582 25.118 0 34.701l-19.368 19.368c-9.582 9.582-25.118 9.582-34.701 0-9.582-9.582-9.582-25.118 0-34.701z"/><path id="XMLID_1385_" d="m214.152 327.589 19.368-19.368c9.582-9.582 25.118-9.582 34.701 0 9.582 9.582 9.582 25.118 0 34.701l-19.368 19.368c-9.582 9.582-25.118 9.582-34.701 0-9.582-9.583-9.582-25.119 0-34.701z"/></g><path id="XMLID_2843_" d="m438.432 190.248-120.187-120.187c-7.651-7.651-7.651-20.055 0-27.706l26.631-26.631c7.651-7.651 20.055-7.651 27.706 0l120.187 120.187c7.651 7.651 7.651 20.055 0 27.706l-26.631 26.631c-7.651 7.651-20.055 7.651-27.706 0z" fill="#f6838d"/><path id="XMLID_1830_" d="m74.388 190.248 120.187-120.187c7.651-7.651 7.651-20.055 0-27.706l-26.631-26.631c-7.651-7.651-20.055-7.651-27.706 0l-120.187 120.187c-7.651 7.651-7.651 20.055 0 27.706l26.631 26.631c7.65 7.651 20.055 7.651 27.706 0z" fill="#ffcb7c"/></g></g><g id="XMLID_82_"><path id="XMLID_109_" d="m499.84 128.84-120.187-120.187c-11.537-11.537-30.31-11.537-41.848 0l-26.63 26.631c-7.911 7.911-10.396 19.223-7.458 29.272h-1.363c-11.311 0-22.43 1.247-33.202 3.672-18.314-10.793-38.803-17.578-59.915-19.879-1.311-4.788-3.835-9.311-7.59-13.066l-26.63-26.631c-11.538-11.536-30.311-11.538-41.848 0l-28.274 28.273c-3.905 3.905-3.905 10.237 0 14.142 3.906 3.906 10.238 3.905 14.142 0l28.274-28.273c1.812-1.812 4.22-2.81 6.782-2.81s4.97.998 6.782 2.81l26.631 26.631c3.74 3.739 3.74 9.824 0 13.563l-120.189 120.189c-3.74 3.74-9.826 3.739-13.564 0l-26.631-26.631c-1.812-1.812-2.81-4.22-2.81-6.782s.998-4.97 2.81-6.782l28.273-28.274c3.905-3.905 3.905-10.237 0-14.142s-10.237-3.905-14.142 0l-28.273 28.274c-11.537 11.537-11.537 30.311 0 41.848l26.631 26.63c5.77 5.77 13.346 8.654 20.924 8.653 4.905-.001 9.809-1.217 14.224-3.635l22.198 22.198c-6.988 13.068-4.984 29.716 6.023 40.724 6.523 6.523 15.196 10.115 24.421 10.115.062 0 .122-.004.184-.004-.043 8.9 3.32 17.814 10.095 24.59 4.259 4.259 9.364 7.167 14.778 8.731-4.938 8.531-8.823 17.569-11.583 27.005h-13.819c-5.523 0-10 4.477-10 10v49.505c0 5.523 4.477 10 10 10h13.81c2.488 8.519 5.885 16.717 10.153 24.508l-9.766 9.766c-3.905 3.905-3.905 10.237 0 14.143l35.005 35.004c1.875 1.875 4.419 2.929 7.071 2.929s5.196-1.054 7.071-2.929l9.761-9.761c7.792 4.271 15.994 7.67 24.513 10.161v13.798c0 5.523 4.477 10 10 10h49.504c5.523 0 10-4.477 10-10v-13.798c8.52-2.49 16.722-5.89 24.513-10.161l9.761 9.761c3.905 3.906 10.237 3.906 14.143 0l35.005-35.004c1.875-1.875 2.929-4.419 2.929-7.071s-1.054-5.196-2.929-7.071l-9.766-9.766c4.268-7.791 7.665-15.989 10.154-24.508h13.809c5.523 0 10-4.477 10-10v-49.505c0-5.523-4.477-10-10-10h-13.819c-2.035-6.955-4.693-13.698-7.922-20.187 1.865-1.25 3.623-2.692 5.246-4.315 6.775-6.776 10.138-15.689 10.095-24.589.062 0 .122.004.184.004 9.225 0 17.898-3.593 24.421-10.116s10.116-15.196 10.116-24.421c0-5.787-1.416-11.357-4.08-16.315l30.373-30.373c1.937.389 3.905.589 5.873.589 7.578 0 15.155-2.884 20.924-8.653l26.631-26.63c11.538-11.539 11.538-30.313.001-41.85zm-181.242-44.284 110.178 110.179-25.845 25.845-90.79-90.79c-1.876-1.876-4.419-2.929-7.071-2.929-.007 0-.014 0-.02 0l-45.625.092c-2.646.005-5.181 1.059-7.051 2.929l-17.262 17.262c-3.28 3.28-7.642 5.087-12.281 5.087-4.64 0-9.001-1.807-12.281-5.087-6.771-6.772-6.771-17.791 0-24.563 24.522-24.521 57.125-38.026 91.803-38.026h16.245zm-201.476 166.561c-5.668-5.668-5.668-14.89 0-20.558.002-.002.003-.003.005-.005l19.363-19.363c2.834-2.834 6.557-4.251 10.28-4.251 3.722 0 7.445 1.417 10.279 4.251 5.668 5.668 5.668 14.89 0 20.558l-19.368 19.368c-5.668 5.668-14.892 5.668-20.559 0zm34.701 14.142 19.368-19.368c2.834-2.834 6.556-4.251 10.279-4.251 3.722 0 7.445 1.417 10.279 4.251 5.668 5.668 5.668 14.891 0 20.559l-19.368 19.368c-5.667 5.668-14.89 5.668-20.558 0-5.668-5.669-5.668-14.891 0-20.559zm55.123 103.959c.046.047.089.096.135.143 6.523 6.523 15.196 10.116 24.421 10.116 6.796 0 13.288-1.956 18.846-5.59l6.709 6.709c6.733 6.733 15.578 10.099 24.422 10.099s17.688-3.366 24.421-10.099c2.434-2.434 4.422-5.148 5.976-8.034-1.105 27.981-24.202 50.407-52.45 50.407-28.95 0-52.503-23.553-52.503-52.503.002-.417.013-.833.023-1.248zm84.813-2.765c-5.668 5.668-14.891 5.667-20.558 0l-6.184-6.184 10.275-10.276c3.612-3.611 6.32-7.883 8.023-12.542l8.444 8.444c5.668 5.668 5.668 14.89 0 20.558zm-30.609-51.161c2.746 2.746 4.258 6.396 4.258 10.279s-1.512 7.533-4.258 10.279l-19.368 19.368c-2.746 2.746-6.396 4.258-10.279 4.258s-7.533-1.512-10.279-4.258c-5.668-5.668-5.668-14.89 0-20.558l19.368-19.368c2.833-2.834 6.556-4.251 10.279-4.251s7.445 1.417 10.279 4.251zm-34.701-14.143-19.368 19.368c-5.668 5.668-14.891 5.668-20.558 0-5.668-5.667-5.668-14.89 0-20.558l19.368-19.369c2.746-2.746 6.396-4.258 10.279-4.258s7.534 1.512 10.279 4.258c5.668 5.669 5.668 14.892 0 20.559zm155.349 54.548v29.505h-11.56c-4.687 0-8.745 3.255-9.762 7.83-2.601 11.7-7.187 22.771-13.631 32.902-2.515 3.954-1.947 9.125 1.367 12.438l8.175 8.175-20.863 20.863-8.171-8.171c-3.314-3.315-8.486-3.882-12.439-1.366-10.133 6.448-21.205 11.037-32.906 13.639-4.575 1.018-7.829 5.075-7.829 9.762v11.547h-29.504v-11.547c0-4.687-3.254-8.744-7.829-9.762-11.701-2.602-22.772-7.191-32.906-13.639-3.955-2.516-9.126-1.947-12.439 1.366l-8.171 8.171-20.863-20.863 8.175-8.175c3.313-3.314 3.881-8.484 1.367-12.438-6.444-10.132-11.03-21.202-13.63-32.902-1.017-4.575-5.075-7.831-9.762-7.831h-11.56v-29.505h11.567c4.686 0 8.743-3.253 9.761-7.827 1.699-7.633 4.258-14.99 7.611-22.001 1.631 3.206 3.767 6.174 6.384 8.791 5.452 5.452 12.289 8.695 19.389 9.732-3.186 8.272-4.845 17.105-4.845 26.073 0 39.978 32.525 72.503 72.503 72.503s72.503-32.525 72.503-72.503c0-5.874-.711-11.655-2.089-17.282 3.909-1.679 7.573-4.102 10.76-7.289 6.699-6.7 10.063-15.489 10.096-24.289 4.44 8.274 7.729 17.083 9.772 26.264 1.018 4.574 5.075 7.828 9.761 7.828h11.568zm14.062-93.345c-2.746 2.746-6.396 4.258-10.279 4.258s-7.534-1.512-10.279-4.258l-85.827-85.827c-3.905-3.905-10.237-3.905-14.143 0-3.905 3.905-3.905 10.237 0 14.143l85.827 85.827c2.746 2.746 4.258 6.396 4.258 10.279s-1.512 7.533-4.258 10.279c-2.745 2.746-6.396 4.258-10.279 4.258-3.881 0-7.531-1.511-10.276-4.255-.001-.001-.002-.002-.003-.003l-85.828-85.827c-3.905-3.905-10.237-3.904-14.143 0-3.905 3.905-3.905 10.237 0 14.143l85.827 85.827c5.668 5.667 5.668 14.89 0 20.558s-14.891 5.669-20.559 0l-30.606-30.606c-.039-.039-.083-.072-.123-.111-6.765-6.701-15.632-10.028-24.486-9.981.047-8.905-3.315-17.825-10.095-24.605-6.523-6.523-15.197-10.116-24.422-10.116-.062 0-.122.004-.184.004.043-8.9-3.32-17.814-10.095-24.589-6.78-6.78-15.7-10.142-24.606-10.095.047-8.905-3.315-17.826-10.095-24.605-13.466-13.465-35.376-13.465-48.843 0l-12.296 12.297-20.309-20.309 111.908-111.906c2.626-2.627 4.648-5.631 6.079-8.836 11.82 1.349 23.404 4.333 34.397 8.818-16.837 7.393-32.321 17.934-45.715 31.327-14.569 14.57-14.569 38.276 0 52.847 14.571 14.57 38.277 14.569 52.847 0l14.341-14.341 37.341-.076 94.924 94.924c2.746 2.746 4.258 6.396 4.258 10.279s-1.512 7.531-4.258 10.278zm89.838-105.806-26.631 26.631c-3.739 3.74-9.823 3.74-13.564 0l-120.187-120.187c-3.74-3.74-3.74-9.825 0-13.564l26.631-26.631c1.812-1.812 4.22-2.81 6.782-2.81s4.97.998 6.782 2.81l120.187 120.187c1.812 1.812 2.81 4.22 2.81 6.782s-.998 4.97-2.81 6.782z"/><path id="XMLID_124_" d="m80.14 85.823c2.63 0 5.21-1.07 7.08-2.93 1.86-1.87 2.92-4.44 2.92-7.08 0-2.63-1.06-5.2-2.92-7.07-1.87-1.86-4.44-2.92-7.08-2.92-2.63 0-5.21 1.06-7.07 2.92-1.86 1.87-2.92 4.44-2.92 7.07 0 2.64 1.06 5.21 2.92 7.08 1.86 1.859 4.44 2.93 7.07 2.93z"/></g></g></svg>