<svg id="Layer_1" enable-background="new 0 0 512.002 512.002" height="512" viewBox="0 0 512.002 512.002" width="512" xmlns="http://www.w3.org/2000/svg"><g id="XMLID_1527_"><g id="XMLID_1550_"><path id="XMLID_1542_" d="m34.43 310.925c-16.032-32.253-24.43-70.631-24.43-104.771 0-99.467 82.801-175.929 181.991-175.929 96.814 0 176.119 81.133 176.119 179.044l33.818 110.107h-53.591v51.341c0 28.894-23.423 52.317-52.317 52.317h-61.287l-10.253 58.741h-191.976l14.743-61.141c8.905-36.931 4.093-75.692-12.817-109.709z" fill="#ffbf9e"/><path id="XMLID_2620_" d="m199.919 286.422v-34.647h23.143c10.911 0 19.756-8.845 19.756-19.756v-19.388h20.237l-12.77-41.579c0-36.974-29.674-67.016-66.506-67.611-37.451-.605-68.087 28.984-68.723 66.434v91.615z" fill="#ffcbbe"/><path id="XMLID_1541_" d="m502 303.574-249.75-130 249.75-130z" fill="#91def5"/><g id="XMLID_98_"><path id="XMLID_99_" d="m20 206.153c0-28.313 6.935-55.021 20.611-79.381 2.704-4.816.991-10.912-3.824-13.615-4.816-2.702-10.912-.993-13.615 3.824-15.159 27.001-23.172 57.837-23.172 89.172 0 36.842 9.286 76.652 25.476 109.222 16.009 32.204 20.288 68.752 12.05 102.914l-14.743 61.142c-1.294 5.369 2.009 10.771 7.378 12.065.787.19 1.576.281 2.352.281 4.514 0 8.609-3.077 9.714-7.658l14.743-61.142c9.338-38.724 4.514-80.099-13.583-116.504-14.864-29.898-23.387-66.463-23.387-100.32z"/><path id="XMLID_111_" d="m506.617 294.704-232.709-121.13 232.709-121.13c4.898-2.55 6.803-8.588 4.253-13.487-2.55-4.898-8.588-6.805-13.487-4.253l-146.714 76.367c-33.977-56.25-93.979-90.847-158.678-90.847-36.729 0-72.44 10.01-103.273 28.949-4.706 2.891-6.178 9.049-3.287 13.755 2.89 4.705 9.049 6.178 13.754 3.287 27.684-17.003 59.775-25.991 92.807-25.991 57.25 0 110.421 30.473 140.9 80.101l-73.594 38.307c-2.532-15.812-9.884-30.425-21.329-42.045-14.375-14.595-33.563-22.814-54.029-23.145-20.771-.341-40.414 7.391-55.277 21.754-14.869 14.37-23.253 33.728-23.606 54.509 0 .057-.001.113-.001.17v91.615c0 4.438 2.924 8.344 7.182 9.595l84.864 24.931c.926.272 1.875.405 2.817.405 2.136 0 4.243-.685 5.993-1.994 2.522-1.888 4.008-4.855 4.008-8.006v-24.647h13.144c16.407 0 29.756-13.349 29.756-29.756v-9.388h10.236c3.173 0 6.157-1.505 8.042-4.057 1.886-2.552 2.449-5.847 1.518-8.879l-5.208-16.959 101.372 52.766 19.618 63.873h-40.059c-5.522 0-10 4.477-10 10v51.341c0 23.333-18.983 42.316-42.316 42.316h-61.287c-4.859 0-9.016 3.494-9.851 8.28l-10.254 58.742c-.95 5.441 2.69 10.621 8.131 11.571.582.102 1.16.15 1.731.15 4.769 0 8.991-3.423 9.839-8.282l8.809-50.461h52.882c34.361 0 62.316-27.955 62.316-62.316v-41.341h43.591c3.173 0 6.157-1.505 8.042-4.057 1.886-2.551 2.449-5.846 1.518-8.879l-17.806-57.974 103.701 53.979c1.476.768 3.054 1.132 4.608 1.132 3.61 0 7.097-1.961 8.879-5.385 2.548-4.897.644-10.936-4.255-13.486zm-263.799-92.072c-5.522 0-10 4.477-10 10v19.388c0 5.379-4.377 9.756-9.756 9.756h-23.144c-5.522 0-10 4.477-10 10v21.287l-64.864-19.055v-84.042c.583-31.687 26.789-57.012 58.563-56.524 31.247.505 56.668 26.35 56.668 57.612 0 .995.148 1.984.44 2.936l8.797 28.643h-6.704z"/></g></g><g id="XMLID_1529_"><g id="XMLID_1531_"><path id="XMLID_122_" d="m58.83 95.83c-2.641 0-5.21-1.07-7.07-2.93-1.86-1.87-2.93-4.44-2.93-7.07 0-2.64 1.069-5.21 2.93-7.08 1.86-1.86 4.43-2.93 7.07-2.93 2.63 0 5.21 1.07 7.069 2.93 1.86 1.87 2.931 4.44 2.931 7.08 0 2.63-1.07 5.2-2.931 7.07-1.859 1.859-4.439 2.93-7.069 2.93z"/></g></g></g></svg>