<svg id="Layer_1" enable-background="new 0 0 512 512" height="512" viewBox="0 0 512 512" width="512" xmlns="http://www.w3.org/2000/svg"><g id="XMLID_1877_"><g id="XMLID_1366_"><g id="XMLID_1449_"><path id="XMLID_1451_" d="m353.946 124.123 48.667 48.667 10.789-10.79c13.439-13.439 13.439-35.228 0-48.667-13.439-13.439-35.228-13.439-48.667 0z" fill="#b0e7f8"/><path id="XMLID_1450_" d="m346.083 139.419h37.72v44.747h-37.72z" fill="#b5bcc9" transform="matrix(.707 -.707 .707 .707 -7.515 305.442)"/></g><g id="XMLID_1453_"><path id="XMLID_1455_" d="m79.525 124.123-48.667 48.667-10.789-10.79c-13.439-13.439-13.439-35.228 0-48.667 13.439-13.439 35.228-13.439 48.667 0z" fill="#b0e7f8"/><path id="XMLID_1454_" d="m46.154 142.932h44.747v37.72h-44.747z" fill="#b5bcc9" transform="matrix(.707 -.707 .707 .707 -94.333 95.844)"/></g><path id="XMLID_1447_" d="m156.735 10h120v64h-120z" fill="#91def5"/><path id="XMLID_1446_" d="m180.735 74h72v44.065h-72z" fill="#b5bcc9"/><circle id="XMLID_1383_" cx="216.735" cy="310" fill="#91def5" r="192"/><circle id="XMLID_1382_" cx="216.735" cy="310" fill="#fff" r="148"/><circle id="XMLID_1381_" cx="216.735" cy="310" fill="#f6838d" r="20"/></g><circle id="XMLID_1474_" cx="419.989" cy="420" fill="#d8ec84" r="82"/><g id="XMLID_129_"><path id="XMLID_165_" d="m295.973 244.905c3.905-3.905 3.905-10.237 0-14.143-3.906-3.905-10.236-3.905-14.143 0l-52.169 52.169c-3.917-1.878-8.3-2.931-12.926-2.931-16.542 0-30 13.458-30 30s13.458 30 30 30 30-13.458 30-30c0-4.626-1.054-9.01-2.932-12.926zm-79.238 75.095c-5.514 0-10-4.486-10-10s4.486-10 10-10 10 4.486 10 10-4.486 10-10 10z"/><path id="XMLID_841_" d="m216.739 211.79c2.63 0 5.21-1.07 7.069-2.93 1.86-1.86 2.931-4.44 2.931-7.07s-1.07-5.21-2.931-7.07c-1.869-1.86-4.439-2.93-7.069-2.93-2.641 0-5.21 1.07-7.08 2.93-1.86 1.86-2.92 4.44-2.92 7.07s1.06 5.21 2.92 7.07 4.44 2.93 7.08 2.93z"/><path id="XMLID_870_" d="m216.739 408.21c-2.641 0-5.21 1.06-7.08 2.93-1.86 1.86-2.92 4.44-2.92 7.07s1.06 5.21 2.92 7.07 4.439 2.93 7.08 2.93c2.63 0 5.21-1.07 7.069-2.93 1.86-1.86 2.931-4.44 2.931-7.07s-1.07-5.21-2.931-7.07c-1.868-1.87-4.439-2.93-7.069-2.93z"/><path id="XMLID_923_" d="m332.009 302.93c-1.859-1.86-4.43-2.93-7.069-2.93-2.631 0-5.21 1.07-7.07 2.93s-2.93 4.44-2.93 7.07 1.069 5.21 2.93 7.07 4.439 2.93 7.07 2.93c2.64 0 5.21-1.07 7.069-2.93 1.87-1.86 2.931-4.44 2.931-7.07s-1.061-5.21-2.931-7.07z"/><path id="XMLID_925_" d="m108.529 300c-2.641 0-5.21 1.07-7.07 2.93s-2.93 4.44-2.93 7.07 1.069 5.21 2.93 7.07 4.44 2.93 7.07 2.93 5.21-1.07 7.069-2.93c1.86-1.86 2.931-4.44 2.931-7.07s-1.07-5.21-2.931-7.07c-1.859-1.86-4.439-2.93-7.069-2.93z"/><path id="XMLID_926_" d="m293.249 376.51c-2.63 0-5.21 1.07-7.07 2.93-1.859 1.86-2.93 4.44-2.93 7.08 0 2.63 1.07 5.21 2.93 7.07s4.44 2.93 7.07 2.93 5.21-1.07 7.07-2.93c1.859-1.86 2.93-4.44 2.93-7.07 0-2.64-1.07-5.22-2.93-7.08s-4.44-2.93-7.07-2.93z"/><path id="XMLID_929_" d="m140.219 223.48c-2.63 0-5.21 1.07-7.069 2.93-1.86 1.87-2.931 4.44-2.931 7.08 0 2.63 1.07 5.21 2.931 7.07 1.859 1.86 4.439 2.92 7.069 2.92s5.21-1.06 7.07-2.92c1.86-1.87 2.93-4.44 2.93-7.07 0-2.64-1.069-5.21-2.93-7.08-1.86-1.86-4.44-2.93-7.07-2.93z"/><path id="XMLID_1008_" d="m140.219 376.52c-2.63 0-5.21 1.06-7.069 2.92-1.86 1.86-2.931 4.44-2.931 7.07 0 2.64 1.07 5.22 2.931 7.08 1.859 1.86 4.439 2.93 7.069 2.93s5.21-1.07 7.07-2.93c1.86-1.87 2.93-4.44 2.93-7.08 0-2.63-1.069-5.2-2.93-7.07-1.86-1.86-4.44-2.92-7.07-2.92z"/><path id="XMLID_1014_" d="m419.989 328c-.688 0-1.373.011-2.057.026.529-5.987.803-12.014.803-18.026 0-44.032-14.171-84.812-38.179-118.038l13.543-13.543 1.442 1.442c1.876 1.875 4.419 2.929 7.071 2.929s5.196-1.054 7.071-2.929l10.789-10.789c8.389-8.389 13.008-19.542 13.008-31.404 0-11.863-4.619-23.016-13.008-31.404-8.389-8.389-19.541-13.008-31.404-13.008s-23.016 4.62-31.403 13.008l-10.79 10.789c-1.876 1.875-2.93 4.419-2.93 7.071s1.054 5.196 2.929 7.071l1.442 1.442-13.543 13.543c-21.289-15.382-45.676-26.727-72.038-32.89v-29.29h14c5.522 0 10-4.477 10-10v-64c0-5.523-4.478-10-10-10h-120c-5.522 0-10 4.477-10 10v64c0 5.523 4.478 10 10 10h14v29.289c-26.362 6.163-50.749 17.508-72.038 32.891l-13.543-13.544 1.442-1.442c3.905-3.905 3.905-10.237 0-14.142l-10.789-10.789c-17.316-17.315-45.493-17.316-62.81 0-17.315 17.316-17.315 45.492 0 62.809l10.79 10.79c1.953 1.953 4.512 2.929 7.071 2.929s5.118-.977 7.071-2.929l1.442-1.442 13.543 13.543c-24.007 33.225-38.179 74.005-38.179 118.037 0 37.358 10.279 73.851 29.728 105.534 1.888 3.075 5.17 4.77 8.532 4.77 1.783 0 3.59-.478 5.222-1.479 4.707-2.889 6.181-9.047 3.291-13.754-17.515-28.533-26.773-61.408-26.773-95.071 0-100.355 81.645-182 182-182s182 81.645 182 182c0 6.938-.395 13.898-1.174 20.77-9.328 2.345-18.093 6.119-26.051 11.074 2.114-10.289 3.225-20.939 3.225-31.844 0-87.122-70.879-158-158-158s-158 70.878-158 158 70.879 158 158 158c43.365 0 82.701-17.565 111.28-45.948.215 9.763 1.959 19.155 5.001 27.948-32.627 27.126-73.655 42-116.281 42-33.719 0-66.641-9.287-95.207-26.857-4.704-2.893-10.863-1.426-13.757 3.279-2.894 4.704-1.426 10.863 3.278 13.757 31.721 19.509 68.267 29.821 105.686 29.821 45.618 0 89.591-15.351 125.147-43.443 16.261 26.062 45.191 43.443 78.107 43.443 50.729 0 92-41.271 92-92s-41.271-92-92-92zm-48.182-207.596c4.61-4.611 10.741-7.15 17.262-7.15s12.651 2.539 17.262 7.15 7.15 10.741 7.15 17.262-2.539 12.651-7.15 17.262l-3.718 3.718s-1.438-1.439-1.441-1.442l-31.641-31.641c-.003-.003-1.442-1.441-1.442-1.441zm-9.348 26.374 17.498 17.498-11.98 11.979c-5.473-6.182-11.317-12.025-17.498-17.498zm-195.724-126.778h100v44h-100zm-139.595 100.405c4.76-4.76 11.01-7.139 17.263-7.139 6.25 0 12.503 2.38 17.262 7.139l3.719 3.718-34.524 34.525-3.719-3.718c-9.52-9.519-9.52-25.007-.001-34.525zm26.373 43.872 17.499-17.499 11.98 11.98c-6.182 5.473-12.026 11.317-17.499 17.499zm137.222-54.608v-25.669h52v25.669c-8.514-1.099-17.192-1.669-26-1.669s-17.485.57-26 1.669zm26 338.331c-76.094 0-138-61.907-138-138s61.906-138 138-138 138 61.907 138 138-61.906 138-138 138zm203.254 44c-39.701 0-72-32.299-72-72s32.299-72 72-72 72 32.299 72 72-32.298 72-72 72z"/><path id="XMLID_1358_" d="m441.66 394.728-29.331 29.332-14.011-14.011c-3.906-3.905-10.236-3.905-14.143 0-3.905 3.905-3.905 10.237 0 14.143l21.082 21.082c1.953 1.953 4.512 2.929 7.071 2.929s5.118-.976 7.071-2.929l36.402-36.402c3.905-3.905 3.905-10.237 0-14.143-3.904-3.907-10.234-3.907-14.141-.001z"/><path id="XMLID_1359_" d="m80.999 435.74c-2.63 0-5.21 1.06-7.07 2.92-1.859 1.86-2.93 4.44-2.93 7.08 0 2.63 1.07 5.21 2.93 7.07s4.44 2.92 7.07 2.92 5.21-1.06 7.07-2.92c1.859-1.87 2.93-4.44 2.93-7.07 0-2.64-1.07-5.21-2.93-7.08-1.86-1.86-4.44-2.92-7.07-2.92z"/></g></g></svg>