<svg id="Layer_1" enable-background="new 0 0 512 512" height="512" viewBox="0 0 512 512" width="512" xmlns="http://www.w3.org/2000/svg"><g id="XMLID_1648_"><circle id="XMLID_2826_" cx="420" cy="92" fill="#d8ec84" r="82"/><circle id="XMLID_2795_" cx="92" cy="92" fill="#f6838d" r="82"/><g id="XMLID_1255_"><path id="XMLID_1448_" d="m256 350c-34.242 0-62-27.758-62-62v-46.05c0-34.242 27.758-62 62-62 34.242 0 62 27.758 62 62v46.05c0 34.241-27.758 62-62 62z" fill="#ffbf9e"/><path id="XMLID_1672_" d="m256 179.95c-34.242 0-62 27.758-62 62v10.1h10.043c18.669 0 36.685-5.501 51.957-15.495 15.272 9.994 33.288 15.495 51.957 15.495h10.043v-10.1c0-34.242-27.758-62-62-62z" fill="#8690a6"/><path id="XMLID_2790_" d="m318.719 350h-125.438c-51.518 0-93.281 41.763-93.281 93.28v58.72h312v-58.72c0-51.517-41.763-93.28-93.281-93.28z" fill="#91def5"/><path id="XMLID_2782_" d="m318.719 350-62.719 152-62.719-152z" fill="#fff"/></g><g id="XMLID_179_"><path id="XMLID_200_" d="m512 92c0-50.729-41.271-92-92-92s-92 41.271-92 92c0 47.35 35.958 86.454 82 91.455v94.545h-41c-5.522 0-10 4.477-10 10s4.478 10 10 10h51c5.522 0 10-4.477 10-10v-104.545c46.042-5.001 82-44.105 82-91.455zm-92 72c-39.701 0-72-32.299-72-72s32.299-72 72-72 72 32.299 72 72-32.299 72-72 72z"/><path id="XMLID_204_" d="m441.671 66.728-29.331 29.331-14.011-14.011c-3.906-3.905-10.236-3.905-14.143 0-3.905 3.905-3.905 10.237 0 14.143l21.082 21.082c1.876 1.875 4.419 2.929 7.071 2.929s5.195-1.054 7.071-2.929l36.402-36.403c3.905-3.905 3.905-10.237 0-14.142-3.905-3.906-10.235-3.906-14.141 0z"/><path id="XMLID_205_" d="m124.922 59.078c-3.906-3.905-10.236-3.905-14.143 0l-18.779 18.78-18.779-18.78c-3.905-3.905-10.235-3.905-14.143 0-3.905 3.905-3.905 10.237 0 14.142l18.78 18.78-18.78 18.78c-3.905 3.905-3.905 10.237 0 14.142 1.953 1.953 4.512 2.929 7.071 2.929s5.118-.977 7.071-2.929l18.78-18.78 18.779 18.779c1.953 1.953 4.512 2.929 7.071 2.929s5.118-.977 7.071-2.929c3.905-3.905 3.905-10.237 0-14.142l-18.779-18.779 18.78-18.78c3.905-3.906 3.905-10.237 0-14.142z"/><path id="XMLID_1644_" d="m318.72 340h-12.998c13.712-13.117 22.278-31.571 22.278-52v-46.05c0-39.701-32.299-72-72-72s-72 32.299-72 72v46.05c0 20.429 8.566 38.883 22.278 52h-12.998c-56.949 0-103.28 46.332-103.28 103.28v58.72c0 5.523 4.478 10 10 10h312c5.522 0 10-4.477 10-10v-58.72c0-56.948-46.331-103.28-103.28-103.28zm-62.72 54c5.522 0 10-4.477 10-10v-24h37.775l-47.775 115.783-47.775-115.783h37.775v24c0 5.523 4.478 10 10 10zm0-204.05c28.673 0 52 23.327 52 52v.1h-.043c-16.55 0-32.623-4.794-46.481-13.863-3.326-2.177-7.625-2.177-10.951 0-13.858 9.069-29.932 13.863-46.481 13.863h-.044v-.1c0-28.673 23.327-52 52-52zm-52 98.05v-25.95h.043c18.305 0 36.138-4.746 51.957-13.777 15.819 9.031 33.652 13.777 51.957 13.777h.043v25.95c0 28.673-23.327 52-52 52s-52-23.327-52-52zm-94 155.28c0-43.706 33.85-79.63 76.706-82.997l54.35 131.717h-131.056zm292 48.72h-131.056l54.35-131.716c42.856 3.366 76.706 39.29 76.706 82.996z"/><path id="XMLID_1661_" d="m143 298c5.727 0 10.33-4.815 9.981-10.618-.321-5.344-5.019-9.382-10.372-9.382h-40.556c-.029 0-.053-.024-.053-.053v-94.491c28.012-3.006 52.998-18.555 68.149-42.888 2.919-4.688 1.484-10.855-3.203-13.774-4.69-2.92-10.855-1.484-13.775 3.203-13.258 21.291-36.125 34.003-61.171 34.003-39.701 0-72-32.299-72-72s32.299-72 72-72c25.045 0 47.912 12.711 61.17 34.002 2.92 4.688 9.087 6.122 13.775 3.203s6.122-9.086 3.202-13.775c-16.933-27.194-46.147-43.43-78.147-43.43-50.729 0-92 41.271-92 92 0 47.35 35.958 86.454 82 91.455v104.492c0 5.552 4.501 10.053 10.053 10.053z"/><path id="XMLID_1662_" d="m164 92c0 2.63 1.069 5.21 2.93 7.07s4.44 2.93 7.07 2.93 5.21-1.07 7.069-2.93c1.861-1.86 2.931-4.44 2.931-7.07s-1.07-5.21-2.931-7.07c-1.859-1.86-4.439-2.93-7.069-2.93s-5.21 1.07-7.07 2.93c-1.861 1.86-2.93 4.44-2.93 7.07z"/></g></g></svg>