<svg height="496pt" viewBox="0 0 496 496" width="496pt" xmlns="http://www.w3.org/2000/svg"><path d="m480 232h-48c-3.039062 0-6-.160156-8.878906-.480469-40-4.480469-71.121094-38.398437-71.121094-79.519531h48c22.078125 0 42.078125 8.960938 56.558594 23.441406 4.800781 4.796875 9.042968 10.320313 12.480468 16.238282v.082031c7.039063 11.839843 10.960938 25.597656 10.960938 40.238281zm0 0" fill="#fcd770"/><path d="m260.480469 82.480469c-2.878907-8.320313-4.480469-17.199219-4.480469-26.480469v-48c19.039062 0 36.480469 6.640625 50.238281 17.761719 18.160157 14.636719 29.761719 37.117187 29.761719 62.238281v48c-22.078125 0-42.078125-8.960938-56.558594-23.441406-8.402344-8.398438-14.960937-18.636719-18.960937-30.078125zm0 0" fill="#fcd770"/><g fill="#b4dd7f"><path d="m377.359375 376.160156c12.640625.71875 22.640625 11.039063 22.640625 23.839844 0 13.28125-10.71875 24-24 24-12.800781 0-23.121094-10-23.847656-22.640625l-79.511719-67.28125c7.199219-4.476563 14.480469-8.71875 21.917969-12.71875 8.402344-4.480469 15.28125-11.28125 19.832031-19.519531h.082031zm0 0"/><path d="m119.839844 118.640625 74.3125 62.878906c-8.152344 4.640625-15.039063 11.519531-19.511719 19.921875-4 7.4375-8.242187 14.71875-12.71875 21.917969l-67.28125-79.519531c-12.640625-.71875-22.640625-11.039063-22.640625-23.839844 0-13.28125 10.71875-24 24-24 12.800781 0 23.121094 10 23.839844 22.640625zm0 0"/><path d="m374.320312 8h-7.199218c-21.761719 0-42.800782 6.320312-60.875 17.761719 18.152344 14.636719 29.753906 37.117187 29.753906 62.238281v48c-22.078125 0-42.078125-8.960938-56.558594-23.441406-8.402344-8.398438-14.960937-18.636719-18.960937-30.078125-3.832031 10.480469-6.234375 21.597656-6.871094 32.878906l-3.921875 70.800781-1.6875 29.839844c0 8.800781 3.601562 16.800781 9.359375 22.640625 5.839844 5.757813 13.839844 9.359375 22.640625 9.359375l29.761719-1.679688 70.878906-3.921874c14.878906-.796876 29.28125-4.636719 42.480469-10.878907-40-4.480469-71.121094-38.398437-71.121094-79.519531h48c22.078125 0 42.078125 8.960938 56.558594 23.441406 4.800781 4.796875 9.042968 10.320313 12.480468 16.238282 12.242188-18.480469 18.960938-40.238282 18.960938-62.800782v-7.199218c0-62.800782-50.878906-113.679688-113.679688-113.679688zm0 0"/><path d="m257.359375 238.640625c5.839844 5.757813 13.839844 9.359375 22.640625 9.359375l29.761719-1.679688c10.558593 13.121094 13.917969 30.71875 8.484375 46.878907-.957032 3.039062-2.238282 5.921875-3.839844 8.640625-4.550781 8.238281-11.4375 15.039062-19.832031 19.519531-7.445313 4-14.71875 8.242187-21.917969 12.71875-47.761719 29.363281-89.527344 67.84375-122.800781 113.203125l-23.457031 32.078125c-4 5.441406-10.398438 8.640625-17.199219 8.640625-11.679688 0-21.199219-9.519531-21.199219-21.199219v-4.640625c0-4 1.121094-8 3.359375-11.359375l52.640625-82.800781-16-16-82.800781 52.640625c-3.359375 2.238281-7.359375 3.359375-11.359375 3.359375h-4.640625c-11.679688 0-21.199219-9.519531-21.199219-21.199219 0-6.800781 3.199219-13.199219 8.640625-17.199219l32.078125-23.441406c45.359375-33.28125 83.839844-75.039062 113.203125-122.800781 4.476563-7.199219 8.71875-14.480469 12.71875-21.917969 4.472656-8.402344 11.359375-15.28125 19.511719-19.921875 2.726562-1.519531 5.601562-2.800781 8.558594-3.757812 16.242187-5.441407 33.839843-2.082031 46.960937 8.398437l-1.671875 29.839844c0 8.800781 3.601562 16.800781 9.359375 22.640625zm0 0"/></g><path d="m496 121.664062c0-67.089843-54.574219-121.664062-121.664062-121.664062h-7.246094c-21.167969 0-41.898438 5.632812-60.363282 16.214844-14.351562-10.175782-31.832031-16.214844-50.726562-16.214844h-8v56c0 9.214844 1.441406 18.105469 4.078125 26.457031-3.636719 10.65625-5.863281 21.550781-6.46875 32.453125l-3.195313 57.503906c-13.140624-6.015624-28.148437-6.949218-42.191406-2.261718-1.664062.550781-3.285156 1.191406-4.878906 1.886718l-67.902344-57.453124c-2.585937-15.171876-15.753906-26.585938-31.441406-26.585938-17.648438 0-32 14.351562-32 32 0 15.679688 11.414062 28.855469 26.585938 31.441406l61.375 72.535156c-28.464844 44.742188-65.296876 84.40625-108 115.726563l-32.015626 23.480469c-7.472656 5.488281-11.945312 14.304687-11.945312 23.578125 0 16.117187 13.121094 29.238281 29.230469 29.238281h4.578125c5.566406 0 11-1.585938 15.703125-4.566406l77.367187-49.234375 6.921875 6.921875-49.234375 77.367187c-2.992187 4.6875-4.566406 10.121094-4.566406 15.695313v4.578125c0 16.117187 13.121094 29.238281 29.230469 29.238281 9.28125 0 18.105469-4.472656 23.585937-11.953125l23.480469-32.015625c31.3125-42.695312 70.976563-79.527344 115.726563-108l72.535156 61.375c2.585937 15.179688 15.753906 26.59375 31.441406 26.59375 17.648438 0 32-14.351562 32-32 0-15.679688-11.414062-28.855469-26.585938-31.441406l-57.460937-67.910156c.695313-1.59375 1.328125-3.214844 1.878906-4.878907 4.6875-14.050781 3.761719-29.042969-2.246093-42.175781l57.492187-3.195312c14.929687-.832032 29.472656-4.511719 43.304687-10.78125 2.519532.214843 5.050782.382812 7.617188.382812h56v-8c0-14.425781-3.550781-28-9.726562-40.023438 11.566406-19.039062 17.726562-40.710937 17.726562-63.054687zm-232-105.222656c35.953125 3.992188 64 34.558594 64 71.558594v39.558594c-35.953125-3.992188-64-34.558594-64-71.558594zm-165.464844 119.628906-3.429687-.191406c-8.472657-.480468-15.105469-7.453125-15.105469-15.878906 0-8.824219 7.175781-16 16-16 8.433594 0 15.40625 6.640625 15.878906 15.105469l.183594 3.4375 69.015625 58.386719c-5.445313 4.621093-10.039063 10.246093-13.511719 16.6875-2.175781 4.039062-4.558594 7.957031-6.863281 11.925781zm274.929688 247.859376 3.429687.191406c8.472657.480468 15.105469 7.453125 15.105469 15.878906 0 8.824219-7.175781 16-16 16-8.433594 0-15.40625-6.640625-15.878906-15.105469l-.183594-3.4375-73.488281-62.175781c3.964843-2.304688 7.894531-4.695312 11.925781-6.867188 6.441406-3.460937 12.066406-8.054687 16.6875-13.503906zm-62.800782-93.21875c-3.390624 10.160156-10.449218 18.546874-19.863281 23.625-57.6875 31.054687-108.65625 75.40625-147.410156 128.238281l-23.480469 32.019531c-2.476562 3.382812-6.46875 5.40625-10.679687 5.40625-7.292969 0-13.230469-5.9375-13.230469-13.238281v-4.578125c0-2.519532.71875-4.984375 2.070312-7.105469l50.320313-79.078125h19.609375v-16h-20.6875l-11.3125-11.3125v-20.6875h-16v19.609375l-79.078125 50.320313c-2.121094 1.359374-4.585937 2.070312-7.105469 2.070312h-4.585937c-7.292969 0-13.230469-5.9375-13.230469-13.238281 0-4.203125 2.023438-8.1875 5.414062-10.671875l32.019532-23.480469c52.832031-38.753906 97.175781-89.722656 128.238281-147.402344 5.070313-9.429687 13.464844-16.488281 23.617187-19.871093 12.238282-4.089844 25.445313-2.214844 36.144532 4.839843l-1.433594 25.824219c0 8.136719 2.472656 15.6875 6.679688 22.007812l-19.527344 19.527344c-19.648438 19.648438-45.769532 30.464844-73.542969 30.464844h-9.609375v16h9.609375c17.117187 0 33.648437-3.664062 48.832031-10.441406-6.777344 15.175781-10.441406 31.714844-10.441406 48.832031v9.609375h16v-9.609375c0-27.78125 10.824219-53.894531 30.464844-73.535156l19.558594-19.550781c6.402343 4.207031 14.082031 6.695312 22.402343 6.695312h.023438l25.382812-1.40625c7.039063 10.671875 8.902344 23.886719 4.832031 36.117188zm121.335938-66.710938c-37 0-67.558594-28.046875-71.550781-64h39.550781c37 0 67.558594 28.046875 71.550781 64zm48-95.078125c0 16.765625-4.007812 33.085937-11.558594 47.886719-16.144531-19.984375-40.808594-32.808594-68.441406-32.808594h-56v8c0 35.679688 21.375 66.398438 51.96875 80.199219-5.199219 1.105469-10.449219 1.929687-15.769531 2.226562l-100.199219 5.574219c-13.230469 0-24-10.769531-24.015625-23.550781l5.589844-100.640625c.210937-3.648438.683593-7.304688 1.289062-10.945313 15.800781 23.578125 42.679688 39.136719 73.136719 39.136719h8v-56c0-23.480469-9.304688-44.792969-24.34375-60.59375 14.75-7.445312 30.945312-11.40625 47.433594-11.40625h7.246094c58.265624 0 105.664062 47.398438 105.664062 105.664062zm0 0"/><path d="m296 184h-16c0 17.648438 14.351562 32 32 32v-16c-8.824219 0-16-7.175781-16-16zm0 0"/><path d="m368 32c-5.871094 0-11.753906.535156-17.457031 1.585938l2.90625 15.734374c4.75-.871093 9.648437-1.320312 14.550781-1.320312 27.144531 0 52.207031 13.601562 67.0625 36.367188l13.410156-8.742188c-17.824218-27.3125-47.90625-43.625-80.472656-43.625zm0 0"/></svg>