<?xml version="1.0" encoding="iso-8859-1"?>
<!-- Generator: Adobe Illustrator 19.0.0, SVG Export Plug-In . SVG Version: 6.00 Build 0)  -->
<svg version="1.1" id="Capa_1" xmlns="http://www.w3.org/2000/svg" xmlns:xlink="http://www.w3.org/1999/xlink" x="0px" y="0px"
	 viewBox="0 0 496 496" style="enable-background:new 0 0 496 496;" xml:space="preserve">
<rect x="168" y="296" style="fill:#FCD770;" width="160" height="200"/>
<rect x="208" y="296" style="fill:#FFEAA7;" width="80" height="200"/>
<polygon style="fill:#48C397;" points="368,136 432,200 408,232 88,232 64,200 128,136 "/>
<polygon style="fill:#0FA196;" points="368,136 312,136 312,232 408,232 432,200 "/>
<polygon style="fill:#ECECEC;" points="96,168 64,200 432,200 400,168 "/>
<polygon style="fill:#B6C1CE;" points="296,168 296,200 432,200 400,168 "/>
<g>
	<circle style="fill:#FEA82F;" cx="384" cy="472" r="16"/>
	<circle style="fill:#FEA82F;" cx="112" cy="472" r="16"/>
</g>
<path style="fill:#39C3FC;" d="M248,8c-66.272,0-120,53.728-120,120v8h240v-8C368,61.728,314.272,8,248,8z"/>
<path style="fill:#148CE0;" d="M248,8c-6.832,0-13.48,0.704-20,1.8c56.736,9.536,100,58.752,100,118.2v8h40v-8
	C368,61.728,314.272,8,248,8z"/>
<polygon style="fill:#ECECEC;" points="112,232 144,296 352,296 384,232 "/>
<polygon style="fill:#B6C1CE;" points="344,232 312,296 352,296 384,232 "/>
<rect x="32" y="352" width="16" height="16"/>
<rect x="16" y="368" width="16" height="16"/>
<rect x="32" y="384" width="16" height="16"/>
<rect x="48" y="368" width="16" height="16"/>
<path d="M376,132.688V128C376,57.424,318.576,0,248,0S120,57.424,120,128v4.688l-66.56,66.56L84,240h23.056l32,64h217.888l32-64H412
	l30.56-40.752L376,132.688z M248,16c61.76,0,112,50.24,112,112H136C136,66.24,186.24,16,248,16z M347.056,288H148.944l-24-48
	h246.112L347.056,288z M404,224H92l-12-16h248v-16H83.312l16-16H152v-16h-36.688l16-16h233.376l16,16H168v16h228.688l16,16H344v16
	h72L404,224z"/>
<rect x="354.516" y="319.033" transform="matrix(-0.9829 0.1843 -0.1843 -0.9829 788.1115 678.772)" width="15.992" height="113.955"/>
<path d="M384,448c-13.232,0-24,10.768-24,24s10.768,24,24,24s24-10.768,24-24S397.232,448,384,448z M384,480c-4.416,0-8-3.584-8-8
	s3.584-8,8-8s8,3.584,8,8S388.416,480,384,480z"/>
<rect x="76.514" y="367.98" transform="matrix(-0.1846 0.9828 -0.9828 -0.1846 527.645 314.1869)" width="113.95" height="15.992"/>
<path d="M112,448c-13.232,0-24,10.768-24,24s10.768,24,24,24s24-10.768,24-24S125.232,448,112,448z M112,480c-4.416,0-8-3.584-8-8
	s3.584-8,8-8s8,3.584,8,8S116.416,480,112,480z"/>
<rect x="240" y="320" width="16" height="56"/>
<rect x="240" y="392" width="16" height="72"/>
<rect x="240" y="480" width="16" height="16"/>
<rect x="302.911" y="423.925" transform="matrix(-0.9912 0.1321 -0.1321 -0.9912 676.1658 819.15)" width="15.999" height="16.159"/>
<rect x="293.855" y="319.634" transform="matrix(-0.9913 0.1318 -0.1318 -0.9913 649.0553 685.1118)" width="16" height="88.802"/>
<rect x="176.99" y="423.991" transform="matrix(-0.1318 0.9913 -0.9913 -0.1318 637.6854 305.4703)" width="16.16" height="16"/>
<rect x="149.725" y="356.004" transform="matrix(-0.1318 0.9913 -0.9913 -0.1318 580.5403 219.5461)" width="88.802" height="16"/>
<path d="M153.592,110.552l15.736,2.896c4.968-26.96,23.968-49.944,49.592-59.984l-5.84-14.896
	C182.352,50.616,159.552,78.192,153.592,110.552z"/>
<path d="M233.456,49.328C238.208,48.448,243.112,48,248,48V32c-5.856,0-11.736,0.536-17.456,1.592L233.456,49.328z"/>
<rect x="240" y="256" width="16" height="16"/>
<rect x="200" y="256" width="16" height="16"/>
<rect x="160" y="256" width="16" height="16"/>
<rect x="320" y="256" width="16" height="16"/>
<rect x="280" y="256" width="16" height="16"/>
<rect x="456" y="432" width="16" height="16"/>
<rect y="160" width="16" height="16"/>
<rect x="480" y="144" width="16" height="16"/>
<rect x="88" width="16" height="16"/>
<rect x="72" y="16" width="16" height="16"/>
<rect x="88" y="32" width="16" height="16"/>
<rect x="104" y="16" width="16" height="16"/>
<rect x="416" y="56" width="16" height="16"/>
<rect x="400" y="72" width="16" height="16"/>
<rect x="416" y="88" width="16" height="16"/>
<rect x="432" y="72" width="16" height="16"/>
<rect x="448" y="272" width="16" height="16"/>
<rect x="432" y="288" width="16" height="16"/>
<rect x="448" y="304" width="16" height="16"/>
<rect x="464" y="288" width="16" height="16"/>
<rect x="40" y="88" width="16" height="16"/>
<g>
</g>
<g>
</g>
<g>
</g>
<g>
</g>
<g>
</g>
<g>
</g>
<g>
</g>
<g>
</g>
<g>
</g>
<g>
</g>
<g>
</g>
<g>
</g>
<g>
</g>
<g>
</g>
<g>
</g>
</svg>
