<svg height="496pt" viewBox="0 0 496.09221 496" width="496pt" xmlns="http://www.w3.org/2000/svg"><path d="m488.09375 407.964844c0 35.34375-28.65625 64-64 64-35.347656 0-64-28.65625-64-64 0-35.347656 28.652344-64 64-64 35.34375 0 64 28.652344 64 64zm0 0" fill="#aab2bd"/><path d="m320.09375 159.964844c0 8.835937-7.164062 16-16 16-8.839844 0-16-7.164063-16-16 0-8.835938 7.160156-16 16-16 8.835938 0 16 7.164062 16 16zm0 0" fill="#aab2bd"/><path d="m320.09375 455.964844c0 8.835937-7.164062 16-16 16-8.839844 0-16-7.164063-16-16 0-8.835938 7.160156-16 16-16 8.835938 0 16 7.164062 16 16zm0 0" fill="#ccd1d9"/><path d="m72.09375 127.964844c0 8.835937-7.164062 16-16 16-8.839844 0-16-7.164063-16-16 0-8.835938 7.160156-16 16-16 8.835938 0 16 7.164062 16 16zm0 0" fill="#ccd1d9"/><path d="m432.09375 279.964844c0 8.835937-7.164062 16-16 16-8.839844 0-16-7.164063-16-16 0-8.835938 7.160156-16 16-16 8.835938 0 16 7.164062 16 16zm0 0" fill="#e6e9ed"/><path d="m48.09375 199.964844c0 8.835937-7.164062 16-16 16-8.839844 0-16-7.164063-16-16 0-8.835938 7.160156-16 16-16 8.835938 0 16 7.164062 16 16zm0 0" fill="#e6e9ed"/><path d="m216.09375 71.964844c0-22.09375-25.074219-40-56-40-30.929688 0-56 17.90625-56 40 0 22.089844 25.070312 40 56 40 30.925781 0 56-17.910156 56-40zm0 0" fill="#f5f7fa"/><path d="m465.292969 30.761719c35.917969 35.851562 28.640625 101.28125-16.242188 146.171875-2.238281 2.238281-4.480469 4.398437-6.796875 6.398437-21.042968 18.398438-53.523437 8.320313-62.800781-18-.160156-.320312-.242187-.558593-.320313-.800781-8-21.917969-25.601562-39.519531-47.441406-47.519531-.320312-.152344-.640625-.238281-.960937-.398438-26.316407-9.28125-36.398438-41.851562-18-62.800781 2-2.320312 4.160156-4.5625 6.402343-6.808594 44.878907-44.878906 110.320313-52.160156 146.160157-16.242187zm0 0" fill="#aab2bd"/><path d="m289.53125 206.523438c40.160156 40.082031 48.402344 101.359374 26.960938 157.519531-2.800782 7.449219-10.238282 12.71875-18.238282 12-2.082031-.160157-4.242187-.078125-6.480468.320312-9.601563 1.679688-17.441407 9.449219-19.28125 18.960938-1.039063 5.679687-.078126 11.121093 2.320312 15.679687 3.679688 6.960938 3.121094 15.359375-2.480469 20.960938l-.078125.160156c-67.121094 67.039062-168.160156 74.796875-225.683594 17.277344-46.476562-46.480469-50.15625-121.359375-14.398437-183.757813 10-17.601562 27.519531-28.960937 46.878906-34.722656.160157 0 .242188-.078125.320313-.078125 6.960937-2.167969 12.722656-7.679688 15.199218-14.558594 0-.082031.082032-.167968.082032-.242187 5.121094-14.480469 14.960937-26.871094 29.039062-33.039063 58.320313-25.679687 123.761719-18.640625 165.839844 23.519532zm0 0" fill="#ffeaa7"/><path d="m232.09375 279.964844c0 8.835937-7.164062 16-16 16-8.839844 0-16-7.164063-16-16 0-8.835938 7.160156-16 16-16 8.835938 0 16 7.164062 16 16zm0 0" fill="#fcd770"/><path d="m168.09375 311.964844c0 8.835937-7.164062 16-16 16-8.839844 0-16-7.164063-16-16 0-8.835938 7.160156-16 16-16 8.835938 0 16 7.164062 16 16zm0 0" fill="#fcd770"/><path d="m216.09375 367.964844c-13.234375 0-24 10.765625-24 24h16c0-4.417969 3.589844-8 8-8 4.40625 0 8 3.582031 8 8 0 4.414062-3.59375 8-8 8v16c13.230469 0 24-10.769532 24-24 0-13.234375-10.769531-24-24-24zm0 0"/><path d="m72.09375 367.964844v-16c-8.824219 0-16-7.175782-16-16 0-8.824219 7.175781-16 16-16v-16c-17.648438 0-32 14.351562-32 32 0 17.648437 14.351562 32 32 32zm0 0"/><path d="m208.09375 215.964844c13.230469 0 24 10.765625 24 24h16c0-22.058594-17.945312-40-40-40-22.058594 0-40 17.941406-40 40h16c0-13.234375 10.765625-24 24-24zm0 0"/><path d="m152.09375 415.964844c-22.058594 0-40 17.941406-40 40h16c0-13.234375 10.765625-24 24-24 13.230469 0 24 10.765625 24 24h16c0-22.058594-17.945312-40-40-40zm0 0"/><path d="m152.09375 367.964844h-16c0 4.414062-3.59375 8-8 8-4.410156 0-8-3.585938-8-8 0-4.417969 3.589844-8 8-8v-16c-13.234375 0-24 10.765625-24 24 0 13.230468 10.765625 24 24 24 13.230469 0 24-10.769532 24-24zm0 0"/><path d="m128.09375 255.964844h-16c0 8.824218-7.175781 16-16 16s-16-7.175782-16-16h-16c0 17.648437 14.351562 32 32 32 17.644531 0 32-14.351563 32-32zm0 0"/><path d="m248.09375 311.964844c0 13.230468 10.765625 24 24 24v-16c-4.410156 0-8-3.585938-8-8 0-4.417969 3.589844-8 8-8 4.40625 0 8 3.582031 8 8h16c0-13.234375-10.769531-24-24-24-13.234375 0-24 10.765625-24 24zm0 0"/><path d="m64.09375 407.964844c-4.410156 0-8-3.585938-8-8h-16c0 13.230468 10.765625 24 24 24 13.230469 0 24-10.769532 24-24h-16c0 4.414062-3.59375 8-8 8zm0 0"/><path d="m120.476562 175.636719c-15.257812 6.6875-27.097656 20.085937-33.417968 37.925781-1.65625 4.511719-5.503906 8.199219-10.277344 9.6875-23.359375 6.992188-41.191406 20.273438-51.570312 38.402344-38.703126 67.582031-32.375 145.320312 15.746093 193.449218 26.605469 26.605469 62.582031 40.871094 102.390625 40.871094 4.320313 0 8.6875-.167968 13.089844-.503906 44.511719-3.425781 87.640625-23.921875 121.558594-57.839844 7.753906-7.792968 9.3125-19.96875 3.886718-30.320312-1.664062-3.183594-2.183593-6.816406-1.503906-10.488282 1.175782-6.304687 6.425782-11.488281 12.753906-12.585937 1.496094-.261719 2.976563-.34375 4.414063-.199219 11.28125.914063 22.183594-6.023437 26.425781-17.121094 23.382813-61.320312 12.367188-124.949218-28.761718-166.078124-42.992188-43.007813-111.582032-52.894532-174.734376-25.199219zm188.558594 185.566406c-1.664062 4.367187-5.894531 7.320313-10.046875 6.878906-2.832031-.253906-5.726562-.125-8.601562.378907-12.757813 2.230468-23.335938 12.671874-25.71875 25.40625-1.351563 7.242187-.304688 14.449218 3.046875 20.847656 2.203125 4.199218 1.792968 8.761718-1.152344 11.710937-31.09375 31.105469-70.644531 49.953125-111.351562 53.082031-40.261719 3.136719-76.808594-9.59375-102.941407-35.726562-42.945312-42.953125-48.242187-112.945312-13.175781-174.175781 10.488281-18.320313 28.773438-26.984375 42.679688-31.152344 9.335937-2.914063 16.925781-10.160156 20.429687-19.746094 4.761719-13.4375 13.527344-23.527343 24.6875-28.421875 21.730469-9.539062 44.121094-14.195312 65.640625-14.195312 34.984375 0 67.65625 12.320312 91.378906 36.050781 36.605469 36.605469 46.230469 93.71875 25.125 149.0625zm0 0"/><path d="m216.09375 255.964844c-13.234375 0-24 10.765625-24 24 0 13.230468 10.765625 24 24 24 13.230469 0 24-10.769532 24-24 0-13.234375-10.769531-24-24-24zm0 32c-4.410156 0-8-3.585938-8-8 0-4.417969 3.589844-8 8-8 4.40625 0 8 3.582031 8 8 0 4.414062-3.59375 8-8 8zm0 0"/><path d="m152.09375 335.964844c13.230469 0 24-10.769532 24-24 0-13.234375-10.769531-24-24-24-13.234375 0-24 10.765625-24 24 0 13.230468 10.765625 24 24 24zm0-32c4.40625 0 8 3.582031 8 8 0 4.414062-3.59375 8-8 8-4.410156 0-8-3.585938-8-8 0-4.417969 3.589844-8 8-8zm0 0"/><path d="m160.09375 119.964844c35.285156 0 64-21.527344 64-48s-28.714844-48-64-48c-35.289062 0-64 21.527344-64 48s28.710938 48 64 48zm0-80c26.015625 0 48 14.65625 48 32s-21.984375 32-48 32-48-14.65625-48-32 21.984375-32 48-32zm0 0"/><path d="m328.058594 124.179688.875.3125c19.558594 7.191406 35.511718 23.167968 42.941406 43.488281 5.480469 15.464843 18.121094 27.136719 33.816406 31.207031 3.96875 1.039062 7.960938 1.542969 11.890625 1.542969 10.917969 0 21.421875-3.917969 29.933594-11.40625 2.449219-2.152344 4.847656-4.402344 7.191406-6.746094 47.898438-47.894531 55.183594-118.542969 16.242188-157.496094-38.9375-38.933593-109.578125-31.65625-157.488281 16.242188-2.351563 2.351562-4.601563 4.757812-6.753907 7.199219-10.175781 11.585937-13.765625 26.839843-9.863281 41.855468 4.089844 15.695313 15.746094 28.320313 31.214844 33.800782zm-9.320313-65.070313c1.929688-2.195313 3.945313-4.355469 6.050781-6.457031 24.101563-24.105469 54.519532-36.695313 82.199219-36.695313 20.160157 0 38.878907 6.679688 52.65625 20.453125 32.703125 32.707032 25.414063 93.210938-16.242187 134.859375-2.101563 2.101563-4.253906 4.117188-6.445313 6.046875-7.519531 6.597656-17.433593 8.960938-27.242187 6.390625-10.542969-2.742187-19.054688-10.617187-22.765625-21.085937l-.320313-.882813c-8.753906-23.917969-28.257812-43.460937-52.121094-52.230469l-1.152343-.417968c-10.421875-3.695313-18.289063-12.183594-21.023438-22.71875-2.542969-9.800782-.207031-19.734375 6.40625-27.261719zm0 0"/><path d="m432.09375 95.964844c-4.410156 0-8-3.585938-8-8h-16c0 13.230468 10.765625 24 24 24 13.230469 0 24-10.769532 24-24h-16c0 4.414062-3.59375 8-8 8zm0 0"/><path d="m368.09375 71.964844c0-13.234375-10.769531-24-24-24v16c4.40625 0 8 3.582031 8 8 0 4.414062-3.59375 8-8 8v16c13.230469 0 24-10.769532 24-24zm0 0"/><path d="m416.09375 63.964844c13.230469 0 24-10.769532 24-24h-16c0 4.414062-3.59375 8-8 8-4.410156 0-8-3.585938-8-8h-16c0 13.230468 10.765625 24 24 24zm0 0"/><path d="m416.09375 167.964844c13.230469 0 24-10.769532 24-24h-16c0 4.414062-3.59375 8-8 8-4.410156 0-8-3.585938-8-8 0-4.417969 3.589844-8 8-8v-16c-13.234375 0-24 10.765625-24 24 0 13.230468 10.765625 24 24 24zm0 0"/><path d="m424.09375 335.964844c-39.699219 0-72 32.292968-72 72 0 39.703125 32.300781 72 72 72 39.695312 0 72-32.296875 72-72 0-39.707032-32.304688-72-72-72zm0 128c-30.882812 0-56-25.128906-56-56 0-30.875 25.117188-56 56-56 30.878906 0 56 25.125 56 56 0 30.871094-25.121094 56-56 56zm0 0"/><path d="m392.09375 279.964844c0 13.230468 10.765625 24 24 24 13.230469 0 24-10.769532 24-24 0-13.234375-10.769531-24-24-24-13.234375 0-24 10.765625-24 24zm32 0c0 4.414062-3.59375 8-8 8-4.410156 0-8-3.585938-8-8 0-4.417969 3.589844-8 8-8 4.40625 0 8 3.582031 8 8zm0 0"/><path d="m56.09375 151.964844c13.230469 0 24-10.769532 24-24 0-13.234375-10.769531-24-24-24-13.234375 0-24 10.765625-24 24 0 13.230468 10.765625 24 24 24zm0-32c4.40625 0 8 3.582031 8 8 0 4.414062-3.59375 8-8 8-4.410156 0-8-3.585938-8-8 0-4.417969 3.589844-8 8-8zm0 0"/><path d="m304.09375 183.964844c13.230469 0 24-10.769532 24-24 0-13.234375-10.769531-24-24-24-13.234375 0-24 10.765625-24 24 0 13.230468 10.765625 24 24 24zm0-32c4.40625 0 8 3.582031 8 8 0 4.414062-3.59375 8-8 8-4.410156 0-8-3.585938-8-8 0-4.417969 3.589844-8 8-8zm0 0"/><path d="m304.09375 431.964844c-13.234375 0-24 10.765625-24 24 0 13.230468 10.765625 24 24 24 13.230469 0 24-10.769532 24-24 0-13.234375-10.769531-24-24-24zm0 32c-4.410156 0-8-3.585938-8-8 0-4.417969 3.589844-8 8-8 4.40625 0 8 3.582031 8 8 0 4.414062-3.59375 8-8 8zm0 0"/><path d="m32.09375 223.964844c13.230469 0 24-10.769532 24-24 0-13.234375-10.769531-24-24-24-13.234375 0-24 10.765625-24 24 0 13.230468 10.765625 24 24 24zm0-32c4.40625 0 8 3.582031 8 8 0 4.414062-3.59375 8-8 8-4.410156 0-8-3.585938-8-8 0-4.417969 3.589844-8 8-8zm0 0"/></svg>