<?xml version="1.0" encoding="iso-8859-1"?>
<!-- Generator: Adobe Illustrator 19.0.0, SVG Export Plug-In . SVG Version: 6.00 Build 0)  -->
<svg version="1.1" id="Capa_1" xmlns="http://www.w3.org/2000/svg" xmlns:xlink="http://www.w3.org/1999/xlink" x="0px" y="0px"
	 viewBox="0 0 496 496" style="enable-background:new 0 0 496 496;" xml:space="preserve">
<g>
	<rect x="272" y="432" style="fill:#8C95A4;" width="32" height="56"/>
	<rect x="192" y="432" style="fill:#8C95A4;" width="32" height="56"/>
</g>
<polygon style="fill:#ECECEC;" points="152,272 8,384 8,416 184,416 312,416 488,416 488,384 344,272 "/>
<polygon style="fill:#B6C1CE;" points="344,272 152,272 144,278.224 144,372.352 160.368,416 184,416 312,416 335.632,416 
	352,372.352 352,278.224 "/>
<rect x="8" y="384" style="fill:#48C397;" width="480" height="32"/>
<polygon style="fill:#0FA196;" points="148.368,384 160.368,416 184,416 312,416 335.632,416 347.632,384 "/>
<path style="fill:#ECECEC;" d="M328,192v-0.864c0-57.072-15.152-113.112-43.904-162.408l0,0C276.608,15.896,262.864,8,248,8l0,0
	c-14.864,0-28.608,7.896-36.096,20.728l0,0C183.152,78.024,168,134.072,168,191.136V192v96v80l24,64h32h48h32l24-64v-80V192z"/>
<path style="fill:#B6C1CE;" d="M284.096,28.728C276.608,15.896,262.864,8,248,8c-4.128,0-8.152,0.664-12,1.824
	c9.992,3,18.688,9.64,24.096,18.904C288.848,78.024,304,134.072,304,191.136V192v96v80l-24,64h24l24-64v-80v-96v-0.864
	C328,134.072,312.848,78.024,284.096,28.728z"/>
<g>
	<path style="fill:#FCD770;" d="M280,456h-64l22.32-104.176c0.984-4.568,5.016-7.824,9.68-7.824l0,0c4.664,0,8.696,3.256,9.68,7.824
		L280,456z"/>
	<path style="fill:#FCD770;" d="M184,288h-32v-80c0-8.84,7.16-16,16-16l0,0c8.84,0,16,7.16,16,16V288z"/>
	<path style="fill:#FCD770;" d="M344,288h-32v-80c0-8.84,7.16-16,16-16l0,0c8.84,0,16,7.16,16,16V288z"/>
	<rect x="392" y="384" style="fill:#FCD770;" width="32" height="32"/>
	<rect x="72" y="384" style="fill:#FCD770;" width="32" height="32"/>
</g>
<path style="fill:#39C3FC;" d="M280,176h-64v-48c0-17.672,14.328-32,32-32l0,0c17.672,0,32,14.328,32,32V176z"/>
<path style="fill:#148CE0;" d="M248,96c-4.248,0-8.288,0.872-12,2.376c11.72,4.752,20,16.2,20,29.624v48h24v-48
	C280,110.328,265.672,96,248,96z"/>
<path d="M496,424v-43.912l-144-112V208c0-10.488-6.8-19.328-16.192-22.584C334.824,128.968,319.472,73.512,291,24.704
	C282.12,9.472,265.64,0,248,0s-34.12,9.472-43,24.704c-28.472,48.808-43.824,104.264-44.808,160.712
	C150.8,188.672,144,197.512,144,208v60.088l-144,112V424h180.456l3.544,9.448V496h48v-32h32v32h48v-62.552l3.544-9.448H496z
	 M281.32,424l-10.288-48h45.416l-18,48H281.32z M176,248h-16v-16h16V248z M176,264v16h-16v-16H176z M197.544,424l-18-48h45.416
	l-10.288,48H197.544z M246.152,353.496c0.368-1.736,3.336-1.744,3.704,0.008L270.104,448h-44.208L246.152,353.496z M328,200
	c4.408,0,8,3.584,8,8v8h-16v-8C320,203.584,323.592,200,328,200z M320,232h16v16h-16V232z M336,264v16h-16v-16H336z M327.544,392
	H384v16h-62.456L327.544,392z M416,392v16h-16v-16H416z M432,408v-16h48v16H432z M464.68,376H333.544l2.456-6.544V296h16v-7.648
	L464.68,376z M218.816,32.768C224.848,22.424,236.024,16,248,16c11.976,0,23.152,6.424,29.184,16.768
	c27.064,46.4,41.664,99.104,42.632,152.768C310.616,188.896,304,197.656,304,208v88h16v64h-52.392l-2.112-9.848
	C263.744,341.944,256.384,336,248,336s-15.744,5.944-17.504,14.144L228.384,360H176v-64h16v-88c0-10.344-6.616-19.104-15.816-22.472
	C177.152,131.872,191.752,79.16,218.816,32.768z M168,200c4.408,0,8,3.584,8,8v8h-16v-8C160,203.584,163.592,200,168,200z M160,296
	v73.456l2.456,6.544H31.32L144,288.352V296H160z M96,392v16H80v-16H96z M16,392h48v16H16V392z M112,408v-16h56.456l6,16H112z
	 M216,480h-16v-40h11.248l-5.144,24H216V480z M280,480v-16h9.896l-5.144-24H296v40H280z"/>
<path d="M288,128c0-22.056-17.944-40-40-40s-40,17.944-40,40v56h80V128z M272,168h-48v-40c0-13.232,10.768-24,24-24s24,10.768,24,24
	V168z"/>
<rect x="208" y="200" width="80" height="16"/>
<rect x="432" y="72" width="16" height="16"/>
<rect x="432" y="104" width="16" height="16"/>
<rect x="448" y="88" width="16" height="16"/>
<rect x="416" y="88" width="16" height="16"/>
<rect x="72" y="216" width="16" height="16"/>
<rect x="72" y="248" width="16" height="16"/>
<rect x="88" y="232" width="16" height="16"/>
<rect x="56" y="232" width="16" height="16"/>
<rect x="144" width="16" height="16"/>
<rect x="144" y="32" width="16" height="16"/>
<rect x="160" y="16" width="16" height="16"/>
<rect x="128" y="16" width="16" height="16"/>
<rect x="384" y="168" width="16" height="16"/>
<rect x="16" y="112" width="16" height="16"/>
<rect x="112" y="144" width="16" height="16"/>
<g>
</g>
<g>
</g>
<g>
</g>
<g>
</g>
<g>
</g>
<g>
</g>
<g>
</g>
<g>
</g>
<g>
</g>
<g>
</g>
<g>
</g>
<g>
</g>
<g>
</g>
<g>
</g>
<g>
</g>
</svg>
