<svg height="496pt" viewBox="0 0 496 495" width="496pt" xmlns="http://www.w3.org/2000/svg"><path d="m390.878906 215.148438c-4.878906.71875-9.839844 1.121093-14.800781 1.121093-9.839844 0-19.359375-1.523437-28.316406-4.242187-15.121094-4.640625-28.722657-12.960938-39.601563-23.917969-10.960937-10.882813-19.28125-24.480469-23.921875-39.601563-2.71875-8.960937-4.238281-18.480468-4.238281-28.320312 0-4.960938.398438-9.917969 1.121094-14.800781 3.117187-20.078125 12.558594-38.796875 27.117187-53.277344l26.960938-26.882813c10.722656-10.71875 25.359375-16.71875 40.5625-16.71875h.476562c15.203125 0 29.839844 6.082032 40.5625 16.800782l54.398438 54.398437c10.722656 10.722657 16.800781 25.359375 16.800781 40.5625 0 15.199219-6 29.839844-16.71875 40.558594l-27.121094 27.199219c-8.960937 9.039062-19.601562 16.082031-31.199218 20.878906-7.039063 2.960938-14.480469 5.042969-22.082032 6.242188zm0 0" fill="#e6e9ed"/><path d="m432.558594 118.347656c4.722656 4.71875 7.441406 11.28125 7.441406 17.921875 0 6.796875-2.640625 13.199219-7.441406 18l-11.039063 11.117188c-11.917969 12-28.480469 18.882812-45.441406 18.882812-35.359375 0-64.078125-28.722656-64.078125-64.082031 0-16.960938 6.878906-33.519531 18.878906-45.441406l10.882813-10.796875c4.796875-4.800781 11.199219-7.441407 18-7.441407 7.277343 0 13.597656 2.640626 18.398437 7.441407zm0 0" fill="#69d6f4"/><path d="m362.960938 267.226562c-1.679688 3.042969-3.761719 5.839844-6.242188 8.320313l-32.71875 32.722656-32.71875 32.71875c-7.203125 7.199219-17.042969 11.28125-27.28125 11.28125-8.800781 0-17.199219-3.121093-24-8.5625 0 7.121094-1.28125 14.160157-3.839844 20.722657-2.640625 7.277343-6.800781 14.078124-12.238281 19.839843l-71.921875-32-8-8-32-71.921875c5.761719-5.441406 12.558594-9.601562 19.839844-12.238281 6.558594-2.5625 13.601562-3.839844 20.71875-3.839844-5.4375-6.800781-8.558594-15.203125-8.558594-24 0-10.242187 4.078125-20.082031 11.28125-27.28125l32.71875-32.71875 32.71875-32.722656c2.480469-2.480469 5.28125-4.558594 8.320312-6.238281 5.679688-3.28125 12.242188-5.039063 18.960938-5.039063 10.238281 0 20.078125 4.078125 27.28125 11.277344l8.957031 8.960937c4.640625 15.121094 12.960938 28.71875 23.921875 39.601563 10.878906 10.957031 24.480469 19.277344 39.601563 23.917969l8.957031 8.960937c7.203125 7.199219 11.28125 17.039063 11.28125 27.28125 0 6.71875-1.761719 13.277344-5.039062 18.957031zm0 0" fill="#ccd1d9"/><path d="m240 168.269531 88 88-56 56-88-88zm0 0" fill="#b4dd7f"/><path d="m272 240.269531c0 8.835938-7.164062 16-16 16s-16-7.164062-16-16c0-8.839843 7.164062-16 16-16s16 7.160157 16 16zm0 0" fill="#fcd770"/><g fill="#f5e0cd"><path d="m352 336.269531-44.71875 44.71875c-7.203125 7.199219-17.042969 11.28125-27.28125 11.28125s-20.078125-4.082031-27.28125-11.28125l-16.558594-16.558593c2.558594-6.5625 3.839844-13.601563 3.839844-20.722657 6.800781 5.441407 15.199219 8.5625 24 8.5625 10.238281 0 20.078125-4.082031 27.28125-11.28125l32.71875-32.71875zm0 0"/><path d="m404.71875 228.988281c7.203125 7.199219 11.28125 17.039063 11.28125 27.28125 0 10.238281-4.078125 20.078125-11.28125 27.277344l-12.71875 12.722656-29.039062-29.042969c3.277343-5.679687 5.039062-12.238281 5.039062-18.957031 0-10.242187-4.078125-20.082031-11.28125-27.28125l-8.957031-8.960937c8.957031 2.71875 18.476562 4.242187 28.316406 4.242187 4.960937 0 9.921875-.402343 14.800781-1.121093zm0 0"/><path d="m284.238281 148.507812-8.957031-8.960937c-7.203125-7.199219-17.042969-11.277344-27.28125-11.277344-6.71875 0-13.28125 1.757813-18.960938 5.039063l-29.039062-29.039063 12.71875-12.722656c7.203125-7.199219 17.042969-11.277344 27.28125-11.277344s20.078125 4.078125 27.28125 11.277344l13.839844 13.839844c-.722656 4.882812-1.121094 9.839843-1.121094 14.800781 0 9.839844 1.519531 19.359375 4.238281 28.320312zm0 0"/><path d="m188 172.269531-32.71875 32.71875c-7.203125 7.199219-11.28125 17.039063-11.28125 27.28125 0 8.796875 3.121094 17.199219 8.558594 24-7.117188 0-14.160156 1.277344-20.71875 3.839844l-16.558594-16.5625c-7.203125-7.199219-11.28125-17.039063-11.28125-27.277344 0-10.242187 4.078125-20.082031 11.28125-27.28125l44.71875-44.71875zm0 0"/></g><path d="m416 320.269531-40 40-52-52 32.71875-32.722656c2.480469-2.480469 4.5625-5.277344 6.242188-8.320313l29.039062 29.042969zm0 0" fill="#e6e9ed"/><path d="m200 104.269531 29.039062 29.039063c-3.039062 1.679687-5.839843 3.757812-8.320312 6.238281l-32.71875 32.722656-52-52 40-40zm0 0" fill="#e6e9ed"/><path d="m431.679688 335.949219c5.359374 5.359375 8.320312 12.558593 8.320312 20 0 15.679687-12.640625 28.320312-28.320312 28.320312-7.441407 0-14.640626-2.960937-20-8.320312l-15.679688-15.679688 40-40zm0 0" fill="#ffeaa7"/><path d="m176 80.269531-40 40-15.679688-15.679687c-5.359374-5.363282-8.320312-12.5625-8.320312-20 0-15.683594 12.640625-28.320313 28.320312-28.320313 7.441407 0 14.640626 2.957031 20 8.320313zm0 0" fill="#ffeaa7"/><path d="m156 452.269531-27.679688 27.679688c-5.359374 5.359375-12.558593 8.320312-20 8.320312-15.679687 0-28.320312-12.640625-28.320312-28.320312v-2.242188c0-6.160156 2-12.078125 5.679688-16.960937l25.199218-33.597656zm0 0" fill="#ffeaa7"/><path d="m89.121094 385.386719-33.601563 25.203125c-4.878906 3.679687-10.800781 5.679687-16.960937 5.679687h-2.238282c-15.679687 0-28.320312-12.640625-28.320312-28.320312 0-7.441407 2.960938-14.640625 8.320312-20l27.679688-27.679688zm0 0" fill="#ffeaa7"/><path d="m152 352.269531 71.921875 32c-.402344.476563-.882813.957031-1.28125 1.359375l-66.640625 66.640625-45.121094-45.121093zm0 0" fill="#e6e9ed"/><path d="m112 272.347656 32 71.921875-54.878906 41.117188-45.121094-45.117188 66.640625-66.640625c.398437-.402344.878906-.882812 1.359375-1.28125zm0 0" fill="#e6e9ed"/><path d="m476.832031 74.019531-54.351562-54.351562c-12.359375-12.359375-28.792969-19.167969-46.746094-19.167969-17.4375 0-33.847656 6.785156-46.199219 19.089844l-26.925781 26.839844c-12.089844 12.046874-20.960937 27-25.960937 43.175781l-3.6875-3.691407c-8.792969-8.796874-20.503907-13.644531-32.960938-13.644531s-24.167969 4.847657-32.96875 13.65625l-7.03125 7.03125-34.054688-34.058593c-6.855468-6.855469-15.96875-10.628907-25.65625-10.628907-20.007812 0-36.289062 16.277344-36.289062 36.285157 0 9.6875 3.777344 18.808593 10.632812 25.65625l34.054688 34.058593-39.03125 39.03125c-8.808594 8.800781-13.65625 20.511719-13.65625 32.96875 0 12.453125 4.847656 24.167969 13.65625 32.964844l8.589844 8.59375c-4.757813 2.839844-9.277344 6.152344-13.300782 10.175781l-94.320312 94.320313c-6.847656 6.855469-10.625 15.96875-10.625 25.65625 0 20.007812 16.28125 36.289062 36.289062 36.289062h2.285157c7.800781 0 15.53125-2.578125 21.777343-7.257812l75.648438-56.742188-56.742188 75.664063c-4.683593 6.230468-7.257812 13.964844-7.257812 21.765625v2.289062c0 20 16.28125 36.28125 36.289062 36.28125 9.6875 0 18.808594-3.777343 25.65625-10.632812l94.320313-94.320313c4.023437-4.023437 7.335937-8.542968 10.175781-13.304687l8.589844 8.59375c8.800781 8.816406 20.511719 13.664062 32.96875 13.664062s24.167969-4.847656 32.96875-13.65625l15.03125-15.035156 23.03125 23.035156c3.121094 3.117188 3.121094 8.191407 0 11.3125l-9.375 9.375c-9.359375 9.351563-9.359375 24.582031 0 33.933594l44.6875 44.691406 11.3125-11.3125-44.6875-44.6875c-3.121094-3.121093-3.121094-8.195312 0-11.3125l9.375-9.378906c9.359375-9.351563 9.359375-24.582031 0-33.933594l-23.03125-23.03125 12.6875-12.691406 34.054688 34.058594c6.855468 6.855469 15.96875 10.632812 25.65625 10.632812 20.007812 0 36.289062-16.28125 36.289062-36.289062 0-9.6875-3.777344-18.808594-10.632812-25.65625l-34.054688-34.054688 7.03125-7.035156c8.808594-8.796875 13.65625-20.511719 13.65625-32.964844 0-12.457031-4.847656-24.167969-13.65625-32.96875l-3.6875-3.6875c16.175781-4.992187 31.128906-13.867187 43.175781-25.960937l27.070313-27.167969c12.3125-12.351563 19.097656-28.753906 19.097656-46.191406 0-17.480469-6.808594-33.914063-19.167969-46.273438zm-258.488281 23.214844c11.566406-11.566406 31.746094-11.566406 43.3125 0l11.097656 11.097656c-.457031 3.929688-.753906 7.863281-.753906 11.832031 0 2.367188.199219 4.679688.351562 7.007813-7.253906-4.464844-15.609374-6.902344-24.351562-6.902344-6.039062 0-11.894531 1.160157-17.34375 3.34375l-19.34375-19.34375zm-30.34375 63.722656-40.6875-40.6875 28.6875-28.691406 40.769531 40.769531c-.578125.527344-1.183593 1.015625-1.738281 1.578125zm-68-76.402343c0-11.183594 9.105469-20.285157 20.289062-20.285157 5.414063 0 10.511719 2.109375 14.34375 5.941407l10.054688 10.058593-28.6875 28.6875-10.054688-10.058593c-3.832031-3.832032-5.945312-8.925782-5.945312-14.34375zm.96875 153.371093c-5.785156-5.785156-8.96875-13.480469-8.96875-21.65625s3.183594-15.875 8.96875-21.65625l39.03125-39.035156 16.6875 16.691406-27.03125 27.03125c-8.808594 8.800781-13.65625 20.511719-13.65625 32.96875 0 5.886719 1.191406 11.765625 3.449219 17.269531-1.832031.359376-3.59375.96875-5.386719 1.480469zm13.136719 103.765625-44.210938 33.160156-34.582031-34.582031 54.113281-54.113281zm-83.363281 62.519532c-3.484376 2.617187-7.8125 4.058593-12.175782 4.058593h-2.277344c-11.183593 0-20.289062-9.105469-20.289062-20.289062 0-5.417969 2.113281-10.511719 5.945312-14.34375l22.054688-22.058594 32.96875 32.96875zm103.832031-42.046876 55.539062 24.679688-54.113281 54.113281-34.585938-34.585937zm-31.941407 112.160157c-3.832031 3.832031-8.929687 5.945312-14.34375 5.945312-11.183593 0-20.289062-9.105469-20.289062-20.289062v-2.289063c0-4.359375 1.441406-8.679687 4.054688-12.167968l19.664062-26.222657 32.96875 32.96875zm99.039063-99.839844-65.0625-28.921875-5.90625-5.902344-28.917969-65.0625c8.015625-6.042968 17.542969-9.5625 27.648438-10.167968l29.199218 29.207031 11.3125-11.3125-31.25-31.257813c-4.304687-5.496094-6.695312-12.160156-6.695312-18.796875 0-8.175781 3.183594-15.875 8.96875-21.65625l65.375-65.378906c11.566406-11.566406 31.746094-11.566406 43.3125 0l7.710938 7.714844c10.335937 31.046875 34.898437 55.605469 65.945312 65.941406l7.710938 7.714844c5.792968 5.789062 8.976562 13.488281 8.976562 21.664062s-3.183594 15.871094-8.96875 21.65625l-65.375 65.375c-10.488281 10.480469-28.214844 11.863281-40.464844 2.253907l-31.238281-31.238282-11.3125 11.3125 29.207031 29.199219c-.617187 10.113281-4.136718 19.640625-10.175781 27.65625zm140.671875-93.25c.558594-.558594 1.046875-1.160156 1.578125-1.734375l40.765625 40.769531-28.6875 28.6875-40.6875-40.6875zm-60.6875 94.066406c-11.566406 11.566407-31.746094 11.566407-43.3125 0l-13.097656-13.097656c.515625-1.792969 1.121094-3.550781 1.480468-5.382813 17.160157 7.039063 37.28125 2.769532 50.242188-10.207031l27.03125-27.035156 16.6875 16.691406zm130.34375-19.320312c0 11.183593-9.105469 20.289062-20.289062 20.289062-5.414063 0-10.511719-2.113281-14.34375-5.945312l-10.054688-10.054688 28.6875-28.691406 10.054688 10.058594c3.832031 3.832031 5.945312 8.925781 5.945312 14.34375zm-32.96875-121.367188c5.785156 5.78125 8.96875 13.480469 8.96875 21.65625s-3.183594 15.871094-8.96875 21.65625l-7.03125 7.03125-19.34375-19.34375c2.183594-5.449219 3.34375-11.304687 3.34375-17.34375 0-8.746093-2.441406-17.097656-6.910156-24.355469 2.324218.152344 4.644531.355469 7.015625.355469 3.964843 0 7.910156-.296875 11.832031-.753906zm66.542969-79.417969-27.070313 27.167969c-16.40625 16.464844-39.160156 25.90625-62.398437 25.90625-48.585938 0-88.105469-39.523437-88.105469-88.105469 0-23.25 9.441406-45.992187 25.902344-62.398437l26.929687-26.839844c9.335938-9.304687 21.726563-14.425781 35.367188-14.425781 13.207031 0 25.625 5.144531 34.960937 14.480469l54.351563 54.351562c9.335937 9.335938 14.480469 21.753907 14.480469 34.960938.007812 13.175781-5.113282 25.566406-14.417969 34.902343zm0 0"/><path d="m383.839844 58.285156c-6.40625-6.402344-14.742188-9.785156-24.105469-9.785156-8.917969 0-17.300781 3.464844-23.582031 9.742188l-10.945313 10.859374c-13.480469 13.421876-21.207031 32.03125-21.207031 51.0625 0 39.761719 32.34375 72.105469 72.105469 72.105469 19.03125 0 37.636719-7.730469 51.078125-21.21875l11.054687-11.152343c6.296875-6.300782 9.761719-14.6875 9.761719-23.613282 0-8.800781-3.566406-17.417968-9.792969-23.632812zm43.054687 90.328125-11.0625 11.160157c-10.441406 10.488281-24.929687 16.496093-39.726562 16.496093-30.9375 0-56.105469-25.167969-56.105469-56.105469 0-14.808593 6.007812-29.289062 16.488281-39.71875l10.953125-10.867187c3.285156-3.277344 7.65625-5.078125 12.300782-5.078125 5.027343 0 9.457031 1.769531 12.800781 5.105469l54.367187 54.367187c3.234375 3.238282 5.089844 7.734375 5.089844 12.320313 0 4.648437-1.808594 9.023437-5.105469 12.320312zm0 0"/><path d="m339.3125 256.269531-99.3125-99.3125-67.3125 67.3125 99.3125 99.308594zm-99.3125-76.691406 76.6875 76.691406-44.6875 44.6875-76.6875-76.6875zm0 0"/><path d="m280 240.269531c0-13.234375-10.769531-24-24-24s-24 10.765625-24 24c0 13.230469 10.769531 24 24 24s24-10.769531 24-24zm-24 8c-4.40625 0-8-3.59375-8-8 0-4.410156 3.59375-8 8-8s8 3.589844 8 8c0 4.40625-3.59375 8-8 8zm0 0"/></svg>