<?xml version="1.0" encoding="iso-8859-1"?>
<!-- Generator: Adobe Illustrator 19.0.0, SVG Export Plug-In . SVG Version: 6.00 Build 0)  -->
<svg version="1.1" id="Capa_1" xmlns="http://www.w3.org/2000/svg" xmlns:xlink="http://www.w3.org/1999/xlink" x="0px" y="0px"
	 viewBox="0 0 496 496" style="enable-background:new 0 0 496 496;" xml:space="preserve">
<path style="fill:#39C3FC;" d="M248,8C150.8,8,72,86.8,72,184c0,58.296,28.344,109.968,72,142h208c43.656-32.032,72-83.704,72-142
	C424,86.8,345.2,8,248,8z"/>
<path style="fill:#148CE0;" d="M248,8c-6.768,0-13.432,0.424-20,1.16C315.776,19.096,384,93.568,384,184
	c0,58.296-28.344,109.968-72,142h40c43.656-32.032,72-83.704,72-142C424,86.8,345.2,8,248,8z"/>
<rect x="48" y="440" style="fill:#ECECEC;" width="400" height="48"/>
<rect x="48" y="440" style="fill:#B6C1CE;" width="400" height="24"/>
<path style="fill:#D3A06C;" d="M248,80c-57.44,0-104,46.56-104,104v56h208v-56C352,126.56,305.44,80,248,80z"/>
<path style="fill:#B27946;" d="M320,192c0,13.728,0,30.728,0,48h32v-56c0-57.44-46.56-104-104-104v8C248,88,320,128,320,192z"/>
<polygon style="fill:#AFB8C9;" points="120,488 104,344 144,328 352,328 392,344 376,488 "/>
<polygon style="fill:#8C95A4;" points="387.4,385.432 392,344 352,328 304,328 384,384 "/>
<path style="fill:#F9E0A6;" d="M168,264c-13.256,0-24-10.744-24-24c0-13.256,10.744-24,24-24h160c13.256,0,24,10.744,24,24
	c0,13.256-10.744,24-24,24H168z"/>
<path style="fill:#ECECEC;" d="M330.672,298.664L320,296H176l-10.672,2.664C152.792,301.8,144,313.064,144,325.984
	c0,10.984,6.384,20.96,16.36,25.568L248,392l87.64-40.448c9.976-4.608,16.36-14.584,16.36-25.568
	C352,313.064,343.208,301.8,330.672,298.664z"/>
<path style="fill:#FCD770;" d="M392,344l-8,96h72v-32C456,372.656,427.344,344,392,344z"/>
<path style="fill:#FFC729;" d="M456,408c0-35.344-28.656-64-64-64l-1.104,13.24L392,360c0,0,32,16,32,80h32V408z"/>
<path style="fill:#FCD770;" d="M104,344c-35.344,0-64,28.656-64,64v32h72L104,344z"/>
<circle style="fill:#ECECEC;" cx="328" cy="432" r="24"/>
<path style="fill:#39C3FC;" d="M240,424h-80c-4.416,0-8,3.584-8,8v56h96v-56C248,427.584,244.416,424,240,424z"/>
<path style="fill:#148CE0;" d="M240,424h-16l-16,64h40v-56C248,427.584,244.416,424,240,424z"/>
<path style="fill:#F9E0A6;" d="M319.936,189.376C293.896,206.736,263.296,216,232,216c10.248-10.248,16-24.136,16-38.624V176
	l-5.024,3.016C219.832,192.904,194.472,202.704,168,208v48c0,44.184,35.816,80,80,80s80-35.816,80-80v-72L319.936,189.376z"/>
<path d="M464,408c0-39.112-31.352-70.968-70.24-71.912l-27.632-11.056C407.56,290.232,432,238.376,432,184
	C432,82.536,349.464,0,248,0S64,82.536,64,184c0,54.376,24.44,106.232,65.872,141.032l-27.632,11.056
	C63.352,337.032,32,368.888,32,408v40h8v48h416v-48h8V408z M448,408v24h-57.728l1.776-16H432v-16h-38.168l5.28-47.496
	C426.632,356.016,448,379.536,448,408z M152,325.984c0-9.264,6.28-17.304,15.272-19.552l7.416-1.856
	c0.568,0.856,1.184,1.664,1.784,2.496l-23.768,23.768C152.312,329.256,152,327.648,152,325.984z M152,240c0-5.896,3.24-11,8-13.776
	v27.544C155.24,251,152,245.896,152,240z M328.736,306.432C337.72,308.68,344,316.72,344,325.984c0,2-0.32,3.96-0.88,5.824
	l-24.08-24.08c0.768-1.048,1.56-2.072,2.272-3.152L328.736,306.432z M248,328c-39.704,0-72-32.296-72-72v-41.528
	c21.648-4.936,42.408-12.768,61.904-23.344c-2.232,7.192-6.184,13.84-11.56,19.216L212.688,224H232c31.248,0,61.56-8.68,88-25.152
	V256C320,295.704,287.704,328,248,328z M336,226.224c4.76,2.776,8,7.88,8,13.776s-3.24,11-8,13.776V226.224z M344,212.448
	c-2.48-1.448-5.152-2.576-8-3.312v-40.08l-20.496,13.664c-20.208,13.48-43.128,21.776-67.04,24.392
	c4.88-9.088,7.536-19.344,7.536-29.736v-15.504l-17.144,10.288c-19.616,11.768-40.72,20.448-62.856,25.864V192h-16v17.136
	c-2.848,0.736-5.52,1.864-8,3.312V184c0-52.936,43.064-96,96-96s96,43.064,96,96V212.448z M186.936,319.224
	c5.064,4.896,10.72,9.152,16.84,12.728l-10.712,25.872l-29.352-13.544c-0.408-0.184-0.72-0.504-1.104-0.72L186.936,319.224z
	 M218.288,338.728c6.896,2.488,14.152,4.184,21.712,4.864v35.896l-32.4-14.952L218.288,338.728z M256,343.592
	c6.912-0.624,13.576-2.08,19.944-4.216l10.752,25.952L256,379.496V343.592z M301.232,358.616L290.6,332.944
	c6.52-3.624,12.496-8.08,17.864-13.176l24.24,24.24c-0.152,0.072-0.264,0.2-0.416,0.264L301.232,358.616z M80,184
	c0-92.632,75.368-168,168-168s168,75.368,168,168c0,49.144-21.88,96.008-59.024,127.776c-4.344-10.136-13.12-18.056-24.36-20.864
	l-3.48-0.872c2.496-5.936,4.288-12.224,5.44-18.736C349.08,268.264,360,255.392,360,240v-56c0-61.76-50.24-112-112-112
	s-112,50.24-112,112v56c0,15.392,10.92,28.264,25.424,31.304c1.152,6.512,2.936,12.8,5.44,18.736l-3.472,0.872
	c-11.248,2.808-20.016,10.728-24.368,20.864C101.88,280.008,80,233.144,80,184z M138.472,338.832
	c3.32,8.672,9.84,15.968,18.536,19.984l90.992,42l90.992-42c8.696-4.016,15.216-11.312,18.536-19.984l25.848,10.336L368.84,480H256
	v-48c0-8.824-7.176-16-16-16h-80c-8.824,0-16,7.176-16,16v48h-16.84l-14.536-130.832L138.472,338.832z M240,480h-80v-48h80V480z
	 M48,408c0-28.464,21.368-51.984,48.896-55.496L102.168,400H64v16h39.952l1.776,16H48V408z M56,448h51.504l3.552,32H56V448z
	 M440,480h-55.064l3.552-32H440V480z"/>
<path d="M248,56V40c-5.68,0-11.376,0.328-16.936,0.984l1.872,15.888C237.872,56.296,242.944,56,248,56z"/>
<path d="M217.872,59.56l-3.752-15.544C149.28,59.648,104,117.208,104,184h16C120,124.632,160.248,73.464,217.872,59.56z"/>
<path d="M328,464c17.648,0,32-14.352,32-32s-14.352-32-32-32s-32,14.352-32,32S310.352,464,328,464z M328,416
	c8.824,0,16,7.176,16,16s-7.176,16-16,16s-16-7.176-16-16S319.176,416,328,416z"/>
<rect x="176" y="448" width="16" height="16"/>
<rect x="208" y="448" width="16" height="16"/>
<circle cx="288" cy="232" r="8"/>
<circle cx="208" cy="232" r="8"/>
<path d="M248,296c-8.824,0-16-7.176-16-16h-16c0,17.648,14.352,32,32,32s32-14.352,32-32h-16C264,288.824,256.824,296,248,296z"/>
<g>
</g>
<g>
</g>
<g>
</g>
<g>
</g>
<g>
</g>
<g>
</g>
<g>
</g>
<g>
</g>
<g>
</g>
<g>
</g>
<g>
</g>
<g>
</g>
<g>
</g>
<g>
</g>
<g>
</g>
</svg>
