<svg height="496pt" viewBox="0 0 496.61328 496" width="496pt" xmlns="http://www.w3.org/2000/svg"><path d="m438.316406 106.601562-43.839844 43.839844c-9.121093-5.117187-18.402343-12.15625-27.121093-20.878906-8.71875-8.71875-15.761719-18-20.878907-27.121094l43.839844-43.839844c9.117188 5.121094 18.398438 12.160157 27.117188 20.882813 8.722656 8.71875 15.761718 18 20.882812 27.117187zm0 0" fill="#656d78"/><path d="m372.957031 171.964844-34 34-22.960937 22.957031-86.800782 86.800781c-8.800781-6.398437-17.519531-13.839844-25.839843-22.160156-8.320313-8.320312-15.761719-17.039062-22.160157-25.839844l86.800782-86.800781 22.960937-22.957031 34-34 .078125-.082032c6.320313 8.800782 13.761719 17.601563 22.078125 25.921876 8.320313 8.320312 17.042969 15.757812 25.84375 22.160156zm0 0" fill="#656d78"/><path d="m205.835938 339.082031-34.242188 34.242188-86.796875 86.800781c-8.800781-6.402344-17.523437-13.839844-25.839844-22.160156-8.320312-8.320313-15.761719-17.042969-22.160156-25.839844l86.796875-86.800781 34.242188-34.242188c6.960937 8.5625 14.640624 17.042969 22.800781 25.203125 8.238281 8.238282 16.636719 15.839844 25.199219 22.796875zm0 0" fill="#656d78"/><g fill="#fcd770"><path d="m110.316406 137.722656c5.917969 2.320313 10.078125 8.082032 10.078125 14.800782 0 8.800781-7.199219 16-16 16s-16-7.199219-16-16c0-8.800782 7.199219-16 16-16 2.082031 0 4.082031.398437 5.921875 1.199218zm0 0"/><path d="m200.394531 416.523438c8.800781 0 16 7.199218 16 16 0 8.800781-7.199219 16-16 16h-.078125c-8.800781-.082032-15.921875-7.199219-15.921875-16 0-6.960938 4.480469-12.878907 10.71875-15.039063 1.683594-.640625 3.433594-.960937 5.28125-.960937zm0 0"/><path d="m56.394531 296.523438v.238281c-.160156 8.722656-7.28125 15.761719-16 15.761719-6.558593 0-12.160156-4-14.640625-9.601563-.878906-2-1.359375-4.160156-1.359375-6.398437 0-8.800782 7.199219-16 16-16s16 7.199218 16 16zm0 0"/><path d="m391.113281 312.601562c.402344-.078124.800781-.078124 1.28125-.078124 8.800781 0 16 7.199218 16 16 0 8.800781-7.199219 16-16 16-.480469 0-.960937 0-1.359375-.082032-8.160156-.71875-14.640625-7.597656-14.640625-15.917968 0-8.320313 6.480469-15.28125 14.71875-15.921876zm0 0"/><path d="m200.394531 136.523438c8.800781 0 16 7.199218 16 16 0 .878906-.078125 1.761718-.238281 2.558593-1.199219 7.601563-7.839844 13.441407-15.761719 13.441407-8.558593 0-15.597656-6.878907-16-15.359376 0-.242187 0-.402343 0-.640624 0-8.800782 7.199219-16 16-16zm0 0"/><path d="m302.714844 25.882812c5.679687 2.402344 9.679687 8.082032 9.679687 14.640626 0 8.71875-7.121093 15.917968-15.847656 16-.070313 0-.070313 0-.152344 0-8.800781 0-16-7.199219-16-16 0-8.800782 7.199219-16 16-16 2.242188 0 4.402344.480468 6.320313 1.359374zm0 0"/></g><path d="m377.226562 43.820312c-17.230468-5.746093-31.625-3.976562-40.558593 4.96875-8.945313 8.941407-10.710938 23.34375-4.96875 40.558594 5.113281 15.34375 15.777343 31.632813 30.007812 45.871094 14.230469 14.242188 30.519531 24.898438 45.863281 30.007812 6.640626 2.214844 12.855469 3.3125 18.503907 3.3125 9.007812 0 16.5625-2.785156 22.058593-8.28125 8.941407-8.941406 10.710938-23.34375 4.964844-40.558593-5.109375-15.34375-15.773437-31.632813-30.007812-45.871094-14.230469-14.242187-30.527344-24.898437-45.863282-30.007813zm-29.253906 16.277344c2.390625-2.390625 6.109375-3.589844 10.789063-3.589844 3.875 0 8.417969.824219 13.402343 2.488282 1.542969.519531 3.109376 1.109375 4.679688 1.765625l-28.207031 28.210937c-.648438-1.570312-1.25-3.136718-1.761719-4.679687-3.671875-11.007813-3.273438-19.816407 1.097656-24.195313zm8.542969 43.617188 35.0625-35.0625c6.90625 4.496094 13.753906 10.054687 20.191406 16.496094 6.441407 6.4375 12 13.285156 16.496094 20.191406l-35.0625 35.0625c-6.902344-4.496094-13.753906-10.054688-20.191406-16.496094-6.441407-6.4375-12-13.285156-16.496094-20.191406zm80.304687 45.234375c-4.371093 4.359375-13.175781 4.765625-24.183593 1.101562-1.546875-.519531-3.113281-1.113281-4.679688-1.765625l28.207031-28.210937c.648438 1.570312 1.246094 3.136719 1.757813 4.679687 3.664063 11.007813 3.265625 19.816406-1.101563 24.195313zm0 0"/><path d="m443.308594 53.609375c-23.578125-23.574219-50.785156-40.886719-76.585938-48.742187-27.527344-8.382813-50.566406-5.136719-64.832031 9.144531-.855469.855469-1.671875 1.824219-2.480469 2.816406-1-.128906-1.984375-.304687-3.015625-.304687-13.230469 0-24 10.769531-24 24 0 10.808593 7.234375 19.863281 17.074219 22.855468 2.8125 18.90625 11.628906 39.558594 25.191406 59.558594l-24.402344 24.402344c-67.453124-52.488282-140.09375-65.96875-174.550781-31.511719-3.761719 3.757813-6.816406 8.175781-9.519531 12.878906-.601562-.046875-1.175781-.183593-1.792969-.183593-13.230469 0-24 10.769531-24 24 0 10.527343 6.855469 19.390624 16.304688 22.625 2.175781 35.269531 20.617187 76.816406 50.503906 115.261718l-24.519531 24.511719c-20.105469-13.636719-40.769532-22.445313-59.417969-25.292969-2.984375-9.859375-12.046875-17.105468-22.871094-17.105468-13.230469 0-24 10.769531-24 24 0 1.039062.175781 2.03125.304688 3.039062-1.070313.855469-2.097657 1.730469-3 2.640625-14.273438 14.273437-17.519531 37.304687-9.144531 64.832031 7.847656 25.808594 25.167968 53.007813 48.746093 76.574219 23.566407 23.578125 50.773438 40.890625 76.574219 48.746094 10.015625 3.054687 19.441406 4.558593 28.054688 4.558593 15.074218 0 27.707031-4.613281 36.785156-13.703124 7.046875-7.039063 11.304687-16.671876 12.832031-27.902344 9.726563-3.058594 16.847656-12.058594 16.847656-22.785156 0-13.230469-10.765625-24-24-24-.046875 0-.09375.015624-.144531.015624-4.4375-11.351562-10.648438-22.960937-18.292969-34.265624l24.566407-24.566407c26.464843 20.625 54.472656 35.992188 81.457031 44.207031 14.613281 4.449219 28.328125 6.648438 40.832031 6.648438 21.503906 0 39.445312-6.519531 52.269531-19.351562 7.816407-7.808594 13.167969-17.6875 16.257813-29.207032 10.871094-2.289062 19.054687-11.945312 19.054687-23.480468 0-11.359376-7.953125-20.847657-18.558593-23.320313-5.953126-31.390625-22.839844-65.878906-48.265626-98.535156l24.359376-24.359375c14.5625 9.894531 29.5625 17.429687 44.136718 21.871094 10.015625 3.046874 19.441406 4.558593 28.058594 4.558593 15.070312 0 27.703125-4.613281 36.78125-13.703125 28.542969-28.550781 11.152344-90.671875-39.597656-141.425781zm-146.914063-21.085937c4.417969 0 8 3.59375 8 8s-3.582031 8-8 8c-4.414062 0-8-3.59375-8-8s3.585938-8 8-8zm-192 112c4.417969 0 8 3.59375 8 8 0 1.28125-.367187 2.449218-.902343 3.519531l-8.433594 4.207031c-3.75-.65625-6.664063-3.789062-6.664063-7.726562 0-4.40625 3.585938-8 8-8zm-64 144c4.375 0 7.914063 3.527343 7.976563 7.886718l-.03125.394532c-.152344 4.277343-3.632813 7.71875-7.945313 7.71875-4.414062 0-8-3.585938-8-8 0-4.417969 3.585938-8 8-8zm-16.007812 25.75c4.257812 3.84375 9.832031 6.25 16.007812 6.25 9.992188 0 18.5625-6.144532 22.167969-14.847657 15.105469 2.617188 31.921875 9.792969 48.625 20.742188l-73.257812 73.257812c-8.140626-12.410156-14.335938-25.054687-18.0625-37.296875-6.425782-21.105468-4.777344-38.09375 4.519531-48.105468zm184.007812 118.25c0 4.414062-3.582031 8-8 8-4.414062 0-8-3.585938-8-8 0-4.417969 3.585938-8 8-8 4.417969 0 8 3.582031 8 8zm-23.144531-18.464844c-5.359375 4.410156-8.855469 11-8.855469 18.464844 0 10.128906 6.320313 18.761718 15.207031 22.28125-1.191406 7.054687-3.910156 12.816406-8.199218 17.101562-9.902344 9.898438-27.261719 11.722656-48.863282 5.152344-12.238281-3.726563-24.886718-9.917969-37.296874-18.0625l73.199218-73.199219c6.152344 9.40625 11.136719 18.957031 14.808594 28.261719zm-101.160156 35.457031c-6.671875-5.222656-13.207032-10.945313-19.480469-17.207031-6.269531-6.265625-11.980469-12.808594-17.207031-19.480469l109.945312-109.945313c5.566406 6.488282 11.449219 12.855469 17.640625 19.046876 6.199219 6.203124 12.613281 11.992187 19.109375 17.578124zm308.304687-112.992187c-4.414062 0-8-3.585938-8-8 0-4.417969 3.585938-8 8-8 4.417969 0 8 3.582031 8 8 0 4.414062-3.582031 8-8 8zm-10.480469-29.488282c-7.976562 3.914063-13.519531 12.03125-13.519531 21.488282 0 9.273437 5.34375 17.238281 13.054688 21.238281-2.421875 7.976562-6.300781 14.761719-11.679688 20.136719-15.902343 15.90625-43.285156 19-77.125 8.703124-35.5625-10.820312-73.328125-34.957031-106.34375-67.980468-43.152343-43.160156-70.808593-94.441406-73.601562-135.664063 9.136719-3.402343 15.695312-12.128906 15.695312-22.433593 0-6.855469-2.925781-13.007813-7.550781-17.382813 1.808594-2.898437 3.808594-5.632813 6.175781-7.992187 27.9375-27.9375 92.207031-14.152344 151.847657 31.589843l-11.878907 11.882813c-14.265625-9.683594-28.847656-16.9375-42.914062-21.355469-1.613281-11.679687-11.558594-20.742187-23.679688-20.742187-11.230469 0-20.617187 7.792968-23.214843 18.230468-7.503907 2.25-13.945313 5.914063-19.105469 11.074219-14.277344 14.277344-17.527344 37.304687-9.152344 64.839844 7.847656 25.808593 25.167969 53 48.746094 76.582031 23.574219 23.585938 50.78125 40.890625 76.582031 48.746094 10.015625 3.046875 19.433594 4.550781 28.058594 4.550781 15.070312 0 27.703125-4.617187 36.78125-13.703125 22.191406-22.191406 16.90625-65.441406-12.710938-108.992188l11.792969-11.792968c22.902344 29.800781 38.167969 60.855468 43.742187 88.976562zm-217.6875-89.023437c-6.574218-21.617188-4.742187-38.96875 5.160157-48.863281 2.609375-2.609376 5.847656-4.59375 9.558593-6.074219 3.921876 7.929687 12.019532 13.449219 21.449219 13.449219 8.648438 0 16.175781-4.640626 20.402344-11.519532 11.292969 3.71875 23.023437 9.511719 34.664063 17.136719l-73.160157 73.167969c-8.136719-12.410156-14.335937-25.058594-18.074219-37.296875zm28.167969-65.488281c0-4.40625 3.585938-8 8-8 4.417969 0 8 3.59375 8 8s-3.582031 8-8 8c-4.414062 0-8-3.59375-8-8zm122.480469 88.839843c23.375 35.585938 28.839844 70.238281 12.902344 86.167969-9.902344 9.894531-27.238282 11.734375-48.863282 5.160156-12.238281-3.726562-24.886718-9.929687-37.296874-18.070312zm-86.40625 63.777344c-6.671875-5.226563-13.21875-10.9375-19.480469-17.210937-6.265625-6.269532-11.984375-12.804688-17.210937-19.476563l132.480468-132.488281c5.296876 6.65625 10.96875 13.207031 17.226563 19.460937 6.238281 6.242188 12.734375 12 19.390625 17.304688zm243.117188-121.425781c-9.902344 9.894531-27.246094 11.738281-48.863282 5.152344-23.335937-7.105469-48.167968-23-69.925781-44.75-25.378906-25.386719-42.882813-55.882813-47.265625-81.425782 8.710938-3.601562 14.863281-12.167968 14.863281-22.167968 0-6.160157-2.398437-11.734376-6.230469-15.984376 10.039063-9.136718 26.917969-10.742187 47.902344-4.359374 23.335938 7.105468 48.167969 23 69.929688 44.75 42.917968 42.929687 61.054687 97.320312 39.589844 118.785156zm0 0"/></svg>