<?xml version="1.0" encoding="iso-8859-1"?>
<!-- Generator: Adobe Illustrator 19.0.0, SVG Export Plug-In . SVG Version: 6.00 Build 0)  -->
<svg version="1.1" id="Capa_1" xmlns="http://www.w3.org/2000/svg" xmlns:xlink="http://www.w3.org/1999/xlink" x="0px" y="0px"
	 viewBox="0 0 496 496" style="enable-background:new 0 0 496 496;" xml:space="preserve">
<path style="fill:#ECECEC;" d="M424,224L424,224c0-22.088-17.912-40-40-40h-80c-22.088,0-40,17.912-40,40l0,0v80l11.976,29.944
	c2.432,6.072,8.312,10.056,14.856,10.056h106.336c6.544,0,12.424-3.984,14.856-10.056L424,304V224z"/>
<path style="fill:#B6C1CE;" d="M384,184h-24c22.088,0,40,17.912,40,40v80l-11.976,29.944c-2.432,6.072-8.312,10.056-14.856,10.056
	h24c6.544,0,12.424-3.984,14.856-10.056L424,304v-80C424,201.912,406.088,184,384,184z"/>
<path style="fill:#AFB8C9;" d="M288,304h-32c-4.416,0-8-3.584-8-8v-64c0-4.416,3.584-8,8-8h32h112h32c4.416,0,8,3.584,8,8v64
	c0,4.416-3.584,8-8,8h-32H288z"/>
<rect x="72" y="312" style="fill:#ECECEC;" width="104" height="32"/>
<rect x="72" y="280" style="fill:#FB5968;" width="104" height="32"/>
<path style="fill:#39C3FC;" d="M376,312h-64c-17.672,0-32-14.328-32-32v-32c0-17.672,14.328-32,32-32h64c17.672,0,32,14.328,32,32
	v32C408,297.672,393.672,312,376,312z"/>
<path style="fill:#148CE0;" d="M376,216h-24c17.672,0,32,14.328,32,32v32c0,17.672-14.328,32-32,32h24c17.672,0,32-14.328,32-32v-32
	C408,230.328,393.672,216,376,216z"/>
<path style="fill:#ECECEC;" d="M447.768,359.904L408,344H280l-39.768,15.904C215.936,369.624,200,393.16,200,419.328V488h288
	v-68.672C488,393.16,472.064,369.624,447.768,359.904z"/>
<path style="fill:#B6C1CE;" d="M447.768,359.904L408,344h-48l80.776,47.12C450.2,396.616,456,406.712,456,417.624V488h32v-68.672
	C488,393.16,472.064,369.624,447.768,359.904z"/>
<g>
	<polygon style="fill:#FCD770;" points="439.432,352 431.88,488 392,488 400,344 	"/>
	<polygon style="fill:#FCD770;" points="248,352 255.552,488 295.432,488 287.432,344 	"/>
	<rect x="328" y="416" style="fill:#FCD770;" width="32" height="32"/>
</g>
<circle style="fill:#148CE0;" cx="128" cy="128" r="120"/>
<path style="fill:#1261C5;" d="M128,8c-6.832,0-13.48,0.704-20,1.8c56.736,9.536,100,58.752,100,118.2s-43.264,108.664-100,118.2
	c6.52,1.096,13.168,1.8,20,1.8c66.272,0,120-53.728,120-120S194.272,8,128,8z"/>
<g>
	<path style="fill:#48C397;" d="M52.968,176H60c6.624,0,12-5.376,12-12s5.376-12,12-12s12-5.376,12-12v-8c0-6.624-5.376-12-12-12
		s-12-5.376-12-12v-8c0-6.624,5.376-12,12-12h16c6.624,0,12-5.376,12-12v-8.368c0-2.368-0.704-4.688-2.016-6.656l-13.096-19.64
		c-0.592-0.888-1.064-1.848-1.4-2.864L88,16c0,0-0.08-0.4-0.184-0.96C41.336,31.584,8,75.84,8,128c0,11.096,1.624,21.8,4.448,32H16
		h11.032c3.184,0,6.232,1.264,8.488,3.512l8.968,8.968C46.736,174.736,49.792,176,52.968,176z"/>
	<path style="fill:#48C397;" d="M163.528,13.352L160,16l-12.744,8.496C140.224,29.184,136,37.08,136,45.528v1.36
		c0,10.336,6.296,19.632,15.888,23.472l8.216,3.288c9.6,3.84,15.888,13.136,15.888,23.472v20.416c0,6.704,2.664,13.136,7.408,17.872
		l9.192,9.192c4.744,4.736,11.176,7.4,17.88,7.4c8.456,0,16.344,4.224,21.032,11.256l7.264,10.904
		C244.704,159.944,248,144.36,248,128C248,74.096,212.456,28.496,163.528,13.352z"/>
</g>
<path style="fill:#0FA196;" d="M248,128c0-53.904-35.544-99.504-84.472-114.648L160,16l-12.16,8.112
	C183.784,44.8,208,83.536,208,128c0,8.064-0.856,15.912-2.376,23.52c1.584,0.312,3.208,0.48,4.848,0.48
	c8.456,0,16.344,4.224,21.032,11.256l7.264,10.904C244.704,159.944,248,144.36,248,128z"/>
<path style="fill:#48C397;" d="M204.472,220.472L200,216l-11.312-11.312c-3-3-7.072-4.688-11.312-4.688H168c-8.84,0-16-7.16-16-16
	v-8c0-8.84-7.16-16-16-16s-16,7.16-16,16v6.112c0,6.064-3.424,11.6-8.848,14.312l-14.312,7.152c-5.416,2.712-8.84,8.256-8.84,14.312
	V240v1.024c12.528,4.44,25.952,6.976,40,6.976C157.064,248,183.704,237.664,204.472,220.472z"/>
<path style="fill:#0FA196;" d="M204.472,220.472L200,216l-11.312-11.312c-1.624-1.624-3.576-2.824-5.688-3.616
	c-18.08,23.408-44.56,40.016-75,45.136c0.072,0.008,0.16,0.064,0.232,0.08C114.656,247.384,121.256,248,128,248
	C157.064,248,183.704,237.664,204.472,220.472z"/>
<path style="fill:#D3A06C;" d="M154.592,416c-6.616,0-12.8-3.312-16.472-8.816l-4.248-6.368c-3.664-5.504-9.848-8.816-16.464-8.816
	H52.864c-7.824,0-14.912,4.608-18.096,11.76l-25.064,56.4C8.584,462.688,8,465.432,8,468.2l0,0c0,10.936,8.864,19.8,19.8,19.8H200
	v-72H154.592z"/>
<rect x="168" y="416" style="fill:#B27946;" width="32" height="72"/>
<path d="M450.744,352.48l-32.536-13.016c0.448-0.824,0.888-1.656,1.248-2.552l9.96-24.912H432c8.824,0,16-7.176,16-16v-64
	c0-8.824-7.176-16-16-16h-0.72c-3.824-22.664-23.536-40-47.28-40h-80c-23.736,0-43.448,17.336-47.28,40H256c-8.824,0-16,7.176-16,16
	v64c0,8.824,7.176,16,16,16h2.584l9.968,24.92c0.352,0.888,0.8,1.72,1.248,2.544l-32.536,13.016
	c-23.92,9.568-40.448,30.696-44.352,55.52H184V272H64v80h104v56h-13.4c-3.96,0-7.632-1.96-9.816-5.24l-4.248-6.384
	C135.368,388.624,126.72,384,117.4,384H52.864c-10.976,0-20.944,6.48-25.408,16.504L2.4,456.912C0.808,460.496,0,464.288,0,468.2
	C0,483.528,12.472,496,27.8,496H192h8h296v-76.672C496,389.72,478.232,363.48,450.744,352.48z M168,288v16H80v-16H168z M80,336v-16
	h88v16H80z M424.304,480h-23.848l7.088-127.56l23.336,9.336L424.304,480z M256.568,361.992l23.336-9.336L286.976,480H263.12
	L256.568,361.992z M295.888,352h95.648l-7.112,128H303L295.888,352z M432,296h-19.392c2.16-4.912,3.392-10.304,3.392-16v-32
	c0-5.696-1.232-11.088-3.392-16H432V296z M288,248c0-13.232,10.768-24,24-24h64c13.232,0,24,10.768,24,24v32
	c0,13.232-10.768,24-24,24h-64c-13.232,0-24-10.768-24-24V248z M304,192h80c14.864,0,27.288,10.232,30.864,24H400v0.208
	c-6.704-5.08-14.96-8.208-24-8.208h-64c-9.04,0-17.296,3.128-24,8.208V216h-14.864C276.712,202.232,289.136,192,304,192z M256,232
	h19.392c-2.16,4.912-3.392,10.304-3.392,16v32c0,5.696,1.232,11.088,3.392,16H256V232z M288,312v-0.208
	c6.704,5.08,14.96,8.208,24,8.208h64c9.04,0,17.296-3.128,24-8.208V312h12.184l-7.584,18.968c-1.224,3.056-4.144,5.032-7.432,5.032
	H290.832c-3.288,0-6.208-1.976-7.424-5.024L275.816,312H288z M240.904,368.464l3.08,55.536H208v-4.672
	C208,397.16,220.872,377.544,240.904,368.464z M27.8,480c-6.504,0-11.8-5.288-11.8-11.8c0-1.656,0.344-3.272,1.016-4.792L30.976,432
	H72v-16H38.088l3.992-8.992c1.896-4.256,6.128-7.008,10.784-7.008H117.4c3.96,0,7.632,1.96,9.816,5.24l4.248,6.384
	C136.632,419.376,145.28,424,154.6,424H192v56H27.8z M208,440h36.872l2.224,40H208V440z M440.336,480l2.224-40H480v40H440.336z
	 M480,424h-36.552l3.104-55.808c20.344,8.96,33.448,28.76,33.448,51.136V424z"/>
<path d="M320,456h48v-48h-48V456z M336,424h16v16h-16V424z"/>
<rect x="336" y="368" width="16" height="16"/>
<rect x="368" y="368" width="16" height="16"/>
<rect x="304" y="368" width="16" height="16"/>
<path d="M128,0C57.424,0,0,57.424,0,128s57.424,128,128,128s128-57.424,128-128S198.576,0,128,0z M16,128
	c0-45.656,27.496-84.96,66.776-102.376l5.128,15.384c0.56,1.688,1.352,3.296,2.336,4.768l13.096,19.64
	c0.432,0.656,0.664,1.424,0.664,2.216V76c0,2.2-1.792,4-4,4H84c-11.024,0-20,8.968-20,20v8c0,11.032,8.976,20,20,20
	c2.208,0,4,1.8,4,4v8c0,2.2-1.792,4-4,4c-11.024,0-20,8.968-20,20c0,2.2-1.792,4-4,4h-7.032c-1.048,0-2.08-0.432-2.832-1.168
	l-8.968-8.968c-3.72-3.728-8.872-5.864-14.136-5.864h-8.376C16.96,144.256,16,136.24,16,128z M128,240c-11.12,0-21.848-1.68-32-4.72
	v-17.392c0-3.048,1.696-5.792,4.424-7.16l14.312-7.16c8.184-4.08,13.264-12.312,13.264-21.456V176c0-4.416,3.592-8,8-8s8,3.584,8,8
	v8c0,13.232,10.768,24,24,24h9.368c2.136,0,4.152,0.832,5.664,2.344l9.24,9.24C174.056,232.4,151.92,240,128,240z M204.704,209.392
	l-10.36-10.36c-4.528-4.536-10.56-7.032-16.976-7.032H168c-4.408,0-8-3.584-8-8v-8c0-13.232-10.768-24-24-24s-24,10.768-24,24v6.112
	c0,3.048-1.696,5.792-4.424,7.16l-14.312,7.16C85.08,200.512,80,208.744,80,217.888v11.152C54.184,216.72,33.832,194.872,23.512,168
	h3.52c1.048,0,2.08,0.432,2.832,1.168l8.968,8.968c3.72,3.728,8.872,5.864,14.136,5.864H60c11.024,0,20-8.968,20-20
	c0-2.2,1.792-4,4-4c11.024,0,20-8.968,20-20v-8c0-11.032-8.976-20-20-20c-2.208,0-4-1.8-4-4v-8c0-2.2,1.792-4,4-4h16
	c11.024,0,20-8.968,20-20v-8.368c0-3.96-1.16-7.8-3.36-11.096l-13.096-19.648c-0.192-0.28-0.352-0.608-0.464-0.944L97.848,20.24
	C107.456,17.544,117.544,16,128,16c5.352,0,10.568,0.504,15.72,1.232l-0.904,0.6C133.536,24.032,128,34.384,128,45.528v1.352
	c0,13.688,8.208,25.816,20.928,30.904l8.208,3.28C163.736,83.712,168,90.008,168,97.12v20.416c0,8.88,3.464,17.24,9.744,23.528
	l9.192,9.184c6.288,6.288,14.64,9.752,23.536,9.752c5.792,0,11.168,2.872,14.376,7.696l4.76,7.136
	C223.552,187.912,215.072,199.616,204.704,209.392z M210.472,144c-4.616,0-8.952-1.8-12.216-5.064l-9.192-9.184
	c-3.264-3.264-5.064-7.6-5.064-12.224V97.12c0-13.688-8.208-25.816-20.928-30.904l-8.208-3.28C148.264,60.288,144,53.992,144,46.88
	v-1.352c0-5.792,2.88-11.168,7.696-14.384l12.744-8.496l0.544-0.272C208.6,37.704,240,79.216,240,128
	c0,9.792-1.392,19.24-3.76,28.288C229.952,148.56,220.56,144,210.472,144z"/>
<rect x="96" y="448" width="48" height="16"/>
<rect x="432" y="120" width="16" height="16"/>
<rect x="416" y="136" width="16" height="16"/>
<rect x="432" y="152" width="16" height="16"/>
<rect x="448" y="136" width="16" height="16"/>
<rect x="360" y="96" width="16" height="16"/>
<rect x="480" y="280" width="16" height="16"/>
<rect x="200" y="320" width="16" height="16"/>
<rect x="304" y="240" width="48" height="16"/>
<rect x="368" y="240" width="16" height="16"/>
<rect x="464" width="16" height="16"/>
<rect x="448" y="16" width="16" height="16"/>
<rect x="464" y="32" width="16" height="16"/>
<rect x="480" y="16" width="16" height="16"/>
<rect x="304" y="48" width="16" height="16"/>
<rect x="288" y="64" width="16" height="16"/>
<rect x="304" y="80" width="16" height="16"/>
<rect x="320" y="64" width="16" height="16"/>
<rect x="16" y="256" width="16" height="16"/>
<rect y="272" width="16" height="16"/>
<rect x="16" y="288" width="16" height="16"/>
<rect x="32" y="272" width="16" height="16"/>
<g>
</g>
<g>
</g>
<g>
</g>
<g>
</g>
<g>
</g>
<g>
</g>
<g>
</g>
<g>
</g>
<g>
</g>
<g>
</g>
<g>
</g>
<g>
</g>
<g>
</g>
<g>
</g>
<g>
</g>
</svg>
