<svg height="496pt" viewBox="0 0 496 496" width="496pt" xmlns="http://www.w3.org/2000/svg"><path d="m292.160156 376.558594c6.800782 1.839844 11.839844 8.082031 11.839844 15.441406 0 8.800781-7.199219 16-16 16-2.320312 0-4.480469-.480469-6.480469-1.359375-5.597656-2.480469-9.519531-8.160156-9.519531-14.640625 0-8.800781 7.199219-16 16-16 1.441406 0 2.878906.160156 4.160156.558594zm0 0" fill="#ff826e"/><path d="m464 416c0 22.089844-17.910156 40-40 40s-40-17.910156-40-40 17.910156-40 40-40 40 17.910156 40 40zm0 0" fill="#fcd770"/><path d="m304 8c8.800781 0 16 7.199219 16 16s-7.199219 16-16 16c-4.398438 0-8.398438-1.761719-11.28125-4.71875-2.957031-2.882812-4.71875-6.882812-4.71875-11.28125 0-8.800781 7.199219-16 16-16zm0 0" fill="#ff826e"/><path d="m53.359375 239.28125c1.679687 2.558594 2.640625 5.519531 2.640625 8.71875 0 8.800781-7.199219 16-16 16-2.398438 0-4.640625-.480469-6.640625-1.519531-5.519531-2.480469-9.359375-8.082031-9.359375-14.480469 0-8.800781 7.199219-16 16-16 5.601562 0 10.558594 2.878906 13.359375 7.28125zm0 0" fill="#ff826e"/><path d="m88 400c8.800781 0 16 7.199219 16 16 0 3.441406-1.039062 6.640625-2.960938 9.28125-2.960937 4.078125-7.679687 6.71875-13.039062 6.71875-8.800781 0-16-7.199219-16-16 0-4.640625 2-8.878906 5.28125-11.839844 2.796875-2.640625 6.558594-4.160156 10.71875-4.160156zm0 0" fill="#fcd770"/><g fill="#ffeaa7"><path d="m152 232c8.800781 0 16 7.199219 16 16 0 .480469 0 .960938-.078125 1.441406-.722656 8.160156-7.601563 14.558594-15.921875 14.558594s-15.199219-6.398438-15.921875-14.558594c-.078125-.480468-.078125-.960937-.078125-1.441406 0-8.800781 7.199219-16 16-16zm0 0"/><path d="m456 264c8.800781 0 16 7.199219 16 16s-7.199219 16-16 16c-4.398438 0-8.398438-1.761719-11.28125-4.71875-2.957031-2.882812-4.71875-6.882812-4.71875-11.28125 0-8.800781 7.199219-16 16-16zm0 0"/><path d="m144 64c0 22.089844-17.910156 40-40 40s-40-17.910156-40-40 17.910156-40 40-40 40 17.910156 40 40zm0 0"/></g><path d="m200 344c0 26.507812-21.492188 48-48 48s-48-21.492188-48-48 21.492188-48 48-48 48 21.492188 48 48zm0 0" fill="#fcd770"/><path d="m488 20.078125c0 2.5625-.800781 5.042969-2.320312 7.121094l-197.839844 268.960937c-14.800782-42.160156-48.71875-75.28125-91.359375-89.121094l272.398437-196.71875c2-1.519531 4.480469-2.320312 7.042969-2.320312 6.71875 0 12.078125 5.359375 12.078125 12.078125zm0 0" fill="#ffeaa7"/><path d="m152 288c-30.878906 0-56 25.121094-56 56s25.121094 56 56 56 56-25.121094 56-56-25.121094-56-56-56zm0 96c-22.054688 0-40-17.945312-40-40s17.945312-40 40-40 40 17.945312 40 40-17.945312 40-40 40zm0 0"/><path d="m301.246094 372.015625c1.800781-9.449219 2.753906-18.847656 2.753906-28.015625 0-16.199219-2.609375-31.792969-7.320312-46.441406l195.417968-265.628906c2.519532-3.417969 3.902344-7.632813 3.902344-11.882813 0-11.054687-8.992188-20.046875-20.105469-20.046875-4.246093 0-8.300781 1.3125-11.734375 3.800781l-269.273437 194.464844c-13.613281-4.019531-27.984375-6.265625-42.886719-6.265625-36.183594 0-70.703125 12.96875-98.222656 36.40625-3.90625-2.757812-8.640625-4.40625-13.777344-4.40625-13.230469 0-24 10.769531-24 24 0 6.382812 2.542969 12.152344 6.625 16.457031-14.769531 23.941407-22.625 51.253907-22.625 79.542969 0 83.816406 68.183594 152 152 152 56.519531 0 107.144531-30.617188 133.726562-80.230469.761719.070313 1.496094.230469 2.273438.230469 13.230469 0 24-10.769531 24-24 0-8.335938-4.28125-15.679688-10.753906-19.984375zm172.289062-355.253906c2.375-1.722657 6.464844.140625 6.464844 3.285156 0 .855469-.28125 1.707031-.792969 2.394531l-189.511719 257.597656c-15.582031-33.414062-42.871093-60.261718-76.664062-75.152343zm-433.535156 223.238281c4.40625 0 8 3.59375 8 8s-3.59375 8-8 8-8-3.59375-8-8 3.59375-8 8-8zm112 240c-74.992188 0-136-61.007812-136-136 0-25.761719 7.289062-50.617188 20.96875-72.304688 1 .128907 1.992188.304688 3.03125.304688 13.230469 0 24-10.769531 24-24 0-2.246094-.40625-4.390625-.992188-6.457031 24.808594-21.589844 56.144532-33.542969 88.992188-33.542969 74.992188 0 136 61.007812 136 136 0 7.910156-.792969 16.039062-2.304688 24.230469-12.136718 1.183593-21.695312 11.320312-21.695312 23.769531 0 6.679688 2.761719 12.71875 7.175781 17.078125-23.910156 43.890625-68.945312 70.921875-119.175781 70.921875zm136-80c-4.40625 0-8-3.59375-8-8s3.59375-8 8-8 8 3.59375 8 8-3.59375 8-8 8zm0 0"/><path d="m175.414062 242.855469c-2.367187-10.765625-11.949218-18.855469-23.414062-18.855469s-21.046875 8.089844-23.414062 18.855469c-47.042969 10.785156-80.585938 52.296875-80.585938 101.144531 0 21.519531 6.847656 42.601562 19.273438 60.113281-2.027344 3.519531-3.273438 7.542969-3.273438 11.886719 0 13.230469 10.769531 24 24 24 5.351562 0 10.257812-1.824219 14.246094-4.800781 15.289062 8.375 32.355468 12.800781 49.753906 12.800781 57.34375 0 104-46.65625 104-104 0-48.847656-33.542969-90.359375-80.585938-101.144531zm-23.414062-2.855469c4.40625 0 8 3.59375 8 8s-3.59375 8-8 8-8-3.59375-8-8 3.59375-8 8-8zm-64 184c-4.40625 0-8-3.59375-8-8s3.59375-8 8-8 8 3.59375 8 8-3.59375 8-8 8zm64 8c-14.230469 0-28.136719-3.6875-40.753906-10.335938.449218-1.824218.753906-3.703124.753906-5.664062 0-13.230469-10.769531-24-24-24-3.03125 0-5.910156.625-8.585938 1.65625-10.09375-14.65625-15.414062-31.679688-15.414062-49.65625 0-40.800781 27.65625-75.585938 66.664062-85.246094 3.960938 7.820313 11.984376 13.246094 21.335938 13.246094s17.375-5.425781 21.335938-13.246094c39.007812 9.660156 66.664062 44.445313 66.664062 85.246094 0 48.519531-39.480469 88-88 88zm0 0"/><path d="m256.132812 193.53125 66.464844-48.003906 9.367188 12.972656-66.464844 48zm0 0"/><path d="m333.675781 137.53125 22.152344-16.003906 9.371094 12.972656-22.15625 16zm0 0"/><path d="m442.339844 210.34375 15.996094-15.996094 11.316406 11.3125-16 15.996094zm0 0"/><path d="m346.339844 306.34375 87.996094-88 11.316406 11.316406-88 87.996094zm0 0"/><path d="m466.339844 122.34375 16-15.996094 11.3125 11.3125-16 15.996094zm0 0"/><path d="m394.339844 194.34375 64-64 11.3125 11.3125-64 64.003906zm0 0"/><path d="m186.34375 58.34375 15.996094-16 11.3125 11.316406-15.996094 15.996094zm0 0"/><path d="m74.34375 170.339844 104-104 11.3125 11.3125-104 104zm0 0"/><path d="m178.34375 138.34375 11.3125 11.3125 104.0625-104.0625c3.128906 1.503906 6.585938 2.40625 10.28125 2.40625 13.230469 0 24-10.769531 24-24s-10.769531-24-24-24-24 10.769531-24 24c0 3.695312.902344 7.152344 2.40625 10.28125zm125.65625-122.34375c4.40625 0 8 3.59375 8 8s-3.59375 8-8 8-8-3.59375-8-8 3.59375-8 8-8zm0 0"/><path d="m362.34375 18.34375 15.996094-15.996094 11.3125 11.3125-15.996094 15.996094zm0 0"/><path d="m290.339844 90.34375 64-64 11.316406 11.3125-64.003906 64.003906zm0 0"/><path d="m96 104h16c0-17.648438 14.351562-32 32-32v-16c-17.648438 0-32-14.351562-32-32h-16c0 17.648438-14.351562 32-32 32v16c17.648438 0 32 14.351562 32 32zm8-53.519531c3.558594 5.359375 8.160156 9.960937 13.519531 13.519531-5.359375 3.558594-9.960937 8.160156-13.519531 13.519531-3.558594-5.359375-8.160156-9.960937-13.519531-13.519531 5.359375-3.558594 9.960937-8.160156 13.519531-13.519531zm0 0"/><path d="m432 376h-16c0 17.648438-14.351562 32-32 32v16c17.648438 0 32 14.351562 32 32h16c0-17.648438 14.351562-32 32-32v-16c-17.648438 0-32-14.351562-32-32zm-8 53.519531c-3.558594-5.359375-8.160156-9.960937-13.519531-13.519531 5.359375-3.558594 9.960937-8.160156 13.519531-13.519531 3.558594 5.359375 8.160156 9.960937 13.519531 13.519531-5.359375 3.558594-9.960937 8.160156-13.519531 13.519531zm0 0"/><path d="m456 256c-13.230469 0-24 10.769531-24 24 0 3.695312.902344 7.152344 2.40625 10.28125l-120.0625 120.0625 11.3125 11.3125 120.0625-120.0625c3.128906 1.503906 6.585938 2.40625 10.28125 2.40625 13.230469 0 24-10.769531 24-24s-10.769531-24-24-24zm0 32c-4.40625 0-8-3.59375-8-8s3.59375-8 8-8 8 3.59375 8 8-3.59375 8-8 8zm0 0"/></svg>