<?xml version="1.0" encoding="iso-8859-1"?>
<!-- Generator: Adobe Illustrator 19.0.0, SVG Export Plug-In . SVG Version: 6.00 Build 0)  -->
<svg version="1.1" id="Capa_1" xmlns="http://www.w3.org/2000/svg" xmlns:xlink="http://www.w3.org/1999/xlink" x="0px" y="0px"
	 viewBox="0 0 489.936 489.936" style="enable-background:new 0 0 489.936 489.936;" xml:space="preserve">
<g>
	<polygon style="fill:#ECECEC;" points="58,17.936 26,25.936 59.336,145.936 90,133.136 	"/>
	<polygon style="fill:#ECECEC;" points="458,17.936 359.456,52.568 375.92,130.856 471.512,118.928 	"/>
	<polygon style="fill:#ECECEC;" points="361.104,60.392 170,113.936 178,153.936 374.272,123.024 	"/>
</g>
<polygon style="fill:#FCD770;" points="210,145.936 202,105.936 201.832,105.016 170,113.936 178,153.936 210.632,148.8 "/>
<polygon style="fill:#AFB8C9;" points="178,145.936 170,121.936 59.256,145.664 66,169.936 "/>
<g>
	<polygon style="fill:#8C95A4;" points="153.456,151.2 178,145.936 170,121.936 148.52,126.536 	"/>
	
		<rect x="221.487" y="61.445" transform="matrix(-0.9701 0.2425 -0.2425 -0.9701 487.7531 95.8334)" style="fill:#8C95A4;" width="32.982" height="32.982"/>
</g>
<polygon style="fill:#ECECEC;" points="274,17.936 178,49.936 186,73.936 282,49.936 "/>
<polygon style="fill:#FCD770;" points="375.92,130.856 418.512,125.544 418,121.936 402,41.936 401.008,37.968 359.456,52.568 "/>
<polygon style="fill:#B6C1CE;" points="353.504,126.296 374.272,123.024 361.104,60.392 340.84,66.072 "/>
<circle style="fill:#8C95A4;" cx="242" cy="177.936" r="32"/>
<path d="M489.872,136.544l-24-136L450.12,3.328l1.48,8.376L350.176,47.352l1.552,7.368l-88.12,24.688l-3.912-15.648l12.72-3.184
	l1.824,7.296L289.752,64l-16-64L258.24,3.872l2.512,10.048L167.88,44.872l12.864,38.616l31.432-7.856l4.248,16.992l-55.728,15.608
	l1.44,7.208L97.24,129.344L86.08,89.152l21.848-5.464l-3.872-15.512L81.8,73.736L68.416,25.568l23.512-5.88L88.064,4.176l-88,22
	l3.872,15.52l16.96-4.24L34.28,85.624l-18.216,4.552l3.872,15.512l18.616-4.656l21.752,78.296l109.912-23.552l1.448,7.248
	l36.232-5.704c-3.664,6.048-5.896,13.048-5.896,20.616c0,8.72,2.88,16.728,7.632,23.304L154,336.352v137.584h-8v16h32v-16h-8v-128
	h64v128h-8v16h32v-16h-8v-128h64v128h-8v16h32v-16h-8V336.352l-55.632-135.104c4.752-6.584,7.632-14.592,7.632-23.312
	c0-12.048-5.472-22.744-13.928-30.088l99.936-15.736l1.6,7.592l102.328-12.776l2.184,12.392L489.872,136.544z M242,201.936
	c-13.232,0-24-10.768-24-24s10.768-24,24-24s24,10.768,24,24S255.232,201.936,242,201.936z M173.944,329.936l48.344-117.408
	c3.616,2.072,7.496,3.736,11.712,4.6v112.808H173.944z M250,217.128c4.208-0.856,8.088-2.528,11.712-4.6l48.344,117.408H250V217.128
	z M188.12,55l76.528-25.512l3.896,15.576l-77.288,19.32L188.12,55z M227.696,71.752l16.488-4.12l4.024,16.088l-16.368,4.584
	L227.696,71.752z M36.424,33.568l16.472-4.112L66.28,77.624l-16.464,4.12L36.424,33.568z M70.552,93.04l11.016,39.664l-16.624,3.56
	L54.08,97.152L70.552,93.04z M71.696,160.536l-2.456-8.832l96.04-20.584l1.792,8.968L71.696,160.536z M179.296,119.64l16.368-4.584
	l5.432,27.152l-16.76,2.64L179.296,119.64z M216.912,139.712l-5.8-28.984l143.912-40.32l9.68,46.032L216.912,139.712z
	 M368.728,57.784l26.432-9.288l14.032,70.144L382.24,122L368.728,57.784z M425.104,116.656L410.4,43.144l44.024-15.472
	l14.736,83.488L425.104,116.656z"/>
<rect x="234" y="169.936" width="16" height="16"/>
<g>
</g>
<g>
</g>
<g>
</g>
<g>
</g>
<g>
</g>
<g>
</g>
<g>
</g>
<g>
</g>
<g>
</g>
<g>
</g>
<g>
</g>
<g>
</g>
<g>
</g>
<g>
</g>
<g>
</g>
</svg>
