<?xml version="1.0" encoding="iso-8859-1"?>
<!-- Generator: Adobe Illustrator 19.0.0, SVG Export Plug-In . SVG Version: 6.00 Build 0)  -->
<svg version="1.1" id="Capa_1" xmlns="http://www.w3.org/2000/svg" xmlns:xlink="http://www.w3.org/1999/xlink" x="0px" y="0px"
	 viewBox="0 0 496 496" style="enable-background:new 0 0 496 496;" xml:space="preserve">
<polygon style="fill:#AFB8C9;" points="232,72 208,104 360,104 360,72 "/>
<path style="fill:#ECECEC;" d="M487.24,380.76L456,248L336,104H176c-4.416,0-8,3.584-8,8v112c0,4.416,3.584,8,8,8h144l43.52,188.576
	C366.144,431.944,376.264,440,387.936,440c2.696,0,5.368-0.432,7.92-1.288l72.528-24.176c11.72-3.904,19.616-14.864,19.616-27.208
	C488,385.12,487.744,382.912,487.24,380.76z"/>
<path style="fill:#AFB8C9;" d="M448,56h-24h-8c-53.016,0-96,42.984-96,96s42.984,96,96,96h8h32v-40V96V64
	C456,59.584,452.416,56,448,56z"/>
<path style="fill:#FCD770;" d="M448,248h-24V56h24c4.416,0,8,3.584,8,8v176C456,244.416,452.416,248,448,248z"/>
<circle style="fill:#39C3FC;" cx="424" cy="152" r="64"/>
<path style="fill:#148CE0;" d="M424,88c-4.104,0-8.112,0.424-12,1.16c29.608,5.624,52,31.6,52,62.84s-22.392,57.216-52,62.84
	c3.888,0.736,7.896,1.16,12,1.16c35.344,0,64-28.656,64-64S459.344,88,424,88z"/>
<rect x="136" y="144" style="fill:#AFB8C9;" width="32" height="48"/>
<g>
	<path style="fill:#FCD770;" d="M128,216h-16c-4.416,0-8-3.584-8-8v-80c0-4.416,3.584-8,8-8h16c4.416,0,8,3.584,8,8v80
		C136,212.416,132.416,216,128,216z"/>
	<path style="fill:#FCD770;" d="M64,200H48c-4.416,0-8-3.584-8-8v-48c0-4.416,3.584-8,8-8h16c4.416,0,8,3.584,8,8v48
		C72,196.416,68.416,200,64,200z"/>
</g>
<rect x="72" y="152" style="fill:#AFB8C9;" width="32" height="32"/>
<circle style="fill:#FEA82F;" cx="24" cy="168" r="16"/>
<path style="fill:#B6C1CE;" d="M336,320l-16-88h-48c15.704,26.176,24,56.12,24,86.648V320H336z"/>
<path style="fill:#8C95A4;" d="M320,232h-48c4.616,7.688,8.512,15.736,11.824,24h40.544L320,232z"/>
<path style="fill:#D3A06C;" d="M432,424l-28.36-120.536c-2.288-9.744-9.008-17.848-18.152-21.912L328,256l-2.36,0.448
	l37.872,164.128C366.144,431.944,376.264,440,387.936,440c2.696,0,5.368-0.432,7.92-1.288l36.64-12.216L432,424z"/>
<polygon style="fill:#FCD770;" points="320,136 200,136 200,200 328,200 "/>
<path style="fill:#FFC729;" d="M306.088,200H328l-8-64h-22.808c-0.704,5.248-1.192,10.56-1.192,16
	C296,169.072,299.64,185.288,306.088,200z"/>
<path d="M424,112v16c13.232,0,24,10.768,24,24h16C464,129.944,446.056,112,424,112z"/>
<path d="M464,247.064v-35.232c19.28-12.936,32-34.92,32-59.824s-12.72-46.896-32-59.824V64c0-8.824-7.176-16-16-16h-16h-8h-8
	c-20.624,0-39.816,6.112-56,16.504V64H228l-24,32h-28c-8.824,0-16,7.176-16,16v24h-16v-8c0-8.824-7.176-16-16-16h-16
	c-8.824,0-16,7.176-16,16v16H80c0-8.824-7.176-16-16-16H48c-8.824,0-16,7.176-16,16v1.472c-2.512-0.896-5.184-1.472-8-1.472
	c-13.232,0-24,10.768-24,24s10.768,24,24,24c2.816,0,5.488-0.576,8-1.472V192c0,8.824,7.176,16,16,16h16c8.824,0,16-7.176,16-16h16
	v16c0,8.824,7.176,16,16,16h16c8.824,0,16-7.176,16-16v-8h16v24c0,8.824,7.176,16,16,16h41.44l17.568,87.84
	c3.728,18.64,20.224,32.16,39.224,32.16h67.096l14.392,62.376C359.2,437.464,372.448,448,387.936,448
	c3.552,0,7.064-0.568,10.456-1.704l72.528-24.168c15-5,25.08-18.984,25.08-34.8c0-2.832-0.328-5.656-0.976-8.408L464,247.064z
	 M24,176c-4.408,0-8-3.584-8-8s3.592-8,8-8s8,3.584,8,8S28.408,176,24,176z M48,192v-48h16l0.008,48H48z M80,176v-16h16v16H80z
	 M432,223.528c5.552-0.616,10.896-1.92,16-3.728V240h-16V223.528z M480,152c0,30.872-25.12,56-56,56s-56-25.128-56-56
	s25.12-56,56-56S480,121.128,480,152z M448,64v20.2c-5.104-1.816-10.448-3.112-16-3.728V64H448z M416,80.472
	C380.056,84.464,352,115,352,152s28.056,67.536,64,71.528V240c-48.52,0-88-39.48-88-88s39.48-88,88-88V80.472z M320.024,192H208v-48
	h104.408c-0.208,2.648-0.408,5.296-0.408,8C312,166.168,314.872,179.68,320.024,192z M236,80h105.128
	c-4.712,4.896-8.936,10.256-12.624,16H224L236,80z M112,208v-80h16l0.008,80H112z M144,184v-32h16v32H144z M274.232,344
	c-11.4,0-21.296-8.12-23.536-19.296L233.76,240h33.536C280.8,263.992,288,291.064,288,318.648V328h45.944l3.688,16H274.232z
	 M413.304,379.464l-46.992,17.624l-5.504-23.848l46.888-17.584L413.304,379.464z M357.176,357.512l-5.504-23.848l46.728-17.52
	l5.6,23.808L357.176,357.512z M348.04,317.936L336.656,268.6l45.584,20.256c5.296,2.352,9.488,6.608,11.928,11.784L348.04,317.936z
	 M330.248,312h-26.376c-0.944-25.064-7.288-49.6-18.448-72h28.208L330.248,312z M393.336,431.12
	c-9.424,3.152-19.816-2.776-22.016-12.336l-1.376-5.96L417,395.176l6.12,26.024L393.336,431.12z M465.856,406.952l-27.496,9.16
	l-26.936-114.48c-2.84-12.112-11.328-22.352-22.688-27.4l-56.584-25.144L326.36,224H176v-24v-64v-24h144.024
	c-2.144,5.128-3.808,10.496-5.12,16H192v80h136v-0.832C346.416,236.448,378.928,256,416,256h8h8h17.664l29.792,126.592
	c0.36,1.552,0.544,3.144,0.544,4.736C480,396.24,474.32,404.128,465.856,406.952z"/>
<rect x="256" y="160" width="16" height="16"/>
<rect x="288" y="160" width="16" height="16"/>
<rect x="224" y="160" width="16" height="16"/>
<rect x="448" y="368" width="16" height="16"/>
<g>
</g>
<g>
</g>
<g>
</g>
<g>
</g>
<g>
</g>
<g>
</g>
<g>
</g>
<g>
</g>
<g>
</g>
<g>
</g>
<g>
</g>
<g>
</g>
<g>
</g>
<g>
</g>
<g>
</g>
</svg>
