<svg height="500.584pt" viewBox="0 0 500.584 500.584" width="500.584pt" xmlns="http://www.w3.org/2000/svg"><path d="m224.984375 405.601562c-12.082031-2.082031-23.679687-5.523437-34.640625-10.167968l-85.199219-85.195313c-4.640625-10.957031-8.089843-22.558593-10.167969-34.636719-.152343.078126-.402343.160157-.550781.320313-15.691406 6.476563-31.761719 8.636719-46.722656 7.199219 1.441406 14.957031-.71875 31.039062-7.199219 46.71875-6.480468 15.679687-16.320312 28.640625-27.917968 38.160156 11.597656 9.519531 21.4375 22.480469 27.917968 38.160156 6.480469 15.679688 8.640625 31.761719 7.199219 46.71875 14.960937-1.445312 31.039063.722656 46.730469 7.191406 15.671875 6.488282 28.628906 16.328126 38.152344 27.929688 9.519531-11.601562 22.476562-21.441406 38.148437-27.921875 15.691406-6.476563 31.769531-8.636719 46.730469-7.191406-1.449219-14.957031.71875-31.039063 7.191406-46.726563.167969-.160156.246094-.398437.328125-.558594zm0 0" fill="#ff826e"/><path d="m190.34375 395.441406c-10.320312 21.597656-32.238281 36.558594-57.757812 36.558594-35.363282 0-64-28.640625-64-64 0-25.519531 14.957031-47.441406 36.558593-57.761719 7.910157 18.640625 19.28125 35.515625 33.28125 49.761719 14.636719 15.039062 32.238281 27.121094 51.917969 35.441406zm0 0" fill="#fcd770"/><g fill="#b4dd7f"><path d="m316.585938 248h96c0 36.078125-11.921876 69.359375-32.082032 96.078125l-.160156-.078125h-111.757812c-4.402344 0-8.402344-1.761719-11.28125-4.71875-2.960938-2.882812-4.71875-6.882812-4.71875-11.28125 0-8.800781 7.199218-16 16-16h64c4.398437 0 8.398437-1.761719 11.277343-4.71875 2.960938-2.882812 4.722657-6.882812 4.722657-11.28125 0-8.800781-7.203126-16-16-16h-16c-4.402344 0-8.402344-1.761719-11.28125-4.71875-2.960938-2.882812-4.71875-6.882812-4.71875-11.28125 0-8.800781 7.199218-16 16-16zm0 0"/><path d="m93.382812 264h119.203126c4.398437 0 8.398437 1.761719 11.277343 4.71875 2.960938 2.882812 4.722657 6.882812 4.722657 11.28125 0 8.800781-7.203126 16-16 16h-48c-4.402344 0-8.402344 1.761719-11.28125 4.71875-2.960938 2.882812-4.71875 6.882812-4.71875 11.28125 0 8.800781 7.199218 16 16 16h40c4.398437 0 8.398437 1.761719 11.277343 4.71875 2.960938 2.882812 4.722657 6.882812 4.722657 11.28125 0 8.800781-7.203126 16-16 16h-66.160157c-14-14.238281-25.371093-31.121094-33.28125-49.761719-4.640625-10.957031-8.089843-22.558593-10.167969-34.636719-.710937-3.761718-1.191406-7.679687-1.59375-11.601562zm0 0"/><path d="m263.863281 188.71875c2.960938 2.882812 4.722657 6.882812 4.722657 11.28125 0 8.800781-7.203126 16-16 16h-156.800782c7.910156-39.121094 30.160156-73.121094 61.039063-96.152344l.078125.152344h79.683594c4.398437 0 8.398437 1.761719 11.277343 4.71875 2.960938 2.882812 4.722657 6.882812 4.722657 11.28125 0 8.800781-7.203126 16-16 16h-48c-4.402344 0-8.402344 1.761719-11.28125 4.71875-2.960938 2.882812-4.71875 6.882812-4.71875 11.28125 0 8.800781 7.199218 16 16 16h64c4.398437 0 8.398437 1.761719 11.277343 4.71875zm0 0"/></g><path d="m268.585938 344h111.757812l.167969.078125c-29.207031 38.882813-75.609375 63.921875-127.925781 63.921875-9.441407 0-18.640626-.800781-27.601563-2.398438-12.082031-2.082031-23.679687-5.523437-34.640625-10.167968-19.679688-8.320313-37.28125-20.402344-51.910156-35.441406h66.152344c8.796874 0 16-7.199219 16-16 0-4.398438-1.761719-8.398438-4.722657-11.28125-2.878906-2.949219-6.878906-4.710938-11.277343-4.710938h-40c-8.800782 0-16-7.199219-16-16 0-4.398438 1.757812-8.398438 4.71875-11.28125 2.878906-2.957031 6.878906-4.71875 11.28125-4.71875h48c8.796874 0 16-7.199219 16-16 0-4.398438-1.761719-8.398438-4.722657-11.28125-2.878906-2.957031-6.878906-4.71875-11.277343-4.71875h-119.203126c-.550781-5.28125-.796874-10.558594-.796874-16 0-10.960938 1.117187-21.679688 3.199218-32h156.800782c8.796874 0 16-7.199219 16-16 0-4.398438-1.761719-8.398438-4.722657-11.28125-2.878906-2.957031-6.878906-4.71875-11.277343-4.71875h-64c-8.800782 0-16-7.199219-16-16 0-4.398438 1.757812-8.398438 4.71875-11.28125 2.878906-2.957031 6.878906-4.71875 11.28125-4.71875h48c8.796874 0 16-7.199219 16-16 0-4.398438-1.761719-8.398438-4.722657-11.28125-2.878906-2.957031-6.878906-4.71875-11.277343-4.71875h-79.683594l-.078125-.152344c26.640625-20 59.839843-31.847656 95.761719-31.847656 11.679687 0 23.039062 1.359375 34 3.679688-1.28125 6.558593-2 13.359374-2 20.320312 0 57.441406 46.558593 104 104 104 6.957031 0 13.757812-.71875 20.316406-2 2.320312 10.960938 3.683594 22.320312 3.683594 34h-96c-8.800782 0-16 7.199219-16 16 0 4.398438 1.757812 8.398438 4.71875 11.28125 2.878906 2.957031 6.878906 4.71875 11.28125 4.71875h16c8.796874 0 16 7.199219 16 16 0 4.398438-1.761719 8.398438-4.722657 11.28125-2.878906 2.957031-6.878906 4.71875-11.277343 4.71875h-64c-8.800782 0-16 7.199219-16 16 0 4.398438 1.757812 8.398438 4.71875 11.28125 2.878906 2.957031 6.878906 4.71875 11.28125 4.71875zm0 0" fill="#69d6f4"/><path d="m284.585938 112c0-6.960938.71875-13.761719 2-20.320312 9.4375-47.679688 51.519531-83.679688 102-83.679688 57.4375 0 104 46.558594 104 104 0 50.480469-36 92.558594-83.683594 102-6.558594 1.28125-13.359375 2-20.316406 2-57.441407 0-104-46.558594-104-104zm0 0" fill="#ffeaa7"/><path d="m380.585938 160c0 8.835938-7.164063 16-16 16-8.839844 0-16-7.164062-16-16s7.160156-16 16-16c8.835937 0 16 7.164062 16 16zm0 0" fill="#fcd770"/><path d="m388.585938 0c-51.515626 0-94.898438 35-107.914063 82.441406-9.390625-1.601562-18.808594-2.441406-28.085937-2.441406-92.632813 0-168 75.367188-168 168 0 7.566406.679687 14.976562 1.652343 22.28125-12.367187 4.3125-25.300781 6.101562-37.734375 4.902344l-9.671875-.9375.9375 9.675781c1.375 14.167969-.9375 29-6.691406 42.863281-5.742187 13.863282-14.582031 25.976563-25.582031 35.039063l-7.496094 6.175781 7.503906 6.167969c11 9.0625 19.839844 21.167969 25.585938 35.039062 5.75 13.863281 8.0625 28.695313 6.6875 42.863281l-.9375 9.671876 9.671875-.933594c14.144531-1.375 29 .933594 42.863281 6.6875 13.863281 5.742187 25.976562 14.582031 35.039062 25.582031l6.171876 7.507813 6.167968-7.507813c9.0625-11 21.167969-19.839844 35.039063-25.582031 13.863281-5.753906 28.726562-8.0625 42.863281-6.6875l9.671875.933594-.9375-9.671876c-1.214844-12.535156.609375-25.527343 4.882813-37.734374 7.320312.984374 14.726562 1.664062 22.3125 1.664062 92.628906 0 168-75.367188 168-168 0-9.28125-.84375-18.695312-2.441407-28.089844 47.441407-13.015625 82.441407-56.398437 82.441407-107.910156 0-61.761719-50.242188-112-112-112zm-228.953126 128h76.953126c4.414062 0 8 3.585938 8 8s-3.585938 8-8 8h-48c-13.234376 0-24 10.769531-24 24s10.765624 24 24 24h64c4.414062 0 8 3.585938 8 8s-3.585938 8-8 8h-146.480469c8.796875-32.175781 27.863281-60.070312 53.527343-80zm4.953126 208h40c4.414062 0 8 3.585938 8 8s-3.585938 8-8 8h-62.546876c-20.40625-21.679688-34.464843-49.304688-39.367187-80h109.914063c4.414062 0 8 3.585938 8 8s-3.585938 8-8 8h-48c-13.234376 0-24 10.769531-24 24s10.765624 24 24 24zm-62.890626-14.617188c16.464844 33.707032 43.800782 61.042969 77.503907 77.503907-10.277344 15.464843-27.832031 25.113281-46.613281 25.113281-30.875 0-56-25.128906-56-56 0-18.785156 9.644531-36.335938 25.109374-46.617188zm107.320313 123.050782c-13.953125-.394532-28.015625 2.757812-41.34375 8.285156-13.320313 5.511719-25.296875 13.511719-35.085937 23.378906-9.792969-9.859375-21.769532-17.859375-35.089844-23.378906-13.328125-5.527344-27.34375-8.574219-41.34375-8.285156.054687-13.890625-2.769532-28.019532-8.289063-41.34375-5.511719-13.320313-13.511719-25.296875-23.375-35.089844 9.855469-9.792969 17.855469-21.769531 23.375-35.089844 5.519531-13.324218 8.34375-27.453125 8.289063-41.34375 11.046875-.261718 22.207031-1.933594 32.992187-5.335937 1.632813 6.984375 3.726563 13.777343 6.207031 20.402343-21.28125 12.953126-34.765624 36.238282-34.765624 61.367188 0 39.703125 32.292968 72 72 72 25.125 0 48.414062-13.488281 61.367187-34.769531 6.605469 2.472656 13.382813 4.570312 20.359375 6.203125-3.496094 10.804687-5.34375 21.964844-5.296875 33zm123.570313-172.433594h-16c-4.417969 0-8-3.585938-8-8s3.582031-8 8-8h87.589843c-1.558593 29.726562-11.609375 57.183594-27.886719 80h-107.703124c-4.417969 0-8-3.585938-8-8s3.582031-8 8-8h64c13.230468 0 24-10.769531 24-24s-10.769532-24-24-24zm71.558593-32h-87.558593c-13.234376 0-24 10.769531-24 24s10.765624 24 24 24h16c4.414062 0 8 3.585938 8 8s-3.585938 8-8 8h-64c-13.234376 0-24 10.769531-24 24s10.765624 24 24 24h94.542968c-27.746094 29.472656-66.976562 48-110.542968 48-35.027344 0-67.226563-12.023438-92.953126-32h44.953126c13.230468 0 24-10.769531 24-24s-10.769532-24-24-24h-40c-4.417969 0-8-3.585938-8-8s3.582031-8 8-8h48c13.230468 0 24-10.769531 24-24s-10.769532-24-24-24h-111.59375c-.144532-2.664062-.40625-5.296875-.40625-8 0-8.183594.828124-16.160156 2.085937-24h149.914063c13.230468 0 24-10.769531 24-24s-10.769532-24-24-24h-64c-4.417969 0-8-3.585938-8-8s3.582031-8 8-8h48c13.230468 0 24-10.769531 24-24s-10.769532-24-24-24h-51.472657c20.359375-10.144531 43.222657-16 67.472657-16 8.222656 0 16.574218.921875 24.917968 2.320312-.550781 4.496094-.917968 9.039063-.917968 13.679688 0 61.761719 50.238281 112 112 112 4.636718 0 9.183593-.367188 13.679687-.921875.941406 5.65625 1.574219 11.296875 1.878906 16.921875zm-15.558593-32c-52.9375 0-96-43.0625-96-96s43.0625-96 96-96c52.933593 0 96 43.0625 96 96s-43.066407 96-96 96zm0 0"/><path d="m428.585938 88c0 13.230469 10.765624 24 24 24v-16c-4.417969 0-8-3.585938-8-8s3.582031-8 8-8v-16c-13.234376 0-24 10.769531-24 24zm0 0"/><path d="m308.585938 96v16c4.414062 0 8 3.585938 8 8s-3.585938 8-8 8v16c13.230468 0 24-10.769531 24-24s-10.769532-24-24-24zm0 0"/><path d="m428.585938 128c-13.234376 0-24 10.769531-24 24h16c0-4.414062 3.582031-8 8-8 4.414062 0 8 3.585938 8 8s-3.585938 8-8 8v16c13.230468 0 24-10.769531 24-24s-10.769532-24-24-24zm0 0"/><path d="m364.585938 56c0 13.230469 10.765624 24 24 24v-16c-4.417969 0-8-3.585938-8-8s3.582031-8 8-8v-16c-13.234376 0-24 10.769531-24 24zm0 0"/><path d="m364.585938 136c-13.234376 0-24 10.769531-24 24s10.765624 24 24 24c13.230468 0 24-10.769531 24-24s-10.769532-24-24-24zm0 32c-4.417969 0-8-3.585938-8-8s3.582031-8 8-8c4.414062 0 8 3.585938 8 8s-3.585938 8-8 8zm0 0"/><path d="m324.585938 64h16v16h-16zm0 0"/><path d="m372.585938 96h16v16h-16zm0 0"/><path d="m404.585938 48h16v16h-16zm0 0"/><path d="m396.585938 176h16v16h-16zm0 0"/><path d="m444.585938 272h16v16h-16zm0 0"/><path d="m396.585938 376h16v16h-16zm0 0"/><path d="m396.585938 408h16v16h-16zm0 0"/><path d="m412.585938 392h16v16h-16zm0 0"/><path d="m380.585938 392h16v16h-16zm0 0"/><path d="m140.585938 40h16v16h-16zm0 0"/><path d="m52.585938 80h16v16h-16zm0 0"/><path d="m36.585938 208h16v16h-16zm0 0"/><path d="m84.585938 80h16v16h-16zm0 0"/><path d="m68.585938 96h16v16h-16zm0 0"/><path d="m68.585938 64h16v16h-16zm0 0"/></svg>