<svg height="496pt" viewBox="0 0 496 496" width="496pt" xmlns="http://www.w3.org/2000/svg"><path d="m336 88h152v176h-168c-8.800781 0-16-7.199219-16-16 0-4.398438 1.761719-8.398438 4.71875-11.28125 2.882812-2.957031 6.882812-4.71875 11.28125-4.71875s8.398438-1.761719 11.28125-4.71875c2.957031-2.882812 4.71875-6.882812 4.71875-11.28125zm0 0" fill="#fcd770"/><path d="m320 232c-4.398438 0-8.398438 1.761719-11.28125 4.71875-2.957031 2.882812-4.71875 6.882812-4.71875 11.28125v-48h16c4.398438 0 8.398438 1.761719 11.28125 4.71875 2.957031 2.882812 4.71875 6.882812 4.71875 11.28125s-1.761719 8.398438-4.71875 11.28125c-2.882812 2.957031-6.882812 4.71875-11.28125 4.71875zm0 0" fill="#fcd770"/><path d="m336 88v128c0-4.398438-1.761719-8.398438-4.71875-11.28125-2.882812-2.957031-6.882812-4.71875-11.28125-4.71875h-168v-176h168c8.800781 0 16 7.199219 16 16zm0 0" fill="#ffeaa7"/><path d="m184 344h78.960938c-7.199219-57.921875-53.121094-104-110.960938-112h-32c-40.558594 8-75.199219 30.160156-94.800781 64h46.800781c4.398438 0 8.398438 1.761719 11.28125 4.71875 2.957031 2.882812 4.71875 6.882812 4.71875 11.28125 0 8.800781-7.199219 16-16 16h-16c-4.398438 0-8.398438 1.761719-11.28125 4.71875-2.957031 2.882812-4.71875 6.882812-4.71875 11.28125 0 8.800781 7.199219 16 16 16h40c4.398438 0 8.398438 1.761719 11.28125 4.71875 2.957031 2.882812 4.71875 6.882812 4.71875 11.28125 0 8.800781-7.199219 16-16 16h-84c14.238281 55.199219 64.320312 96 124 96 40.398438 0 76.398438-18.71875 99.921875-47.921875l-.082031-.078125h-75.839844c-4.398438 0-8.398438-1.761719-11.28125-4.71875-2.957031-2.882812-4.71875-6.882812-4.71875-11.28125 0-8.800781 7.199219-16 16-16h48c4.398438 0 8.398438-1.761719 11.28125-4.71875 2.957031-2.882812 4.71875-6.882812 4.71875-11.28125 0-8.800781-7.199219-16-16-16h-24c-4.398438 0-8.398438-1.761719-11.28125-4.71875-2.957031-2.882812-4.71875-6.882812-4.71875-11.28125 0-8.800781 7.199219-16 16-16zm0 0" fill="#69d6f4"/><path d="m152 233.121094v62.878906h-32v-272c0-8.800781 7.199219-16 16-16s16 7.199219 16 16zm0 0" fill="#dfb28b"/><path d="m262.960938 344c.71875 5.199219 1.039062 10.558594 1.039062 16 0 30.320312-10.558594 58.160156-28.078125 80.078125l-.082031-.078125h-75.839844c-4.398438 0-8.398438-1.761719-11.28125-4.71875-2.957031-2.882812-4.71875-6.882812-4.71875-11.28125 0-8.800781 7.199219-16 16-16h48c4.398438 0 8.398438-1.761719 11.28125-4.71875 2.957031-2.882812 4.71875-6.882812 4.71875-11.28125 0-8.800781-7.199219-16-16-16h-24c-4.398438 0-8.398438-1.761719-11.28125-4.71875-2.957031-2.882812-4.71875-6.882812-4.71875-11.28125 0-8.800781 7.199219-16 16-16zm0 0" fill="#b4dd7f"/><path d="m107.28125 364.71875c2.957031 2.882812 4.71875 6.882812 4.71875 11.28125 0 8.800781-7.199219 16-16 16h-84c-2.640625-10.238281-4-20.960938-4-32 0-23.359375 6.238281-45.199219 17.199219-64h46.800781c4.398438 0 8.398438 1.761719 11.28125 4.71875 2.957031 2.882812 4.71875 6.882812 4.71875 11.28125 0 8.800781-7.199219 16-16 16h-16c-4.398438 0-8.398438 1.761719-11.28125 4.71875-2.957031 2.882812-4.71875 6.882812-4.71875 11.28125 0 8.800781 7.199219 16 16 16h40c4.398438 0 8.398438 1.761719 11.28125 4.71875zm0 0" fill="#b4dd7f"/><path d="m344 80v-40c0-13.230469-10.769531-24-24-24h-161.472656c-3.3125-9.289062-12.113282-16-22.527344-16-13.230469 0-24 10.769531-24 24v202.382812c-64.304688 11.464844-112 67.617188-112 133.617188 0 74.992188 61.007812 136 136 136s136-61.007812 136-136c0-66-47.695312-122.152344-112-133.617188v-18.382812h136v40c0 13.230469 10.769531 24 24 24h176v-192zm-216-56c0-4.414062 3.59375-8 8-8s8 3.585938 8 8v264h-16zm-97.960938 280h41.960938c4.40625 0 8 3.585938 8 8s-3.59375 8-8 8h-16c-13.230469 0-24 10.769531-24 24s10.769531 24 24 24h40c4.40625 0 8 3.585938 8 8s-3.59375 8-8 8h-77.585938c-1.574218-7.761719-2.414062-15.785156-2.414062-24 0-20.136719 5.121094-39.191406 14.039062-56zm201.738282 128h-71.777344c-4.40625 0-8-3.585938-8-8s3.59375-8 8-8h48c13.230469 0 24-10.769531 24-24s-10.769531-24-24-24h-24c-4.40625 0-8-3.585938-8-8s3.59375-8 8-8h71.625c.183594 2.65625.375 5.304688.375 8 0 27.03125-9.089844 51.921875-24.222656 72zm21.726562-96h-69.503906c-13.230469 0-24 10.769531-24 24s10.769531 24 24 24h24c4.40625 0 8 3.585938 8 8s-3.59375 8-8 8h-48c-13.230469 0-24 10.769531-24 24s10.769531 24 24 24h57.3125c-21.410156 19.792969-49.929688 32-81.3125 32-52.128906 0-96.472656-33.464844-113-80h73c13.230469 0 24-10.769531 24-24s-10.769531-24-24-24h-40c-4.40625 0-8-3.585938-8-8s3.59375-8 8-8h16c13.230469 0 24-10.769531 24-24s-10.769531-24-24-24h-31.839844c17.214844-22.855469 42.457032-39.441406 71.839844-45.398438v61.398438h48v-61.398438c47.382812 9.613282 83.976562 46.894532 93.503906 93.398438zm-93.503906-304h160c4.40625 0 8 3.585938 8 8v153.472656c-2.511719-.898437-5.183594-1.472656-8-1.472656h-160zm160 176c4.40625 0 8 3.585938 8 8s-3.59375 8-8 8c-2.816406 0-5.488281.574219-8 1.472656v-17.472656zm160 48h-160c-4.40625 0-8-3.585938-8-8s3.59375-8 8-8c13.230469 0 24-10.769531 24-24v-120h136zm0 0"/><path d="m448 112h16v16h-16zm0 0"/><path d="m448 144h16v16h-16zm0 0"/><path d="m448 176h16v16h-16zm0 0"/><path d="m176 48h16v16h-16zm0 0"/><path d="m208 48h104v16h-104zm0 0"/></svg>