<?xml version="1.0" encoding="iso-8859-1"?>
<!-- Generator: Adobe Illustrator 19.0.0, SVG Export Plug-In . SVG Version: 6.00 Build 0)  -->
<svg version="1.1" id="Capa_1" xmlns="http://www.w3.org/2000/svg" xmlns:xlink="http://www.w3.org/1999/xlink" x="0px" y="0px"
	 viewBox="0 0 496 496" style="enable-background:new 0 0 496 496;" xml:space="preserve">
<path style="fill:#ECECEC;" d="M437.552,488H58.448C30.584,488,8,465.416,8,437.552l0,0c0-8.88,2.344-17.592,6.792-25.28L184,120
	h128l169.208,292.272c4.448,7.68,6.792,16.4,6.792,25.28l0,0C488,465.416,465.416,488,437.552,488z"/>
<path style="fill:#B6C1CE;" d="M481.208,412.272L312,120h-32l169.208,292.272c4.448,7.68,6.792,16.4,6.792,25.28
	C456,465.416,433.416,488,405.552,488h32C465.416,488,488,465.416,488,437.552C488,428.672,485.656,419.952,481.208,412.272z"/>
<rect x="120" y="368" style="fill:#FCD770;" width="256" height="32"/>
<path style="fill:#48C397;" d="M14.792,412.272c-4.448,7.68-6.792,16.4-6.792,25.28C8,465.416,30.584,488,58.448,488h379.104
	C465.416,488,488,465.416,488,437.552c0-8.88-2.344-17.592-6.792-25.28L474.104,400H21.896L14.792,412.272z"/>
<path style="fill:#0FA196;" d="M449.208,412.272c4.448,7.68,6.792,16.4,6.792,25.28C456,465.416,433.416,488,405.552,488h32
	C465.416,488,488,465.416,488,437.552c0-8.88-2.344-17.592-6.792-25.28L474.104,400h-32L449.208,412.272z"/>
<path style="fill:#FCD770;" d="M264,40h-32V24c0-8.84,7.16-16,16-16l0,0c8.84,0,16,7.16,16,16V40z"/>
<polygon style="fill:#AFB8C9;" points="216,120 224,72 272,72 280,120 "/>
<polygon style="fill:#8C95A4;" points="280,120 272,72 256,72 256,120 "/>
<path style="fill:#39C3FC;" d="M296,320h-96c-4.416,0-8-3.584-8-8v-96c0-4.416,3.584-8,8-8h96c4.416,0,8,3.584,8,8v96
	C304,316.416,300.416,320,296,320z"/>
<path style="fill:#148CE0;" d="M296,208h-24c4.416,0,8,3.584,8,8v96c0,4.416-3.584,8-8,8h24c4.416,0,8-3.584,8-8v-96
	C304,211.584,300.416,208,296,208z"/>
<circle style="fill:#1261C5;" cx="248" cy="264" r="24"/>
<g>
	<polygon style="fill:#39C3FC;" points="144,192 88,288 112,304 168,208 	"/>
	<polygon style="fill:#39C3FC;" points="352,192 328,208 384,304 408,288 	"/>
</g>
<path d="M488.136,408.264L316.616,112h-29.84l-5.336-32H296V64h-40V48h16V24c0-13.232-10.768-24-24-24s-24,10.768-24,24v24h16v16
	h-40v16h14.56l-5.336,32h-29.84L7.864,408.264C2.72,417.16,0,427.28,0,437.544C0,469.784,26.216,496,58.448,496h379.104
	C469.784,496,496,469.784,496,437.544C496,427.28,493.28,417.16,488.136,408.264z M240,24c0-4.416,3.592-8,8-8c4.408,0,8,3.584,8,8
	v8h-16V24z M398.224,284.904l-11.6,7.728l-47.92-82.16l11.856-7.904L398.224,284.904z M230.776,80h34.448l5.336,32h-45.12
	L230.776,80z M145.44,202.576l11.856,7.904l-47.92,82.16l-11.6-7.728L145.44,202.576z M437.552,480H58.448
	C35.04,480,16,460.952,16,437.544c0-7.456,1.976-14.816,5.712-21.264l4.792-8.28H416v-16h-32v-16h16v-16H96v16h16v16H35.768
	l53.976-93.224l24.888,16.592l64.08-109.84l-25.232-16.824L188.616,128h118.776l35.144,60.696l-25.232,16.824l64.08,109.84
	l24.888-16.592L460.232,392H432v16h37.496l4.792,8.28c3.736,6.456,5.712,13.816,5.712,21.264C480,460.952,460.96,480,437.552,480z
	 M176,376v16h-48v-16H176z M320,392v-16h48v16H320z M304,392h-48v-16h48V392z M240,392h-48v-16h48V392z"/>
<path d="M48,437.544c0-1.832,0.488-3.64,1.408-5.232l-13.84-8.016c-2.336,4.024-3.568,8.6-3.568,13.248
	C32,452.136,43.864,464,58.456,464H88v-16H58.456C52.688,448,48,443.312,48,437.544z"/>
<rect x="240" y="432" width="16" height="16"/>
<rect x="304" y="432" width="16" height="16"/>
<rect x="368" y="432" width="16" height="16"/>
<rect x="112" y="432" width="16" height="16"/>
<rect x="176" y="432" width="16" height="16"/>
<path d="M296,200h-96c-8.824,0-16,7.176-16,16v96c0,8.824,7.176,16,16,16h96c8.824,0,16-7.176,16-16v-96
	C312,207.176,304.824,200,296,200z M200,312v-96h96l0.008,96H200z"/>
<path d="M248,232c-17.648,0-32,14.352-32,32s14.352,32,32,32s32-14.352,32-32S265.648,232,248,232z M248,280
	c-8.824,0-16-7.176-16-16s7.176-16,16-16s16,7.176,16,16S256.824,280,248,280z"/>
<rect x="200" y="160" width="16" height="16"/>
<rect x="240" y="160" width="16" height="16"/>
<rect x="280" y="160" width="16" height="16"/>
<g>
</g>
<g>
</g>
<g>
</g>
<g>
</g>
<g>
</g>
<g>
</g>
<g>
</g>
<g>
</g>
<g>
</g>
<g>
</g>
<g>
</g>
<g>
</g>
<g>
</g>
<g>
</g>
<g>
</g>
</svg>
