<?xml version="1.0" encoding="iso-8859-1"?>
<!-- Generator: Adobe Illustrator 19.0.0, SVG Export Plug-In . SVG Version: 6.00 Build 0)  -->
<svg version="1.1" id="Capa_1" xmlns="http://www.w3.org/2000/svg" xmlns:xlink="http://www.w3.org/1999/xlink" x="0px" y="0px"
	 viewBox="0 0 496 496" style="enable-background:new 0 0 496 496;" xml:space="preserve">
<circle style="fill:#EABD8C;" cx="424" cy="88" r="32"/>
<g>
	<circle style="fill:#FCD770;" cx="248" cy="120" r="16"/>
	<circle style="fill:#FCD770;" cx="152" cy="328" r="16"/>
	<path style="fill:#FCD770;" d="M336,248c0,6.624-7.416,12.304-8.792,18.504c-1.424,6.4,2.816,14.8,0.088,20.568
		c-2.768,5.864-11.856,7.704-15.792,12.744c-3.952,5.064-3.696,14.528-8.64,18.576c-4.928,4.024-13.88,1.672-19.616,4.504
		c-5.64,2.784-9.408,11.44-15.664,12.896c-6.056,1.408-13.112-4.688-19.584-4.688c-6.472,0-13.528,6.096-19.584,4.688
		c-6.256-1.456-10.024-10.112-15.664-12.896c-5.736-2.832-14.696-0.48-19.616-4.504c-4.952-4.04-4.688-13.512-8.64-18.576
		c-3.936-5.04-13.024-6.872-15.784-12.744c-2.72-5.768,1.512-14.168,0.088-20.568c-1.384-6.2-8.8-11.88-8.8-18.504
		s7.416-12.304,8.792-18.504c1.424-6.4-2.816-14.8-0.088-20.568c2.768-5.864,11.856-7.704,15.792-12.744
		c3.952-5.064,3.696-14.528,8.64-18.576c4.928-4.024,13.88-1.672,19.616-4.504c5.64-2.784,9.408-11.44,15.664-12.896
		c6.056-1.408,13.112,4.688,19.584,4.688c6.472,0,13.528-6.096,19.584-4.688c6.256,1.456,10.024,10.112,15.664,12.896
		c5.736,2.832,14.696,0.48,19.616,4.504c4.952,4.04,4.688,13.512,8.64,18.576c3.936,5.04,13.024,6.872,15.784,12.744
		c2.72,5.768-1.512,14.168-0.088,20.568C328.584,235.696,336,241.376,336,248z"/>
</g>
<circle style="fill:#92E0C0;" cx="80" cy="200" r="24"/>
<circle style="fill:#39C3FC;" cx="400" cy="336" r="24"/>
<circle style="fill:#FEA82F;" cx="248" cy="248" r="56"/>
<circle style="fill:#FCD770;" cx="128" cy="456" r="32"/>
<path d="M461.632,101.048C479.216,98.064,496,92.08,496,80c0-14.696-24.768-20.488-46.72-22.736C442.368,51.568,433.632,48,424,48
	c-9.64,0-18.368,3.568-25.28,9.264C377.024,59.496,352,65.264,352,80c0,12.08,16.784,18.064,34.368,21.048
	C391.816,116.68,406.536,128,424,128c6.992,0,13.48-1.96,19.208-5.136C467.2,160.224,480,203.272,480,248
	c0,127.92-104.08,232-232,232c-20.992,0-41.808-2.808-61.872-8.336l-4.248,15.424C203.328,493,225.568,496,248,496
	c136.752,0,248-111.248,248-248c0-48.552-14.08-95.264-40.52-135.624C458.12,108.984,460.192,105.192,461.632,101.048z
	 M463.632,84.36c-0.288-3.176-0.928-6.224-1.92-9.136c7.864,1.536,13.112,3.344,16.064,4.8
	C474.968,81.416,470.144,82.976,463.632,84.36z M424,64c12.816,0,23.216,10.12,23.872,22.768C440.904,87.504,433,88,424,88
	s-16.904-0.496-23.872-1.232C400.784,74.12,411.184,64,424,64z M386.28,75.232c-0.992,2.912-1.624,5.96-1.912,9.136
	c-6.512-1.384-11.328-2.944-14.144-4.336C373.168,78.568,378.432,76.768,386.28,75.232z M405.672,103.312
	C413.864,103.896,420.728,104,424,104s10.136-0.104,18.328-0.688C437.92,108.576,431.384,112,424,112
	S410.08,108.576,405.672,103.312z"/>
<path d="M248,144c9.616,0,17.88-5.72,21.704-13.912C326.104,140.416,368,190.048,368,248c0,39.432-19.392,76.36-51.872,98.8
	l9.096,13.168C362.024,334.536,384,292.68,384,248c0-66.152-48.184-122.752-112.816-133.888C268.536,103.728,259.192,96,248,96
	c-13.232,0-24,10.768-24,24S234.768,144,248,144z M248,112c4.416,0,8,3.584,8,8s-3.584,8-8,8s-8-3.584-8-8S243.584,112,248,112z"/>
<path d="M184,248c0,35.288,28.712,64,64,64s64-28.712,64-64s-28.712-64-64-64S184,212.712,184,248z M248,200
	c26.472,0,48,21.528,48,48s-21.528,48-48,48s-48-21.528-48-48S221.528,200,248,200z"/>
<path d="M128,416c-10.64,0-20.272,4.248-27.44,11.048C46.72,382.784,16,318.136,16,248c0-72.984,33.328-140.264,91.448-184.592
	l-9.704-12.72C35.624,98.064,0,169.984,0,248c0,75.384,33.2,144.808,91.312,192.136C89.2,445.008,88,450.36,88,456
	c0,22.056,17.944,40,40,40s40-17.944,40-40S150.056,416,128,416z M128,480c-13.232,0-24-10.768-24-24s10.768-24,24-24
	s24,10.768,24,24S141.232,480,128,480z"/>
<path d="M248,16c43.952,0,86.744,12.352,123.728,35.712l8.544-13.528C340.728,13.2,294.984,0,248,0
	c-37.936,0-74.352,8.344-108.224,24.808L146.76,39.2C178.448,23.808,212.504,16,248,16z"/>
<path d="M133.152,46.376l-7.936-13.888c-4.736,2.704-9.472,5.616-14.088,8.672l8.84,13.344
	C124.264,51.648,128.656,48.936,133.152,46.376z"/>
<path d="M64,248c0,5.368,0.232,10.752,0.688,16.008l15.936-1.376C80.208,257.832,80,252.904,80,248H64z"/>
<path d="M248,432c54.712,0,106.048-24.056,141.152-66.024c3.4,1.24,7.024,2.024,10.848,2.024c17.648,0,32-14.352,32-32
	s-14.352-32-32-32s-32,14.352-32,32c0,7.992,3.048,15.224,7.912,20.832C343.888,394.448,297.456,416,248,416
	c-82.248,0-151.904-58.76-165.624-139.704l-15.784,2.672C81.624,367.64,157.92,432,248,432z M400,320c8.824,0,16,7.176,16,16
	s-7.176,16-16,16s-16-7.176-16-16S391.176,320,400,320z"/>
<path d="M421.296,186.032l-15.064,5.392C412.712,209.528,416,228.568,416,248c0,14.488-1.84,28.872-5.496,42.768l15.488,4.064
	C429.976,279.608,432,263.848,432,248C432,226.728,428.4,205.872,421.296,186.032z"/>
<path d="M394.896,166.408c2.376,4.272,4.568,8.664,6.528,13.056l14.608-6.528c-2.152-4.808-4.552-9.616-7.16-14.288L394.896,166.408
	z"/>
<path d="M248,64c-70.696,0-135.136,40.784-165.728,104.232C81.512,168.176,80.776,168,80,168c-17.648,0-32,14.352-32,32
	s14.352,32,32,32s32-14.352,32-32c0-11.144-5.744-20.952-14.408-26.688C125.88,116.448,184.152,80,248,80
	c56.52,0,108.928,28.168,140.176,75.368l13.344-8.832C367.296,94.848,309.904,64,248,64z M80,216c-8.824,0-16-7.176-16-16
	s7.176-16,16-16s16,7.176,16,16S88.824,216,80,216z"/>
<path d="M112,248c0,24.4,6.544,48.072,18.832,68.928C129.088,320.256,128,323.984,128,328c0,13.232,10.768,24,24,24s24-10.768,24-24
	s-10.768-24-24-24c-3.248,0-6.336,0.664-9.16,1.832C133.112,288.184,128,268.368,128,248c0-52.864,33.88-98.92,84.312-114.6
	l-4.752-15.28C150.408,135.888,112,188.088,112,248z M160,328c0,4.416-3.584,8-8,8s-8-3.584-8-8s3.584-8,8-8S160,323.584,160,328z"
	/>
<path d="M248,368c-23.192,0-45.704-6.624-65.088-19.168l-8.688,13.44C196.2,376.488,221.712,384,248,384
	c22.08,0,44-5.416,63.4-15.648l-7.472-14.16C286.824,363.224,267.488,368,248,368z"/>
<path d="M213.56,161.752c-1.512,1.704-3.24,3.64-4.352,4.184c-1.168,0.568-3.744,0.752-6.024,0.912
	c-4.648,0.328-10.44,0.736-15.12,4.56c-4.656,3.808-6.304,9.44-7.64,13.96c-0.664,2.264-1.416,4.832-2.24,5.888
	c-0.8,1.024-3.04,2.32-5.024,3.472c-4.056,2.344-9.104,5.264-11.696,10.776c-2.544,5.392-1.664,11.16-0.952,15.792
	c0.368,2.368,0.776,5.056,0.464,6.472c-0.272,1.248-1.728,3.4-3.016,5.288c-2.656,3.92-5.96,8.792-5.96,14.944
	c0,6.152,3.304,11.024,5.96,14.944c1.288,1.888,2.744,4.04,3.016,5.288c0.32,1.416-0.096,4.104-0.464,6.472
	c-0.712,4.632-1.592,10.392,0.944,15.784c2.592,5.504,7.64,8.432,11.696,10.784c1.976,1.144,4.216,2.448,5.024,3.472
	c0.832,1.064,1.584,3.632,2.248,5.896c1.328,4.52,2.984,10.152,7.64,13.944c4.68,3.832,10.464,4.232,15.112,4.568
	c2.28,0.16,4.864,0.344,6.032,0.912c1.112,0.544,2.832,2.488,4.352,4.184c3.16,3.536,7.088,7.952,13.04,9.328
	c1.256,0.296,2.504,0.424,3.712,0.424c4.36,0,8.36-1.64,11.72-3.008c2.168-0.888,4.608-1.888,5.968-1.888
	c1.36,0,3.808,1,5.968,1.888c4.296,1.752,9.648,3.952,15.432,2.584c5.944-1.384,9.872-5.784,13.04-9.328
	c1.512-1.704,3.24-3.64,4.352-4.184c1.168-0.568,3.744-0.752,6.024-0.912c4.648-0.328,10.44-0.736,15.12-4.56
	c4.656-3.808,6.304-9.44,7.64-13.96c0.664-2.264,1.416-4.832,2.24-5.888c0.8-1.024,3.04-2.32,5.024-3.472
	c4.056-2.344,9.104-5.264,11.696-10.776c2.544-5.392,1.664-11.16,0.952-15.792c-0.368-2.368-0.776-5.056-0.464-6.472
	c0.272-1.248,1.728-3.4,3.016-5.288c2.656-3.92,5.96-8.792,5.96-14.944s-3.304-11.024-5.96-14.944
	c-1.288-1.888-2.744-4.04-3.016-5.288c-0.32-1.416,0.096-4.104,0.464-6.472c0.712-4.632,1.592-10.392-0.944-15.784
	c-2.592-5.504-7.64-8.432-11.696-10.784c-1.976-1.144-4.216-2.448-5.024-3.472c-0.832-1.064-1.584-3.632-2.248-5.896
	c-1.328-4.52-2.984-10.152-7.64-13.944c-4.68-3.832-10.464-4.232-15.112-4.568c-2.28-0.16-4.864-0.344-6.032-0.912
	c-1.112-0.544-2.832-2.488-4.352-4.184c-3.16-3.536-7.088-7.952-13.04-9.328c-5.784-1.36-11.136,0.832-15.432,2.584
	c-2.168,0.888-4.608,1.888-5.968,1.888s-3.808-1-5.968-1.888c-4.296-1.752-9.648-3.944-15.432-2.584
	C220.656,153.808,216.728,158.2,213.56,161.752z M225.504,172.4c1.384-1.552,3.712-4.168,4.704-4.392
	c0.056-0.008,0.12-0.016,0.184-0.016c1.112,0,3.872,1.136,5.576,1.832c3.52,1.448,7.52,3.08,12.024,3.08s8.496-1.632,12.024-3.08
	c1.816-0.744,4.968-1.936,5.752-1.824c1.008,0.232,3.336,2.84,4.72,4.4c2.496,2.8,5.32,5.96,9.224,7.888
	c3.976,1.952,8.216,2.256,11.96,2.52c2.016,0.144,5.376,0.384,6.136,1c0.824,0.664,1.816,4.048,2.408,6.072
	c1.072,3.64,2.28,7.76,4.992,11.224c2.704,3.472,6.376,5.592,9.608,7.472c1.904,1.112,4.784,2.776,5.248,3.76
	c0.456,0.968-0.064,4.312-0.4,6.528c-0.576,3.76-1.232,8.024-0.272,12.368c0.944,4.232,3.304,7.72,5.4,10.8
	c1.36,2,3.208,4.736,3.208,5.968s-1.848,3.968-3.2,5.968c-2.096,3.08-4.456,6.56-5.4,10.8c-0.96,4.336-0.304,8.6,0.264,12.368
	c0.32,2.08,0.856,5.56,0.4,6.528c-0.472,0.992-3.344,2.656-5.24,3.76c-3.232,1.872-6.904,4-9.624,7.472
	c-2.704,3.472-3.912,7.592-4.976,11.224c-0.592,2.024-1.592,5.408-2.416,6.08c-0.752,0.616-4.112,0.848-6.12,0.992
	c-3.752,0.264-8,0.56-11.984,2.528c-3.888,1.92-6.72,5.096-9.208,7.88c-1.384,1.552-3.712,4.168-4.704,4.392
	c-0.952,0.128-3.96-1.08-5.768-1.816c-3.52-1.448-7.52-3.08-12.024-3.08s-8.496,1.632-12.024,3.08
	c-1.816,0.744-4.936,1.96-5.752,1.824c-1.008-0.232-3.336-2.84-4.72-4.4c-2.496-2.8-5.32-5.96-9.224-7.888
	c-3.976-1.952-8.216-2.256-11.96-2.52c-2.016-0.144-5.376-0.384-6.136-1c-0.824-0.664-1.816-4.048-2.408-6.072
	c-1.072-3.64-2.28-7.76-4.992-11.224c-2.704-3.472-6.376-5.592-9.608-7.472c-1.904-1.112-4.784-2.776-5.248-3.76
	c-0.456-0.968,0.064-4.312,0.4-6.528c0.576-3.76,1.232-8.024,0.272-12.368c-0.944-4.232-3.304-7.72-5.4-10.8
	c-1.352-2-3.2-4.736-3.2-5.968s1.848-3.968,3.2-5.968c2.096-3.08,4.456-6.56,5.4-10.8c0.96-4.336,0.304-8.6-0.264-12.368
	c-0.32-2.08-0.856-5.56-0.4-6.528c0.472-0.992,3.344-2.656,5.24-3.76c3.232-1.872,6.904-4,9.624-7.472
	c2.704-3.472,3.912-7.592,4.976-11.224c0.592-2.024,1.592-5.408,2.416-6.08c0.752-0.616,4.112-0.848,6.12-0.992
	c3.752-0.264,8-0.56,11.984-2.528C220.184,178.36,223.016,175.184,225.504,172.4z"/>
<rect x="120" y="448" width="16" height="16"/>
<g>
</g>
<g>
</g>
<g>
</g>
<g>
</g>
<g>
</g>
<g>
</g>
<g>
</g>
<g>
</g>
<g>
</g>
<g>
</g>
<g>
</g>
<g>
</g>
<g>
</g>
<g>
</g>
<g>
</g>
</svg>
