<svg height="496pt" viewBox="0 0 496 496" width="496pt" xmlns="http://www.w3.org/2000/svg"><path d="m488 320c0 57.4375-46.5625 104-104 104s-104-46.5625-104-104 46.5625-104 104-104 104 46.5625 104 104zm0 0" fill="#cf9e76"/><path d="m328 440c0 22.089844-17.910156 40-40 40s-40-17.910156-40-40 17.910156-40 40-40 40 17.910156 40 40zm0 0" fill="#ffeaa7"/><path d="m480 56c0 22.089844-17.910156 40-40 40s-40-17.910156-40-40 17.910156-40 40-40 40 17.910156 40 40zm0 0" fill="#fcd770"/><path d="m400 144c0 22.089844-17.910156 40-40 40s-40-17.910156-40-40 17.910156-40 40-40 40 17.910156 40 40zm0 0" fill="#ffeaa7"/><path d="m256 352c0 22.089844-17.910156 40-40 40s-40-17.910156-40-40 17.910156-40 40-40 40 17.910156 40 40zm0 0" fill="#fcd770"/><path d="m168 408c0 44.183594-35.816406 80-80 80s-80-35.816406-80-80 35.816406-80 80-80 80 35.816406 80 80zm0 0" fill="#ffeaa7"/><g fill="#b4dd7f"><path d="m168 295.039062v.082032c-5.28125.558594-10.558594.878906-16 .878906-68.558594 0-125.847656-47.839844-140.320312-112h100.320312c4.398438 0 8.398438 1.761719 11.28125 4.71875 2.957031 2.882812 4.71875 6.882812 4.71875 11.28125 0 8.800781-7.199219 16-16 16h-24c-4.398438 0-8.398438 1.761719-11.28125 4.71875-2.957031 2.882812-4.71875 6.882812-4.71875 11.28125 0 8.800781 7.199219 16 16 16h64c8.800781 0 16 7.199219 16 16zm0 0"/><path d="m296 152c0 13.921875-2 27.28125-5.679688 40h-114.320312c-4.398438 0-8.398438-1.761719-11.28125-4.71875-2.957031-2.882812-4.71875-6.882812-4.71875-11.28125 0-8.800781 7.199219-16 16-16h56c4.398438 0 8.398438-1.761719 11.28125-4.71875 2.957031-2.882812 4.71875-6.882812 4.71875-11.28125 0-8.800781-7.199219-16-16-16h-24c-4.398438 0-8.398438-1.761719-11.28125-4.71875-2.957031-2.882812-4.71875-6.882812-4.71875-11.28125 0-8.800781 7.199219-16 16-16h76.71875c7.28125 17.199219 11.28125 36.160156 11.28125 56zm0 0"/><path d="m147.28125 44.71875c2.957031 2.882812 4.71875 6.882812 4.71875 11.28125 0 8.800781-7.199219 16-16 16h-40c-4.398438 0-8.398438 1.761719-11.28125 4.71875-2.957031 2.882812-4.71875 6.882812-4.71875 11.28125 0 8.800781 7.199219 16 16 16h16c4.398438 0 8.398438 1.761719 11.28125 4.71875 2.957031 2.882812 4.71875 6.882812 4.71875 11.28125 0 8.800781-7.199219 16-16 16h-103.121094c4.320313-38.71875 23.921875-72.800781 52.722656-96h74.398438c4.398438 0 8.398438 1.761719 11.28125 4.71875zm0 0"/></g><path d="m290.238281 192h.082031c-15.839843 55.121094-63.839843 96.640625-122.320312 103.121094v-31.121094c0-8.800781-7.199219-16-16-16h-64c-8.800781 0-16-7.199219-16-16 0-4.398438 1.761719-8.398438 4.71875-11.28125 2.882812-2.957031 6.882812-4.71875 11.28125-4.71875h24c8.800781 0 16-7.199219 16-16 0-4.398438-1.761719-8.398438-4.71875-11.28125-2.882812-2.957031-6.882812-4.71875-11.28125-4.71875h-100.320312c-2.480469-10.320312-3.679688-21.039062-3.679688-32 0-5.441406.320312-10.71875.878906-16h103.121094c8.800781 0 16-7.199219 16-16 0-4.398438-1.761719-8.398438-4.71875-11.28125-2.882812-2.957031-6.882812-4.71875-11.28125-4.71875h-16c-8.800781 0-16-7.199219-16-16 0-4.398438 1.761719-8.398438 4.71875-11.28125 2.882812-2.957031 6.882812-4.71875 11.28125-4.71875h40c8.800781 0 16-7.199219 16-16 0-4.398438-1.761719-8.398438-4.71875-11.28125-2.882812-2.957031-6.882812-4.71875-11.28125-4.71875h-74.398438c24.71875-20 56.160157-32 90.398438-32 59.679688 0 110.878906 36.320312 132.640625 88h-76.640625c-8.800781 0-16 7.199219-16 16 0 4.398438 1.761719 8.398438 4.71875 11.28125 2.882812 2.957031 6.882812 4.71875 11.28125 4.71875h24c8.800781 0 16 7.199219 16 16 0 4.398438-1.761719 8.398438-4.71875 11.28125-2.882812 2.957031-6.882812 4.71875-11.28125 4.71875h-56c-8.800781 0-16 7.199219-16 16 0 4.398438 1.761719 8.398438 4.71875 11.28125 2.882812 2.957031 6.882812 4.71875 11.28125 4.71875zm0 0" fill="#69d6f4"/><path d="m88 320c-48.519531 0-88 39.480469-88 88s39.480469 88 88 88 88-39.480469 88-88-39.480469-88-88-88zm0 160c-39.703125 0-72-32.304688-72-72s32.296875-72 72-72 72 32.304688 72 72-32.296875 72-72 72zm0 0"/><path d="m384 208c-61.761719 0-112 50.238281-112 112s50.238281 112 112 112 112-50.238281 112-112-50.238281-112-112-112zm0 208c-52.9375 0-96-43.0625-96-96s43.0625-96 96-96 96 43.0625 96 96-43.0625 96-96 96zm0 0"/><path d="m432 96h16c0-17.648438 14.351562-32 32-32v-16c-17.648438 0-32-14.351562-32-32h-16c0 17.648438-14.351562 32-32 32v16c17.648438 0 32 14.351562 32 32zm8-53.519531c3.558594 5.359375 8.160156 9.960937 13.519531 13.519531-5.359375 3.558594-9.960937 8.160156-13.519531 13.519531-3.558594-5.359375-8.160156-9.960937-13.519531-13.519531 5.359375-3.558594 9.960937-8.160156 13.519531-13.519531zm0 0"/><path d="m352 184h16c0-17.648438 14.351562-32 32-32v-16c-17.648438 0-32-14.351562-32-32h-16c0 17.648438-14.351562 32-32 32v16c17.648438 0 32 14.351562 32 32zm8-53.519531c3.558594 5.359375 8.160156 9.960937 13.519531 13.519531-5.359375 3.558594-9.960937 8.160156-13.519531 13.519531-3.558594-5.359375-8.160156-9.960937-13.519531-13.519531 5.359375-3.558594 9.960937-8.160156 13.519531-13.519531zm0 0"/><path d="m256 344c-17.648438 0-32-14.351562-32-32h-16c0 17.648438-14.351562 32-32 32v16c17.648438 0 32 14.351562 32 32h16c0-17.648438 14.351562-32 32-32zm-40 21.519531c-3.558594-5.359375-8.160156-9.960937-13.519531-13.519531 5.359375-3.558594 9.960937-8.160156 13.519531-13.519531 3.558594 5.359375 8.160156 9.960937 13.519531 13.519531-5.359375 3.558594-9.960937 8.160156-13.519531 13.519531zm0 0"/><path d="m296 400h-16c0 17.648438-14.351562 32-32 32v16c17.648438 0 32 14.351562 32 32h16c0-17.648438 14.351562-32 32-32v-16c-17.648438 0-32-14.351562-32-32zm-8 53.519531c-3.558594-5.359375-8.160156-9.960937-13.519531-13.519531 5.359375-3.558594 9.960937-8.160156 13.519531-13.519531 3.558594 5.359375 8.160156 9.960937 13.519531 13.519531-5.359375 3.558594-9.960937 8.160156-13.519531 13.519531zm0 0"/><path d="m104 368c0-13.230469-10.769531-24-24-24v16c4.414062 0 8 3.59375 8 8s-3.585938 8-8 8v16c13.230469 0 24-10.769531 24-24zm0 0"/><path d="m48 392c-13.230469 0-24 10.769531-24 24s10.769531 24 24 24v-16c-4.414062 0-8-3.59375-8-8s3.585938-8 8-8 8 3.59375 8 8h16c0-13.230469-10.769531-24-24-24zm0 0"/><path d="m120 408v16c4.414062 0 8 3.59375 8 8s-3.585938 8-8 8-8-3.59375-8-8h-16c0 13.230469 10.769531 24 24 24s24-10.769531 24-24-10.769531-24-24-24zm0 0"/><path d="m336 312v-16c-4.414062 0-8-3.59375-8-8s3.585938-8 8-8 8 3.59375 8 8h16c0-13.230469-10.769531-24-24-24s-24 10.769531-24 24 10.769531 24 24 24zm0 0"/><path d="m448 320c0 4.40625-3.585938 8-8 8s-8-3.59375-8-8h-16c0 13.230469 10.769531 24 24 24s24-10.769531 24-24zm0 0"/><path d="m336 344c-13.230469 0-24 10.769531-24 24h16c0-4.40625 3.585938-8 8-8s8 3.59375 8 8h16c0-13.230469-10.769531-24-24-24zm0 0"/><path d="m416 272c4.414062 0 8 3.59375 8 8h16c0-13.230469-10.769531-24-24-24s-24 10.769531-24 24h16c0-4.40625 3.585938-8 8-8zm0 0"/><path d="m72 440h16v16h-16zm0 0"/><path d="m120 368h16v16h-16zm0 0"/><path d="m360 320h16v16h-16zm0 0"/><path d="m368 248h16v16h-16zm0 0"/><path d="m400 352v16c4.414062 0 8 3.59375 8 8s-3.585938 8-8 8-8-3.59375-8-8h-16c0 13.230469 10.769531 24 24 24s24-10.769531 24-24-10.769531-24-24-24zm0 0"/><path d="m152 304c83.816406 0 152-68.183594 152-152s-68.183594-152-152-152-152 68.183594-152 152 68.183594 152 152 152zm-129.976562-112h89.976562c4.414062 0 8 3.59375 8 8s-3.585938 8-8 8h-24c-13.230469 0-24 10.769531-24 24s10.769531 24 24 24h64c4.414062 0 8 3.59375 8 8v23.59375c-2.664062.160156-5.296875.40625-8 .40625-61.070312 0-112.855469-40.472656-129.976562-96zm262.015624-8h-108.039062c-4.414062 0-8-3.59375-8-8s3.585938-8 8-8h56c13.230469 0 24-10.769531 24-24s-10.769531-24-24-24h-24c-4.414062 0-8-3.59375-8-8s3.585938-8 8-8h71.089844c5.664062 14.953125 8.910156 31.089844 8.910156 48 0 11.039062-1.464844 21.71875-3.960938 32zm-12.101562-96h-63.9375c-13.230469 0-24 10.769531-24 24s10.769531 24 24 24h24c4.414062 0 8 3.59375 8 8s-3.585938 8-8 8h-56c-13.230469 0-24 10.769531-24 24s10.769531 24 24 24h103.089844c-16.714844 44.089844-55.617188 77.246094-103.089844 85.753906v-21.753906c0-13.230469-10.769531-24-24-24h-64c-4.414062 0-8-3.59375-8-8s3.585938-8 8-8h24c13.230469 0 24-10.769531 24-24s-10.769531-24-24-24h-93.753906c-1.390625-7.808594-2.246094-15.800781-2.246094-24 0-2.703125.246094-5.335938.40625-8h95.59375c13.230469 0 24-10.769531 24-24s-10.769531-24-24-24h-16c-4.414062 0-8-3.59375-8-8s3.585938-8 8-8h40c13.230469 0 24-10.769531 24-24s-10.769531-24-24-24h-47.863281c19.054687-10.183594 40.785156-16 63.863281-16 51.863281 0 97 29.199219 119.9375 72zm-207.394531-40h71.457031c4.414062 0 8 3.59375 8 8s-3.585938 8-8 8h-40c-13.230469 0-24 10.769531-24 24s10.769531 24 24 24h16c4.414062 0 8 3.59375 8 8s-3.585938 8-8 8h-93.753906c5.714844-31.878906 22.480468-59.945312 46.296875-80zm0 0"/></svg>