<?xml version="1.0" encoding="iso-8859-1"?>
<!-- Generator: Adobe Illustrator 19.0.0, SVG Export Plug-In . SVG Version: 6.00 Build 0)  -->
<svg version="1.1" id="Capa_1" xmlns="http://www.w3.org/2000/svg" xmlns:xlink="http://www.w3.org/1999/xlink" x="0px" y="0px"
	 viewBox="0 0 496 496" style="enable-background:new 0 0 496 496;" xml:space="preserve">
<g>
	<path style="fill:#ECECEC;" d="M360,120v160h120c4.416,0,8-3.584,8-8V128c0-4.416-3.584-8-8-8H360z"/>
	<path style="fill:#ECECEC;" d="M136,120v160H16c-4.416,0-8-3.584-8-8V128c0-4.416,3.584-8,8-8H136z"/>
</g>
<polygon style="fill:#8C95A4;" points="320,248 456,248 456,152 312,152 184,152 40,152 40,248 176,248 "/>
<rect x="136" y="152" style="fill:#ECECEC;" width="224" height="96"/>
<rect x="200" y="152" style="fill:#8C95A4;" width="96" height="96"/>
<rect x="176" y="232" style="fill:#FCD770;" width="144" height="80"/>
<rect x="296" y="232" style="fill:#FFC729;" width="24" height="80"/>
<rect x="184" y="88" style="fill:#ECECEC;" width="128" height="80"/>
<rect x="288" y="88" style="fill:#B6C1CE;" width="24" height="80"/>
<polygon style="fill:#8C95A4;" points="288,344 208,344 152,376 152,408 208,408 288,408 344,408 344,376 "/>
<rect x="312" y="376" style="fill:#798699;" width="32" height="32"/>
<polygon style="fill:#ECECEC;" points="272,408 264,448 232,448 224,408 "/>
<circle style="fill:#FCD770;" cx="248" cy="464" r="24"/>
<rect x="208" y="312" style="fill:#AFB8C9;" width="80" height="32"/>
<rect x="264" y="312" style="fill:#8C95A4;" width="24" height="32"/>
<circle style="fill:#ECECEC;" cx="248" cy="272" r="40"/>
<rect x="200" y="56" style="fill:#AFB8C9;" width="96" height="32"/>
<path style="fill:#FEA82F;" d="M248,8c-17.672,0-32,14.328-32,32v16h64V40C280,22.328,265.672,8,248,8z"/>
<polygon style="fill:#FCD770;" points="216,88 224,120 272,120 280,88 "/>
<path d="M480,112H352v32h-32V80h-16V48h-16v-8c0-22.056-17.944-40-40-40s-40,17.944-40,40v8h-16v32h-16v64h-32v-32H16
	c-8.824,0-16,7.176-16,16v144c0,8.824,7.176,16,16,16h128v-32h24v64h32v19.36l-56,32V416h73.44l5.632,28.176
	C218.72,449.64,216,456.48,216,464c0,17.648,14.352,32,32,32s32-14.352,32-32c0-7.52-2.72-14.36-7.08-19.824L278.56,416H352v-44.64
	l-56-32V320h32v-64h24v32h128c8.824,0,16-7.176,16-16V128C496,119.176,488.824,112,480,112z M224,40c0-13.232,10.768-24,24-24
	s24,10.768,24,24v8h-48V40z M208,64h80v16h-80V64z M269.752,96l-4.008,16H230.24l-4.008-16H269.752z M192,96h17.76l7.992,32h60.496
	l7.992-32H304v64H192V96z M272,224v-16h16v16H272z M280,272c0,17.648-14.352,32-32,32s-32-14.352-32-32s14.352-32,32-32
	S280,254.352,280,272z M224,176v16h-16v-16H224z M240,224v-16h16v16H240z M240,192v-16h16v16H240z M208,208h16v16h-16V208z M288,192
	h-16v-16h16V192z M128,272H16V128h112v16H32v112h96V272z M128,208h-16v-16h16V208z M96,208H80v-16h16V208z M80,176v-16h16v16H80z
	 M64,176H48v-16h16V176z M48,192h16v16H48V192z M48,224h16v16H48V224z M80,224h16v16H80V224z M112,224h16v16h-16V224z M128,176h-16
	v-16h16V176z M144,240v-80h32v16h16v48h-24v16H144z M184,240h28.32c-7.632,8.504-12.32,19.696-12.32,32s4.688,23.496,12.32,32H184
	V240z M248,480c-8.824,0-16-7.176-16-16s7.176-16,16-16s16,7.176,16,16S256.824,480,248,480z M258.648,433.96
	c-3.344-1.192-6.896-1.96-10.648-1.96s-7.304,0.768-10.648,1.96L233.76,416h28.488L258.648,433.96z M160,400v-16h48v-16h-25.88
	l28-16h75.752l28,16H224v16h112v16H160z M280,336h-64v-16h64V336z M312,304h-28.32c7.632-8.504,12.32-19.696,12.32-32
	s-4.688-23.496-12.32-32H312V304z M328,240v-16h-24v-48h16v-16h32v80H328z M368,192h16v16h-16V192z M400,192h16v16h-16V192z
	 M368,224h16v16h-16V224z M400,224h16v16h-16V224z M432,224h16v16h-16V224z M448,208h-16v-16h16V208z M448,176h-16v-16h16V176z
	 M416,176h-16v-16h16V176z M384,176h-16v-16h16V176z M480,272H368v-16h96V144h-96v-16h112V272z"/>
<g>
</g>
<g>
</g>
<g>
</g>
<g>
</g>
<g>
</g>
<g>
</g>
<g>
</g>
<g>
</g>
<g>
</g>
<g>
</g>
<g>
</g>
<g>
</g>
<g>
</g>
<g>
</g>
<g>
</g>
</svg>
