<svg height="496pt" viewBox="-48 0 496 496" width="496pt" xmlns="http://www.w3.org/2000/svg"><path d="m328 8c-35.359375 0-64 28.640625-64 64 0 10.320312 2.398438 20 6.71875 28.640625l28.800781 28.640625c8.558594 4.320312 18.242188 6.71875 28.480469 6.71875 35.359375 0 64-28.640625 64-64s-28.640625-64-64-64zm0 0" fill="#fcd770"/><path d="m328 40c-17.679688 0-32 14.320312-32 32 0 5.199219 1.199219 10 3.359375 14.320312l14.480469 14.398438c4.320312 2.082031 9.121094 3.28125 14.160156 3.28125 17.679688 0 32-14.320312 32-32s-14.320312-32-32-32zm0 0" fill="#ffeaa7"/><path d="m328 424-64 64c-6.640625 0-12.640625-2.71875-16.960938-7.039062-4.320312-4.320313-7.039062-10.320313-7.039062-16.960938l64-64c6.640625 0 12.640625 2.71875 16.960938 7.039062 4.320312 4.320313 7.039062 10.320313 7.039062 16.960938zm0 0" fill="#ff826e"/><path d="m311.921875 80.078125 8.15625 8.242187-6.238281 12.398438-14.320313 28.5625-11.441406 22.796875-40.078125-40.078125 51.359375-25.679688zm0 0" fill="#ccd1d9"/><path d="m296 408-24 24-58.320312-58.320312c-3.679688-3.679688-8.558594-5.679688-13.679688-5.679688s-10 2-13.679688 5.679688l-10.320312 10.320312-28-28 60-60 32 32c0 9.039062 2.078125 17.921875 6.160156 25.839844 2.71875 5.511718 6.320313 10.632812 10.800782 15.121094zm0 0" fill="#ccd1d9"/><path d="m288.078125 152.078125-15.917969 31.683594-55.921875-55.921875 31.761719-15.839844zm0 0" fill="#fcd770"/><path d="m272.160156 183.761719 2 2c3.761719 3.757812 5.839844 8.796875 5.839844 14 0 5.277343-2.078125 10.316406-5.839844 14.085937l-10.160156 10.152344-88-88 10.160156-10.160156c3.761719-3.769532 8.800782-5.839844 14.078125-5.839844 5.203125 0 10.242188 2.078125 14 5.839844zm0 0" fill="#ccd1d9"/><path d="m272 232-24 24-104-104 24-24zm0 0" fill="#ff826e"/><path d="m272 432-24 24-72-72 10.320312-10.320312c3.679688-3.679688 8.558594-5.679688 13.679688-5.679688s10 2 13.679688 5.679688zm0 0" fill="#fcd770"/><path d="m260.71875 284.71875c7.203125 7.203125 11.28125 17.042969 11.28125 27.28125s-4.078125 20.078125-11.28125 27.28125l-14.558594 14.558594c-4.082031-7.917969-6.160156-16.800782-6.160156-25.839844l-32-32 32-32zm0 0" fill="#fcd770"/><path d="m248 256-112 112-104-104 112-112zm0 0" fill="#ccd1d9"/><path d="m184 256c0 22.089844-17.910156 40-40 40s-40-17.910156-40-40 17.910156-40 40-40 40 17.910156 40 40zm0 0" fill="#fcd770"/><path d="m136 368-2.480469 2.480469c-6.878906 6.878906-14.960937 12.238281-23.839843 15.917969-8.878907 3.679687-18.398438 5.601562-28.160157 5.601562-20.238281 0-38.640625-8.238281-52-21.519531-13.28125-13.359375-21.519531-31.761719-21.519531-52 0-19.519531 7.761719-38.234375 21.519531-52l2.480469-2.480469zm0 0" fill="#ff826e"/><path d="m48.039062 320.128906-15.984374.78125c1.25 25.496094 22.210937 46.167969 47.730468 47.066406l.558594-15.984374c-17.265625-.617188-31.457031-14.609376-32.304688-31.863282zm0 0"/><path d="m328 144c39.695312 0 72-32.296875 72-72s-32.304688-72-72-72-72 32.296875-72 72c0 8.617188 1.496094 16.945312 4.425781 24.871094l-42.875 21.417968c-10.710937-8.464843-27.230469-7.921874-37.015625 1.863282l-4.535156 4.535156-8-8-144.121094 144.121094c-15.398437 15.390625-23.878906 35.871094-23.878906 57.65625 0 44.960937 36.574219 81.535156 81.535156 81.535156 21.777344 0 42.25-8.488281 57.65625-23.878906l8.808594-8.808594 88.6875 88.6875-4.6875 4.6875v3.3125c0 17.648438 14.351562 32 32 32h3.3125l68.6875-68.6875v-3.3125c0-17.648438-14.351562-32-32-32h-3.3125l-4.6875 4.6875-33.375-33.375c-2.488281-2.488281-4.65625-5.207031-6.535156-8.082031l10.253906-10.261719c8.679688-8.679688 13.65625-20.695312 13.65625-32.96875s-4.976562-24.289062-13.65625-32.96875l-15.03125-15.03125 32-32-8-8 4.542969-4.542969c5.257812-5.257812 8.144531-12.242187 8.144531-19.65625 0-6.433593-2.28125-12.449219-6.257812-17.367187l21.523437-42.808594c7.878906 2.894531 16.167969 4.375 24.734375 4.375zm-56-72c0-30.871094 25.121094-56 56-56s56 25.128906 56 56-25.121094 56-56 56c-6.03125 0-11.871094-1-17.472656-2.839844l7.296875-14.511718c3.296875.863281 6.6875 1.351562 10.175781 1.351562 22.054688 0 40-17.945312 40-40s-17.945312-40-40-40-40 17.945312-40 40c0 3.558594.503906 7.03125 1.40625 10.390625l-14.511719 7.25c-1.878906-5.65625-2.894531-11.550781-2.894531-17.640625zm-42.214844 58.054688 16.648438-8.3125 31.886718 31.882812-8.351562 16.613281zm31.734375-15.847657 48.785157-24.367187.046874.046875-24.472656 48.679687zm42.480469-42.207031c0-13.230469 10.769531-24 24-24s24 10.769531 24 24-10.769531 24-24 24c-.910156 0-1.777344-.199219-2.664062-.304688l4.496093-8.953124-16.367187-16.375-9.128906 4.5625c-.121094-.96875-.335938-1.929688-.335938-2.929688zm-168 284.6875-92.6875-92.6875 100.6875-100.6875 92.6875 92.6875zm-120-38.222656c0-15.992188 5.742188-31.066406 16.152344-42.992188l92.375 92.367188c-11.925782 10.417968-27 16.160156-42.992188 16.160156-36.136718 0-65.535156-29.398438-65.535156-65.535156zm171.3125 65.535156 4.6875-4.6875c4.265625-4.28125 11.71875-4.28125 16 0l52.6875 52.6875-12.6875 12.6875zm119.710938 24.289062c6.402343 1.222657 11.457031 6.277344 12.679687 12.6875l-58.734375 58.734376c-6.402344-1.222657-11.457031-6.277344-12.679688-12.6875zm-22.335938-.289062-12.6875 12.6875-52.679688-52.6875c-10.3125-10.3125-28.328124-10.3125-38.632812 0l-4.6875 4.6875-16.6875-16.6875 48.6875-48.6875 24.089844 24.085938c.820312 16.335937 7.574218 31.570312 19.222656 43.226562zm-29.65625-117.65625c5.695312 5.703125 8.96875 13.59375 8.96875 21.65625s-3.273438 15.953125-8.96875 21.65625l-5.6875 5.6875c-.855469-3.679688-1.34375-7.472656-1.34375-11.34375v-3.3125l-28.6875-28.6875 20.6875-20.6875zm-7.03125-45.65625-92.6875-92.6875 12.6875-12.6875 92.6875 92.6875zm-60.6875-108.6875 4.542969-4.542969c4.457031-4.472656 12.242187-4.472656 16.695312 0l59.992188 59.984375c2.234375 2.230469 3.457031 5.199219 3.457031 8.359375 0 3.160157-1.230469 6.121094-3.457031 8.351563l-4.542969 4.535156zm0 0"/><path d="m144 208c-26.472656 0-48 21.527344-48 48s21.527344 48 48 48 48-21.527344 48-48-21.527344-48-48-48zm0 80c-17.648438 0-32-14.351562-32-32s14.351562-32 32-32 32 14.351562 32 32-14.351562 32-32 32zm0 0"/></svg>