<svg height="490pt" viewBox="0 0 490.16 490" width="490pt" xmlns="http://www.w3.org/2000/svg"><path d="m222.878906 379.921875c-10-3.769531-19.679687-8.320313-28.800781-13.691406 0 .640625.082031 1.203125.082031 1.839843l-72-72c.640625 0 1.199219.082032 1.839844.082032-5.367188-9.121094-9.921875-18.800782-13.6875-28.800782-11.761719-1.359374-23.273438-4.808593-34.082031-10.167968-5.117188 15.359375-13.679688 28.960937-24.796875 40.167968-11.203125 11.121094-24.808594 19.679688-40.167969 24.800782 7.214844 14.488281 10.8125 30.246094 10.8125 45.925781 0 15.683594-3.597656 31.441406-10.804687 45.921875 15.359374 5.121094 28.957031 13.679688 40.167968 24.800781 11.117188 11.199219 19.679688 24.808594 24.796875 40.167969 14.488281-7.199219 30.242188-10.808594 45.921875-10.808594 15.679688 0 31.441406 3.601563 45.917969 10.808594 5.121094-15.359375 13.683594-28.960938 24.800781-40.167969 11.199219-11.121093 24.808594-19.679687 40.167969-24.800781-5.367187-10.800781-8.808594-22.320312-10.167969-34.078125zm0 0" fill="#ff826e"/><path d="m194.078125 366.238281c0 .640625.082031 1.203125.082031 1.839844 0 39.761719-32.238281 72-72 72-39.761718 0-72-32.238281-72-72 0-39.757813 32.238282-72 72-72 .640625 0 1.199219.082031 1.839844.082031 16.800781 29.039063 41.039062 53.28125 70.078125 70.078125zm0 0" fill="#fcd770"/><path d="m482.160156 200.078125c0 13.28125-1.359375 26.242187-3.921875 38.722656-19.757812-13.359375-45.359375-22.722656-84.078125-22.722656-80 0-96 88-152 88-48.558594 0-91.199218-72.398437-143.519531-91.4375-.328125-4.160156-.480469-8.320313-.480469-12.5625 0-106 86-192 192-192s192 86 192 192zm0 0" fill="#e6e9ed"/><path d="m394.160156 216.078125c38.71875 0 64.320313 9.363281 84.078125 22.722656-17.925781 87.4375-95.359375 153.277344-188.078125 153.277344-23.679687 0-46.320312-4.316406-67.28125-12.15625-10-3.769531-19.679687-8.320313-28.800781-13.691406-29.039063-16.796875-53.277344-41.039063-70.078125-70.078125-5.367188-9.121094-9.921875-18.800782-13.6875-28.800782-6.472656-17.199218-10.472656-35.597656-11.679688-54.71875 52.328126 19.046876 94.96875 91.445313 143.527344 91.445313 56 0 72-88 152-88zm0 0" fill="#ccd1d9"/><g fill="#aab2bd"><path d="m298.160156 344.078125c0 8.839844-7.164062 16-16 16-8.835937 0-16-7.160156-16-16 0-8.835937 7.164063-16 16-16 8.835938 0 16 7.164063 16 16zm0 0"/><path d="m258.160156 256.078125c0 8.839844-7.164062 16-16 16-8.835937 0-16-7.160156-16-16 0-8.835937 7.164063-16 16-16 8.835938 0 16 7.164063 16 16zm0 0"/><path d="m362.160156 152.078125c0 8.839844-7.164062 16-16 16-8.835937 0-16-7.160156-16-16 0-8.835937 7.164063-16 16-16 8.835938 0 16 7.164063 16 16zm0 0"/><path d="m258.160156 136.078125c0 8.839844-7.164062 16-16 16-8.835937 0-16-7.160156-16-16 0-8.835937 7.164063-16 16-16 8.835938 0 16 7.164063 16 16zm0 0"/></g><path d="m170.191406 317.679688c13.585938 13.855468 29.28125 25.167968 46.65625 33.59375l6.984375-14.394532c-15.71875-7.632812-29.921875-17.855468-42.214843-30.40625zm0 0"/><path d="m163.191406 283.671875-13.359375 8.816406c3.839844 5.824219 8.105469 11.480469 12.65625 16.800781l12.160157-10.410156c-4.128907-4.824218-7.984376-9.933594-11.457032-15.207031zm0 0"/><path d="m290.160156.078125c-110.28125 0-200 89.722656-200 200 0 19.746094 2.917969 38.808594 8.273438 56.832031-6.410156-1.652344-12.65625-3.894531-18.632813-6.878906l-8.242187-4.121094-2.917969 8.738282c-9.410156 28.105468-31.808594 50.496093-59.90625 59.902343l-8.7109375 2.953125 4.1132815 8.230469c13.207031 26.503906 13.207031 58.167969-.015625 84.699219l-4.121094 8.238281 8.734375 2.921875c28.105469 9.40625 50.496094 31.804688 59.90625 59.902344l2.953125 8.710937 8.230469-4.109375c26.503906-13.210937 58.167969-13.210937 84.695312.015625l8.242188 4.117188 2.917969-8.734375c9.410156-28.105469 31.808593-50.496094 59.90625-59.902344l8.710937-2.953125-4.113281-8.234375c-2.96875-5.957031-5.207032-12.199219-6.863282-18.605469 18.03125 5.359375 37.09375 8.277344 56.839844 8.277344 110.28125 0 200-89.71875 200-200 0-110.277344-89.71875-200-200-200zm0 16c101.464844 0 184 82.546875 184 184 0 8.746094-.65625 17.335937-1.839844 25.761719-21.945312-12.046875-47.097656-17.761719-78.160156-17.761719-47.007812 0-73.222656 27.824219-96.359375 52.371094-18.023437 19.117187-33.585937 35.628906-55.640625 35.628906-24.023437 0-47.808594-21.167969-72.984375-43.574219-19.785156-17.609375-40.214843-35.664062-62.832031-45.3125-.097656-2.359375-.183594-4.726562-.183594-7.113281 0-101.453125 82.535156-184 184-184zm-104.136718 354.683594c-1.414063 34.039062-29.480469 61.316406-63.863282 61.316406-35.289062 0-64-28.710937-64-64 0-34.261719 27.085938-62.246094 61.34375-63.820313 16.59375 27.078126 39.441406 49.917969 66.519532 66.503907zm36.257812 38.804687c-26.257812 11.210938-47.425781 32.378906-58.640625 58.640625-26.480469-10.648437-56.433594-10.664062-82.953125 0-11.214844-26.261719-32.382812-47.429687-58.648438-58.648437 10.648438-26.496094 10.648438-56.429688 0-82.949219 26.257813-11.210937 47.433594-32.386719 58.640626-58.640625 7.695312 3.101562 15.703124 5.269531 23.921874 6.589844 1.964844 4.898437 4.117188 9.699218 6.453126 14.394531-38.855469 5.421875-68.894532 38.789063-68.894532 79.125 0 44.113281 35.886719 80 80 80 40.335938 0 73.703125-30.039063 79.136719-68.894531 4.695313 2.335937 9.496094 4.488281 14.390625 6.457031 1.3125 8.214844 3.480469 16.222656 6.59375 23.925781zm67.878906-25.488281c-92.761718 0-169.65625-69-182.175781-158.359375 17.398437 9.34375 34.207031 24.191406 50.558594 38.738281 27.511719 24.488281 53.503906 47.621094 83.617187 47.621094 28.960938 0 47.574219-19.75 67.28125-40.652344 21.933594-23.28125 44.613282-47.347656 84.71875-47.347656 30.457032 0 54.425782 5.953125 75 18.472656-19.230468 81.042969-92.160156 141.527344-179 141.527344zm0 0"/><path d="m346.160156 280.078125v16c8.824219 0 16 7.179687 16 16 0 8.824219-7.175781 16-16 16v16c17.648438 0 32-14.351563 32-32 0-17.644531-14.351562-32-32-32zm0 0"/><path d="m338.160156 72.078125c13.230469 0 24 10.769531 24 24h16c0-22.054687-17.945312-40-40-40-22.054687 0-40 17.945313-40 40h16c0-13.230469 10.769532-24 24-24zm0 0"/><path d="m178.160156 208.078125v-16c-13.230468 0-24-10.765625-24-24 0-13.230469 10.769532-24 24-24v-16c-22.054687 0-40 17.945313-40 40 0 22.058594 17.945313 40 40 40zm0 0"/><path d="m226.160156 88.078125v-16c-4.417968 0-8-3.589844-8-8 0-4.40625 3.582032-8 8-8 4.414063 0 8 3.59375 8 8h16c0-13.230469-10.769531-24-24-24-13.230468 0-24 10.769531-24 24 0 13.234375 10.769532 24 24 24zm0 0"/><path d="m250.160156 208.078125h16c0-8.820313 7.175782-16 16-16 8.824219 0 16 7.179687 16 16h16c0-17.644531-14.351562-32-32-32-17.648437 0-32 14.355469-32 32zm0 0"/><path d="m418.160156 192.078125v-16c-8.824218 0-16-7.175781-16-16 0-8.820313 7.175782-16 16-16v-16c-17.648437 0-32 14.355469-32 32 0 17.648437 14.351563 32 32 32zm0 0"/><path d="m242.160156 232.078125c-13.230468 0-24 10.769531-24 24 0 13.234375 10.769532 24 24 24 13.230469 0 24-10.765625 24-24 0-13.230469-10.769531-24-24-24zm0 32c-4.417968 0-8-3.582031-8-8 0-4.40625 3.582032-8 8-8 4.414063 0 8 3.59375 8 8 0 4.417969-3.585937 8-8 8zm0 0"/><path d="m346.160156 128.078125c-13.230468 0-24 10.769531-24 24 0 13.234375 10.769532 24 24 24 13.230469 0 24-10.765625 24-24 0-13.230469-10.769531-24-24-24zm0 32c-4.417968 0-8-3.589844-8-8 0-4.40625 3.582032-8 8-8 4.414063 0 8 3.59375 8 8 0 4.410156-3.585937 8-8 8zm0 0"/><path d="m218.160156 136.078125c0 13.234375 10.769532 24 24 24 13.230469 0 24-10.765625 24-24 0-13.230469-10.769531-24-24-24-13.230468 0-24 10.769531-24 24zm32 0c0 4.410156-3.585937 8-8 8-4.417968 0-8-3.589844-8-8 0-4.40625 3.582032-8 8-8 4.414063 0 8 3.59375 8 8zm0 0"/><path d="m282.160156 320.078125c-13.230468 0-24 10.769531-24 24 0 13.234375 10.769532 24 24 24 13.230469 0 24-10.765625 24-24 0-13.230469-10.769531-24-24-24zm0 32c-4.417968 0-8-3.582031-8-8 0-4.414063 3.582032-8 8-8 4.414063 0 8 3.585937 8 8 0 4.417969-3.585937 8-8 8zm0 0"/><path d="m426.160156 256.078125v-16c-13.230468 0-24 10.769531-24 24 0 13.234375 10.769532 24 24 24v-16c-4.417968 0-8-3.582031-8-8 0-4.414063 3.582032-8 8-8zm0 0"/><path d="m122.160156 416.078125v-16c-17.648437 0-32-14.351563-32-32h-16c0 26.472656 21.527344 48 48 48zm0 0"/></svg>