<svg height="496pt" viewBox="0 0 496 496" width="496pt" xmlns="http://www.w3.org/2000/svg"><path d="m262.480469 113.441406 100.558593-100.480468c3.199219-3.199219 7.519532-4.960938 12-4.960938 4.640626 0 8.960938 1.921875 12 4.960938 3.039063 3.039062 4.960938 7.359374 4.960938 12 0 4.480468-1.761719 8.800781-4.960938 12l-14.078124 14.078124c-3.199219 3.199219-4.960938 7.519532-4.960938 12 0 4.640626 1.921875 8.960938 4.960938 12 3.039062 3.039063 7.359374 4.960938 12 4.960938 4.480468 0 8.800781-1.761719 12-4.960938l62.078124-62.078124c3.199219-3.199219 7.519532-4.960938 12-4.960938 4.640626 0 8.960938 1.921875 12 4.960938 3.039063 3.039062 4.960938 7.359374 4.960938 12 0 4.480468-1.761719 8.800781-4.960938 12l-78.078124 78.078124c-3.199219 3.199219-4.960938 7.519532-4.960938 12 0 4.640626 1.921875 8.960938 4.960938 12 3.039062 3.039063 7.359374 4.960938 12 4.960938 4.480468 0 8.800781-1.761719 12-4.960938l30.078124-30.078124c3.199219-3.199219 7.519532-4.960938 12-4.960938 4.640626 0 8.960938 1.921875 12 4.960938 3.039063 3.039062 4.960938 7.359374 4.960938 12 0 4.480468-1.761719 8.800781-4.960938 12l-100.480468 100.480468h-.078125c1.039062-5.839844 1.519531-11.519531 1.519531-17.203125 0-14.878906-9.679688-28-23.519531-33.445312l-1.199219-.480469c-6.5625-2.558594-11.921875-7.839844-14-14.558594-1.121094-3.28125-1.441406-6.554687-1.203125-9.601562 1.203125-14.800782-5.277344-29.191406-18.558594-35.679688-17.679687-8.550781-38-12.402344-59.519531-9.59375-1.199219.160156-2.320312.320313-3.519531.5625zm0 0" fill="#ffeaa7"/><path d="m198.320312 280.320312c-16.800781-21.28125-25.441406-49.28125-21.28125-79.359374 1.519532-10.722657 5.28125-21.28125 10.882813-31.28125 15.4375-28 44.558594-50.878907 74.558594-56.238282 1.199219-.234375 2.320312-.402344 3.519531-.554687 21.519531-2.808594 41.839844 1.042969 59.519531 9.59375 13.28125 6.480469 19.761719 20.878906 18.558594 35.679687-.238281 3.046875.082031 6.320313 1.203125 9.601563 2.078125 6.71875 7.4375 12 14 14.558593l1.199219.480469c13.839843 5.4375 23.519531 18.558594 23.519531 33.4375 0 5.683594-.480469 11.363281-1.519531 17.195313-.160157 1.039062-.320313 2-.558594 3.039062-6.402344 31.679688-27.363281 58.167969-55.203125 72.320313-11.839844 6.085937-24.957031 9.839843-38.640625 10.878906-.078125 0-.078125 0-.078125-.078125-.238281-13.035156-10.878906-23.59375-24-23.59375-2.238281 0-4.398438.320312-6.398438.878906-21.601562 6.082032-45.363281 1.042969-59.28125-16.558594zm0 0" fill="#dfb28b"/><path d="m326.160156 352c-5.679687 38.160156-24.878906 71.839844-52.480468 96.078125l-.078126-.078125h-65.601562c-4.398438 0-8.398438-1.761719-11.28125-4.71875-2.957031-2.882812-4.71875-6.882812-4.71875-11.28125 0-8.800781 7.199219-16 16-16h24c4.398438 0 8.398438-1.761719 11.28125-4.71875 2.957031-2.882812 4.71875-6.882812 4.71875-11.28125 0-8.800781-7.199219-16-16-16h-48c-4.398438 0-8.398438-1.761719-11.28125-4.71875-2.957031-2.882812-4.71875-6.882812-4.71875-11.28125 0-8.800781 7.199219-16 16-16zm0 0" fill="#b4dd7f"/><path d="m131.28125 316.71875c2.957031 2.882812 4.71875 6.882812 4.71875 11.28125 0 8.800781-7.199219 16-16 16h-32c-4.398438 0-8.398438 1.761719-11.28125 4.71875-2.957031 2.882812-4.71875 6.882812-4.71875 11.28125 0 8.800781 7.199219 16 16 16h16c4.398438 0 8.398438 1.761719 11.28125 4.71875 2.957031 2.882812 4.71875 6.882812 4.71875 11.28125 0 8.800781-7.199219 16-16 16h-74.480469c-13.679687-23.519531-21.519531-50.878906-21.519531-80s7.839844-56.480469 21.519531-80h58.480469c4.398438 0 8.398438 1.761719 11.28125 4.71875 2.957031 2.882812 4.71875 6.882812 4.71875 11.28125 0 8.800781-7.199219 16-16 16h-16c-4.398438 0-8.398438 1.761719-11.28125 4.71875-2.957031 2.882812-4.71875 6.882812-4.71875 11.28125 0 8.800781 7.199219 16 16 16h48c4.398438 0 8.398438 1.761719 11.28125 4.71875zm0 0" fill="#b4dd7f"/><path d="m29.519531 248c27.601563-47.839844 79.28125-80 138.480469-80 6.480469 0 12.878906.480469 19.199219 1.28125l.722656.398438c-5.601563 10-9.363281 20.558593-10.882813 31.28125-4.160156 30.078124 4.480469 58.078124 21.28125 79.359374 13.917969 17.601563 37.679688 22.640626 59.28125 16.558594 2-.558594 4.160157-.878906 6.398438-.878906 13.121094 0 23.761719 10.558594 24 23.601562 0 .078126 0 .078126.078125.078126 13.683594-1.039063 26.800781-4.800782 38.640625-10.878907.800781 6.320313 1.28125 12.71875 1.28125 19.199219 0 8.160156-.640625 16.238281-1.839844 24h-142.160156c-8.800781 0-16 7.199219-16 16 0 4.398438 1.761719 8.398438 4.71875 11.28125 2.882812 2.957031 6.882812 4.71875 11.28125 4.71875h48c8.800781 0 16 7.199219 16 16 0 4.398438-1.761719 8.398438-4.71875 11.28125-2.882812 2.957031-6.882812 4.71875-11.28125 4.71875h-24c-8.800781 0-16 7.199219-16 16 0 4.398438 1.761719 8.398438 4.71875 11.28125 2.882812 2.957031 6.882812 4.71875 11.28125 4.71875h65.601562l.078126.078125c-28.160157 24.882813-65.121094 39.921875-105.679688 39.921875-59.199219 0-110.878906-32.160156-138.480469-80h74.480469c8.800781 0 16-7.199219 16-16 0-4.398438-1.761719-8.398438-4.71875-11.28125-2.882812-2.957031-6.882812-4.71875-11.28125-4.71875h-16c-8.800781 0-16-7.199219-16-16 0-4.398438 1.761719-8.398438 4.71875-11.28125 2.882812-2.957031 6.882812-4.71875 11.28125-4.71875h32c8.800781 0 16-7.199219 16-16 0-4.398438-1.761719-8.398438-4.71875-11.28125-2.882812-2.957031-6.882812-4.71875-11.28125-4.71875h-48c-8.800781 0-16-7.199219-16-16 0-4.398438 1.761719-8.398438 4.71875-11.28125 2.882812-2.957031 6.882812-4.71875 11.28125-4.71875h16c8.800781 0 16-7.199219 16-16 0-4.398438-1.761719-8.398438-4.71875-11.28125-2.882812-2.957031-6.882812-4.71875-11.28125-4.71875zm0 0" fill="#69d6f4"/><path d="m471.03125 96c-6.671875 0-12.941406 2.59375-17.65625 7.3125l-30.0625 30.0625c-1.695312 1.695312-3.945312 2.625-6.34375 2.625-4.945312 0-8.96875-4.023438-8.96875-8.96875 0-2.359375.960938-4.671875 2.625-6.34375l78.0625-78.0625c4.648438-4.648438 7.3125-11.082031 7.3125-17.65625 0-13.769531-11.199219-24.96875-24.96875-24.96875-6.671875 0-12.941406 2.59375-17.65625 7.3125l-62.0625 62.0625c-1.695312 1.695312-3.945312 2.625-6.34375 2.625-4.945312 0-8.96875-4.023438-8.96875-8.96875 0-2.359375.960938-4.671875 2.625-6.34375l14.0625-14.0625c4.648438-4.648438 7.3125-11.082031 7.3125-17.65625 0-13.769531-11.199219-24.96875-24.96875-24.96875-6.671875 0-12.941406 2.59375-17.65625 7.3125l-98.847656 98.839844c-29.757813 6.183594-58 27.75-74.710938 54.757812-5.632812-.558594-10.929687-.910156-15.816406-.910156-92.640625 0-168 75.367188-168 168s75.359375 168 168 168 168-75.367188 168-168c0-4.566406-.320312-9.496094-.800781-14.671875 27.464843-15.695313 47.976562-42.769531 54.578125-75.28125.039062-.199219.046875-.398437.085937-.589844l98.824219-98.824219c4.648438-4.65625 7.3125-11.089843 7.3125-17.664062 0-13.769531-11.199219-24.96875-24.96875-24.96875zm-436.847656 160h53.816406c4.40625 0 8 3.585938 8 8s-3.59375 8-8 8h-16c-13.230469 0-24 10.769531-24 24s10.769531 24 24 24h48c4.40625 0 8 3.585938 8 8s-3.59375 8-8 8h-32c-13.230469 0-24 10.769531-24 24s10.769531 24 24 24h16c4.40625 0 8 3.585938 8 8s-3.59375 8-8 8h-69.816406c-11.582032-21.449219-18.183594-45.960938-18.183594-72s6.601562-50.550781 18.183594-72zm236.214844 184h-62.398438c-4.40625 0-8-3.585938-8-8s3.59375-8 8-8h24c13.230469 0 24-10.769531 24-24s-10.769531-24-24-24h-48c-4.40625 0-8-3.585938-8-8s3.59375-8 8-8h132.542969c-6.75 31.375-23.277344 59.078125-46.144531 80zm49.601562-112c0 5.40625-.304688 10.734375-.855469 16h-135.144531c-13.230469 0-24 10.769531-24 24s10.769531 24 24 24h48c4.40625 0 8 3.585938 8 8s-3.59375 8-8 8h-24c-13.230469 0-24 10.769531-24 24s10.769531 24 24 24h41.648438c-23.617188 15.121094-51.585938 24-81.648438 24-51.007812 0-96.121094-25.335938-123.703125-64h59.703125c13.230469 0 24-10.769531 24-24s-10.769531-24-24-24h-16c-4.40625 0-8-3.585938-8-8s3.59375-8 8-8h32c13.230469 0 24-10.769531 24-24s-10.769531-24-24-24h-48c-4.40625 0-8-3.585938-8-8s3.59375-8 8-8h16c13.230469 0 24-10.769531 24-24s-10.769531-24-24-24h-43.703125c27.582031-38.664062 72.695313-64 123.703125-64 2.496094 0 5.121094.105469 7.832031.273438-3.246093 7.679687-5.585937 15.589843-6.703125 23.582031-4.328125 30.90625 3.816406 61.25 22.933594 85.441406 15.042969 19.023437 41.601562 26.582031 67.679688 19.277344 1.363281-.382813 2.792968-.574219 4.257812-.574219 8.664062 0 15.824219 7.0625 15.960938 15.742188l.152343 3.601562 5.160157 4.578125 3.375-.25c10.847656-.800781 21.273437-3.273437 31.105468-7.03125.132813 2.527344.246094 5.007813.246094 7.359375zm54.089844-93.144531c-8.058594 39.71875-40.210938 70.089843-79.457032 76.046875-3.953124-13.199219-16.265624-22.902344-30.632812-22.902344-2.9375 0-5.832031.398438-8.59375 1.175781-19.8125 5.566407-39.757812.152344-50.789062-13.808593-16.386719-20.726563-23.351563-46.757813-19.640626-73.296876 5.359376-38.246093 43.703126-76.207031 82.0625-81.230468 19.03125-2.449219 38.023438.558594 54.929688 8.824218 9.695312 4.742188 15.109375 15.40625 14.128906 27.832032-.335937 4.230468.175782 8.519531 1.527344 12.734375 2.832031 8.859375 9.671875 15.992187 18.703125 19.539062l1.214844.488281c11.066406 4.34375 18.480469 14.78125 18.449219 25.972657-.007813 6.195312-.648438 12.457031-1.902344 18.625zm103.285156-107.542969-85.632812 85.632812c-1.300782-16.417968-12.253907-31.25-28.300782-37.5625l-1.210937-.488281c-4.519531-1.773437-8.015625-5.34375-9.359375-9.535156-.710938-2.222656-.992188-4.449219-.816406-6.597656 1.488281-18.832031-7.558594-35.898438-23.054688-43.472657-14.296875-6.976562-29.863281-10.738281-45.777344-11.199218l85.464844-85.464844c1.695312-1.695312 3.945312-2.625 6.34375-2.625 4.945312 0 8.96875 4.023438 8.96875 8.96875 0 2.359375-.960938 4.671875-2.625 6.34375l-14.0625 14.0625c-4.648438 4.648438-7.3125 11.082031-7.3125 17.65625 0 13.769531 11.199219 24.96875 24.96875 24.96875 6.671875 0 12.941406-2.59375 17.65625-7.3125l62.0625-62.0625c1.695312-1.695312 3.945312-2.625 6.34375-2.625 4.945312 0 8.96875 4.023438 8.96875 8.96875 0 2.359375-.960938 4.671875-2.625 6.34375l-78.0625 78.0625c-4.648438 4.648438-7.3125 11.082031-7.3125 17.65625 0 13.769531 11.199219 24.96875 24.96875 24.96875 6.671875 0 12.941406-2.59375 17.65625-7.3125l30.0625-30.0625c1.695312-1.695312 3.945312-2.625 6.34375-2.625 4.945312 0 8.96875 4.023438 8.96875 8.96875 0 2.359375-.960938 4.671875-2.625 6.34375zm0 0"/><path d="m354.339844 346.34375 79.996094-80 11.316406 11.316406-80 79.996094zm0 0"/><path d="m402.335938 250.34375 64.003906-64 11.3125 11.3125-64 64.003906zm0 0"/><path d="m138.339844 130.34375 80-80 11.3125 11.316406-79.996094 79.996094zm0 0"/><path d="m234.339844 82.34375 64-64 11.316406 11.3125-64.003906 64.003906zm0 0"/><path d="m248 208c-13.230469 0-24 10.769531-24 24s10.769531 24 24 24v-16c-4.40625 0-8-3.585938-8-8s3.59375-8 8-8 8 3.585938 8 8h16c0-13.230469-10.769531-24-24-24zm0 0"/><path d="m336 200v16c4.40625 0 8 3.585938 8 8s-3.59375 8-8 8v16c13.230469 0 24-10.769531 24-24s-10.769531-24-24-24zm0 0"/><path d="m264 136v16c4.40625 0 8 3.585938 8 8s-3.59375 8-8 8v16c13.230469 0 24-10.769531 24-24s-10.769531-24-24-24zm0 0"/><path d="m312 280c-4.40625 0-8-3.585938-8-8s3.59375-8 8-8v-16c-13.230469 0-24 10.769531-24 24s10.769531 24 24 24 24-10.769531 24-24h-16c0 4.414062-3.59375 8-8 8zm0 0"/><path d="m208 176h16v16h-16zm0 0"/><path d="m304 184h16v16h-16zm0 0"/><path d="m304 136h16v16h-16zm0 0"/><path d="m192.835938 227.574219 14.3125-7.15625 7.996093 16-14.308593 7.15625zm0 0"/><path d="m292.414062 231.160156 7.152344-14.308594 16 8-7.15625 14.308594zm0 0"/><path d="m248 264h16v16h-16zm0 0"/><path d="m88.792969 438.496094c23.207031 16.679687 50.597656 25.503906 79.207031 25.503906v-16c-25.238281 0-49.398438-7.785156-69.871094-22.496094zm0 0"/></svg>