<?xml version="1.0" encoding="iso-8859-1"?>
<!-- Generator: Adobe Illustrator 19.0.0, SVG Export Plug-In . SVG Version: 6.00 Build 0)  -->
<svg version="1.1" id="Capa_1" xmlns="http://www.w3.org/2000/svg" xmlns:xlink="http://www.w3.org/1999/xlink" x="0px" y="0px"
	 viewBox="0 0 496 496" style="enable-background:new 0 0 496 496;" xml:space="preserve">
<rect x="216" y="440" style="fill:#AFB8C9;" width="64" height="56"/>
<polygon style="fill:#ECECEC;" points="200,408 216,440 280,440 296,408 "/>
<polygon style="fill:#8C95A4;" points="120,408 88,408 88,360 120,336 376,336 408,360 408,408 376,408 "/>
<polygon style="fill:#ECECEC;" points="120,296 120,408 200,408 296,408 376,408 376,296 "/>
<g>
	<rect x="344" y="304" style="fill:#B6C1CE;" width="32" height="104"/>
	<rect x="168" y="304" style="fill:#B6C1CE;" width="32" height="104"/>
</g>
<polygon style="fill:#ECECEC;" points="264,8 232,8 200,80 200,408 296,408 296,80 "/>
<rect x="272" y="80" style="fill:#B6C1CE;" width="24" height="328"/>
<rect x="200" y="224" style="fill:#AFB8C9;" width="96" height="64"/>
<rect x="272" y="224" style="fill:#8C95A4;" width="24" height="64"/>
<rect x="184" y="160" style="fill:#FB5968;" width="128" height="32"/>
<circle style="fill:#FCD770;" cx="248" cy="344" r="16"/>
<g>
	<rect x="320" y="408" style="fill:#AFB8C9;" width="48" height="32"/>
	<rect x="128" y="408" style="fill:#AFB8C9;" width="48" height="32"/>
</g>
<g>
	<polygon style="fill:#FCD770;" points="344,224 328,224 296,288 296,304 384,304 	"/>
	<polygon style="fill:#FCD770;" points="152,224 112,304 200,304 200,288 168,224 	"/>
</g>
<rect x="224" y="112" width="48" height="16"/>
<path d="M384,332v-20h12.944l-48-96h-25.888L304,254.112V200h16v-48h-16V78.304L269.192,0H226.8L192,78.304V152h-16v48h16v54.112
	L172.944,216h-25.888l-48,96H112v20l-32,24v60h32h8v16h-8v16h80v-16h-8v-16h11.056L208,441.888V480h-16v16h48v-16h-16v-32h48v32h-16
	v16h48v-16h-16v-38.112L300.944,416H312v16h-8v16h80v-16h-8v-16h8h32v-60L384,332z M368,400h-64v-88h64V400z M208,248v-16h80v16h-16
	v16h16v16h-80v-16h48v-16H208z M248,352c-4.416,0-8-3.584-8-8s3.584-8,8-8c4.416,0,8,3.584,8,8S252.416,352,248,352z M240,321.472
	c-9.288,3.312-16,12.112-16,22.528s6.712,19.216,16,22.528V400h-32V296h32V321.472z M283.056,416l-8,16h-54.112l-8-16H283.056z
	 M256,400v-33.472c9.288-3.312,16-12.112,16-22.528s-6.712-19.216-16-22.528V296h32v104H256z M332.944,232h6.112l32,64H368h-64
	v-6.112L332.944,232z M240,168v16h-16v-16H240z M256,168h16v16h-16V168z M304,184h-16v-16h16V184z M208,88h16V72h-11.688L237.2,16
	h21.608l24.888,56H240v16h48v64h-80V88z M192,168h16v16h-16V168z M288,200v16h-80v-16H288z M156.944,232h6.112L192,289.888V296h-64
	h-3.056L156.944,232z M192,312v88h-64v-88H192z M96,400v-36l16-12v48H96z M168,432h-32v-16h32V432z M360,432h-32v-16h32V432z
	 M400,400h-16v-48l16,12V400z"/>
<rect x="152" y="336" width="16" height="16"/>
<rect x="328" y="336" width="16" height="16"/>
<g>
</g>
<g>
</g>
<g>
</g>
<g>
</g>
<g>
</g>
<g>
</g>
<g>
</g>
<g>
</g>
<g>
</g>
<g>
</g>
<g>
</g>
<g>
</g>
<g>
</g>
<g>
</g>
<g>
</g>
</svg>
