<svg height="493pt" viewBox="0 0 493 493.65392" width="493pt" xmlns="http://www.w3.org/2000/svg"><path d="m236.78125 257.175781c-13.921875-14-32.160156-22.882812-52.5625-26.089843l-31.839844-.480469c-33.199218 4-66.878906 21.191406-94.398437 48.71875-24.398438 24.402343-41.121094 54.480469-47.199219 84.640625-7.28125 36.640625 1.839844 70.960937 25.039062 94.160156 17.761719 17.769531 42.480469 27.527344 69.679688 27.527344 24.800781 0 50.402344-8 74.082031-22.320313l25.757813-18.878906c3.199218-2.71875 6.320312-5.511719 9.28125-8.480469 24.398437-24.398437 41.199218-54.480468 47.199218-84.640625 7.359376-36.636719-1.761718-70.957031-25.039062-94.15625zm0 0" fill="#f5e0cd"/><path d="m376.300781 437.652344c0 22.09375-17.910156 40-40 40-22.089843 0-40-17.90625-40-40 0-22.089844 17.910157-40 40-40 22.089844 0 40 17.910156 40 40zm0 0" fill="#fcd770"/><path d="m205.339844 444.453125c1.921875 2.640625 2.960937 5.761719 2.960937 9.199219 0 8.800781-7.199219 16-16 16-5.199219 0-9.761719-2.476563-12.640625-6.320313h-.078125c-2.082031-2.71875-3.28125-6.078125-3.28125-9.679687 0-8.796875 7.199219-16 16-16 5.359375 0 10.160157 2.722656 13.039063 6.800781zm0 0" fill="#fcd770"/><path d="m213.820312 309.894531c-2.160156-7.128906-5.679687-13.601562-10.960937-18.808593-24.480469-24.480469-74.160156-14.550782-110.878906 22.167968-18.558594 18.550782-30.238281 40.238282-34.160157 60.480469l.960938 31.679687c2.160156 7.128907 5.757812 13.601563 10.960938 18.808594 24.558593 24.480469 74.160156 14.550782 110.957031-22.167968 18.480469-18.554688 30.160156-40.242188 34.160156-60.480469zm0 0" fill="#f5f7fa"/><g fill="#fcd770"><path d="m184.21875 231.09375c-.71875 8.160156-7.597656 14.558594-15.917969 14.558594-8.480469 0-15.441406-6.636719-15.921875-15.039063-.078125-.320312-.078125-.640625-.078125-.960937 0-8.796875 7.199219-16 16-16s16 7.203125 16 16c0 .480468 0 .960937-.082031 1.441406zm0 0"/><path d="m176.300781 357.652344c0 22.09375-17.910156 40-40 40-22.089843 0-40-17.90625-40-40 0-22.089844 17.910157-40 40-40 22.089844 0 40 17.910156 40 40zm0 0"/><path d="m96.300781 157.652344c0 22.09375-17.910156 40-40 40-22.089843 0-40-17.90625-40-40 0-22.089844 17.910157-40 40-40 22.089844 0 40 17.910156 40 40zm0 0"/><path d="m214.859375 341.574219c-8.160156-.71875-14.558594-7.601563-14.558594-15.921875 0-7.917969 5.839844-14.558594 13.519531-15.757813.800782-.160156 1.601563-.242187 2.480469-.242187 8.800781 0 16 7.203125 16 16 0 8.800781-7.199219 16-16 16-.480469 0-.960937 0-1.441406-.078125zm0 0"/><path d="m57.820312 373.734375c8.082032.800781 14.480469 7.679687 14.480469 15.917969 0 7.921875-5.839843 14.5625-13.519531 15.761718-.800781.160157-1.601562.238282-2.480469.238282-8.800781 0-16-7.199219-16-16 0-8.796875 7.199219-16 16-16 .558594 0 1.039063 0 1.519531.082031zm0 0"/></g><path d="m144.316406 317.652344h-16c0 17.648437-14.351562 32-32 32v16c17.648438 0 32 14.355468 32 32h16c0-17.644532 14.351563-32 32-32v-16c-17.648437 0-32-14.351563-32-32zm-8 53.523437c-3.558594-5.363281-8.160156-9.960937-13.519531-13.523437 5.359375-3.558594 9.960937-8.160156 13.519531-13.519532 3.558594 5.359376 8.160156 9.960938 13.519532 13.519532-5.359376 3.5625-9.960938 8.160156-13.519532 13.523437zm0 0"/><path d="m344.300781 397.652344h-16c0 17.648437-14.351562 32-32 32v16c17.648438 0 32 14.355468 32 32h16c0-17.644532 14.351563-32 32-32v-16c-17.648437 0-32-14.351563-32-32zm-8 53.523437c-3.558593-5.363281-8.160156-9.960937-13.519531-13.523437 5.359375-3.558594 9.960938-8.160156 13.519531-13.519532 3.558594 5.359376 8.160157 9.960938 13.519531 13.519532-5.359374 3.5625-9.960937 8.160156-13.519531 13.523437zm0 0"/><path d="m48.300781 197.652344h16c0-17.644532 14.351563-32 32-32v-16c-17.648437 0-32-14.351563-32-32h-16c0 17.648437-14.351562 32-32 32v16c17.648438 0 32 14.355468 32 32zm8-53.519532c3.558594 5.359376 8.160157 9.960938 13.519531 13.519532-5.359374 3.5625-9.960937 8.160156-13.519531 13.523437-3.558593-5.363281-8.160156-9.960937-13.519531-13.523437 5.359375-3.558594 9.960938-8.160156 13.519531-13.519532zm0 0"/><path d="m208.53125 285.445312c-27.589844-27.597656-82.429688-17.648437-122.238281 22.175782-17.3125 17.3125-29.480469 37.890625-34.855469 58.535156-10.914062 2.257812-19.136719 11.929688-19.136719 23.496094 0 12.167968 9.136719 22.144531 20.886719 23.691406 2.648438 6.34375 6.289062 11.902344 10.914062 16.527344 10.40625 10.40625 24.695313 15.816406 41.238282 15.816406 5.402344 0 11.03125-.578125 16.855468-1.746094 22.480469-4.496094 45.265626-17.367187 64.144532-36.246094 17.320312-17.320312 29.488281-37.898437 34.863281-58.546874 10.898437-2.277344 19.097656-11.941407 19.097656-23.496094 0-12.160156-9.121093-22.117188-20.855469-23.679688-2.648437-6.34375-6.28125-11.902344-10.914062-16.527344zm-160.230469 104.207032c0-4.414063 3.589844-8 8-8 4.40625 0 8 3.585937 8 8 0 4.417968-3.59375 8-8 8-4.410156 0-8-3.582032-8-8zm126.726563 6.722656c-16.671875 16.671875-36.550782 27.992188-55.96875 31.871094-18.246094 3.65625-33.742188.199218-43.644532-9.695313-2.480468-2.480469-4.425781-5.503906-6.105468-8.792969 6.601562-4.273437 10.992187-11.671874 10.992187-20.105468 0-9.238282-5.304687-17.183594-12.984375-21.191406 4.886719-17.335938 15.449219-34.6875 30.28125-49.519532 33.582032-33.574218 78.261719-43.511718 99.613282-22.175781 2.472656 2.472656 4.417968 5.496094 6.097656 8.777344-6.609375 4.261719-11.007813 11.671875-11.007813 20.109375 0 9.257812 5.320313 17.210937 13.007813 21.210937-4.894532 17.335938-15.449219 34.679688-30.28125 49.511719zm49.273437-70.722656c0 4.417968-3.59375 8-8 8-4.410156 0-8-3.582032-8-8 0-4.414063 3.589844-8 8-8 4.40625 0 8 3.585937 8 8zm0 0"/><path d="m191.675781 224.390625c-2.414062-10.703125-11.960937-18.738281-23.375-18.738281-11.167969 0-20.503906 7.707031-23.167969 18.058594-33.121093 5.550781-65.847656 23.03125-92.792968 49.976562-25.511719 25.503906-43.046875 57-49.375 88.679688-7.863282 39.328124 2.046875 76.300781 27.191406 101.4375 19.257812 19.25 46 29.847656 75.320312 29.847656 24.105469 0 49.207032-7.101563 73-20.445313 3.917969 2.78125 8.671876 4.445313 13.824219 4.445313 13.230469 0 24-10.765625 24-24 0-2.535156-.503906-4.933594-1.230469-7.230469 1.75-1.582031 3.535157-3.105469 5.222657-4.800781 25.511719-25.503906 43.046875-57 49.375-88.679688 7.863281-39.328125-2.046875-76.304687-27.191407-101.441406-13.59375-13.589844-31.0625-22.863281-50.800781-27.109375zm-23.375-2.738281c4.40625 0 8 3.585937 8 8 0 4.417968-3.59375 8-8 8-4.410156 0-8-3.582032-8-8 0-4.414063 3.589844-8 8-8zm24 240c-4.410156 0-8-3.582032-8-8 0-4.414063 3.589844-8 8-8 4.40625 0 8 3.585937 8 8 0 4.417968-3.59375 8-8 8zm61.679688-111.847656c-5.71875 28.617187-21.695313 57.210937-45 80.503906-1.160157 1.160156-2.382813 2.183594-3.574219 3.28125-3.777344-2.472656-8.265625-3.9375-13.105469-3.9375-13.230469 0-24 10.769531-24 24 0 2.226562.398438 4.34375.976563 6.394531-20.984375 11.496094-42.898438 17.605469-63.800782 17.605469-25.046874 0-47.785156-8.933594-64.007812-25.167969-21.296875-21.285156-29.617188-52.992187-22.824219-86.984375 5.71875-28.613281 21.695313-57.207031 45-80.503906 24.273438-24.269532 53.480469-40.085938 82.917969-45.308594 3.816406 8.214844 12.097656 13.964844 21.738281 13.964844 9.398438 0 17.472657-5.476563 21.40625-13.367188 16.144531 3.738282 30.378907 11.449219 41.457031 22.535156 21.296876 21.289063 29.609376 52.992188 22.816407 86.984376zm0 0"/><path d="m314.640625 87.996094 16-15.996094 11.3125 11.3125-15.996094 16zm0 0"/><path d="m202.644531 199.996094 104-104 11.3125 11.3125-104 104zm0 0"/><path d="m394.640625 167.996094 15.996094-15.996094 11.316406 11.3125-16 16zm0 0"/><path d="m282.640625 279.996094 104-104 11.316406 11.3125-104 104zm0 0"/><path d="m466.640625 48 15.996094-16 11.316406 11.316406-16 15.996094zm0 0"/><path d="m442.640625 72 15.996094-16 11.316406 11.3125-16 16zm0 0"/><path d="m274.640625 239.996094 159.996094-159.996094 11.316406 11.3125-160 160zm0 0"/><path d="m434.640625 16 16-16 11.3125 11.316406-15.996094 15.996094zm0 0"/><path d="m410.640625 40 16-16 11.3125 11.3125-15.996094 16zm0 0"/><path d="m242.640625 207.996094 160-159.996094 11.3125 11.3125-159.996094 160zm0 0"/><path d="m466.640625 295.996094 15.996094-15.996094 11.3125 11.3125-15.996094 16zm0 0"/><path d="m362.640625 399.996094 96-96.003906 11.316406 11.316406-96.003906 96zm0 0"/><path d="m450.640625 359.996094 15.996094-15.996094 11.3125 11.3125-15.996094 15.996094zm0 0"/><path d="m394.636719 416 47.996093-48 11.316407 11.316406-48 47.996094zm0 0"/><path d="m402.640625 311.996094 15.996094-15.996094 11.3125 11.3125-15.996094 15.996094zm0 0"/><path d="m346.636719 368 48-48 11.3125 11.316406-48 47.996094zm0 0"/><path d="m186.644531 15.996094 15.996094-15.996094 11.3125 11.3125-15.996094 16zm0 0"/><path d="m82.644531 119.996094 96-96.003906 11.316407 11.316406-96.003907 96zm0 0"/><path d="m170.644531 79.996094 15.996094-15.996094 11.3125 11.3125-15.996094 15.996094zm0 0"/><path d="m114.640625 136 47.996094-48 11.316406 11.316406-48 47.996094zm0 0"/><path d="m122.644531 31.996094 15.996094-15.996094 11.3125 11.3125-15.996094 15.996094zm0 0"/><path d="m66.640625 88 47.996094-48 11.316406 11.316406-48 47.996094zm0 0"/></svg>