<?xml version="1.0" encoding="iso-8859-1"?>
<!-- Generator: Adobe Illustrator 19.0.0, SVG Export Plug-In . SVG Version: 6.00 Build 0)  -->
<svg version="1.1" id="Capa_1" xmlns="http://www.w3.org/2000/svg" xmlns:xlink="http://www.w3.org/1999/xlink" x="0px" y="0px"
	 viewBox="0 0 496 496" style="enable-background:new 0 0 496 496;" xml:space="preserve">
<rect x="96" y="80" style="fill:#FCD770;" width="304" height="64"/>
<path style="fill:#ECECEC;" d="M367.152,219.576L328,200H168l-39.152,19.576c-5.424,2.712-8.848,8.256-8.848,14.312v43.208
	c0,1.92,0.344,3.824,1.016,5.616l29.936,79.824c10.256,27.352,36.392,45.464,65.6,45.464h62.904c29.2,0,55.344-18.112,65.592-45.456
	l29.936-79.824c0.672-1.8,1.016-3.704,1.016-5.624v-43.208C376,227.832,372.576,222.288,367.152,219.576z"/>
<path style="fill:#B6C1CE;" d="M344,268v96.792c0.296,0.056-0.104-0.016,0.192,0.032l30.792-82.112
	c0.672-1.792,1.016-3.696,1.016-5.616v-43.208c0-6.064-3.424-11.6-8.848-14.312L328,200h-38l39.048,34.712
	C338.56,243.16,344,255.28,344,268z"/>
<rect x="216" y="224" style="fill:#FCD770;" width="64" height="88"/>
<path style="fill:#ECECEC;" d="M128,71.464v66.632c0,23.344,12.816,44.808,33.376,55.88l56.536,30.44
	C227.16,229.392,237.496,232,248,232l0,0c10.504,0,20.84-2.608,30.088-7.584l56.536-30.44C355.184,182.904,368,161.44,368,138.096
	V71.464C368,36.416,339.584,8,304.536,8H191.464C156.416,8,128,36.416,128,71.464z"/>
<path style="fill:#B6C1CE;" d="M344,112c0,38.544-13.744,70.104-26.528,91.208l17.152-9.24C355.184,182.904,368,161.44,368,138.096
	V71.464C368,36.416,339.584,8,304.536,8H296C296,8,344,40,344,112z"/>
<path style="fill:#AFB8C9;" d="M184,206.152l33.912,18.264C227.16,229.392,237.496,232,248,232s20.84-2.608,30.088-7.584
	L312,206.152V136H184V206.152z"/>
<path style="fill:#39C3FC;" d="M232.832,180.896l-54.12-27.08C167.248,148.072,160,136.344,160,123.512v-33.64
	C160,71.168,175.168,56,193.88,56h108.24C320.832,56,336,71.168,336,89.88v33.632c0,12.832-7.248,24.56-18.72,30.296l-54.12,27.088
	c-4.704,2.352-9.896,3.584-15.16,3.584l0,0C242.728,184.48,237.544,183.256,232.832,180.896z"/>
<path style="fill:#148CE0;" d="M304,104c0,48-32,72-32,72l-0.632,0.784l45.912-22.976c11.472-5.744,18.72-17.472,18.72-30.296V89.88
	C336,71.168,320.832,56,302.12,56H272C272,56,304,72,304,104z"/>
<path style="fill:#AFB8C9;" d="M304,312H192c-8.84,0-16,7.16-16,16v67c11.6,8.248,25.656,13,40.552,13h62.904
	c14.888,0,28.952-4.752,40.552-13v-67C320,319.16,312.84,312,304,312z"/>
<path style="fill:#8C95A4;" d="M256,488h-16c-13.256,0-24-10.744-24-24v-96c0-13.256,10.744-24,24-24h16c13.256,0,24,10.744,24,24
	v96C280,477.256,269.256,488,256,488z"/>
<rect x="240" y="344" style="fill:#798699;" width="16" height="144"/>
<path style="fill:#ECECEC;" d="M416,288h-32c-4.416,0-8-3.584-8-8v-48c0-13.256,10.744-24,24-24l0,0c13.256,0,24,10.744,24,24v48
	C424,284.416,420.416,288,416,288z"/>
<rect x="384" y="288" style="fill:#FCD770;" width="32" height="80"/>
<path style="fill:#ECECEC;" d="M112,288H80c-4.416,0-8-3.584-8-8v-48c0-13.256,10.744-24,24-24l0,0c13.256,0,24,10.744,24,24v48
	C120,284.416,116.416,288,112,288z"/>
<rect x="80" y="288" style="fill:#FCD770;" width="32" height="80"/>
<circle style="fill:#FB5968;" cx="248" cy="112" r="32"/>
<rect x="176" y="272" width="16" height="16"/>
<rect x="240" y="272" width="16" height="16"/>
<rect x="304" y="272" width="16" height="16"/>
<path d="M424,360v-66.224c4.76-2.776,8-7.88,8-13.776v-48c0-17.648-14.352-32-32-32c-11,0-20.72,5.584-26.48,14.064
	c-0.88-0.6-1.808-1.152-2.784-1.64l-28.112-14.056C359.296,187.84,370.696,171.08,374.48,152H392v16h16V56h-16v16h-16v-0.536
	C376,32.056,343.944,0,304.536,0H191.464C152.056,0,120,32.056,120,71.464V72h-16V56H88v112h16v-16h17.52
	c3.784,19.08,15.184,35.84,31.856,46.368l-28.112,14.056c-0.976,0.488-1.896,1.04-2.784,1.64C116.72,205.584,107,200,96,200
	c-17.648,0-32,14.352-32,32v48c0,5.896,3.24,11,8,13.776V360H56v40h16v-24h48v24h16v-40h-16v-57.208l23.464,62.56
	c10.352,27.6,35.656,46.888,64.536,50.12V464c0,17.648,14.352,32,32,32h16c17.648,0,32-14.352,32-32v-48.536
	c28.88-3.224,54.184-22.52,64.536-50.12L376,302.784V360h-16v40h16v-24h48v24h16v-40H424z M384,232c0-8.824,7.176-16,16-16
	s16,7.176,16,16l0.008,48H384v-2.896v-43.208V232z M392,88v48h-16V88H392z M104,88h16v48h-16V88z M136,138.096V71.464
	C136,40.88,160.88,16,191.464,16h113.08C335.12,16,360,40.88,360,71.464v66.632c0,20.44-11.176,39.152-29.168,48.832L320,192.752
	V161.4l0.864-0.432C335.136,153.824,344,139.48,344,123.512V89.88C344,66.792,325.216,48,302.12,48H193.88
	C170.784,48,152,66.792,152,89.88v33.632c0,15.952,8.864,30.304,23.136,37.456L176,161.4v31.352l-10.832-5.832
	C147.176,177.24,136,158.528,136,138.096z M224,304v-68.256c7.696,2.744,15.816,4.256,24,4.256c8.184,0,16.304-1.512,24-4.256V304
	H224z M274.296,217.368c-16.12,8.688-36.472,8.688-52.584,0l-29.704-16v-31.96l37.256,18.648l0,0
	c5.784,2.888,12.256,4.424,18.736,4.424c6.464,0,12.944-1.528,18.744-4.424L304,169.408v31.96L274.296,217.368z M313.696,146.656
	l-54.112,27.088c-7.176,3.576-16.016,3.576-23.168,0l-54.12-27.088C173.48,142.24,168,133.376,168,123.512V89.88
	C168,75.608,179.608,64,193.88,64h108.24C316.392,64,328,75.608,328,89.88v33.632C328,133.376,322.52,142.24,313.696,146.656z
	 M80,232c0-8.824,7.176-16,16-16s16,7.176,16,16v1.88v0.008v43.208c0,0.04,0.008,0.08,0.008,0.12v2.776H80V232z M88,360v-64h16v64
	H88z M158.448,359.728l-29.936-79.824c-0.344-0.896-0.512-1.84-0.512-2.8v-43.208c0-3.048,1.696-5.792,4.424-7.16l37.816-18.904
	L208,228.168V304h-16c-13.232,0-24,10.768-24,24v48.496C164.016,371.504,160.752,365.888,158.448,359.728z M256,480h-16
	c-8.824,0-16-7.176-16-16h16v-16h-16v-24h16v-16h-16v-24h16v-16h-16c0-8.824,7.176-16,16-16h16c8.824,0,16,7.176,16,16h-16v16h16v24
	h-16v16h16v24h-16v16h16C272,472.824,264.824,480,256,480z M256,336h-16c-17.648,0-32,14.352-32,32v31.336
	c-8.624-1.216-16.744-4.312-24-8.808V328c0-4.416,3.592-8,8-8h112c4.408,0,8,3.584,8,8v62.528c-7.256,4.496-15.376,7.592-24,8.808
	V368C288,350.352,273.648,336,256,336z M337.552,359.728c-2.312,6.16-5.576,11.776-9.552,16.768V328c0-13.232-10.768-24-24-24h-16
	v-75.832l37.768-20.336l37.816,18.904c2.72,1.368,4.416,4.104,4.416,7.152v43.208c0,0.96-0.168,1.904-0.512,2.808L337.552,359.728z
	 M392,296h16v64h-16V296z"/>
<path d="M248,72c-22.056,0-40,17.944-40,40s17.944,40,40,40s40-17.944,40-40S270.056,72,248,72z M248,136c-13.232,0-24-10.768-24-24
	s10.768-24,24-24s24,10.768,24,24S261.232,136,248,136z"/>
<rect x="240" y="104" width="16" height="16"/>
<g>
</g>
<g>
</g>
<g>
</g>
<g>
</g>
<g>
</g>
<g>
</g>
<g>
</g>
<g>
</g>
<g>
</g>
<g>
</g>
<g>
</g>
<g>
</g>
<g>
</g>
<g>
</g>
<g>
</g>
</svg>
