<svg height="496pt" viewBox="0 0 496 496.23706" width="496pt" xmlns="http://www.w3.org/2000/svg"><g fill="#fcd770"><path d="m350.683594 201.660156c5.359375 2.5625 9.117187 8.082032 9.117187 14.402344 0 8.796875-7.199219 16-16 16-2.398437 0-4.640625-.5625-6.71875-1.519531-5.441406-2.480469-9.28125-8.082031-9.28125-14.480469 0-8.800781 7.203125-16 16-16 2.480469 0 4.800781.558594 6.882813 1.597656zm0 0"/><path d="m470.921875 241.179688c9.839844 2.960937 16.878906 12.082031 16.878906 22.882812 0 13.277344-10.71875 24-24 24-4.558593 0-8.796875-1.28125-12.398437-3.441406-6.960938-4.238282-11.601563-11.839844-11.601563-20.558594 0-13.28125 10.722657-24 24-24 2.480469 0 4.882813.398438 7.121094 1.117188zm0 0"/><path d="m179.082031 234.859375c7.601563 4 12.71875 12 12.71875 21.203125 0 13.277344-10.71875 24-24 24-5.4375 0-10.398437-1.839844-14.398437-4.882812-5.839844-4.320313-9.601563-11.277344-9.601563-19.117188 0-13.28125 10.722657-24 24-24 4.082031 0 7.921875 1.039062 11.28125 2.796875zm0 0"/><path d="m375.800781 80.0625v.152344c-.078125 8.726562-7.277343 15.847656-16 15.847656-8.796875 0-16-7.203125-16-16 0-2.5625.5625-4.882812 1.679688-7.042969 2.5625-5.277343 8.082031-8.957031 14.320312-8.957031 8.800781 0 16 7.199219 16 16zm0 0"/><path d="m79.800781 456.0625c8.800781 0 16 7.199219 16 16 0 2.160156-.398437 4.160156-1.199219 6.078125-2.398437 5.761719-8.160156 9.921875-14.800781 9.921875-8.796875 0-16-7.203125-16-16 0-3.203125.882813-6.160156 2.5625-8.640625 2.796875-4.402344 7.839844-7.359375 13.4375-7.359375zm0 0"/><path d="m239.480469 404.300781c.242187 1.199219.320312 2.480469.320312 3.761719 0 13.277344-10.71875 24-24 24-9.117187 0-17.039062-5.042969-21.117187-12.5625-1.839844-3.359375-2.882813-7.277344-2.882813-11.4375 0-13.28125 10.722657-24 24-24 12 0 21.921875 8.796875 23.679688 20.238281zm0 0"/><path d="m137.242188 95.660156c4.078124 4.25 6.558593 10 6.558593 16.402344 0 13.277344-10.71875 24-24 24-6.640625 0-12.558593-2.722656-16.878906-6.960938-4.398437-4.320312-7.121094-10.402343-7.121094-17.039062 0-13.28125 10.722657-24 24-24 6.882813 0 13.121094 2.878906 17.441407 7.597656zm0 0"/></g><path d="m360.144531 198.589844c9.511719-28.394532 9.730469-53.265625.066407-62.914063-5.992188-6.015625-16.800782-7.269531-24.800782-7.269531-29.871094 0-83.417968 18.664062-136.007812 71.261719-8.175782 8.175781-15.65625 16.730469-22.894532 25.753906-2.785156-.800781-5.664062-1.359375-8.707031-1.359375-17.648437 0-32 14.351562-32 32 0 8 3.058594 15.238281 7.929688 20.855469-17.136719 36.535156-20.761719 71.109375-8.328125 83.535156 5.992187 6.015625 16.800781 7.273437 24.800781 7.273437 29.863281 0 83.40625-18.664062 136.007813-71.265624 17.925781-17.917969 32.800781-36.992188 44.582031-56.703126.992187.128907 1.976562.304688 3.007812.304688 13.234375 0 24-10.769531 24-24 0-6.90625-2.976562-13.097656-7.65625-17.472656zm-192.34375 41.472656c8.824219 0 16 7.175781 16 16s-7.175781 16-16 16-16-7.175781-16-16 7.175781-16 16-16zm117.089844 45.085938c-49.144531 49.144531-97.878906 66.578124-124.695313 66.578124-8.898437 0-12.808593-1.90625-13.480468-2.578124-3.824219-3.824219-5.6875-27.6875 10.367187-63.0625 3.367188 1.199218 6.945313 1.976562 10.71875 1.976562 17.648438 0 32-14.351562 32-32 0-8.769531-3.550781-16.714844-9.277343-22.496094 6.40625-7.875 13.007812-15.402344 20.191406-22.59375 49.136718-49.144531 97.878906-66.574218 124.695312-66.574218 8.894532 0 12.808594 1.902343 13.480469 2.582031 2.375 2.367187 5.457031 17.914062-3.488281 45.242187-.535156-.035156-1.054688-.160156-1.601563-.160156-13.230469 0-24 10.765625-24 24 0 6.390625 2.554688 12.175781 6.640625 16.480469-11.015625 18.230469-24.863281 35.917969-41.550781 52.605469zm58.910156-61.085938c-4.414062 0-8-3.585938-8-8 0-4.417969 3.585938-8 8-8 4.417969 0 8 3.582031 8 8 0 4.414062-3.582031 8-8 8zm0 0"/><path d="m307.523438 307.78125c-7.800782 7.800781-16.015626 15.222656-24.417969 22.085938l10.113281 12.394531c8.824219-7.183594 17.4375-14.984375 25.617188-23.167969 15.957031-15.953125 30.023437-32.976562 41.796874-50.585938l-13.292968-8.886718c-11.203125 16.726562-24.601563 32.9375-39.816406 48.160156zm0 0"/><path d="m250.257812 353.238281 8.359376 13.640625c8.113281-4.960937 16.226562-10.488281 24.144531-16.425781l-9.609375-12.800781c-7.511719 5.640625-15.207032 10.890625-22.894532 15.585937zm0 0"/><path d="m383.203125 74.878906c-2.378906-10.746094-11.953125-18.816406-23.402344-18.816406-7.429687 0-14 3.460938-18.40625 8.789062-57.59375-2.589843-128.90625 31.21875-187.25 89.554688-86.925781 86.925781-115.636719 199.671875-64 251.3125 17.066407 17.0625 41.195313 25.847656 69.875 25.839844 9.886719 0 20.359375-1.113282 31.230469-3.226563 5.871094 7.105469 14.640625 11.730469 24.550781 11.730469 17.28125 0 31.304688-13.785156 31.890625-30.921875 32.972656-15.800781 65.300782-38.960937 93.765625-67.421875 86.929688-86.929688 115.640625-199.671875 64-251.3125-6.199219-6.203125-13.710937-11.359375-22.253906-15.527344zm-23.402344-2.816406c4.417969 0 8 3.582031 8 8 0 4.414062-3.582031 8-8 8-4.414062 0-8-3.585938-8-8 0-4.417969 3.585938-8 8-8zm-144 352c-8.824219 0-16-7.175781-16-16s7.175781-16 16-16 16 7.175781 16 16-7.175781 16-16 16zm114.34375-93.65625c-26.277343 26.277344-55.925781 47.78125-86.191406 62.765625-5.375-10.125-15.902344-17.109375-28.152344-17.109375-17.648437 0-32 14.351562-32 32 0 1.773438.25 3.488281.527344 5.191406-35.246094 5.992188-64.484375-.472656-82.871094-18.847656-45.40625-45.410156-16.695312-147.992188 64-228.6875 52.753907-52.753906 118.503907-85.273438 170.402344-85.058594.328125 12.953125 10.910156 23.402344 23.941406 23.402344 9.023438 0 16.800781-5.066406 20.90625-12.441406 5.0625 2.910156 9.605469 6.257812 13.4375 10.097656 45.410157 45.40625 16.699219 147.992188-64 228.6875zm0 0"/><path d="m219.816406 85.332031-8.03125-13.839843c-5.359375 3.113281-10.710937 6.410156-16.03125 9.863281l8.753906 13.410156c5.070313-3.3125 10.183594-6.464844 15.308594-9.433594zm0 0"/><path d="m328.441406 48.644531-1.28125-15.953125c-31.40625 2.539063-65.636718 12.867188-98.988281 29.882813l7.261719 14.246093c31.511718-16.0625 63.671875-25.808593 93.007812-28.175781zm0 0"/><path d="m480.800781 237.054688c26.777344-78.53125 16.921875-151.027344-27.0625-194.960938-29.578125-29.5625-70.863281-43.191406-117.082031-42.0234375-120.75.2382815-195.933594 7.3749995-302.496094 113.9335935l11.3125 11.3125c72.242188-72.238281 129.6875-96.816406 198.371094-105.09375-36.089844 14.308594-72.503906 36.132813-106.707031 65.015625-5.007813-3.25-10.933594-5.175781-17.335938-5.175781-17.648437 0-32 14.351562-32 32 0 6.101562 1.808594 11.757812 4.785157 16.613281-99.671876 111.824219-122.214844 253.578125-50.71875 325.007813 4.40625 4.417968 9.445312 8.53125 14.757812 12.464844-.488281 1.90625-.824219 3.863281-.824219 5.914062 0 13.230469 10.769531 24 24 24 7.273438 0 13.730469-3.320312 18.128907-8.449219 17.527343 5.695313 36.304687 8.625 55.96875 8.625 1.945312 0 3.917968-.136719 5.878906-.191406 130.59375-.457031 200.214844-12.851563 301.6875-114.320313l-11.3125-11.3125c-70.222656 70.222657-124.757813 95.941407-197.078125 105 46.007812-18.535156 91.992187-48.960937 132.574219-89.59375 27.808593-27.832031 51.050781-58.488281 69.289062-91.152343 2.832031.808593 5.769531 1.394531 8.863281 1.394531 17.648438 0 32-14.351562 32-32 0-11.386719-6.015625-21.335938-15-27.007812zm-361-140.992188c8.824219 0 16 7.175781 16 16s-7.175781 16-16 16-16-7.175781-16-16 7.175781-16 16-16zm-40 384c-4.414062 0-8-3.585938-8-8 0-4.417969 3.585938-8 8-8 4.417969 0 8 3.582031 8 8 0 4.414062-3.582031 8-8 8zm294.527344-105.5625c-83.039063 83.144531-193.078125 122.640625-270.589844 98.136719.007813-.191407.0625-.375.0625-.574219 0-13.234375-10.765625-24-24-24-5.359375 0-10.261719 1.824219-14.253906 4.804688-4.449219-3.335938-8.671875-6.796876-12.367187-10.484376-65.378907-65.328124-42.753907-197.203124 50.941406-302.59375 4.648437 2.640626 9.953125 4.273438 15.679687 4.273438 17.648438 0 32-14.351562 32-32 0-5.441406-1.488281-10.488281-3.894531-14.976562 59.382812-50.023438 125.351562-77.824219 183.039062-81 4.234376-.015626 8.503907-.023438 12.855469-.023438v-.273438c39.058594.375 73.601563 12.609376 98.625 37.617188 39.609375 39.582031 48.03125 106.085938 23.128907 178.832031-.59375-.035156-1.152344-.175781-1.753907-.175781-17.648437 0-32 14.351562-32 32 0 8.78125 3.570313 16.75 9.3125 22.535156-17.542969 31.480469-39.941406 61.039063-66.785156 87.902344zm89.472656-94.4375c-8.824219 0-16-7.175781-16-16s7.175781-16 16-16 16 7.175781 16 16-7.175781 16-16 16zm0 0"/></svg>