<svg height="496pt" viewBox="0 0 496 496" width="496pt" xmlns="http://www.w3.org/2000/svg"><path d="m388.640625 260.640625c2.238281 11.4375 3.359375 23.28125 3.359375 35.359375 0 106-86 192-192 192s-192-86-192-192 86-192 192-192c12.078125 0 23.921875 1.121094 35.359375 3.359375 25.761719 4.71875 49.761719 14.640625 70.800781 28.71875 42.398438 28.082031 72.878906 72.640625 82.480469 124.5625zm0 0" fill="#ffeaa7"/><path d="m312 200c0 8.835938-7.164062 16-16 16s-16-7.164062-16-16 7.164062-16 16-16 16 7.164062 16 16zm0 0" fill="#fcd770"/><path d="m192 312c0 8.835938-7.164062 16-16 16s-16-7.164062-16-16 7.164062-16 16-16 16 7.164062 16 16zm0 0" fill="#fcd770"/><path d="m112 200c0 8.835938-7.164062 16-16 16s-16-7.164062-16-16 7.164062-16 16-16 16 7.164062 16 16zm0 0" fill="#fcd770"/><path d="m488 136c0 14-2.238281 27.441406-6.480469 40h-81.519531c-4.398438 0-8.398438-1.761719-11.28125-4.71875-2.957031-2.882812-4.71875-6.882812-4.71875-11.28125 0-8.800781 7.199219-16 16-16h40c4.398438 0 8.398438-1.761719 11.28125-4.71875 2.957031-2.882812 4.71875-6.882812 4.71875-11.28125 0-8.800781-7.199219-16-16-16h-40c-4.398438 0-8.398438-1.761719-11.28125-4.71875-2.957031-2.882812-4.71875-6.882812-4.71875-11.28125 0-8.800781 7.199219-16 16-16h74.960938l.152343-.078125c8.246094 16.957031 12.886719 36 12.886719 56.078125zm0 0" fill="#b4dd7f"/><path d="m347.28125 44.71875c2.957031 2.882812 4.71875 6.882812 4.71875 11.28125 0 8.800781-7.199219 16-16 16h-24c-4.398438 0-8.398438 1.761719-11.28125 4.71875-2.957031 2.882812-4.71875 6.882812-4.71875 11.28125 0 8.800781 7.199219 16 16 16h24c4.398438 0 8.398438 1.761719 11.28125 4.71875 2.957031 2.882812 4.71875 6.882812 4.71875 11.28125 0 8.800781-7.199219 16-16 16h-29.847656v.078125c-21.039063-14.078125-45.039063-24-70.800782-28.71875v-.078125c6.167969-26.5625 20.402344-49.921875 40.160157-67.359375l.089843.078125h60.398438c4.398438 0 8.398438 1.761719 11.28125 4.71875zm0 0" fill="#b4dd7f"/><path d="m275.519531 39.921875c22.558594-19.84375 52.082031-31.921875 84.480469-31.921875 50.640625 0 94.320312 29.359375 115.121094 71.921875l-.160156.078125h-74.960938c-8.800781 0-16 7.199219-16 16 0 4.398438 1.761719 8.398438 4.71875 11.28125 2.882812 2.957031 6.882812 4.71875 11.28125 4.71875h40c8.800781 0 16 7.199219 16 16 0 4.398438-1.761719 8.398438-4.71875 11.28125-2.882812 2.957031-6.882812 4.71875-11.28125 4.71875h-40c-8.800781 0-16 7.199219-16 16 0 4.398438 1.761719 8.398438 4.71875 11.28125 2.882812 2.957031 6.882812 4.71875 11.28125 4.71875h81.519531c-13.839843 42.160156-49.046875 74.558594-92.808593 84.640625h-.078126c-9.601562-51.921875-40.082031-96.488281-82.488281-124.5625v-.078125h29.855469c8.800781 0 16-7.199219 16-16 0-4.398438-1.761719-8.398438-4.71875-11.28125-2.882812-2.957031-6.882812-4.71875-11.28125-4.71875h-24c-8.800781 0-16-7.199219-16-16 0-4.398438 1.761719-8.398438 4.71875-11.28125 2.882812-2.957031 6.882812-4.71875 11.28125-4.71875h24c8.800781 0 16-7.199219 16-16 0-4.398438-1.761719-8.398438-4.71875-11.28125-2.882812-2.957031-6.882812-4.71875-11.28125-4.71875h-60.398438zm0 0" fill="#69d6f4"/><g fill="#fcd770"><path d="m352 328c0 8.835938-7.164062 16-16 16s-16-7.164062-16-16 7.164062-16 16-16 16 7.164062 16 16zm0 0"/><path d="m304 416c0 8.835938-7.164062 16-16 16s-16-7.164062-16-16 7.164062-16 16-16 16 7.164062 16 16zm0 0"/><path d="m208 440c0 8.835938-7.164062 16-16 16s-16-7.164062-16-16 7.164062-16 16-16 16 7.164062 16 16zm0 0"/><path d="m120 392c0 8.835938-7.164062 16-16 16s-16-7.164062-16-16 7.164062-16 16-16 16 7.164062 16 16zm0 0"/><path d="m208 152c0 8.835938-7.164062 16-16 16s-16-7.164062-16-16 7.164062-16 16-16 16 7.164062 16 16zm0 0"/></g><path d="m200 352c-22.054688 0-40 17.945312-40 40h16c0-13.230469 10.769531-24 24-24s24 10.769531 24 24h16c0-22.054688-17.945312-40-40-40zm0 0"/><path d="m104 312c-13.230469 0-24-10.769531-24-24s10.769531-24 24-24v-16c-22.054688 0-40 17.945312-40 40s17.945312 40 40 40zm0 0"/><path d="m312 328c0 13.230469 10.769531 24 24 24s24-10.769531 24-24-10.769531-24-24-24-24 10.769531-24 24zm24-8c4.414062 0 8 3.585938 8 8s-3.585938 8-8 8-8-3.585938-8-8 3.585938-8 8-8zm0 0"/><path d="m192 176c13.230469 0 24-10.769531 24-24s-10.769531-24-24-24-24 10.769531-24 24 10.769531 24 24 24zm0-32c4.414062 0 8 3.585938 8 8s-3.585938 8-8 8-8-3.585938-8-8 3.585938-8 8-8zm0 0"/><path d="m296 224c13.230469 0 24-10.769531 24-24s-10.769531-24-24-24-24 10.769531-24 24 10.769531 24 24 24zm0-32c4.414062 0 8 3.585938 8 8s-3.585938 8-8 8-8-3.585938-8-8 3.585938-8 8-8zm0 0"/><path d="m104 368c-13.230469 0-24 10.769531-24 24s10.769531 24 24 24 24-10.769531 24-24-10.769531-24-24-24zm0 32c-4.414062 0-8-3.585938-8-8s3.585938-8 8-8 8 3.585938 8 8-3.585938 8-8 8zm0 0"/><path d="m296 280c0-17.648438-14.351562-32-32-32v16c8.824219 0 16 7.175781 16 16s-7.175781 16-16 16v16c17.648438 0 32-14.351562 32-32zm0 0"/><path d="m288 392c-13.230469 0-24 10.769531-24 24s10.769531 24 24 24 24-10.769531 24-24-10.769531-24-24-24zm0 32c-4.414062 0-8-3.585938-8-8s3.585938-8 8-8 8 3.585938 8 8-3.585938 8-8 8zm0 0"/><path d="m184 208c13.230469 0 24 10.769531 24 24s-10.769531 24-24 24v16c22.054688 0 40-17.945312 40-40s-17.945312-40-40-40-40 17.945312-40 40h16c0-13.230469 10.769531-24 24-24zm0 0"/><path d="m200 312c0-13.230469-10.769531-24-24-24s-24 10.769531-24 24 10.769531 24 24 24 24-10.769531 24-24zm-32 0c0-4.414062 3.585938-8 8-8s8 3.585938 8 8-3.585938 8-8 8-8-3.585938-8-8zm0 0"/><path d="m96 224c13.230469 0 24-10.769531 24-24s-10.769531-24-24-24-24 10.769531-24 24 10.769531 24 24 24zm0-32c4.414062 0 8 3.585938 8 8s-3.585938 8-8 8-8-3.585938-8-8 3.585938-8 8-8zm0 0"/><path d="m192 416c-13.230469 0-24 10.769531-24 24s10.769531 24 24 24 24-10.769531 24-24-10.769531-24-24-24zm0 32c-4.414062 0-8-3.585938-8-8s3.585938-8 8-8 8 3.585938 8 8-3.585938 8-8 8zm0 0"/><path d="m496 136c0-74.992188-61.007812-136-136-136-61.183594 0-113.710938 40.039062-130.441406 98.199219-9.65625-1.4375-19.519532-2.199219-29.558594-2.199219-110.28125 0-200 89.71875-200 200s89.71875 200 200 200 200-89.71875 200-200c0-10.039062-.761719-19.902344-2.199219-29.558594 58.160157-16.730468 98.199219-69.257812 98.199219-130.441406zm-20.328125 32h-75.671875c-4.414062 0-8-3.585938-8-8s3.585938-8 8-8h40c13.230469 0 24-10.769531 24-24s-10.769531-24-24-24h-40c-4.414062 0-8-3.585938-8-8s3.585938-8 8-8h69.910156c6.449219 14.710938 10.089844 30.929688 10.089844 48 0 11.054688-1.527344 21.785156-4.328125 32zm-197.398437-120h57.726562c4.414062 0 8 3.585938 8 8s-3.585938 8-8 8h-24c-13.230469 0-24 10.769531-24 24s10.769531 24 24 24h24c4.414062 0 8 3.585938 8 8s-3.585938 8-8 8h-27.6875c-19.039062-12.320312-40.289062-21.480469-63.015625-26.761719 6.277344-20.902343 17.792969-39.101562 32.976563-53.238281zm-78.273438 432c-101.464844 0-184-82.535156-184-184s82.535156-184 184-184 184 82.535156 184 184-82.535156 184-184 184zm194.761719-229.296875c-9.824219-42.253906-33.066407-79.398437-64.992188-106.703125h6.230469c13.230469 0 24-10.769531 24-24s-10.769531-24-24-24h-24c-4.414062 0-8-3.585938-8-8s3.585938-8 8-8h24c13.230469 0 24-10.769531 24-24s-10.769531-24-24-24h-36c17.726562-10.207031 38.238281-16 60-16 42.632812 0 80.039062 22.40625 101.335938 56h-61.335938c-13.230469 0-24 10.769531-24 24s10.769531 24 24 24h40c4.414062 0 8 3.585938 8 8s-3.585938 8-8 8h-40c-13.230469 0-24 10.769531-24 24s10.769531 24 24 24h70.039062c-13.726562 31.648438-40.792968 56.34375-75.277343 66.703125zm0 0"/></svg>