<svg height="486.488pt" viewBox="0 0 486.488 486.488" width="486.488pt" xmlns="http://www.w3.org/2000/svg"><path d="m467.246094 147.238281c0 22.09375-17.90625 40-40 40-22.089844 0-40-17.90625-40-40 0-22.089843 17.910156-40 40-40 22.09375 0 40 17.910157 40 40zm0 0" fill="#ffeaa7"/><path d="m83.246094 355.238281c0 22.09375-17.90625 40-40 40-22.089844 0-40-17.90625-40-40 0-22.089843 17.910156-40 40-40 22.09375 0 40 17.910157 40 40zm0 0" fill="#ffeaa7"/><path d="m240.367188 298.121094c1.839843 2.640625 2.878906 5.757812 2.878906 9.117187 0 8.800781-7.199219 16-16 16-8.796875 0-16-7.199219-16-16 0-.078125 0-.160156 0-.160156.082031-8.71875 7.28125-15.839844 16-15.839844 5.441406 0 10.242187 2.722657 13.121094 6.882813zm0 0" fill="#ff826e"/><path d="m59.246094 211.238281c0 8.839844-7.160156 16-16 16-8.835938 0-16-7.160156-16-16 0-8.835937 7.164062-16 16-16 8.839844 0 16 7.164063 16 16zm0 0" fill="#ffc729"/><path d="m339.246094 91.238281c4.640625 0 8.800781 2 11.761718 5.203125 2.640626 2.796875 4.238282 6.636719 4.238282 10.796875 0 8.800781-7.199219 16-16 16-3.519532 0-6.71875-1.117187-9.359375-3.039062-4-2.878907-6.640625-7.679688-6.640625-12.960938 0-8.796875 7.203125-16 16-16zm0 0" fill="#ff826e"/><path d="m483.246094 443.238281c0 22.09375-17.90625 40-40 40-22.089844 0-40-17.90625-40-40 0-22.089843 17.910156-40 40-40 22.09375 0 40 17.910157 40 40zm0 0" fill="#ffc729"/><path d="m233.488281 195.960938c1.121094 2.160156 1.757813 4.640624 1.757813 7.277343 0 8.800781-7.199219 16-16 16-3.519532 0-6.796875-1.117187-9.4375-3.039062-4-2.960938-6.5625-7.679688-6.5625-12.960938 0-8.796875 7.203125-16 16-16 6.152344 0 11.601562 3.523438 14.242187 8.722657zm0 0" fill="#fcd770"/><path d="m147.246094 299.238281c0 8.839844-7.160156 16-16 16-8.835938 0-16-7.160156-16-16 0-8.835937 7.164062-16 16-16 8.839844 0 16 7.164063 16 16zm0 0" fill="#fcd770"/><path d="m83.246094 43.238281c0 22.09375-17.90625 40-40 40-22.089844 0-40-17.90625-40-40 0-22.089843 17.910156-40 40-40 22.09375 0 40 17.910157 40 40zm0 0" fill="#fcd770"/><g fill="#ffeaa7"><path d="m270.929688 403.71875c7.039062 1.601562 12.316406 8 12.316406 15.519531 0 8.242188-6.398438 15.121094-14.476563 15.921875-.480469.078125-.960937.078125-1.523437.078125-8.796875 0-16-7.199219-16-16 0-8.796875 7.203125-16 16-16 1.28125 0 2.480468.160157 3.683594.480469zm0 0"/><path d="m435.246094 291.238281c0 8.839844-7.160156 16-16 16-8.835938 0-16-7.160156-16-16 0-8.835937 7.164062-16 16-16 8.839844 0 16 7.164063 16 16zm0 0"/><path d="m203.246094 131.238281c0 8.839844-7.160156 16-16 16-8.835938 0-16-7.160156-16-16 0-8.835937 7.164062-16 16-16 8.839844 0 16 7.164063 16 16zm0 0"/></g><path d="m451.246094 403.238281h-16c0 17.648438-14.351563 32-32 32v16c17.648437 0 32 14.355469 32 32h16c0-17.644531 14.355468-32 32-32v-16c-17.644532 0-32-14.351562-32-32zm-8 53.523438c-3.558594-5.363281-8.15625-9.960938-13.519532-13.523438 5.363282-3.558593 9.960938-8.160156 13.519532-13.519531 3.5625 5.359375 8.160156 9.960938 13.523437 13.519531-5.363281 3.5625-9.960937 8.160157-13.523437 13.523438zm0 0"/><path d="m35.246094 83.238281h16c0-17.644531 14.355468-32 32-32v-16c-17.644532 0-32-14.351562-32-32h-16c0 17.648438-14.351563 32-32 32v16c17.648437 0 32 14.355469 32 32zm8-53.519531c3.5625 5.359375 8.160156 9.960938 13.523437 13.519531-5.363281 3.5625-9.960937 8.160157-13.523437 13.523438-3.558594-5.363281-8.15625-9.960938-13.519532-13.523438 5.363282-3.558593 9.960938-8.160156 13.519532-13.519531zm0 0"/><path d="m387.246094 139.238281v16c17.648437 0 32 14.355469 32 32h16c0-17.644531 14.355468-32 32-32v-16c-17.644532 0-32-14.351562-32-32h-16c0 17.648438-14.351563 32-32 32zm40-5.519531c3.5625 5.359375 8.160156 9.960938 13.523437 13.519531-5.363281 3.5625-9.960937 8.160157-13.523437 13.523438-3.558594-5.363281-8.15625-9.960938-13.519532-13.523438 5.363282-3.558593 9.960938-8.160156 13.519532-13.519531zm0 0"/><path d="m83.246094 347.238281c-17.644532 0-32-14.351562-32-32h-16c0 17.648438-14.351563 32-32 32v16c17.648437 0 32 14.355469 32 32h16c0-17.644531 14.355468-32 32-32zm-40 21.523438c-3.558594-5.363281-8.15625-9.960938-13.519532-13.523438 5.363282-3.558593 9.960938-8.160156 13.519532-13.519531 3.5625 5.359375 8.160156 9.960938 13.523437 13.519531-5.363281 3.5625-9.960937 8.160157-13.523437 13.523438zm0 0"/><path d="m67.246094 75.238281c0 57.347657 46.65625 104 104 104v-16c-48.519532 0-88-39.476562-88-88zm0 0"/><path d="m147.078125 248.894531-11.308594-11.308593c-34.3125 34.308593-90.144531 34.308593-124.457031 0l-11.3125 11.308593c20.273438 20.28125 46.902344 30.417969 73.535156 30.417969 26.632813 0 53.273438-10.136719 73.542969-30.417969zm0 0"/><path d="m75.246094 403.238281v16c57.347656 0 104-46.652343 104-104h-16c0 48.523438-39.476563 88-88 88zm0 0"/><path d="m419.246094 411.238281c0-57.34375-46.652344-104-104-104v16c48.523437 0 88 39.480469 88 88zm0 0"/><path d="m486.488281 237.585938c-40.542969-40.554688-106.527343-40.554688-147.082031 0l11.3125 11.308593c34.3125-34.308593 90.144531-34.308593 124.457031 0zm0 0"/><path d="m323.246094 171.238281c0-14.328125 3.648437-28.222656 10.242187-40.773437 1.855469.464844 3.769531.773437 5.757813.773437 13.234375 0 24-10.765625 24-24 0-3.046875-.621094-5.941406-1.671875-8.621093 14.640625-10.066407 31.664062-15.378907 49.671875-15.378907v-16c-21.550782 0-42.652344 6.839844-60.15625 19.25-3.503906-2.007812-7.515625-3.25-11.84375-3.25-13.230469 0-24 10.769531-24 24 0 5.3125 1.792968 10.175781 4.722656 14.160157-8.328125 15.234374-12.722656 32.320312-12.722656 49.839843zm16-72c4.417968 0 8 3.59375 8 8 0 4.410157-3.582032 8-8 8-4.414063 0-8-3.589843-8-8 0-4.40625 3.585937-8 8-8zm0 0"/><path d="m248.902344 135.761719c-16.621094-16.625-25.773438-38.722657-25.773438-62.226563s9.152344-45.605468 25.773438-62.222656l-11.308594-11.3125c-19.640625 19.640625-30.464844 45.761719-30.464844 73.535156 0 27.777344 10.824219 53.898438 30.464844 73.535156zm0 0"/><path d="m43.246094 187.238281c-13.230469 0-24 10.769531-24 24 0 13.234375 10.769531 24 24 24 13.234375 0 24-10.765625 24-24 0-13.230469-10.765625-24-24-24zm0 32c-4.414063 0-8-3.589843-8-8 0-4.40625 3.585937-8 8-8 4.417968 0 8 3.59375 8 8 0 4.410157-3.582032 8-8 8zm0 0"/><path d="m187.246094 155.238281c13.234375 0 24-10.765625 24-24 0-13.230469-10.765625-24-24-24-13.230469 0-24 10.769531-24 24 0 13.234375 10.769531 24 24 24zm0-32c4.417968 0 8 3.59375 8 8 0 4.410157-3.582032 8-8 8-4.414063 0-8-3.589843-8-8 0-4.40625 3.585937-8 8-8zm0 0"/><path d="m107.246094 299.238281c0 13.234375 10.769531 24 24 24 13.234375 0 24-10.765625 24-24 0-13.230469-10.765625-24-24-24-13.230469 0-24 10.769531-24 24zm32 0c0 4.410157-3.582032 8-8 8-4.414063 0-8-3.589843-8-8 0-4.40625 3.585937-8 8-8 4.417968 0 8 3.59375 8 8zm0 0"/><path d="m305.238281 181.238281c-14.757812-14.757812-41.765625-12.847656-70.03125 4.210938-4.246093-3.816407-9.808593-6.210938-15.960937-6.210938-13.230469 0-24 10.769531-24 24 0 4.777344 1.441406 9.203125 3.851562 12.945313-28.449218 33.175781-36.289062 70.617187-17.839844 89.054687 5.839844 5.851563 13.886719 9.027344 23.359376 9.664063 3.214843 9.464844 12.09375 16.335937 22.628906 16.335937 13.234375 0 24-10.765625 24-24 0-1.957031-.300782-3.839843-.742188-5.664062 10.082032-5.957031 19.921875-13.519531 28.734375-22.34375 15.96875-15.964844 27.671875-34.460938 32.960938-52.078125 5.800781-19.320313 3.320312-35.625-6.960938-45.914063zm-85.992187 14c4.417968 0 8 3.59375 8 8 0 4.410157-3.582032 8-8 8-4.414063 0-8-3.589843-8-8 0-4.40625 3.585937-8 8-8zm8 120c-4.414063 0-8-3.589843-8-8 0-4.40625 3.585937-8 8-8 4.417968 0 8 3.59375 8 8 0 4.410157-3.582032 8-8 8zm69.625-92.679687c-4.535156 15.128906-14.816406 31.234375-28.941406 45.363281-8.082032 8.078125-17.074219 14.949219-26.242188 20.269531-4.03125-3.0625-9-4.953125-14.441406-4.953125-10.300782 0-19.039063 6.5625-22.429688 15.699219-4.320312-.410156-8.90625-1.664062-12.25-5.015625-11.894531-11.898437-3.023437-42.195313 19.234375-67.984375 2.359375.773438 4.832031 1.300781 7.445313 1.300781 13.234375 0 24-10.765625 24-24 0-1.292969-.183594-2.542969-.382813-3.78125 21.382813-13.042969 41.898438-16.058593 51.066407-6.90625 5.832031 5.847657 6.910156 16.777344 2.941406 30.007813zm0 0"/><path d="m395.246094 291.238281c0 13.234375 10.769531 24 24 24 13.234375 0 24-10.765625 24-24 0-13.230469-10.765625-24-24-24-13.230469 0-24 10.769531-24 24zm32 0c0 4.410157-3.582032 8-8 8-4.414063 0-8-3.589843-8-8 0-4.40625 3.585937-8 8-8 4.417968 0 8 3.59375 8 8zm0 0"/><path d="m278.191406 398c-3.207031-22.089844-13.4375-42.753906-29.289062-58.59375l-11.308594 11.3125c12.367188 12.371094 20.71875 28.191406 24.085938 45.242188-10.542969 2.527343-18.433594 11.96875-18.433594 23.277343 0 10.121094 6.3125 18.746094 15.1875 22.273438-4.328125 12.59375-11.328125 24.144531-20.839844 33.664062l11.308594 11.3125c12.488281-12.488281 21.503906-27.878906 26.34375-44.71875 9.289062-3.3125 16-12.113281 16-22.53125 0-9.269531-5.34375-17.238281-13.054688-21.238281zm-10.945312 13.238281c4.417968 0 8 3.59375 8 8 0 4.410157-3.582032 8-8 8-4.414063 0-8-3.589843-8-8 0-4.40625 3.585937-8 8-8zm0 0"/></svg>