<?xml version="1.0" encoding="iso-8859-1"?>
<!-- Generator: Adobe Illustrator 19.0.0, SVG Export Plug-In . SVG Version: 6.00 Build 0)  -->
<svg version="1.1" id="Capa_1" xmlns="http://www.w3.org/2000/svg" xmlns:xlink="http://www.w3.org/1999/xlink" x="0px" y="0px"
	 viewBox="0 0 499.371 499.371" style="enable-background:new 0 0 499.371 499.371;" xml:space="preserve">
<path style="fill:#FCD770;" d="M488.403,401.678c0,9.04-16.976,15.16-19.504,23.312c-2.624,8.456,7.584,23.84,2.696,30.872
	c-4.936,7.104-22.096,1.664-28.88,6.832c-6.72,5.12-7.048,23.92-15.12,26.664c-7.784,2.648-18.568-12.272-27.2-12.272
	c-8.632,0-19.416,14.92-27.2,12.272c-8.072-2.744-8.4-21.544-15.12-26.664c-6.784-5.176-23.936,0.272-28.88-6.832
	c-4.888-7.04,5.32-22.416,2.696-30.872c-2.512-8.152-19.488-14.272-19.488-23.312s16.976-15.16,19.504-23.312
	c2.624-8.456-7.584-23.84-2.696-30.872c4.936-7.104,22.096-1.664,28.88-6.832c6.72-5.12,7.048-23.92,15.12-26.664
	c7.784-2.648,18.568,12.272,27.2,12.272c8.632,0,19.416-14.92,27.2-12.272c8.072,2.744,8.4,21.544,15.12,26.664
	c6.784,5.176,23.936-0.272,28.88,6.832c4.888,7.04-5.32,22.416-2.696,30.872C471.427,386.518,488.403,392.638,488.403,401.678z"/>
<circle style="fill:#FEA82F;" cx="400.403" cy="401.678" r="40"/>
<circle style="fill:#EABD8C;" cx="64.403" cy="65.678" r="56"/>
<path style="fill:#D3A06C;" d="M64.403,9.678c-4.12,0-8.128,0.472-12,1.32c25.152,5.496,44,27.872,44,54.68s-18.848,49.184-44,54.68
	c3.872,0.848,7.88,1.32,12,1.32c30.928,0,56-25.072,56-56S95.331,9.678,64.403,9.678z"/>
<path style="fill:#AFB8C9;" d="M64.403,121.678c8.368,0,16.28-1.888,23.408-5.176c-2.376-10.76-11.936-18.824-23.408-18.824
	s-21.032,8.064-23.408,18.824C48.123,119.79,56.035,121.678,64.403,121.678z"/>
<path style="fill:#8C95A4;" d="M64.403,121.678c8.368,0,16.28-1.888,23.408-5.176c-1.064-4.808-3.616-9.024-7.072-12.28
	c-7.552,7.888-17.256,13.704-28.32,16.128C56.275,121.214,60.283,121.678,64.403,121.678z"/>
<circle style="fill:#148CE0;" cx="224.403" cy="225.678" r="120"/>
<path style="fill:#1261C5;" d="M224.403,105.678c-5.44,0-10.752,0.488-16,1.192c58.688,7.84,104,57.976,104,118.808
	s-45.312,110.968-104,118.808c5.248,0.704,10.56,1.192,16,1.192c66.272,0,120-53.728,120-120S290.675,105.678,224.403,105.678z"/>
<g>
	<path style="fill:#48C397;" d="M149.371,273.678h7.032c6.624,0,12-5.376,12-12c0-6.624,5.376-12,12-12s12-5.376,12-12v-8
		c0-6.624-5.376-12-12-12s-12-5.376-12-12v-8c0-6.624,5.376-12,12-12h16c6.624,0,12-5.376,12-12v-8.368
		c0-2.368-0.704-4.688-2.016-6.656l-13.096-19.64c-0.592-0.888-1.064-1.848-1.4-2.864l-7.488-22.472l-0.304-0.912
		c-46.416,16.576-79.696,60.8-79.696,112.912c0,11.496,1.712,22.568,4.728,33.088l3.272-1.088h11.032
		c3.184,0,6.232,1.264,8.488,3.512l8.968,8.968C143.139,272.414,146.195,273.678,149.371,273.678z"/>
	<path style="fill:#48C397;" d="M299.891,318.91l-3.488-5.232l-11.312-11.312c-3-3-7.072-4.688-11.312-4.688h-9.376
		c-8.84,0-16-7.16-16-16v-8c0-8.84-7.16-16-16-16s-16,7.16-16,16v6.112c0,6.064-3.424,11.6-8.848,14.312l-14.312,7.152
		c-5.416,2.712-8.84,8.256-8.84,14.312v22.112v1.024c12.528,4.44,25.952,6.976,40,6.976
		C253.019,345.678,279.267,335.622,299.891,318.91z"/>
</g>
<path style="fill:#0FA196;" d="M224.403,345.678c28.616,0,54.864-10.056,75.488-26.768l-3.488-5.232l-11.312-11.312
	c-0.104-0.104-0.24-0.184-0.352-0.288c-18.784,22.624-45.664,38.288-76.264,42.4C213.699,345.19,218.987,345.678,224.403,345.678z"
	/>
<path style="fill:#48C397;" d="M260.235,111.126l-3.832,2.552l-12.744,8.496c-7.032,4.688-11.256,12.584-11.256,21.032v1.36
	c0,10.336,6.296,19.632,15.888,23.472l8.216,3.288c9.6,3.84,15.888,13.136,15.888,23.472v20.416c0,6.704,2.664,13.136,7.408,17.872
	l9.192,9.192c4.744,4.736,11.176,7.4,17.88,7.4c8.456,0,16.344,4.224,21.032,11.256l7.264,10.904
	c5.936-14.216,9.232-29.8,9.232-46.16C344.403,171.886,309.003,126.366,260.235,111.126z"/>
<path style="fill:#0FA196;" d="M260.235,111.126l-3.832,2.552l-8.592,5.728c38.36,19.992,64.592,60.008,64.592,106.272
	c0,8.36-0.928,16.496-2.56,24.368c7.288,0.872,13.936,4.696,18.064,10.888l7.264,10.904c5.936-14.216,9.232-29.8,9.232-46.16
	C344.403,171.886,309.003,126.366,260.235,111.126z"/>
<path d="M483.267,382.382c-2.328-1.856-6.224-4.976-6.728-6.384c-0.504-1.632,0.984-6.904,1.872-10.056
	c2.136-7.552,4.544-16.12-0.24-23.016c-4.984-7.176-14.168-7.424-21.552-7.616c-2.92-0.08-7.824-0.208-9.024-1
	c-1.184-1.048-2.832-5.96-3.824-8.896c-2.552-7.6-5.448-16.216-13.584-18.992c-8.08-2.744-15.536,2.632-21.544,6.944
	c-2.496,1.8-6.68,4.816-8.216,4.896c-1.568-0.088-5.752-3.104-8.248-4.896c-6-4.32-13.464-9.704-21.552-6.944
	c-8.136,2.776-11.032,11.392-13.584,18.992c-0.992,2.936-2.64,7.848-3.784,8.864c-1.24,0.824-6.144,0.952-9.064,1.032
	c-7.384,0.192-16.568,0.44-21.552,7.616c-4.792,6.896-2.376,15.464-0.24,23.016c0.888,3.152,2.376,8.424,1.872,10.048
	c-0.504,1.416-4.4,4.528-6.728,6.392c-5.856,4.672-13.144,10.488-13.144,19.296s7.288,14.624,13.136,19.296
	c2.328,1.856,6.224,4.976,6.728,6.384c0.504,1.632-0.984,6.904-1.872,10.056c-2.136,7.552-4.544,16.12,0.24,23.016
	c4.984,7.176,14.168,7.424,21.552,7.616c2.92,0.08,7.824,0.208,9.024,1c1.184,1.048,2.832,5.96,3.824,8.896
	c2.552,7.6,5.448,16.216,13.584,18.992c1.528,0.52,3.032,0.752,4.512,0.752c6.336,0,12.168-4.192,17.032-7.696
	c2.496-1.8,6.68-4.816,8.216-4.896c1.568,0.088,5.752,3.104,8.248,4.896c6.008,4.32,13.472,9.72,21.552,6.944
	c8.136-2.776,11.032-11.392,13.584-18.992c0.992-2.936,2.64-7.848,3.784-8.864c1.24-0.824,6.144-0.952,9.064-1.032
	c7.384-0.192,16.568-0.44,21.552-7.616c4.792-6.896,2.376-15.464,0.24-23.016c-0.888-3.152-2.376-8.424-1.872-10.048
	c0.504-1.416,4.4-4.528,6.728-6.392c5.856-4.672,13.144-10.488,13.144-19.296S489.115,387.054,483.267,382.382z M473.275,408.478
	c-4.992,3.992-10.152,8.12-12.016,14.152c-1.912,6.16-0.048,12.752,1.752,19.136c0.872,3.096,2.336,8.28,2.288,9.256
	c-1.24,0.832-6.168,0.96-9.104,1.04c-6.168,0.168-13.16,0.352-18.32,4.288c-5.008,3.816-7.176,10.264-9.272,16.504
	c-0.904,2.696-2.344,7-3.536,8.656c-1.768-0.68-5.024-3.032-7.08-4.504c-5.152-3.704-10.992-7.904-17.576-7.904
	s-12.424,4.2-17.576,7.904c-2.048,1.48-5.312,3.832-7.08,4.504c-1.192-1.656-2.64-5.96-3.536-8.656
	c-2.096-6.24-4.264-12.696-9.272-16.504c-5.168-3.936-12.152-4.128-18.32-4.288c-2.944-0.08-7.864-0.208-8.68-0.472
	c-0.472-1.544,0.992-6.736,1.864-9.832c1.8-6.384,3.664-12.976,1.752-19.136c-1.864-6.032-7.032-10.16-12.016-14.152
	c-2.352-1.88-6.744-5.384-7.136-6.664c0.392-1.544,4.784-5.048,7.136-6.928c4.992-3.992,10.152-8.12,12.016-14.152
	c1.912-6.16,0.048-12.752-1.752-19.136c-0.872-3.096-2.336-8.28-2.288-9.256c1.24-0.832,6.168-0.96,9.104-1.04
	c6.168-0.168,13.16-0.352,18.32-4.288c5.008-3.816,7.176-10.264,9.272-16.504c0.904-2.696,2.344-7,3.536-8.656
	c1.768,0.68,5.024,3.032,7.08,4.504c5.152,3.704,10.992,7.904,17.576,7.904s12.424-4.2,17.576-7.904
	c2.048-1.48,5.312-3.832,7.08-4.504c1.192,1.656,2.64,5.96,3.536,8.656c2.096,6.24,4.264,12.696,9.272,16.504
	c5.168,3.936,12.152,4.128,18.32,4.288c2.944,0.08,7.864,0.208,8.68,0.472c0.472,1.544-0.992,6.736-1.864,9.832
	c-1.8,6.384-3.664,12.976-1.752,19.136c1.864,6.032,7.032,10.16,12.016,14.152c2.296,1.832,6.496,5.184,7.096,6.8
	C479.779,403.286,475.571,406.646,473.275,408.478z"/>
<path d="M400.403,353.678c-9.416,0-18.56,2.76-26.456,7.984l8.832,13.344c5.272-3.488,11.36-5.328,17.624-5.328
	c17.648,0,32,14.352,32,32c0,6.264-1.84,12.352-5.328,17.616l13.344,8.832c5.224-7.888,7.984-17.032,7.984-26.448
	C448.403,375.206,426.875,353.678,400.403,353.678z"/>
<path d="M400.403,433.678c-17.648,0-32-14.352-32-32c0-6.264,1.84-12.352,5.328-17.616l-13.344-8.832
	c-5.224,7.888-7.984,17.032-7.984,26.448c0,26.472,21.528,48,48,48c9.416,0,18.56-2.76,26.456-7.984l-8.832-13.344
	C412.755,431.838,406.667,433.678,400.403,433.678z"/>
<path d="M128.403,65.678c0-35.288-28.712-64-64-64s-64,28.712-64,64s28.712,64,64,64S128.403,100.966,128.403,65.678z
	 M51.731,111.926c2.976-3.856,7.624-6.248,12.672-6.248s9.696,2.392,12.672,6.248c-4.048,1.112-8.28,1.752-12.672,1.752
	S55.779,113.038,51.731,111.926z M91.691,105.118c-5.72-9.408-15.976-15.44-27.288-15.44s-21.568,6.032-27.288,15.44
	c-12.496-8.672-20.712-23.104-20.712-39.44c0-23.736,17.336-43.448,40-47.28v7.28h16v-7.28c22.664,3.824,40,23.536,40,47.28
	C112.403,82.014,104.187,96.446,91.691,105.118z"/>
<rect x="24.403" y="57.678" width="16" height="16"/>
<rect x="80.403" y="49.678" width="16" height="16"/>
<rect x="224.403" y="1.678" width="48" height="16"/>
<polygon points="21.355,201.318 34.619,215.206 46.187,204.15 11.075,167.414 0.003,230.254 15.763,233.022 "/>
<rect x="4.049" y="267.362" transform="matrix(-0.9848 0.1738 -0.1738 -0.9848 74.5536 576.1957)" width="16" height="48.001"/>
<rect x="32.577" y="345.673" transform="matrix(-0.866 0.5001 -0.5001 -0.866 260.5833 669.5016)" width="16" height="47.993"/>
<rect x="86.149" y="409.541" transform="matrix(-0.6429 0.766 -0.766 -0.6429 486.7557 640.1402)" width="16.001" height="48.002"/>
<rect x="158.291" y="451.249" transform="matrix(-0.342 0.9397 -0.9397 -0.342 669.7483 481.5236)" width="15.992" height="48"/>
<rect x="224.403" y="481.678" width="48" height="16"/>
<polygon points="478.475,218.446 459.563,210.326 453.243,225.03 499.371,244.83 488.467,182.982 472.715,185.75 "/>
<rect x="448.24" y="105.69" transform="matrix(-0.866 0.5 -0.5 -0.866 916.1984 13.8783)" width="16" height="47.999"/>
<rect x="394.652" y="41.867" transform="matrix(-0.6428 0.766 -0.766 -0.6428 711.9387 -200.2336)" width="16" height="47.999"/>
<rect x="322.504" y="0.169" transform="matrix(-0.342 0.9397 -0.9397 -0.342 466.2426 -278.136)" width="15.992" height="48"/>
<path d="M352.403,225.678c0-70.576-57.424-128-128-128s-128,57.424-128,128s57.424,128,128,128S352.403,296.254,352.403,225.678z
	 M192.403,332.958v-17.392c0-3.048,1.696-5.792,4.424-7.16l14.312-7.16c8.184-4.08,13.264-12.312,13.264-21.456v-6.112
	c0-4.416,3.592-8,8-8s8,3.584,8,8v8c0,13.232,10.768,24,24,24h9.368c2.136,0,4.152,0.832,5.664,2.344l9.24,9.24
	c-18.216,12.816-40.352,20.416-64.272,20.416C213.283,337.678,202.555,335.998,192.403,332.958z M336.403,225.678
	c0,9.792-1.392,19.232-3.76,28.288c-6.288-7.728-15.68-12.288-25.768-12.288c-4.616,0-8.96-1.8-12.216-5.056l-9.192-9.192
	c-3.264-3.264-5.064-7.608-5.064-12.224V194.79c0-13.68-8.208-25.816-20.92-30.896l-8.216-3.288
	c-6.6-2.64-10.864-8.936-10.864-16.04v-1.36c0-5.792,2.872-11.168,7.696-14.376l12.744-8.496l-0.4-0.6
	C304.547,134.79,336.403,176.542,336.403,225.678z M179.179,123.302l5.128,15.376c0.56,1.68,1.344,3.288,2.336,4.776l13.088,19.632
	c0.44,0.664,0.672,1.432,0.672,2.224v8.368c0,2.208-1.792,4-4,4h-16c-11.024,0-20,8.976-20,20v8c0,11.024,8.976,20,20,20
	c2.208,0,4,1.792,4,4v8c0,2.208-1.792,4-4,4c-11.024,0-20,8.976-20,20c0,2.2-1.792,4-4,4h-7.032c-1.048,0-2.08-0.432-2.832-1.168
	l-8.968-8.968c-3.72-3.728-8.872-5.864-14.136-5.864h-8.376c-1.696-7.744-2.656-15.76-2.656-24
	C112.403,180.022,139.899,140.718,179.179,123.302z M119.915,265.678h3.52c1.048,0,2.08,0.432,2.832,1.168l8.968,8.968
	c3.72,3.728,8.872,5.864,14.136,5.864h7.032c11.024,0,20-8.968,20-20c0-2.2,1.792-4,4-4c11.024,0,20-8.976,20-20v-8
	c0-11.024-8.976-20-20-20c-2.208,0-4-1.792-4-4v-8c0-2.208,1.792-4,4-4h16c11.024,0,20-8.976,20-20v-8.368
	c0-3.952-1.16-7.792-3.36-11.096l-13.088-19.632c-0.2-0.304-0.352-0.624-0.472-0.96l-5.232-15.704
	c9.608-2.696,19.696-4.24,30.152-4.24c5.352,0,10.576,0.504,15.728,1.232l-0.904,0.608c-9.288,6.184-14.824,16.536-14.824,27.688
	v1.36c0,13.68,8.208,25.816,20.92,30.896l8.216,3.288c6.6,2.64,10.864,8.936,10.864,16.04v20.416c0,8.888,3.464,17.248,9.744,23.528
	l9.192,9.192c6.288,6.288,14.648,9.752,23.536,9.752c5.792,0,11.168,2.872,14.376,7.696l4.76,7.136
	c-6.056,13.08-14.536,24.784-24.904,34.56l-10.36-10.36c-4.528-4.536-10.56-7.032-16.976-7.032h-9.368c-4.408,0-8-3.584-8-8v-8
	c0-13.232-10.768-24-24-24s-24,10.768-24,24v6.112c0,3.048-1.696,5.792-4.424,7.16l-14.312,7.16
	c-8.184,4.08-13.264,12.312-13.264,21.456v11.152C150.587,314.398,130.235,292.55,119.915,265.678z"/>
<g>
</g>
<g>
</g>
<g>
</g>
<g>
</g>
<g>
</g>
<g>
</g>
<g>
</g>
<g>
</g>
<g>
</g>
<g>
</g>
<g>
</g>
<g>
</g>
<g>
</g>
<g>
</g>
<g>
</g>
</svg>
