<?xml version="1.0" encoding="iso-8859-1"?>
<!-- Generator: Adobe Illustrator 19.0.0, SVG Export Plug-In . SVG Version: 6.00 Build 0)  -->
<svg version="1.1" id="Capa_1" xmlns="http://www.w3.org/2000/svg" xmlns:xlink="http://www.w3.org/1999/xlink" x="0px" y="0px"
	 viewBox="0 0 496 496" style="enable-background:new 0 0 496 496;" xml:space="preserve">
<rect x="80" y="240" style="fill:#ECECEC;" width="224" height="248"/>
<g>
	<rect x="80" y="240" style="fill:#B6C1CE;" width="224" height="24"/>
	<polygon style="fill:#B6C1CE;" points="448,488 304,488 304,304 448,352 	"/>
</g>
<path style="fill:#FCD770;" d="M312,240H72c-8.84,0-16-7.16-16-16l0,0c0-8.84,7.16-16,16-16h240c8.84,0,16,7.16,16,16l0,0
	C328,232.84,320.84,240,312,240z"/>
<path style="fill:#B6C1CE;" d="M247.832,431.576c-3.48-9.32-12.512-15.576-22.464-15.576H80v72h189L247.832,431.576z"/>
<path style="fill:#EABD8C;" d="M212.912,424H40c-8.84,0-16,7.16-16,16v48h224l-20.104-53.616
	C225.552,428.136,219.584,424,212.912,424z"/>
<g>
	<rect x="176" y="336" style="fill:#39C3FC;" width="32" height="32"/>
	<rect x="112" y="336" style="fill:#39C3FC;" width="32" height="32"/>
	<rect x="240" y="336" style="fill:#39C3FC;" width="32" height="32"/>
</g>
<polygon style="fill:#798699;" points="144,8 152,40 232,40 240,8 "/>
<path style="fill:#39C3FC;" d="M80,208v-24c0-40.744,21.752-76.4,54.28-96L248,86.984c33.48,19.368,56,55.56,56,97.016v24H80z"/>
<path style="fill:#148CE0;" d="M80.296,176h223.416c-0.792-11.208-3.28-21.944-7.128-32H87.416
	C83.568,154.056,81.088,164.792,80.296,176z"/>
<path style="fill:#ECECEC;" d="M248,208V96c0-17.672-14.328-32-32-32l0,0h-48l0,0c-17.672,0-32,14.328-32,32v112H248z"/>
<rect x="168" y="40" style="fill:#AFB8C9;" width="48" height="168"/>
<path style="fill:#8C95A4;" d="M448,375.752V352l-144-48v24l141.136,47.048C446.072,375.36,447.032,375.592,448,375.752z"/>
<path style="fill:#EABD8C;" d="M459.288,315.76L304,264v40l141.136,47.048c1.896,0.632,3.88,0.952,5.88,0.952h2.384
	c10.272,0,18.6-8.328,18.6-18.6C472,325.4,466.88,318.296,459.288,315.76z"/>
<rect x="336" y="376" style="fill:#ECECEC;" width="80" height="112"/>
<path d="M168,376h48v-48h-48V376z M184,344h16v16h-16V344z"/>
<path d="M104,376h48v-48h-48V376z M120,344h16v16h-16V344z"/>
<path d="M232,376h48v-48h-48V376z M248,344h16v16h-16V344z"/>
<path d="M461.816,308.176L312,258.24V248c13.232,0,24-10.768,24-24s-10.768-24-24-24v-16c0-42.352-22.624-81.848-59.096-103.376
	C247.864,68.56,237.088,59.48,224,56.808V48h14.248l8-32H264V0H120v16h17.752l8,32H160v8.808
	c-13.024,2.656-23.664,11.704-28.728,23.68l-1.12,0.664C93.736,103.088,72,141.536,72,184v16c-13.232,0-24,10.768-24,24
	s10.768,24,24,24v168H40c-13.232,0-24,10.768-24,24v56h288h8h144V359.736c13.432-1.328,24-12.552,24-26.328
	C480,321.936,472.688,311.8,461.816,308.176z M256,102.056c11.784,9.232,21.328,20.864,28.152,33.944H256V102.056z M256,152h34.88
	c1.688,5.2,2.968,10.552,3.824,16H256V152z M256,184h40v16h-40V184z M280,216v16h-16v-16H280z M248,216v16h-16v-16H248z M240,96v104
	h-16V73.472C233.288,76.784,240,85.584,240,96z M158.248,32l-4-16h75.504l-4,16H158.248z M176,200v-16h32v16H176z M184,216v16h-16
	v-16H184z M208,80v32h-32V80H208z M176,64V48h32v16H176z M208,128v40h-32v-40H208z M200,216h16v16h-16V216z M144,96
	c0-10.416,6.712-19.216,16-22.528V200h-16V96z M136,216h16v16h-16V216z M128,102.064V136H99.8
	C106.584,122.944,116.064,111.344,128,102.064z M93.176,152H128v16H89.336C90.176,162.52,91.504,157.2,93.176,152z M88,184h40v16H88
	V184z M120,216v16h-16v-16H120z M64,224c0-4.408,3.592-8,8-8h16v16H72C67.592,232,64,228.408,64,224z M72,432h56v16H72V432z M32,440
	c0-4.416,3.592-8,8-8h16v16H32V440z M88,480H32v-16h56V480z M160,480h-56v-16h56V480z M144,448v-16h56v16H144z M176,480v-16h54.456
	l6,16H176z M216,448v-15.288c1.976,0.848,3.624,2.4,4.4,4.488l4.056,10.8H216z M296,280h-48v16h48v184h-42.456l-18.16-48.432
	C231.888,422.256,222.856,416,212.912,416H88V296h144v-16H88v-32h208V280z M296,232v-16h16c4.408,0,8,3.592,8,8s-3.592,8-8,8H296z
	 M408,480h-64v-96h64V480z M440,480h-16V368h-96v112h-16V315.096l128,42.664V480z M453.4,344h-2.384
	c-1.144,0-2.272-0.176-3.352-0.536L312,298.24v-23.144l144.752,48.248c4.336,1.448,7.248,5.488,7.248,10.064
	C464,339.248,459.248,344,453.4,344z"/>
<rect x="360" y="424" width="16" height="16"/>
<g>
</g>
<g>
</g>
<g>
</g>
<g>
</g>
<g>
</g>
<g>
</g>
<g>
</g>
<g>
</g>
<g>
</g>
<g>
</g>
<g>
</g>
<g>
</g>
<g>
</g>
<g>
</g>
<g>
</g>
</svg>
