<svg height="499pt" viewBox="-1 0 499 499.312" width="499pt" xmlns="http://www.w3.org/2000/svg"><path d="m409.117188 99.3125-24 24-88-88 24-24zm0 0" fill="#ccd1d9"/><path d="m289.113281 75.3125 24.003907-24.003906 55.996093 55.996094-24.003906 24.003906zm0 0" fill="#aab2bd"/><path d="m353.117188 139.3125-62.960938 51.519531c-5.519531-2.320312-11.601562-3.519531-18-3.519531-6.640625 0-12.960938 1.359375-18.71875 3.757812l-26.5625-62.796874 54.242188-60.960938zm0 0" fill="#ccd1d9"/><path d="m472.15625 251.3125v32h-200c26.480469 0 48-21.519531 48-48 0-5.601562-.960938-10.960938-2.71875-16h154.71875zm0 0" fill="#ffeaa7"/><path d="m456.15625 283.3125v32h-88v128h-64v-128h-112v128h-64v-128h-88v-32zm0 0" fill="#e6e9ed"/><path d="m488.15625 459.3125v32h-480v-32c0-8.800781 7.199219-16 16-16h448c8.800781 0 16 7.199219 16 16zm0 0" fill="#aab2bd"/><path d="m368.15625 315.3125h88v128h-88zm0 0" fill="#ffeaa7"/><path d="m317.4375 219.3125c1.757812 5.039062 2.71875 10.398438 2.71875 16 0 26.480469-21.519531 48-48 48s-48-21.519531-48-48c0-5.28125.878906-10.402344 2.480469-15.121094 1.839843-5.679687 4.726562-10.878906 8.480469-15.449218 4.878906-5.910157 11.191406-10.636719 18.320312-13.679688 5.757812-2.390625 12.078125-3.75 18.71875-3.75 6.398438 0 12.480469 1.199219 18 3.519531 12.640625 5.121094 22.71875 15.519531 27.28125 28.480469zm0 0" fill="#fcd770"/><path d="m288.15625 235.3125c0 8.835938-7.164062 16-16 16s-16-7.164062-16-16 7.164062-16 16-16 16 7.164062 16 16zm0 0" fill="#cf9e76"/><g fill="#ffeaa7"><path d="m192.15625 315.3125h112v128h-112zm0 0"/><path d="m40.15625 315.3125h88v128h-88zm0 0"/><path d="m224.15625 235.3125c0 26.480469 21.519531 48 48 48h-248v-64h200l2.480469.878906c-1.601563 4.71875-2.480469 9.839844-2.480469 15.121094zm0 0"/></g><path d="m40.15625 219.3125v-48c0-35.839844 13.121094-68.558594 34.800781-93.761719l157.199219 125.761719 2.960938 1.441406c-3.761719 4.558594-6.640626 9.765625-8.480469 15.445313l-2.480469-.886719zm0 0" fill="#ccd1d9"/><path d="m226.875 128.273438 26.5625 62.796874c-7.128906 3.042969-13.441406 7.769532-18.320312 13.683594l-2.960938-1.441406-157.199219-125.761719c2.238281-2.808593 4.808594-5.527343 7.359375-8.085937 26.078125-26 62.078125-42.152344 101.839844-42.152344zm0 0" fill="#e6e9ed"/><path d="m472.15625 435.3125h-8v-144h16v-80h-157.480469c-4.160156-8.726562-10.488281-16.207031-18.320312-21.738281l60.648437-49.664063-8.601562-8.597656 12.691406-12.6875 16 16 35.308594-35.3125-99.308594-99.3125-35.3125 35.3125 16 16-12.6875 12.6875-8.347656-8.34375-51.445313 57.832031-39.839843-94.175781h-5.304688c-83.816406 0-152 68.183594-152 152v40h-16v80h16v144h-8c-13.230469 0-24 10.765625-24 24v40h496v-40c0-13.234375-10.769531-24-24-24zm-96 0v-112h72v112zm88-208v16h-120v16h120v16h-152.886719c10.40625-10.175781 16.886719-24.335938 16.886719-40 0-2.71875-.265625-5.375-.640625-8zm-152 8c0 22.054688-17.945312 40-40 40s-40-17.945312-40-40 17.945312-40 40-40 40 17.945312 40 40zm-3.753906-200 12.691406-12.6875 76.6875 76.6875-12.6875 12.6875-4.691406-4.6875-67.308594-67.3125zm4.691406 27.3125 44.6875 44.6875-12.6875 12.6875-44.691406-44.6875zm-31.65625 16.34375 59.75 59.75-52.574219 43.074219c-5.210937-1.609375-10.730469-2.480469-16.457031-2.480469-4.914062 0-9.65625.703125-14.199219 1.894531l-21.746093-51.398437zm-38.210938 108.488281c-3.335937 2.023438-6.445312 4.375-9.277343 7.03125l-147.3125-117.847656c23.589843-24.296875 56.136719-39.847656 92.261719-41.234375zm-195.070312-16.144531c0-31.023438 10.519531-59.585938 28.070312-82.488281l147.707032 118.167969c-.832032 1.40625-1.59375 2.847656-2.296875 4.328124h-173.480469zm168.640625 56c-.375 2.625-.640625 5.28125-.640625 8 0 15.664062 6.480469 29.824219 16.886719 40h-200.886719v-16h168v-16h-168v-16zm231.359375 64v16h-88v128h-48v-128h-128v128h-48v-128h-88v-16zm-152 144h-96v-112h96zm-248-112h72v112h-72zm432 160h-464v-24c0-4.417969 3.582031-8 8-8h448c4.414062 0 8 3.582031 8 8zm0 0"/><path d="m272.15625 211.3125c-13.230469 0-24 10.765625-24 24 0 13.230469 10.769531 24 24 24s24-10.769531 24-24c0-13.234375-10.769531-24-24-24zm0 32c-4.417969 0-8-3.585938-8-8 0-4.417969 3.582031-8 8-8 4.414062 0 8 3.582031 8 8 0 4.414062-3.585938 8-8 8zm0 0"/><path d="m64.15625 179.3125h16v16h-16zm0 0"/><path d="m96.15625 179.3125h16v16h-16zm0 0"/><path d="m128.15625 179.3125h16v16h-16zm0 0"/><path d="m416.15625 403.3125h16v16h-16zm0 0"/><path d="m416.15625 371.3125h16v16h-16zm0 0"/><path d="m416.15625 339.3125h16v16h-16zm0 0"/><path d="m264.15625 403.3125h16v16h-16zm0 0"/><path d="m264.15625 371.3125h16v16h-16zm0 0"/><path d="m264.15625 339.3125h16v16h-16zm0 0"/><path d="m88.15625 403.3125h16v16h-16zm0 0"/><path d="m88.15625 371.3125h16v16h-16zm0 0"/><path d="m88.15625 339.3125h16v16h-16zm0 0"/></svg>