<svg height="496pt" viewBox="0 0 496 496" width="496pt" xmlns="http://www.w3.org/2000/svg"><path d="m147.761719 456.480469c7.039062 1.679687 12.238281 8 12.238281 15.519531 0 8.800781-7.199219 16-16 16s-16-7.199219-16-16 7.199219-16 16-16c1.28125 0 2.558594.160156 3.761719.480469zm0 0" fill="#ffc729"/><path d="m400.238281 458c2.320313-1.28125 4.960938-2 7.761719-2 8.800781 0 16 7.199219 16 16s-7.199219 16-16 16-16-7.199219-16-16c0-6 3.359375-11.199219 8.238281-14zm0 0" fill="#fcd770"/><path d="m434.800781 316.238281c3.199219 2.960938 5.199219 7.121094 5.199219 11.761719 0 8.800781-7.199219 16-16 16s-16-7.199219-16-16 7.199219-16 16-16c4.160156 0 8 1.601562 10.800781 4.238281zm0 0" fill="#ffc729"/><path d="m472 168c8.800781 0 16 7.199219 16 16s-7.199219 16-16 16c-.160156 0-.320312 0-.480469 0-8.558593-.238281-15.519531-7.359375-15.519531-16 0-8.558594 6.800781-15.601562 15.28125-16zm0 0" fill="#fcd770"/><path d="m411.601562 50.960938c-2.882812 3.117187-7.042968 5.039062-11.601562 5.039062-8.800781 0-16-7.199219-16-16s7.199219-16 16-16 16 7.199219 16 16c0 4.238281-1.601562 8.078125-4.398438 10.960938zm0 0" fill="#ffeaa7"/><path d="m248 72c8.800781 0 16 7.199219 16 16 0 3.761719-1.28125 7.199219-3.519531 9.921875-2.878907 3.679687-7.441407 6.078125-12.480469 6.078125-4.960938 0-9.359375-2.238281-12.320312-5.839844-2.320313-2.800781-3.679688-6.320312-3.679688-10.160156 0-8.800781 7.199219-16 16-16zm0 0" fill="#ffc729"/><path d="m368 168c8.800781 0 16 7.199219 16 16s-7.199219 16-16 16c-1.441406 0-2.878906-.160156-4.238281-.558594v-.082031c-6.800781-1.839844-11.761719-8-11.761719-15.359375 0-3.761719 1.28125-7.199219 3.519531-9.921875 2.878907-3.679687 7.441407-6.078125 12.480469-6.078125zm0 0" fill="#ffeaa7"/><path d="m335.761719 342c-2.320313 1.28125-4.960938 2-7.761719 2-8.800781 0-16-7.199219-16-16 0-.398438 0-.800781.078125-1.121094.5625-8.320312 7.523437-14.878906 15.921875-14.878906 1.441406 0 2.878906.160156 4.238281.558594v.082031c6.800781 1.839844 11.761719 8 11.761719 15.359375 0 6-3.359375 11.199219-8.238281 14zm0 0" fill="#ffc729"/><path d="m216 304c8.800781 0 16 7.199219 16 16 0 .398438 0 .800781-.078125 1.121094-.5625 8.320312-7.523437 14.878906-15.921875 14.878906-2.558594 0-4.960938-.558594-7.121094-1.679688-5.277344-2.640624-8.878906-8.082031-8.878906-14.320312 0-4.800781 2.160156-9.121094 5.519531-12.078125 2.800781-2.480469 6.480469-3.921875 10.480469-3.921875zm0 0" fill="#fcd770"/><path d="m113.601562 184.078125c4.320313.480469 8.160157 2.5625 10.71875 5.761719 2.320313 2.800781 3.679688 6.320312 3.679688 10.160156 0 4.800781-2.160156 9.121094-5.519531 12.078125-2.800781 2.402344-6.480469 3.921875-10.480469 3.921875-8.800781 0-16-7.199219-16-16 0-6.238281 3.601562-11.679688 8.878906-14.320312 2.160156-1.121094 4.5625-1.679688 7.121094-1.679688.558594 0 1.121094 0 1.601562.078125zm0 0" fill="#ffeaa7"/><path d="m126.398438 55.921875c-8.078126-.800781-14.398438-7.683594-14.398438-15.921875 0-8.800781 7.199219-16 16-16s16 7.199219 16 16-7.199219 16-16 16c-.558594 0-1.121094 0-1.601562-.078125zm0 0" fill="#fcd770"/><path d="m24 8c8.800781 0 16 7.199219 16 16 0 6.238281-3.601562 11.679688-8.878906 14.320312-2.160156 1.121094-4.5625 1.679688-7.121094 1.679688-8.800781 0-16-7.199219-16-16s7.199219-16 16-16zm0 0" fill="#ffeaa7"/><path d="m478.464844 161c-7.296875-57.945312-40.402344-96.03125-56.503906-111.390625 1.296874-2.953125 2.039062-6.195313 2.039062-9.609375 0-13.230469-10.769531-24-24-24s-24 10.769531-24 24 10.769531 24 24 24c3.976562 0 7.664062-1.0625 10.96875-2.777344 14.574219 13.882813 44.582031 48.320313 51.503906 100.777344-6.066406 2.640625-10.761718 7.734375-13 14.007812h-58.953125c-3.3125-9.289062-12.113281-16-22.527343-16-4.640626 0-8.9375 1.382813-12.609376 3.671876l-84.808593-67.847657c.867187-2.472656 1.425781-5.078125 1.425781-7.832031 0-13.230469-10.769531-24-24-24s-24 10.769531-24 24c0 2.871094.59375 5.59375 1.519531 8.144531l-101.214843 83.359375c-.679688-.40625-1.375-.800781-2.105469-1.144531l11.511719-115.128906c10.472656-2.574219 18.289062-11.972657 18.289062-23.230469 0-13.230469-10.769531-24-24-24s-24 10.769531-24 24c0 9.574219 5.671875 17.785156 13.800781 21.640625l-11.007812 110.046875-65.546875-131.070312c4.160156-4.320313 6.753906-10.160157 6.753906-16.617188 0-13.230469-10.769531-24-24-24s-24 10.769531-24 24 10.769531 24 24 24c.992188 0 1.945312-.175781 2.902344-.296875l67.839844 135.679687c-4.148438 4.320313-6.742188 10.160157-6.742188 16.617188 0 13.230469 10.769531 24 24 24 3.089844 0 6.023438-.632812 8.734375-1.703125l74.480469 85.933594c-1.992188 3.488281-3.214844 7.472656-3.214844 11.769531 0 6.457031 2.59375 12.296875 6.742188 16.609375l-55.742188 111.488281c-12.761719.535156-23 11.007813-23 23.902344 0 13.230469 10.769531 24 24 24 10.414062 0 19.214844-6.710938 22.527344-16h218.953125c3.3125 9.289062 12.113281 16 22.527343 16 13.230469 0 24-10.769531 24-24s-10.769531-24-24-24c-1.351562 0-2.664062.183594-3.960937.398438l-58.117187-104.605469c3.726562-4.234375 6.070312-9.722657 6.070312-15.792969 0-8.113281-4.070312-15.273438-10.246094-19.617188l27.925782-100.550781c9.671874-.6875 17.710937-7.046875 20.847656-15.832031h58.953125c2.304687 6.464844 7.230469 11.664062 13.566406 14.230469-4.125 50.28125-21.382813 84.273437-30.757813 99.335937-2.601562-.964844-5.367187-1.566406-8.289062-1.566406-13.230469 0-24 10.769531-24 24s10.769531 24 24 24 24-10.769531 24-24c0-4.40625-1.28125-8.480469-3.359375-12.039062 10.984375-16.960938 30.039063-53.753907 34.40625-109.144532 9.785156-3.03125 16.953125-12.046875 16.953125-22.816406 0-10.984375-7.457031-20.160156-17.535156-23zm-78.464844-113c-4.40625 0-8-3.59375-8-8s3.59375-8 8-8 8 3.59375 8 8-3.59375 8-8 8zm-241.542969 404.96875 54.632813-109.265625c.964844.121094 1.910156.296875 2.910156.296875 9.824219 0 18.265625-5.945312 21.976562-14.40625l67 4.789062c2.808594 10.121094 12.015626 17.617188 23.023438 17.617188 1.351562 0 2.664062-.183594 3.960938-.398438l58.109374 104.597657c-2 2.273437-3.566406 4.898437-4.597656 7.800781h-218.945312c-1.582032-4.433594-4.390625-8.230469-8.070313-11.03125zm57.542969-140.96875c4.40625 0 8 3.59375 8 8s-3.59375 8-8 8-8-3.59375-8-8 3.59375-8 8-8zm112 24c-4.40625 0-8-3.59375-8-8s3.59375-8 8-8 8 3.59375 8 8-3.59375 8-8 8zm-21.976562-17.59375-67-4.789062c-2.808594-10.121094-12.007813-17.617188-23.023438-17.617188-3.089844 0-6.023438.632812-8.734375 1.703125l-74.480469-85.933594c1.992188-3.488281 3.214844-7.472656 3.214844-11.769531 0-2.871094-.59375-5.59375-1.519531-8.152344l101.214843-83.351562c3.609376 2.175781 7.792969 3.503906 12.304688 3.503906 4.640625 0 8.9375-1.382812 12.609375-3.671875l84.804687 67.847656c-.855468 2.464844-1.414062 5.070313-1.414062 7.824219 0 8.113281 4.070312 15.273438 10.246094 19.617188l-27.925782 100.550781c-9.089843.648437-16.800781 6.273437-20.296874 14.238281zm-58.023438-238.40625c4.40625 0 8 3.59375 8 8s-3.59375 8-8 8-8-3.59375-8-8 3.59375-8 8-8zm-120-48c4.40625 0 8 3.59375 8 8s-3.59375 8-8 8-8-3.59375-8-8 3.59375-8 8-8zm-112-8c0-4.40625 3.59375-8 8-8s8 3.59375 8 8-3.59375 8-8 8-8-3.59375-8-8zm88 176c0-4.40625 3.59375-8 8-8s8 3.59375 8 8-3.59375 8-8 8-8-3.59375-8-8zm40 280c-4.40625 0-8-3.59375-8-8s3.59375-8 8-8 8 3.59375 8 8-3.59375 8-8 8zm272-8c0 4.40625-3.59375 8-8 8s-8-3.59375-8-8 3.59375-8 8-8 8 3.59375 8 8zm-48-280c-4.40625 0-8-3.59375-8-8s3.59375-8 8-8 8 3.59375 8 8-3.59375 8-8 8zm56 144c-4.40625 0-8-3.59375-8-8s3.59375-8 8-8 8 3.59375 8 8-3.59375 8-8 8zm48-144c-4.40625 0-8-3.59375-8-8s3.59375-8 8-8 8 3.59375 8 8-3.59375 8-8 8zm0 0"/><path d="m392 112h16v16h-16zm0 0"/><path d="m272 168h16v16h-16zm0 0"/><path d="m200 224h16v16h-16zm0 0"/><path d="m56 304h16v16h-16zm0 0"/><path d="m104 376h16v16h-16zm0 0"/><path d="m72 376h16v16h-16zm0 0"/><path d="m88 360h16v16h-16zm0 0"/><path d="m88 392h16v16h-16zm0 0"/><path d="m312 16h16v16h-16zm0 0"/><path d="m312 48h16v16h-16zm0 0"/><path d="m328 32h16v16h-16zm0 0"/><path d="m296 32h16v16h-16zm0 0"/><path d="m464 376h16v16h-16zm0 0"/><path d="m16 136h16v16h-16zm0 0"/><path d="m296 384h16v16h-16zm0 0"/><path d="m232 432h16v16h-16zm0 0"/></svg>