<?xml version="1.0" encoding="iso-8859-1"?>
<!-- Generator: Adobe Illustrator 19.0.0, SVG Export Plug-In . SVG Version: 6.00 Build 0)  -->
<svg version="1.1" id="Capa_1" xmlns="http://www.w3.org/2000/svg" xmlns:xlink="http://www.w3.org/1999/xlink" x="0px" y="0px"
	 viewBox="0 0 496 496" style="enable-background:new 0 0 496 496;" xml:space="preserve">
<circle style="fill:#39C3FC;" cx="248" cy="248" r="200"/>
<circle style="fill:#148CE0;" cx="248" cy="248" r="136"/>
<circle style="fill:#1261C5;" cx="248" cy="248" r="72"/>
<g>
	<circle style="fill:#FCD770;" cx="248" cy="248" r="16"/>
	<circle style="fill:#FCD770;" cx="136" cy="56" r="16"/>
	<circle style="fill:#FCD770;" cx="344" cy="360" r="16"/>
	<circle style="fill:#FCD770;" cx="120" cy="224" r="16"/>
	<circle style="fill:#FCD770;" cx="160" cy="432" r="16"/>
	<circle style="fill:#FCD770;" cx="360" cy="144" r="16"/>
</g>
<g>
	<circle style="fill:#1261C5;" cx="352" cy="248" r="8"/>
	<circle style="fill:#1261C5;" cx="240" cy="136" r="8"/>
	<circle style="fill:#1261C5;" cx="168" cy="328" r="8"/>
	<circle style="fill:#1261C5;" cx="240" cy="344" r="8"/>
	<circle style="fill:#1261C5;" cx="272" cy="368" r="8"/>
</g>
<g>
	<circle style="fill:#148CE0;" cx="416" cy="296" r="8"/>
	<circle style="fill:#148CE0;" cx="400" cy="152" r="8"/>
	<circle style="fill:#148CE0;" cx="256" cy="64" r="8"/>
	<circle style="fill:#148CE0;" cx="288" cy="96" r="8"/>
	<circle style="fill:#148CE0;" cx="88" cy="312" r="8"/>
	<circle style="fill:#148CE0;" cx="208" cy="392" r="8"/>
	<circle style="fill:#148CE0;" cx="208" cy="432" r="8"/>
	<circle style="fill:#148CE0;" cx="96" cy="168" r="8"/>
</g>
<path d="M248,272c13.232,0,24-10.768,24-24s-10.768-24-24-24s-24,10.768-24,24S234.768,272,248,272z M248,240c4.408,0,8,3.584,8,8
	c0,4.416-3.592,8-8,8s-8-3.584-8-8S243.592,240,248,240z"/>
<path d="M106.088,148.84l-4.168-15.456C38.096,150.632,0,205.44,0,280h16C16,213.112,49.672,164.08,106.088,148.84z"/>
<path d="M127.208,128.816l1.576,15.92C133.72,144.248,138.832,144,144,144c73.208,0,95.6,56.432,96.52,58.832l14.976-5.64
	c-0.272-0.72-6.808-17.816-23.832-34.84C215.992,146.68,188.064,128,144,128C138.312,128,132.664,128.272,127.208,128.816z"/>
<path d="M81.816,431.168c4.144,5.056,8.664,10.04,13.448,14.824l11.312-11.312c-4.408-4.416-8.584-9.008-12.392-13.648
	L81.816,431.168z"/>
<path d="M63.6,358.496l-15.712,3.016c3.896,20.336,12.496,40.08,25.56,58.672l13.096-9.2
	C74.792,394.248,67.072,376.592,63.6,358.496z"/>
<path d="M45.856,327.424c-0.408,5.664-0.44,11.4-0.104,17.056l15.968-0.952c-0.296-4.96-0.264-9.992,0.096-14.944L45.856,327.424z"
	/>
<path d="M434.672,389.424c-28.776,28.776-61.832,44.344-95.624,45.032c-33.168,0.944-64.616-12.936-91.056-39.376
	c-51.768-51.768-27.696-107.504-26.648-109.848l-7.296-3.288l-7.28-3.312c-0.32,0.704-7.792,17.416-7.792,41.504
	c0,22.16,6.536,55.112,37.696,86.264c28.88,28.88,63.4,44.096,99.992,44.096c0.904,0,1.8-0.016,2.704-0.032
	c38-0.776,74.856-17.968,106.608-49.72L434.672,389.424z"/>
<path d="M479.384,231.344l15.944,1.312C495.776,227.24,496,221.64,496,216h-16C480,221.2,479.792,226.368,479.384,231.344z"/>
<path d="M434.888,324.152l10.216,12.312c25.248-20.96,41.888-51.08,48.12-87.096l-15.768-2.728
	C471.888,278.848,457.168,305.656,434.888,324.152z"/>
<path d="M414.184,64.824c-4.152-5.056-8.68-10.04-13.456-14.816L389.416,61.32c4.408,4.408,8.576,9,12.4,13.656L414.184,64.824z"/>
<path d="M422.544,75.824l-13.096,9.2c30.392,43.256,33.224,92.416,7.768,134.856l13.72,8.232
	C459.8,180,456.736,124.496,422.544,75.824z"/>
<path d="M285.232,274.648l-3.288,7.288l-3.312,7.28c0.704,0.32,17.416,7.792,41.496,7.792l0,0c22.16,0,55.112-6.536,86.264-37.696
	c5.88-5.88,11.272-12.104,16.032-18.488l-12.832-9.56c-4.296,5.776-9.176,11.4-14.504,16.736
	C343.32,299.768,287.584,275.696,285.232,274.648z"/>
<path d="M232.648,0.664C227.184,0.224,221.584,0,216,0v16c5.16,0,10.32,0.2,15.352,0.616L232.648,0.664z"/>
<path d="M299.952,20.48c-15.048-8.544-32.072-14.504-50.584-17.704l-2.728,15.76c16.696,2.88,31.976,8.216,45.416,15.84
	L299.952,20.48z"/>
<path d="M350.304,122.088C341.896,125.816,336,134.224,336,144c0,9.68,5.792,17.992,14.064,21.784
	c-9.728,55.944-54.896,73.976-56.896,74.736L296,248l2.808,7.496c2.376-0.896,56.44-22.096,67.224-88.352
	C376.336,164.44,384,155.136,384,144c0-11.048-7.544-20.28-17.712-23.056c-5.048-36.696-21.92-67.44-49.336-89.056l-9.904,12.56
	C330.872,63.232,345.648,90.016,350.304,122.088z M360,152c-4.408,0-8-3.584-8-8s3.592-8,8-8s8,3.584,8,8S364.408,152,360,152z"/>
<path d="M61.328,106.576c17.04-17.04,35.528-29.376,55.04-36.856C120.704,75.92,127.872,80,136,80
	c11.272,0,20.68-7.832,23.248-18.328c29.936,0,58.64,11.592,83.368,34.104l10.776-11.832c-28.2-25.696-61.2-38.696-95.8-38.248
	C153.72,37.632,145.536,32,136,32c-12.624,0-22.896,9.832-23.824,22.232c-22.184,8.224-43.088,21.952-62.168,41.04L61.328,106.576z
	 M136,48c4.408,0,8,3.584,8,8s-3.592,8-8,8s-8-3.584-8-8S131.592,48,136,48z"/>
<path d="M267.816,98.832L255.6,109.16c41.704,49.328,20,99.504,19.056,101.608l14.576,6.6
	C290.344,214.896,316.216,156.088,267.816,98.832z"/>
<path d="M366.736,367.328c22.592-1.928,43.216-8.24,61.32-18.904l-8.12-13.784c-15.768,9.28-33.872,14.68-53.68,16.496
	C362.72,342.288,354.096,336,344,336c-9.08,0-16.904,5.128-20.984,12.592c-50.344-12.184-66.84-53.584-67.536-55.416L248,296
	l-7.496,2.816c0.816,2.176,20.224,51.744,79.936,65.584c2.08,11.128,11.832,19.6,23.56,19.6
	C354.664,384,363.616,376.968,366.736,367.328z M336,360c0-4.416,3.592-8,8-8s8,3.584,8,8s-3.592,8-8,8S336,364.416,336,360z"/>
<path d="M144,224c0-1.208-0.184-2.368-0.36-3.528c36.2-12.52,66.816,0.752,67.128,0.88l6.6-14.568
	c-1.56-0.712-37.928-16.728-81.376-0.544C131.736,202.4,126.168,200,120,200c-13.232,0-24,10.768-24,24
	c0,2.064,0.344,4.04,0.84,5.96c-2.464,2.16-4.888,4.384-7.232,6.728c-21.48,21.48-35.776,46.952-41.36,73.68l15.664,3.264
	C68.856,289.96,81.656,267.264,100.92,248c1.632-1.64,3.392-3.04,5.096-4.576C109.968,246.272,114.768,248,120,248
	C133.232,248,144,237.232,144,224z M120,232c-4.408,0-8-3.584-8-8s3.592-8,8-8c4.408,0,8,3.584,8,8S124.408,232,120,232z"/>
<rect x="176" y="392" width="16" height="16"/>
<rect x="304" y="96" width="16" height="16"/>
<rect x="16" width="16" height="16"/>
<rect y="16" width="16" height="16"/>
<rect y="112" width="16" height="16"/>
<rect x="480" y="80" width="16" height="16"/>
<rect x="40" y="216" width="16" height="16"/>
<rect x="104" y="280" width="16" height="16"/>
<rect x="328" y="400" width="16" height="16"/>
<rect x="384" y="176" width="16" height="16"/>
<path d="M184,432c0-13.232-10.768-24-24-24c-1.56,0-3.08,0.176-4.56,0.464C147.848,391.568,144,372.624,144,352
	c0-73.2,56.432-95.6,58.832-96.512L200,248l-2.808-7.496c-0.72,0.272-17.824,6.808-34.848,23.832
	C146.672,280.008,128,307.936,128,352c0,23.6,4.616,45.32,13.656,64.712C138.176,420.872,136,426.16,136,432
	c0,13.232,10.768,24,24,24c2.896,0,5.632-0.592,8.2-1.536C195.696,481.608,234.296,496,280,496v-16
	c-40.776,0-75.032-12.456-99.4-35.88C182.704,440.552,184,436.44,184,432z M160,440c-4.408,0-8-3.584-8-8s3.592-8,8-8s8,3.584,8,8
	S164.408,440,160,440z"/>
<rect x="152" y="88" width="16" height="16"/>
<rect x="16" y="32" width="16" height="16"/>
<rect x="32" y="16" width="16" height="16"/>
<rect x="464" width="16" height="16"/>
<rect x="448" y="16" width="16" height="16"/>
<rect x="464" y="32" width="16" height="16"/>
<rect x="480" y="16" width="16" height="16"/>
<rect x="416" y="448" width="16" height="16"/>
<rect x="400" y="464" width="16" height="16"/>
<rect x="416" y="480" width="16" height="16"/>
<rect x="432" y="464" width="16" height="16"/>
<rect x="16" y="408" width="16" height="16"/>
<rect y="424" width="16" height="16"/>
<rect x="16" y="440" width="16" height="16"/>
<rect x="32" y="424" width="16" height="16"/>
<g>
</g>
<g>
</g>
<g>
</g>
<g>
</g>
<g>
</g>
<g>
</g>
<g>
</g>
<g>
</g>
<g>
</g>
<g>
</g>
<g>
</g>
<g>
</g>
<g>
</g>
<g>
</g>
<g>
</g>
</svg>
