<?xml version="1.0" encoding="iso-8859-1"?>
<!-- Generator: Adobe Illustrator 19.0.0, SVG Export Plug-In . SVG Version: 6.00 Build 0)  -->
<svg version="1.1" id="Capa_1" xmlns="http://www.w3.org/2000/svg" xmlns:xlink="http://www.w3.org/1999/xlink" x="0px" y="0px"
	 viewBox="0 0 496 496" style="enable-background:new 0 0 496 496;" xml:space="preserve">
<g>
	<path style="fill:#FEA82F;" d="M243.976,134.264c-23.4,16.712-51.432,25.696-80.192,25.696l0,0c-7.784,0-15.504,1.488-22.728,4.376
		c-18.248,7.296-31.88,22.92-36.648,41.984L104,207.96l-8,72h64l80-96c14.992-10,24-26.824,24-44.848V119.96L243.976,134.264z"/>
	<path style="fill:#FEA82F;" d="M472,159.96c10.248-10.248,16-24.136,16-38.624V87.96l-10.808,10.808
		c-18.688,18.688-44.04,29.192-70.48,29.192c-34.08,0-65.792,17.408-84.088,46.16l-3.048,4.792
		c-14.68,23.072-40.136,37.048-67.488,37.048H240c-25.184,0-48.888,11.856-64,32l-48,56v136l72-56l3.664-3.664
		c13.016-13.016,30.68-20.336,49.104-20.336c12.584,0,24.936,3.424,35.728,9.896l4.464,2.68
		c12.456,7.472,26.72,11.424,41.248,11.424c34.512,0,65.152-22.088,76.064-54.824L416,311.96l-15.04,7.52
		c-11.152,5.576-23.456,8.48-35.92,8.48c-8.632,0-17.208-1.392-25.4-4.12L328,319.96c-13.336-16-10.664-32,8-48l1.584-1.584
		c9.232-9.232,21.752-14.416,34.8-14.416c7.64,0,15.176,1.776,22.008,5.192l9.744,4.872c7.8,3.904,16.408,5.936,25.128,5.936
		c21.288,0,40.744-12.024,50.264-31.064C485.104,229.76,488,217.48,488,205.024V191.96c-15.368,15.368-36.208,24-57.944,24H424
		c-16-8-13.896-28.656,9.376-40C447.864,175.96,461.752,170.208,472,159.96z"/>
</g>
<path style="fill:#B6C1CE;" d="M66.552,231.96H50.888C27.2,231.96,8,251.16,8,274.848v67.688c0,6.208,1.344,12.336,3.944,17.976
	l32.552,70.528c7.016,15.192,22.216,24.92,38.944,24.92h19.072c19.68,0,36.832-13.392,41.608-32.488l6.08-24.304
	c1.192-4.768,3.192-9.296,5.92-13.392l20.672-31.016c4.696-7.048,7.2-15.32,7.2-23.792v-20.624
	c0-21.856-16.432-40.216-38.152-42.624l-15.408-1.712c-11.768-1.304-22.472-7.424-29.576-16.896l0,0
	C92.768,238.312,80.056,231.96,66.552,231.96z"/>
<g>
	<path style="fill:#8C95A4;" d="M8,274.848v13.112h17.832c8.68,0,16.624-4.904,20.504-12.672c1.104-2.2,2.552-4.216,4.296-5.96
		l3.352-3.352c6.144-6.144,8.288-15.224,5.536-23.456L56,231.96h-5.112C27.2,231.96,8,251.16,8,274.848z"/>
	<path style="fill:#8C95A4;" d="M102.512,455.96c19.68,0,36.832-13.392,41.608-32.488l1.352-5.408L144,415.96l-18.912-25.208
		c-3.2-4.28-8.232-6.792-13.576-6.792h-6.544C95.6,383.96,88,391.56,88,400.928c0,4.504-1.792,8.816-4.968,12l-8.2,8.2
		c-1.864,1.864-3.264,4.136-4.104,6.632L64,447.96l-0.8,2.8c6.12,3.288,13.016,5.2,20.24,5.2H102.512z"/>
</g>
<g>
	<circle style="fill:#ECECEC;" cx="136" cy="319.96" r="16"/>
	<circle style="fill:#ECECEC;" cx="56" cy="351.96" r="16"/>
</g>
<path d="M146.728,259.768l-15.408-1.712c-9.528-1.056-18.296-6.064-24.056-13.736c-9.56-12.752-24.776-20.36-40.712-20.36H50.888
	C22.832,223.96,0,246.792,0,274.848v67.688c0,7.32,1.624,14.696,4.68,21.328l32.552,70.528
	c8.296,17.968,26.432,29.568,46.208,29.568h19.072c23.392,0,43.696-15.848,49.368-38.544l6.08-24.304
	c0.976-3.888,2.592-7.552,4.816-10.888l20.672-31.016c5.6-8.4,8.552-18.152,8.552-28.232v-20.624
	C192,284.384,172.536,262.632,146.728,259.768z M50.256,240.024l1.672,5.024c1.8,5.392,0.416,11.248-3.608,15.272l-3.352,3.352
	c-2.352,2.352-4.304,5.056-5.792,8.04c-2.536,5.08-7.656,8.248-13.344,8.248H16v-5.112C16,255.832,31.312,240.376,50.256,240.024z
	 M102.512,447.96H83.44c-3.608,0-7.112-0.6-10.456-1.656l5.336-16.016c0.44-1.312,1.184-2.528,2.168-3.504l8.2-8.192
	C93.336,413.936,96,407.504,96,400.928c0-4.944,4.024-8.968,8.968-8.968h6.544c2.808,0,5.488,1.344,7.176,3.584l18.128,24.168
	l-0.456,1.832C132.472,437.096,118.552,447.96,102.512,447.96z M176,330.976c0,6.904-2.024,13.6-5.856,19.352l-20.672,31.016
	c-3.248,4.856-5.608,10.208-7.024,15.888l-0.624,2.488l-10.32-13.768c-4.704-6.256-12.168-9.992-19.992-9.992h-6.544
	C91.2,375.96,80,387.16,80,400.928c0,2.36-0.96,4.672-2.624,6.344l-8.208,8.2c-2.72,2.728-4.8,6.096-6.024,9.752l-4.184,12.56
	c-2.92-2.888-5.416-6.248-7.192-10.088l-32.56-70.536C17.112,352.608,16,347.552,16,342.536V295.96h9.832
	c11.792,0,22.384-6.544,27.664-17.096c0.72-1.448,1.664-2.752,2.792-3.88l3.352-3.352c8.336-8.336,11.2-20.456,7.472-31.64
	c10.72,0.176,20.912,5.336,27.36,13.92c8.4,11.192,21.192,18.496,35.088,20.04l15.408,1.712
	c17.688,1.968,31.032,16.88,31.032,34.688V330.976z"/>
<path d="M136,295.96c-13.232,0-24,10.768-24,24s10.768,24,24,24s24-10.768,24-24S149.232,295.96,136,295.96z M136,327.96
	c-4.408,0-8-3.584-8-8s3.592-8,8-8s8,3.584,8,8S140.408,327.96,136,327.96z"/>
<path d="M56,327.96c-13.232,0-24,10.768-24,24s10.768,24,24,24s24-10.768,24-24S69.232,327.96,56,327.96z M56,359.96
	c-4.408,0-8-3.584-8-8s3.592-8,8-8s8,3.584,8,8S60.408,359.96,56,359.96z"/>
<rect x="72" y="279.96" width="16" height="16"/>
<path d="M235.56,177.304l8.872,13.312C261.696,179.112,272,159.856,272,139.12v-34.696l-32.672,23.336
	c-22.168,15.832-48.296,24.2-75.544,24.2c-8.848,0-17.496,1.664-25.696,4.952c-20.576,8.232-36.064,25.976-41.44,47.472l-0.408,1.64
	l15.52,3.88l0.408-1.64c4.128-16.528,16.04-30.168,31.856-36.496c6.312-2.528,12.96-3.808,19.76-3.808
	c30.608,0,59.944-9.4,84.84-27.184l7.376-5.272v3.616C256,154.496,248.36,168.776,235.56,177.304z"/>
<path d="M471.536,93.112c-17.312,17.312-40.336,26.848-64.824,26.848c-37.008,0-70.968,18.64-90.84,49.864l-3.048,4.792
	c-13.28,20.88-35.992,33.344-60.736,33.344H240c-27.552,0-53.864,13.16-70.4,35.2l12.8,9.6c13.528-18.032,35.056-28.8,57.6-28.8
	h12.088c30.248,0,58-15.232,74.24-40.76l3.048-4.784c16.92-26.584,45.832-42.456,77.336-42.456c27.44,0,53.312-10.192,73.288-28.784
	v14.16c0,12.456-4.848,24.168-13.656,32.976c-8.808,8.8-20.512,13.648-32.976,13.648v16c16.728,0,32.456-6.512,44.288-18.344
	S496,138.064,496,121.328v-52.68L471.536,93.112z"/>
<path d="M430.056,207.96H424v16h6.056c18,0,35.2-5.256,49.832-15.032c-0.544,9.84-3.112,19.584-7.52,28.392
	c-8.208,16.432-24.728,26.64-43.104,26.64c-7.44,0-14.896-1.76-21.552-5.088L397.968,254c-7.904-3.952-16.752-6.04-25.584-6.04
	c-15.28,0-29.648,5.952-40.456,16.76l-1.584,1.584l11.312,11.312l1.584-1.584c7.792-7.784,18.136-12.072,29.144-12.072
	c6.36,0,12.736,1.504,18.432,4.352l9.744,4.872c8.872,4.432,18.792,6.776,28.704,6.776c24.48,0,46.48-13.6,57.424-35.488
	c6.096-12.176,9.312-25.824,9.312-39.448v-32.376l-13.656,13.656C468.376,200.272,449.808,207.96,430.056,207.96z"/>
<rect x="400" y="167.96" width="16" height="16"/>
<path d="M288.84,379.392c13.704,8.224,29.392,12.568,45.368,12.568c38.016,0,71.64-24.232,83.656-60.296l11.832-35.496
	l-32.32,16.152c-16.96,8.496-37.248,9.936-55.224,3.92l-11.632-3.872l-5.056,15.184l11.632,3.864c21.16,7.08,44.96,5.712,65.2-3.712
	c-10.136,28.912-37.36,48.256-68.088,48.256c-13.072,0-25.912-3.552-37.144-10.296L292.608,363
	c-12.032-7.216-25.808-11.04-39.84-11.04c-20.68,0-40.136,8.056-54.76,22.688l-3.664,3.656l11.304,11.312l3.664-3.656
	c11.608-11.608,27.04-18,43.448-18c11.136,0,22.064,3.032,31.616,8.768L288.84,379.392z"/>
<path d="M306.344,242.304l-7.032,7.032c-9.432,9.432-21.968,14.624-35.312,14.624c-17.616,0-34.176,6.856-46.624,19.312
	l-7.032,7.032l11.312,11.312l7.032-7.032c9.432-9.432,21.968-14.624,35.312-14.624c17.616,0,34.176-6.856,46.624-19.312l7.032-7.032
	L306.344,242.304z"/>
<rect x="328" y="223.96" width="16" height="16"/>
<rect x="288" y="119.96" width="16" height="16"/>
<rect x="360" y="87.96" width="16" height="16"/>
<path d="M288,287.96c-13.232,0-24,10.768-24,24s10.768,24,24,24s24-10.768,24-24S301.232,287.96,288,287.96z M288,319.96
	c-4.408,0-8-3.584-8-8s3.592-8,8-8s8,3.584,8,8S292.408,319.96,288,319.96z"/>
<rect x="419.921" y="366.535" transform="matrix(-0.9124 0.4093 -0.4093 -0.9124 1024.4105 529.8126)" width="71.176" height="15.992"/>
<rect x="440.757" y="403.18" transform="matrix(-0.9172 0.3985 -0.3985 -0.9172 1024.1351 609.4923)" width="15.936" height="16"/>
<rect x="264.952" y="446.183" transform="matrix(-0.917 0.3989 -0.3989 -0.917 851.5706 731.1674)" width="169.521" height="16"/>
<rect x="-1.909" y="57.603" transform="matrix(-0.9125 0.4091 -0.4091 -0.9125 239.9509 79.8784)" width="226.682" height="16"/>
<rect x="226.162" y="2.93" transform="matrix(-0.9125 0.4091 -0.4091 -0.9125 450.8439 -74.5784)" width="14.472" height="16"/>
<g>
</g>
<g>
</g>
<g>
</g>
<g>
</g>
<g>
</g>
<g>
</g>
<g>
</g>
<g>
</g>
<g>
</g>
<g>
</g>
<g>
</g>
<g>
</g>
<g>
</g>
<g>
</g>
<g>
</g>
</svg>
