<svg height="496pt" viewBox="0 0 496 496" width="496pt" xmlns="http://www.w3.org/2000/svg"><path d="m488 24-9.519531 47.761719c-3.359375 16.796875-7.839844 33.277343-13.441407 49.277343l-90.078124-90.078124c16-5.601563 32.480468-10.082032 49.277343-13.441407l47.761719-9.519531c4.398438 0 8.398438 1.761719 11.28125 4.71875 2.957031 2.882812 4.71875 6.882812 4.71875 11.28125zm0 0" fill="#fcd770"/><g fill="#e6e9ed"><path d="m374.960938 30.960938c-54 18.558593-103.199219 49.277343-143.839844 89.917968-22.082032 22.082032-41.359375 46.800782-57.28125 73.519532-3.441406 5.761718-6.71875 11.601562-9.839844 17.601562l120.601562 120c3.597657-1.839844 3.398438-3.839844 11.398438-5.839844v-.082031c32-16.636719 55.71875-37.199219 79.71875-61.199219 26.320312-26.320312 48.265625-56.320312 65.707031-88.878906 9.359375-17.601562 17.285157-36 23.765625-54.960938zm0 0"/><path d="m400 352v2.71875c0 14.5625-2.878906 28.722656-8.320312 41.839844-5.441407 13.121094-13.441407 25.203125-23.679688 35.441406-12.238281 12.238281-26.320312 22.480469-41.519531 30.480469l-36.960938-36.960938c6.71875-12.878906 15.121094-24.878906 24.960938-35.679687 1.757812-2 3.597656-3.917969 5.519531-5.839844 20.480469-20.480469 48.238281-32 77.28125-32zm0 0"/><path d="m200 248 1.921875-1.921875c19.277344-19.277344 45.359375-30.078125 72.558594-30.078125h5.519531v5.519531c0 13.601563-2.71875 26.960938-7.839844 39.28125-5.121094 12.320313-12.640625 23.679688-22.238281 33.277344-.640625.640625-1.28125 1.28125-1.921875 1.921875-9.921875 9.441406-21.28125 16.960938-33.679688 22.320312l-36.640624-36.640624c5.359374-12.398438 12.878906-23.757813 22.320312-33.679688zm0 0"/></g><path d="m352 88c30.960938 0 56 25.039062 56 56s-25.039062 56-56 56-56-25.039062-56-56 25.039062-56 56-56zm0 0" fill="#69d6f4"/><path d="m376 144c0 13.253906-10.746094 24-24 24s-24-10.746094-24-24 10.746094-24 24-24 24 10.746094 24 24zm0 0" fill="#4fc1e9"/><path d="m326.480469 462.480469c-.878907.480469-1.761719.878906-2.640625 1.359375-16.160156 8.082031-33.679688 13.601562-51.839844 16.160156 2.71875-19.121094 8.71875-37.601562 17.519531-54.480469zm0 0" fill="#ff826e"/><path d="m314.320312 389.679688.160157.160156c-9.839844 10.800781-18.242188 22.800781-24.960938 35.679687l-65.121093-65.121093 43.28125-20.238282c5.519531-2.558594 10.960937-5.28125 16.320312-8.160156 3.601562-1.839844 7.199219-3.839844 10.800781-5.839844zm0 0" fill="#aab2bd"/><path d="m248 296 36 36c-5.359375 2.878906-10.800781 5.601562-16.320312 8.160156l-43.28125 20.238282-16.398438 7.601562-39.921875-39.921875.082031-.078125c16 0 31.761719-3.359375 46.160156-9.679688 12.398438-5.359374 23.757813-12.878906 33.679688-22.320312zm0 0" fill="#ccd1d9"/><path d="m214.320312 318.320312c-14.398437 6.320313-30.160156 9.679688-46.160156 9.679688l-.082031.078125-.078125-.078125v-.078125c0-15.363281 3.039062-30.402344 8.800781-44.320313.238281-.640624.558594-1.28125.878907-1.921874zm0 0" fill="#ff826e"/><path d="m164 212 36 36c-9.441406 9.921875-16.960938 21.28125-22.320312 33.679688-.320313.640624-.640626 1.28125-.878907 1.921874-5.761719 13.917969-8.800781 28.957032-8.800781 44.320313v.078125l-40-40 10.160156-21.839844 17.679688-37.839844c2.558594-5.519531 5.28125-10.960937 8.160156-16.320312zm0 0" fill="#ccd1d9"/><path d="m200 360-40.800781 27.199219c-2-12.960938-8.160157-24.480469-17.039063-33.359375s-20.398437-15.039063-33.359375-17.039063l27.199219-40.800781zm0 0" fill="#aab2bd"/><path d="m106.320312 173.679688 67.519532 20.71875c-3.441406 5.761718-6.71875 11.601562-9.839844 17.601562-2.878906 5.359375-5.601562 10.800781-8.160156 16.320312l-17.679688 37.839844-67.679687-67.679687c12.878906-6.71875 24.878906-15.121094 35.679687-24.960938zm0 0" fill="#aab2bd"/><path d="m159.199219 387.199219c.5625 3.121093.800781 6.402343.800781 9.679687 0 25.839844-16.320312 48.882813-40.640625 57.441406l-95.359375 33.679688c-4.398438 0-8.398438-1.761719-11.28125-4.71875-2.957031-2.882812-4.71875-6.882812-4.71875-11.28125l33.679688-95.359375c4.242187-12.160156 12.160156-22.320313 22.242187-29.441406 10.078125-7.121094 22.316406-11.199219 35.199219-11.199219 3.277344 0 6.558594.238281 9.679687.800781 12.960938 2 24.480469 8.160157 33.359375 17.039063s15.039063 20.398437 17.039063 33.359375zm0 0" fill="#ff826e"/><path d="m152 380.878906c0 15.679688-9.921875 29.601563-24.640625 34.800782l-72.71875 25.679687 25.679687-72.71875c5.199219-14.71875 19.121094-24.640625 34.800782-24.640625 20.320312 0 36.878906 16.558594 36.878906 36.878906zm0 0" fill="#fcd770"/><path d="m144 88v2.71875c0 29.042969-11.519531 56.800781-32 77.28125-1.921875 1.921875-3.839844 3.761719-5.839844 5.519531-10.800781 9.839844-22.800781 18.242188-35.679687 24.960938l-36.960938-36.960938c8-15.199219 18.242188-29.28125 30.480469-41.519531 10.238281-10.238281 22.320312-18.238281 35.441406-23.679688 13.117188-5.441406 27.277344-8.320312 41.839844-8.320312zm0 0" fill="#e6e9ed"/><path d="m70.480469 198.480469c-16.878907 8.800781-35.359375 14.800781-54.480469 17.519531 2.558594-18.160156 8.078125-35.679688 16.160156-51.839844.480469-.878906.878906-1.761718 1.359375-2.640625zm0 0" fill="#ff826e"/><path d="m278.953125 289.105469 8.09375 13.804687c8.640625-5.0625 17.167969-10.574218 25.359375-16.375l-9.246094-13.054687c-7.824218 5.527343-15.96875 10.792969-24.207031 15.625zm0 0"/><path d="m346.808594 236.632812c-10.359375 10.359376-21.488282 20.128907-33.054688 29.03125l9.75 12.679688c12.128906-9.320312 23.777344-19.542969 34.625-30.398438 5.992188-5.992187 11.847656-12.289062 17.414063-18.707031l-12.09375-10.476562c-5.320313 6.132812-10.921875 12.140625-16.640625 17.871093zm0 0"/><path d="m472 0-49.359375 9.710938c-74.960937 14.992187-143.152344 51.488281-197.214844 105.554687-21.121093 21.117187-39.53125 44.476563-55.136719 69.6875l-49.160156-15.128906c19.871094-21.664063 30.871094-49.496094 30.871094-79.082031v-10.742188h-10.742188c-31.320312 0-60.769531 12.191406-82.914062 34.34375-27.007812 27.007812-44.863281 62.710938-50.265625 100.519531l-1.503906 10.5625 10.5625-1.503906c17.933593-2.5625 35.359375-8.011719 51.648437-15.824219l59.78125 59.78125-10.183594 21.816406 7.328126 7.328126-20.847657 31.273437c-1.910156-.160156-3.824219-.296875-5.765625-.296875-29.160156 0-55.273437 18.480469-64.984375 45.976562l-34.113281 96.65625v1.367188c0 13.230469 10.769531 24 24 24h1.367188l96.65625-34.113281c27.496093-9.710938 45.976562-35.824219 45.976562-64.984375 0-1.941406-.136719-3.855469-.289062-5.757813l31.273437-20.847656 7.328125 7.328125 16.367188-7.640625 57.230468 57.230469c-7.8125 16.289062-13.261718 33.714844-15.820312 51.648437l-1.503906 10.5625 10.558593-1.503906c37.816407-5.402344 73.511719-23.25 100.519531-50.265625 22.144532-22.144531 34.335938-51.59375 34.335938-82.914062v-10.742188h-10.742188c-29.585937 0-57.417968 11-79.082031 30.871094l-13.863281-45.070313c27.808594-16.433593 53.429688-36.234375 76.429688-59.226562 54.058593-54.0625 90.554687-122.253907 105.546874-197.214844l9.558594-47.792969.152344-1.566406c0-13.230469-10.769531-24-24-24zm-227.710938 288.398438c-8.394531 8.394531-17.960937 15.144531-28.289062 20.289062l-28.6875-28.6875c5.144531-10.320312 11.894531-19.894531 20.289062-28.289062 17.269532-17.269532 40.046876-27.046876 64.367188-27.679688-.632812 24.320312-10.410156 47.097656-27.679688 64.367188zm-63.433593 7.769531 18.96875 18.96875c-7.601563 2.335937-15.449219 3.933593-23.519531 4.542969.617187-8.054688 2.214843-15.910157 4.550781-23.511719zm-19.429688 13.9375-23.800781-23.800781 25.472656-54.585938c.980469-2.101562 2.054688-4.152344 3.078125-6.238281l22.886719 22.886719c-14.925781 17.703124-24.359375 38.960937-27.636719 61.738281zm-91.769531-184.449219c17.847656-17.847656 41.183594-28.207031 66.199219-29.511719-1.304688 25.015625-11.664063 48.351563-29.511719 66.199219-10.265625 10.265625-21.953125 19.007812-34.535156 26.152344l-28.296875-28.296875c7.136719-12.589844 15.878906-24.277344 26.144531-34.542969zm-43.761719 80.449219c2.289063-10.601563 5.707031-20.929688 10.050781-30.847657l20.789063 20.789063c-9.910156 4.351563-20.238281 7.769531-30.839844 10.058594zm57.648438-5.875c8.640625-5.183594 16.824219-11.117188 24.480469-17.703125l53.914062 16.585937c-4.738281 8.429688-9.226562 17.023438-13.335938 25.839844l-12.832031 27.496094zm4.289062 171.050781c4.070313-11.527344 15.023438-19.28125 27.265625-19.28125 15.933594 0 28.902344 12.96875 28.902344 28.902344 0 12.242187-7.742188 23.195312-19.28125 27.265625l-57.007812 20.121093zm28.863281 75.519531-93.839843 33.121094c-3.503907-.496094-6.28125-3.28125-6.777344-6.777344l33.121094-93.839843c6.167969-17.472657 21.015625-30.058594 38.617187-33.929688-6.753906 5.175781-12.113281 12.199219-15.074218 20.585938l-31.246094 88.542968 88.550781-31.257812c8.386719-2.957032 15.410156-8.316406 20.585937-15.070313-3.871093 17.617188-16.464843 32.457031-33.9375 38.625zm47.425782-72.488281c-6.914063-19.824219-22.601563-35.511719-42.425782-42.425781l15.550782-23.328125 50.203125 50.203125zm21.765625-39.738281c22.777343-3.277344 44.035156-12.710938 61.738281-27.628907l22.886719 22.886719c-2.078125 1.023438-4.136719 2.097657-6.238281 3.078125l-54.585938 25.472656zm106.058593 104.683593 20.789063 20.789063c-9.917969 4.34375-20.246094 7.769531-30.847656 10.050781 2.296875-10.59375 5.714843-20.921875 10.058593-30.839844zm99.910157-79.113281c-1.304688 25.015625-11.664063 48.351563-29.511719 66.199219-10.265625 10.265625-21.953125 19.007812-34.535156 26.152344l-28.296875-28.296875c7.136719-12.582031 15.878906-24.269531 26.152343-34.535157 17.839844-17.855468 41.175782-28.214843 66.191407-29.519531zm-86.382813 27.832031c-6.585937 7.648438-12.511718 15.839844-17.703125 24.480469l-49.671875-49.671875 32.941406-15.378906c6.449219-3.007812 12.753907-6.238281 19-9.582031zm63.953125-128.710937c-24.96875 24.964844-53.179687 45.992187-84 62.847656l-26.289062-26.289062c18.574219-20.410157 28.863281-46.550781 28.863281-74.328125v-13.496094h-13.496094c-27.785156 0-53.929687 10.289062-74.328125 28.871094l-26.289062-26.285156c16.855469-30.824219 37.882812-59.042969 62.847656-84 38.761719-38.761719 85.113281-68.097657 136.089844-86.441407l83.039062 83.039063c-18.34375 50.96875-47.679687 97.3125-86.4375 136.082031zm101.175781-189.050781c-2.441406 12.183594-5.511718 24.167968-9.121093 35.945312l-71.640625-71.640625c11.777344-3.609375 23.761718-6.679687 35.945312-9.121093l46.878906-9.375c3.886719.320312 7 3.425781 7.3125 7.3125zm0 0"/><path d="m352 80c-35.289062 0-64 28.710938-64 64s28.710938 64 64 64 64-28.710938 64-64-28.710938-64-64-64zm0 112c-26.472656 0-48-21.527344-48-48s21.527344-48 48-48 48 21.527344 48 48-21.527344 48-48 48zm0 0"/><path d="m352 112c-17.648438 0-32 14.351562-32 32s14.351562 32 32 32 32-14.351562 32-32-14.351562-32-32-32zm0 48c-8.824219 0-16-7.175781-16-16s7.175781-16 16-16 16 7.175781 16 16-7.175781 16-16 16zm0 0"/></svg>