<svg height="496pt" viewBox="0 0 496 496" width="496pt" xmlns="http://www.w3.org/2000/svg"><g fill="#ccd1d9"><path d="m262.160156 468.960938c1.199219 2 1.839844 4.238281 1.839844 6.558593 0 6.878907-5.601562 12.480469-12.480469 12.480469h-12.480469c-4.320312 0-8.398437-2.320312-10.640624-6.078125l-61.359376-102.242187c10.960938-4.238282 20.402344-11.359376 27.519532-20.480469.242187.160156.480468.234375.722656.402343zm0 0"/><path d="m152 383.441406v92.078125c0 6.878907-5.601562 12.480469-12.480469 12.480469h-7.039062c-6.878907 0-12.480469-5.601562-12.480469-12.480469v-96.160156c7.441406 2.960937 15.519531 4.640625 24 4.640625 2.71875 0 5.359375-.160156 8-.558594zm0 0"/><path d="m108.800781 373.359375-65.199219 108.5625c-2.242187 3.757813-6.320312 6.078125-10.640624 6.078125h-12.480469c-6.878907 0-12.480469-5.601562-12.480469-12.480469 0-2.320312.640625-4.558593 1.839844-6.558593l75.441406-123.441407c4.957031 11.441407 13.199219 21.121094 23.519531 27.839844zm0 0"/></g><path d="m194.558594 359.199219c-7.117188 9.121093-16.558594 16.234375-27.519532 20.480469-4.71875 1.921874-9.839843 3.199218-15.039062 3.761718-2.640625.398438-5.28125.558594-8 .558594-8.480469 0-16.558594-1.679688-24-4.640625v-.078125c-3.921875-1.519531-7.679688-3.519531-11.199219-5.921875-10.320312-6.71875-18.5625-16.398437-23.519531-27.832031-3.359375-7.847656-5.28125-16.488282-5.28125-25.527344 0-27.761719 17.679688-51.199219 42.320312-60.078125 5.199219 28.871094 19.199219 54.71875 39.121094 74.636719 9.757813 9.761718 20.878906 18.082031 33.117188 24.640625zm0 0" fill="#969faa"/><path d="m376 320-14.558594 14.558594c-3.203125 3.195312-6.480468 6.160156-9.921875 8.960937l-199.039062-199.039062c2.800781-3.441407 5.757812-6.71875 8.960937-9.921875l14.558594-14.558594zm0 0" fill="#fcd770"/><path d="m195.28125 359.601562c-.242188-.167968-.480469-.242187-.722656-.402343-12.238282-6.558594-23.359375-14.878907-33.117188-24.640625-19.921875-19.917969-33.921875-45.765625-39.121094-74.636719-1.519531-8.242187-2.320312-16.722656-2.320312-25.363281 0-33.039063 11.519531-64.878906 32.480469-90.078125l199.039062 199.039062c-10.878906 9.121094-23.039062 16.402344-36 21.761719-16.960937 7.039062-35.359375 10.71875-54.078125 10.71875-23.921875 0-46.402344-5.921875-66.160156-16.398438zm0 0" fill="#e6e9ed"/><path d="m368 104c13.28125 0 24 10.71875 24 24s-10.71875 24-24 24c-2.238281 0-4.398438-.320312-6.398438-.878906-4.082031-1.121094-7.679687-3.28125-10.5625-6.160156-2.878906-2.882813-5.039062-6.480469-6.160156-10.5625-.558594-2-.878906-4.160157-.878906-6.398438 0-13.28125 10.71875-24 24-24zm0 0" fill="#fcd770"/><path d="m256.105469 335.855469-.847657 15.984375c2.046876.113281 4.101563.160156 6.167969.160156 3.679688 0 7.34375-.167969 10.964844-.496094l-1.46875-15.9375c-4.890625.449219-9.898437.554688-14.816406.289063zm0 0"/><path d="m299.625 328.59375c-4.5625 1.847656-9.296875 3.382812-14.082031 4.535156l3.769531 15.542969c5.550781-1.34375 11.054688-3.121094 16.34375-5.273437zm0 0"/><path d="m168.113281 194.6875-14.714843-6.289062c-2.421876 5.671874-4.414063 11.59375-5.910157 17.59375l15.519531 3.863281c1.296876-5.175781 3.007813-10.269531 5.105469-15.167969zm0 0"/><path d="m160.496094 224.433594-15.921875-1.570313c-.382813 3.863281-.574219 7.808594-.574219 11.710938 0 31.320312 12.222656 60.800781 34.433594 82.992187l11.308594-11.308594c-19.183594-19.179687-29.742188-44.632812-29.742188-71.683593 0-3.382813.167969-6.796875.496094-10.140625zm0 0"/><path d="m368 192v16c44.113281 0 80-35.886719 80-80s-35.886719-80-80-80-80 35.886719-80 80h16c0-35.289062 28.710938-64 64-64s64 28.710938 64 64-28.710938 64-64 64zm0 0"/><path d="m368 0c-70.574219 0-128 57.425781-128 128h16c0-61.761719 50.238281-112 112-112s112 50.238281 112 112-50.238281 112-112 112v16c70.574219 0 128-57.425781 128-128s-57.425781-128-128-128zm0 0"/><path d="m367.433594 159.945312c.191406 0 .375.054688.566406.054688 17.648438 0 32-14.351562 32-32s-14.351562-32-32-32-32 14.351562-32 32c0 .199219.054688.375.054688.574219l-109.695313 30.464843-50.359375-50.351562-20.230469 20.234375c-28.226562 28.222656-43.769531 65.742187-43.769531 105.652344 0 6.960937.648438 13.761719 1.566406 20.472656-25.046875 11.753906-41.566406 36.960937-41.566406 64.953125 0 8.671875 1.617188 16.953125 4.441406 24.65625l-73.433594 120.175781c-1.96875 3.214844-3.007812 6.910157-3.007812 10.679688 0 11.304687 9.191406 20.488281 20.488281 20.488281h12.441407c7.148437 0 13.878906-3.816406 17.566406-9.945312l61.105468-101.839844c.125.066406.261719.128906.398438.191406v91.113281c0 11.296875 9.191406 20.480469 20.488281 20.480469h7.023438c11.296875 0 20.488281-9.183594 20.488281-20.488281v-85.3125c1.160156-.261719 2.273438-.640625 3.414062-.953125l58.089844 96.816406c3.6875 6.121094 10.417969 9.9375 17.566406 9.9375h12.441407c11.296875 0 20.488281-9.183594 20.488281-20.488281 0-3.777344-1.039062-7.472657-3-10.6875l-53.960938-88.289063c14.617188 4.792969 30.183594 7.464844 46.386719 7.464844 39.910157 0 77.429688-15.535156 105.652344-43.769531l20.234375-20.230469-50.359375-50.359375zm-43.472656 96.703126-36.648438-36.648438 64.535156-64.535156c.0625.039062.128906.070312.191406.101562zm44.039062-144.648438c8.824219 0 16 7.175781 16 16s-7.175781 16-16 16-16-7.175781-16-16 7.175781-16 16-16zm-27.566406 31.960938c.039062.0625.0625.128906.101562.191406l-64.535156 64.535156-36.648438-36.648438zm-223.707032 127.238281c9.539063 37.625 33.296876 69.554687 65.296876 89.730469-10.296876 9.621093-23.703126 15.070312-38.023438 15.070312-30.878906 0-56-25.128906-56-56 0-20.414062 11.257812-39.023438 28.726562-48.800781zm-79.949218 206.625c-.808594 1.34375-2.28125 2.175781-3.847656 2.175781h-12.441407c-2.480469 0-4.488281-2.007812-4.488281-4.488281 0-.832031.222656-1.640625.664062-2.34375l68.40625-111.9375c3.730469 5.3125 8.121094 10.128906 13.113282 14.257812zm107.222656-2.3125c0 2.480469-2.007812 4.488281-4.488281 4.488281h-7.023438c-2.480469 0-4.488281-2.007812-4.488281-4.488281v-85.367188c5.152344 1.175781 10.496094 1.855469 16 1.855469zm112 0c0 2.480469-2.007812 4.488281-4.488281 4.488281h-12.441407c-1.566406 0-3.039062-.832031-3.847656-2.175781l-56.816406-94.6875c5.464844-2.992188 10.554688-6.695313 15.136719-11.089844l61.800781 101.121094c.433594.703125.65625 1.519531.65625 2.34375zm-128-240.9375c0-28.414063 8.953125-55.390625 25.296875-77.964844l186.085937 186.085937c-22.566406 16.351563-49.550781 25.304688-77.957031 25.304688-73.578125 0-133.425781-59.847656-133.425781-133.425781zm227.769531 94.347656c-1.265625 1.261719-2.640625 2.375-3.953125 3.582031l-188.320312-188.320312c1.207031-1.304688 2.320312-2.679688 3.582031-3.953125l8.921875-8.917969 188.6875 188.6875zm0 0"/></svg>