<?xml version="1.0" encoding="iso-8859-1"?>
<!-- Generator: Adobe Illustrator 19.0.0, SVG Export Plug-In . SVG Version: 6.00 Build 0)  -->
<svg version="1.1" id="Capa_1" xmlns="http://www.w3.org/2000/svg" xmlns:xlink="http://www.w3.org/1999/xlink" x="0px" y="0px"
	 viewBox="0 0 496 496" style="enable-background:new 0 0 496 496;" xml:space="preserve">
<path style="fill:#FB5968;" d="M432,168H32v272h168c0,26.512,21.488,48,48,48s48-21.488,48-48h168V328V168H432z"/>
<g>
	<path style="fill:#ECECEC;" d="M248,408h-80H64V88h120c35.344,0,64,28.656,64,64V408z"/>
	<path style="fill:#ECECEC;" d="M248,408h80h104V88H312c-35.344,0-64,28.656-64,64V408z"/>
</g>
<rect x="8" y="8" style="fill:#92E0C0;" width="160" height="160"/>
<polygon style="fill:#48C397;" points="168,168 104,168 136,8 168,8 "/>
<rect x="328" y="328" style="fill:#FCD770;" width="160" height="160"/>
<polygon style="fill:#FFC729;" points="488,488 424,488 456,328 488,328 "/>
<circle style="fill:#FCD770;" cx="192" cy="344" r="24"/>
<polygon style="fill:#ECECEC;" points="408,376 417.888,397.064 440,400.448 424,416.848 427.776,440 408,429.064 388.224,440 
	392,416.848 376,400.448 398.112,397.064 "/>
<rect x="80" y="80" width="16" height="16"/>
<path d="M138.584,37.416c-4.968-4.976-14.904-9.072-34.04-0.384c-5.328,2.424-10.92,5.792-16.544,9.68
	c-5.624-3.88-11.216-7.256-16.544-9.68c-19.12-8.688-29.072-4.592-34.04,0.384C26.792,48.04,33.008,68.176,46.664,88
	c-13.656,19.824-19.872,39.96-9.248,50.584c3.72,3.72,8.6,5.376,14.232,5.376c10.448,0,23.464-5.72,36.352-14.592
	c12.88,8.872,25.904,14.592,36.352,14.592c5.632,0,10.512-1.664,14.232-5.376c10.624-10.632,4.4-30.768-9.248-50.584
	C142.992,68.176,149.208,48.04,138.584,37.416z M48.728,48.728C49.064,48.392,50.064,48,51.888,48c2.56,0,6.736,0.776,12.936,3.6
	c3.168,1.44,6.464,3.312,9.816,5.408c-3.088,2.68-6.16,5.496-9.144,8.488c-2.96,2.96-5.8,6.032-8.512,9.176
	C48.4,60.872,46.6,50.848,48.728,48.728z M99.192,76.808c3.84,3.84,7.184,7.576,10.16,11.192c-2.984,3.616-6.328,7.352-10.16,11.192
	c-3.84,3.84-7.576,7.184-11.192,10.168c-3.616-2.984-7.352-6.328-11.192-10.168c-3.84-3.84-7.184-7.576-10.16-11.192
	c2.984-3.616,6.328-7.352,10.16-11.192c3.664-3.664,7.424-6.968,11.192-10.08C91.768,69.84,95.528,73.144,99.192,76.808z
	 M48.728,127.28c-2.12-2.12-0.328-12.152,8.248-25.944c2.712,3.136,5.552,6.216,8.512,9.168c2.968,2.968,6.072,5.776,9.216,8.496
	C60.896,127.6,50.864,129.4,48.728,127.28z M127.272,127.28c-2.128,2.12-12.168,0.32-25.984-8.28
	c3.144-2.72,6.248-5.528,9.216-8.496c2.96-2.96,5.8-6.032,8.512-9.168C127.6,115.128,129.4,125.152,127.272,127.28z M110.504,65.496
	c-2.992-2.992-6.056-5.816-9.152-8.496c3.344-2.088,6.648-3.968,9.816-5.408C117.376,48.776,121.544,48,124.112,48
	c1.832,0,2.832,0.4,3.168,0.728c2.12,2.12,0.328,12.152-8.256,25.944C116.312,71.528,113.464,68.456,110.504,65.496z"/>
<path d="M472,320V160h-32V80H312c-27.872,0-52.04,15.944-64,39.168C236.04,95.944,211.872,80,184,80h-8V0H0v176h24v272h168.568
	c3.888,27.104,27.264,48,55.432,48s51.536-20.896,55.432-48H320v48h176V320H472z M456,176v144h-16V176H456z M312,96h112v224H320v16
	h-48v16h48v16h-48v16h48v16h-64V152C256,121.12,281.128,96,312,96z M184,96c30.872,0,56,25.12,56,56v248H72V176h104V96H184z M16,16
	h144v144H16V16z M288,432v8c0,22.056-17.944,40-40,40s-40-17.944-40-40v-8H40V176h16v240h192h8h64v16H288z M480,480H336V336h144V480
	z"/>
<rect x="320" y="128" width="88" height="16"/>
<rect x="304" y="160" width="104" height="16"/>
<rect x="304" y="192" width="104" height="16"/>
<rect x="272" y="160" width="16" height="16"/>
<rect x="272" y="192" width="16" height="16"/>
<path d="M192,312c-17.648,0-32,14.352-32,32s14.352,32,32,32s32-14.352,32-32S209.648,312,192,312z M192,360
	c-8.824,0-16-7.176-16-16s7.176-16,16-16s16,7.176,16,16S200.824,360,192,360z"/>
<polygon points="320,299.312 360,259.312 394.344,293.656 405.656,282.344 360,236.688 320,276.688 293.656,250.344 
	282.344,261.656 "/>
<rect x="88" y="192" width="136" height="16"/>
<rect x="88" y="256" width="136" height="16"/>
<rect x="168" y="224" width="56" height="16"/>
<rect x="88" y="224" width="64" height="16"/>
<rect x="88" y="304" width="56" height="16"/>
<rect x="88" y="336" width="56" height="16"/>
<rect x="88" y="368" width="56" height="16"/>
<path d="M377.68,454.976L408,438.208l30.32,16.768l-5.776-35.432l24.056-24.656l-33.28-5.088L408,357.176l-15.32,32.632
	l-33.28,5.088l24.056,24.656L377.68,454.976z M403.536,404.328l4.464-9.504l4.464,9.504L423.4,406l-7.944,8.144l1.776,10.88
	L408,419.928l-9.224,5.104l1.776-10.88l-7.944-8.144L403.536,404.328z"/>
<rect x="448" y="352" width="16" height="16"/>
<rect x="352" y="448" width="16" height="16"/>
<g>
</g>
<g>
</g>
<g>
</g>
<g>
</g>
<g>
</g>
<g>
</g>
<g>
</g>
<g>
</g>
<g>
</g>
<g>
</g>
<g>
</g>
<g>
</g>
<g>
</g>
<g>
</g>
<g>
</g>
</svg>
