<?xml version="1.0" encoding="iso-8859-1"?>
<!-- Generator: Adobe Illustrator 19.0.0, SVG Export Plug-In . SVG Version: 6.00 Build 0)  -->
<svg version="1.1" id="Capa_1" xmlns="http://www.w3.org/2000/svg" xmlns:xlink="http://www.w3.org/1999/xlink" x="0px" y="0px"
	 viewBox="0 0 496 496" style="enable-background:new 0 0 496 496;" xml:space="preserve">
<circle style="fill:#FCD770;" cx="248" cy="248" r="64"/>
<g>
	<circle style="fill:#39C3FC;" cx="328" cy="56" r="16"/>
	<circle style="fill:#39C3FC;" cx="40" cy="248" r="16"/>
	<circle style="fill:#39C3FC;" cx="248" cy="456" r="16"/>
	<circle style="fill:#39C3FC;" cx="368" cy="312" r="16"/>
</g>
<path d="M320,248c0-39.696-32.296-72-72-72s-72,32.304-72,72s32.296,72,72,72S320,287.696,320,248z M192,248
	c0-30.88,25.128-56,56-56s56,25.12,56,56s-25.128,56-56,56S192,278.88,192,248z"/>
<rect x="448" y="432" width="16" height="16"/>
<rect x="432" y="448" width="16" height="16"/>
<rect x="448" y="464" width="16" height="16"/>
<rect x="464" y="448" width="16" height="16"/>
<path d="M328,80c13.232,0,24-10.768,24-24s-10.768-24-24-24s-24,10.768-24,24S314.768,80,328,80z M328,48c4.416,0,8,3.592,8,8
	s-3.584,8-8,8s-8-3.592-8-8S323.584,48,328,48z"/>
<path d="M64,248c0-13.232-10.768-24-24-24s-24,10.768-24,24s10.768,24,24,24S64,261.232,64,248z M32,248c0-4.408,3.584-8,8-8
	s8,3.592,8,8c0,4.408-3.584,8-8,8S32,252.408,32,248z"/>
<path d="M248,432c-13.232,0-24,10.768-24,24s10.768,24,24,24s24-10.768,24-24S261.232,432,248,432z M248,464c-4.416,0-8-3.592-8-8
	s3.584-8,8-8c4.416,0,8,3.592,8,8S252.416,464,248,464z"/>
<path d="M368,336c13.232,0,24-10.768,24-24s-10.768-24-24-24s-24,10.768-24,24S354.768,336,368,336z M368,304c4.416,0,8,3.592,8,8
	s-3.584,8-8,8s-8-3.592-8-8S363.584,304,368,304z"/>
<path d="M51.736,286.472l-15.704,3.064c16.872,86.592,83.776,153.464,170.44,170.36l3.064-15.704
	C130.528,428.784,67.12,365.4,51.736,286.472z"/>
<path d="M51.736,209.528C69.976,115.936,152.512,48,248,48c11.464,0,23.176,1.04,34.84,3.088l2.768-15.76
	C273.04,33.12,260.384,32,248,32C144.872,32,55.736,105.376,36.032,206.472L51.736,209.528z"/>
<path d="M369.216,69.216l-8.984,13.232C415.184,119.784,448,181.664,448,248c0,95.488-67.928,178.024-161.528,196.264l3.064,15.704
	C390.624,440.272,464,351.12,464,248C464,176.36,428.568,109.528,369.216,69.216z"/>
<path d="M248,104c-23.4,0-46.688,5.8-67.36,16.76l7.504,14.136C206.504,125.152,227.208,120,248,120c70.576,0,128,57.424,128,128
	c0,6.184-0.576,12.832-1.776,20.304l15.8,2.52C391.352,262.504,392,255.04,392,248C392,168.6,327.4,104,248,104z"/>
<path d="M120.76,180.64C109.8,201.32,104,224.608,104,248c0,79.4,64.6,144,144,144c38.28,0,74.336-14.88,101.512-41.888
	l-11.28-11.352C314.08,362.776,282.032,376,248,376c-70.576,0-128-57.424-128-128c0-21.08,5.008-41.224,14.896-59.856L120.76,180.64
	z"/>
<rect x="168" width="16" height="16"/>
<rect x="328" y="480" width="16" height="16"/>
<rect y="376" width="16" height="16"/>
<rect x="480" y="336" width="16" height="16"/>
<rect x="48" y="392" width="16" height="16"/>
<rect x="32" y="408" width="16" height="16"/>
<rect x="48" y="424" width="16" height="16"/>
<rect x="64" y="408" width="16" height="16"/>
<rect x="464" width="16" height="16"/>
<rect x="448" y="16" width="16" height="16"/>
<rect x="464" y="32" width="16" height="16"/>
<rect x="480" y="16" width="16" height="16"/>
<rect x="32" y="16" width="16" height="16"/>
<rect x="16" y="32" width="16" height="16"/>
<rect x="32" y="48" width="16" height="16"/>
<rect x="48" y="32" width="16" height="16"/>
<g>
</g>
<g>
</g>
<g>
</g>
<g>
</g>
<g>
</g>
<g>
</g>
<g>
</g>
<g>
</g>
<g>
</g>
<g>
</g>
<g>
</g>
<g>
</g>
<g>
</g>
<g>
</g>
<g>
</g>
</svg>
