<svg height="502.24pt" viewBox="0 0 502.24 502.24" width="502.24pt" xmlns="http://www.w3.org/2000/svg"><path d="m491.3125 51.3125-32 48-56-56 48-32c11.039062 0 21.039062 4.480469 28.320312 11.679688 7.199219 7.28125 11.679688 17.28125 11.679688 28.320312zm0 0" fill="#ffeaa7"/><path d="m467.3125 107.3125-32 32-72-72 32-32zm0 0" fill="#b4dd7f"/><path d="m387.3125 187.3125-175.601562 175.597656-72-72 175.601562-175.597656zm0 0" fill="#e6e9ed"/><path d="m243.3125 235.316406 72-72 24 24-72 72zm0 0" fill="#b4dd7f"/><path d="m411.3125 211.3125-144 144-31.601562 31.597656-24-24 175.601562-175.597656zm0 0" fill="#aab2bd"/><path d="m315.3125 115.3125-175.601562 175.597656-24-24 31.601562-31.597656 144-144zm0 0" fill="#aab2bd"/><path d="m211.710938 362.910156 24 24-.320313.480469-16 47.921875h-.078125l-152-152 48-16 .398438-.402344zm0 0" fill="#e6e9ed"/><path d="m411.3125 115.3125-24 72-72-72 72-24zm0 0" fill="#e6e9ed"/><path d="m435.3125 139.3125-24 72-24-24 24-72zm0 0" fill="#ccd1d9"/><path d="m387.3125 91.3125-72 24-24-24 72-24zm0 0" fill="#ccd1d9"/><path d="m219.3125 435.3125h.078125v.078125l-32.078125 31.921875-152-152 32-32zm0 0" fill="#b4dd7f"/><path d="m359.304688 447.308594 44-43.996094 43.601562 43.601562-44 44zm0 0" fill="#4fc1e9"/><path d="m311.304688 399.308594 44-44 47.996093 48-43.996093 44zm0 0" fill="#69d6f4"/><path d="m355.304688 355.308594 44-43.996094 47.996093 47.996094-43.996093 44zm0 0" fill="#4fc1e9"/><path d="m403.304688 403.3125 44-44 43.601562 43.601562-44 44zm0 0" fill="#69d6f4"/><path d="m311.308594 311.3125 44-44 43.996094 44-43.996094 44zm0 0" fill="#69d6f4"/><path d="m267.308594 355.3125 44-44 43.996094 44-43.996094 43.996094zm0 0" fill="#4fc1e9"/><path d="m147.3125 147.3125 43.996094-44 44 44-44 44zm0 0" fill="#69d6f4"/><path d="m99.308594 99.308594 44-43.996094 47.996094 47.996094-43.996094 44zm0 0" fill="#4fc1e9"/><path d="m55.308594 143.308594 44-44 47.996094 48-43.996094 44zm0 0" fill="#69d6f4"/><path d="m103.3125 191.3125 43.996094-44 44 44-44 43.996094zm0 0" fill="#4fc1e9"/><path d="m11.3125 99.3125 44-44 43.996094 44-43.996094 43.996094zm0 0" fill="#4fc1e9"/><path d="m55.3125 55.3125 44-44 43.996094 44-43.996094 44zm0 0" fill="#69d6f4"/><path d="m38.054688 464.566406c-24.949219-24.957031-24.949219-65.558594 0-90.511718l-11.3125-11.3125c-31.183594 31.195312-31.183594 81.945312 0 113.136718 15.59375 15.601563 36.089843 23.394532 56.570312 23.394532s40.976562-7.800782 56.566406-23.394532l-11.3125-11.3125c-24.949218 24.953125-65.558594 24.953125-90.511718 0zm0 0"/><path d="m49.375 385.367188c-9.070312 9.074218-14.0625 21.121093-14.0625 33.945312s4.992188 24.871094 14.0625 33.945312c9.066406 9.0625 21.113281 14.054688 33.9375 14.054688s24.871094-4.992188 33.933594-14.054688l-11.308594-11.3125c-12.097656 12.085938-33.160156 12.085938-45.25 0-6.046875-6.050781-9.375-14.089843-9.375-22.632812s3.328125-16.585938 9.375-22.632812zm0 0"/><path d="m402.929688 502.238281 99.308593-99.308593-135.613281-135.617188 51.679688-51.679688 24.007812-72.007812 36.3125-36.3125-9.015625-9.015625 29.703125-44.5625v-2.421875c0-26.472656-21.527344-48-48-48h-2.425781l-44.558594 29.703125-9.015625-9.015625-36.320312 36.320312-72 24-51.679688 51.679688-136-136-99.3125 99.3125 136 136-25.007812 25.007812-48 16-38.992188 38.992188 163.335938 163.335938 39.0625-38.921876 16.089843-48.285156 24.824219-24.816406zm-179.898438-139.335937 164.28125-164.277344 12.6875 12.6875-164.28125 164.28125zm149.464844-275.085938-55.023438 18.34375-11.351562-11.351562 55.023437-18.34375zm-42.375 30.992188 55.03125-18.34375 17.007812 17.007812-18.34375 55.023438zm45.878906 68.503906-164.28125 164.28125-60.6875-60.691406 164.28125-164.277344zm-64.6875 135.3125 32.6875 32.6875-32.6875 32.6875-32.6875-32.6875zm80.6875 80.6875-32.6875 32.6875-36.6875-36.6875 32.6875-32.6875zm-25.375-48 32.6875-32.6875 36.6875 36.6875-32.6875 32.6875zm4 92 32.6875-32.6875 32.304688 32.304688-32.6875 32.6875zm76.304688-11.695312-32.304688-32.304688 32.6875-32.6875 32.304688 32.304688zm-58.929688-124.304688-32.6875 32.6875-32.6875-32.6875 32.6875-32.6875zm19.816406-114.808594-11.351562-11.351562 18.34375-55.03125 11.351562 11.351562zm45.792969-177.113281c15.824219 1.128906 28.496094 13.800781 29.621094 29.617187l-25.167969 37.746094-42.191406-42.203125zm2.390625 87.921875-20.6875 20.6875-60.6875-60.6875 20.6875-20.6875zm-264.6875 72.6875-32.6875-32.6875 32.6875-32.6875 32.6875 32.6875zm-80.6875-80.6875 32.6875-32.6875 36.6875 36.6875-32.6875 32.6875zm25.375 48-32.6875 32.6875-36.6875-36.6875 32.6875-32.6875zm-4-92-32.6875 32.6875-32.6875-32.6875 32.6875-32.6875zm-76.6875 11.3125 32.6875 32.6875-32.6875 32.6875-32.6875-32.6875zm59.3125 124.6875 32.6875-32.6875 32.6875 32.6875-32.6875 32.6875zm176.6875-88.6875 12.6875 12.6875-164.28125 164.28125-12.6875-12.691406zm-244.6875 212.6875 20.6875-20.6875 140.765625 140.765625-20.726563 20.648437zm169.277344 105.289062-133.78125-133.792968 31.640625-10.542969 112.695312 112.695313zm0 0"/><path d="m350.625 187.3125-35.3125-35.3125-83.3125 83.3125 35.3125 35.3125zm-35.3125-12.6875 12.6875 12.6875-60.6875 60.6875-12.6875-12.6875zm0 0"/><path d="m173.648438 288.964844 11.316406-11.3125 39.996094 40-11.3125 11.3125zm0 0"/><path d="m197.648438 264.964844 11.316406-11.3125 39.996094 40-11.3125 11.3125zm0 0"/></svg>