<svg height="496pt" viewBox="0 0 496.41184 496" width="496pt" xmlns="http://www.w3.org/2000/svg"><path d="m160.285156 409.804688c40.636719-28.160157 87.597656-67.757813 134.636719-114.796876 47.121094-47.121093 86.722656-94.160156 114.960937-134.800781 38.800782-55.921875 55.921876-99.679687 40.960938-114.640625-14.960938-14.960937-58.71875 2.160156-114.640625 40.960938-10.878906-5.921875-22.480469-10.800782-34.640625-14.480469 50.320312-37.039063 99.359375-63.839844 133.519531-63.839844 19.511719 0 31.679688 8 38.402344 14.71875 33.4375 33.519531 3.597656 91.359375-21.761719 132-8 12.800781-17.199218 26.160157-27.367187 40-28.71875 39.121094-65.511719 81.441407-106.800781 122.640625-36.160157 36.238282-79.917969 75.199219-122.71875 106.71875-50.3125 37.121094-99.351563 63.921875-133.511719 63.921875-9.761719 0-17.679688-2-24-4.800781-6.320313-2.878906-11.039063-6.558594-14.402344-9.921875-33.4375-33.519531-3.597656-91.359375 21.761719-132 8.085937-12.796875 17.199218-26.238281 27.367187-40 3.679688 12.160156 8.550781 23.839844 14.550781 34.722656h-.078124c-38.800782 55.917969-55.921876 99.679688-40.960938 114.640625 14.960938 14.957032 58.722656-2.160156 114.722656-41.042968zm0 0" fill="#fcd770"/><path d="m424.355469 194.925781c5.128906 16.878907 7.847656 34.800781 7.847656 53.28125 0 101.597657-82.398437 184-184 184-18.558594 0-36.480469-2.722656-53.359375-7.839843v-.082032c42.800781-31.519531 86.558594-70.480468 122.71875-106.71875 41.28125-41.199218 78.082031-83.519531 106.792969-122.640625zm0 0" fill="#cf9e76"/><path d="m354.203125 97.804688c23.039063 16.160156 42.152344 37.519531 55.679687 62.402343-28.238281 40.640625-67.839843 87.679688-114.960937 134.800781-47.039063 47.039063-94 86.636719-134.636719 114.796876-24.800781-13.4375-46.234375-32.640626-62.480468-55.597657 54.480468-12.882812 110.957031-46.242187 160.550781-95.839843 40.726562-40.640626 71.046875-86.5625 87.601562-132.722657 3.367188-9.277343 6.085938-18.636719 8.246094-27.839843zm0 0" fill="#cf9e76"/><path d="m336.203125 86.527344c6.238281 3.4375 12.238281 7.199218 18 11.277344-2.160156 9.203124-4.878906 18.5625-8.238281 27.839843-16.554688 46.160157-46.875 92.082031-87.601563 132.722657-49.601562 49.597656-106.078125 82.957031-160.558593 95.839843-4.082032-5.761719-7.761719-11.761719-11.203126-18-6-10.882812-10.871093-22.5625-14.550781-34.722656-.726562-2.320313-1.367187-4.636719-1.917969-7.039063h.078126c46.082031-7.121093 98-36.398437 142.960937-81.28125 33.597656-33.597656 59.359375-72.398437 72.640625-109.199218 4.160156-11.519532 6.957031-22.878906 8.550781-33.839844v-.078125c2.488281.640625 4.878907 1.277344 7.199219 2 12.160156 3.679687 23.761719 8.558594 34.640625 14.480469zm0 0" fill="#ecc19c"/><path d="m294.355469 70.046875v.078125c-1.59375 10.960938-4.398438 22.320312-8.550781 33.839844-13.28125 36.800781-39.042969 75.601562-72.640626 109.199218-44.960937 44.882813-96.878906 74.160157-142.960937 81.28125h-.078125c-3.839844-14.800781-5.921875-30.320312-5.921875-46.238281 0-6 .320313-12 .878906-17.839843 30.554688-6.160157 68.640625-28.320313 102.800781-62.480469 34.160157-34.160157 56.320313-72.242188 62.472657-102.800781 5.847656-.558594 11.847656-.878907 17.847656-.878907 15.921875 0 31.441406 2 46.152344 5.839844zm0 0" fill="#cf9e76"/><path d="m230.355469 65.085938c-6.152344 30.558593-28.3125 68.640624-62.472657 102.800781-34.160156 34.160156-72.238281 56.320312-102.800781 62.480469 8.402344-87.359376 77.921875-156.882813 165.273438-165.28125zm0 0" fill="#ecc19c"/><path d="m479.117188 17.300781c-7.792969-7.800781-21.761719-17.09375-44.035157-17.09375-32.214843 0-77.664062 21.269531-135.070312 63.125-16.632813-4.652343-34.03125-7.125-51.808594-7.125-105.863281 0-192 86.125-192 192 0 17.734375 2.449219 35.09375 7.089844 51.695313-9.371094 12.871094-17.914063 25.414062-25.355469 37.320312-26.839844 42.933594-58.175781 104.367188-20.644531 141.886719 7.789062 7.792969 21.757812 17.089844 44.039062 17.097656 37.824219 0 88.335938-28.761719 135.238281-63.136719 16.746094 4.671876 34.082032 7.136719 51.632813 7.136719 105.863281 0 192-86.128906 192-192 0-17.554687-2.464844-34.890625-7.136719-51.640625 9.367188-12.863281 17.90625-25.382812 25.402344-37.382812 26.847656-42.9375 58.183594-104.363282 20.648438-141.882813zm-333.90625 392.96875c-3.839844 2.542969-7.71875 5.160157-11.457032 7.496094-49.941406 31.207031-75.664062 34.265625-82.511718 27.417969-8.453126-8.457032-.542969-40.65625 34.921874-94.152344 14.910157 23.511719 34.878907 43.871094 59.046876 59.238281zm14.578124-9.96875c-18.808593-10.949219-35.128906-25.023437-48.402343-41.4375 52.480469-15.097656 106.257812-48.402343 152.664062-94.816406 41.511719-41.503906 72.464844-88.441406 89.472657-135.703125 2.015624-5.59375 3.769531-11.25 5.375-16.921875 16.394531 13.265625 30.464843 29.566406 41.410156 48.351563-28.53125 40.496093-66.960938 85.488281-111 129.527343-44.042969 44.050781-89.035156 82.472657-129.519532 111zm250.476563-255.085937c-15.367187-24.160156-35.734375-44.128906-59.253906-59.050782 53.511719-35.476562 85.703125-43.359374 94.152343-34.925781 6.855469 6.855469 3.800782 32.582031-27.410156 82.511719-2.328125 3.734375-4.941406 7.617188-7.488281 11.464844zm-65.238281-43.898438c-1.863282 7.226563-3.992188 14.472656-6.558594 21.609375-16.226562 45.0625-45.875 89.960938-85.738281 129.816407-46.214844 46.214843-99.785157 78.785156-151.4375 92.273437-9.007813-13.671875-16.082031-28.578125-20.992188-44.296875 45.6875-9.617188 95.644531-39.074219 138.488281-81.914062 34.40625-34.398438 60.855469-74.222657 74.496094-112.136719 3.140625-8.726563 5.628906-17.558594 7.421875-26.351563 15.734375 4.914063 30.640625 11.984375 44.320313 21zm-60-25.183594c-1.648438 8.367188-3.785156 16.777344-6.785156 25.121094-12.855469 35.734375-37.984376 73.464844-70.757813 106.238282-40.984375 40.984374-88.410156 68.960937-131.320313 77.722656-2.578124-12.03125-3.960937-24.410156-3.960937-37.007813 0-3.890625.167969-7.730469.425781-11.554687 31.886719-8.199219 69.085938-31.292969 100.910156-63.117188 31.816407-31.824218 54.914063-69.023437 63.121094-100.914062 3.816406-.246094 7.664063-.414063 11.542969-.414063 12.535156 0 24.855469 1.367188 36.824219 3.925781zm-65.40625-1.566406c-8.730469 27.832032-29.503906 59.777344-57.394532 87.664063-27.894531 27.886719-59.839843 48.671875-87.664062 57.398437 12.167969-74.191406 70.871094-132.894531 145.058594-145.0625zm204.582031 173.640625c0 97.046875-78.953125 176-176 176-11.847656 0-23.574219-1.265625-35.070313-3.59375 51.320313-39.648437 95.664063-82.917969 110.109376-97.367187 36.847656-36.839844 70.058593-74.519532 97.378906-110.113282 2.316406 11.496094 3.582031 23.226563 3.582031 35.074219zm-112.273437 63.726563c-83.75 83.761718-193.71875 168.273437-250.605469 168.273437-16.800781-.007812-27.066407-6.753906-32.722657-12.410156-29.460937-29.453125-1.039062-83.789063 22.898438-122.09375 5.464844-8.738281 11.558594-17.855469 18.136719-27.191406 2.285156 5.8125 4.773437 11.550781 7.613281 17.101562-29.933594 43.832031-59.390625 98.808594-37.328125 120.871094 5.167969 5.167969 12.3125 7.753906 21.410156 7.753906 18.773438 0 45.832031-11 80.894531-32.90625 47.601563-29.75 103.847657-76.167969 158.394532-130.710937 54.542968-54.542969 100.957031-110.792969 130.710937-158.390625 32.527344-52.046875 41-86.472657 25.160157-102.3125-22.03125-22.054688-77.039063 7.40625-120.882813 37.335937-5.519531-2.824218-11.214844-5.304687-17-7.585937 49.632813-35 89.738281-53.460938 116.472656-53.460938 16.792969 0 27.058594 6.742188 32.722657 12.40625 29.460937 29.457031 1.039062 83.792969-22.898438 122.097657-30.375 48.589843-77.597656 105.847656-132.976562 161.222656zm0 0"/><path d="m263.371094 391.414062 1.65625 15.910157c5.632812-.589844 11.296875-1.484375 16.839844-2.671875l-3.335938-15.644532c-5 1.070313-10.097656 1.878907-15.160156 2.40625zm0 0"/><path d="m298.722656 400.0625c53.527344-17.800781 94.121094-63.082031 105.921875-118.175781l-15.640625-3.351563c-10.625 49.574219-47.160156 90.328125-95.328125 106.351563zm0 0"/><path d="m248.203125 208.207031h16v16h-16zm0 0"/><path d="m160.203125 360.207031h16v16h-16zm0 0"/><path d="m344.203125 176.207031h16v16h-16zm0 0"/><path d="m160.203125 112.207031h16v16h-16zm0 0"/></svg>