<?xml version="1.0" encoding="iso-8859-1"?>
<!-- Generator: Adobe Illustrator 19.0.0, SVG Export Plug-In . SVG Version: 6.00 Build 0)  -->
<svg version="1.1" id="Capa_1" xmlns="http://www.w3.org/2000/svg" xmlns:xlink="http://www.w3.org/1999/xlink" x="0px" y="0px"
	 viewBox="0 0 499.096 499.096" style="enable-background:new 0 0 499.096 499.096;" xml:space="preserve">
<path style="fill:#D3A06C;" d="M431.544,404.252c-2.568-15.408-15.896-26.704-31.52-26.704c-16.424,0-30.168-12.44-31.8-28.784
	l-2.248-22.44c-1.632-16.336-15.384-28.776-31.808-28.776h-45.44c-13.072,0-24.824,7.96-29.672,20.088l-39.96,99.912v72h216v-64
	L431.544,404.252z"/>
<path style="fill:#B27946;" d="M435.096,425.548l-2.664-16H310.304c-10.84,0-21.488,3.728-29.968,10.504l-39.256,31.416l9.52,38.08
	h184.496V425.548z"/>
<path style="fill:#48C397;" d="M249.568,436.972c-3.944-11.84-14.416-20.304-26.824-21.688l-51.648-5.736h-64l-51.648,5.736
	c-12.408,1.376-22.88,9.84-26.824,21.688l-17.528,52.576h256L249.568,436.972z"/>
<path style="fill:#0FA196;" d="M222.744,415.284l-51.648-5.736h-16v8l55.408,18.472c10.208,3.4,17.696,12.168,19.464,22.776
	l5.128,30.752h32l-17.528-52.576C245.624,425.132,235.152,416.668,222.744,415.284z"/>
<path style="fill:#48C397;" d="M91.096,433.548L91.096,433.548c14.992-9.992,24-26.824,24-44.848v-11.152h48V388.7
	c0,18.024,9.008,34.848,24,44.848l0,0H91.096z"/>
<path style="fill:#0FA196;" d="M115.096,377.548V388.7c0,2.528-0.216,5.016-0.568,7.48c7.6,3.432,15.912,5.368,24.568,5.368
	s16.968-1.936,24.568-5.368c-0.352-2.464-0.568-4.952-0.568-7.48v-11.152H115.096z"/>
<path style="fill:#48C397;" d="M139.096,385.548L139.096,385.548c-14.944,0-28.856-7.64-36.888-20.248L71.6,317.204
	c-8.168-12.84-12.504-27.736-12.504-42.952v-0.704c0-44.184,35.816-80,80-80l0,0c44.184,0,80,35.816,80,80v0.704
	c0,15.216-4.336,30.112-12.504,42.952L175.984,365.3C167.952,377.908,154.04,385.548,139.096,385.548z"/>
<path style="fill:#0FA196;" d="M187.096,273.548c0,45.016-7.904,78.088-12.6,93.784c0.488-0.68,1.032-1.32,1.48-2.032l30.608-48.096
	c8.176-12.84,12.512-27.736,12.512-42.952v-0.704c0-44.184-35.816-80-80-80C139.096,193.548,187.096,225.548,187.096,273.548z"/>
<circle style="fill:#ECECEC;" cx="371.096" cy="129.548" r="120"/>
<path style="fill:#B6C1CE;" d="M371.096,9.548c-5.44,0-10.752,0.488-16,1.192c58.688,7.84,104,57.976,104,118.808
	s-45.312,110.968-104,118.808c5.248,0.704,10.56,1.192,16,1.192c66.272,0,120-53.728,120-120S437.368,9.548,371.096,9.548z"/>
<g>
	<path style="fill:#FCD770;" d="M114.512,274.436c-10.104-10.224-23.2-13.544-29.264-7.408c-6.064,6.136-2.784,19.4,7.32,29.632
		c10.104,10.224,23.2,13.544,29.264,7.408S124.616,284.668,114.512,274.436z"/>
	<path style="fill:#FCD770;" d="M163.68,274.436c10.104-10.224,23.2-13.544,29.264-7.408c6.064,6.136,2.784,19.4-7.32,29.632
		c-10.104,10.224-23.2,13.544-29.264,7.408C150.304,297.932,153.576,284.668,163.68,274.436z"/>
</g>
<path style="fill:#EABD8C;" d="M482.384,447.404c-4.352-13.056-16.568-21.856-30.328-21.856H310.304c-7.256,0-14.296,2.472-19.968,7
	l-31.24,25l8,32h224v-16L482.384,447.404z"/>
<g>
	<circle style="fill:#FCD770;" cx="187.096" cy="33.548" r="16"/>
	<circle style="fill:#FCD770;" cx="27.096" cy="177.548" r="16"/>
</g>
<path d="M127.52,309.692c9.264-9.376,6.056-27.336-7.32-40.872c-7.96-8.056-17.944-12.864-26.72-12.864
	c-5.584,0-10.4,1.888-13.928,5.464c-9.264,9.384-6.048,27.336,7.32,40.872c7.96,8.056,17.952,12.872,26.728,12.872
	C119.184,315.148,124,313.26,127.52,309.692z M90.936,272.652c0.608-0.608,1.848-0.704,2.544-0.704
	c3.384,0,9.424,2.128,15.336,8.112c7.904,8,9.224,16.456,7.32,18.392c-0.608,0.608-1.848,0.704-2.536,0.704
	c-3.384,0-9.432-2.128-15.344-8.112C90.352,283.036,89.032,274.588,90.936,272.652z"/>
<path d="M164.592,315.148c8.776,0,18.768-4.816,26.728-12.872c13.368-13.528,16.584-31.488,7.32-40.872
	c-3.528-3.576-8.344-5.464-13.928-5.464c-8.776,0-18.768,4.816-26.72,12.864c-13.368,13.536-16.584,31.496-7.32,40.872
	C154.192,313.26,159.008,315.148,164.592,315.148z M169.368,280.052c5.912-5.984,11.96-8.112,15.336-8.112
	c0.688,0,1.936,0.096,2.544,0.704c1.912,1.936,0.584,10.384-7.32,18.384c-5.912,5.992-11.96,8.112-15.344,8.112
	c-0.688,0-1.936-0.096-2.536-0.704C160.144,296.508,161.464,288.06,169.368,280.052z"/>
<rect x="131.096" y="337.548" width="16" height="16"/>
<path d="M371.096,257.548c70.576,0,128-57.424,128-128s-57.424-128-128-128s-128,57.424-128,128S300.52,257.548,371.096,257.548z
	 M371.096,17.548c41.344,0,77.448,22.584,96.848,56h-13.536c-5.08,0-10.064-2.064-13.656-5.656
	c-6.664-6.672-15.536-10.344-24.968-10.344h-1.376c-9.432,0-18.304,3.672-24.968,10.344c-3.592,3.592-8.576,5.656-13.656,5.656
	h-20.688v16h20.688c9.432,0,18.304-3.672,24.968-10.344c3.592-3.592,8.576-5.656,13.656-5.656h1.376
	c5.08,0,10.064,2.064,13.656,5.656c6.664,6.672,15.536,10.344,24.968,10.344h21.176c4.784,12.44,7.512,25.896,7.512,40
	c0,11.12-1.68,21.848-4.72,32h-43.28v16h37.04c-18.024,37.776-56.472,64-101.04,64s-83.016-26.224-101.04-64h13.264
	c17.712,0,33.648-9.84,41.568-25.688c1.944-3.896,5.856-6.312,10.208-6.312s8.264,2.416,10.208,6.312
	c7.928,15.848,23.856,25.688,41.568,25.688h32.224v-16h-32.224c-11.616,0-22.056-6.456-27.256-16.84
	c-4.672-9.352-14.064-15.16-24.52-15.16s-19.848,5.808-24.52,15.16c-5.2,10.384-15.64,16.84-27.256,16.84h-19.504
	c-3.04-10.152-4.72-20.88-4.72-32C259.096,67.788,309.336,17.548,371.096,17.548z"/>
<rect x="323.096" y="73.548" width="16" height="16"/>
<rect x="19.096" y="1.548" width="16" height="16"/>
<rect x="3.096" y="17.548" width="16" height="16"/>
<rect x="19.096" y="33.548" width="16" height="16"/>
<rect x="35.096" y="17.548" width="16" height="16"/>
<path d="M452.064,417.548h-10.192l-2.44-14.608c-3.216-19.352-19.792-33.392-39.408-33.392c-12.36,0-22.616-9.28-23.84-21.576
	l-2.24-22.44c-2.056-20.512-19.152-35.984-39.776-35.984h-45.432c-16.44,0-31,9.856-37.104,25.12l-36.68,91.704l-41.896-4.656
	c-1.24-4.176-1.96-8.536-1.96-13.008v-6.32c4.48-3.544,8.456-7.792,11.64-12.784l30.608-48.104
	c8.992-14.152,13.752-30.488,13.752-47.952c0-48.52-39.48-88-88-88s-88,39.48-88,88.704c0,16.76,4.76,33.096,13.76,47.24
	l30.608,48.104c3.176,4.992,7.16,9.24,11.64,12.784v6.32c0,4.48-0.72,8.84-1.952,13.016l-50.584,5.616
	c-15.456,1.712-28.616,12.352-33.528,27.104L0,497.548h267.096h11.096h220.904v-25.296l-9.128-27.376
	C484.52,428.532,469.288,417.548,452.064,417.548z M288.736,305.548h45.432c12.36,0,22.616,9.28,23.84,21.576l2.24,22.44
	c0.136,1.376,0.512,2.656,0.776,3.984h-37.928v16h44.944c7.304,9.768,18.92,16,31.984,16c11.76,0,21.696,8.424,23.632,20.024
	l1.992,11.976H310.304c-9.04,0-17.904,3.112-24.96,8.76l-24.392,19.512l-3.792-11.376c-4.096-12.28-13.944-21.632-26.032-25.432
	l2.984-7.464h56.984v-16h-50.584l19.2-48h47.384v-16h-40.984l0.376-0.944C270.144,311.46,278.88,305.548,288.736,305.548z
	 M78.352,312.908c-7.36-11.576-11.256-24.944-11.256-39.36c0-39.696,32.304-72,72-72s72,32.304,72,72.704
	c0,13.712-3.896,27.08-11.256,38.656l-30.608,48.096c-6.592,10.36-17.856,16.544-30.136,16.544s-23.544-6.184-30.136-16.536
	L78.352,312.908z M209.344,481.548l-6.488-25.944l-15.52,3.88l5.512,22.064H85.344l5.512-22.056l-15.52-3.88l-6.488,25.936H22.192
	l14.016-42.04c2.952-8.848,10.848-15.24,20.12-16.272l39.432-4.384c-2.64,3.024-5.664,5.752-9.096,8.04l8.872,13.312
	c16.648-11.096,26.728-29.416,27.424-49.312c5.136,1.68,10.544,2.656,16.136,2.656s11-0.976,16.136-2.664
	c0.704,19.896,10.784,38.216,27.424,49.32l8.872-13.312c-3.432-2.288-6.456-5.016-9.096-8.04l39.432,4.384
	c9.272,1.032,17.168,7.416,20.12,16.272L256,481.548H209.344z M483.096,481.548H272.864l-6.52-19.552l29-23.192
	c4.232-3.392,9.544-5.256,14.96-5.256h141.752c10.184,0,19.184,6.424,22.568,16h-31.528v16H480l3.096,9.296V481.548z"/>
<rect x="307.096" y="449.548" width="56" height="16"/>
<rect x="451.096" y="305.548" width="16" height="16"/>
<rect x="187.096" y="105.548" width="16" height="16"/>
<path d="M187.096,57.548c13.232,0,24-10.768,24-24s-10.768-24-24-24s-24,10.768-24,24S173.864,57.548,187.096,57.548z
	 M187.096,25.548c4.408,0,8,3.592,8,8s-3.592,8-8,8s-8-3.592-8-8S182.688,25.548,187.096,25.548z"/>
<path d="M27.096,201.548c13.232,0,24-10.768,24-24s-10.768-24-24-24s-24,10.768-24,24S13.864,201.548,27.096,201.548z
	 M27.096,169.548c4.408,0,8,3.592,8,8s-3.592,8-8,8s-8-3.592-8-8S22.688,169.548,27.096,169.548z"/>
<rect x="243.096" y="241.548" width="16" height="16"/>
<rect x="75.096" y="73.548" width="16" height="16"/>
<g>
</g>
<g>
</g>
<g>
</g>
<g>
</g>
<g>
</g>
<g>
</g>
<g>
</g>
<g>
</g>
<g>
</g>
<g>
</g>
<g>
</g>
<g>
</g>
<g>
</g>
<g>
</g>
<g>
</g>
</svg>
