<?xml version="1.0" encoding="iso-8859-1"?>
<!-- Generator: Adobe Illustrator 19.0.0, SVG Export Plug-In . SVG Version: 6.00 Build 0)  -->
<svg version="1.1" id="Capa_1" xmlns="http://www.w3.org/2000/svg" xmlns:xlink="http://www.w3.org/1999/xlink" x="0px" y="0px"
	 viewBox="0 0 496.008 496.008" style="enable-background:new 0 0 496.008 496.008;" xml:space="preserve">
<path style="fill:#FCD770;" d="M374.14,162.704c-3.112-13.456,20.048-35.912,14.096-48.048
	c-6.056-12.344-38.408-8.488-47.016-19.088c-8.648-10.656,2.328-40.8-8.504-49.312c-10.784-8.464-38.232,8.728-50.776,2.776
	c-12.352-5.856-15.736-37.736-29.424-40.792c-13.256-2.968-30.344,24.24-44.512,24.24S176.756,5.272,163.5,8.232
	c-13.688,3.056-17.072,34.936-29.424,40.792c-12.552,5.96-39.992-11.24-50.776-2.776c-10.832,8.504,0.144,38.656-8.504,49.312
	c-8.608,10.6-40.96,6.752-47.016,19.088c-5.96,12.144,17.2,34.592,14.088,48.056c-3.008,13.032-33.864,23.368-33.864,37.304
	c0,13.928,30.856,24.272,33.864,37.304c3.112,13.456-20.048,35.912-14.096,48.048c6.056,12.344,38.408,8.488,47.016,19.088
	c8.648,10.656-2.328,40.8,8.504,49.312c10.784,8.464,38.232-8.728,50.776-2.776c12.352,5.856,15.736,37.736,29.424,40.792
	c3.896,0.872,8.128-0.864,12.512-3.752l216-207.152C383.972,174.968,375.636,169.168,374.14,162.704z"/>
<path style="fill:#FFC729;" d="M328.004,144.008c-101.624,0-184,82.376-184,184c0,17.4,2.464,34.208,6.976,50.16
	c3.36,6.76,7.144,12.408,12.512,13.608c3.896,0.872,8.128-0.864,12.512-3.752l216-207.152c-8.032-5.904-16.368-11.704-17.864-18.168
	c-0.824-3.576,0.224-7.792,2.072-12.272C360.836,146.272,344.692,144.008,328.004,144.008z"/>
<path style="fill:#FEA82F;" d="M208.004,64.008c-75.112,0-136,60.888-136,136c0,61.192,40.408,112.944,96,130.024L340.22,168.008
	C325.828,108.336,272.092,64.008,208.004,64.008z"/>
<path style="fill:#FF8031;" d="M144.204,320.032c7.552,4.024,15.48,7.44,23.8,10L340.22,168.008c-2-8.304-4.84-16.272-8.288-23.904
	c-1.312-0.024-2.608-0.096-3.928-0.096C229.06,144.008,148.388,222.112,144.204,320.032z"/>
<circle style="fill:#ECECEC;" cx="328.004" cy="328.008" r="160"/>
<path style="fill:#B6C1CE;" d="M328.004,168.008c-6.792,0-13.432,0.56-20,1.384c78.904,9.856,140,77.04,140,158.616
	s-61.096,148.76-140,158.616c6.568,0.824,13.208,1.384,20,1.384c88.368,0,160-71.632,160-160S416.372,168.008,328.004,168.008z"/>
<path style="fill:#EABD8C;" d="M392.004,216.008c0,101.624-82.376,184-184,184c-7.96,0-15.792-0.56-23.488-1.544
	c9.216,18.736,21.952,35.368,37.4,49.088c121.648-7.2,218.088-108.088,218.088-231.544c0-0.744-0.048-1.48-0.056-2.224
	c-14.696-14.408-32.152-25.968-51.504-33.88C390.764,191.584,392.004,203.648,392.004,216.008z"/>
<path style="fill:#D3A06C;" d="M434.82,264.736c3.36-15.72,5.184-32.008,5.184-48.728c0-0.744-0.048-1.48-0.056-2.224
	c-14.696-14.408-32.152-25.968-51.504-33.88c1.728,8.664,2.848,17.552,3.312,26.608C410.236,222.28,425.044,242.136,434.82,264.736z
	"/>
<path d="M396.5,174.76l0.24-0.328l-1.336-0.976c-5.376-3.944-12.736-9.336-13.48-12.544c-0.816-3.504,3.536-11.712,6.72-17.712
	c5.744-10.832,11.68-22.032,6.76-32.056c-4.952-10.104-17.624-12.512-29.88-14.848c-6.696-1.28-15.864-3.024-18.096-5.76
	c-2.208-2.728-1.912-11.888-1.696-18.584c0.4-12.288,0.808-25-8.088-31.976c-8.76-6.888-21.16-3.704-33.136-0.632
	c-6.664,1.704-15.784,4.032-19.136,2.464c-3.152-1.496-6.888-9.816-9.616-15.888c-5.088-11.304-10.336-22.992-21.504-25.488
	c-10.68-2.384-20.424,5.68-29.776,13.504c-5.608,4.696-12.6,10.544-16.472,10.544s-10.856-5.848-16.48-10.544
	C182.18,6.112,172.5-1.976,161.756,0.432c-11.168,2.496-16.416,14.184-21.504,25.488c-2.728,6.072-6.472,14.392-9.616,15.888
	c-3.352,1.576-12.48-0.76-19.152-2.472c-11.976-3.08-24.376-6.256-33.136,0.624c-8.888,6.976-8.48,19.68-8.08,31.968
	c0.216,6.696,0.512,15.856-1.704,18.592c-2.224,2.736-11.4,4.488-18.104,5.76c-12.256,2.336-24.928,4.752-29.88,14.848
	c-4.912,10.024,1.016,21.224,6.76,32.056c3.176,6,7.528,14.216,6.72,17.712c-0.744,3.216-8.096,8.608-13.472,12.544
	c-10.104,7.424-20.584,15.104-20.584,26.568c0,11.456,10.48,19.136,20.608,26.568c5.368,3.936,12.72,9.328,13.464,12.536
	c0.816,3.504-3.536,11.712-6.72,17.712c-5.744,10.832-11.68,22.032-6.76,32.056c4.952,10.104,17.624,12.512,29.88,14.848
	c6.696,1.28,15.864,3.024,18.096,5.76c2.208,2.728,1.912,11.888,1.696,18.584c-0.4,12.288-0.808,25,8.088,31.976
	c8.752,6.88,21.152,3.696,33.136,0.632c6.68-1.712,15.808-4.032,19.152-2.472c3.152,1.496,6.888,9.816,9.616,15.888
	c5.088,11.304,10.336,22.992,21.496,25.488c1.24,0.28,2.504,0.424,3.8,0.424c3.064,0,6.296-0.864,9.704-2.448
	c26.52,57.984,84.936,98.448,152.744,98.448c92.632,0,168-75.36,168-168C496.004,259.784,455.052,201.04,396.5,174.76z
	 M165.236,383.976c-3.336-0.744-7.576-10.184-10.392-16.432c-4.368-9.712-8.88-19.768-17.352-23.784
	c-8.576-4.056-19.456-1.272-29.984,1.432c-6.256,1.608-16.72,4.296-19.28,2.28c-2.512-1.976-2.168-12.552-1.968-18.872
	c0.352-10.728,0.712-21.824-5.264-29.184c-5.904-7.28-16.896-9.368-27.52-11.392c-6.392-1.216-17.08-3.256-18.512-6.184
	c-1.32-2.696,3.592-11.976,6.528-17.512c5.08-9.584,10.328-19.488,8.176-28.816c-2.088-9-10.984-15.52-19.6-21.832
	c-5.256-3.864-14.064-10.328-14.064-13.672c0-3.352,8.808-9.808,14.064-13.664c8.616-6.312,17.512-12.84,19.6-21.84
	c2.152-9.32-3.104-19.224-8.168-28.808c-2.936-5.544-7.856-14.832-6.536-17.52c1.44-2.928,12.128-4.96,18.512-6.176
	c10.632-2.024,21.624-4.12,27.528-11.392c5.984-7.368,5.624-18.464,5.272-29.2c-0.208-6.32-0.552-16.888,1.96-18.864
	c2.536-2.008,13.024,0.672,19.28,2.288c10.512,2.696,21.424,5.488,29.984,1.432c8.472-4.016,12.984-14.064,17.352-23.784
	c2.816-6.248,7.056-15.68,10.4-16.432c3.024-0.728,11.168,6.112,16.008,10.16c8.384,7.016,17.056,14.272,26.744,14.272
	s18.36-7.256,26.752-14.28c4.84-4.056,12.856-10.904,16.016-10.16c3.336,0.744,7.576,10.184,10.392,16.432
	c4.368,9.712,8.88,19.768,17.352,23.784c8.584,4.064,19.464,1.28,29.984-1.432c6.256-1.6,16.744-4.272,19.28-2.28
	c2.512,1.976,2.168,12.552,1.968,18.872c-0.352,10.728-0.712,21.824,5.264,29.184c5.904,7.28,16.896,9.368,27.52,11.392
	c6.392,1.216,17.08,3.256,18.512,6.184c1.32,2.696-3.592,11.976-6.528,17.512c-5.08,9.584-10.328,19.488-8.168,28.816
	c0.008,0.032,0.024,0.056,0.032,0.088c-6.488-1.528-13.08-2.768-19.832-3.512c-17.36-62.088-73.52-105.072-138.544-105.072
	c-79.4,0-144,64.6-144,144c0,61.784,38.544,115.616,96.4,135.824c0.76,16.336,3.8,32.056,8.92,46.856
	C166.66,384.096,165.476,384.048,165.236,383.976z M160.468,318.904c-48.536-19.288-80.464-65.832-80.464-118.896
	c0-70.576,57.424-128,128-128c55.936,0,104.568,35.744,121.632,88.08c-0.552,0-1.08-0.08-1.632-0.08
	C238.444,160.008,165.236,230.512,160.468,318.904z M328.004,480.008c-31.776,0-61.272-9.832-85.696-26.568
	c74.512-10.6,139.424-55.128,176.2-122.08l-14.032-7.704c-36.808,67.024-103.816,110-179.696,115.616
	c-29.912-27.784-48.776-67.312-48.776-111.264c0-83.816,68.184-152,152-152c18.752,0,36.64,3.576,53.24,9.808
	c1.728,9.992,2.76,20.112,2.76,30.192c0,73.256-46.128,139.592-114.784,165.064l5.56,15
	c74.904-27.784,125.224-100.152,125.224-180.064c0-7.488-0.496-15-1.376-22.48c48.32,25.48,81.376,76.16,81.376,134.48
	C480.004,411.824,411.82,480.008,328.004,480.008z"/>
<path d="M410.588,311.696l14.472,6.832c2.296-4.856,4.448-9.832,6.392-14.784l-14.888-5.848
	C414.716,302.584,412.724,307.176,410.588,311.696z"/>
<path d="M238.62,389.352l2.768,15.76c5.592-0.984,11.216-2.224,16.704-3.704l-4.168-15.448
	C248.892,387.32,243.756,388.456,238.62,389.352z"/>
<rect x="288.004" y="248.008" width="16" height="16"/>
<rect x="208.004" y="296.008" width="16" height="16"/>
<rect x="392.004" y="400.008" width="16" height="16"/>
<rect x="272.004" y="320.008" width="16" height="16"/>
<g>
</g>
<g>
</g>
<g>
</g>
<g>
</g>
<g>
</g>
<g>
</g>
<g>
</g>
<g>
</g>
<g>
</g>
<g>
</g>
<g>
</g>
<g>
</g>
<g>
</g>
<g>
</g>
<g>
</g>
</svg>
