<svg height="496pt" viewBox="-4 0 496 496" width="496pt" xmlns="http://www.w3.org/2000/svg"><path d="m488 360c0 22.089844-17.910156 40-40 40s-40-17.910156-40-40 17.910156-40 40-40 40 17.910156 40 40zm0 0" fill="#ffeaa7"/><g fill="#fcd770"><path d="m304 472c0 8.835938-7.164062 16-16 16s-16-7.164062-16-16 7.164062-16 16-16 16 7.164062 16 16zm0 0"/><path d="m311.359375 43.679688c.402344 1.359374.640625 2.800781.640625 4.320312 0 8.800781-7.199219 16-16 16-6.078125 0-11.441406-3.441406-14.160156-8.558594-1.199219-2.242187-1.839844-4.722656-1.839844-7.441406 0-8.800781 7.199219-16 16-16 7.28125 0 13.519531 4.960938 15.359375 11.679688zm0 0"/><path d="m480 272c0 8.835938-7.164062 16-16 16s-16-7.164062-16-16 7.164062-16 16-16 16 7.164062 16 16zm0 0"/><path d="m56 424c8.800781 0 16 7.199219 16 16 0 3.921875-1.359375 7.441406-3.761719 10.238281-2.878906 3.523438-7.359375 5.761719-12.238281 5.761719-8.800781 0-16-7.199219-16-16 0-4.878906 2.238281-9.359375 5.761719-12.238281 2.796875-2.402344 6.316406-3.761719 10.238281-3.761719zm0 0"/><path d="m432 448c0 13.253906-10.746094 24-24 24s-24-10.746094-24-24 10.746094-24 24-24 24 10.746094 24 24zm0 0"/><path d="m216 40c0 8.835938-7.164062 16-16 16s-16-7.164062-16-16 7.164062-16 16-16 16 7.164062 16 16zm0 0"/><path d="m81.601562 234c7.359376 8.558594 18.238282 14 30.398438 14-22.078125 0-40 17.921875-40 40 0-8.960938-2.960938-17.28125-7.921875-23.921875-7.359375-9.757813-18.957031-16.078125-32.078125-16.078125 22.078125 0 40-17.921875 40-40 0 9.921875 3.601562 19.039062 9.601562 26zm0 0"/></g><path d="m347.28125 217.121094c-10-32.480469-35.601562-58.160156-68.082031-68.320313-9.839844-3.121093-20.320313-4.800781-31.199219-4.800781-57.441406 0-104 46.558594-104 104 0 10.878906 1.679688 21.359375 4.800781 31.199219 10.167969 32.480469 35.839844 58.082031 68.40625 68.082031 9.753907 3.117188 20.074219 4.71875 30.792969 4.71875 57.441406 0 104-46.558594 104-104 0-10.71875-1.601562-21.121094-4.71875-30.878906zm0 0" fill="#ff826e"/><path d="m288 296c0 8.800781-7.199219 16-16 16-3.28125 0-6.320312-.960938-8.878906-2.640625-4.242188-2.960937-7.121094-7.839844-7.121094-13.359375 0-8.800781 7.199219-16 16-16 5.839844 0 10.960938 3.121094 13.761719 7.839844 1.4375 2.398437 2.238281 5.199218 2.238281 8.160156zm0 0" fill="#fcd770"/><path d="m152 80c0 39.765625-32.234375 72-72 72s-72-32.234375-72-72 32.234375-72 72-72 72 32.234375 72 72zm0 0" fill="#fcd770"/><path d="m160 80c0-44.113281-35.886719-80-80-80s-80 35.886719-80 80 35.886719 80 80 80 80-35.886719 80-80zm-144 0c0-35.289062 28.710938-64 64-64s64 28.710938 64 64-28.710938 64-64 64-64-28.710938-64-64zm0 0"/><path d="m456 320h-16c0 17.648438-14.351562 32-32 32v16c17.648438 0 32 14.351562 32 32h16c0-17.648438 14.351562-32 32-32v-16c-17.648438 0-32-14.351562-32-32zm-8 53.519531c-3.558594-5.359375-8.160156-9.960937-13.519531-13.519531 5.359375-3.558594 9.960937-8.160156 13.519531-13.519531 3.558594 5.359375 8.160156 9.960937 13.519531 13.519531-5.359375 3.558594-9.960937 8.160156-13.519531 13.519531zm0 0"/><path d="m288 448c-13.230469 0-24 10.769531-24 24s10.769531 24 24 24 24-10.769531 24-24-10.769531-24-24-24zm0 32c-4.414062 0-8-3.585938-8-8s3.585938-8 8-8 8 3.585938 8 8-3.585938 8-8 8zm0 0"/><path d="m392.289062 103.710938c-24.640624-24.613282-86.960937 15.714843-115.183593 36.257812-9.296875-2.503906-19.027344-3.96875-29.105469-3.96875-61.761719 0-112 50.238281-112 112 0 10.078125 1.464844 19.808594 3.96875 29.113281-20.535156 28.214844-60.871094 90.558594-36.265625 115.175781 5.242187 5.238282 12.425781 7.621094 21.066406 7.621094 23.695313 0 58.351563-17.957031 93.992188-43.917968 9.34375 2.535156 19.109375 4.007812 29.238281 4.007812 61.761719 0 112-50.238281 112-112 0-9.9375-1.425781-19.527344-3.871094-28.710938 42.214844-57.664062 52.101563-99.632812 36.160156-115.578124zm-144.289062 48.289062c41.648438 0 77.078125 26.703125 90.34375 63.847656-14.128906 18.761719-31.617188 39.167969-52.582031 60.550782-3.90625-2.75-8.632813-4.398438-13.761719-4.398438-13.230469 0-24 10.769531-24 24 0 4.6875 1.40625 9.039062 3.742188 12.734375-12.582032 11.1875-24.621094 21.066406-35.933594 29.59375-37.128906-13.273437-63.808594-48.695313-63.808594-90.328125 0-52.9375 43.0625-96 96-96zm16 144c0-4.414062 3.585938-8 8-8s8 3.585938 8 8-3.585938 8-8 8-8-3.585938-8-8zm-148.976562 84.976562c-8.429688-8.433593.144531-40.089843 31.625-85.625 11.113281 23.6875 30.230468 42.824219 53.910156 53.953126-45.445313 31.367187-77.199219 40-85.535156 31.671874zm228.976562-132.976562c0 52.9375-43.0625 96-96 96-4.183594 0-8.273438-.359375-12.320312-.878906 9.769531-7.722656 19.472656-15.914063 28.945312-24.402344 2.335938.761719 4.78125 1.28125 7.375 1.28125 13.230469 0 24-10.769531 24-24 0-2.160156-.375-4.214844-.921875-6.207031 18.714844-18.890625 34.65625-36.800781 48.113281-53.625.480469 3.886719.808594 7.816406.808594 11.832031zm5.34375-47.359375c-11.128906-23.710937-30.289062-42.863281-54-53.992187 45.535156-31.496094 77.175781-40.046876 85.632812-31.625 8.953126 8.953124-1.097656 41.433593-31.632812 85.617187zm0 0"/><path d="m200 64c13.230469 0 24-10.769531 24-24s-10.769531-24-24-24-24 10.769531-24 24 10.769531 24 24 24zm0-32c4.414062 0 8 3.59375 8 8s-3.585938 8-8 8-8-3.59375-8-8 3.585938-8 8-8zm0 0"/><path d="m64 64c-4.414062 0-8-3.59375-8-8s3.585938-8 8-8 8 3.59375 8 8h16c0-13.230469-10.769531-24-24-24s-24 10.769531-24 24 10.769531 24 24 24zm0 0"/><path d="m423.359375 72.648438c-14.886719-14.886719-40.816406-20-72.734375-14.457032l2.75 15.769532c26.464844-4.617188 47.65625-1.023438 58.671875 10 11.082031 11.070312 14.632813 31.910156 10.015625 58.671874l15.769531 2.71875c5.609375-32.496093.609375-57.640624-14.472656-72.703124zm0 0"/><path d="m415.390625 169.121094c-.460937 1.421875-.933594 2.847656-1.429687 4.269531l15.128906 5.21875c.519531-1.519531 1.03125-3.042969 1.519531-4.5625 1.320313-4.070313 2.496094-8.070313 3.542969-11.992187l-15.472656-4.117188c-.960938 3.65625-2.0625 7.390625-3.289063 11.183594zm0 0"/><path d="m401.007812 204.503906 14.390626 6.992188c2.671874-5.488282 5.136718-10.96875 7.417968-16.40625l-14.769531-6.167969c-2.160156 5.167969-4.511719 10.367187-7.039063 15.582031zm0 0"/><path d="m445.984375 50.007812c-27.953125-27.960937-74.160156-33.511718-130.578125-16.015624-4.367188-6.023438-11.414062-9.992188-19.40625-9.992188-13.230469 0-24 10.769531-24 24 0 1.078125.175781 2.113281.320312 3.160156-44.199218 21.230469-88.382812 53.175782-128.183593 92.976563-23.664063 23.65625-44.359375 48.855469-62.046875 74.925781-1.289063-3.460938-2.089844-7.160156-2.089844-11.0625h-16c0 17.648438-14.351562 32-32 32v16c8.785156 0 16.742188 3.558594 22.527344 9.3125-32.75 64.589844-39.375 122.71875-18.511719 161.429688-2.527344 3.800781-4.015625 8.355468-4.015625 13.257812 0 13.230469 10.769531 24 24 24 4.855469 0 9.359375-1.472656 13.136719-3.953125 14.742187 7.929687 32.269531 11.753906 51.742187 11.753906 66.496094 0 155.367188-44.3125 230.984375-119.929687 111.015625-111.03125 152.359375-243.613282 94.121094-301.863282zm-149.984375-10.007812c4.414062 0 8 3.59375 8 8s-3.585938 8-8 8-8-3.59375-8-8 3.585938-8 8-8zm-224 194.480469c3.558594 5.359375 8.160156 9.960937 13.519531 13.519531-5.359375 3.558594-9.960937 8.160156-13.519531 13.519531-3.558594-5.359375-8.160156-9.960937-13.519531-13.519531 5.359375-3.558594 9.960937-8.160156 13.519531-13.519531zm-16 213.519531c-4.414062 0-8-3.585938-8-8s3.585938-8 8-8 8 3.585938 8 8-3.585938 8-8 8zm284.550781-107.449219c-90.34375 90.351563-203.015625 135.617188-261.726562 106.496094.695312-2.238281 1.175781-4.574219 1.175781-7.046875 0-13.230469-10.769531-24-24-24-2.457031 0-4.777344.480469-7 1.167969-15.65625-31.625-10.296875-80.199219 14.535156-133.777344.21875 1.511719.464844 3.035156.464844 4.609375h16c0-17.648438 14.351562-32 32-32v-16c-7.574219 0-14.449219-2.753906-19.9375-7.167969 17.785156-26.953125 38.984375-52.984375 63.386719-77.382812 38.640625-38.632813 81.4375-69.585938 124.144531-90.035157 4.292969 4.058594 10.046875 6.585938 16.40625 6.585938 12.769531 0 23.144531-10.046875 23.863281-22.648438 50.570313-15.777343 91.207031-11.632812 114.808594 11.96875 51.03125 51.039063 8.816406 176.304688-94.121094 279.230469zm0 0"/><path d="m408 416c-17.648438 0-32 14.351562-32 32s14.351562 32 32 32 32-14.351562 32-32-14.351562-32-32-32zm0 48c-8.824219 0-16-7.175781-16-16s7.175781-16 16-16 16 7.175781 16 16-7.175781 16-16 16zm0 0"/><path d="m104 112h-16c0 4.40625-3.585938 8-8 8s-8-3.59375-8-8h-16c0 13.230469 10.769531 24 24 24s24-10.769531 24-24zm0 0"/><path d="m128 80c0-13.230469-10.769531-24-24-24v16c4.414062 0 8 3.59375 8 8s-3.585938 8-8 8v16c13.230469 0 24-10.769531 24-24zm0 0"/><path d="m248 184v-16c-44.113281 0-80 35.886719-80 80h16c0-35.289062 28.710938-64 64-64zm0 0"/><path d="m440 272c0 13.230469 10.769531 24 24 24s24-10.769531 24-24-10.769531-24-24-24-24 10.769531-24 24zm32 0c0 4.414062-3.585938 8-8 8s-8-3.585938-8-8 3.585938-8 8-8 8 3.585938 8 8zm0 0"/></svg>