<?xml version="1.0" encoding="iso-8859-1"?>
<!-- Generator: Adobe Illustrator 19.0.0, SVG Export Plug-In . SVG Version: 6.00 Build 0)  -->
<svg version="1.1" id="Capa_1" xmlns="http://www.w3.org/2000/svg" xmlns:xlink="http://www.w3.org/1999/xlink" x="0px" y="0px"
	 viewBox="0 0 496 496" style="enable-background:new 0 0 496 496;" xml:space="preserve">
<circle style="fill:#148CE0;" cx="248" cy="248" r="240"/>
<path style="fill:#1261C5;" d="M248,8c-9.48,0-18.808,0.608-28,1.68C339.344,23.56,432,124.928,432,248s-92.656,224.44-212,238.32
	c9.192,1.072,18.52,1.68,28,1.68c132.552,0,240-107.448,240-240S380.552,8,248,8z"/>
<path style="fill:#48C397;" d="M288,11.384V43.08C288,59.056,275.056,72,259.08,72C248.544,72,240,80.544,240,91.08
	c0,7.8,4.752,14.816,11.992,17.72l21.968,8.792c3.768,1.504,6.512,4.808,7.312,8.792l3.28,16.384
	c1.784,8.912-5.04,17.232-14.136,17.232c-7.96,0-14.416,6.456-14.416,14.416v11.168c0,7.96,6.456,14.416,14.416,14.416H284
	c6.624,0,12,5.376,12,12c0,11.048,8.952,20,20,20h4c13.256,0,24-10.744,24-24v-12c0-11.048,8.952-20,20-20s20,8.952,20,20v32
	c0,28.72-23.28,52-52,52c-6.624,0-12,5.376-12,12v24c0,6.624-5.376,12-12,12s-12,5.376-12,12c0,18.2,5.768,35.928,16.472,50.648
	l2.064,2.84C328.48,412.656,350.752,424,374.464,424H408c1.144-0.08,2.192-0.112,3.28-0.168C458.448,380.008,488,317.472,488,248
	C488,129.088,401.496,30.432,288,11.384z"/>
<path style="fill:#0FA196;" d="M408,424c1.144-0.08,2.192-0.112,3.28-0.168C458.448,380.008,488,317.472,488,248
	c0-118.912-86.504-217.568-200-236.616v16.712C372.744,65.128,432,149.6,432,248c0,68.496-28.728,130.248-74.76,173.96
	c5.584,1.336,11.36,2.04,17.224,2.04H408z"/>
<g>
	<path style="fill:#48C397;" d="M100.464,287.44l15.384,25.648c2.576,4.288,7.216,6.912,12.216,6.912h1.688
		c7.872,0,14.248-6.376,14.248-14.248c0-1.168-0.144-2.328-0.424-3.456l-7.12-28.472c-0.304-1.208-0.456-2.456-0.456-3.712V239.32
		c0-8.456,6.864-15.32,15.32-15.32h41.352c8.464,0,15.328-6.864,15.328-15.32v-12.04c0-3.024-0.896-5.984-2.576-8.496l-10.856-16.28
		c-1.672-2.52-2.568-5.48-2.568-8.504v-28.04c0-8.456-6.864-15.32-15.32-15.32h-9.352c-8.464,0-15.328-6.864-15.328-15.32v-0.184
		c0-5.28,2.72-10.192,7.2-12.992l49.6-31c4.48-2.8,7.2-7.712,7.2-12.992v-9.168c0-4.064-1.616-7.96-4.488-10.832L200,16
		c-0.312-1.032-0.512-2.008-0.792-3.024C90.056,35.52,8,132.168,8,248c0,31.08,5.968,60.744,16.72,88h16.928
		c4.064,0,7.96-1.616,10.832-4.488l15.024-15.024c2.88-2.872,4.496-6.768,4.496-10.832v-10.328C72,286.864,78.864,280,87.32,280
		C92.704,280,97.696,282.824,100.464,287.44z"/>
	<path style="fill:#48C397;" d="M312,479.304V467.72c0-7.504-2.976-14.696-8.288-20l-7.432-7.432
		c-5.304-5.312-12.496-8.288-19.992-8.288h-13.144c-9.456,0-18.288-4.728-23.536-12.592l-18.856-28.28
		C217.656,386.48,216,381.024,216,375.44V348c0-11.048-8.952-20-20-20s-20,8.952-20,20v16.288c0,7.504-2.976,14.696-8.288,20
		l-7.432,7.432c-5.304,5.304-12.496,8.28-19.992,8.28C124.664,400,112,412.664,112,428.288V440v5.72
		C150.664,472.368,197.496,488,248,488C270.176,488,291.616,484.928,312,479.304z"/>
</g>
<path style="fill:#0FA196;" d="M312,479.304V467.72c0-3.72-0.744-7.352-2.128-10.728c-27,15.248-57.216,25.464-89.408,29.272
	C229.52,487.296,238.672,488,248,488C270.176,488,291.616,484.928,312,479.304z"/>
<path d="M248,0C111.256,0,0,111.256,0,248s111.256,248,248,248s248-111.256,248-248S384.744,0,248,0z M16,248
	C16,138.352,92.488,46.288,194.896,22.208l10.96,10.96c1.384,1.384,2.144,3.224,2.144,5.176v9.16c0,2.536-1.288,4.856-3.448,6.208
	l-49.592,31C148.096,89.008,144,96.4,144,104.672C144,117.536,154.464,128,167.328,128h9.352c4.032,0,7.32,3.288,7.32,7.328v28.032
	c0,4.624,1.352,9.104,3.92,12.936l10.856,16.288c0.8,1.2,1.224,2.608,1.224,4.056v12.032c0,4.04-3.288,7.328-7.328,7.328H151.32
	c-12.856,0-23.32,10.464-23.32,23.328v30.792c0,1.904,0.232,3.816,0.696,5.664l7.112,28.448c0.128,0.504,0.192,1.016,0.192,1.52
	c0,3.448-2.8,6.248-6.248,6.248h-1.688c-2.176,0-4.232-1.16-5.352-3.032l-15.384-25.64c-4.192-6.992-11.856-11.328-20-11.328
	C74.464,272,64,282.464,64,295.328v10.328c0,1.96-0.76,3.8-2.144,5.176l-15.024,15.024C45.448,327.24,43.608,328,41.656,328H30.224
	C21.032,303.048,16,276.104,16,248z M304,473.12c-17.944,4.472-36.696,6.88-56,6.88c-47.296,0-91.272-14.296-128-38.696v-13.016
	c0-11.184,9.104-20.288,20.288-20.288c9.688,0,18.808-3.776,25.656-10.632l7.432-7.432c6.848-6.848,10.624-15.96,10.624-25.648V348
	c0-6.616,5.384-12,12-12s12,5.384,12,12v27.44c0,7.184,2.112,14.152,6.096,20.128l18.848,28.28
	c6.744,10.12,18.032,16.16,30.192,16.16h13.152c5.416,0,10.512,2.112,14.344,5.944l7.432,7.432
	c3.824,3.816,5.936,8.912,5.936,14.328V473.12z M320,468.504v-0.792c0-9.688-3.776-18.808-10.632-25.656l-7.432-7.432
	c-6.848-6.848-15.96-10.624-25.648-10.624h-13.152c-6.8,0-13.112-3.376-16.88-9.032l-18.848-28.28
	c-2.232-3.344-3.408-7.232-3.408-11.248V348c0-15.44-12.56-28-28-28s-28,12.56-28,28v16.288c0,5.416-2.112,10.512-5.944,14.344
	l-7.432,7.432c-3.824,3.824-8.92,5.936-14.336,5.936C120.28,392,104,408.28,104,428.288v1.416
	C75.368,406.96,52.232,377.632,36.88,344h4.776c6.232,0,12.088-2.424,16.496-6.832l15.024-15.024
	c4.4-4.408,6.824-10.264,6.824-16.488v-10.328c0-4.04,3.288-7.328,7.328-7.328c2.56,0,4.968,1.36,6.28,3.56l15.384,25.64
	c4,6.664,11.304,10.808,19.072,10.808h1.688C142.016,328,152,318.016,152,305.752c0-1.808-0.224-3.616-0.664-5.4l-7.12-28.464
	c-0.144-0.576-0.216-1.176-0.216-1.776V239.32c0-4.032,3.288-7.32,7.328-7.32h41.352c12.856,0,23.32-10.464,23.32-23.328V196.64
	c0-4.624-1.352-9.104-3.92-12.936l-10.856-16.288c-0.8-1.2-1.224-2.6-1.224-4.056v-28.032C200,122.464,189.536,112,176.672,112
	h-9.352c-4.032,0-7.32-3.288-7.32-7.504c0-2.536,1.288-4.856,3.448-6.208l49.592-31C219.904,62.992,224,55.6,224,47.504v-9.16
	c0-6.232-2.424-12.088-6.832-16.496l-3.32-3.32C225,16.88,236.4,16,248,16c10.864,0,21.528,0.808,32,2.256V43.08
	C280,54.616,270.616,64,259.08,64C244.152,64,232,76.152,232,91.08c0,11.136,6.68,21,17.024,25.144l21.968,8.792
	c1.264,0.504,2.168,1.6,2.44,2.936l3.28,16.384c0.512,2.592-0.608,4.448-1.328,5.328c-0.728,0.864-2.328,2.336-4.968,2.336
	C258.056,152,248,162.056,248,174.416v11.168c0,12.36,10.056,22.416,22.416,22.416H284c2.208,0,4,1.792,4,4c0,15.44,12.56,28,28,28
	h4c17.648,0,32-14.352,32-32v-12c0-6.616,5.384-12,12-12s12,5.384,12,12v32c0,24.264-19.736,44-44,44c-11.024,0-20,8.976-20,20v24
	c0,2.208-1.792,4-4,4c-11.024,0-20,8.976-20,20c0,20.016,6.224,39.16,18,55.352l2.064,2.832c15.4,21.176,40.216,33.816,66.4,33.816
	h14.608C368.488,447.824,345.192,460.256,320,468.504z M407.752,416h-33.28c-21.08,0-41.064-10.176-53.464-27.224l-2.064-2.832
	C309.168,372.496,304,356.616,304,340c0-2.208,1.792-4,4-4c11.024,0,20-8.976,20-20v-24c0-2.208,1.792-4,4-4
	c33.088,0,60-26.912,60-60v-32c0-15.44-12.56-28-28-28s-28,12.56-28,28v12c0,8.824-7.176,16-16,16h-4c-6.616,0-12-5.384-12-12
	c0-11.024-8.976-20-20-20h-13.584c-3.536,0-6.416-2.88-6.416-6.416v-11.168c0-3.536,2.88-6.416,6.416-6.416
	c6.744,0,13.064-2.992,17.336-8.208c4.28-5.216,5.968-12,4.648-18.608l-3.28-16.376c-1.328-6.648-5.88-12.128-12.176-14.648
	l-21.968-8.792C250.736,99.672,248,95.64,248,91.08c0-6.104,4.976-11.08,11.08-11.08C279.44,80,296,63.44,296,43.08V21.024
	C400.968,43.2,480,136.528,480,248C480,314.056,452.2,373.704,407.752,416z"/>
<rect x="328" y="88" width="16" height="16"/>
<rect x="408" y="152" width="16" height="16"/>
<rect x="168" y="424" width="16" height="16"/>
<rect x="120" y="176" width="16" height="16"/>
<rect x="72" y="128" width="16" height="16"/>
<rect x="48" y="216" width="16" height="16"/>
<g>
</g>
<g>
</g>
<g>
</g>
<g>
</g>
<g>
</g>
<g>
</g>
<g>
</g>
<g>
</g>
<g>
</g>
<g>
</g>
<g>
</g>
<g>
</g>
<g>
</g>
<g>
</g>
<g>
</g>
</svg>
