<svg height="497.576pt" viewBox="0 0 497.576 497.576" width="497.576pt" xmlns="http://www.w3.org/2000/svg"><path d="m457.574219 168-32 32-128-128 32-32 9.761719 9.761719 108.480468 108.476562zm0 0" fill="#ccd1d9"/><path d="m252.457031 90.878906-47.441406 19.921875-104.71875 43.917969-50.722656 21.28125 272 272 21.28125-50.71875 43.921875-104.722656 19.917968-47.4375zm0 0" fill="#ccd1d9"/><path d="m329.574219 232-64 96-96-96 96-64zm0 0" fill="#ffeaa7"/><path d="m425.574219 200-18.878907 45.121094-154.238281-154.242188 45.117188-18.878906zm0 0" fill="#e6e9ed"/><path d="m9.574219 264 40-88 272 272-88 40zm0 0" fill="#e6e9ed"/><path d="m386.777344 292.558594-43.921875 104.722656-45.28125-45.28125zm0 0" fill="#ffeaa7"/><path d="m205.015625 110.800781-59.441406 89.199219-45.277344-45.28125zm0 0" fill="#ffeaa7"/><path d="m177.574219 391.996094 24-24.003906 55.996093 55.996093-24 24.003907zm0 0" fill="#69d6f4"/><path d="m281.574219 240c0 13.253906-10.742188 24-24 24-13.253907 0-24-10.746094-24-24s10.746093-24 24-24c13.257812 0 24 10.746094 24 24zm0 0" fill="#b4dd7f"/><path d="m489.574219 88c0 30.320312-16.878907 56.71875-41.757813 70.238281l-108.480468-108.476562c13.519531-24.882813 39.921874-41.761719 70.238281-41.761719 44.152343 0 80 35.847656 80 80zm0 0" fill="#69d6f4"/><path d="m497.574219 88c0-48.519531-39.476563-88-88-88-28.6875 0-55.238281 14-71.644531 37.039062l-8.355469-8.351562-36.542969 36.542969-249.4375 104.601562-43.59375 95.902344 231.839844 231.839844 95.894531-43.589844 104.601563-249.441406 36.550781-36.542969-8.351563-8.351562c23.039063-16.410157 37.039063-42.960938 37.039063-71.648438zm-81.453125 113.855469-12.226563 29.152343-137.328125-137.328124 29.152344-12.222657zm-232.457032-73.414063-39.335937 59-29.953125-29.953125zm-164.511718 133.824219 32.925781-72.449219 255.683594 255.679688-72.449219 32.929687zm299.65625 171.65625-255.152344-255.152344 34.785156-14.585937 48.375 48.375 63.535156-95.300782 40.273438-16.890624 146.589844 146.59375-16.886719 40.269531-95.304687 63.539062 48.375 48.375zm50.328125-120.011719-29.058594 69.28125-29.949219-29.953125zm56.4375-125.222656-116.6875-116.6875 20.6875-20.6875 116.691406 116.6875zm-76.078125-140.078125c13.257812-20.183594 35.695312-32.609375 60.078125-32.609375 39.707031 0 72 32.296875 72 72 0 24.382812-12.421875 46.824219-32.605469 60.078125zm0 0"/><path d="m266.59375 157.703125-109.570312 73.058594 109.800781 109.796875 73.054687-109.566406zm-2.257812 157.746094-82.207032-82.210938 82.429688-54.941406 54.722656 54.71875zm0 0"/><path d="m257.574219 208c-17.644531 0-32 14.351562-32 32s14.355469 32 32 32c17.648437 0 32-14.351562 32-32s-14.351563-32-32-32zm0 48c-8.820313 0-16-7.175781-16-16s7.179687-16 16-16c8.824219 0 16 7.175781 16 16s-7.175781 16-16 16zm0 0"/><path d="m201.574219 356.6875-35.308594 35.3125 67.308594 67.3125 35.3125-35.3125zm-12.6875 35.3125 12.6875-12.6875 44.691406 44.6875-12.691406 12.6875zm0 0"/><path d="m67.917969 261.65625 11.3125-11.3125 80 79.996094-11.316407 11.316406zm0 0"/><path d="m43.917969 237.65625 11.3125-11.3125 16 15.996094-11.316407 11.3125zm0 0"/><path d="m409.574219 72h16v16h-16zm0 0"/><path d="m377.574219 40h16v16h-16zm0 0"/><path d="m441.574219 104h16v16h-16zm0 0"/></svg>