<?xml version="1.0" encoding="iso-8859-1"?>
<!-- Generator: Adobe Illustrator 19.0.0, SVG Export Plug-In . SVG Version: 6.00 Build 0)  -->
<svg version="1.1" id="Capa_1" xmlns="http://www.w3.org/2000/svg" xmlns:xlink="http://www.w3.org/1999/xlink" x="0px" y="0px"
	 viewBox="0 0 496 496" style="enable-background:new 0 0 496 496;" xml:space="preserve">
<g>
	<circle style="fill:#FCD770;" cx="392" cy="24" r="16"/>
	<circle style="fill:#FCD770;" cx="384" cy="120" r="16"/>
	<circle style="fill:#FCD770;" cx="336" cy="200" r="16"/>
	<circle style="fill:#FCD770;" cx="336" cy="320" r="16"/>
	<circle style="fill:#FCD770;" cx="216" cy="320" r="16"/>
	<circle style="fill:#FCD770;" cx="224" cy="224" r="16"/>
	<circle style="fill:#FCD770;" cx="112" cy="168" r="16"/>
	<circle style="fill:#FCD770;" cx="168" cy="56" r="16"/>
	<circle style="fill:#FCD770;" cx="88" cy="336" r="16"/>
	<circle style="fill:#FCD770;" cx="192" cy="432" r="16"/>
	<circle style="fill:#FCD770;" cx="280" cy="472" r="16"/>
	<circle style="fill:#FCD770;" cx="408" cy="416" r="16"/>
</g>
<path d="M408,392c-2.488,0-4.848,0.488-7.104,1.192L355.96,333.28c2.544-3.8,4.04-8.368,4.04-13.28c0-10.416-6.712-19.216-16-22.528
	V222.52c9.288-3.312,16-12.112,16-22.528c0-5.784-2.144-11.024-5.56-15.176l24.784-41.304c1.544,0.32,3.136,0.488,4.776,0.488
	c13.232,0,24-10.768,24-24c0-9.72-5.832-18.064-14.152-21.832l4.248-51.048C408.368,44.4,416,35.112,416,24
	c0-13.232-10.768-24-24-24s-24,10.768-24,24c0,9.72,5.832,18.064,14.152,21.832l-4.248,51.048C367.632,99.6,360,108.888,360,120
	c0,5.784,2.144,11.024,5.56,15.176l-24.784,41.304c-1.544-0.312-3.136-0.48-4.776-0.48c-12.168,0-22.144,9.136-23.688,20.896
	l-67.952,14.56C240.128,204.608,232.624,200,224,200c-6.456,0-12.296,2.592-16.616,6.752l-71.68-35.84
	c0.12-0.968,0.296-1.92,0.296-2.912c0-6.456-2.592-12.296-6.752-16.616l35.84-71.68C166.056,79.824,167.008,80,168,80
	c13.232,0,24-10.768,24-24s-10.768-24-24-24s-24,10.768-24,24c0,6.456,2.592,12.296,6.752,16.616l-35.84,71.68
	c-0.968-0.12-1.92-0.296-2.912-0.296c-13.232,0-24,10.768-24,24s10.768,24,24,24c6.456,0,12.296-2.592,16.616-6.752l71.68,35.84
	c-0.12,0.968-0.296,1.92-0.296,2.912c0,9.72,5.832,18.064,14.152,21.832l-4.248,51.048C199.632,299.6,192,308.888,192,320
	c0,8.624,4.608,16.136,11.456,20.368l-14.56,67.944c-2.864,0.376-5.552,1.24-8.008,2.544l-70.848-65.4
	c1.256-2.904,1.96-6.096,1.96-9.456c0-13.232-10.768-24-24-24s-24,10.768-24,24s10.768,24,24,24c4.032,0,7.768-1.096,11.112-2.856
	l70.848,65.4c-1.256,2.904-1.96,6.096-1.96,9.456c0,13.232,10.768,24,24,24s24-10.768,24-24c0-8.624-4.608-16.136-11.456-20.368
	l14.56-67.944c9.032-1.184,16.448-7.344,19.424-15.688h74.952c3.312,9.288,12.112,16,22.528,16c2.488,0,4.848-0.488,7.104-1.192
	l44.936,59.912c-2.552,3.8-4.048,8.368-4.048,13.28c0,0.584,0.128,1.128,0.168,1.696l-86.712,37.944
	c-4.384-4.68-10.56-7.64-17.456-7.64c-13.232,0-24,10.768-24,24s10.768,24,24,24s24-10.768,24-24c0-0.584-0.128-1.128-0.168-1.696
	l86.712-37.944c4.384,4.68,10.56,7.64,17.456,7.64c13.232,0,24-10.768,24-24S421.232,392,408,392z M280,480c-4.416,0-8-3.592-8-8
	s3.584-8,8-8s8,3.592,8,8S284.416,480,280,480z M313.472,312H238.52c-2.192-6.152-6.768-11.152-12.68-13.832l4.248-51.048
	c9.288-2.456,16.32-10.304,17.592-20.008l67.952-14.56c2.848,4.608,7.184,8.128,12.36,9.976v74.952
	C321.224,299.888,315.888,305.224,313.472,312z M392,16c4.416,0,8,3.592,8,8s-3.584,8-8,8s-8-3.592-8-8S387.584,16,392,16z M384,112
	c4.416,0,8,3.592,8,8c0,4.408-3.584,8-8,8s-8-3.592-8-8S379.584,112,384,112z M336,192c4.416,0,8,3.592,8,8s-3.584,8-8,8
	s-8-3.592-8-8S331.584,192,336,192z M224,216c4.416,0,8,3.592,8,8s-3.584,8-8,8s-8-3.592-8-8S219.584,216,224,216z M168,48
	c4.416,0,8,3.592,8,8s-3.584,8-8,8s-8-3.592-8-8S163.584,48,168,48z M112,176c-4.416,0-8-3.592-8-8s3.584-8,8-8s8,3.592,8,8
	S116.416,176,112,176z M88,344c-4.416,0-8-3.592-8-8s3.584-8,8-8s8,3.592,8,8S92.416,344,88,344z M192,440c-4.416,0-8-3.592-8-8
	s3.584-8,8-8s8,3.592,8,8S196.416,440,192,440z M216,328c-4.416,0-8-3.592-8-8s3.584-8,8-8s8,3.592,8,8S220.416,328,216,328z
	 M328,320c0-4.408,3.584-8,8-8s8,3.592,8,8s-3.584,8-8,8S328,324.408,328,320z M408,424c-4.416,0-8-3.592-8-8s3.584-8,8-8
	s8,3.592,8,8S412.416,424,408,424z"/>
<rect x="464" y="216" width="16" height="16"/>
<rect x="464" y="248" width="16" height="16"/>
<rect x="480" y="232" width="16" height="16"/>
<rect x="448" y="232" width="16" height="16"/>
<rect x="16" y="64" width="16" height="16"/>
<rect x="16" y="96" width="16" height="16"/>
<rect x="32" y="80" width="16" height="16"/>
<rect y="80" width="16" height="16"/>
<rect x="96" y="232" width="16" height="16"/>
<rect x="96" y="264" width="16" height="16"/>
<rect x="112" y="248" width="16" height="16"/>
<rect x="80" y="248" width="16" height="16"/>
<rect x="40" y="384" width="16" height="16"/>
<rect x="40" y="416" width="16" height="16"/>
<rect x="56" y="400" width="16" height="16"/>
<rect x="24" y="400" width="16" height="16"/>
<rect x="32" y="184" width="16" height="16"/>
<rect x="144" y="320" width="16" height="16"/>
<rect x="304" y="64" width="16" height="16"/>
<rect x="392" y="280" width="16" height="16"/>
<rect x="440" y="104" width="16" height="16"/>
<rect x="312" y="400" width="16" height="16"/>
<rect x="432" y="456" width="16" height="16"/>
<g>
</g>
<g>
</g>
<g>
</g>
<g>
</g>
<g>
</g>
<g>
</g>
<g>
</g>
<g>
</g>
<g>
</g>
<g>
</g>
<g>
</g>
<g>
</g>
<g>
</g>
<g>
</g>
<g>
</g>
</svg>
