<svg height="496pt" viewBox="0 0 496 496" width="496pt" xmlns="http://www.w3.org/2000/svg"><path d="m483.28125 12.71875c2.957031 2.882812 4.71875 6.882812 4.71875 11.28125-7.601562 30.480469-18.160156 59.921875-31.519531 88-.160157 0-.320313 0-.480469 0-39.761719 0-72-32.238281-72-72 0-.160156 0-.320312 0-.480469 28.078125-13.359375 57.519531-23.917969 88-31.519531 4.398438 0 8.398438 1.761719 11.28125 4.71875zm0 0" fill="#e6e9ed"/><path d="m480 160c-8.800781 26.320312-22.558594 50.558594-40.480469 71.519531l-31.039062-31.039062c20.960937-17.921875 45.199219-31.679688 71.519531-40.480469zm0 0" fill="#ccd1d9"/><path d="m456 112h.480469c-7.679688 16.398438-16.320313 32.320312-25.921875 47.679688-2.160156.160156-4.320313.320312-6.558594.320312-48.640625 0-88-39.359375-88-88 0-2.238281.160156-4.398438.320312-6.558594 5.441407-3.441406 10.960938-6.722656 16.480469-9.839844 10.160157-5.761718 20.558594-11.121093 31.199219-16.082031v.480469c0 39.761719 32.238281 72 72 72zm0 0" fill="#69d6f4"/><path d="m456 56c0 8.835938-7.164062 16-16 16s-16-7.164062-16-16 7.164062-16 16-16 16 7.164062 16 16zm0 0" fill="#ff826e"/><path d="m408.480469 200.480469 31.039062 31.039062c-3.597656 4.242188-7.359375 8.320313-11.28125 12.242188l-12.238281 12.238281-32-32 12.238281-12.238281c3.921875-3.921875 8-7.683594 12.242188-11.28125zm0 0" fill="#fcd770"/><path d="m424 160c-48.640625 0-88-39.359375-88-88 0-2.238281.160156-4.398438.320312-6.558594-30.878906 19.117188-59.601562 41.839844-85.601562 67.839844l-110.398438 110.398438 112 112 110.398438-110.398438c26-26 48.722656-54.722656 67.839844-85.601562-2.160156.160156-4.320313.320312-6.558594.320312zm0 0" fill="#e6e9ed"/><path d="m416 256-155.199219 155.199219c-.242187-.960938-.640625-1.917969-.960937-2.878907-5.359375-13.921874-8-28.480468-8-42.800781 0-3.28125.160156-6.558593.480468-9.839843l131.679688-131.679688zm0 0" fill="#ccd1d9"/><path d="m303.921875 163.199219c-30.960937 3.121093-59.921875 16.800781-81.921875 38.800781l-7.199219 7.199219c-20.402343 20.402343-46.878906 32.242187-74.480469 34.480469-17.519531 1.519531-35.519531-.960938-52.640624-7.519532-.960938-.320312-1.917969-.71875-2.878907-.960937-5.199219-1.679688-10.480469-2.480469-15.839843-2.480469-1.359376 0-2.722657.082031-4.082032.160156l198.242188 198.242188c.078125-1.359375.160156-2.722656.160156-4.082032 0-5.359374-.800781-10.640624-2.480469-15.839843-.242187-.960938-.640625-1.917969-.960937-2.878907-5.359375-13.921874-8-28.480468-8-42.800781 0-3.28125.160156-6.558593.480468-9.839843 2.238282-27.601563 14.078126-54.078126 34.480469-74.480469l7.199219-7.199219c22-22 35.679688-50.960938 38.800781-81.921875l3.199219-32.078125zm0 0" fill="#aab2bd"/><path d="m336 16c-8.800781 26.320312-22.558594 50.558594-40.480469 71.519531l-31.039062-31.039062c20.960937-17.921875 45.199219-31.679688 71.519531-40.480469zm0 0" fill="#ccd1d9"/><path d="m264.480469 56.480469 31.039062 31.039062c-3.597656 4.242188-7.359375 8.320313-11.28125 12.242188l-12.238281 12.238281-32-32 12.238281-12.238281c3.921875-3.921875 8-7.683594 12.242188-11.28125zm0 0" fill="#fcd770"/><path d="m279.039062 200c9.359376 0 16.960938 7.601562 16.960938 16.960938 0 4.480468-1.761719 8.800781-4.960938 12l-46.078124 46.078124c-3.199219 3.199219-7.519532 4.960938-12 4.960938-4.640626 0-8.960938-1.921875-12-4.960938-3.039063-3.039062-4.960938-7.359374-4.960938-12 0-4.480468 1.761719-8.800781 4.960938-12l46.078124-46.078124c3.199219-3.199219 7.519532-4.960938 12-4.960938zm0 0" fill="#ff826e"/><path d="m272 112-131.679688 131.679688c-17.519531 1.519531-35.519531-.960938-52.640624-7.519532-.960938-.320312-1.917969-.71875-2.878907-.960937l155.199219-155.199219zm0 0" fill="#ccd1d9"/><path d="m200 368 63.121094 63.121094c-.960938 12.160156-6.082032 23.839844-15.121094 32.878906l-216-216c9.039062-9.039062 20.71875-14.160156 32.878906-15.121094zm0 0" fill="#fcd770"/><path d="m216 336-16 32-72-72 32-16zm0 0" fill="#e6e9ed"/><path d="m216 432-39.039062 39.039062c-10.882813 10.882813-25.601563 16.960938-40.960938 16.960938 0-15.359375 6.078125-30.078125 16.960938-40.960938l39.039062-39.039062zm0 0" fill="#ff826e"/><path d="m176 392-64 32-40-40 32-64zm0 0" fill="#e6e9ed"/><path d="m88 304-39.039062 39.039062c-10.882813 10.882813-25.601563 16.960938-40.960938 16.960938 0-15.359375 6.078125-30.078125 16.960938-40.960938l39.039062-39.039062zm0 0" fill="#ff826e"/><path d="m250.625 280.6875 46.0625-46.0625c4.710938-4.714844 7.3125-10.984375 7.3125-17.65625 0-13.769531-11.199219-24.96875-24.96875-24.96875-6.671875 0-12.941406 2.601562-17.65625 7.3125l-46.0625 46.0625c-4.710938 4.714844-7.3125 10.984375-7.3125 17.65625 0 13.769531 11.199219 24.96875 24.96875 24.96875 6.671875 0 12.941406-2.601562 17.65625-7.3125zm-26.625-17.65625c0-2.398438.9375-4.648438 2.625-6.34375l46.0625-46.0625c1.695312-1.6875 3.945312-2.625 6.34375-2.625 4.945312 0 8.96875 4.023438 8.96875 8.96875 0 2.398438-.9375 4.648438-2.625 6.34375l-46.0625 46.0625c-1.695312 1.6875-3.945312 2.625-6.34375 2.625-4.945312 0-8.96875-4.023438-8.96875-8.96875zm0 0"/><path d="m496 24c0-13.230469-10.769531-24-24-24l-1.945312.238281c-53 13.25-103.152344 35.335938-148.4375 65.082031 9.101562-14.6875 16.511718-30.417968 21.96875-46.785156l5.054687-15.175781-15.175781 5.054687c-32.578125 10.859376-62.625 29.433594-86.90625 53.714844l-164.132813 164.128906c-20.011719-4.601562-41.296875 1.292969-56.082031 16.078126l-5.65625 5.664062 32 32-33.375 33.375c-12.457031 12.457031-19.3125 29.007812-19.3125 46.625v8h8c17.617188 0 34.167969-6.855469 46.625-19.3125l33.375-33.375 6.265625 6.261719-32 64 48.160156 48.160156 64-32 6.261719 6.265625-33.375 33.375c-12.457031 12.457031-19.3125 29.007812-19.3125 46.625v8h8c17.617188 0 34.167969-6.855469 46.625-19.3125l33.375-33.375 32 32 5.65625-5.65625c14.792969-14.792969 20.6875-36.070312 16.085938-56.089844l164.136718-164.132812c24.28125-24.28125 42.847656-54.328125 53.714844-86.90625l5.054688-15.175782-15.175782 5.054688c-16.375 5.457031-32.105468 12.875-46.785156 21.96875 29.746094-45.285156 51.832031-95.4375 65.082031-148.4375zm-298.191406 330.496094-56.304688-56.304688 16.921875-8.457031 47.839844 47.839844zm-36.234375-84.230469-32 16-41.496094-41.496094c46.074219 16.292969 97.664063 4.789063 132.363281-29.914062l7.167969-7.167969c20.648437-20.648438 48.015625-33.617188 77.070313-36.519531l22.375-2.238281-2.238282 22.375c-2.90625 29.054687-15.871094 56.421874-36.519531 77.070312l-7.167969 7.167969c-34.695312 34.695312-46.199218 86.296875-29.914062 132.367187l-41.496094-41.496094 16-32zm-24.796875-34.355469c-12.394532.714844-24.953125-.652344-37.183594-4.191406l140.40625-140.40625 20.6875 20.6875zm123.320312 123.304688 123.902344-123.902344 20.6875 20.6875-140.398438 140.398438c-3.535156-12.222657-4.90625-24.789063-4.191406-37.183594zm5.238282-27.863282c5.3125-16.457031 14.398437-31.777343 27.113281-44.488281l7.167969-7.167969c23.246093-23.246093 37.855468-54.070312 41.125-86.792968l4.1875-41.832032-41.832032 4.1875c-32.722656 3.269532-63.539062 17.878907-86.792968 41.125l-7.167969 7.167969c-12.710938 12.714844-28.039063 21.808594-44.496094 27.121094l91.71875-91.71875c22.089844-22.089844 46.242187-41.792969 72.046875-58.9375 3.875 46.535156 41.042969 83.695313 87.578125 87.578125-17.136719 25.796875-36.847656 49.957031-58.9375 72.046875zm160.625-179.457031c-.65625.035157-1.296876.105469-1.960938.105469-44.113281 0-80-35.886719-80-80 0-.664062.070312-1.304688.105469-1.960938 10.703125-6.511718 21.6875-12.550781 32.878906-18.191406 5.160156 34.464844 32.351563 61.746094 67.214844 67.082032-5.648438 11.222656-11.710938 22.238281-18.238281 32.964843zm-131.144532-76.390625-18.3125-18.3125c14.007813-10.976562 29.328125-20.289062 45.65625-27.34375-7.054687 16.328125-16.375 31.648438-27.34375 45.65625zm-30.519531-7.894531 20.101563 20.101563c-1.949219 2.128906-3.78125 4.367187-5.824219 6.417968l-6.574219 6.558594-20.6875-20.6875 6.566406-6.566406c2.042969-2.042969 4.289063-3.875 6.417969-5.824219zm-220.984375 269.765625c-7.335938 7.335938-16.542969 12.105469-26.550781 13.863281 1.757812-10 6.527343-19.214843 13.863281-26.550781l33.375-33.375 12.6875 12.6875zm70.261719 76.890625-31.839844-31.839844 24.457031-48.921875 56.304688 56.304688zm57.738281 51.109375c-7.335938 7.335938-16.542969 12.105469-26.550781 13.863281 1.757812-10 6.527343-19.214843 13.863281-26.550781l33.375-33.375 12.6875 12.6875zm76.175781-13.207031-203.65625-203.65625c5.488281-3.777344 11.71875-6.160157 18.183594-7.191407l192.664063 192.664063c-1.03125 6.472656-3.414063 12.703125-7.191407 18.183594zm168.511719-207.480469-20.6875-20.6875 6.566406-6.566406c2.042969-2.042969 4.289063-3.875 6.417969-5.824219l20.101563 20.101563c-1.949219 2.128906-3.78125 4.367187-5.824219 6.417968zm22.816406-25.183594-18.3125-18.3125c14.007813-10.976562 29.328125-20.289062 45.65625-27.34375-7.054687 16.328125-16.375 31.648438-27.34375 45.65625zm12.671875-115.734375c-31.777343-2.234375-57.167969-27.707031-59.28125-59.25 25.855469-11.871093 52.816407-21.457031 80.617188-28.480469 3.75.386719 6.75 3.375 7.136719 7.136719-7.023438 27.792969-16.609376 54.746094-28.472657 80.59375zm0 0"/><path d="m440 32c-13.230469 0-24 10.769531-24 24s10.769531 24 24 24 24-10.769531 24-24-10.769531-24-24-24zm0 32c-4.40625 0-8-3.59375-8-8s3.59375-8 8-8 8 3.59375 8 8-3.59375 8-8 8zm0 0"/></svg>