<svg height="502pt" viewBox="0 0 502 502.736" width="502pt" xmlns="http://www.w3.org/2000/svg"><path d="m395.679688 203.425781 32.003906-32 32 32-32 32zm0 0" fill="#4fc1e9"/><path d="m235.683594 107.425781 32-32 32 32-32 32zm0 0" fill="#69d6f4"/><path d="m323.761719 259.34375-24.082031 24.082031-80-80 24.082031-24.082031zm0 0" fill="#aab2bd"/><path d="m363.679688 235.425781 32.003906-32 32 32-32 32zm0 0" fill="#69d6f4"/><path d="m427.679688 235.425781 32-32.003906 31.679687 31.679687-32.003906 32zm0 0" fill="#69d6f4"/><path d="m267.679688 139.425781 96-96 96 96-104 104-96-96zm0 0" fill="#e6e9ed"/><path d="m395.679688 139.425781c0 17.671875-14.328126 32-32 32-17.671876 0-32-14.328125-32-32 0-17.675781 14.328124-32 32-32 17.671874 0 32 14.324219 32 32zm0 0" fill="#fcd770"/><path d="m395.679688 267.421875 32-32 31.679687 31.679687-32.003906 32zm0 0" fill="#4fc1e9"/><path d="m355.679688 243.425781-23.917969 23.917969-96-96 23.917969-23.917969zm0 0" fill="#e6e9ed"/><path d="m459.679688 75.425781v64l-96-96h64zm0 0" fill="#aab2bd"/><path d="m267.683594 75.425781 32-32 32 32-32 32zm0 0" fill="#4fc1e9"/><path d="m267.679688 75.425781-32 32-32.078126-32.082031 32-32 .078126.082031zm0 0" fill="#4fc1e9"/><path d="m299.679688 43.425781-32 32-32-32-.078126-.082031 32-32zm0 0" fill="#69d6f4"/><path d="m171.679688 427.425781 64-64 32 32-64 64zm0 0" fill="#69d6f4"/><path d="m11.753906 267.5 64-64.003906 31.921875 31.921875-64 64.003906zm0 0" fill="#4fc1e9"/><path d="m52.164062 354.933594 23.515626-23.523438 96.015624 95.988282-23.515624 23.523437zm0 0" fill="#aab2bd"/><path d="m148.160156 450.945312-40.480468 8.480469-64-64 8.480468-40.480469zm0 0" fill="#fcd770"/><path d="m11.671875 443.421875 40-40 47.996094 48-39.996094 40zm0 0" fill="#aab2bd"/><path d="m187.675781 251.425781 39.996094-40 64.003906 64-40 40zm0 0" fill="#fcd770"/><path d="m251.679688 315.425781-16 48-96-96 48-16zm0 0" fill="#aab2bd"/><path d="m75.679688 331.425781 64-64 96 96-64 64zm0 0" fill="#e6e9ed"/><path d="m203.675781 459.425781 64.003907-64 32 32-64 64zm0 0" fill="#4fc1e9"/><path d="m43.679688 299.425781 64-64 32 32-64 64zm0 0" fill="#69d6f4"/><path d="m427.683594 43.425781 32-32 32 32-32 32zm0 0" fill="#fcd770"/><path d="m467.679688 142.734375v-64l35.3125-35.308594-43.3125-43.3125-35.3125 35.3125h-64l-28.6875 28.6875-64.113282-64.113281-75.308594 75.3125 64.109376 64.113281-31.886719 31.886719 8 8-24.113281 24.113281 8 8-33.007813 33.007813-41.519531 13.839844-66.0625-66.066407-75.3125 75.3125 63.902344 63.90625-19.566407 19.558594-9.832031 47.03125 5.398438 5.410156-40 40 59.3125 59.308594 40-40 5.398437 5.410156 47.035156-9.839843 19.566407-19.570313 64 64 75.3125-75.308594-66.160157-66.160156 13.839844-41.523437 33.007813-33.007813 8 8 24.113281-24.109375 8 8 31.886719-31.890625 63.664062 63.65625 75.3125-75.3125-63.664062-63.652344zm-112 89.378906-84.6875-84.6875 92.6875-92.691406 84.6875 84.691406zm96-153.378906v41.378906l-68.6875-68.6875h41.375zm28.6875-35.308594-20.6875 20.6875-20.6875-20.6875 20.6875-20.691406zm-180.6875 52.6875-20.6875-20.6875 20.6875-20.691406 20.6875 20.691406zm-11.3125-52.6875-20.6875 20.6875-20.800782-20.800781 20.6875-20.6875zm-52.800782 11.199219 20.800782 20.800781-20.6875 20.6875-20.800782-20.800781zm11.425782 52.800781 20.6875-20.691406 20.6875 20.691406-20.6875 20.6875zm-22.625 256-52.6875 52.6875-84.6875-84.6875 52.6875-52.691406zm-148.589844-148.59375 20.589844 20.59375-52.6875 52.6875-20.589844-20.59375zm-20.785156 84.59375 52.6875-52.691406 20.6875 20.691406-52.6875 52.6875zm26.34375 122.34375-28.945313-28.945312 4.554687-21.761719 75.078126 75.082031-21.75 4.550781zm-21.65625 58.34375-36.6875-36.6875 28.6875-28.691406 18.34375 18.34375 18.34375 18.347656zm88.464843-40.472656-84.6875-84.6875 12.222657-12.21875 84.6875 84.691406zm87.535157-64.90625 20.6875 20.691406-52.6875 52.6875-20.6875-20.6875zm0 105.378906-20.6875-20.6875 52.6875-52.691406 20.6875 20.691406zm-81.191407-209.191406 31.03125-10.347656 57.007813 57.011719-10.34375 31.023437zm97.191407 33.191406-52.6875-52.6875 28.6875-28.691406 52.6875 52.691406zm48-32-68.6875-68.6875 12.800781-12.800781 68.6875 68.6875zm-52.574219-100.800781 12.574219-12.578125 84.6875 84.691406-12.574219 12.574219zm148.574219 43.421875 20.6875 20.691406-20.6875 20.6875-20.6875-20.6875zm11.3125 52.691406 20.6875-20.691406 20.34375 20.34375-20.6875 20.691406zm52.34375-11.65625-20.34375-20.34375 20.6875-20.691406 20.34375 20.34375zm-10.96875-52.34375-20.6875 20.6875-20.6875-20.6875 20.6875-20.691406zm0 0"/><path d="m118.019531 321.078125 11.3125-11.3125 64.003907 64-11.316407 11.3125zm0 0"/><path d="m363.679688 99.425781c-22.054688 0-40 17.941407-40 40 0 22.054688 17.945312 40 40 40 22.054687 0 40-17.945312 40-40 0-22.058593-17.945313-40-40-40zm0 64c-13.230469 0-24-10.769531-24-24 0-13.234375 10.769531-24 24-24 13.230468 0 24 10.765625 24 24 0 13.230469-10.769532 24-24 24zm0 0"/></svg>