<?xml version="1.0" encoding="iso-8859-1"?>
<!-- Generator: Adobe Illustrator 19.0.0, SVG Export Plug-In . SVG Version: 6.00 Build 0)  -->
<svg version="1.1" id="Capa_1" xmlns="http://www.w3.org/2000/svg" xmlns:xlink="http://www.w3.org/1999/xlink" x="0px" y="0px"
	 viewBox="0 0 480 480" style="enable-background:new 0 0 480 480;" xml:space="preserve">
<g>
	<circle style="fill:#B6C1CE;" cx="232" cy="24" r="16"/>
	<circle style="fill:#B6C1CE;" cx="56" cy="248" r="16"/>
	<circle style="fill:#B6C1CE;" cx="456" cy="248" r="16"/>
	<circle style="fill:#B6C1CE;" cx="72" cy="408" r="16"/>
	<circle style="fill:#B6C1CE;" cx="344" cy="384" r="16"/>
</g>
<path style="fill:#798699;" d="M333.824,304.568c28.28-28.28,33.944-56.568,33.944-56.568s-35.96,27.904-60.872,30.08
	C316,271.728,344,249.512,344,216c0-40-16-64-16-64s-5.704,45.16-21.776,64.312c1.952-10.928,6.04-46.44-17.656-70.136
	C260.288,117.896,232,112.232,232,112.232s27.904,35.96,30.08,60.872C255.736,164,233.512,136,200,136c-40,0-64,16-64,16
	s45.16,5.704,64.312,21.776c-10.928-1.952-46.44-6.04-70.136,17.656C101.896,219.712,96.232,248,96.232,248
	s35.96-27.904,60.872-30.08C148,224.264,120,246.488,120,280c0,40,16,64,16,64s5.704-45.16,21.776-64.312
	c-1.952,10.928-6.04,46.44,17.656,70.136c28.28,28.28,56.568,33.944,56.568,33.944s-27.904-35.96-30.08-60.872
	C208.264,332,230.488,360,264,360c40,0,64-16,64-16s-45.16-5.704-64.312-21.776C274.616,324.176,310.128,328.264,333.824,304.568z"
	/>
<circle style="fill:#31353D;" cx="232" cy="248" r="48"/>
<path d="M232,48c13.232,0,24-10.768,24-24S245.232,0,232,0s-24,10.768-24,24S218.768,48,232,48z M232,16c4.416,0,8,3.592,8,8
	s-3.584,8-8,8s-8-3.592-8-8S227.584,16,232,16z"/>
<path d="M80,248c0-13.232-10.768-24-24-24s-24,10.768-24,24s10.768,24,24,24S80,261.232,80,248z M56,256c-4.416,0-8-3.592-8-8
	s3.584-8,8-8s8,3.592,8,8C64,252.408,60.416,256,56,256z"/>
<path d="M456,224c-13.232,0-24,10.768-24,24s10.768,24,24,24s24-10.768,24-24S469.232,224,456,224z M456,256c-4.416,0-8-3.592-8-8
	s3.584-8,8-8s8,3.592,8,8C464,252.408,460.416,256,456,256z"/>
<path d="M72,384c-13.232,0-24,10.768-24,24s10.768,24,24,24s24-10.768,24-24S85.232,384,72,384z M72,416c-4.416,0-8-3.592-8-8
	s3.584-8,8-8s8,3.592,8,8S76.416,416,72,416z"/>
<path d="M344,408c13.232,0,24-10.768,24-24s-10.768-24-24-24s-24,10.768-24,24S330.768,408,344,408z M344,376c4.416,0,8,3.592,8,8
	s-3.584,8-8,8s-8-3.592-8-8S339.584,376,344,376z"/>
<path d="M232,432c28.384,0,55.632-6.32,81-18.776l-7.048-14.36C282.8,410.232,257.912,416,232,416
	c-78.544,0-145.816-53.376-163.584-129.816l-15.576,3.624C72.296,373.528,145.976,432,232,432z"/>
<path d="M416,248c0-101.456-82.536-184-184-184c-86.024,0-159.704,58.472-179.168,142.184l15.576,3.624
	C86.184,133.376,153.456,80,232,80c92.632,0,168,75.36,168,168c0,37.296-12,72.64-34.704,102.208l12.688,9.744
	C402.848,327.56,416,288.848,416,248z"/>
<path d="M232,464c-44.2,0-86.728-13.304-122.984-38.464l-9.128,13.144C138.832,465.712,184.52,480,232,480
	c112.336,0,208.32-80.152,228.24-190.584l-15.752-2.832C425.952,389.384,336.584,464,232,464z"/>
<path d="M16,248C16,143.416,90.616,54.048,193.424,35.504l-2.848-15.744C80.152,39.672,0,135.664,0,248
	c0,47.472,14.288,93.16,41.32,132.104l13.144-9.128C29.296,334.72,16,292.2,16,248z"/>
<path d="M444.496,209.424l15.752-2.84C443.16,111.872,368.08,36.768,273.424,19.696l-2.848,15.744
	C358.696,51.336,428.584,121.248,444.496,209.424z"/>
<path d="M232,208c22.056,0,40,17.944,40,40c0,5.952-1.328,11.736-3.936,17.2l14.44,6.896C286.152,264.464,288,256.352,288,248
	c0-30.88-25.128-56-56-56c-8.36,0-16.472,1.848-24.112,5.504l6.904,14.44C220.264,209.328,226.056,208,232,208z"/>
<path d="M249.2,284.056C243.736,286.672,237.944,288,232,288c-22.056,0-40-17.944-40-40c0-5.952,1.328-11.736,3.936-17.2
	l-14.44-6.896C177.848,231.536,176,239.648,176,248c0,30.88,25.128,56,56,56c8.36,0,16.472-1.848,24.112-5.504L249.2,284.056z"/>
<path d="M350.296,338.752L329,336.064c-5.888-0.744-17.208-2.72-28.864-5.976c13.256-2.448,27.56-8.08,39.344-19.864
	c29.664-29.656,35.88-59.408,36.136-60.656l4.208-21.048l-16.96,13.16c-4.696,3.648-14.096,10.248-24.632,16.192
	C345.864,246.76,352,232.664,352,216c0-41.944-16.632-67.376-17.344-68.44l-11.888-17.832L320.064,151
	c-0.752,5.896-2.728,17.216-5.976,28.864c-2.456-13.264-8.088-27.568-19.856-39.344c-29.664-29.656-59.408-35.88-60.656-36.128
	l-21.024-4.2l13.136,16.952c3.64,4.696,10.232,14.096,16.168,24.624C230.744,134.12,216.656,128,200,128
	c-41.936,0-67.376,16.64-68.44,17.344l-17.856,11.904L135,159.936c5.888,0.744,17.208,2.72,28.864,5.976
	c-13.256,2.448-27.56,8.08-39.344,19.864c-29.664,29.656-35.88,59.408-36.136,60.656l-4.208,21.048l16.96-13.16
	c4.696-3.648,14.088-10.248,24.624-16.184C118.128,249.24,112,263.336,112,280c0,41.944,16.632,67.376,17.344,68.44l11.888,17.832
	L143.936,345c0.752-5.896,2.728-17.216,5.976-28.864c2.456,13.264,8.088,27.568,19.856,39.344
	c29.664,29.656,59.408,35.88,60.656,36.128l21.024,4.2l-13.136-16.952c-3.64-4.696-10.232-14.096-16.168-24.624
	C233.256,361.88,247.344,368,264,368c41.936,0,67.376-16.64,68.44-17.344L350.296,338.752z M264,352
	c-29.736,0-50.008-25.784-55.512-33.68l-17.152-24.616l2.616,29.888c1.208,13.84,9.232,30.232,16.912,43.104
	c-8.792-4.832-19.256-12.008-29.784-22.528c-21-21.008-17.128-53.592-15.44-63.08l5.248-29.496l-19.248,22.952
	c-8.936,10.64-14.848,27.904-18.52,42.44C130.328,307.352,128,294.88,128,280c0-29.744,25.784-50.008,33.68-55.512l24.616-17.144
	l-29.88,2.608c-13.824,1.208-30.168,9.2-43.032,16.864c4.84-8.816,12.008-19.288,22.456-29.736
	c21.032-21.024,53.592-17.128,63.072-15.432l29.52,5.28l-22.976-19.28c-10.64-8.936-27.904-14.848-42.44-18.52
	C172.64,146.328,185.128,144,200,144c29.736,0,50.008,25.784,55.512,33.68l17.152,24.616l-2.616-29.888
	c-1.208-13.84-9.232-30.232-16.912-43.104c8.792,4.832,19.256,12.008,29.784,22.528c21,21.008,17.128,53.592,15.44,63.08
	l-5.248,29.496l19.248-22.952c8.936-10.64,14.848-27.904,18.52-42.44C333.672,188.648,336,201.12,336,216
	c0,29.736-25.784,50.008-33.68,55.512l-24.608,17.144l29.872-2.616c13.824-1.208,30.168-9.2,43.032-16.872
	c-4.832,8.816-12.008,19.296-22.456,29.736c-21.032,21.016-53.592,17.128-63.072,15.432l-29.52-5.28l22.976,19.28
	c10.64,8.936,27.904,14.848,42.44,18.52C291.36,349.672,278.872,352,264,352z"/>
<g>
</g>
<g>
</g>
<g>
</g>
<g>
</g>
<g>
</g>
<g>
</g>
<g>
</g>
<g>
</g>
<g>
</g>
<g>
</g>
<g>
</g>
<g>
</g>
<g>
</g>
<g>
</g>
<g>
</g>
</svg>
