<?xml version="1.0" encoding="iso-8859-1"?>
<!-- Generator: Adobe Illustrator 19.0.0, SVG Export Plug-In . SVG Version: 6.00 Build 0)  -->
<svg version="1.1" id="Capa_1" xmlns="http://www.w3.org/2000/svg" xmlns:xlink="http://www.w3.org/1999/xlink" x="0px" y="0px"
	 viewBox="0 0 496 496" style="enable-background:new 0 0 496 496;" xml:space="preserve">
<g>
	<path style="fill:#48C397;" d="M456,72H40c-4.416,0-8-3.584-8-8V16c0-4.416,3.584-8,8-8h416c4.416,0,8,3.584,8,8v48
		C464,68.416,460.416,72,456,72z"/>
	<path style="fill:#48C397;" d="M456,392H40c-4.416,0-8-3.584-8-8v-32c0-4.416,3.584-8,8-8h416c4.416,0,8,3.584,8,8v32
		C464,388.416,460.416,392,456,392z"/>
</g>
<rect x="56" y="72" style="fill:#ECECEC;" width="384" height="272"/>
<g>
	<rect x="56" y="72" style="fill:#B6C1CE;" width="384" height="24"/>
	<rect x="56" y="320" style="fill:#B6C1CE;" width="384" height="24"/>
</g>
<circle style="fill:#FCD770;" cx="152" cy="160" r="56"/>
<path d="M456,80c8.824,0,16-7.176,16-16V16c0-8.824-7.176-16-16-16H40c-8.824,0-16,7.176-16,16v48c0,8.824,7.176,16,16,16h8v256h-8
	c-8.824,0-16,7.176-16,16v32c0,8.824,7.176,16,16,16h200v33.136c-13.76,3.576-24,16-24,30.864c0,17.648,14.352,32,32,32
	s32-14.352,32-32c0-14.864-10.24-27.288-24-30.864V400h200c8.824,0,16-7.176,16-16v-32c0-8.824-7.176-16-16-16h-8V80H456z M264,464
	c0,8.824-7.176,16-16,16s-16-7.176-16-16s7.176-16,16-16S264,455.176,264,464z M40,16h416l0.008,48H40V16z M456.008,384H40v-32h416
	L456.008,384z M432,336H64V80h368V336z"/>
<path d="M152,224c35.288,0,64-28.712,64-64s-28.712-64-64-64s-64,28.712-64,64S116.712,224,152,224z M200,160
	c0,19.344-11.52,36.008-28.04,43.6C154.968,195.776,144,178.728,144,160c0-18.848,10.984-35.744,28.024-43.568
	C188.512,124.04,200,140.688,200,160z M149.656,112.12C136.152,124.048,128,141.296,128,160c0,18.584,8.128,35.912,21.616,47.88
	C124.256,206.624,104,185.664,104,160C104,134.32,124.28,113.352,149.656,112.12z"/>
<rect x="344" y="248" width="16" height="16"/>
<rect x="336" y="96" width="80" height="16"/>
<rect x="272" y="128" width="144" height="16"/>
<rect x="400" y="160" width="16" height="16"/>
<rect x="272" y="160" width="112" height="16"/>
<rect x="80" y="240" width="168" height="16"/>
<rect x="112" y="272" width="136" height="16"/>
<rect x="80" y="272" width="16" height="16"/>
<rect x="232" y="304" width="16" height="16"/>
<rect x="80" y="304" width="136" height="16"/>
<rect x="72" y="32" width="16" height="16"/>
<rect x="120" y="32" width="16" height="16"/>
<rect x="168" y="32" width="160" height="16"/>
<path d="M393.296,256c3.88-5.624,7.256-11.216,9.68-16.544c8.688-19.128,4.592-29.064-0.384-34.04
	c-4.968-4.976-14.92-9.072-34.04-0.384c-5.336,2.424-10.92,5.792-16.544,9.68c-5.624-3.88-11.216-7.256-16.544-9.68
	c-19.12-8.688-29.064-4.592-34.04,0.384s-9.072,14.912-0.384,34.04c2.424,5.336,5.792,10.92,9.68,16.544
	c-3.88,5.624-7.256,11.216-9.68,16.544c-8.696,19.128-4.592,29.072,0.384,34.04c2.864,2.864,7.384,5.448,14.368,5.448
	c5.128,0,11.576-1.384,19.664-5.064c5.336-2.424,10.92-5.792,16.544-9.672c5.624,3.88,11.216,7.248,16.544,9.672
	c8.096,3.68,14.544,5.064,19.664,5.064c6.984,0,11.504-2.576,14.368-5.448c4.976-4.976,9.08-14.912,0.384-34.04
	C400.544,267.216,397.176,261.624,393.296,256z M375.168,219.6c6.208-2.824,10.384-3.6,12.944-3.6c1.832,0,2.832,0.4,3.168,0.728
	c0.792,0.8,1.968,5.456-2.872,16.104c-1.44,3.168-3.312,6.464-5.408,9.808c-2.68-3.088-5.504-6.16-8.496-9.144
	c-2.992-2.992-6.056-5.816-9.144-8.496C368.704,222.912,372,221.04,375.168,219.6z M352,277.264
	c-3.768-3.112-7.528-6.408-11.192-10.072s-6.968-7.424-10.072-11.192c3.112-3.768,6.408-7.528,10.072-11.192
	s7.424-6.968,11.192-10.072c3.768,3.112,7.528,6.408,11.192,10.072c3.664,3.664,6.968,7.424,10.072,11.192
	c-3.112,3.768-6.408,7.528-10.072,11.192S355.768,274.16,352,277.264z M315.6,232.832c-4.84-10.648-3.664-15.312-2.872-16.104
	c0.328-0.336,1.336-0.728,3.16-0.728c2.56,0,6.736,0.776,12.944,3.6c3.168,1.44,6.464,3.312,9.816,5.408
	c-3.088,2.68-6.16,5.504-9.144,8.496c-2.992,2.992-5.816,6.056-8.496,9.144C318.912,239.296,317.04,236,315.6,232.832z
	 M328.832,292.4c-10.664,4.84-15.312,3.664-16.104,2.872s-1.976-5.456,2.872-16.112c1.44-3.168,3.312-6.464,5.408-9.816
	c2.68,3.088,5.504,6.16,8.496,9.144c2.992,2.992,6.056,5.816,9.144,8.496C335.296,289.088,332,290.96,328.832,292.4z
	 M391.272,295.28c-0.792,0.784-5.44,1.976-16.104-2.872c-3.168-1.44-6.464-3.312-9.808-5.408c3.088-2.68,6.16-5.504,9.144-8.496
	c2.992-2.992,5.816-6.056,8.496-9.144c2.088,3.344,3.968,6.648,5.408,9.816C393.248,289.824,392.064,294.488,391.272,295.28z"/>
<g>
</g>
<g>
</g>
<g>
</g>
<g>
</g>
<g>
</g>
<g>
</g>
<g>
</g>
<g>
</g>
<g>
</g>
<g>
</g>
<g>
</g>
<g>
</g>
<g>
</g>
<g>
</g>
<g>
</g>
</svg>
