<svg height="499pt" viewBox="-32 0 499 499.312" width="499pt" xmlns="http://www.w3.org/2000/svg"><path d="m175.597656 170.753906-83.203125 100.71875-21.757812 26.238282-14.480469 17.601562 56 56 8 8.320312 39.519531-32.320312h.480469l76.238281-63.679688 28.320313-23.601562zm0 0" fill="#f5f7fa"/><path d="m311.035156 472.753906c.722656 1.679688 1.121094 3.519532 1.121094 5.359375 0 7.277344-5.921875 13.199219-13.199219 13.199219h-10.160156c-5.28125 0-10-3.039062-12.167969-7.839844l-52.472656-118.160156v-18h32zm0 0" fill="#dfb28b"/><path d="m224.15625 347.3125h-64v-64h96v64zm0 0" fill="#969faa"/><path d="m224.15625 315.3125c0 8.835938-7.164062 16-16 16s-16-7.164062-16-16 7.164062-16 16-16 16 7.164062 16 16zm0 0" fill="#fcd770"/><path d="m224.15625 347.3125v130.800781c0 7.277344-5.921875 13.199219-13.199219 13.199219h-5.601562c-7.28125 0-13.199219-5.921875-13.199219-13.199219v-130.800781zm0 0" fill="#d3a06c"/><path d="m352.15625 211.3125-48 16-96-96 16-48zm0 0" fill="#e6e9ed"/><path d="m192.15625 347.3125v18l-52.480469 118.160156c-2.160156 4.800782-6.878906 7.839844-12.160156 7.839844h-10.160156c-7.28125 0-13.199219-5.921875-13.199219-13.199219 0-1.839843.398438-3.679687 1.121094-5.359375l54.878906-125.441406zm0 0" fill="#dfb28b"/><path d="m304.15625 227.3125-39.441406 32.558594-89.117188-89.117188 32.558594-39.441406zm0 0" fill="#ccd1d9"/><path d="m92.394531 271.472656-21.757812 26.238282-.480469-.398438-29.199219-29.199219 26.398438-21.601562 24.800781 24.800781zm0 0" fill="#ccd1d9"/><path d="m93.757812 224.910156-26.402343 21.601563-26.398438 21.601562-8.800781 7.199219c-6.640625 0-12.640625-2.71875-16.960938-7.039062-4.320312-4.320313-7.039062-10.320313-7.039062-16.960938l50.398438-61.601562zm0 0" fill="#e6e9ed"/><g fill="#fcd770"><path d="m112.15625 371.3125-56 40-32-32 40-56zm0 0"/><path d="m224.152344 83.3125 72-72 127.996094 127.996094-72 72zm0 0"/><path d="m120.15625 203.3125-26.398438 21.597656-35.203124-35.199218 21.601562-26.398438zm0 0"/></g><path d="m184.15625 315.3125c0 13.230469 10.769531 24 24 24s24-10.769531 24-24c0-13.234375-10.769531-24-24-24s-24 10.765625-24 24zm24-8c4.414062 0 8 3.589844 8 8 0 4.40625-3.585938 8-8 8-4.417969 0-8-3.59375-8-8 0-4.410156 3.582031-8 8-8zm0 0"/><path d="m97.992188 293.785156 12.863281-15.585937 12.347656 10.1875-12.863281 15.585937zm0 0"/><path d="m117.457031 270.214844 52.871094-63.996094 12.328125 10.183594-52.871094 63.996094zm0 0"/><path d="m356.476562 218.304688 78.992188-78.992188-139.3125-139.3125-78.992188 78.992188-16.128906 48.375-109.253906 132.257812-12.519531-12.519531 52.796875-43.203125-52.496094-52.496094-79.40625 97.050781v2.855469c0 17.648438 14.351562 32 32 32h2.855469l5.398437-4.425781 19.417969 19.410156-14.472656 17.519531 8.351562 8.351563-40 56 41.578125 41.585937 56-40 8.351563 8.351563 20.449219-16.898438-42.152344 96.335938c-1.175782 2.714843-1.777344 5.585937-1.777344 8.535156 0 11.714844 9.519531 21.234375 21.230469 21.234375h10.167969c8.386718 0 16-4.953125 19.410156-12.609375l37.191406-83.6875v75.0625c0 11.714844 9.519531 21.234375 21.230469 21.234375h5.527343c11.722657 0 21.242188-9.519531 21.242188-21.234375v-75.0625l37.191406 83.6875c3.410156 7.65625 11.023438 12.609375 19.410156 12.609375h10.167969c11.710938 0 21.230469-9.519531 21.230469-21.234375 0-2.957031-.601562-5.820313-1.785156-8.511719l-54.214844-123.925781v-70.328125h-5.542969l49.488281-40.878906zm-19.128906-10.488282-31.03125 10.34375-89.007812-89.007812 10.34375-31.03125zm75.496094-68.503906-60.6875 60.6875-116.6875-116.6875 60.6875-60.6875zm-204.128906 3.871094 83.5625 83.558594-27.042969 22.335937-78.855469-78.855469zm-127.96875 32.03125 27.507812 27.503906-13.960937 11.417969-24.960938-24.960938zm-51.191406 91.890625c-6.742188-1.105469-12.078126-6.449219-13.183594-13.195313l42.785156-52.285156 22.695312 22.695312zm23.304687 1.605469 13.960937-11.421876 14.726563 14.726563-11.480469 13.894531zm4.160156 132.152343-22.421875-22.414062 30.574219-42.808594 34.648437 34.648437zm75.3125 79.335938c-.832031 1.898437-2.703125 3.113281-4.777343 3.113281h-10.167969c-2.878907 0-5.230469-2.34375-5.230469-5.234375 0-.726563.152344-1.429687.441406-2.09375l52.789063-120.671875h18.769531v8.296875zm35.824219-140.886719v-48h80v48zm48 138.765625c0 2.890625-2.351562 5.234375-5.230469 5.234375h-5.53125c-2.886719 0-5.238281-2.34375-5.238281-5.234375v-122.765625h16zm88 0c0 2.890625-2.351562 5.234375-5.230469 5.234375h-10.167969c-2.074218 0-3.945312-1.214844-4.785156-3.113281l-51.816406-116.589844v-8.296875h18.769531l52.789063 120.679688c.289062.65625.441406 1.359374.441406 2.085937zm-152-202.765625v67.183594l-31.488281 26.015625-53.71875-53.710938 109.191406-132.183593 76.703125 76.703124-19.351562 15.992188zm0 0"/><path d="m258.496094 77.65625 11.3125-11.3125 11.316406 11.3125-11.316406 11.316406zm0 0"/><path d="m281.117188 55.027344 11.316406-11.3125 11.3125 11.3125-11.3125 11.3125zm0 0"/></svg>