<svg height="493pt" viewBox="0 0 493.65872 493" width="493pt" xmlns="http://www.w3.org/2000/svg"><path d="m485.660156 104.328125c0 26.480469-10.722656 50.480469-28.082031 67.921875l-35.917969-35.921875-64-64-35.921875-35.917969c17.441407-17.359375 41.441407-28.082031 67.921875-28.082031 53.039063 0 96 42.960937 96 96zm0 0" fill="#69d6f4"/><path d="m469.660156 184.328125-44.640625 74.402344c-8.5625-19.601563-19.839843-38-33.441406-54.722657l30.082031-67.679687 35.917969 35.921875zm0 0" fill="#ccd1d9"/><path d="m445.5 355.050781.160156 45.277344c0 4.402344-1.761718 8.402344-4.722656 11.28125l-115.277344-115.28125 48-112 1.597656 1.601563c5.761719 5.757812 11.199219 11.839843 16.320313 18.078124 13.601563 16.722657 24.878906 35.121094 33.441406 54.722657 13.277344 30.078125 20.398438 62.800781 20.480469 96.320312zm0 0" fill="#aab2bd"/><path d="m325.660156 296.328125 115.277344 115.28125c-2.878906 2.960937-6.878906 4.71875-11.277344 4.71875h-44.5625c-33.199218 0-65.757812-6.878906-95.597656-19.917969-23.519531-10.160156-45.359375-24.082031-64.640625-41.441406-3.28125-2.878906-6.402344-5.839844-9.519531-8.960938l-4.320313-4.320312-58.722656-58.71875-4.316406-4.320312c-3.121094-3.117188-6.082031-6.238282-8.960938-9.519532-17.359375-19.28125-31.28125-41.121094-41.441406-64.640625-13.039063-29.839843-19.917969-62.398437-19.917969-95.597656v-44.5625c0-4.480469 1.757813-8.480469 4.636719-11.359375l115.363281 115.359375zm0 0" fill="#e6e9ed"/><path d="m421.660156 136.328125-30.082031 67.679687c-5.121094-6.238281-10.558594-12.320312-16.320313-18.078124l-1.597656-1.601563-65.679687-65.679687c-5.761719-5.757813-11.761719-11.199219-18-16.238282l67.679687-30.082031zm0 0" fill="#e6e9ed"/><path d="m397.660156 288.328125c0 8.835937-7.164062 16-16 16-8.839844 0-16-7.164063-16-16s7.160156-16 16-16c8.835938 0 16 7.164063 16 16zm0 0" fill="#fcd770"/><path d="m373.660156 184.328125-48 112-128-128 112-48zm0 0" fill="#e6e9ed"/><path d="m357.660156 72.328125-67.679687 30.082031c-16.722657-13.601562-35.121094-24.878906-54.640625-33.519531l74.320312-44.5625 12.078125 12.082031zm0 0" fill="#ccd1d9"/><path d="m317.660156 192.328125c0 8.835937-7.164062 16-16 16-8.839844 0-16-7.164063-16-16s7.160156-16 16-16c8.835938 0 16 7.164063 16 16zm0 0" fill="#fcd770"/><path d="m309.660156 120.328125-112 48-115.363281-115.359375c2.882813-2.878906 6.882813-4.640625 11.363281-4.640625h44.558594c33.839844 0 66.878906 7.121094 97.121094 20.5625 19.519531 8.640625 37.917968 19.917969 54.640625 33.519531 6.238281 5.039063 12.238281 10.480469 18 16.238282zm0 0" fill="#aab2bd"/><g fill="#fcd770"><path d="m289.5 396.410156-59.839844 35.917969-32-32 27.199219-45.359375c19.28125 17.359375 41.121094 31.28125 64.640625 41.441406zm0 0"/><path d="m221.660156 112.328125c0 8.835937-7.164062 16-16 16-8.839844 0-16-7.164063-16-16s7.160156-16 16-16c8.835938 0 16 7.164063 16 16zm0 0"/><path d="m211.019531 341.6875-53.359375 26.640625-32-32 26.636719-53.359375zm0 0"/><path d="m139.019531 269.128906-45.359375 27.199219-32-32 35.917969-59.839844c10.160156 23.519531 24.082031 45.359375 41.441406 64.640625zm0 0"/></g><path d="m213.246094 309.988281 11.316406-11.3125 15.996094 15.996094-11.3125 11.3125zm0 0"/><path d="m237.609375 334.167969c36.960937 34.578125 85.121094 55.128906 135.617187 57.839843l.855469-15.984374c-47.421875-2.542969-90.832031-21.0625-125.542969-53.542969zm0 0"/><path d="m468.578125 171.9375c16.183594-18.839844 25.082031-42.519531 25.082031-67.609375 0-57.34375-46.65625-104-104-104-25.089844 0-48.769531 8.898437-67.609375 25.082031l-11.152343-11.152344-75.976563 45.589844c-30.183594-12.78125-62.910156-19.519531-96.671875-19.519531h-44.625c-13.214844 0-23.964844 10.753906-23.964844 24v44.59375c0 33.191406 6.480469 65.382813 18.832032 95.136719l-36.914063 61.511718 40.832031 40.832032 45.144532-27.089844c1.574218 1.65625 3.113281 3.34375 4.726562 4.96875l.296875.296875-26.664063 53.328125 40.160157 40.160156 53.335937-26.664062.289063.285156c1.625 1.625 3.304687 3.160156 4.96875 4.730469l-27.089844 45.152343 40.832031 40.832032 61.511719-36.90625c29.769531 12.351562 61.960937 18.832031 95.144531 18.832031h44.59375c6.40625 0 12.4375-2.496094 16.964844-7.039063 4.53125-4.542968 7.019531-10.566406 7-16.976562l-.101562-45.277344c-.082032-33.480468-6.777344-65.929687-19.417969-95.890625l45.632812-76.054687zm-78.917969-155.609375c48.519532 0 88 39.480469 88 88 0 20.816406-7.210937 40.511719-20.394531 56.296875l-123.902344-123.902344c15.785157-13.183594 35.480469-20.394531 56.296875-20.394531zm-8.777344 163.914063-67.273437-67.273438c-2.878906-2.878906-5.816406-5.671875-8.808594-8.390625l51.089844-22.703125 56.230469 56.230469-22.710938 51.097656c-2.757812-3.050781-5.609375-6.042969-8.527344-8.960937zm-169.214843-9.21875 96.160156-41.214844 56.34375 56.34375-41.210937 96.160156zm96.75-136.621094 35.34375 35.34375-52.597657 23.382812c-12.226562-9.617187-25.210937-18-38.824218-25.070312zm-13 83.328125-95.933594 41.109375-102.511719-102.511719h41.277344c58.792969 0 114.214844 21.753906 157.167969 61.402344zm-200.519531 168.527343-23.167969-23.167968 24.921875-41.527344c8.246094 16.144531 18.277344 31.4375 30.0625 45.605469zm64.335937 72.335938-23.839844-23.839844 19.128907-38.25 42.976562 42.96875zm71.664063 63.664062-23.167969-23.167968 19.097656-31.824219c14.167969 11.785156 29.460937 21.816406 45.605469 30.0625zm-9.878907-81.878906-67.417969-67.410156c-43.808593-43.824219-67.941406-102.078125-67.941406-164.046875v-41.28125l340.6875 340.6875h-41.28125c-61.960937 0-120.222656-24.132813-164.046875-67.949219zm216.597657 56.597656-102.46875-102.480468 41.109374-95.925782c39.425782 42.78125 61.128907 97.96875 61.265626 156.488282zm-11.726563-155.246093c-7.0625-13.640625-15.441406-26.640625-25.046875-38.875l23.390625-52.628907 35.34375 35.34375zm0 0"/><path d="m0 482.667969 15.996094-15.996094 11.316406 11.3125-16 15.996094zm0 0"/><path d="m24 458.667969 96.003906-96 11.3125 11.3125-96.003906 96zm0 0"/><path d="m64 458.667969 15.996094-15.996094 11.3125 11.3125-15.996094 16zm0 0"/><path d="m87.996094 434.671875 40-40 11.3125 11.316406-40 39.996094zm0 0"/><path d="m24 418.667969 15.996094-15.996094 11.316406 11.3125-16 16zm0 0"/><path d="m47.996094 394.671875 40-40 11.3125 11.316406-40 39.996094zm0 0"/><path d="m0 346.667969 16-15.996094 11.3125 11.3125-16 16zm0 0"/><path d="m24.003906 322.667969 32-32 11.3125 11.3125-32 32zm0 0"/><path d="m40 346.667969 32-32 11.316406 11.3125-32 32zm0 0"/><path d="m.00390625 306.667969 31.99999975-32 11.3125 11.3125-32 32zm0 0"/><path d="m136 482.667969 15.996094-15.996094 11.3125 11.3125-15.996094 16zm0 0"/><path d="m160 458.667969 32-32 11.3125 11.3125-32 32zm0 0"/><path d="m176 482.667969 32-32 11.3125 11.3125-32 32zm0 0"/><path d="m136 442.667969 32-32 11.316406 11.3125-32.003906 32zm0 0"/><path d="m205.660156 136.328125c13.230469 0 24-10.765625 24-24 0-13.230469-10.769531-24-24-24-13.234375 0-24 10.769531-24 24 0 13.234375 10.765625 24 24 24zm0-32c4.40625 0 8 3.59375 8 8 0 4.410156-3.59375 8-8 8-4.410156 0-8-3.589844-8-8 0-4.40625 3.589844-8 8-8zm0 0"/><path d="m357.660156 288.328125c0 13.234375 10.765625 24 24 24 13.230469 0 24-10.765625 24-24 0-13.230469-10.769531-24-24-24-13.234375 0-24 10.769531-24 24zm32 0c0 4.417969-3.59375 8-8 8-4.410156 0-8-3.582031-8-8 0-4.414063 3.589844-8 8-8 4.40625 0 8 3.585937 8 8zm0 0"/><path d="m301.660156 168.328125c-13.234375 0-24 10.769531-24 24 0 13.234375 10.765625 24 24 24 13.230469 0 24-10.765625 24-24 0-13.230469-10.769531-24-24-24zm0 32c-4.410156 0-8-3.589844-8-8 0-4.40625 3.589844-8 8-8 4.40625 0 8 3.59375 8 8 0 4.410156-3.59375 8-8 8zm0 0"/><path d="m362.660156 37.570312 6.007813 14.832032c4.472656-1.816406 9.175781-3.03125 13.984375-3.632813l-1.984375-15.878906c-6.183594.765625-12.25 2.34375-18.007813 4.679687zm0 0"/><path d="m389.660156 32.328125v16c17.078125 0 33.015625 7.65625 43.71875 21l12.488282-10.007813c-13.761719-17.152343-34.25-26.992187-56.207032-26.992187zm0 0"/></svg>