<svg height="496pt" viewBox="0 0 496 496" width="496pt" xmlns="http://www.w3.org/2000/svg"><path d="m368 248h32v80h-32zm0 0" fill="#f5e0cd"/><path d="m384 136h-88v64c0 8.800781 7.199219 16 16 16h144c8.800781 0 16-7.199219 16-16v-64zm0 0" fill="#e6e9ed"/><path d="m424 176c0 22.089844-17.910156 40-40 40s-40-17.910156-40-40 17.910156-40 40-40 40 17.910156 40 40zm0 0" fill="#69d6f4"/><path d="m472 120v16h-176v-16c0-8.800781 7.199219-16 16-16h144c8.800781 0 16 7.199219 16 16zm0 0" fill="#dfb28b"/><path d="m416 72 16 32h-96l16-32zm0 0" fill="#f0d0b4"/><path d="m432 216-16 32h-64l-16-32zm0 0" fill="#f0d0b4"/><path d="m274.558594 408c3.519531 7.28125 5.441406 15.359375 5.441406 24 0 30.960938-25.039062 56-56 56s-56-25.039062-56-56c0-8.640625 1.921875-16.71875 5.441406-24 8.957032-18.960938 28.167969-32 50.558594-32 22.398438 0 41.601562 13.039062 50.558594 32zm0 0" fill="#b27946"/><path d="m432 376c30.960938 0 56 25.039062 56 56s-25.039062 56-56 56-56-25.039062-56-56c0-8.558594 1.921875-16.71875 5.441406-24 4.488282-9.519531 11.519532-17.519531 20.320313-23.121094 8.71875-5.679687 19.039062-8.878906 30.238281-8.878906zm0 0" fill="#b27946"/><path d="m432 344v32c-11.199219 0-21.519531 3.199219-30.238281 8.878906l-113.761719-56.878906h128c8.800781 0 16 7.199219 16 16zm0 0" fill="#e6e9ed"/><path d="m288 328 113.761719 56.878906c-8.800781 5.59375-15.832031 13.59375-20.320313 23.121094h-5.441406l-208-104 5.199219-5.199219c6.878906-6.878906 16.320312-10.800781 26.082031-10.800781 5.757812 0 11.359375 1.359375 16.472656 3.921875zm0 0" fill="#f0d0b4"/><path d="m456 432c0 13.253906-10.746094 24-24 24s-24-10.746094-24-24 10.746094-24 24-24 24 10.746094 24 24zm0 0" fill="#ffeaa7"/><path d="m128 168c0-17.679688-14.320312-32-32-32-2.320312 0-4.640625.238281-6.800781.71875l14.800781-88.71875 112 112-88.71875 14.800781c.480469-2.160156.71875-4.480469.71875-6.800781zm0 0" fill="#aab2bd"/><path d="m144 264 21.359375 42.640625-21.359375 21.359375h-80v-64zm0 0" fill="#ccd1d9"/><path d="m248 432c0 13.253906-10.746094 24-24 24s-24-10.746094-24-24 10.746094-24 24-24 24 10.746094 24 24zm0 0" fill="#ffeaa7"/><path d="m114.640625 408h-.082031c-.238282-.558594-.488282-1.199219-.804688-1.761719l86.246094-86.238281 176 88h-101.441406c-8.957032-18.960938-28.160156-32-50.558594-32s-41.601562 13.039062-50.558594 32zm0 0" fill="#e6e9ed"/><path d="m144 328-54.238281 54.238281c-7.683594-4-16.480469-6.238281-25.761719-6.238281-11.921875 0-22.960938 3.679688-32 10.078125v-42.078125c0-8.800781 7.199219-16 16-16zm0 0" fill="#e6e9ed"/><path d="m114.558594 408c3.519531 7.28125 5.441406 15.359375 5.441406 24 0 30.960938-25.039062 56-56 56s-56-25.039062-56-56c0-19.039062 9.441406-35.839844 24-45.921875 9.039062-6.398437 20.078125-10.078125 32-10.078125 9.28125 0 18.078125 2.238281 25.761719 6.238281 10.238281 5.363281 18.636719 13.761719 24 24 .316406.5625.558593 1.203125.796875 1.761719zm0 0" fill="#b27946"/><path d="m88 432c0 13.253906-10.746094 24-24 24s-24-10.746094-24-24 10.746094-24 24-24 24 10.746094 24 24zm0 0" fill="#ffeaa7"/><path d="m200 320-86.238281 86.238281c-5.363281-10.238281-13.761719-18.636719-24-24l78.238281-78.238281zm0 0" fill="#f5e0cd"/><path d="m96 136c17.679688 0 32 14.320312 32 32 0 2.320312-.238281 4.640625-.71875 6.800781-1.921875 8.960938-7.601562 16.488281-15.28125 20.878907-4.71875 2.71875-10.160156 4.320312-16 4.320312-5.847656 0-11.28125-1.601562-16-4.320312-9.601562-5.519532-16-15.839844-16-27.679688 0-15.359375 10.800781-28.160156 25.199219-31.28125 2.160156-.480469 4.480469-.71875 6.800781-.71875zm0 0" fill="#fcd770"/><path d="m112 195.679688v68.320312h-32v-68.320312c4.71875 2.71875 10.152344 4.320312 16 4.320312 5.839844 0 11.28125-1.601562 16-4.320312zm0 0" fill="#e6e9ed"/><path d="m192 72-8 56-48-48zm0 0" fill="#ffeaa7"/><path d="m440 368.550781v-24.550781c0-13.230469-10.769531-24-24-24h-8v-64h12.945312l16-32h19.054688c13.230469 0 24-10.769531 24-24v-80c0-13.230469-10.769531-24-24-24h-19.054688l-16-32h-73.890624l-16 32h-19.054688c-13.230469 0-24 10.769531-24 24v80c0 13.230469 10.769531 24 24 24h19.054688l16 32h12.945312v64h-70.113281l-70.511719-35.257812c-6.207031-3.101563-13.152344-4.742188-20.085938-4.742188-10.601562 0-20.503906 3.824219-28.554687 10.519531l-.285156-.289062-2.921875 2.921875-18.582032-37.152344h-28.945312v-56.207031c6.023438-4.5625 10.6875-10.722657 13.375-17.914063l99.28125-16.542968-40.160156-40.160157 8.945312-62.609375-62.609375 8.945313-40.160156-40.160157-16.542969 99.28125c-15.21875 5.664063-26.128906 20.214844-26.128906 37.367188 0 13.015625 6.34375 24.488281 16 31.792969v56.207031h-16v64h-8c-13.230469 0-24 10.769531-24 24v38.121094c-14.609375 11.734375-24 29.71875-24 49.878906 0 35.289062 28.710938 64 64 64s64-28.710938 64-64c0-5.535156-.777344-10.871094-2.105469-16h36.21875c-1.335937 5.128906-2.113281 10.464844-2.113281 16 0 35.289062 28.710938 64 64 64s64-28.710938 64-64c0-5.535156-.777344-10.871094-2.105469-16h84.21875c-1.335937 5.128906-2.113281 10.464844-2.113281 16 0 35.289062 28.710938 64 64 64s64-28.710938 64-64c0-32.574219-24.480469-59.488281-56-63.449219zm16-160.550781h-36.320312c7.632812-8.503906 12.320312-19.695312 12.320312-32s-4.6875-23.496094-12.320312-32h44.320312v56c0 4.414062-3.585938 8-8 8zm-104-32c0-17.648438 14.351562-32 32-32s32 14.351562 32 32-14.351562 32-32 32-32-14.351562-32-32zm4.945312-96h54.109376l8 16h-70.109376zm-44.945312 32h144c4.414062 0 8 3.585938 8 8v8h-160v-8c0-4.414062 3.585938-8 8-8zm-8 88v-56h44.320312c-7.632812 8.503906-12.320312 19.695312-12.320312 32s4.6875 23.496094 12.320312 32h-36.320312c-4.414062 0-8-3.585938-8-8zm44.945312 24h70.109376l-8 16h-54.109376zm27.054688 32h16v64h-16zm40 80c4.414062 0 8 3.585938 8 8v24.550781c-8.070312 1.015625-15.703125 3.488281-22.550781 7.226563l-79.5625-39.777344zm-203.792969-36.945312 174.863281 87.433593c-3.917968 3.871094-7.300781 8.273438-10.125 13.039063l-195.210937-97.597656c8.503906-6.53125 20.738281-7.753907 30.472656-2.875zm-109.816406 81.867187 67.183594-67.1875 16.921875 8.457031-71.40625 71.410156c-3.625-4.800781-7.890625-9.066406-12.699219-12.679687zm80.175781-299.488281-4.230468 29.597656-25.367188-25.367188zm16.785156 73.230468-63.625 10.609376c-1.367187-19.839844-17.152343-35.625-36.992187-36.992188l10.609375-63.625zm-103.351562-10.664062c13.230469 0 24 10.769531 24 24s-10.769531 24-24 24-24-10.769531-24-24 10.769531-24 24-24zm-8 63.191406c2.585938.527344 5.265625.808594 8 .808594s5.414062-.28125 8-.808594v48.808594h-16zm-16 64.808594h67.054688l16.546874 33.089844-1.113281 1.109375-13.800781 13.800781h-68.6875zm-32 72c0-4.414062 3.585938-8 8-8h76.6875l-36.703125 36.703125c-7.417969-3.007813-15.503906-4.703125-23.984375-4.703125-8.488281 0-16.585938 1.695312-24 4.710938zm24 136c-26.472656 0-48-21.527344-48-48s21.527344-48 48-48 48 21.527344 48 48-21.527344 48-48 48zm160 0c-26.472656 0-48-21.527344-48-48s21.527344-48 48-48 48 21.527344 48 48-21.527344 48-48 48zm0-112c-23.625 0-44.257812 12.902344-55.34375 32h-37.34375l70.261719-70.265625 140.539062 70.265625h-62.769531c-11.085938-19.097656-31.71875-32-55.34375-32zm208 112c-26.472656 0-48-21.527344-48-48s21.527344-48 48-48 48 21.527344 48 48-21.527344 48-48 48zm0 0"/><path d="m432 400c-17.648438 0-32 14.351562-32 32s14.351562 32 32 32 32-14.351562 32-32-14.351562-32-32-32zm0 48c-8.824219 0-16-7.175781-16-16s7.175781-16 16-16 16 7.175781 16 16-7.175781 16-16 16zm0 0"/><path d="m64 400c-17.648438 0-32 14.351562-32 32s14.351562 32 32 32 32-14.351562 32-32-14.351562-32-32-32zm0 48c-8.824219 0-16-7.175781-16-16s7.175781-16 16-16 16 7.175781 16 16-7.175781 16-16 16zm0 0"/><path d="m224 400c-17.648438 0-32 14.351562-32 32s14.351562 32 32 32 32-14.351562 32-32-14.351562-32-32-32zm0 48c-8.824219 0-16-7.175781-16-16s7.175781-16 16-16 16 7.175781 16 16-7.175781 16-16 16zm0 0"/><path d="m216 72h16c0-22.054688-17.945312-40-40-40v16c13.230469 0 24 10.769531 24 24zm0 0"/><path d="m248 72h16c0-39.703125-32.296875-72-72-72v16c30.871094 0 56 25.128906 56 56zm0 0"/><path d="m104 168c0 4.417969-3.582031 8-8 8s-8-3.582031-8-8 3.582031-8 8-8 8 3.582031 8 8zm0 0"/></svg>