<?xml version="1.0" encoding="iso-8859-1"?>
<!-- Generator: Adobe Illustrator 19.0.0, SVG Export Plug-In . SVG Version: 6.00 Build 0)  -->
<svg version="1.1" id="Capa_1" xmlns="http://www.w3.org/2000/svg" xmlns:xlink="http://www.w3.org/1999/xlink" x="0px" y="0px"
	 viewBox="0 0 496.006 496.006" style="enable-background:new 0 0 496.006 496.006;" xml:space="preserve">
<circle style="fill:#148CE0;" cx="392.006" cy="104.003" r="96"/>
<path style="fill:#1261C5;" d="M392.006,8.003c-5.464,0-10.784,0.56-16,1.44c45.384,7.632,80,47.008,80,94.56
	s-34.616,86.928-80,94.56c5.216,0.88,10.536,1.44,16,1.44c53.016,0,96-42.984,96-96S445.022,8.003,392.006,8.003z"/>
<path style="fill:#EABD8C;" d="M183.11,164.219c-21.704-20.44-52.184-31.64-85.24-27.28c-45.544,6-82.384,42.536-88.8,88.032
	c-2.44,17.304-0.584,33.896,4.632,48.928c10.144,29.216,15.096,59.896,19.896,90.448c1.328,8.464,3.536,17.112,6.784,25.92
	c21.576,58.56,75.792,98.8,138.192,97.712c78.344-1.368,141.432-65.304,141.432-143.976c0-50.344-25.864-94.576-65.016-120.272
	C228.926,206.619,205.814,185.595,183.11,164.219z"/>
<path style="fill:#D3A06C;" d="M320.006,344.003c0-50.344-25.864-94.576-65.016-120.272c-26.064-17.112-49.176-38.136-71.872-59.512
	c-11.352-10.696-25.152-18.768-40.424-23.496l1.312,3.28c0,0,72,64,64,112c0,0,72,0,107.272,124.048
	C318.262,368.507,320.006,356.475,320.006,344.003z"/>
<circle style="fill:#ECECEC;" cx="80.006" cy="336.003" r="16"/>
<g>
	<path style="fill:#B27946;" d="M293.614,362.803c-3.64-1.816-6.592-4.768-8.408-8.408c-3.192-6.368-9.696-10.392-16.824-10.392
		h-1.576c-10.384,0-18.8,8.416-18.8,18.8v15.504c0,3.712-1.096,7.344-3.16,10.432l-8.232,12.344c-2.936,4.408-3.88,9.848-2.6,14.992
		l2.424,9.688c2.096,8.368,9.616,14.24,18.24,14.24h25.328h3.12c16.408-18.296,28.248-40.728,33.6-65.64L293.614,362.803z"/>
	<path style="fill:#B27946;" d="M112.006,432.003c-13.088,0-24.704,6.288-32,16l-0.752,1.128
		c19.504,18.312,43.664,31.048,70.28,36.216c1.488-4.2,2.472-8.64,2.472-13.344C152.006,449.915,134.094,432.003,112.006,432.003z"
		/>
	<path style="fill:#B27946;" d="M97.878,136.939c-5.96,0.784-11.768,2.12-17.384,3.912c2.352,15.352,15.496,27.152,31.512,27.152
		c15.984,0,29.112-11.752,31.504-27.064C129.374,136.435,113.942,134.819,97.878,136.939z"/>
	<path style="fill:#B27946;" d="M88.006,236.003v-8.368c0-2.368-0.704-4.688-2.016-6.656l-10.424-15.632
		c-2.224-3.336-5.968-5.344-9.984-5.344H54.43c-4.016,0-7.76-2.008-9.984-5.344l-12.44-18.656l-1.048-1.048
		c-11.416,14.176-19.256,31.312-21.888,50.016c-2.344,16.592-0.648,32.496,4.088,47.032h2.848h20c6.624,0,12-5.376,12-12
		c0-6.624,5.376-12,12-12h16C82.63,248.003,88.006,242.627,88.006,236.003z"/>
</g>
<g>
	<circle style="fill:#ECECEC;" cx="248.006" cy="288.003" r="16"/>
	<circle style="fill:#ECECEC;" cx="168.006" cy="232.003" r="16"/>
</g>
<g>
	<path style="fill:#48C397;" d="M314.142,160.003h17.864c6.624,0,12-5.376,12-12v-8c0-6.624,5.376-12,12-12s12-5.376,12-12v-24
		c0-6.624-5.376-12-12-12h-15.032c-3.184,0-6.232-1.264-8.488-3.512l-20.48-20.488l-1.896-1.896
		c-8.888,14.552-14.104,31.592-14.104,49.896C296.006,124.931,302.774,144.227,314.142,160.003z"/>
	<path style="fill:#48C397;" d="M385.366,31.411c4.008,10.024,13.72,16.592,24.512,16.592c8.824,0,17.072-4.408,21.968-11.752
		l8.16-12.248l1.448-2.176c-14.456-8.712-31.336-13.824-49.448-13.824c-5.272,0-10.416,0.536-15.456,1.36L385.366,31.411z"/>
	<path style="fill:#48C397;" d="M488.006,104.003c0-2.704-0.184-5.352-0.4-8H463.03c-4.576,0-9.048,1.352-12.864,3.896l-7.84,5.224
		c-6.448,4.296-10.32,11.536-10.32,19.288c0,7.296-3.432,14.168-9.272,18.544l-13.456,10.088c-5.84,4.384-9.272,11.256-9.272,18.552
		v28.008C449.27,195.523,488.006,154.323,488.006,104.003z"/>
</g>
<g>
	<path style="fill:#0FA196;" d="M429.942,38.451c0.624-0.744,1.352-1.384,1.896-2.2l8.168-12.248l1.448-2.176
		c-14.456-8.712-31.336-13.824-49.448-13.824c-5.272,0-10.416,0.536-15.456,1.36l0.088,0.216
		C397.518,13.235,416.03,23.651,429.942,38.451z"/>
	<path style="fill:#0FA196;" d="M488.006,104.003c0-2.704-0.184-5.352-0.4-8H463.03c-2.512,0-4.976,0.44-7.328,1.232
		c0.152,2.24,0.304,4.488,0.304,6.768c0,38.728-22.96,72.024-56,87.168v8.424C449.27,195.523,488.006,154.323,488.006,104.003z"/>
</g>
<path d="M392.006,208.003c57.344,0,104-46.656,104-104s-46.656-104-104-104s-104,46.656-104,104S334.662,208.003,392.006,208.003z
	 M408.006,190.475v-18.88c0-4.752,2.272-9.296,6.072-12.152l13.456-10.088c7.808-5.856,12.472-15.184,12.472-24.944
	c0-5.088,2.528-9.808,6.76-12.632l7.832-5.224c2.512-1.672,5.416-2.552,8.424-2.552h16.984
	C480.006,147.059,448.902,182.923,408.006,190.475z M429.918,24.715l-4.736,7.104c-3.416,5.12-9.136,8.184-15.304,8.184
	c-7.568,0-14.272-4.536-17.08-11.568l-4.888-12.224c1.368-0.064,2.712-0.208,4.096-0.208
	C405.59,16.003,418.422,19.187,429.918,24.715z M371.582,18.491l6.352,15.888c5.256,13.136,17.792,21.624,31.944,21.624
	c11.528,0,22.232-5.728,28.624-15.32l5.176-7.76c17.856,13.016,30.64,32.528,34.8,55.08H463.03c-6.176,0-12.16,1.816-17.296,5.24
	l-7.832,5.224c-8.704,5.792-13.896,15.496-13.896,25.944c0,4.752-2.272,9.296-6.072,12.152l-13.456,10.088
	c-7.808,5.856-12.472,15.184-12.472,24.944v20.408c-23.296,0-44.456-9.168-60.208-24h0.208c11.024,0,20-8.976,20-20v-8
	c0-2.208,1.792-4,4-4c11.024,0,20-8.976,20-20v-24c0-11.024-8.976-20-20-20h-15.032c-1.048,0-2.08-0.424-2.832-1.168l-17.768-17.768
	C332.542,36.011,350.606,23.507,371.582,18.491z M312.086,67.395l14.752,14.752c3.72,3.72,8.872,5.856,14.136,5.856h15.032
	c2.208,0,4,1.792,4,4v24c0,2.208-1.792,4-4,4c-11.024,0-20,8.976-20,20v8c0,2.208-1.792,4-4,4h-13.664
	c-9.032-13.816-14.336-30.288-14.336-48C304.006,90.931,306.95,78.555,312.086,67.395z"/>
<path d="M259.374,217.043c-25.904-17.008-49.168-38.296-70.776-58.648c-24.568-23.128-58-33.856-91.768-29.384
	c-49.376,6.504-88.72,45.512-95.68,94.848c-2.544,18.056-0.864,35.776,4.992,52.664c10.16,29.264,15.144,61.032,19.544,89.072
	c1.448,9.192,3.856,18.424,7.176,27.448c22.8,61.856,80.168,102.96,143.304,102.96c0.84,0,1.696-0.008,2.544-0.016
	c82.32-1.448,149.296-69.624,149.296-151.984C328.006,292.707,302.35,245.251,259.374,217.043z M98.926,144.867
	c4.32-0.568,8.624-0.848,12.904-0.848c7.344,0,14.576,0.928,21.624,2.544c-3.928,7.928-12.016,13.44-21.448,13.44
	c-9.496,0-17.648-5.584-21.536-13.608C93.246,145.771,96.062,145.243,98.926,144.867z M16.99,226.091
	c1.92-13.632,6.768-26.312,13.816-37.464l6.984,10.472c3.72,5.576,9.936,8.904,16.64,8.904h11.16c1.336,0,2.584,0.664,3.328,1.784
	l10.416,15.624c0.44,0.664,0.672,1.432,0.672,2.224v8.368c0,2.208-1.792,4-4,4h-16c-11.024,0-20,8.976-20,20c0,2.208-1.792,4-4,4
	h-16.8C16.006,251.739,15.158,239.035,16.99,226.091z M143.622,475.787c-19.44-5.024-37.544-14.4-53.048-27.384
	c5.832-5.328,13.328-8.4,21.432-8.4c17.648,0,32,14.352,32,32C144.006,473.291,143.766,474.531,143.622,475.787z M178.43,479.979
	c-6.4,0.12-12.728-0.304-18.968-1.112c0.32-2.264,0.544-4.544,0.544-6.864c0-26.472-21.528-48-48-48
	c-12.568,0-24.248,4.824-33.112,13.336c-13.256-13.952-23.984-30.76-31.016-49.832c-2.96-8.032-5.104-16.248-6.392-24.4
	c-4.072-25.992-8.696-55.104-17.408-83.104h11.928c11.024,0,20-8.976,20-20c0-2.208,1.792-4,4-4h16c11.024,0,20-8.976,20-20v-8.368
	c0-3.952-1.16-7.792-3.36-11.096l-10.424-15.632c-3.72-5.576-9.936-8.904-16.64-8.904H54.43c-1.336,0-2.584-0.664-3.328-1.784
	l-10.008-15.016c9.384-10.272,20.944-18.504,33.984-23.904c6.016,14.488,20.296,24.704,36.928,24.704
	c16.568,0,30.816-10.136,36.88-24.528c10.496,4.376,20.256,10.576,28.744,18.568c22.12,20.832,45.976,42.664,72.968,60.376
	c38.448,25.24,61.408,67.704,61.408,113.584c0,6.232-0.576,12.328-1.408,18.352l-13.408-6.704c-2.08-1.04-3.8-2.76-4.832-4.832
	c-4.568-9.136-13.752-14.816-23.976-14.816h-1.576c-14.776,0-26.8,12.024-26.8,26.808v15.504c0,2.144-0.632,4.208-1.816,5.992
	l-8.232,12.344c-4.168,6.264-5.52,14.048-3.696,21.368l2.424,9.688c2.992,11.952,13.68,20.304,26,20.304h8.584
	C240.182,467.451,210.614,479.419,178.43,479.979z M279.222,432.003h-24.536c-4.968,0-9.28-3.36-10.48-8.184l-2.424-9.68
	c-0.736-2.952-0.192-6.096,1.496-8.624l8.232-12.336c2.944-4.416,4.496-9.56,4.496-14.864v-15.504
	c0-5.96,4.848-10.808,10.808-10.808h1.576c4.12,0,7.824,2.288,9.664,5.976c2.576,5.152,6.832,9.408,11.984,11.984l17.288,8.64
	C302.014,398.531,292.302,416.699,279.222,432.003z"/>
<rect x="408.006" y="360.003" width="16" height="16"/>
<rect x="144.006" y="80.003" width="16" height="16"/>
<rect x="272.006" y="176.003" width="16" height="16"/>
<path d="M80.006,312.003c-13.232,0-24,10.768-24,24s10.768,24,24,24s24-10.768,24-24S93.238,312.003,80.006,312.003z
	 M80.006,344.003c-4.408,0-8-3.592-8-8s3.592-8,8-8s8,3.592,8,8S84.414,344.003,80.006,344.003z"/>
<path d="M248.006,312.003c13.232,0,24-10.768,24-24s-10.768-24-24-24s-24,10.768-24,24S234.774,312.003,248.006,312.003z
	 M248.006,280.003c4.408,0,8,3.592,8,8s-3.592,8-8,8s-8-3.592-8-8S243.598,280.003,248.006,280.003z"/>
<rect x="168.006" y="344.003" width="16" height="16"/>
<rect x="184.006" y="440.003" width="16" height="16"/>
<path d="M192.006,232.003c0-13.232-10.768-24-24-24s-24,10.768-24,24s10.768,24,24,24S192.006,245.235,192.006,232.003z
	 M160.006,232.003c0-4.408,3.592-8,8-8s8,3.592,8,8s-3.592,8-8,8S160.006,236.411,160.006,232.003z"/>
<rect x="184.006" y="0.003" width="16" height="16"/>
<rect x="168.006" y="16.003" width="16" height="16"/>
<rect x="184.006" y="32.003" width="16" height="16"/>
<rect x="200.006" y="16.003" width="16" height="16"/>
<rect x="16.006" y="72.003" width="16" height="16"/>
<rect x="0.006" y="88.003" width="16" height="16"/>
<rect x="16.006" y="104.003" width="16" height="16"/>
<rect x="32.006" y="88.003" width="16" height="16"/>
<rect x="368.006" y="248.003" width="16" height="16"/>
<rect x="352.006" y="264.003" width="16" height="16"/>
<rect x="368.006" y="280.003" width="16" height="16"/>
<rect x="384.006" y="264.003" width="16" height="16"/>
<rect x="440.006" y="416.003" width="16" height="16"/>
<rect x="424.006" y="432.003" width="16" height="16"/>
<rect x="440.006" y="448.003" width="16" height="16"/>
<rect x="456.006" y="432.003" width="16" height="16"/>
<rect x="320.006" y="480.003" width="16" height="16"/>
<rect x="360.006" y="408.003" width="16" height="16"/>
<g>
</g>
<g>
</g>
<g>
</g>
<g>
</g>
<g>
</g>
<g>
</g>
<g>
</g>
<g>
</g>
<g>
</g>
<g>
</g>
<g>
</g>
<g>
</g>
<g>
</g>
<g>
</g>
<g>
</g>
</svg>
