<svg height="493pt" viewBox="0 0 493.65872 493" width="493pt" xmlns="http://www.w3.org/2000/svg"><path d="m408.9375 389.050781c2.960938 2.878907 4.722656 6.878907 4.722656 11.277344 0 8.800781-7.203125 16-16 16-4.402344 0-8.402344-1.757813-11.28125-4.71875-2.960937-2.878906-4.71875-6.878906-4.71875-11.28125 0-8.796875 7.199219-16 16-16 4.398438 0 8.398438 1.761719 11.277344 4.722656zm0 0" fill="#e6e9ed"/><path d="m397.097656 23.769531 73.121094 73.128907c-7.441406 27.679687-18.078125 54.320312-31.441406 79.4375-17.4375 32.5625-39.679688 62.5625-66 88.882812-12.398438 12.398438-25.679688 23.910156-39.597656 34.398438-21.121094 16-43.839844 29.679687-67.839844 40.871093l-37.839844 17.6875-21.839844 10.152344-80-80 10.160156-21.839844 17.679688-37.832031c11.199219-24 24.878906-46.71875 40.878906-67.839844 10.480469-13.910156 22-27.191406 34.398438-39.589844 46.722656-46.746093 104.722656-80.257812 168.320312-97.457031zm0 0" fill="#e6e9ed"/><path d="m56.9375 141.050781c2.960938 2.878907 4.722656 6.878907 4.722656 11.277344 0 8.800781-7.203125 16-16 16-4.402344 0-8.402344-1.757813-11.28125-4.71875-2.960937-2.878906-4.71875-6.878906-4.71875-11.28125 0-8.796875 7.199219-16 16-16 4.398438 0 8.398438 1.761719 11.277344 4.722656zm0 0" fill="#ffeaa7"/><path d="m485.660156 24.328125-9.519531 47.761719c-1.683594 8.320312-3.601563 16.640625-5.921875 24.808594l-73.121094-73.128907c8.160156-2.320312 16.480469-4.230469 24.800782-5.914062l47.761718-9.527344c4.398438 0 8.398438 1.761719 11.277344 4.722656 2.960938 2.878907 4.722656 6.878907 4.722656 11.277344zm0 0" fill="#fcd770"/><path d="m349.660156 88.328125c30.957032 0 56 25.042969 56 56 0 30.960937-25.042968 56-56 56-30.960937 0-56-25.039063-56-56 0-30.957031 25.039063-56 56-56zm0 0" fill="#69d6f4"/><path d="m373.660156 144.328125c0 13.257813-10.746094 24-24 24-13.257812 0-24-10.742187-24-24 0-13.253906 10.742188-24 24-24 13.253906 0 24 10.746094 24 24zm0 0" fill="#4fc1e9"/><path d="m197.660156 360.328125-32 16-48-48 16-32zm0 0" fill="#ff826e"/><g fill="#fcd770"><path d="m333.179688 299.609375c-5.28125 78.640625-63.519532 100.71875-63.519532 100.71875l-42.160156-42.160156 37.839844-17.6875c24-11.191407 46.71875-24.871094 67.839844-40.871094zm0 0"/><path d="m285.660156 248.328125-88 72-24-24 72-88zm0 0"/><path d="m194.378906 160.808594c-16 21.128906-29.679687 43.839844-40.878906 67.839844l-17.679688 37.832031-42.160156-42.152344s22.078125-58.238281 100.71875-63.519531zm0 0"/></g><path d="m257.027344 149.519531c5.183594-5.175781 10.640625-10.285156 16.207031-15.183593l-10.550781-12.015626c-5.832032 5.121094-11.535156 10.472657-16.96875 15.890626-19.878906 19.878906-37.335938 42.070312-51.894532 65.949218l13.664063 8.328125c13.886719-22.789062 30.558594-43.984375 49.542969-62.96875zm0 0"/><path d="m198.515625 228.128906-14.089844-7.589844c-2.894531 5.375-5.65625 10.832032-8.277343 16.375l14.460937 6.839844c2.503906-5.289062 5.144531-10.503906 7.90625-15.625zm0 0"/><path d="m469.660156.328125-49.363281 9.714844c-74.957031 14.992187-143.148437 51.488281-197.214844 105.542969-11.886719 11.886718-22.933593 24.472656-33.101562 37.703124-79.625 7.152344-102.851563 65.671876-103.800781 68.207032l-1.832032 4.832031 41.878906 41.882813-10.183593 21.8125 7.878906 7.882812-16 32 56.160156 56.160156 32-16 7.878907 7.878906 21.816406-10.183593 41.875 41.878906 4.832031-1.832031c2.535156-.960938 61.0625-24.183594 68.207031-103.808594 13.222656-10.167969 25.808594-21.214844 37.703125-33.101562 54.0625-54.058594 90.558594-122.25 105.550781-197.210938l9.5625-47.789062.152344-1.570313c0-13.230469-10.769531-24-24-24zm-366.402344 222.289063c6.105469-11.734376 26.335938-42.253907 73.847657-51.441407-11.671875 17.128907-22.023438 35.167969-30.855469 54.105469l-12.832031 27.496094zm63.976563 143.976562-39.839844-39.839844 8.457031-16.921875 48.304688 48.304688zm104.136719 24.136719-30.167969-30.160157 27.496094-12.832031c18.933593-8.832031 36.984375-19.183593 54.113281-30.863281-9.179688 47.535156-39.730469 67.757812-51.441406 73.855469zm95.710937-131.144531c-30.589843 30.582031-65.96875 55.367187-105.152343 73.648437l-54.582032 25.480469-72.082031-72.082032 25.480469-54.582031c18.289062-39.183593 43.066406-74.570312 73.648437-105.152343 44.824219-44.824219 99.792969-77.015626 160.320313-94.199219l66.566406 66.566406c-17.183594 60.535156-49.375 115.503906-94.199219 160.320313zm101.175781-189.039063c-.71875 3.589844-1.527343 7.160156-2.351562 10.71875l-53.191406-53.191406c3.558594-.824219 7.128906-1.632813 10.71875-2.351563l46.875-9.378906c3.886718.320312 7 3.433594 7.316406 7.320312zm0 0"/><path d="m162.882812 296.867188 34.238282 34.230468 100.449218-82.175781-52.496093-52.496094zm110.871094-49.128907-75.550781 61.824219-13.761719-13.769531 61.816406-75.550781zm0 0"/><path d="m349.660156 80.328125c-35.289062 0-64 28.714844-64 64 0 35.289063 28.710938 64 64 64 35.285156 0 64-28.710937 64-64 0-35.285156-28.714844-64-64-64zm0 112c-26.472656 0-48-21.527344-48-48s21.527344-48 48-48c26.46875 0 48 21.527344 48 48s-21.53125 48-48 48zm0 0"/><path d="m349.660156 112.328125c-17.648437 0-32 14.351563-32 32s14.351563 32 32 32c17.648438 0 32-14.351563 32-32s-14.351562-32-32-32zm0 48c-8.824218 0-16-7.175781-16-16s7.175782-16 16-16c8.824219 0 16 7.175781 16 16s-7.175781 16-16 16zm0 0"/><path d="m303.996094 482.671875 16-16 11.3125 11.316406-15.996094 15.996094zm0 0"/><path d="m480.003906 306.671875-72.066406 72.066406c-3.125-1.503906-6.582031-2.410156-10.277344-2.410156-13.234375 0-24 10.769531-24 24 0 3.695313.902344 7.152344 2.40625 10.28125l-48.0625 48.0625 11.3125 11.3125 48.0625-48.0625c3.128906 1.503906 6.582032 2.40625 10.28125 2.40625 13.230469 0 24-10.765625 24-24 0-3.695313-.90625-7.152344-2.410156-10.277344l72.066406-72.066406zm-82.34375 101.65625c-4.410156 0-8-3.582031-8-8 0-4.414063 3.589844-8 8-8 4.40625 0 8 3.585937 8 8 0 4.417969-3.59375 8-8 8zm0 0"/><path d="m0 482.667969 15.996094-15.996094 11.316406 11.3125-16 15.996094zm0 0"/><path d="m24 458.667969 96.003906-96 11.3125 11.3125-96.003906 96zm0 0"/><path d="m64 458.667969 15.996094-15.996094 11.3125 11.3125-15.996094 16zm0 0"/><path d="m87.996094 434.671875 47.996094-47.996094 11.316406 11.3125-48 47.996094zm0 0"/><path d="m24 418.667969 15.996094-15.996094 11.316406 11.3125-16 16zm0 0"/><path d="m47.996094 394.671875 48-47.996094 11.3125 11.3125-48 47.996094zm0 0"/><path d="m392 290.671875 15.996094-15.996094 11.3125 11.3125-15.996094 15.996094zm0 0"/><path d="m415.996094 266.675781 64-64.003906 11.316406 11.316406-64.003906 64zm0 0"/><path d="m152 122.671875 16-15.996094 11.3125 11.3125-16 15.996094zm0 0"/><path d="m176 98.675781 64-64.003906 11.3125 11.316406-64 64zm0 0"/><path d="m11.316406 197.984375 24.0625-24.0625c3.128906 1.503906 6.582032 2.40625 10.28125 2.40625 13.230469 0 24-10.765625 24-24 0-3.695313-.90625-7.152344-2.410156-10.277344l128.066406-128.066406-11.3125-11.3125-128.066406 128.066406c-3.125-1.503906-6.582031-2.410156-10.277344-2.410156-13.234375 0-24 10.769531-24 24 0 3.695313.902344 7.152344 2.40625 10.28125l-24.06249975 24.0625zm34.34375-53.65625c4.40625 0 8 3.585937 8 8 0 4.417969-3.59375 8-8 8-4.410156 0-8-3.582031-8-8 0-4.414063 3.589844-8 8-8zm0 0"/><path d="m24.003906 290.667969 32-32 11.3125 11.3125-32 32zm0 0"/><path d="m0 314.667969 16-15.996094 11.3125 11.3125-16 16zm0 0"/><path d="m224 458.667969 32-32 11.3125 11.3125-32 32zm0 0"/><path d="m200 482.667969 15.996094-15.996094 11.3125 11.3125-15.996094 16zm0 0"/></svg>