<svg id="Capa_1" enable-background="new 0 0 512 512" height="512" viewBox="0 0 512 512" width="512" xmlns="http://www.w3.org/2000/svg"><g><g><g><path d="m41.716 17.5v477c0 5.523 4.477 10 10 10h408.567c5.523 0 10-4.477 10-10v-477c0-5.523-4.477-10-10-10h-408.567c-5.523 0-10 4.477-10 10z" fill="#db387e"/><path d="m460.284 7.5h-30c5.523 0 10 4.477 10 10v477c0 5.523-4.477 10-10 10h30c5.523 0 10-4.477 10-10v-477c0-5.523-4.477-10-10-10z" fill="#c4237c"/><path d="m84.639 456.577v-401.154c0-2.761 2.239-5 5-5h332.722c2.761 0 5 2.239 5 5v401.155c0 2.761-2.239 5-5 5h-332.722c-2.762-.001-5-2.239-5-5.001z" fill="#ddebfd"/><path d="m256 116.131c-182.836 0-123.007 230.084-61.976 313.696h123.952c61.031-83.611 120.86-313.696-61.976-313.696z" fill="#407194"/><path d="m256 116.131c-4.839 0-9.497.171-14 .486 165.658 11.599 107.392 231.811 47.976 313.21h28c61.031-83.611 120.86-313.696-61.976-313.696z" fill="#365f7e"/><path d="m353.036 456v5.58h-194.072v-5.58c0-43.387 28.483-80.12 67.771-92.531 4.996-1.575 8.406-6.174 8.406-11.42v-59.688h41.718v59.688c0 5.246 3.41 9.845 8.406 11.42 39.288 12.412 67.771 49.144 67.771 92.531z" fill="#5392f9"/><path d="m285.265 363.47c-4.996-1.575-8.406-6.174-8.406-11.42v-59.688h-27v59.688c0 5.246 3.411 9.845 8.406 11.42 11.946 3.773 23.273 10.051 32.613 17.793-.001.003-.003.006-.005.01 21.476 17.796 35.162 44.66 35.162 74.728v5.58h27v-5.581c.001-43.387-28.482-80.119-67.77-92.53z" fill="#4071f7"/><path d="m317.878 381.262c-5.246 11.118-11.014 19.92-17.282 24.697-19.827 15.112-69.367 15.112-89.193 0-6.268-4.777-12.036-13.579-17.282-24.697 9.512-7.885 20.557-13.986 32.613-17.793 4.996-1.575 8.406-6.174 8.406-11.42v-59.688h41.718v59.688c0 5.246 3.41 9.845 8.406 11.42 12.058 3.807 23.103 9.909 32.614 17.793z" fill="#eec06b"/><path d="m258.265 363.47c12.077 3.815 23.35 10.114 32.613 17.793-.001.003-.003.006-.005.01 6.238 5.169 11.814 11.109 16.593 17.665 3.67-4.716 7.142-10.745 10.412-17.674-9.512-7.885-20.557-13.986-32.613-17.793-4.996-1.575-8.406-6.174-8.406-11.42v-59.688h-27v59.688c0 5.244 3.411 9.844 8.406 11.419z" fill="#e9a761"/><path d="m295.754 185.406c10.658 0 19.298 8.64 19.298 19.298v60.478c0 32.603-26.439 59.042-59.052 59.042s-59.052-26.439-59.052-59.042v-16.212c0-5.449 3.655-10.191 8.905-11.653 28.791-8.017 55.407-24.038 75.852-45.83 3.642-3.881 8.727-6.081 14.049-6.081z" fill="#eec06b"/></g></g><g><path d="m470.284 402.327c4.143 0 7.5-3.358 7.5-7.5v-377.327c0-9.649-7.851-17.5-17.5-17.5h-408.568c-9.649 0-17.5 7.851-17.5 17.5v477c0 9.649 7.851 17.5 17.5 17.5h408.568c9.649 0 17.5-7.851 17.5-17.5v-64.673c0-4.142-3.357-7.5-7.5-7.5s-7.5 3.358-7.5 7.5v64.673c0 1.378-1.121 2.5-2.5 2.5h-408.568c-1.379 0-2.5-1.122-2.5-2.5v-477c0-1.378 1.121-2.5 2.5-2.5h408.568c1.379 0 2.5 1.122 2.5 2.5v377.327c0 4.142 3.358 7.5 7.5 7.5z"/><path d="m89.639 42.923c-6.893 0-12.5 5.607-12.5 12.5v401.154c0 6.893 5.607 12.5 12.5 12.5h332.723c6.893 0 12.5-5.607 12.5-12.5v-401.154c0-6.893-5.607-12.5-12.5-12.5zm102.281 350.434c4.794 8.474 9.72 14.592 14.937 18.568 11.254 8.578 30.196 12.866 49.144 12.866 18.943 0 37.892-4.29 49.143-12.865 5.218-3.976 10.144-10.094 14.938-18.568 15.936 16.274 24.941 37.854 25.421 60.721h-179.004c.477-22.731 9.387-44.348 25.421-60.722zm64.08-76.634c-28.426 0-51.552-23.122-51.552-51.542v-16.211c0-2.047 1.405-3.868 3.416-4.428 30.417-8.469 57.842-25.041 79.311-47.923 2.214-2.359 5.341-3.713 8.579-3.713 6.505 0 11.798 5.292 11.798 11.798v60.478c0 28.42-23.126 51.541-51.552 51.541zm-13.36 35.327v-21.675c8.682 1.776 17.829 1.819 26.721 0v21.675c0 8.528 5.485 15.992 13.649 18.572 9.306 2.94 17.85 7.275 25.438 12.729-5.197 9.805-9.528 14.456-12.398 16.644-17.217 13.124-62.882 13.125-80.101 0-2.87-2.187-7.2-6.838-12.397-16.643 7.588-5.455 16.133-9.789 25.438-12.729 8.164-2.581 13.65-10.045 13.65-18.573zm177.221 102.027h-59.359c-.343-19.179-5.791-37.519-15.909-53.592 18.544-35.774 32.416-78.296 38.212-117.44 14.986-101.199-22.612-174.415-126.805-174.415-17.348 0-33.256 2.036-47.283 6.05-3.982 1.14-6.287 5.292-5.147 9.274s5.294 6.287 9.274 5.147c12.685-3.63 27.205-5.471 43.156-5.471 93.618 0 125.784 63.912 111.967 157.218-5.214 35.213-17.246 73.282-33.395 106.201-12.6-14.385-28.712-24.939-47.042-30.73-1.896-.599-3.169-2.314-3.169-4.269v-26.687c22.55-10.666 38.191-33.628 38.191-60.181v-60.478c0-14.776-12.021-26.798-26.798-26.798-7.366 0-14.48 3.08-19.519 8.45-19.31 20.582-45.021 36.114-72.396 43.736-8.474 2.36-14.392 10.123-14.392 18.878v16.211c0 26.553 15.642 49.515 38.191 60.181v26.687c0 1.955-1.273 3.67-3.169 4.269-18.335 5.792-34.45 16.349-47.051 30.739-37.692-76.954-59.765-196.88 4.394-243.25 3.356-2.426 4.111-7.115 1.685-10.472-2.427-3.358-7.116-4.112-10.472-1.686-34.426 24.881-50.45 69.315-46.341 128.498 3.123 44.973 18.275 97.094 40.708 140.356-10.11 16.068-15.553 34.401-15.896 53.572h-59.357v-396.152h327.723v396.154z"/></g></g></svg>