<svg id="Capa_1" enable-background="new 0 0 512 512" height="512" viewBox="0 0 512 512" width="512" xmlns="http://www.w3.org/2000/svg"><g><g><g><path d="m312.998 504.5h51.008l-42.55-93.527h-130.913l-42.55 93.527h51.008l22.825-47.388c1.63-3.384 5.054-5.535 8.81-5.535h50.726c3.756 0 7.18 2.151 8.81 5.535z" fill="#9ec8fc"/><path d="m496.342 374.245h-480.684v-303.46c0-5.722 4.639-10.361 10.361-10.361h459.961c5.722 0 10.361 4.639 10.361 10.361v303.46z" fill="#407194"/><path d="m256 107.09c-59.654 0-108.011 49.355-108.011 110.24 0 60.894 48.358 110.249 108.011 110.249s108.011-49.355 108.011-110.249c0-60.885-48.357-110.24-108.011-110.24zm0 139.842c-16.347 0-29.602-13.246-29.602-29.602 0-16.347 13.255-29.593 29.602-29.593s29.602 13.246 29.602 29.593c0 16.356-13.255 29.602-29.602 29.602z" fill="#5392f9"/><path d="m256 246.932v80.647c-59.654 0-108.011-49.355-108.011-110.249 0-19.735 5.078-38.257 13.983-54.28l68.389 39.479c-2.525 4.359-3.963 9.409-3.963 14.801 0 16.356 13.255 29.602 29.602 29.602z" fill="#db387e"/><path d="m244.865 300.991c-37.959 0-71.459-19.457-91.466-49.131 14.197 43.977 54.763 75.719 102.601 75.719v-27.153c-3.662.372-7.377.565-11.135.565z" fill="#c4237c"/><path d="m364.011 217.33c0 60.894-48.358 110.249-108.011 110.249v-80.647c16.347 0 29.602-13.246 29.602-29.602 0-5.392-1.438-10.443-3.963-14.801l68.389-39.479c8.906 16.023 13.983 34.545 13.983 54.28z" fill="#9cd169"/><path d="m354.881 172.927c.62 4.846.944 9.787.944 14.805 0 58.72-43.772 106.993-99.825 112.693v27.153c59.654 0 108.011-49.355 108.011-110.249 0-15.799-3.262-30.817-9.13-44.402z" fill="#68b181"/><path d="m280.032 172.984h-48.064v-68.731c0-5.753 4.664-10.417 10.417-10.417h27.23c5.753 0 10.417 4.664 10.417 10.417z" fill="#eec06b"/><path d="m320.987 217.329c0 25.549-14.732 47.646-36.161 58.27-3.976 1.971-8.796 1.31-11.956-1.807-4.335-4.278-10.293-6.915-16.871-6.915s-12.535 2.637-16.871 6.915c-3.159 3.117-7.979 3.778-11.956 1.807-21.429-10.624-36.161-32.721-36.161-58.27 0-1.487.049-2.963.147-4.425.29-4.33 3.329-8.035 7.512-9.187 5.875-1.618 11.137-5.458 14.42-11.152 3.291-5.687 3.987-12.165 2.447-18.061-1.112-4.258.673-8.751 4.329-11.201 10.331-6.922 22.755-10.961 36.13-10.961s25.799 4.04 36.13 10.961c3.656 2.45 5.441 6.943 4.329 11.201-1.54 5.896-.844 12.374 2.447 18.061 3.283 5.694 8.545 9.534 14.42 11.152 4.184 1.152 7.222 4.857 7.512 9.187.103 1.463.153 2.938.153 4.425z" fill="#ddebfd"/><circle cx="256" cy="217.334" fill="#407194" r="18.651"/><path d="m496.342 374.245h-480.684v33.672c0 5.722 4.639 10.361 10.361 10.361h459.961c5.722 0 10.361-4.639 10.361-10.361v-33.672z" fill="#ddebfd"/><path d="m485.98 60.424h-32c5.722 0 10.361 4.639 10.361 10.361v303.46h32v-303.46c.001-5.722-4.638-10.361-10.361-10.361z" fill="#365f7e"/><path d="m464.342 374.245v33.672c0 5.722-4.639 10.361-10.361 10.361h32c5.723 0 10.361-4.639 10.361-10.361v-33.672z" fill="#bed9fd"/></g></g><g><path d="m229.85 217.334c0 14.419 11.731 26.15 26.15 26.15s26.15-11.731 26.15-26.15-11.731-26.151-26.15-26.151-26.15 11.732-26.15 26.151zm37.3 0c0 6.148-5.002 11.15-11.15 11.15s-11.15-5.002-11.15-11.15 5.002-11.151 11.15-11.151 11.15 5.003 11.15 11.151z"/><path d="m485.98 52.923h-160.21v-14.293c0-21.301-17.334-38.63-38.64-38.63-21.301 0-38.63 17.329-38.63 38.63v14.293h-222.48c-9.849 0-17.861 8.013-17.861 17.862v46.302c0 4.142 3.358 7.5 7.5 7.5s7.5-3.358 7.5-7.5v-46.302c0-1.578 1.284-2.862 2.861-2.862h222.48v18.417h-6.12c-9.809 0-17.793 7.929-17.9 17.713-49.683 14.376-83.99 60.723-83.99 113.277 0 64.928 51.817 117.75 115.51 117.75s115.51-52.822 115.51-117.75c0-52.675-34.354-98.914-83.99-113.277-.107-9.784-8.091-17.713-17.9-17.713h-6.12v-18.417h222.48c1.578 0 2.861 1.284 2.861 2.862v295.96h-465.683v-214.658c0-4.142-3.358-7.5-7.5-7.5s-7.5 3.358-7.5 7.5v255.829c0 9.849 8.013 17.862 17.861 17.862h149.54l-32.396 71.222h-39.102c-4.142 0-7.5 3.358-7.5 7.5s3.358 7.5 7.5 7.5h303.879c4.142 0 7.5-3.358 7.5-7.5s-3.358-7.5-7.5-7.5h-39.102l-32.397-71.222h78.171c4.142 0 7.5-3.358 7.5-7.5s-3.358-7.5-7.5-7.5h-388.592c-1.578 0-2.861-1.284-2.861-2.862v-26.171h465.684v26.171c0 1.578-1.284 2.862-2.861 2.862h-36.369c-4.142 0-7.5 3.358-7.5 7.5s3.358 7.5 7.5 7.5h36.369c9.849 0 17.861-8.013 17.861-17.862v-337.131c-.001-9.849-8.014-17.862-17.863-17.862zm-198.024 116.611c1.027.688 1.54 1.953 1.248 3.075-4.381 16.771 5.63 33.794 22.132 38.339 2.506.691 2.151 3.658 2.151 6.381 0 22.014-12.259 41.767-31.992 51.55-1.163.577-2.513.406-3.356-.426-5.931-5.852-13.792-9.074-22.138-9.074s-16.208 3.223-22.138 9.074c-.844.832-2.192 1.004-3.357.426-19.733-9.783-31.992-29.536-31.992-51.55 0-2.662-.367-5.687 2.151-6.38 16.404-4.519 26.535-21.484 22.133-38.339-.293-1.122.22-2.387 1.247-3.075 9.463-6.341 20.514-9.692 31.956-9.692s22.491 3.351 31.955 9.691zm-63.486-49.762v32.279c-3.022 1.463-5.956 3.133-8.775 5.022-6.342 4.25-9.32 12.016-7.411 19.327.434 1.661.594 3.35.508 5.02l-36.441-21.037c12.729-19.555 31.41-33.597 52.119-40.611zm-68.98 97.558c0-15.208 3.353-30.187 9.623-43.806l36.178 20.885c-1.405.912-2.951 1.62-4.61 2.077-7.274 2.004-12.5 8.4-13.003 15.916-.109 1.624-.165 3.282-.165 4.927 0 27.754 15.453 52.656 40.33 64.99 6.896 3.418 15.156 2.138 20.554-3.188 1.224-1.208 2.61-2.193 4.103-2.954v43.617c-51.932-3.935-93.01-48.386-93.01-102.464zm108.01 102.464v-43.617c1.493.761 2.879 1.746 4.104 2.954 3.382 3.337 7.887 5.085 12.477 5.085 2.735 0 5.502-.622 8.077-1.898 24.876-12.333 40.329-37.236 40.329-64.99 0-1.645-.055-3.303-.164-4.926-.503-7.516-5.729-13.913-13.004-15.917-1.658-.457-3.204-1.165-4.609-2.077l36.177-20.885c6.27 13.619 9.623 28.598 9.623 43.806 0 54.079-41.078 98.53-93.01 102.465zm76.149-159.411-36.441 21.037c-.086-1.67.074-3.359.508-5.021 1.909-7.31-1.069-15.077-7.411-19.327-2.819-1.889-5.753-3.56-8.775-5.022v-32.278c20.688 7.007 39.379 21.037 52.119 40.611zm-67.119-56.133v42.496c-10.684-2.492-21.986-2.583-33.06 0v-42.496c0-1.604 1.305-2.91 2.91-2.91h27.24c1.605 0 2.91 1.306 2.91 2.91zm-9.03-65.62c0-13.03 10.6-23.63 23.63-23.63 13.035 0 23.64 10.6 23.64 23.63v14.293h-47.27zm-52.562 458.37 17.647-36.632c.383-.794 1.17-1.288 2.055-1.288h50.72c.884 0 1.671.493 2.053 1.285l17.649 36.635zm141.421 0h-34.647l-20.786-43.148c-2.862-5.936-8.972-9.772-15.565-9.772h-50.72c-6.593 0-12.703 3.836-15.567 9.775l-20.786 43.145h-34.647l32.397-71.222h127.923z"/></g></g></svg>