<svg id="Capa_1" enable-background="new 0 0 512 512" height="512" viewBox="0 0 512 512" width="512" xmlns="http://www.w3.org/2000/svg"><g><g><g><path d="m41.361 119.651v264.716h375.041v-264.716c0-5.523-4.477-10-10-10h-355.041c-5.522 0-10 4.477-10 10z" fill="#5392f9"/><path d="m406.402 109.651h-32c5.523 0 10 4.477 10 10v264.716h32v-264.716c0-5.523-4.477-10-10-10z" fill="#4071f7"/><path d="m41.361 340.551h375.041v43.816h-375.041z" fill="#ddebfd"/><g><g><path d="m289.686 63.315c-38.569 34.296-56.466 66.772-11.368 102.926h32.322c45.099-36.154 27.202-68.63-11.368-102.926-2.727-2.425-6.858-2.425-9.586 0z" fill="#ddebfd"/><path d="m273.043 200.048h42.872v140.502h-42.872z" fill="#eec06b"/><path d="m260.379 198.88v-39.667c0-3.943 3.197-7.14 7.14-7.14h53.922c3.943 0 7.14 3.197 7.14 7.14v39.667c0 3.943-3.197 7.14-7.14 7.14h-53.922c-3.944 0-7.14-3.197-7.14-7.14z" fill="#407194"/></g><g><path d="m120.5 173.156c0 48.073-.002 167.395-.002 167.395h79.526s.001-114.164.001-167.395c0-17.119-20.223-74.565-31.825-106.115-2.717-7.39-13.162-7.39-15.879 0-11.601 31.55-31.821 88.996-31.821 106.115z" fill="#db387e"/><path d="m168.201 67.041c4.108 11.138 9.282 25.514 14.258 40.196 9.107 26.899 17.567 54.84 17.567 65.919l.001 3.606c-8.638 12.722-23.226 21.09-39.762 21.09s-31.124-8.368-39.762-21.09l-.003-3.606c0-11.079 8.465-39.019 17.572-65.919 4.976-14.682 10.153-29.059 14.249-40.196 2.723-7.393 13.169-7.393 15.88 0z" fill="#eec06b"/><path d="m152.322 67.041c-5.265 14.318-12.302 33.966-18.422 52.761h52.724c-6.12-18.795-13.158-38.443-18.423-52.761-2.718-7.389-13.162-7.389-15.879 0z" fill="#407194"/></g></g><path d="m421.651 450.504h-385.538c-11.737 0-21.71-8.579-23.465-20.184l-5.021-33.207c-1.014-6.709 4.18-12.747 10.965-12.747h420.581c6.785 0 11.979 6.038 10.965 12.747l-5.021 33.207c-1.756 11.605-11.73 20.184-23.466 20.184z" fill="#bed9fd"/><path d="m384.402 340.551h32v43.816h-32z" fill="#bed9fd"/><path d="m439.172 384.366h-32c6.785 0 11.979 6.038 10.964 12.747l-5.021 33.207c-1.755 11.605-11.729 20.184-23.465 20.184h32c11.737 0 21.71-8.579 23.465-20.184l5.021-33.207c1.015-6.708-4.179-12.747-10.964-12.747z" fill="#9ec8fc"/><path d="m196.347 384.366v20.688c0 4.809 3.898 8.707 8.707 8.707h47.656c4.809 0 8.707-3.898 8.707-8.707v-20.688z" fill="#80b6fc"/><path d="m455.936 418.648h-15.413c-26.821 0-48.564-21.743-48.564-48.564v-76.449c0-14.378 11.656-26.033 26.033-26.033h60.473c14.378 0 26.033 11.656 26.033 26.033v76.449c.002 26.822-21.741 48.564-48.562 48.564z" fill="#ddebfd"/><path d="m478.467 267.602h-25c14.378 0 26.033 11.656 26.033 26.033v76.449c0 25.203-19.2 45.918-43.77 48.326 1.577.155 3.176.238 4.794.238h15.413c26.821 0 48.564-21.743 48.564-48.564v-76.449c-.001-14.377-11.657-26.033-26.034-26.033z" fill="#bed9fd"/><path d="m478.467 267.602h-60.473c-14.378 0-26.033 11.656-26.033 26.033v27.909h112.539v-27.909c0-14.377-11.656-26.033-26.033-26.033z" fill="#bed9fd"/><path d="m479.5 293.636v27.909h25v-27.909c0-14.378-11.656-26.033-26.033-26.033h-25c14.377-.001 26.033 11.655 26.033 26.033z" fill="#9ec8fc"/><path d="m430.992 316.727v9.634c0 9.52 7.717 17.238 17.238 17.238s17.238-7.718 17.238-17.238v-9.634c0-9.52-7.717-17.238-17.238-17.238s-17.238 7.718-17.238 17.238z" fill="#80b6fc"/></g></g><path d="m478.47 260.106h-22.74v-18.64c0-2.338 1.902-4.24 4.24-4.24h8.891c17.48 0 31.699-14.225 31.699-31.71 0-17.48-14.22-31.7-31.699-31.7h-44.961v-54.16c0-9.649-7.851-17.5-17.5-17.5h-66.086c-5.758-13.554-17.259-27.728-36.048-44.425-5.58-4.982-13.994-4.982-19.559-.012-18.8 16.707-30.303 30.882-36.062 44.437h-60.001c-4.36-12.77-9.008-25.737-13.406-37.697-2.335-6.351-8.214-10.454-14.979-10.454s-12.644 4.104-14.979 10.454c-4.398 11.96-9.046 24.928-13.406 37.697h-80.517c-9.649 0-17.5 7.851-17.5 17.5v67.66c0 4.142 3.358 7.5 7.5 7.5s7.5-3.358 7.5-7.5v-67.66c0-1.378 1.122-2.5 2.5-2.5h75.509c-7.896 24.254-13.87 45.926-13.87 56.006v159.895h-64.14v-110.741c0-4.142-3.358-7.5-7.5-7.5s-7.5 3.358-7.5 7.5v154.561h-15.27c-5.425 0-10.564 2.359-14.1 6.473-3.531 4.109-5.09 9.538-4.276 14.889l5.02 33.208c2.284 15.143 15.559 26.562 30.877 26.562h262.311c4.143 0 7.5-3.358 7.5-7.5s-3.357-7.5-7.5-7.5h-262.311c-7.96 0-14.857-5.932-16.045-13.801l-5.021-33.216c-.214-1.41.423-2.399.822-2.864.401-.467 1.289-1.25 2.724-1.25h170.258v13.185c0 8.937 7.271 16.207 16.207 16.207h47.656c8.937 0 16.207-7.27 16.207-16.207v-13.185h119.949c8.229 19.44 27.127 33.299 49.308 34.219l-.468 3.105c-1.214 8-7.967 13.806-16.056 13.806h-88.231c-4.143 0-7.5 3.358-7.5 7.5s3.357 7.5 7.5 7.5h88.231c15.561 0 28.55-11.168 30.887-26.562l.798-5.29h2.603c30.913 0 56.064-25.15 56.064-56.064v-76.449c0-18.431-15.016-33.537-33.53-33.537zm-5.651 53.941c-1.344-12.381-11.857-22.05-24.59-22.05-12.732 0-23.245 9.67-24.589 22.05h-24.18v-20.4c0-4.6 1.693-8.806 4.476-12.05 3.402-3.964 8.436-6.488 14.057-6.488h60.474c10.331 0 18.533 8.498 18.533 18.538v20.4zm-14.851 2.687v9.634c0 5.369-4.368 9.737-9.738 9.737-5.369 0-9.737-4.368-9.737-9.737v-9.634c0-5.369 4.368-9.737 9.737-9.737 5.369-.001 9.738 4.368 9.738 9.737zm10.892-127.918c9.208 0 16.699 7.492 16.699 16.7 0 9.214-7.491 16.71-16.699 16.71h-8.891c-10.609 0-19.24 8.631-19.24 19.24v18.64h-16.83v-71.29zm-59.961-69.16v141.713c-6.501 1.835-12.205 5.582-16.465 10.599-4.969 5.85-7.976 13.416-7.976 21.674v39.415h-61.04v-119.681c7.138-.971 12.661-7.09 12.661-14.49v-39.667c0-2.419-.6-4.698-1.643-6.71 8.059-11.34 11.391-23.173 9.97-35.353h61.993c1.379 0 2.5 1.121 2.5 2.5zm-128.36 213.401v-119.532h27.88v119.532zm40.541-173.478v38.946h-53.202v-38.946zm-26.601-90.477c12.592 11.208 28.353 26.815 33.486 42.783 3.667 11.413 1.621 21.952-6.324 32.705-.068-.001-.133-.01-.201-.01h-53.923c-.068 0-.134.009-.201.01-20.253-27.41 1.649-52.775 27.163-75.488zm-49.928 48.054c-1.421 12.18 1.911 24.012 9.969 35.353-1.043 2.013-1.643 4.291-1.643 6.71v39.667c0 7.4 5.524 13.519 12.661 14.49v119.681h-58.015v-159.895c0-10.076-5.974-31.75-13.871-56.006zm-76.788 215.901v-128.223c8.989-1.224 17.471-4.622 24.761-9.83v138.053zm-28.389-205.749h41.771c12.87 40.413 11.238 46.201 11.379 47.036-16.257 21.363-48.304 21.32-64.526-.007.189-1.121-1.709-5.937 11.376-47.029zm19.985-57.673c.316-.858 1.485-.859 1.801 0 5.731 15.585 10.782 29.905 15.071 42.673h-31.942c4.288-12.768 9.339-27.088 15.07-42.673zm-31.362 125.365c7.29 5.21 15.775 8.61 24.766 9.834v128.223h-24.766zm125.918 210.062c0 .666-.542 1.207-1.207 1.207h-47.656c-.666 0-1.207-.541-1.207-1.207v-13.185h50.07zm-205.058-28.185v-28.82h335.601v22.035c0 2.298.155 4.559.425 6.785-18.909 0-306.794 0-336.026 0zm407.079 34.279h-15.413c-22.643 0-41.065-18.421-41.065-41.064 0-10.02 0-31.025 0-41.045h24.181c1.34 12.385 11.855 22.059 24.59 22.059s23.251-9.674 24.591-22.059h24.18v41.045c0 22.642-18.421 41.064-41.064 41.064z"/></g></svg>