<svg id="Capa_1" enable-background="new 0 0 512 512" height="512" viewBox="0 0 512 512" width="512" xmlns="http://www.w3.org/2000/svg"><g><g><g><path d="m392.407 431.192h46.441l-38.74-85.153h-119.193l-38.74 85.153h46.441l20.782-43.145c1.484-3.081 4.602-5.04 8.022-5.04h46.184c3.42 0 6.538 1.959 8.022 5.04z" fill="#9ec8fc"/><path d="m504.5 323.419h-327.976v-207.054c0-3.905 3.165-7.07 7.07-7.07h313.836c3.905 0 7.07 3.165 7.07 7.07z" fill="#5392f9"/><path d="m497.43 109.295h-26c3.905 0 7.07 3.165 7.07 7.07v207.055h26v-207.055c0-3.905-3.165-7.07-7.07-7.07z" fill="#4071f7"/><g><g><path d="m394.883 82.434c-34.489 30.667-50.492 59.707-10.165 92.036h28.902c40.327-32.329 24.324-61.368-10.165-92.036-2.439-2.168-6.133-2.168-8.572 0z" fill="#ddebfd"/><path d="m380.001 204.701h38.336v113.637h-38.336z" fill="#eec06b"/><path d="m368.676 203.656v-35.47c0-3.526 2.858-6.385 6.384-6.385h48.217c3.526 0 6.384 2.858 6.384 6.385v35.47c0 3.526-2.858 6.385-6.384 6.385h-48.217c-3.525-.001-6.384-2.859-6.384-6.385z" fill="#407194"/></g><g><path d="m243.599 180.654c0 42.987-.003 137.684-.003 137.684h71.112s.001-90.085.001-137.684c0-15.308-18.084-66.676-28.458-94.887-2.43-6.608-11.769-6.608-14.199 0-10.375 28.211-28.453 79.579-28.453 94.887z" fill="#db387e"/><path d="m286.251 85.766c3.673 9.959 8.299 22.815 12.749 35.943 8.144 24.053 15.709 49.037 15.709 58.944v3.225c-7.724 11.376-20.768 18.858-35.554 18.858-14.787 0-27.832-7.482-35.556-18.858v-3.225c0-9.907 7.568-34.891 15.712-58.944 4.45-13.128 9.079-25.984 12.742-35.943 2.434-6.611 11.774-6.611 14.198 0z" fill="#eec06b"/><path d="m272.052 85.766c-4.708 12.803-11 30.372-16.473 47.179h47.146c-5.473-16.806-11.766-34.376-16.474-47.179-2.43-6.608-11.769-6.608-14.199 0z" fill="#407194"/></g></g><path d="m504.5 318.337h-327.976v28.056c0 3.905 3.165 7.07 7.07 7.07h313.836c3.905 0 7.07-3.165 7.07-7.07z" fill="#ddebfd"/><path d="m478.5 318.337v28.056c0 3.905-3.165 7.07-7.07 7.07h26c3.905 0 7.07-3.165 7.07-7.07v-28.056z" fill="#bed9fd"/><g><path d="m7.5 170.637v255.473c0 2.807 2.275 5.082 5.082 5.082h119.376c2.807 0 5.082-2.275 5.082-5.082v-255.473c0-2.807-2.275-5.082-5.082-5.082h-119.376c-2.807 0-5.082 2.275-5.082 5.082z" fill="#ddebfd"/><path d="m131.958 165.555h-31c2.807 0 5.082 2.275 5.082 5.082v255.473c0 2.807-2.275 5.082-5.082 5.082h31c2.807 0 5.082-2.275 5.082-5.082v-255.473c-.001-2.807-2.276-5.082-5.082-5.082z" fill="#bed9fd"/><circle cx="72.27" cy="378.953" fill="#db387e" r="16.973"/><path d="m137.039 198.323h-83.949c-5.613 0-10.164 4.55-10.164 10.164v88.552c0 3.663 1.971 7.043 5.16 8.846l88.953 50.318z" fill="#407194"/><path d="m106.039 338.667 31 17.536v-157.88h-31z" fill="#365f7e"/></g></g></g><g><path d="m504.5 225.979c4.143 0 7.5-3.358 7.5-7.5v-102.12c0-8.028-6.536-14.56-14.57-14.56h-65.36c-5.742-7.779-13.527-15.99-23.639-24.987-5.282-4.672-13.243-4.671-18.535.012-10.107 8.989-17.89 17.197-23.631 24.975h-66.244c-2.258-6.364-4.529-12.635-6.731-18.622-2.204-5.994-7.753-9.867-14.138-9.868-6.384 0-11.934 3.873-14.139 9.868-2.201 5.987-4.473 12.258-6.731 18.622h-74.692c-8.034 0-14.57 6.532-14.57 14.56v207.06c0 .026.004.051.004.077v22.896c0 8.034 6.536 14.57 14.57 14.57h82.293l-28.536 62.729h-35.175c-4.143 0-7.5 3.358-7.5 7.5s3.357 7.5 7.5 7.5h276.672c4.143 0 7.5-3.358 7.5-7.5s-3.357-7.5-7.5-7.5h-35.169l-28.535-62.729h82.287c8.033 0 14.569-6.536 14.569-14.57v-92.914c0-4.142-3.357-7.5-7.5-7.5s-7.5 3.358-7.5 7.5v57.357h-71.16v-93.544c6.435-1.207 11.322-6.858 11.322-13.637v-35.47c0-2.123-.493-4.128-1.349-5.929 10.081-14.409 11.818-29.639 5.053-45.457h56.134v101.68c0 4.143 3.357 7.501 7.5 7.501zm-105.33-137.327c22.019 19.722 41.063 42.046 23.908 65.648h-47.817c-17.191-23.649 1.848-45.898 23.909-65.648zm-22.994 113.887v-33.239h45.986v33.239zm-18.706-85.74c-6.509 15.215-5.403 30.506 5.055 45.455-.856 1.802-1.349 3.807-1.349 5.931v35.47c0 6.78 4.888 12.431 11.324 13.637v93.544h-50.292v-130.183c0-10.938-7.767-36.923-16.962-63.854zm-70.815 194.037v-101.183c7.403-1.112 14.41-3.846 20.553-7.962v109.145zm-35.558 0v-109.145c6.144 4.116 13.154 6.85 20.558 7.963v101.183h-20.558zm56.112-130.183v.797c-14.202 18.372-41.91 18.368-56.11 0v-.797c0-5.89 3.545-20.037 9.954-40.209h36.199c6.411 20.176 9.957 34.323 9.957 40.209zm-28.102-92.343c.039-.009.079-.017.065-.044.007.011.021.038.039.087 4.967 13.506 9.365 25.953 13.12 37.09h-26.36c1.486-4.405 13.133-37.122 13.136-37.133zm-26.05 28.489c-9.193 26.927-16.96 52.908-16.96 63.854v130.184h-52.077v-194.038zm47.5 306.892 15.604-32.395c.229-.479.724-.788 1.259-.788h46.18c.54 0 1.042.316 1.273.795l15.601 32.387h-79.917zm126.642 0h-30.076l-18.742-38.909c-2.726-5.633-8.527-9.273-14.781-9.273h-46.18c-6.267 0-12.068 3.647-14.776 9.285l-18.736 38.897h-30.077l28.536-62.729h116.297zm69.801-77.729h-312.977v-20.126h312.977zm-109.5-35.126v-93.297h23.34v93.297z"/><path d="m96.742 378.952c0-13.494-10.979-24.473-24.473-24.473s-24.473 10.979-24.473 24.473c0 13.495 10.979 24.473 24.473 24.473s24.473-10.979 24.473-24.473zm-33.945 0c0-5.223 4.249-9.473 9.473-9.473s9.473 4.25 9.473 9.473c0 5.224-4.249 9.473-9.473 9.473s-9.473-4.25-9.473-9.473z"/><path d="m144.539 356.327v-185.691c0-6.938-5.645-12.582-12.582-12.582h-119.375c-6.937 0-12.582 5.644-12.582 12.582v192.973c0 4.142 3.357 7.5 7.5 7.5s7.5-3.358 7.5-7.5v-190.555h114.539v17.768h-76.448c-9.74 0-17.664 7.924-17.664 17.664v88.552c0 6.354 3.436 12.244 8.967 15.374l85.146 48.164v63.115h-114.54v-25.082c0-4.142-3.357-7.5-7.5-7.5s-7.5 3.358-7.5 7.5v27.5c0 6.938 5.645 12.582 12.582 12.582h119.375c6.938 0 12.582-5.644 12.582-12.582zm-92.76-56.971c-.834-.472-1.353-1.361-1.353-2.319v-88.552c0-1.469 1.195-2.664 2.664-2.664h76.448v137.521z"/></g></g></svg>