<svg id="Capa_1" enable-background="new 0 0 512 512" height="512" viewBox="0 0 512 512" width="512" xmlns="http://www.w3.org/2000/svg"><g><g><g><path d="m7.5 168.307v284.282c0 5.523 4.477 10 10 10h78.04v-304.282h-78.04c-5.523 0-10 4.477-10 10z" fill="#ddebfd"/><path d="m51.52 279.171c-8.718 0-15.785 7.067-15.785 15.785v30.985c0 8.718 7.067 15.785 15.785 15.785s15.785-7.067 15.785-15.785v-30.985c0-8.718-7.068-15.785-15.785-15.785z" fill="#407194"/><path d="m31.779 158.307v-23.43c0-5.523 4.477-10 10-10h19.483c5.523 0 10 4.477 10 10v23.43z" fill="#9cd169"/><path d="m457.055 168.307v284.282c0 5.523-4.477 10-10 10h-351.515v-304.282h351.515c5.522 0 10 4.477 10 10z" fill="#407194"/><path d="m447.055 158.307h-29c5.523 0 10 4.477 10 10v284.282c0 5.523-4.477 10-10 10h29c5.523 0 10-4.477 10-10v-284.282c0-5.523-4.478-10-10-10z" fill="#365f7e"/><path d="m498.432 70.202-8.093-4.673c-5.802-3.35-13.222-1.362-16.572 4.44l-10.738 18.599 29.105 16.804 10.738-18.599c3.351-5.802 1.363-13.221-4.44-16.571z" fill="#407194"/><path d="m450.68 90.883-110.919 192.117c-7.274 12.599-2.957 28.709 9.642 35.983s28.709 2.957 35.983-9.642l110.919-192.117c2.259-3.912.918-8.914-2.994-11.173l-31.458-18.161c-3.912-2.259-8.915-.919-11.173 2.993z" fill="#ddebfd"/><path d="m493.311 106.052-19.67-11.356.963.556c4.061 2.344 5.521 7.416 3.263 11.328l-110.919 192.116c-5.322 9.218-15.583 13.875-25.828 12.757 2.124 2.986 4.902 5.578 8.283 7.53 12.599 7.274 28.71 2.957 35.983-9.642l110.919-192.117c2.258-3.911.918-8.913-2.994-11.172z" fill="#bed9fd"/><path d="m402.649 287.238-52.377-30.24c-2.723-1.572-3.656-5.055-2.084-7.778l53.79-93.167c1.572-2.723 5.055-3.656 7.778-2.084l52.377 30.24c2.723 1.572 3.656 5.055 2.084 7.778l-53.79 93.167c-1.573 2.723-5.055 3.656-7.778 2.084z" fill="#5392f9"/><path d="m462.133 184.209-18.315-10.574c2.829 1.634 3.799 5.251 2.165 8.081l-53.568 92.782c-1.634 2.83-5.252 3.799-8.081 2.165l18.315 10.574c2.723 1.572 6.206.639 7.778-2.084l53.79-93.167c1.572-2.723.639-6.205-2.084-7.777z" fill="#4071f7"/></g></g><g><path d="m28.236 294.956v30.985c0 12.839 10.445 23.284 23.284 23.284 12.84 0 23.285-10.445 23.285-23.284v-30.985c0-12.839-10.445-23.285-23.285-23.285-12.839 0-23.284 10.446-23.284 23.285zm15 0c0-4.568 3.716-8.285 8.284-8.285s8.285 3.716 8.285 8.285v30.985c0 4.568-3.717 8.284-8.285 8.284s-8.284-3.716-8.284-8.284z"/><path d="m59.02 234.86v-17.04c0-4.142-3.357-7.5-7.5-7.5s-7.5 3.358-7.5 7.5v17.04c0 4.142 3.357 7.5 7.5 7.5s7.5-3.358 7.5-7.5z"/><path d="m44.02 386.038v17.04c0 4.142 3.357 7.5 7.5 7.5s7.5-3.358 7.5-7.5v-17.04c0-4.142-3.357-7.5-7.5-7.5s-7.5 3.357-7.5 7.5z"/><path d="m251.718 409.233c14.377 10.009 30.857 5.779 45.518-4.183 14.179-9.633 25.311-23.401 29.439-28.873 2.495-3.307 1.836-8.009-1.471-10.504-3.308-2.495-8.009-1.836-10.504 1.471-2.87 3.805-13.221 16.889-25.894 25.499-4.339 2.948-17.543 11.921-28.518 4.279-13.741-9.564-2.976-53.206 5.675-88.272 11.941-48.408 23.22-94.131-3.315-108.439-13.049-7.036-28-6.776-43.24.753-19.052 9.412-38.935 30.359-55.987 58.983-15.698 26.351-26.982 55.727-30.958 80.595-.653 4.09 2.132 7.936 6.222 8.59 4.091.654 7.937-2.132 8.591-6.222 3.633-22.724 14.486-50.869 29.033-75.286 15.362-25.789 33.494-45.184 49.744-53.212 11.002-5.434 20.645-5.761 29.477-.998 16.308 8.794 4.977 54.732-4.129 91.643-11.257 45.625-21.888 88.72.317 104.176z"/><path d="m502.188 63.704-8.094-4.672c-9.395-5.425-21.392-2.212-26.817 7.186l-7.616 13.191c-6.045-.728-12.234 2.119-15.472 7.719l-34.055 58.987c-5.006-1.258-10.394.534-13.624 4.693h-317.748v-15.932c0-9.65-7.851-17.5-17.5-17.5h-2.242v-10.487c0-6.06 4.931-10.99 10.99-10.99h141.062c14.325 0 25.98-11.659 25.98-25.99v-20.5c0-4.142-3.357-7.5-7.5-7.5s-7.5 3.358-7.5 7.5v20.5c0 6.06-4.926 10.99-10.98 10.99h-141.061c-14.331 0-25.991 11.659-25.991 25.991v10.487h-2.241c-9.65 0-17.5 7.851-17.5 17.5v15.93h-6.779c-9.65 0-17.5 7.851-17.5 17.5v34.518c0 4.142 3.357 7.5 7.5 7.5s7.5-3.358 7.5-7.5v-34.518c0-1.378 1.121-2.499 2.5-2.499h70.541v289.285h-70.541c-1.379 0-2.5-1.122-2.5-2.5v-214.769c0-4.142-3.357-7.5-7.5-7.5s-7.5 3.358-7.5 7.5v214.768c0 9.65 7.851 17.5 17.5 17.5h346.364c4.143 0 7.5-3.358 7.5-7.5s-3.357-7.5-7.5-7.5h-260.823v-289.284h284.649l-45.992 79.662c-1.762 3.052-2.23 6.607-1.318 10.011.592 2.211 1.728 4.179 3.283 5.775l-10.394 17.996c-8.038 13.932-5.013 31.252 6.314 41.74l-12.193 21.118c-2.071 3.587-.842 8.174 2.745 10.246 3.564 2.059 8.16.865 10.245-2.745l12.193-21.117c14.783 4.609 31.25-1.44 39.318-15.405l10.383-17.992c5.677 1.43 11.686-1.055 14.653-6.194l32.628-56.514v220.202c0 1.378-1.121 2.5-2.5 2.5h-48.19c-4.143 0-7.5 3.358-7.5 7.5s3.357 7.5 7.5 7.5h48.19c9.65 0 17.5-7.851 17.5-17.5v-246.182l6.162-10.673c3.051-5.285 2.016-11.697-1.961-15.784l34.048-58.978c3.228-5.599 2.601-12.382-1.048-17.257l7.618-13.196c5.412-9.374 2.188-21.404-7.186-26.817zm-21.92 10.013c1.282-2.221 4.116-2.971 6.326-1.694l8.094 4.672c2.211 1.277 2.972 4.115 1.695 6.327l-6.988 12.104-16.116-9.303zm-440.989 61.159c0-1.378 1.121-2.5 2.5-2.5h9.683c.02 0 .039.003.058.003s.039-.003.058-.003h9.683c1.379 0 2.5 1.122 2.5 2.5v15.931h-24.482zm339.621 170.712c-5.211 9.02-16.717 12.109-25.746 6.897-8.993-5.191-12.087-16.735-6.896-25.734l10.141-17.558 32.632 18.84zm25.94-25.748-49.249-28.434 51.984-90.04 1.772 1.023c.013.008.024.017.038.024.013.008.027.013.04.02l47.399 27.366zm84.97-166.361-33.791 58.536-32.638-18.844 33.796-58.539c.188-.325.603-.438.929-.249l31.456 18.157c.325.19.436.612.248.939z"/></g></g></svg>