<svg id="Capa_1" enable-background="new 0 0 512 512" height="512" viewBox="0 0 512 512" width="512" xmlns="http://www.w3.org/2000/svg"><g><g><g><path d="m30.863 17.5v422.764c0 5.523 4.477 10 10 10h287.082c5.523 0 10-4.477 10-10v-422.764c0-5.523-4.477-10-10-10h-287.082c-5.523 0-10 4.477-10 10z" fill="#407194"/><path d="m327.945 7.5h-30c5.523 0 10 4.477 10 10v422.764c0 5.523-4.477 10-10 10h30c5.523 0 10-4.477 10-10v-422.764c0-5.523-4.477-10-10-10z" fill="#365f7e"/><path d="m30.863 97.155h307.082v137.503h-307.082z" fill="#9cd169"/><path d="m307.945 97.155h30v137.503h-30z" fill="#68b181"/><path d="m231.633 7.5h43.373v442.764h-43.373z" fill="#ddebfd"/><path d="m133.405 503.946-26.439-14.906c-3.048-1.719-6.774-1.719-9.822 0l-26.439 14.906c-2.833 1.597-6.336-.45-6.336-3.702v-49.98h75.374v49.98c-.002 3.252-3.505 5.299-6.338 3.702z" fill="#db387e"/><path d="m397.819 7.5c-5.523 0-10 4.477-10 10l.001 325.697c0 17.634 32.362 63.74 41.039 63.74 8.676 0 41.039-46.106 41.039-63.74v-325.697c0-5.523-4.477-10-10-10z" fill="#5392f9"/><path d="m459.897 7.5h-30c5.523 0 10 4.477 10 10v325.694c0 11.594-13.988 35.493-26.037 50.507 6.277 7.822 12.027 13.236 14.999 13.236 8.676 0 41.039-46.106 41.039-63.74v-325.697c-.001-5.523-4.478-10-10.001-10z" fill="#4071f7"/><path d="m469.897 340.395v2.802c0 10.793-12.132 32.266-23.541 47.298-7.213 9.519-14.141 16.442-17.498 16.442s-10.283-6.923-17.496-16.442c-11.41-15.032-23.542-36.505-23.542-47.298l.001-2.802c4.951-18.028 21.438-31.265 41.038-31.265 19.59 0 36.088 13.237 41.038 31.265z" fill="#eec06b"/><path d="m469.897 340.395c-3.986-14.514-15.458-25.916-30-29.813v32.612c0 11.593-13.989 35.493-26.037 50.507 6.276 7.827 12.032 13.236 14.999 13.236 3.357 0 10.284-6.923 17.498-16.442 11.41-15.032 23.541-36.505 23.541-47.298z" fill="#e9a761"/><path d="m394.913 364.485c10.038 19.662 27.845 42.452 33.945 42.452s23.906-22.79 33.944-42.452z" fill="#407194"/><path d="m432.798 364.485c-5.147 10.082-12.332 20.984-18.939 29.217 6.276 7.819 12.027 13.236 14.999 13.236 6.1 0 23.906-22.79 33.944-42.452h-30.004z" fill="#365f7e"/><path d="m376.578 69.004v31.769c0 3.314 2.686 6 6 6h92.559c3.314 0 6-2.686 6-6v-31.769c0-3.314-2.686-6-6-6h-92.559c-3.313 0-6 2.686-6 6z" fill="#9cd169"/><path d="m475.137 63.004h-30c3.314 0 6 2.686 6 6v31.769c0 3.314-2.686 6-6 6h30c3.314 0 6-2.686 6-6v-31.769c0-3.314-2.686-6-6-6z" fill="#68b181"/></g></g><g><path d="m327.943 0h-287.075c-9.649 0-17.5 7.85-17.5 17.5v130.904c0 4.142 3.358 7.5 7.5 7.5s7.5-3.358 7.5-7.5v-43.746h185.765v122.497h-185.765v-43.752c0-4.142-3.358-7.5-7.5-7.5s-7.5 3.358-7.5 7.5v256.852c0 9.649 7.85 17.5 17.5 17.5h16.005v42.479c0 4.222 2.176 8.014 5.822 10.144 3.646 2.131 8.019 2.164 11.697.09l26.439-14.906c.757-.428 1.698-.427 2.455 0l26.44 14.906c1.812 1.021 3.792 1.531 5.771 1.531 2.038 0 4.076-.542 5.926-1.622 3.645-2.13 5.822-5.922 5.822-10.144v-42.479h180.7c9.649 0 17.5-7.85 17.5-17.5v-422.754c-.002-9.65-7.853-17.5-17.502-17.5zm2.5 17.5v72.159h-47.938v-74.659h45.438c1.379 0 2.5 1.121 2.5 2.5zm-47.938 87.158h47.933v122.497h-47.933zm-244.137-15v-72.158c0-1.378 1.122-2.5 2.5-2.5h183.265v74.658zm0 350.597v-198.1h185.765v87.323c0 4.142 3.358 7.5 7.5 7.5s7.5-3.358 7.5-7.5v-314.478h28.373v427.755h-28.373v-78.278c0-4.142-3.358-7.5-7.5-7.5s-7.5 3.358-7.5 7.5v78.278h-183.265c-1.379 0-2.5-1.122-2.5-2.5zm93.876 54.414-21.592-12.173c-5.3-2.988-11.886-2.989-17.189 0l-21.592 12.174v-36.915h60.372v36.914zm195.699-51.914h-45.438v-200.6h47.938v198.1c0 1.378-1.121 2.5-2.5 2.5z"/><path d="m477.395 55.708v-38.208c0-9.649-7.85-17.5-17.5-17.5h-62.079c-9.649 0-17.5 7.85-17.5 17.5v38.208c-6.37 1.08-11.241 6.622-11.241 13.295v31.768c0 6.673 4.872 12.216 11.242 13.295v229.122c0 13.469 12.957 34.316 18.529 42.653 12.676 18.971 22.773 28.59 30.01 28.59 7.233 0 17.328-9.619 30.006-28.59 5.572-8.338 18.533-29.186 18.533-42.653v-54.624c0-4.142-3.357-7.5-7.499-7.5s-7.5 3.358-7.5 7.5v25.992c-8.987-8.104-20.844-12.932-33.54-12.932-12.695 0-24.551 4.828-33.538 12.93v-200.284h67.078v139.294c0 4.142 3.358 7.5 7.5 7.5s7.5-3.358 7.5-7.5v-139.499c6.368-1.081 11.237-6.623 11.237-13.295v-31.768c-.001-6.671-4.87-12.213-11.238-13.294zm-93.32 43.562v-28.768h89.557v28.768c-13.522 0-76.073 0-89.557 0zm13.742-84.27h62.079c1.378 0 2.5 1.122 2.5 2.5v38.003h-67.079v-38.003c0-1.379 1.121-2.5 2.5-2.5zm31.037 383.749c-6.814-5.389-16.34-19.091-21.088-26.773h42.176c-4.648 7.519-14.218 21.336-21.088 26.773zm-33.537-57.301c4.465-14.666 18.119-24.825 33.538-24.825s29.073 10.161 33.539 24.827c-.164 1.089 1.034 3.915-4.293 15.527h-58.492c-5.283-11.52-4.138-14.505-4.292-15.529z"/></g></g></svg>