<svg id="Capa_1" enable-background="new 0 0 512 512" height="512" viewBox="0 0 512 512" width="512" xmlns="http://www.w3.org/2000/svg"><g><g><path d="m385.947 244.287h-263.203v-166.162c0-3.133 2.54-5.674 5.674-5.674h251.856c3.133 0 5.673 2.54 5.673 5.673z" fill="#407194"/><path d="m380.273 72.452h-21.787c3.133 0 5.673 2.54 5.673 5.673v166.162h21.787v-166.162c.001-3.133-2.54-5.673-5.673-5.673z" fill="#365f7e"/><path d="m385.947 240.209h-263.203v22.515c0 3.133 2.54 5.673 5.674 5.673h251.856c3.133 0 5.673-2.54 5.673-5.674z" fill="#ddebfd"/><path d="m364.159 240.209v22.515c0 3.133-2.54 5.674-5.673 5.674h21.787c3.133 0 5.673-2.54 5.673-5.674v-22.515z" fill="#bed9fd"/></g><path d="m7.5 315.087v30.268c0 2.761 2.239 5 5 5h487c2.761 0 5-2.239 5-5v-30.268c0-2.761-2.239-5-5-5h-487c-2.761 0-5 2.238-5 5z" fill="#eec06b"/><path d="m499.5 310.087h-22c2.761 0 5 2.239 5 5v30.268c0 2.761-2.239 5-5 5h22c2.761 0 5-2.239 5-5v-30.268c0-2.762-2.239-5-5-5z" fill="#e9a761"/><path d="m68.076 385.884h-25.529c-2.761 0-5-2.239-5-5v-30.529h35.529v30.529c0 2.761-2.239 5-5 5z" fill="#db387e"/><path d="m469.453 385.884h-25.529c-2.761 0-5-2.239-5-5v-30.529h35.529v30.529c0 2.761-2.239 5-5 5z" fill="#db387e"/><path d="m84.959 277.214h-50.302c-4.501 0-8.15 3.649-8.15 8.15v24.723h66.603v-24.723c0-4.501-3.649-8.15-8.151-8.15z" fill="#4071f7"/><path d="m162.745 67.332-43.659 36.634 10.898 12.987c4.47 5.327 12.412 6.022 17.739 1.552l24.368-20.447c5.327-4.47 6.022-12.412 1.552-17.739z" fill="#eec06b"/><path d="m98.198 34.74c-11.014 9.242-12.45 25.662-3.209 36.675l14.829 17.672 39.884-33.467-14.829-17.672c-9.241-11.013-25.661-12.449-36.675-3.208z" fill="#db387e"/><path d="m171.549 59.945-61.267 51.409c-1.819 1.527-4.532 1.289-6.058-.53l-4.071-4.852c-7.044-8.395-5.949-20.911 2.446-27.955l37.454-31.427c8.395-7.044 20.911-5.949 27.955 2.446l4.071 4.852c1.527 1.818 1.29 4.53-.53 6.057z" fill="#4071f7"/><path d="m480.333 208.147h-142.165c-3.114 0-5.638 2.524-5.638 5.638v90.664c0 3.114 2.524 5.638 5.638 5.638h142.165c3.114 0 5.638-2.524 5.638-5.638v-90.664c0-3.114-2.524-5.638-5.638-5.638z" fill="#ddebfd"/><path d="m480.333 208.147h-21c3.114 0 5.638 2.524 5.638 5.638v90.664c0 3.114-2.524 5.638-5.638 5.638h21c3.114 0 5.638-2.524 5.638-5.638v-90.664c0-3.114-2.524-5.638-5.638-5.638z" fill="#bed9fd"/><path d="m370.212 208.147h-32.044c-3.114 0-5.638 2.524-5.638 5.638v90.664c0 3.114 2.524 5.638 5.638 5.638h32.044z" fill="#4071f7"/><path d="m499.5 302.587h-6.029v-88.802c0-7.245-5.894-13.138-13.138-13.138h-86.883v-47.804c0-4.142-3.358-7.5-7.5-7.5s-7.5 3.358-7.5 7.5v47.804h-40.282c-7.245 0-13.138 5.894-13.138 13.138v18.927h-194.79v-106.082c6.907 3.648 15.771 3.104 22.3-2.381l24.369-20.44c7.098-5.952 9.072-15.767 5.295-23.856h196.246v37.89c0 4.142 3.358 7.5 7.5 7.5s7.5-3.358 7.5-7.5v-39.72c0-7.262-5.913-13.17-13.18-13.17h-203.106c4.244-4.277 4.609-11.182.661-15.887l-4.071-4.852c-7.645-9.111-20.012-11.97-30.563-8.016l-2.573-3.064c-11.902-14.194-33.035-16.056-47.236-4.138-12.609 10.572-15.306 28.176-7.92 41.699l-70.58 68.231c-3.673 3.572-4.798 8.944-2.868 13.684l40.297 99.02v18.084h-17.654c-8.63 0-15.65 7.021-15.65 15.65v17.223h-6.507c-6.893 0-12.5 5.607-12.5 12.5v30.268c0 6.893 5.607 12.5 12.5 12.5h17.547v23.029c0 6.893 5.607 12.5 12.5 12.5h5.265v89.973c0 4.142 3.358 7.5 7.5 7.5s7.5-3.358 7.5-7.5v-89.973h5.264c6.893 0 12.5-5.607 12.5-12.5v-23.029h55.295c4.142 0 7.5-3.358 7.5-7.5s-3.358-7.5-7.5-7.5h-120.871v-25.268h482v25.268h-326.129c-4.142 0-7.5 3.358-7.5 7.5s3.358 7.5 7.5 7.5h260.553v23.029c0 6.893 5.607 12.5 12.5 12.5h5.265v89.973c0 4.142 3.358 7.5 7.5 7.5s7.5-3.358 7.5-7.5v-89.973h5.264c6.893 0 12.5-5.607 12.5-12.5v-23.029h17.547c6.893 0 12.5-5.607 12.5-12.5v-30.268c0-6.893-5.607-12.5-12.5-12.5zm-454.453 55.268h20.529v20.529h-20.529zm122.223-265.539-24.375 20.444c-2.143 1.8-5.358 1.532-7.167-.625l-6.074-7.246 32.167-26.991 6.077 7.249c1.802 2.145 1.532 5.358-.628 7.169zm-22.396-39.982c2.309-1.937 5.123-2.882 7.924-2.882 3.525 0 7.027 1.498 9.465 4.404l2.015 2.4c-11.054 9.275-44.329 37.196-56.364 47.295l-2.015-2.401c-2.119-2.526-3.128-5.725-2.84-9.01.287-3.284 1.836-6.26 4.362-8.379zm-41.853-11.847c7.86-6.597 19.53-5.553 26.105 2.288l1.572 1.872-28.389 23.821-1.575-1.878c-6.581-7.842-5.567-19.517 2.287-26.103zm-17.411 262.1h-51.603v-17.223c0-.358.292-.65.65-.65h50.302c.358 0 .65.292.65.65v17.223zm119.67 0h-104.67v-17.223c0-8.63-7.021-15.65-15.65-15.65h-17.65v-18.571c0-1.6-.305-3.174-.923-4.717l-39.845-97.909 61.846-59.787c-.115.695-.211 1.396-.273 2.105-.636 7.275 1.599 14.364 6.293 19.958l4.071 4.852c4.192 4.997 11.628 5.647 16.625 1.455l.137-.115v145.738c0 7.268 5.913 13.18 13.18 13.18h88.999zm16.479 0 12.139-26.685h40.895l12.139 26.685zm103.271 0h-21.62l-12.139-26.685h33.759zm0-41.685h-194.79v-13.19h194.79zm37.682 41.685h-22.682v-86.94h22.682zm115.759 0h-100.759v-86.94h100.759zm-11.518 75.796h-20.529v-20.529h20.529z"/></g></svg>