<svg id="Capa_1" enable-background="new 0 0 512 512" height="512" viewBox="0 0 512 512" width="512" xmlns="http://www.w3.org/2000/svg"><g><g><g><path d="m132.254 220.278-118.715 68.54c-3.113 1.798-5.031 5.119-5.031 8.715v131.27c0 3.595 1.918 6.917 5.031 8.715l113.683 65.635c3.113 1.798 6.949 1.798 10.063 0l118.715-68.541v-142.89z" fill="#9cd169"/><path d="m379.746 220.278-123.746 71.444v142.89l118.715 68.54c3.113 1.798 6.949 1.798 10.063 0l113.683-65.635c3.113-1.798 5.031-5.119 5.031-8.714v-131.27c0-3.595-1.918-6.917-5.031-8.715z" fill="#5392f9"/><path d="m498.461 288.818-118.715-68.54-21.806 12.589 118.912 68.654c3.18 1.836 5.139 5.229 5.139 8.902v134.09c0 .935-.13 1.85-.371 2.727l16.84-9.723c3.114-1.797 5.031-5.12 5.031-8.714v-131.27c.001-3.596-1.917-6.918-5.03-8.715z" fill="#4071f7"/><path d="m250.969 8.848-113.684 65.635c-3.113 1.798-5.031 5.119-5.031 8.715v137.08l123.746 71.444 123.746-71.445v-137.079c0-3.595-1.918-6.917-5.031-8.715l-113.684-65.635c-3.113-1.797-6.949-1.797-10.062 0z" fill="#db387e"/><path d="m374.715 74.483-113.684-65.635c-3.113-1.798-6.949-1.798-10.063 0l-13.897 8.023 115.62 66.753c3.204 1.85 5.178 5.269 5.178 8.969v140.314l21.876-12.63v-137.079c.001-3.595-1.917-6.917-5.03-8.715z" fill="#c4237c"/><g fill="#ddebfd"><circle cx="132.254" cy="363.167" r="63.04"/><circle cx="256" cy="148.833" r="63.04"/><circle cx="379.746" cy="363.167" r="63.039"/></g></g></g><g><path d="m502.218 282.323-114.968-66.376v-132.755c0-6.255-3.365-12.083-8.782-15.21l-113.686-65.637c-5.417-3.128-12.147-3.127-17.563 0l-113.688 65.638c-5.417 3.127-8.782 8.955-8.782 15.21v44.312c0 4.142 3.358 7.5 7.5 7.5s7.5-3.358 7.5-7.5v-44.313c0-.913.491-1.763 1.281-2.219l113.687-65.637c.79-.456 1.773-.456 2.563 0l113.687 65.637c.79.457 1.281 1.307 1.281 2.219v132.754l-51.994 30.019-23.176-39.844c17.823-12.816 29.462-33.714 29.462-57.292 0-38.897-31.646-70.542-70.542-70.542s-70.542 31.645-70.542 70.542c0 23.467 11.529 44.28 29.208 57.111l-23.12 39.91-51.796-29.904v-53.441c0-4.142-3.358-7.5-7.5-7.5s-7.5 3.358-7.5 7.5v53.441l-114.967 66.378c-5.416 3.127-8.781 8.955-8.781 15.21v131.274c0 6.254 3.365 12.082 8.782 15.21l113.687 65.637c2.709 1.564 5.745 2.345 8.782 2.345s6.073-.782 8.782-2.345l114.967-66.377 114.968 66.377c5.416 3.127 12.147 3.127 17.563 0l66.874-38.61c3.587-2.071 4.817-6.658 2.745-10.245-2.07-3.588-6.659-4.817-10.245-2.745l-66.874 38.61c-.791.456-1.772.456-2.563 0l-114.968-66.377v-59.616h46.112c3.757 35.382 33.775 63.04 70.137 63.04 38.897 0 70.541-31.645 70.541-70.542s-31.645-70.541-70.541-70.541c-10.245 0-19.976 2.213-28.769 6.158l-23.183-39.856 51.952-29.994 114.967 66.376c.791.457 1.282 1.308 1.282 2.22v131.274c0 .913-.491 1.763-1.281 2.22l-16.857 9.732c-3.587 2.071-4.817 6.658-2.745 10.245 2.07 3.588 6.656 4.817 10.245 2.745l16.858-9.732c5.416-3.128 8.781-8.956 8.781-15.21v-131.273c.001-6.255-3.363-12.083-8.781-15.211zm-299.83 73.349c-2.149-20.242-12.896-37.947-28.507-49.4l23.138-39.94 51.482 29.723v59.618h-46.113zm-14.598 7.5c0 30.625-24.915 55.54-55.54 55.54s-55.541-24.916-55.541-55.542c0-30.625 24.916-55.541 55.541-55.541s55.54 24.916 55.54 55.543zm12.669-214.342c0-30.626 24.916-55.542 55.541-55.542 30.626 0 55.542 24.916 55.542 55.542 0 30.625-24.916 55.541-55.542 55.541-30.625 0-55.541-24.916-55.541-55.541zm55.541 70.541c9.962 0 19.441-2.087 28.042-5.829l23.222 39.923-51.264 29.598-51.463-29.712 23.136-39.937c8.677 3.82 18.255 5.957 28.327 5.957zm-7.5 210.917-114.968 66.377c-.79.456-1.773.456-2.563 0l-113.687-65.637c-.791-.457-1.282-1.308-1.282-2.22v-131.274c0-.913.491-1.763 1.281-2.22l114.968-66.377 51.777 29.893-23.118 39.906c-8.764-3.914-18.457-6.109-28.659-6.109-38.897 0-70.542 31.645-70.542 70.542s31.645 70.542 70.542 70.542c36.362 0 66.38-27.658 70.137-63.04h46.114zm186.791-67.118c0 30.625-24.916 55.541-55.541 55.541s-55.54-24.915-55.54-55.54c0-30.626 24.915-55.542 55.54-55.542s55.541 24.916 55.541 55.541zm-125.679-7.498h-46.112v-59.618l51.306-29.621 23.214 39.91c-15.557 11.455-26.263 29.129-28.408 49.329z"/><path d="m97.425 363.17c0 20.309 16.522 36.831 36.831 36.831 19.324 0 32.82-15.145 32.82-36.831 0-4.142-3.358-7.5-7.5-7.5h-17.548c-4.142 0-7.5 3.358-7.5 7.5s3.358 7.5 7.5 7.5h9.154c-1.898 7.622-6.991 14.33-16.925 14.33-12.037 0-21.83-9.793-21.83-21.83s9.793-21.83 21.83-21.83c4.376 0 8.594 1.288 12.2 3.724 3.434 2.318 8.094 1.416 10.414-2.016 2.319-3.432 1.416-8.095-2.016-10.414-6.095-4.118-13.218-6.294-20.598-6.294-20.31 0-36.832 16.522-36.832 36.83z"/><path d="m240.143 185.66c4.142 0 7.5-3.358 7.5-7.5v-16.161l18.585 21.116c2.74 3.114 7.48 3.408 10.585.675 3.109-2.737 3.411-7.476.675-10.585l-14.731-16.737c9.607-2.883 16.601-11.531 16.601-21.723 0-12.542-10.591-22.745-23.609-22.745h-15.534c-.012 0-.024.002-.037.002-.012 0-.024-.002-.037-.002-4.142 0-7.5 3.358-7.5 7.5v58.66c.001 4.142 3.359 7.5 7.502 7.5zm7.573-58.661h8.033c4.666 0 8.608 3.546 8.608 7.745 0 4.198-3.943 7.745-8.608 7.745-1.877 0-5.043.013-8.033.027z"/><path d="m361.847 400.001c.011 0 15.699-.07 20.015-.07 12.842 0 23.29-10.448 23.29-23.29 0-7.265-3.345-13.762-8.575-18.037 2.084-3.26 3.308-7.119 3.308-11.266 0-11.578-9.42-20.998-20.999-20.998h-17.04c-4.143 0-7.5 3.358-7.5 7.5v58.66c.001 4.136 3.356 7.501 7.501 7.501zm20.015-15.07c-2.307 0-7.843.02-12.515.039v-16.605c1.094-.004 12.515-.012 12.515-.012 4.57 0 8.289 3.718 8.289 8.289.001 4.57-3.718 8.289-8.289 8.289zm-2.975-43.591c3.308 0 5.998 2.691 5.998 5.998s-2.691 5.997-5.998 5.997c-1.257 0-9.539.016-9.539.016v-12.011z"/></g></g></svg>