<svg id="Capa_1" enable-background="new 0 0 512 512" height="512" viewBox="0 0 512 512" width="512" xmlns="http://www.w3.org/2000/svg"><g><g><g><path d="m319.59 30.154h-116.74c-31.202 0-59.562 29.731-68.493 55.681h253.726c-8.932-25.95-37.291-55.681-68.493-55.681z" fill="#bed9fd"/><path d="m319.59 30.154h-30c31.203 0 59.562 29.731 68.493 55.681h30c-8.932-25.95-37.291-55.681-68.493-55.681z" fill="#9ec8fc"/><path d="m53.874 265.254h404.251c25.612 0 46.374-20.763 46.374-46.374v-60.798c0-25.612-20.763-46.374-46.374-46.374h-404.251c-25.612 0-46.374 20.763-46.374 46.374v60.798c0 25.611 20.763 46.374 46.374 46.374z" fill="#bed9fd"/><path d="m379.015 73.776h-246.03c-49.098 0-88.899 39.801-88.899 88.899v51.609c0 49.098 39.801 88.899 88.899 88.899h30.677c10.28 0 20.451-1.864 30.165-5.229 16.73-5.795 38.443-9.295 62.174-9.295s45.444 3.5 62.174 9.295c9.714 3.365 19.884 5.229 30.165 5.229h30.677c49.098 0 88.899-39.801 88.899-88.899v-51.609c-.002-49.097-39.803-88.899-88.901-88.899z" fill="#407194"/><path d="m379.015 73.776h-30c49.098 0 88.899 39.802 88.899 88.899v51.609c0 49.098-39.802 88.899-88.899 88.899h30c49.098 0 88.899-39.801 88.899-88.899v-51.609c.001-49.097-39.801-88.899-88.899-88.899z" fill="#365f7e"/><path d="m330.804 481.846h-149.608c-33.028 0-59.802-26.774-59.802-59.802s26.774-59.803 59.802-59.803h149.608c33.028 0 59.802 26.774 59.802 59.802s-26.774 59.803-59.802 59.803z" fill="#bed9fd"/><circle cx="330.804" cy="422.043" fill="#407194" r="59.803"/><path d="m330.804 362.241c-3.325 0-6.583.284-9.76.806 28.383 4.661 50.042 29.294 50.042 58.997s-21.659 54.335-50.042 58.997c3.177.522 6.435.806 9.76.806 33.028 0 59.802-26.775 59.802-59.802 0-33.029-26.774-59.804-59.802-59.804z" fill="#365f7e"/><circle cx="330.804" cy="422.044" fill="#5392f9" r="19.52"/></g></g><g><path d="m458.13 104.212h-2.525c-16.073-21.006-40.575-35.233-68.411-37.583-13.64-22.447-39.043-43.977-67.604-43.977h-116.74c-28.412 0-53.714 21.319-67.393 43.626-.834.202-47.484-3.336-79.062 37.934h-2.525c-29.704 0-53.87 24.166-53.87 53.87v60.8c0 29.704 24.166 53.87 53.87 53.87h2.525c17.631 23.042 45.402 37.934 76.59 37.934h30.677c10.836 0 21.811-1.898 32.62-5.643 16.535-5.728 37.744-8.882 59.719-8.882s43.184 3.154 59.719 8.882c10.81 3.744 21.784 5.643 32.62 5.643h30.677c31.188 0 58.958-14.892 76.59-37.934h2.525c29.704 0 53.87-24.166 53.87-53.87v-60.8c-.002-29.704-24.168-53.87-53.872-53.87zm-443.13 114.67v-60.8c0-18.953 13.638-34.771 31.614-38.181-6.413 12.897-10.028 27.421-10.028 42.776v51.609c0 15.354 3.615 29.879 10.028 42.776-17.976-3.409-31.614-19.227-31.614-38.18zm364.016 76.804h-30.677c-9.161 0-18.483-1.621-27.71-4.816-18.074-6.261-41.026-9.708-64.629-9.708s-46.555 3.448-64.629 9.708c-9.227 3.196-18.549 4.816-27.71 4.816h-30.677c-44.883 0-81.398-36.516-81.398-81.399v-51.609c0-44.883 36.516-81.399 81.398-81.399h55.784c4.143 0 7.5-3.358 7.5-7.5s-3.357-7.5-7.5-7.5h-35.08c11.828-15.226 29.963-28.626 49.161-28.626h116.74c19.199 0 37.326 13.393 49.159 28.626h-144.98c-4.143 0-7.5 3.358-7.5 7.5s3.357 7.5 7.5 7.5c0 0 157.722.039 158.95.094l.023.001c43.157 1.958 77.672 37.672 77.672 81.304v51.609c.001 44.883-36.515 81.399-81.397 81.399zm117.984-76.804c0 18.953-13.638 34.771-31.614 38.181 6.413-12.897 10.028-27.421 10.028-42.776v-51.609c0-15.354-3.615-29.879-10.028-42.776 17.976 3.41 31.614 19.228 31.614 38.181z"/><path d="m329.345 225.755-13.76-7.945c.129-1.55.039 1.347.067-50.036 0-6.257-3.366-12.088-8.785-15.217 0 0-42.931-24.755-43.366-24.96v-15.889c0-4.142-3.357-7.5-7.5-7.5s-7.5 3.358-7.5 7.5v15.889c-.435.205-.865.422-1.285.665l-42.081 24.295c-5.419 3.129-8.785 8.959-8.785 15.217 0 0 .027 49.557.067 50.036l-13.76 7.945c-3.587 2.071-4.816 6.658-2.745 10.245 2.08 3.605 6.675 4.808 10.245 2.745l13.76-7.945c1.275.885-1.275-.692 43.299 25.076 5.418 3.128 12.151 3.13 17.57 0 0 0 42.904-24.802 43.299-25.076l13.76 7.945c1.182.682 2.471 1.006 3.743 1.006 2.592 0 5.113-1.346 6.502-3.751 2.071-3.587.842-8.174-2.745-10.245zm-29.979-60.207c.793.458 1.285 1.311 1.285 2.227v41.415l-37.151-21.45v-42.899zm-88.017 2.226c0-.916.492-1.769 1.285-2.227l35.866-20.707v42.899l-37.151 21.449zm45.936 75.112c-.793.458-1.777.458-2.57 0l-35.866-20.707 37.151-21.449 37.151 21.449z"/><path d="m383.97 393.625c-3.867 1.484-5.8 5.822-4.315 9.689 2.291 5.97 3.452 12.272 3.452 18.732 0 28.839-23.463 52.302-52.303 52.302s-52.303-23.463-52.303-52.302 23.463-52.302 52.303-52.302c10.791 0 21.147 3.257 29.95 9.418 3.395 2.376 8.07 1.548 10.445-1.844 2.375-3.394 1.55-8.07-1.844-10.445-11.337-7.935-24.668-12.129-38.552-12.129h-149.607c-37.11 0-67.303 30.192-67.303 67.302s30.192 67.302 67.303 67.302h149.607c37.111 0 67.303-30.191 67.303-67.302 0-8.304-1.496-16.414-4.448-24.106-1.483-3.867-5.823-5.802-9.688-4.315zm-202.774 80.723c-28.84 0-52.303-23.463-52.303-52.302s23.463-52.302 52.303-52.302h107.314c-15.242 12.349-25.01 31.203-25.01 52.302s9.767 39.953 25.01 52.302z"/><path d="m303.783 422.046c0 14.899 12.121 27.02 27.021 27.02 14.898 0 27.02-12.121 27.02-27.02s-12.121-27.02-27.02-27.02c-14.9 0-27.021 12.121-27.021 27.02zm39.04 0c0 6.628-5.392 12.02-12.02 12.02s-12.021-5.392-12.021-12.02 5.393-12.02 12.021-12.02 12.02 5.392 12.02 12.02z"/><path d="m220.467 397.641h-8.709c-4.143 0-7.5 3.358-7.5 7.5s3.357 7.5 7.5 7.5h8.709c4.143 0 7.5-3.358 7.5-7.5s-3.358-7.5-7.5-7.5z"/><path d="m220.467 431.45h-8.709c-4.143 0-7.5 3.358-7.5 7.5s3.357 7.5 7.5 7.5h8.709c4.143 0 7.5-3.358 7.5-7.5s-3.358-7.5-7.5-7.5z"/></g></g></svg>