<svg id="Capa_1" enable-background="new 0 0 512 512" height="512" viewBox="0 0 512 512" width="512" xmlns="http://www.w3.org/2000/svg"><g><g><g><path d="m104.515 68.341v312.412h302.97v-312.412c0-2.847-2.308-5.155-5.155-5.155h-292.66c-2.847.001-5.155 2.308-5.155 5.155z" fill="#ddebfd"/><path d="m402.33 63.187h-23.69c2.847 0 5.155 2.308 5.155 5.155v312.412h23.69v-312.413c0-2.846-2.308-5.154-5.155-5.154z" fill="#bed9fd"/><path d="m209.836 63.187v-29.017c0-2.278 1.846-4.124 4.124-4.124h84.081c2.278 0 4.124 1.846 4.124 4.124v29.017z" fill="#407194"/><g><path d="m355.586 322.266c-15.194 35.364-49.024 58.488-91.851 58.488-63.014 0-114.11-51.096-114.11-114.11 0-33.342 12.222-63.357 37.095-84.201 30.477-25.54 77.884-20.786 71.283 25.156-.814 5.665-1.02 12.932-.15 16.758 3.665 16.119 18.078 28.152 35.307 28.152 9.526 0 13.225-1.788 20.603-6.646 24.349-16.033 64.717 23.118 41.823 76.403z" fill="#5392f9"/><g fill="#4071f7"><path d="m241.003 192.599c-.814 5.665-1.02 12.932-.15 16.758 2.589 11.385 10.543 20.725 21.06 25.233-1.842-3.141-3.229-6.58-4.06-10.233-.87-3.826-.664-11.092.15-16.758 3.123-21.734-5.845-34.245-19.385-38.697 2.757 6.132 3.78 13.992 2.385 23.697z"/><path d="m336.393 244.539c9.543 14.516 13.26 36.969 2.193 62.726-15.194 35.364-49.024 58.488-91.851 58.488-24.849 0-47.84-7.95-66.58-21.439 20.837 22.411 50.57 36.439 83.58 36.439 42.827 0 76.657-23.124 91.851-58.488 16.441-38.266.255-69.242-19.193-77.726z"/></g><ellipse cx="232.31" cy="305.382" fill="#9cd169" rx="19.571" ry="19.571" transform="matrix(.311 -.95 .95 .311 -130.237 431.026)"/><ellipse cx="207.583" cy="235.186" fill="#db387e" rx="19.571" ry="19.571" transform="matrix(.311 -.95 .95 .311 -80.557 359.196)"/></g><path d="m311.307 92.001c-34.597 30.764-50.651 59.895-10.197 92.326h28.993c40.454-32.431 24.401-61.562-10.197-92.326-2.447-2.176-6.152-2.176-8.599 0z" fill="#407194"/><path d="m319.906 92.001c-2.447-2.176-6.153-2.176-8.599 0-2.503 2.226-4.906 4.443-7.2 6.654 29.421 28.343 40.524 55.588 2.997 85.673h23c40.453-32.432 24.4-61.563-10.198-92.327z" fill="#365f7e"/><path d="m299.956 214.653h31.301v176.101h-31.301z" fill="#eec06b"/><path d="m285.017 213.605v-35.582c0-3.537 2.867-6.405 6.405-6.405h48.369c3.537 0 6.405 2.867 6.405 6.405v35.582c0 3.537-2.867 6.405-6.405 6.405h-48.369c-3.537-.001-6.405-2.868-6.405-6.405z" fill="#db387e"/><path d="m339.791 171.618h-23c3.537 0 6.405 2.867 6.405 6.405v35.582c0 3.537-2.867 6.405-6.405 6.405h23c3.537 0 6.405-2.867 6.405-6.405v-35.582c0-3.537-2.868-6.405-6.405-6.405z" fill="#c4237c"/><g fill="#eec06b"><path d="m127.282 398.475-23.545 99.878c-.74 3.139 1.642 6.147 4.867 6.147h24.718c2.319 0 4.334-1.595 4.867-3.853l24.086-102.173h-34.993z"/><path d="m384.718 398.475 23.545 99.878c.74 3.139-1.642 6.147-4.867 6.147h-24.718c-2.319 0-4.334-1.595-4.867-3.853l-24.086-102.173h34.993z"/></g><path d="m60.199 411.041v-25.132c0-2.847 2.308-5.155 5.155-5.155h381.292c2.847 0 5.155 2.308 5.155 5.155v25.132c0 2.847-2.308 5.155-5.155 5.155h-381.292c-2.847 0-5.155-2.308-5.155-5.155z" fill="#407194"/></g></g><g><path d="m233.379 278.332c-14.911-.592-27.53 11.066-28.12 25.981-.589 14.915 11.065 27.529 25.981 28.119.362.014.723.021 1.082.021 14.438 0 26.461-11.449 27.037-26.002.59-14.914-11.065-27.529-25.98-28.119zm10.993 27.527c-.263 6.651-5.894 11.836-12.539 11.585-6.651-.263-11.848-5.888-11.585-12.539.257-6.49 5.618-11.595 12.057-11.595.16 0 .322.003.483.01 6.65.263 11.846 5.888 11.584 12.539z"/><path d="m206.514 262.236c.366.015.731.021 1.096.021 6.825 0 13.303-2.53 18.344-7.188 5.311-4.907 8.394-11.589 8.679-18.814.589-14.916-11.065-27.532-25.981-28.119-14.927-.587-27.53 11.065-28.12 25.981-.286 7.225 2.26 14.129 7.167 19.44 4.907 5.312 11.59 8.394 18.815 8.679zm1.063-39.121c.161 0 .322.003.484.01 6.65.263 11.847 5.888 11.585 12.539-.127 3.222-1.502 6.201-3.87 8.39-2.369 2.188-5.441 3.32-8.669 3.195-3.222-.127-6.201-1.501-8.389-3.87-2.188-2.368-3.323-5.447-3.196-8.668.256-6.491 5.617-11.596 12.055-11.596z"/><path d="m446.646 373.253h-31.661v-304.912c0-6.978-5.677-12.655-12.655-12.655h-92.665v-21.516c0-6.41-5.214-11.624-11.624-11.624h-34.541v-15.046c0-4.142-3.358-7.5-7.5-7.5s-7.5 3.358-7.5 7.5v15.046h-34.541c-6.41 0-11.624 5.214-11.624 11.624v21.517h-92.665c-6.978 0-12.655 5.677-12.655 12.655v304.912h-31.661c-6.978 0-12.655 5.677-12.655 12.655v25.132c0 6.978 5.677 12.655 12.655 12.655h48.274l-17.189 72.937c-.882 3.74-.019 7.614 2.366 10.626s5.958 4.741 9.8 4.741h24.716c5.827 0 10.83-3.961 12.167-9.633l9.125-38.717h202.775l9.125 38.718c1.337 5.671 6.34 9.632 12.167 9.632h24.716c3.843 0 7.415-1.728 9.8-4.741s3.248-6.886 2.366-10.626l-17.189-72.937h48.274c6.978 0 12.655-5.677 12.655-12.655v-25.132c-.001-6.978-5.678-12.656-12.656-12.656zm-229.311-335.707h77.329v18.141h-77.329zm-105.32 33.141h287.97v302.567h-61.225v-13.771c10.091-9.595 18.066-21.099 23.721-34.252 13.202-30.732 5.907-53.474.384-64.295-5.628-11.027-14.373-19.451-24.105-23.509v-9.916h1.031c7.667 0 13.905-6.238 13.905-13.905v-35.582c0-2.131-.496-4.144-1.357-5.951 9.527-13.61 11.626-27.979 6.193-42.797-4.812-13.124-15.5-26.749-33.636-42.877-5.292-4.709-13.275-4.71-18.569-.002-18.141 16.127-28.831 29.753-33.643 42.88-5.43 14.815-3.332 29.182 6.193 42.791-.862 1.809-1.36 3.823-1.36 5.957v35.582c0 7.667 6.238 13.905 13.905 13.905h1.038v17.471c-13.188-.313-24.358-9.376-27.296-22.282-.516-2.271-.563-8.282.26-14.032 3.945-27.462-9.423-39.334-17.744-43.966-18.205-10.136-45.254-5.205-65.778 11.992-4.203 3.522-8.147 7.362-11.724 11.413-2.742 3.104-2.448 7.844.657 10.586s7.845 2.448 10.586-.657c3.083-3.491 6.487-6.803 10.116-9.846 15.361-12.871 36.358-17.334 48.847-10.382 10.958 6.101 11.591 18.99 10.192 28.731-.859 6.002-1.205 14.355-.039 19.487 4.504 19.781 21.687 33.656 41.923 33.97v109.213c-9.073 2.673-18.705 4.042-28.72 4.042-58.785 0-106.61-47.825-106.61-106.61 0-14.732 2.511-28.55 7.464-41.071 1.524-3.852-.364-8.209-4.215-9.733-3.85-1.523-8.209.363-9.733 4.215-5.651 14.285-8.516 29.959-8.516 46.589 0 45.884 25.546 85.909 63.16 106.613h-93.275v-302.568zm226.745 183.892c14.013 10.542 22.569 35.329 9.94 64.728-2.706 6.293-6.036 12.133-9.94 17.499zm-46.243-42.07v-33.391h46.179v33.391zm47.084-48.391h-47.983c-14.016-19.268-6.993-38.175 23.991-65.904 30.98 27.734 38.004 46.641 23.992 65.904zm-32.141 63.391h16.3v145.744h-16.3zm-176.118 269.491h-19.579l17.276-73.304h19.579zm268.895 0h-19.579l-17.276-73.304h19.579zm44.064-88.304h-144.345c-4.142 0-7.5 3.358-7.5 7.5s3.358 7.5 7.5 7.5h48.015l5.881 24.954h-195.704l5.881-24.954h100.927c4.142 0 7.5-3.358 7.5-7.5s-3.358-7.5-7.5-7.5h-197.257v-20.442h376.602z"/></g></g></svg>