<svg id="Capa_1" enable-background="new 0 0 512 512" height="512" viewBox="0 0 512 512" width="512" xmlns="http://www.w3.org/2000/svg"><g><g><g><path d="m221.953 26.942c-118.44 0-214.453 96.013-214.453 214.452s96.013 214.453 214.453 214.453 214.452-96.014 214.452-214.453-96.013-214.452-214.452-214.452zm0 353.042c-76.541 0-138.591-62.049-138.591-138.59s62.05-138.592 138.591-138.592 138.591 62.051 138.591 138.592-62.05 138.59-138.591 138.59z" fill="#db387e"/><path d="m327.918 54.917c47.822 39.656 78.285 99.518 78.285 166.497 0 119.402-96.795 216.196-216.196 216.196-31.724 0-61.853-6.833-88.994-19.108 34.431 23.557 76.073 37.345 120.941 37.345 118.439 0 214.452-96.014 214.452-214.453-.001-79.895-43.696-149.579-108.488-186.477z" fill="#c4237c"/><path d="m221.953 26.942v75.86c-76.54 0-138.591 62.052-138.591 138.592 0 25.247 6.747 48.918 18.542 69.308l-65.71 37.935c-18.251-31.549-28.694-68.179-28.694-107.243 0-118.438 96.015-214.452 214.453-214.452z" fill="#5392f9"/><path d="m436.405 241.394c0 39.064-10.443 75.693-28.693 107.243l-65.71-37.935c11.794-20.39 18.542-44.061 18.542-69.308 0-76.54-62.051-138.592-138.591-138.592v-75.86c118.437 0 214.452 96.014 214.452 214.452z" fill="#9cd169"/><path d="m327.925 54.924c47.818 39.656 78.277 99.515 78.277 166.491 0 39.861-10.8 77.194-29.614 109.255l31.124 17.968c18.25-31.55 28.693-68.179 28.693-107.243 0-79.892-43.693-149.572-108.48-186.471z" fill="#68b181"/><path d="m356.425 65.227-129.476 129.476c-15.998 15.998-18.548 40.344-7.668 59.013-9.688 10.926-9.308 27.647 1.154 38.11 10.463 10.463 27.184 10.843 38.11 1.155 18.669 10.88 43.012 8.329 59.01-7.669l129.477-129.478z" fill="#ddebfd"/><path d="m427.35 136.152-125.312 125.313c-17.283 17.283-42.281 21.345-60.683 11.358-8.109 7.287-18.755 9.825-27.877 7.378 1.281 4.254 3.596 8.264 6.957 11.626 10.463 10.463 27.184 10.844 38.11 1.155 18.669 10.88 43.012 8.329 59.01-7.669l129.477-129.478z" fill="#bed9fd"/><path d="m401.267 201.601-83.712 83.711c-15.993 15.992-40.348 18.546-59.01 7.669-10.924 9.69-27.645 9.299-38.11-1.155-10.465-10.466-10.844-27.185-1.154-38.11-9.419-16.157-8.781-36.546 1.931-52.115z" fill="#5392f9"/><path d="m317.555 285.312 83.712-83.711h-39.366l-59.864 59.864c-16.764 16.764-40.788 21.089-59.009 12.219-1.023-.498-2.244-.336-3.131.376-7.9 6.332-17.835 8.444-26.42 6.141.32 1.062.704 2.108 1.153 3.133l.006.014c7.452 16.979 29.651 22.28 43.909 9.633 18.662 10.878 43.017 8.324 59.01-7.669z" fill="#4071f7"/><path d="m414.901 20.101-46.59 46.59 77.258 77.258 46.59-46.59c16.455-16.455 16.455-43.133 0-59.588l-17.669-17.669c-16.455-16.456-43.134-16.456-59.589-.001z" fill="#407194"/><path d="m492.159 37.77-17.686-17.686c15.382 15.4 14.52 41.209-1.929 57.658l-46.59 46.59 19.615 19.616 46.59-46.59c16.455-16.455 16.455-43.133 0-59.588z" fill="#365f7e"/><path d="m360.542 40.211 111.506 111.506c4.702 4.702 4.702 12.326 0 17.028l-10.839 10.839c-4.702 4.702-12.326 4.702-17.028 0l-111.506-111.506c-4.702-4.702-4.702-12.326 0-17.028l10.839-10.839c4.703-4.703 12.326-4.703 17.028 0z" fill="#4980ac"/><path d="m472.049 151.717-21.079-21.079c4.601 4.601 4.601 12.06 0 16.661l-11.206 11.206c-4.601 4.601-12.06 4.601-16.661 0l21.079 21.079c4.702 4.702 12.326 4.702 17.028 0l10.839-10.839c4.702-4.702 4.702-12.326 0-17.028z" fill="#407194"/><path d="m221.953 361.967c-11.696 0-55.715 49.601-55.715 86.558 0 30.77 24.944 55.715 55.715 55.715s55.715-24.944 55.715-55.715c-.001-36.957-44.02-86.558-55.715-86.558z" fill="#5392f9"/><path d="m221.953 361.967c-1.801 0-4.371 1.18-7.427 3.306 16.772 18.438 37.425 51.98 37.425 79.156 0 28.368-18.403 52.106-43.088 58.25 4.2 1.012 8.58 1.562 13.09 1.562 30.771 0 55.715-24.944 55.715-55.715-.001-36.958-44.02-86.559-55.715-86.559z" fill="#4071f7"/></g></g><path d="m497.489 32.44-17.673-17.672c-19.354-19.343-50.845-19.341-70.199.002l-31.928 31.936-11.824-11.824c-7.619-7.62-20.017-7.62-27.637 0l-10.839 10.839c-.062.062-.114.131-.175.194-67.858-36.591-150.434-35.184-216.947 3.611-3.578 2.087-4.787 6.68-2.7 10.258 2.08 3.567 6.67 4.793 10.257 2.7 29.33-17.107 62.593-26.697 96.639-27.927v60.912c-77.088 3.917-138.599 67.864-138.599 145.906 0 23.275 5.56 46.036 15.989 66.461l-52.725 30.438c-15.473-29.167-24.128-62.255-24.128-96.899 0-61.818 27.326-119.922 74.97-159.414 3.19-2.644 3.632-7.372.988-10.561-2.644-3.19-7.373-3.632-10.561-.988-51.093 42.35-80.397 104.664-80.397 170.962 0 98.012 64.502 185.028 159.02 212.909 2.922 32.166 30.029 57.455 62.944 57.455 32.919 0 60.028-25.293 62.946-57.463 26.644-7.851 51.296-20.514 73.347-37.696 3.268-2.546 3.853-7.259 1.307-10.526s-7.259-3.852-10.526-1.306c-19.539 15.223-41.269 26.634-64.694 34.011-3.22-19.821-14.713-39.817-26.966-55.622 28.915-7.214 55.161-23.247 74.913-45.981 4.494-5.172 8.588-10.634 12.279-16.331l52.789 30.475c-6.799 10.827-14.638 21.081-23.465 30.618-2.815 3.04-2.631 7.786.409 10.599 3.041 2.813 7.787 2.63 10.599-.41 52.691-56.933 71.386-136.734 50.935-210.3l3.062 3.062c3.81 3.81 8.814 5.715 13.819 5.715 5.004 0 10.008-1.905 13.818-5.715l10.839-10.839c7.619-7.619 7.619-20.017 0-27.636l-11.816-11.816 31.93-31.938c19.348-19.359 19.347-50.85 0-70.199zm-74.346 136.672-24.969 24.971h-160.006l104.978-104.969zm-110.872 110.881c-13.242 13.242-33.779 15.914-49.942 6.493-2.8-1.632-6.331-1.28-8.754.87-8.017 7.114-20.235 6.738-27.823-.856-7.59-7.582-7.964-19.801-.852-27.817 2.151-2.424 2.502-5.955.871-8.754-7.462-12.805-7.33-28.352-.372-40.845h157.775zm-16.505-164.717c-20.181-11.836-42.861-18.593-66.303-19.785v-60.93c32.365 1.17 64.007 9.906 92.234 25.457.118 4.843 2.004 9.651 5.691 13.339l5.15 5.15zm-249.134 235.986 52.718-30.434c20.12 31.047 51.38 53.375 87.198 62.309-12.222 15.766-23.746 35.78-26.966 55.64-47.847-15.088-87.384-46.729-112.95-87.515zm223.55 97.26c0 26.586-21.631 48.215-48.218 48.215s-48.217-21.63-48.217-48.217c0-30.687 36.231-74.494 48.217-78.962 12.089 4.509 48.218 48.355 48.218 78.964zm50.785-121.206c-19.422 22.354-45.831 37.481-74.712 42.894-5.738-5.961-15.982-15.752-24.291-15.752-3.15 0-8.513 1.064-18.676 10.27-1.836 1.663-3.719 3.513-5.616 5.484-61.732-11.572-106.807-65.679-106.807-128.838 0-99.44 106.986-162.624 193.905-115.103l-63.112 63.107c-16.643 16.643-21.25 42.114-11.208 63.595-8.902 13.743-7.22 32.231 4.696 44.134 11.903 11.915 30.389 13.605 44.139 4.701 21.245 9.933 46.75 5.636 63.595-11.209l28.528-28.531c-3.839 24.045-14.324 46.698-30.441 65.248zm83.901 10.997-52.795-30.479c9.812-19.221 15.312-40.516 15.92-62.352l54.702-54.706c4.139 16.469 6.236 33.435 6.236 50.598.001 34.183-8.358 67.351-24.063 96.939zm61.9-174.891-10.839 10.839c-1.77 1.772-4.652 1.771-6.421 0-15.632-15.631-99.982-99.982-111.512-111.511-1.771-1.771-1.771-4.651 0-6.422l10.839-10.839c1.769-1.77 4.652-1.77 6.421 0 27.108 27.106 88.738 88.736 111.512 111.511 1.771 1.771 1.771 4.652 0 6.422zm20.113-71.388-31.928 31.936-66.657-66.657 31.927-31.935c13.506-13.498 35.481-13.499 48.987-.001l17.671 17.671c13.501 13.501 13.501 35.476 0 48.986z"/></g></svg>