<svg id="Capa_1" enable-background="new 0 0 512 512" height="512" viewBox="0 0 512 512" width="512" xmlns="http://www.w3.org/2000/svg"><g><g><g><path d="m314.757 347.707c0-69.978 0-265.58 0-265.58h-285.465v265.58c0 12.875-21.792 46.155-21.792 61.173v26.199c0 8.352 6.771 15.123 15.123 15.123h298.803c8.352 0 15.123-6.771 15.123-15.123v-26.199c0-15.018-21.792-48.298-21.792-61.173z" fill="#407194"/><path d="m314.757 347.708c0-69.978 0-265.58 0-265.58h-31v265.58c0 12.875 21.792 46.155 21.792 61.173v26.199c0 8.352-6.771 15.123-15.123 15.123h31c8.352 0 15.123-6.771 15.123-15.123v-26.199c0-15.019-21.792-48.299-21.792-61.173z" fill="#365f7e"/><ellipse cx="172.024" cy="266.745" fill="#9cd169" rx="56.742" ry="66.893"/><path d="m368.431 434.351h-15.875c-43.566 0-78.884-35.318-78.884-78.884v-87.065c0-4.249 3.444-7.693 7.693-7.693h158.256c4.249 0 7.693 3.444 7.693 7.693v87.065c.001 43.566-35.317 78.884-78.883 78.884z" fill="#5392f9"/><path d="m439.622 260.708h-31c4.249 0 7.693 3.444 7.693 7.693v87.065c0 41.014-31.304 74.707-71.321 78.515 2.49.237 5.011.369 7.563.369h15.875c43.566 0 78.884-35.318 78.884-78.884v-87.065c-.001-4.249-3.445-7.693-7.694-7.693z" fill="#4071f7"/><path d="m20.04 52.218-9.758 33.201c-1.39 4.728 2.155 9.465 7.083 9.465h309.318c4.928 0 8.473-4.737 7.083-9.465l-9.758-33.201c-1.32-4.49-5.44-7.573-10.119-7.573h-283.73c-4.679 0-8.799 3.084-10.119 7.573z" fill="#ddebfd"/><path d="m333.767 85.419-9.758-33.201c-1.32-4.49-5.44-7.573-10.119-7.573h-31c4.68 0 8.8 3.083 10.119 7.573l9.758 33.201c1.39 4.729-2.155 9.465-7.083 9.465h31c4.928 0 8.473-4.737 7.083-9.465z" fill="#bed9fd"/><path d="m442.576 467.355h-159.907c-15.644 0-28.325-12.682-28.325-28.325v-7.794c0-3.301 2.676-5.977 5.977-5.977h204.604c3.301 0 5.977 2.676 5.977 5.977v7.794c0 15.643-12.682 28.325-28.326 28.325z" fill="#ddebfd"/><path d="m464.925 425.258h-31c3.301 0 5.977 2.676 5.977 5.977v7.794c0 15.644-12.682 28.325-28.325 28.325h31c15.644 0 28.325-12.682 28.325-28.325v-7.794c0-3.301-2.676-5.977-5.977-5.977z" fill="#bed9fd"/></g></g><g><path d="m172.024 192.353c-35.423 0-64.242 33.373-64.242 74.393 0 42.405 30.041 74.393 64.242 74.393 35.423 0 64.242-33.373 64.242-74.393 0-42.77-30.386-74.393-64.242-74.393zm-49.242 74.392c0-28.808 17.096-52.883 39.693-58.262-3.899 6.972-7.388 15.563-7.388 29.372 0 32.974 18.875 33.996 18.875 61.553 0 12.916-3.661 19.221-7.978 26.268-24.311-3.606-43.202-28.649-43.202-58.931zm61.044 57.657c2.896-6.216 5.136-13.93 5.136-24.994 0-32.974-18.875-33.996-18.875-61.553 0-13.262 3.858-19.555 8.325-26.841.569-.928 1.146-1.876 1.721-2.842 23.306 4.679 41.134 29.156 41.134 58.573-.001 27.843-15.972 51.262-37.441 57.657z"/><path d="m70.376 127.52h-3.164c-4.142 0-7.5 3.358-7.5 7.5s3.358 7.5 7.5 7.5h3.164c4.142 0 7.5-3.358 7.5-7.5s-3.357-7.5-7.5-7.5z"/><path d="m111.668 142.52c4.142 0 7.5-3.358 7.5-7.5s-3.358-7.5-7.5-7.5h-3.164c-4.142 0-7.5 3.358-7.5 7.5s3.358 7.5 7.5 7.5z"/><path d="m149.796 142.52h3.164c4.142 0 7.5-3.358 7.5-7.5s-3.358-7.5-7.5-7.5h-3.164c-4.142 0-7.5 3.358-7.5 7.5s3.358 7.5 7.5 7.5z"/><path d="m191.088 142.52h3.164c4.142 0 7.5-3.358 7.5-7.5s-3.358-7.5-7.5-7.5h-3.164c-4.142 0-7.5 3.358-7.5 7.5s3.358 7.5 7.5 7.5z"/><path d="m235.544 127.52h-3.164c-4.142 0-7.5 3.358-7.5 7.5s3.358 7.5 7.5 7.5h3.164c4.142 0 7.5-3.358 7.5-7.5s-3.357-7.5-7.5-7.5z"/><path d="m273.672 142.52h3.164c4.142 0 7.5-3.358 7.5-7.5s-3.358-7.5-7.5-7.5h-3.164c-4.142 0-7.5 3.358-7.5 7.5s3.358 7.5 7.5 7.5z"/><path d="m472.19 283.99h-17.38v-15.59c0-8.376-6.814-15.19-15.19-15.19h-117.36v-150.826h4.424c9.941 0 17.083-9.538 14.279-19.08l-9.758-33.201c-2.243-7.629-9.363-12.958-17.315-12.958h-191.535c-4.142 0-7.5 3.358-7.5 7.5s3.358 7.5 7.5 7.5h191.535c1.343 0 2.545.9 2.923 2.188l9.714 33.051c-13.95 0-282.383 0-309.006 0l9.714-33.05c.379-1.289 1.581-2.188 2.924-2.188h57.196c4.142 0 7.5-3.358 7.5-7.5s-3.358-7.5-7.5-7.5h-57.196c-7.952 0-15.072 5.329-17.315 12.958l-9.758 33.2c-1.335 4.543-.474 9.323 2.364 13.114s7.18 5.965 11.916 5.965h4.425v245.327c0 4.539-5.308 16.033-9.573 25.269-6.284 13.604-12.218 26.453-12.218 35.901v26.2c0 12.473 10.147 22.62 22.62 22.62h229.487c6.304 10.281 17.644 17.155 30.562 17.155h159.907c19.754 0 35.825-16.071 35.825-35.826v-7.794c0-7.431-6.046-13.477-13.477-13.477h-36.624c10.452-10.032 18.195-22.515 22.53-36.308h21.359c21.951 0 39.81-17.854 39.81-39.8v-17.85c.001-21.951-17.858-39.81-39.809-39.81zm-8.788 155.039c0 11.483-9.342 20.826-20.825 20.826h-159.908c-11.483 0-20.826-9.342-20.826-20.826v-6.271h201.558v6.271zm-60.103-21.271h-85.6c-22.576-12.638-36.529-36.335-36.529-62.288v-34.46c0-4.142-3.358-7.5-7.5-7.5s-7.5 3.358-7.5 7.5v34.46c0 23.913 9.789 46.241 26.516 62.288h-32.365c-7.432 0-13.478 6.046-13.478 13.477v7.794c0 1.239.064 2.464.187 3.671h-224.41c-4.202 0-7.62-3.418-7.62-7.62v-26.2c0-6.152 6.007-19.16 10.834-29.612 5.878-12.729 10.956-23.723 10.956-31.558v-245.326h270.47v150.826h-25.89c-8.381 0-15.2 6.814-15.2 15.19v17.61c0 4.142 3.358 7.5 7.5 7.5s7.5-3.358 7.5-7.5v-17.61c0-.105.09-.19.2-.19h158.25c.108 0 .19.082.19.19v87.07c0 5.736-.685 11.362-1.99 16.783-.019.081-.039.162-.057.244-4.203 19.101-16.963 35.452-34.464 45.261zm93.701-76.108c0 13.675-11.13 24.8-24.81 24.8h-18.084c.459-3.611.705-7.275.705-10.98v-56.48h17.38c13.68 0 24.81 11.129 24.81 24.81v17.85z"/><path d="m365.009 232.393c4.142 0 7.5-3.358 7.5-7.5v-9.532c0-17.395 3.423-24.516 15.262-31.748 20.391-12.457 50.079-19.66 55.86-52.555 2.78-15.815-2.289-33.385-13.227-45.854-9.796-11.166-22.893-16.988-36.875-16.375-19.819.861-35.746 16.641-35.503 35.176.265 20.266 21.839 36.257 40.793 26.811 3.707-1.848 5.214-6.351 3.366-10.058-1.848-3.706-6.35-5.215-10.058-3.366-4.925 2.456-9.315.593-11.495-.736-4.556-2.778-7.542-7.821-7.607-12.847-.149-11.403 10.818-19.544 21.155-19.993 9.343-.412 18.21 3.6 24.948 11.281 8.013 9.134 11.741 21.919 9.729 33.365-4.338 24.681-26.834 28.867-48.906 42.351-16.57 10.122-22.442 21.779-22.442 44.549v9.532c0 4.141 3.358 7.499 7.5 7.499z"/><path d="m413.089 189.183c-11.196 6.589-19.638 19.221-19.638 29.383v6.327c0 4.142 3.358 7.5 7.5 7.5s7.5-3.358 7.5-7.5v-6.327c0-3.861 4.659-11.99 12.247-16.456 9.262-5.452 19.788-9.425 29.027-15.454 7.587-4.951 18.029-13.478 21.09-30.294.742-4.075-1.96-7.98-6.036-8.722-4.074-.743-7.98 1.96-8.722 6.036-1.583 8.7-5.929 14.807-14.529 20.418-8.058 5.258-18.733 9.375-28.439 15.089z"/></g></g></svg>