<svg id="Capa_1" enable-background="new 0 0 512 512" height="512" viewBox="0 0 512 512" width="512" xmlns="http://www.w3.org/2000/svg"><g><g><g><path d="m271.857 498.555h54.352l-45.339-99.657h-139.495l-45.339 99.657h54.351l24.321-50.494c1.737-3.606 5.385-5.898 9.388-5.898h54.05c4.002 0 7.651 2.292 9.388 5.898z" fill="#9ec8fc"/><path d="m406.472 110.128h-390.698c-4.57 0-8.274 3.704-8.274 8.274v265.728h407.246v-265.729c-.001-4.569-3.705-8.273-8.274-8.273z" fill="#5392f9"/><path d="m406.472 110.128h-31c4.57 0 8.274 3.704 8.274 8.274v265.728h31v-265.729c-.001-4.569-3.705-8.273-8.274-8.273z" fill="#4071f7"/><path d="m414.745 366.479h-407.245v32.835c0 4.57 3.704 8.274 8.274 8.274h390.698c4.57 0 8.274-3.704 8.274-8.274v-32.835z" fill="#ddebfd"/><path d="m383.745 366.478v32.835c0 4.57-3.704 8.274-8.274 8.274h31c4.57 0 8.274-3.704 8.274-8.274v-32.835z" fill="#bed9fd"/><path d="m400.464 13.448c-55.63.462-101.264 45.628-102.268 101.251-.328 18.175 4.049 35.298 11.99 50.24 1.609 3.028 1.792 6.615.591 9.826l-16.55 44.272c-1.579 4.224 2.543 8.345 6.766 6.766l45.428-16.982c3.085-1.153 6.522-1.037 9.477.416 14.065 6.914 29.931 10.723 46.708 10.521 55.88-.671 101.436-46.412 101.891-102.294.469-57.66-46.371-104.494-104.033-104.016z" fill="#eec06b"/><path d="m400.464 13.448c-4.602.038-9.133.389-13.578 1.019 50.36 7.108 89.037 50.576 88.61 102.997-.419 51.408-39.006 94.23-88.686 101.281 5.153.727 10.426 1.078 15.795 1.014 55.88-.671 101.436-46.412 101.891-102.294.47-57.661-46.37-104.495-104.032-104.017z" fill="#e9a761"/><g><path d="m403.503 84.613v63.984c0 4.835 5.42 7.69 9.407 4.955l46.648-31.992c3.48-2.387 3.48-7.523 0-9.91l-46.648-31.992c-3.988-2.735-9.407.12-9.407 4.955z" fill="#db387e"/></g><path d="m7.5 256.484h407.246v109.994h-407.246z" fill="#407194"/><path d="m383.745 256.484h31v109.994h-31z" fill="#365f7e"/><path d="m97.235 156.568v26.357c0 1.742.6 3.432 1.698 4.784l23.914 29.434c3.036 3.737 8.74 3.737 11.776 0l23.914-29.434c1.099-1.352 1.698-3.041 1.698-4.784v-26.357c0-4.19-3.397-7.587-7.587-7.587h-47.827c-4.19.001-7.586 3.397-7.586 7.587z" fill="#ddebfd"/></g></g><g><path d="m463.799 105.465-46.648-31.993c-4.146-2.843-9.488-3.154-13.936-.811-4.449 2.344-7.213 6.923-7.213 11.952v63.984c0 5.028 2.764 9.608 7.212 11.952 4.419 2.327 9.759 2.053 13.936-.812l46.648-31.992c7.82-5.362 7.818-16.92.001-22.28zm-52.796 40.301v-58.322l42.519 29.161z"/><path d="m377.059 73.96h-10.969c-4.142 0-7.5 3.358-7.5 7.5s3.358 7.5 7.5 7.5h10.969c4.142 0 7.5-3.358 7.5-7.5s-3.358-7.5-7.5-7.5z"/><path d="m377.057 109.104h-36.546c-4.142 0-7.5 3.358-7.5 7.5s3.358 7.5 7.5 7.5h36.546c4.142 0 7.5-3.358 7.5-7.5s-3.358-7.5-7.5-7.5z"/><path d="m377.057 144.249h-18.621c-4.142 0-7.5 3.358-7.5 7.5s3.358 7.5 7.5 7.5h18.621c4.142 0 7.5-3.358 7.5-7.5s-3.358-7.5-7.5-7.5z"/><path d="m511.996 117.525c.244-29.914-11.268-58.032-32.414-79.175s-49.31-32.668-79.18-32.401c-28.872.239-56.159 11.643-76.833 32.109-17.8 17.621-28.92 40.211-32.005 64.572h-275.794c-8.696 0-15.77 7.074-15.77 15.77v48.56c0 4.142 3.358 7.5 7.5 7.5s7.5-3.358 7.5-7.5v-48.56c0-.425.345-.77.77-.77h274.92c.171 17.739 4.593 35.25 12.872 50.828.583 1.099.652 2.44.188 3.682l-16.55 44.272c-1.772 4.741-.649 9.909 2.929 13.488 3.591 3.591 8.759 4.695 13.489 2.929l45.427-16.982c1.189-.444 2.48-.401 3.542.122 17.51 8.607 36.156 12.122 54.662 11.133v21.884h-271.019v-23.547c1.588-.911 3.024-2.1 4.214-3.564l23.914-29.435c2.178-2.681 3.377-6.06 3.377-9.513v-26.357c0-8.319-6.768-15.086-15.087-15.086h-47.827c-8.319 0-15.086 6.768-15.086 15.086v26.357c0 3.454 1.199 6.832 3.377 9.514l23.914 29.434c1.187 1.461 2.62 2.648 4.204 3.559v23.552h-106.23v-47.026c0-4.142-3.358-7.5-7.5-7.5s-7.5 3.358-7.5 7.5v197.354c0 8.698 7.076 15.774 15.774 15.774h110.005l-34.564 75.968h-41.99c-4.142 0-7.5 3.358-7.5 7.5s3.358 7.5 7.5 7.5h323.797c4.142 0 7.5-3.358 7.5-7.5s-3.358-7.5-7.5-7.5h-41.986l-34.564-75.968h43.937c4.142 0 7.5-3.358 7.5-7.5s-3.358-7.5-7.5-7.5h-324.635c-.427 0-.774-.347-.774-.774v-25.335h392.246v25.335c0 .427-.347.774-.774.774h-31.063c-4.142 0-7.5 3.358-7.5 7.5s3.358 7.5 7.5 7.5h31.063c8.698 0 15.774-7.076 15.774-15.774 0-17.738.004-174.039.004-174.059 50.563-9.835 89.314-54.612 89.746-107.73zm-407.261 65.4v-26.357c0-.048.039-.086.086-.086h47.827c.048 0 .077.039.077.086v26.412l-23.947 29.459c-.017 0-.032.001-.049.001-.016 0-.032.002-.048.002l-.015-.028zm57.59 308.131 19.141-39.74c.484-1.004 1.517-1.653 2.631-1.653h54.05c1.114 0 2.147.649 2.631 1.653l19.141 39.739h-97.594zm152.231 0h-37.986l-22.277-46.249c-2.968-6.162-9.305-10.144-16.145-10.144h-54.05c-6.839 0-13.177 3.982-16.145 10.144l-22.277 46.249h-37.982l34.564-75.968h137.733zm-193.326-227.072v21.665h-106.23v-21.665zm-106.23 36.665h106.23v21.665h-106.23zm0 36.665h106.23v21.665h-106.23zm121.23 21.664v-21.665h194.146c4.142 0 7.5-3.358 7.5-7.5s-3.358-7.5-7.5-7.5h-194.146v-21.665h118.291c4.142 0 7.5-3.358 7.5-7.5s-3.358-7.5-7.5-7.5h-118.291v-21.665h271.016v94.994h-271.016zm222.976-156.472c-4.752-2.335-10.368-2.595-15.412-.71l-40.82 15.26 14.828-39.665c1.966-5.262 1.604-11.083-.993-15.972-18.962-35.681-14.021-81.681 17.313-112.701 17.88-17.701 41.463-27.563 66.404-27.771.275-.002.545-.003.82-.003 25.553 0 49.545 9.93 67.63 28.013 18.28 18.277 28.231 42.584 28.021 68.445-.583 71.646-75.54 115.705-137.791 85.104z"/></g></g></svg>