<svg id="Capa_1" enable-background="new 0 0 512 512" height="512" viewBox="0 0 512 512" width="512" xmlns="http://www.w3.org/2000/svg"><g><g><g><path d="m246.054 486.533h51.318l-42.808-94.095h-131.71l-42.808 94.095h51.318l22.964-47.676c1.64-3.405 5.085-5.569 8.864-5.569h51.034c3.779 0 7.224 2.164 8.864 5.569z" fill="#9ec8fc"/><path d="m369.917 367.443h-362.417v-228.798c0-4.315 3.498-7.812 7.812-7.812h346.793c4.315 0 7.812 3.498 7.812 7.812z" fill="#407194"/><path d="m362.105 130.833h-30c4.315 0 7.812 3.498 7.812 7.812v228.798h30v-228.798c0-4.314-3.497-7.812-7.812-7.812z" fill="#365f7e"/><path d="m149.264 203.309v86.042c0 6.502 7.288 10.341 12.65 6.663l62.729-43.021c4.68-3.21 4.68-10.117 0-13.327l-62.729-43.021c-5.362-3.677-12.65.162-12.65 6.664z" fill="#de5791"/><path d="m369.917 361.827h-362.417v31.003c0 4.315 3.498 7.812 7.812 7.812h346.793c4.315 0 7.812-3.498 7.812-7.812z" fill="#ddebfd"/><path d="m339.917 361.827v31.003c0 4.314-3.498 7.812-7.812 7.812h30c4.315 0 7.812-3.498 7.812-7.812v-31.003z" fill="#bed9fd"/><path d="m440.301 30.487v19.658c0 2.773-2.248 5.02-5.02 5.02h-103.721c-2.773 0-5.02-2.248-5.02-5.02v-19.658c0-2.773-2.248-5.02-5.02-5.02h-54.158c-2.773 0-5.02 2.248-5.02 5.02v287.456c0 2.773 2.248 5.02 5.02 5.02h54.158c2.773 0 5.02-2.248 5.02-5.02v-19.658c0-2.773 2.248-5.02 5.02-5.02h103.72c2.773 0 5.02 2.248 5.02 5.02v19.658c0 2.773 2.248 5.02 5.02 5.02h54.158c2.773 0 5.02-2.248 5.02-5.02v-287.456c0-2.773-2.248-5.02-5.02-5.02h-54.158c-2.771 0-5.019 2.248-5.019 5.02z" fill="#ddebfd"/><path d="m499.48 25.467h-30c2.773 0 5.02 2.248 5.02 5.021v287.456c0 2.772-2.248 5.02-5.02 5.02h30c2.773 0 5.02-2.248 5.02-5.02v-287.457c0-2.772-2.248-5.02-5.02-5.02z" fill="#bed9fd"/><g fill="#5392f9"><path d="m328.572 92.072v57.441c0 2.773 2.248 5.02 5.02 5.02h99.656c2.773 0 5.02-2.248 5.02-5.02v-57.441c0-2.773-2.248-5.02-5.02-5.02h-99.656c-2.772-.001-5.02 2.247-5.02 5.02z"/><path d="m328.572 198.918v57.441c0 2.773 2.248 5.02 5.02 5.02h99.656c2.773 0 5.02-2.248 5.02-5.02v-57.441c0-2.773-2.248-5.02-5.02-5.02h-99.656c-2.772-.001-5.02 2.247-5.02 5.02z"/></g></g></g><g><path d="m166.156 302.2 62.73-43.021c9.017-6.186 9.014-19.514 0-25.697l-62.729-43.021c-4.783-3.28-10.943-3.639-16.073-.936-5.131 2.703-8.319 7.985-8.319 13.785v86.042c-.001 12.519 14.06 19.934 24.391 12.848zm-9.392-98.891c0-.139 0-.35.31-.513.113-.06.208-.082.289-.082.14 0 .236.066.31.116l62.729 43.021c.34.233.342.72 0 .957l-62.729 43.021c-.115.078-.289.197-.599.035-.31-.163-.31-.374-.31-.513z"/><path d="m504.5 239.067c4.143 0 7.5-3.358 7.5-7.5v-201.08c0-6.904-5.616-12.521-12.521-12.521h-54.158c-6.904 0-12.521 5.617-12.521 12.521v17.178h-98.76v-17.178c0-6.904-5.616-12.521-12.521-12.521h-54.158c-6.904 0-12.521 5.617-12.521 12.521v92.845h-239.526c-8.443 0-15.312 6.869-15.312 15.312v25.523c0 4.142 3.358 7.5 7.5 7.5s7.5-3.358 7.5-7.5v-25.523c0-.175.137-.312.312-.312h239.527v179.611c0 6.904 5.616 12.521 12.521 12.521h54.158c6.904 0 12.521-5.617 12.521-12.521v-17.178h28.382v53.562h-347.423v-155.018c0-4.142-3.358-7.5-7.5-7.5s-7.5 3.358-7.5 7.5v193.521c0 8.443 6.869 15.312 15.312 15.312h92.153l-32.246 70.891h-39.373c-4.142 0-7.5 3.358-7.5 7.5s3.358 7.5 7.5 7.5h305.727c4.143 0 7.5-3.358 7.5-7.5s-3.357-7.5-7.5-7.5h-39.377l-32.246-70.891h92.156c8.442 0 15.312-6.869 15.312-15.312v-25.292c0-.032.005-.064.005-.097v-66.677h55.379v17.178c0 6.904 5.616 12.521 12.521 12.521h54.158c6.904 0 12.521-5.617 12.521-12.521v-51.234c0-4.142-3.357-7.5-7.5-7.5s-7.5 3.358-7.5 7.5v48.755h-49.199v-17.178c0-6.904-5.616-12.521-12.521-12.521-8.18 0-91.218 0-103.72 0-6.904 0-12.521 5.617-12.521 12.521v17.178h-49.199c0-16.664 0-266.58 0-282.497h49.199v17.178c0 6.903 5.616 12.52 12.521 12.52h103.72c6.904 0 12.521-5.617 12.521-12.52v-17.177h49.197v198.6c0 4.142 3.357 7.5 7.5 7.5zm-361.198 239.966 17.788-36.929c.389-.811 1.194-1.315 2.103-1.315h51.037c.902 0 1.704.504 2.099 1.328l17.782 36.917h-90.809zm142.414 0h-34.955l-20.911-43.413c-2.863-5.972-8.994-9.831-15.619-9.831h-51.037c-6.631 0-12.766 3.859-15.623 9.818l-20.918 43.426h-34.955l32.246-70.891h129.526zm76.701-86.203c0 .172-.14.312-.312.312h-346.793c-.172 0-.312-.14-.312-.312v-23.503h347.417z"/><path d="m445.769 92.072c0-6.904-5.616-12.521-12.52-12.521h-99.656c-6.904 0-12.521 5.617-12.521 12.521v57.441c0 6.904 5.616 12.521 12.521 12.521h99.656c6.903 0 12.52-5.617 12.52-12.521zm-15 54.961h-94.696v-52.482h94.696z"/><path d="m433.249 186.397h-99.656c-6.904 0-12.521 5.617-12.521 12.521v57.441c0 6.903 5.616 12.52 12.521 12.52h99.656c6.903 0 12.52-5.617 12.52-12.52v-57.441c0-6.904-5.617-12.521-12.52-12.521zm-2.48 67.482h-94.696v-52.481h94.696z"/><path d="m479.9 60.93c0-4.142-3.357-7.5-7.5-7.5s-7.5 3.358-7.5 7.5v2.876c0 4.142 3.357 7.5 7.5 7.5s7.5-3.358 7.5-7.5z"/><path d="m479.9 105.669c0-4.142-3.357-7.5-7.5-7.5s-7.5 3.358-7.5 7.5v2.876c0 4.142 3.357 7.5 7.5 7.5s7.5-3.358 7.5-7.5z"/><path d="m479.9 150.408c0-4.142-3.357-7.5-7.5-7.5s-7.5 3.358-7.5 7.5v2.876c0 4.142 3.357 7.5 7.5 7.5s7.5-3.358 7.5-7.5z"/><path d="m479.9 195.146c0-4.142-3.357-7.5-7.5-7.5s-7.5 3.358-7.5 7.5v2.876c0 4.142 3.357 7.5 7.5 7.5s7.5-3.358 7.5-7.5z"/><path d="m479.9 239.885c0-4.142-3.357-7.5-7.5-7.5s-7.5 3.358-7.5 7.5v2.876c0 4.142 3.357 7.5 7.5 7.5s7.5-3.358 7.5-7.5z"/><path d="m472.4 277.124c-4.143 0-7.5 3.358-7.5 7.5v2.876c0 4.142 3.357 7.5 7.5 7.5s7.5-3.358 7.5-7.5v-2.876c0-4.142-3.357-7.5-7.5-7.5z"/><path d="m301.94 60.93c0-4.142-3.357-7.5-7.5-7.5s-7.5 3.358-7.5 7.5v2.876c0 4.142 3.357 7.5 7.5 7.5s7.5-3.358 7.5-7.5z"/><path d="m301.94 105.669c0-4.142-3.357-7.5-7.5-7.5s-7.5 3.358-7.5 7.5v2.876c0 4.142 3.357 7.5 7.5 7.5s7.5-3.358 7.5-7.5z"/><path d="m301.94 150.408c0-4.142-3.357-7.5-7.5-7.5s-7.5 3.358-7.5 7.5v2.876c0 4.142 3.357 7.5 7.5 7.5s7.5-3.358 7.5-7.5z"/><path d="m301.94 195.146c0-4.142-3.357-7.5-7.5-7.5s-7.5 3.358-7.5 7.5v2.876c0 4.142 3.357 7.5 7.5 7.5s7.5-3.358 7.5-7.5z"/><path d="m301.94 239.885c0-4.142-3.357-7.5-7.5-7.5s-7.5 3.358-7.5 7.5v2.876c0 4.142 3.357 7.5 7.5 7.5s7.5-3.358 7.5-7.5z"/><path d="m294.44 277.124c-4.143 0-7.5 3.358-7.5 7.5v2.876c0 4.142 3.357 7.5 7.5 7.5s7.5-3.358 7.5-7.5v-2.876c0-4.142-3.357-7.5-7.5-7.5z"/></g></g></svg>