<svg id="Capa_1" enable-background="new 0 0 512 512" height="512" viewBox="0 0 512 512" width="512" xmlns="http://www.w3.org/2000/svg"><g><g><g><path d="m312.998 504.5h51.008l-42.55-93.527h-130.913l-42.55 93.527h51.008l22.825-47.388c1.63-3.384 5.054-5.535 8.81-5.535h50.726c3.756 0 7.18 2.151 8.81 5.535z" fill="#9ec8fc"/><path d="m496.342 374.245h-480.684v-303.46c0-5.722 4.639-10.361 10.361-10.361h459.961c5.722 0 10.361 4.639 10.361 10.361v303.46z" fill="#6cbff8"/><path d="m496.342 374.245h-480.684v33.672c0 5.722 4.639 10.361 10.361 10.361h459.961c5.722 0 10.361-4.639 10.361-10.361v-33.672z" fill="#ddebfd"/><path d="m485.98 60.424h-30c5.722 0 10.361 4.639 10.361 10.361v303.46h30v-303.46c.001-5.722-4.638-10.361-10.361-10.361z" fill="#5fa7ee"/><path d="m466.342 374.245v33.672c0 5.722-4.639 10.361-10.361 10.361h30c5.722 0 10.361-4.639 10.361-10.361v-33.672z" fill="#bed9fd"/><path d="m91.453 17.5v356.745h329.093v-356.745c0-5.523-4.477-10-10-10h-309.093c-5.522 0-10 4.477-10 10z" fill="#407194"/><path d="m410.547 7.5h-30c5.523 0 10 4.477 10 10v356.745h30v-356.745c0-5.523-4.477-10-10-10z" fill="#365f7e"/><path d="m410.547 7.5h-309.094c-5.523 0-10 4.477-10 10v79.965h329.093v-79.965c.001-5.523-4.476-10-9.999-10z" fill="#ddebfd"/><path d="m410.547 7.5h-30c5.523 0 10 4.477 10 10v79.965h30v-79.965c0-5.523-4.477-10-10-10z" fill="#bed9fd"/><ellipse cx="139.818" cy="52.482" fill="#9cd169" rx="16.173" ry="16.173" transform="matrix(.16 -.987 .987 .16 65.617 182.088)"/><ellipse cx="199.764" cy="52.482" fill="#5392f9" rx="16.173" ry="16.173" transform="matrix(.16 -.987 .987 .16 115.961 241.261)"/><ellipse cx="259.71" cy="52.482" fill="#db387e" rx="16.173" ry="16.173" transform="matrix(.16 -.987 .987 .16 166.305 300.433)"/><path d="m138.838 160.268v52.779c0 4.418 3.582 8 8 8h218.325c4.418 0 8-3.582 8-8v-52.779c0-4.418-3.582-8-8-8h-218.325c-4.419 0-8 3.582-8 8z" fill="#9ec8fc"/><path d="m138.838 273.257v48.779c0 5.523 4.477 10 10 10h74.67c5.523 0 10-4.477 10-10v-48.779c0-5.523-4.477-10-10-10h-74.67c-5.523 0-10 4.477-10 10z" fill="#bed9fd"/></g></g><g><path d="m503.84 70.79c0-9.854-8.012-17.87-17.859-17.87h-57.934v-35.42c0-9.649-7.851-17.5-17.5-17.5h-309.094c-9.649 0-17.5 7.851-17.5 17.5v35.42h-57.933c-9.848 0-17.859 8.017-17.859 17.87v46.3c0 4.142 3.357 7.5 7.5 7.5s7.5-3.358 7.5-7.5v-46.3c0-1.583 1.282-2.87 2.859-2.87h57.934v298.825h-60.794v-214.655c0-4.142-3.357-7.5-7.5-7.5s-7.5 3.358-7.5 7.5c0 7.007-.002 248.142-.002 255.827 0 9.849 8.013 17.862 17.861 17.862h149.54l-32.397 71.221h-39.102c-4.143 0-7.5 3.358-7.5 7.5s3.357 7.5 7.5 7.5h303.879c4.143 0 7.5-3.358 7.5-7.5s-3.357-7.5-7.5-7.5h-39.102l-32.397-71.222h78.171c4.143 0 7.5-3.358 7.5-7.5s-3.357-7.5-7.5-7.5h-388.591c-1.578 0-2.861-1.284-2.861-2.862v-26.171h465.684v26.171c0 1.578-1.283 2.862-2.861 2.862h-36.369c-4.143 0-7.5 3.358-7.5 7.5s3.357 7.5 7.5 7.5h36.369c9.849 0 17.861-8.013 17.861-17.862-.001-8.703-.003-329.298-.003-337.126zm-292.902 426.21 17.648-36.632c.383-.794 1.17-1.288 2.054-1.288h50.721c.884 0 1.671.493 2.053 1.285l17.648 36.635zm141.42 0h-34.647l-20.786-43.148c-2.863-5.936-8.973-9.772-15.565-9.772h-50.72c-6.593 0-12.702 3.836-15.566 9.775l-20.786 43.145h-34.647l32.397-71.222h127.922zm133.622-429.08c1.577 0 2.859 1.288 2.859 2.87v295.955h-60.793v-298.825zm-384.527-52.92h309.094c1.379 0 2.5 1.122 2.5 2.5v72.465h-314.094v-72.465c0-1.378 1.121-2.5 2.5-2.5zm-2.5 351.745v-261.78h314.094v261.78z"/><path d="m139.818 76.155c13.054 0 23.673-10.62 23.673-23.673s-10.619-23.672-23.673-23.672-23.673 10.62-23.673 23.673 10.62 23.672 23.673 23.672zm0-32.345c4.782 0 8.673 3.891 8.673 8.673s-3.891 8.673-8.673 8.673-8.673-3.891-8.673-8.673 3.891-8.673 8.673-8.673z"/><path d="m199.765 76.155c13.054 0 23.673-10.62 23.673-23.673s-10.62-23.672-23.673-23.672-23.673 10.62-23.673 23.673 10.619 23.672 23.673 23.672zm0-32.345c4.782 0 8.673 3.891 8.673 8.673s-3.891 8.673-8.673 8.673-8.673-3.891-8.673-8.673 3.89-8.673 8.673-8.673z"/><path d="m259.711 76.155c13.054 0 23.673-10.62 23.673-23.673s-10.619-23.672-23.673-23.672-23.673 10.62-23.673 23.673 10.619 23.672 23.673 23.672zm0-32.345c4.782 0 8.673 3.891 8.673 8.673s-3.891 8.673-8.673 8.673-8.673-3.891-8.673-8.673 3.891-8.673 8.673-8.673z"/><path d="m365.162 144.769h-218.324c-8.547 0-15.5 6.953-15.5 15.5v52.778c0 8.547 6.953 15.5 15.5 15.5h218.324c8.547 0 15.5-6.953 15.5-15.5v-52.778c0-8.547-6.953-15.5-15.5-15.5zm.5 68.278c0 .276-.225.5-.5.5h-218.324c-.275 0-.5-.224-.5-.5v-52.778c0-.276.225-.5.5-.5h218.324c.275 0 .5.224.5.5z"/><path d="m223.507 255.757h-74.669c-9.873 0-17.5 8.151-17.5 17.5v48.778c0 9.622 7.871 17.5 17.5 17.5h74.669c9.637 0 17.5-7.883 17.5-17.5v-48.778c0-9.069-7.405-17.5-17.5-17.5zm-77.169 22.223 27.076 19.67-27.076 19.67zm15.578-7.223h48.517l-24.259 17.623zm24.259 36.163 24.247 17.615h-48.494zm12.761-9.27 27.071-19.666v39.333z"/><path d="m270.327 283.471h52.368c4.143 0 7.5-3.358 7.5-7.5s-3.357-7.5-7.5-7.5h-52.368c-4.143 0-7.5 3.358-7.5 7.5s3.358 7.5 7.5 7.5z"/><path d="m373.162 311.821h-102.835c-4.143 0-7.5 3.358-7.5 7.5s3.357 7.5 7.5 7.5h102.835c4.143 0 7.5-3.358 7.5-7.5s-3.357-7.5-7.5-7.5z"/></g></g></svg>