<svg id="Capa_1" enable-background="new 0 0 512 512" height="512" viewBox="0 0 512 512" width="512" xmlns="http://www.w3.org/2000/svg"><g><g><g><path d="m7.5 164.39v261.333c0 5.523 4.477 10 10 10h477c5.523 0 10-4.477 10-10v-261.333c0-5.523-4.477-10-10-10h-477c-5.523 0-10 4.477-10 10z" fill="#ddebfd"/><path d="m494.5 154.39h-30c5.523 0 10 4.477 10 10v261.333c0 5.523-4.477 10-10 10h30c5.523 0 10-4.477 10-10v-261.333c0-5.523-4.477-10-10-10z" fill="#bed9fd"/><g><g><path d="m193.427 252.175c-34.489 30.667-50.492 59.707-10.165 92.036h28.902c40.327-32.329 24.324-61.368-10.165-92.036-2.439-2.169-6.133-2.169-8.572 0z" fill="#407194"/><path d="m178.545 374.442v108.637c0 2.761 2.239 5 5 5h28.336c2.761 0 5-2.239 5-5v-108.637z" fill="#eec06b"/><path d="m167.22 373.397v-35.47c0-3.526 2.858-6.384 6.385-6.384h48.217c3.526 0 6.384 2.858 6.384 6.384v35.47c0 3.526-2.858 6.384-6.384 6.384h-48.217c-3.527 0-6.385-2.858-6.385-6.384z" fill="#db387e"/></g><g><path d="m42.142 350.395c0 37.071-.002 112.596-.003 132.684 0 2.761 2.239 5 5 5h61.112c2.761 0 5-2.232 5-4.993 0-19.546.001-91.798.001-132.69 0-15.309-18.087-66.684-28.461-94.894-2.429-6.606-11.765-6.606-14.194 0-10.373 28.209-28.455 79.584-28.455 94.893z" fill="#5392f9"/><path d="m84.795 255.507c3.673 9.959 8.299 22.815 12.749 35.943 8.144 24.053 15.709 49.037 15.709 58.944v3.225c-7.724 11.376-20.768 18.858-35.554 18.858-14.787 0-27.832-7.482-35.556-18.858v-3.225c0-9.907 7.568-34.891 15.712-58.944 4.45-13.128 9.079-25.984 12.742-35.943 2.433-6.611 11.773-6.611 14.198 0z" fill="#eec06b"/><path d="m70.596 255.507c-4.708 12.803-11 30.372-16.473 47.179h47.146c-5.473-16.806-11.766-34.376-16.474-47.179-2.43-6.608-11.769-6.608-14.199 0z" fill="#407194"/></g></g><path d="m194.169 123.688c0-31.304-26.098-56.511-57.723-55.053-28.394 1.309-51.368 24.473-52.463 52.876-.742 19.258 8.407 36.415 22.769 46.821 4.173 3.024 6.745 7.776 6.745 12.93v26.512h51.115v-26.505c0-5.019 2.348-9.795 6.433-12.711 13.996-9.994 23.124-26.362 23.124-44.87z" fill="#eec06b"/><path d="m136.447 68.635c-3.906.18-7.704.787-11.361 1.751 23.641 6.207 41.084 27.713 41.084 53.302 0 18.508-9.128 34.876-23.123 44.868-4.085 2.917-6.433 7.692-6.433 12.711v26.505h28v-26.505c0-5.019 2.348-9.794 6.433-12.711 13.995-9.993 23.123-26.361 23.123-44.868-.001-31.304-26.099-56.511-57.723-55.053z" fill="#e9a761"/><path d="m104.833 196.08v29.873c0 2.117 1.716 3.834 3.834 3.834h60.777c2.117 0 3.834-1.716 3.834-3.834v-29.873c0-2.117-1.716-3.834-3.834-3.834h-60.777c-2.117 0-3.834 1.716-3.834 3.834z" fill="#5392f9"/><path d="m169.444 192.246h-28c2.117 0 3.833 1.716 3.833 3.833v29.873c0 2.117-1.716 3.834-3.833 3.834h28c2.117 0 3.833-1.717 3.833-3.834v-29.872c.001-2.118-1.715-3.834-3.833-3.834z" fill="#4071f7"/><path d="m469.622 173.796h-82.723v-91.374h82.723c6.415 0 9.923 7.479 5.82 12.412l-25.278 30.391c-1.39 1.671-1.39 4.097 0 5.768l25.278 30.391c4.102 4.932.595 12.412-5.82 12.412z" fill="#db387e"/><circle cx="386.898" cy="255.435" fill="#5392f9" r="20.888"/></g></g><g><path d="m494.5 146.889h-21.358l-15.621-18.781 23.688-28.479c3.778-4.542 4.567-10.687 2.059-16.037-2.509-5.349-7.736-8.672-13.645-8.672h-82.724c-4.143 0-7.5 3.358-7.5 7.5v64.469h-182.215c2.92-7.296 4.486-15.159 4.486-23.2 0-35.439-29.455-64.2-65.565-62.552-32.184 1.485-58.371 27.876-59.618 60.084-.343 8.922 1.214 17.642 4.416 25.668h-63.403c-9.649 0-17.5 7.851-17.5 17.5v46.63c0 4.142 3.357 7.5 7.5 7.5s7.5-3.358 7.5-7.5v-46.63c0-1.378 1.121-2.5 2.5-2.5h71.955c3.627 4.704 7.948 8.93 12.894 12.512 2.32 1.683 3.651 4.182 3.651 6.858v3.816c-4.965 1.204-8.667 5.674-8.667 11.004v29.873c0 6.25 5.084 11.333 11.334 11.333h60.777c6.25 0 11.334-5.084 11.334-11.333v-29.873c0-5.33-3.703-9.801-8.668-11.004v-3.806c0-2.667 1.229-5.134 3.301-6.608 5.069-3.623 9.505-7.942 13.221-12.771h190.766v66.172c-12.024 3.298-20.888 14.317-20.888 27.374 0 15.653 12.734 28.388 28.388 28.388s28.388-12.735 28.388-28.388c0-13.056-8.863-24.075-20.888-27.374v-46.766h75.224c5.908 0 11.137-3.323 13.645-8.672 1.624-3.462 1.858-7.255.802-10.733h10.431c1.379 0 2.5 1.122 2.5 2.5v261.33c0 1.378-1.121 2.5-2.5 2.5h-46.3c-4.143 0-7.5 3.358-7.5 7.5s3.357 7.5 7.5 7.5h46.3c9.649 0 17.5-7.851 17.5-17.5v-261.33c0-9.651-7.851-17.502-17.5-17.502zm-328.722 75.397h-53.445v-22.541h1.09c.026 0 .051.004.077.004s.051-.004.077-.004h50.956c.026 0 .051.004.077.004s.051-.004.077-.004h1.091zm.923-59.838c-6.005 4.273-9.591 11.309-9.591 18.821v3.476h-36.11v-3.486c0-7.429-3.682-14.533-9.851-19.004-12.934-9.366-20.288-24.491-19.675-40.456.948-24.485 20.855-44.55 45.319-45.678 27.451-1.259 49.876 20.593 49.876 47.568.001 15.332-7.469 29.825-19.968 38.759zm233.585 92.987c0 7.382-6.006 13.388-13.388 13.388s-13.388-6.006-13.388-13.388c0-7.381 6.006-13.387 13.388-13.387s13.388 6.005 13.388 13.387zm69.41-89.146s-.022.005-.074.005h-75.224v-11.867c0-.013.002-.025.002-.039s-.002-.026-.002-.039v-64.44h75.247c.026.024.061.086.031.128l-25.279 30.392c-3.7 4.45-3.7 10.908.001 15.359l19.302 23.182c.106.138.218.271.333.401l5.673 6.813c0 .036-.031.105-.01.105z"/><path d="m413.2 428.219h-188.82v-41.186c6.437-1.205 11.326-6.857 11.326-13.638v-35.47c0-2.125-.494-4.131-1.35-5.933 9.493-13.57 11.583-27.896 6.167-42.669-4.798-13.089-15.455-26.673-33.539-42.75-5.285-4.698-13.254-4.698-18.537 0-18.085 16.078-28.744 29.662-33.544 42.749-5.419 14.776-3.33 29.104 6.165 42.675-.855 1.801-1.348 3.805-1.348 5.928v35.47c0 6.779 4.886 12.43 11.32 13.637v41.186h-50.288v-13.295c0-4.143-3.357-7.5-7.5-7.5-4.142 0-7.5 3.358-7.5 7.5v20.747c0 .016-.002.032-.002.048s.002.032.002.048v44.81h-20.553v-101.182c7.403-1.112 14.41-3.846 20.554-7.962v8.491c0 4.142 3.357 7.5 7.5 7.5s7.5-3.358 7.5-7.5v-26.271c0-.008 0-.015 0-.023v-3.237c0-15.567-15.728-61.604-28.922-97.481-2.203-5.993-7.752-9.866-14.135-9.867-6.384 0-11.933 3.873-14.137 9.866-13.191 35.871-28.917 81.901-28.917 97.482v77.826h-17.142c-1.379 0-2.5-1.122-2.5-2.5v-179.7c0-4.142-3.357-7.5-7.5-7.5s-7.5 3.358-7.5 7.5v179.7c0 9.649 7.851 17.5 17.5 17.5h17.141v39.865c0 6.889 5.606 12.493 12.499 12.493h61.112c6.893 0 12.5-5.604 12.5-12.494v-39.864h50.288v39.86c0 6.893 5.607 12.5 12.5 12.5h28.34c6.893 0 12.5-5.607 12.5-12.5v-39.86h188.82c4.143 0 7.5-3.358 7.5-7.5s-3.357-7.499-7.5-7.499zm-363.559-77.03v-.796c0-5.892 3.545-20.038 9.954-40.208h36.2c6.411 20.176 9.958 34.322 9.958 40.208v.798c-14.202 18.372-41.912 18.369-56.112-.002zm27.996-93.1c.006-.018.013-.032.017-.043.037-.008.074-.017.062-.043.007.012.021.039.038.085 4.968 13.509 9.367 25.958 13.123 37.097h-26.363c3.756-11.139 8.155-23.588 13.123-37.096zm-27.996 113.342c6.145 4.116 13.153 6.851 20.558 7.963v101.183h-20.558zm125.079.849v-33.239h45.986v33.239c-10.158 0-36.068 0-45.986 0zm22.995-113.873c30.856 27.616 37.852 46.447 23.903 65.634h-47.815c-13.946-19.184-6.948-38.014 23.912-65.634zm11.665 222.172h-23.34v-93.299h23.34z"/><path d="m139.056 49.019c4.143 0 7.5-3.358 7.5-7.5v-17.598c0-4.142-3.357-7.5-7.5-7.5s-7.5 3.358-7.5 7.5v17.598c0 4.142 3.357 7.5 7.5 7.5z"/><path d="m85.03 61.975c2.929 2.928 7.677 2.93 10.606 0 2.93-2.929 2.93-7.678.001-10.607l-12.556-12.557c-2.93-2.928-7.679-2.929-10.606 0-2.93 2.929-2.93 7.678-.001 10.607z"/><path d="m193.081 61.975 12.557-12.558c2.929-2.929 2.929-7.678-.001-10.607-2.928-2.929-7.677-2.928-10.606 0l-12.557 12.558c-2.929 2.929-2.929 7.678.001 10.607 2.927 2.929 7.676 2.928 10.606 0z"/><path d="m274.952 260.507h-17.952c-4.143 0-7.5 3.358-7.5 7.5s3.357 7.5 7.5 7.5h17.952c7.407 0 13.434 6.026 13.434 13.433v70.563c0 29.228 23.778 53.006 53.006 53.006 29.229 0 53.007-23.778 53.007-53.006v-29.876l12.976 9.856c1.356 1.03 2.95 1.529 4.531 1.528 2.265 0 4.503-1.021 5.979-2.964 2.505-3.298 1.862-8.003-1.436-10.509l-25.013-19c-1.334-1.015-3-1.528-4.537-1.528-.001 0-.001 0-.002 0-1.512.001-3.151.485-4.533 1.528l-25.014 19c-3.299 2.505-3.941 7.21-1.437 10.509s7.212 3.943 10.509 1.436l12.978-9.857v29.877c0 20.957-17.05 38.006-38.007 38.006-20.956 0-38.006-17.05-38.006-38.006v-70.563c-.001-15.678-12.756-28.433-28.435-28.433z"/></g></g></svg>