<svg id="Capa_1" enable-background="new 0 0 512 512" height="512" viewBox="0 0 512 512" width="512" xmlns="http://www.w3.org/2000/svg"><g><g><g><path d="m238.145 467.544h49.617l-41.389-90.975h-127.344l-41.389 90.975h49.617l22.203-46.095c1.586-3.292 4.916-5.384 8.57-5.384h49.342c3.654 0 6.984 2.093 8.57 5.384z" fill="#9ec8fc"/><path d="m357.902 352.402h-350.402v-221.212c0-4.171 3.382-7.553 7.553-7.553h335.295c4.171 0 7.553 3.382 7.553 7.553v221.212z" fill="#6cbff8"/><path d="m350.349 123.637h-31c4.171 0 7.553 3.382 7.553 7.553v221.212h31v-221.212c0-4.171-3.382-7.553-7.553-7.553z" fill="#5fa7ee"/><path d="m357.902 346.973h-350.402v29.975c0 4.171 3.382 7.553 7.553 7.553h335.295c4.171 0 7.553-3.382 7.553-7.553v-29.975z" fill="#ddebfd"/><path d="m326.902 346.973v29.975c0 4.172-3.382 7.553-7.553 7.553h31c4.171 0 7.553-3.382 7.553-7.553v-29.975z" fill="#bed9fd"/><g><path d="m182.701 210.21c-33.71 0-63.617 14.646-82.404 37.268-2.722 3.277-2.722 8.061 0 11.338 18.787 22.622 48.694 37.268 82.404 37.268s63.617-14.646 82.404-37.268c2.722-3.277 2.722-8.061 0-11.338-18.788-22.622-48.694-37.268-82.404-37.268z" fill="#ddebfd"/><path d="m168.016 211.158c-17.349 6.067-29.797 22.57-29.797 41.989s12.449 35.922 29.797 41.989c4.797.62 9.698.948 14.685.948s9.888-.328 14.685-.948c17.349-6.067 29.797-22.57 29.797-41.989s-12.448-35.922-29.797-41.989c-4.797-.62-9.698-.948-14.685-.948s-9.888.328-14.685.948z" fill="#407194"/></g><g><path d="m305.508 267.178c-3.069 52.335 7.402 88.514 65.761 82.09l23.215-23.215c6.424-58.359-29.755-68.83-82.09-65.761-3.702.218-6.669 3.185-6.886 6.886z" fill="#407194"/><path d="m388.686 374.372 70.557 70.557c1.953 1.953 5.118 1.953 7.071 0l23.83-23.83c1.953-1.953 1.953-5.118 0-7.071l-70.557-70.557z" fill="#db387e"/><path d="m384.847 388.618-31.512-31.512c-2.832-2.832-2.832-7.424 0-10.256l38.729-38.729c2.832-2.832 7.424-2.832 10.256 0l31.512 31.512c2.832 2.832 2.832 7.424 0 10.256l-38.729 38.729c-2.831 2.832-7.423 2.832-10.256 0z" fill="#5392f9"/></g><path d="m485.815 44.456h-147.44c-10.319 0-18.685 8.366-18.685 18.685v105.289c0 7.388 4.293 13.761 10.518 16.787 3.128 1.521 5.202 4.594 5.202 8.072v23.483c0 5.326 6.527 7.893 10.155 3.994l26.66-28.649c2.969-3.19 7.131-5.003 11.489-5.003h102.102c10.32 0 18.685-8.366 18.685-18.685v-105.288c-.001-10.319-8.367-18.685-18.686-18.685z" fill="#eec06b"/><path d="m485.815 44.456h-27c10.32 0 18.685 8.366 18.685 18.685v105.289c0 10.32-8.366 18.685-18.685 18.685h27c10.32 0 18.685-8.366 18.685-18.685v-105.289c0-10.319-8.366-18.685-18.685-18.685z" fill="#e9a761"/></g></g><g><path d="m94.527 242.686c-5.034 6.062-5.034 14.861 0 20.923 21.099 25.405 53.237 39.976 88.173 39.976s67.074-14.57 88.174-39.976c5.034-6.062 5.034-14.861 0-20.923-21.098-25.405-53.236-39.976-88.173-39.976s-67.075 14.57-88.174 39.976zm164.807 9.584c.416.5.416 1.255 0 1.755-8.522 10.261-19.16 18.476-31.183 24.319 8.607-15.507 8.807-34.524.001-50.393 12.023 5.842 22.661 14.058 31.182 24.319zm-63.773-33.791c32.088 11.903 32.071 57.443-.004 69.337-8.588 1.024-17.122 1.024-25.712 0-32.062-11.89-32.102-57.43-.004-69.337 8.593-1.025 17.127-1.025 25.72 0zm-89.494 33.791c8.522-10.261 19.159-18.476 31.182-24.319-8.622 15.537-8.79 34.553.001 50.393-12.022-5.843-22.66-14.058-31.182-24.319-.417-.501-.417-1.255-.001-1.755z"/><path d="m190.201 179.851v-7.291c0-4.143-3.358-7.5-7.5-7.5s-7.5 3.357-7.5 7.5v7.291c0 4.143 3.358 7.5 7.5 7.5s7.5-3.358 7.5-7.5z"/><path d="m242.603 194.106 2.982-2.982c2.929-2.93 2.929-7.678 0-10.607-2.929-2.928-7.678-2.928-10.606 0l-2.982 2.982c-2.929 2.93-2.929 7.678 0 10.607s7.677 2.928 10.606 0z"/><path d="m133.406 194.106c2.929-2.93 2.929-7.678 0-10.607l-2.982-2.982c-2.929-2.928-7.678-2.928-10.606 0-2.929 2.93-2.929 7.678 0 10.607l2.982 2.982c2.929 2.929 7.677 2.928 10.606 0z"/><path d="m458.995 74.208h-93.799c-4.142 0-7.5 3.357-7.5 7.5s3.358 7.5 7.5 7.5h93.799c4.142 0 7.5-3.357 7.5-7.5s-3.358-7.5-7.5-7.5z"/><path d="m458.995 108.286h-93.799c-4.142 0-7.5 3.357-7.5 7.5s3.358 7.5 7.5 7.5h93.799c4.142 0 7.5-3.357 7.5-7.5s-3.358-7.5-7.5-7.5z"/><path d="m410.653 142.364h-45.458c-4.142 0-7.5 3.357-7.5 7.5s3.358 7.5 7.5 7.5h45.458c4.142 0 7.5-3.357 7.5-7.5s-3.358-7.5-7.5-7.5z"/><path d="m485.814 36.956h-147.44c-14.438 0-26.185 11.746-26.185 26.185v52.999h-297.139c-8.299 0-15.05 6.752-15.05 15.05v48.54c0 4.143 3.358 7.5 7.5 7.5s7.525-3.357 7.525-7.5v-48.59h297.165v37.29c0 10.096 5.647 19.113 14.739 23.533.474.23.98.7.98 1.327v23.482c0 5.531 3.326 10.412 8.473 12.437 4.824 1.896 10.209.884 14.018-2.698v27.275c-12.427-1.838-25.764-1.727-38.454-.984-7.511.446-13.497 6.444-13.923 13.938-1.527 25.987-.403 54.696 14.729 72.729h-297.752v-124.735c0-4.143-3.358-7.5-7.5-7.5s-7.5 3.357-7.5 7.5v162.216c0 8.299 6.751 15.05 15.05 15.05h88.718l-30.957 68.044h-37.905c-4.142 0-7.5 3.357-7.5 7.5s3.358 7.5 7.5 7.5h295.59c4.142 0 7.5-3.357 7.5-7.5s-3.358-7.5-7.5-7.5h-37.907l-30.957-68.044h88.718c7.414 0 13.579-5.395 14.811-12.462l14.383 14.383c5.258 5.257 13.532 5.764 19.375 1.285l9.988 9.988c2.929 2.928 7.678 2.929 10.606-.001 2.929-2.929 2.929-7.677 0-10.606l-9.886-9.885 20.293-20.293 53.148 53.157-20.293 20.294-18.522-18.522c-2.929-2.928-7.678-2.928-10.606 0-2.929 2.93-2.929 7.678 0 10.607l20.303 20.303c4.873 4.849 12.797 4.853 17.663-.013l23.815-23.816c4.941-4.914 4.878-12.852.015-17.689l-55.02-55.029c1.959-2.558 3.033-5.662 3.033-8.938 0-3.94-1.535-7.646-4.321-10.432l-31.512-31.513c-1.74-1.74-3.812-2.944-6.012-3.632-3.945-23.866-18.102-36.086-36.212-41.972v-46.754l12.314-13.233c1.545-1.66 3.731-2.612 5.999-2.612h102.102c14.439 0 26.186-11.747 26.186-26.186v-105.287c0-14.439-11.747-26.186-26.186-26.186zm-346.619 423.088 17.018-35.33c.339-.701 1.052-1.154 1.817-1.154h49.34c.767 0 1.477.446 1.813 1.146l17.022 35.339h-87.01zm136.915 0h-33.256l-20.153-41.841c-2.813-5.858-8.831-9.644-15.331-9.644h-49.34c-6.482 0-12.497 3.779-15.327 9.636l-20.157 41.849h-33.256l30.957-68.044h124.905zm74.24-83.069h-335.35v-22.505h321.035c2.616.794 5.402 1.442 8.367 1.932.688 2.198 1.891 4.269 3.63 6.007l2.318 2.358zm78.004-32.214-38.379 38.378-31.161-31.161 38.378-38.379zm-41.398-42.121c-.063.061-.132.114-.195.176l-38.729 38.729c-.064.064-.118.135-.18.2-14.172-2.108-23.431-8.692-28.913-20.522-5.492-11.851-7.384-28.836-5.95-53.456 16.745-.973 38.337-1.056 53.453 5.952 11.828 5.484 18.409 14.745 20.514 28.921zm110.044-134.21c0 6.168-5.018 11.186-11.186 11.186h-102.102c-6.417 0-12.606 2.694-16.979 7.394l-23.824 25.602v-19.32c0-6.314-3.611-11.992-9.423-14.817-3.884-1.889-6.297-5.736-6.297-10.043v-105.291c0-6.167 5.017-11.185 11.185-11.185h147.44c6.168 0 11.186 5.018 11.186 11.186z"/></g></g></svg>