<svg id="Capa_1" enable-background="new 0 0 512 512" height="512" viewBox="0 0 512 512" width="512" xmlns="http://www.w3.org/2000/svg"><g><g><g><path d="m7.5 420.496v-290.978c0-5.593 4.534-10.127 10.127-10.127h229.726c5.593 0 10.127 4.534 10.127 10.127v290.978c0 5.593-4.534 10.127-10.127 10.127h-229.726c-5.593 0-10.127-4.534-10.127-10.127z" fill="#9cd169"/><path d="m247.353 119.391h-28c5.593 0 10.127 4.534 10.127 10.127v290.979c0 5.593-4.534 10.127-10.127 10.127h28c5.593 0 10.127-4.534 10.127-10.127v-290.979c-.001-5.593-4.535-10.127-10.127-10.127z" fill="#68b181"/><path d="m456.154 81.377h-116.28c-26.701 0-48.346 21.645-48.346 48.346 0 21.722 14.328 40.095 34.047 46.192 2.611.807 4.36 3.262 4.36 5.995v35.327c0 4.079 4.76 6.303 7.877 3.672 11.451-9.67 33.059-27.398 48.926-40.37 1.959-1.601 4.402-2.469 6.932-2.469h62.484c26.701 0 48.346-21.645 48.346-48.346s-21.645-48.347-48.346-48.347z" fill="#ddebfd"/><path d="m456.154 81.377h-28c26.701 0 48.346 21.646 48.346 48.346s-21.645 48.346-48.346 48.346h28c26.701 0 48.346-21.646 48.346-48.346 0-26.701-21.645-48.346-48.346-48.346z" fill="#bed9fd"/><path d="m211.908 395.179h-158.837c-5.593 0-10.127-4.534-10.127-10.127v-255.534c0-5.593 4.534-10.127 10.127-10.127h158.837c5.593 0 10.127 4.534 10.127 10.127v255.534c0 5.593-4.534 10.127-10.127 10.127z" fill="#ddebfd"/><g><g><path d="m288.377 421.124c43.533 0 139.431.003 139.431.003v-72.015s-91.228-.001-139.431-.001c-15.502 0-67.522 18.313-96.091 28.82-6.692 2.461-6.692 11.918 0 14.379 28.569 10.506 80.589 28.814 96.091 28.814z" fill="#5392f9"/><path d="m192.286 377.93c10.086-3.72 23.104-8.405 36.399-12.911 24.358-8.247 49.66-15.909 59.692-15.909h3.265c11.52 7.822 19.098 21.031 19.098 36.005s-7.577 28.186-19.098 36.008h-3.265c-10.032 0-35.334-7.664-59.692-15.911-13.295-4.506-26.314-9.194-36.399-12.903-6.695-2.465-6.695-11.924 0-14.379z" fill="#eec06b"/><path d="m192.286 392.309c12.965 4.768 30.758 11.14 47.777 16.682v-47.744c-17.02 5.542-34.812 11.915-47.777 16.683-6.692 2.461-6.692 11.919 0 14.379z" fill="#407194"/></g></g><path d="m166.464 107.045c-2.522 0-4.791-1.485-5.844-3.776-5.45-11.856-17.426-20.09-31.33-20.09s-25.88 8.234-31.33 20.09c-1.053 2.291-3.323 3.776-5.844 3.776h-17.287c-3.281 0-5.941 2.66-5.941 5.941v17.49c0 3.281 2.66 5.941 5.941 5.941h108.921c3.281 0 5.941-2.66 5.941-5.941v-17.49c0-3.281-2.66-5.941-5.941-5.941z" fill="#5392f9"/><path d="m453.265 339.951h-19.94c-3.047 0-5.517 2.47-5.517 5.517v79.303c0 3.047 2.47 5.517 5.517 5.517h19.94c3.047 0 5.517-2.47 5.517-5.517v-79.303c-.001-3.047-2.471-5.517-5.517-5.517z" fill="#eec06b"/><path d="m480.268 417.274h-21.487v-64.309h21.487c7.859 0 14.23 6.371 14.23 14.23v35.849c0 7.859-6.371 14.23-14.23 14.23z" fill="#db387e"/></g></g><g><path d="m341.341 137.225h2.679c4.142 0 7.5-3.357 7.5-7.5s-3.358-7.5-7.5-7.5h-2.679c-4.142 0-7.5 3.357-7.5 7.5s3.358 7.5 7.5 7.5z"/><path d="m396.674 137.225h2.679c4.142 0 7.5-3.357 7.5-7.5s-3.358-7.5-7.5-7.5h-2.679c-4.142 0-7.5 3.357-7.5 7.5s3.358 7.5 7.5 7.5z"/><path d="m452.007 137.225h2.679c4.142 0 7.5-3.357 7.5-7.5s-3.358-7.5-7.5-7.5h-2.679c-4.142 0-7.5 3.357-7.5 7.5s3.358 7.5 7.5 7.5z"/><path d="m322.435 182.787v34.45c0 4.844 2.728 9.119 7.119 11.158 4.327 2.011 9.357 1.402 13.097-1.756 11.328-9.565 32.809-27.192 48.832-40.293.622-.508 1.378-.776 2.187-.776h62.484c30.793 0 55.846-25.053 55.846-55.846s-25.053-55.846-55.846-55.846h-116.28c-30.793 0-55.846 25.053-55.846 55.846 0 24.318 15.393 45.52 38.407 53.063zm17.439-93.908h116.28c22.522 0 40.846 18.323 40.846 40.846s-18.324 40.846-40.846 40.846h-62.484c-4.247 0-8.394 1.478-11.679 4.162-14.161 11.578-32.578 26.686-44.556 36.699v-29.521c0-6.087-3.875-11.376-9.645-13.16-17.204-5.319-28.763-21.003-28.763-39.026.001-22.523 18.324-40.846 40.847-40.846z"/><path d="m134.672 203.782c-11.848-.746-23.081 4.55-30.048 14.137-4.294 5.908-6.563 12.901-6.563 20.224 0 4.143 3.358 7.5 7.5 7.5s7.5-3.357 7.5-7.5c0-4.133 1.278-8.077 3.697-11.405 3.936-5.415 10.279-8.397 16.985-7.984 9.575.595 17.541 8.561 18.135 18.136.626 10.076-6.676 19.075-16.627 20.488-5.851.833-10.262 5.877-10.262 11.731v18.24c0 4.143 3.358 7.5 7.5 7.5s7.5-3.357 7.5-7.5v-15.6c16.284-3.634 27.912-18.854 26.861-35.79-1.072-17.272-14.906-31.105-32.178-32.177z"/><path d="m132.49 306.859c-4.142 0-7.5 3.357-7.5 7.5v2.025c0 4.143 3.358 7.5 7.5 7.5s7.5-3.357 7.5-7.5v-2.025c0-4.142-3.358-7.5-7.5-7.5z"/><path d="m480.269 345.466h-13.987c-.002-7.176-5.841-13.014-13.016-13.014h-19.939c-5.836 0-10.786 3.86-12.434 9.161h-132.516c-5.063 0-13.324 1.651-23.397 4.327v-216.419c0-9.721-7.909-17.63-17.63-17.63h-50.216c-.561-6.899-6.344-12.346-13.385-12.346h-16.593c-6.952-14.52-21.744-23.865-37.867-23.865s-30.915 9.346-37.867 23.865h-16.593c-7.041 0-12.825 5.446-13.385 12.346h-43.814c-9.721 0-17.63 7.909-17.63 17.63v106.54c0 4.143 3.358 7.5 7.5 7.5s7.5-3.357 7.5-7.5v-106.54c0-1.45 1.18-2.63 2.63-2.63h18.028c-.13.86-.218 1.734-.218 2.63v255.53c0 9.721 7.909 17.63 17.63 17.63h145.762c16.897 6.115 35.173 12.438 51.148 17.311v.509c0 1.444-1.18 2.619-2.63 2.619h-229.72c-1.45 0-2.63-1.175-2.63-2.619v-149.44c0-4.143-3.358-7.5-7.5-7.5s-7.5 3.357-7.5 7.5v149.44c0 9.715 7.909 17.619 17.63 17.619h229.72c8.453 0 15.53-5.979 17.233-13.927 10.249 2.737 18.661 4.431 23.794 4.431 14.234 0 67.743.001 71.631.001 4.142 0 7.5-3.356 7.5-7.499 0-4.142-3.357-7.501-7.5-7.501h-50.501c4.23-6.267 7.032-13.433 8.157-21.005h102.644v21.006h-25.3c-4.142 0-7.5 3.357-7.5 7.5 0 4.142 3.357 7.5 7.5 7.5h25.884c1.647 5.301 6.598 9.162 12.434 9.162h19.939c7.176 0 13.015-5.837 13.016-13.014h13.987c11.982 0 21.73-9.748 21.73-21.729v-35.85c.001-11.981-9.748-21.729-21.729-21.729zm-230.289-215.945v220.728c-6.513 1.988-13.41 4.216-20.44 6.573v-227.301c0-.896-.089-1.77-.218-2.63h18.028c1.45.001 2.63 1.18 2.63 2.63zm-55.106 255.75c-.05-.019-.081-.034-.092-.036-.023-.066-.023-.19-.024-.21 0 0 .032-.023.116-.055 13.729-5.049 26.377-9.517 37.689-13.329v26.96c-11.313-3.812-23.96-8.281-37.689-13.33zm-102.76-270.725c5.416 0 10.385-3.196 12.659-8.143 4.391-9.551 14.014-15.723 24.516-15.723s20.125 6.172 24.516 15.723c2.274 4.946 7.243 8.143 12.659 8.143h15.726v14.373h-105.802v-9.479c0-.016.002-.032.002-.048s-.002-.032-.002-.048v-4.797h15.726zm-41.674 270.506v-255.53c0-1.45 1.18-2.63 2.63-2.63h8.318v3.586c0 7.412 6.03 13.441 13.441 13.441h108.92c7.411 0 13.441-6.029 13.441-13.441v-3.586h14.72c1.45 0 2.63 1.18 2.63 2.63v232.445c-8.485 2.969-16.909 6.009-24.842 8.926-6.033 2.219-9.931 7.804-9.931 14.229 0 .872.078 1.725.217 2.56h-126.914c-1.45 0-2.63-1.18-2.63-2.63zm197.123 18.468v-36.797c35.668-11.337 41.015-10.002 41.653-10.11 8.82 6.806 14.024 17.303 14.024 28.505 0 11.203-5.204 21.702-14.024 28.508-.895-.153-5.319 1.441-41.653-10.106zm70.102-25.899c-1.125-7.573-3.927-14.74-8.157-21.008h110.8v21.008zm133.616 45.168h-15.973v-75.337h15.973zm35.718-19.743c0 3.711-3.019 6.729-6.73 6.729h-13.987v-49.31h13.987c3.711 0 6.73 3.02 6.73 6.73z"/></g></g></svg>