<svg id="Capa_1" enable-background="new 0 0 512 512" height="512" viewBox="0 0 512 512" width="512" xmlns="http://www.w3.org/2000/svg"><g><g><g><path d="m314.933 485.575h52.74l-43.994-96.701h-135.358l-43.994 96.701h52.74l23.6-48.997c1.685-3.499 5.226-5.723 9.109-5.723h52.447c3.884 0 7.424 2.224 9.109 5.723z" fill="#9ec8fc"/><path d="m504.5 350.899h-497v-313.761c0-5.917 4.796-10.713 10.713-10.713h475.574c5.917 0 10.713 4.796 10.713 10.713z" fill="#407194"/><path d="m504.5 350.899h-497v34.815c0 5.917 4.796 10.713 10.713 10.713h475.574c5.917 0 10.713-4.796 10.713-10.713z" fill="#ddebfd"/><path d="m493.787 26.425h-30c5.917 0 10.713 4.796 10.713 10.713v313.761h30v-313.761c0-5.917-4.796-10.713-10.713-10.713z" fill="#365f7e"/><path d="m474.5 350.899v34.814c0 5.917-4.796 10.713-10.713 10.713h30c5.917 0 10.713-4.796 10.713-10.713v-34.814z" fill="#bed9fd"/><g><path d="m251.207 182.903c-38.569 34.296-56.466 66.772-11.368 102.926h32.322c45.099-36.154 27.202-68.63-11.368-102.926-2.727-2.425-6.859-2.425-9.586 0z" fill="#ddebfd"/><path d="m234.564 299.307h42.872v51.592h-42.872z" fill="#6cbff8"/><g><path d="m221.899 303.468v-20.667c0-3.943 3.197-7.14 7.14-7.14h53.922c3.943 0 7.14 3.197 7.14 7.14v20.667c0 3.943-3.197 7.14-7.14 7.14h-53.922c-3.943 0-7.14-3.197-7.14-7.14z" fill="#de5791"/></g></g><g fill="#5392f9"><circle cx="381.288" cy="130.401" r="16.875"/><circle cx="130.712" cy="130.523" r="16.875"/></g><path d="m402.498 242.5h-31.559c-1.657 0-3 1.343-3 3v31.559c0 1.657 1.343 3 3 3h31.559c1.657 0 3-1.343 3-3v-31.559c0-1.657-1.343-3-3-3z" fill="#ddebfd"/><path d="m271.78 111.743h-31.56c-1.657 0-3 1.343-3 3v31.559c0 1.657 1.343 3 3 3h31.559c1.657 0 3-1.343 3-3v-31.559c.001-1.656-1.343-3-2.999-3z" fill="#de5791"/></g></g><g><path d="m493.787 18.925h-475.574c-10.043 0-18.213 8.17-18.213 18.213v43.985c0 4.143 3.357 7.5 7.5 7.5s7.5-3.357 7.5-7.5v-43.985c0-1.771 1.441-3.213 3.213-3.213h475.574c1.771 0 3.213 1.441 3.213 3.213v306.261h-212.06v-25.441c7.137-.971 12.66-7.09 12.66-14.49v-20.666c0-3.333-1.132-6.4-3.015-8.864 8.233-10.856 12.156-22.166 11.656-33.721-.837-19.373-13.318-38.778-40.467-62.92-5.573-4.958-13.978-4.96-19.549-.001-27.15 24.143-39.632 43.548-40.469 62.921-.5 11.555 3.424 22.865 11.656 33.721-1.883 2.464-3.015 5.53-3.015 8.864v20.666c0 7.399 5.523 13.518 12.66 14.49v25.441h-212.057v-227.276c0-4.143-3.357-7.5-7.5-7.5s-7.5 3.357-7.5 7.5v269.591c0 10.043 8.17 18.213 18.213 18.213h155.017l-33.726 74.148h-40.601c-4.143 0-7.5 3.357-7.5 7.5s3.357 7.5 7.5 7.5h314.193c4.143 0 7.5-3.357 7.5-7.5s-3.357-7.5-7.5-7.5h-40.601l-33.726-74.148h66.598c4.143 0 7.5-3.357 7.5-7.5s-3.357-7.5-7.5-7.5h-387.154c-1.771 0-3.213-1.441-3.213-3.213v-27.315h482v27.315c0 1.771-1.441 3.213-3.213 3.213h-53.419c-4.143 0-7.5 3.357-7.5 7.5s3.357 7.5 7.5 7.5h53.419c10.043 0 18.213-8.17 18.213-18.213v-348.576c0-10.043-8.17-18.213-18.213-18.213zm-284.778 459.15 18.423-38.25c.434-.903 1.333-1.465 2.349-1.465h52.439c1.016 0 1.915.562 2.354 1.474l18.418 38.241zm147.008 0h-36.377l-21.548-44.74c-2.908-6.06-9.138-9.975-15.872-9.975h-52.44c-6.734 0-12.964 3.915-15.867 9.965l-21.553 44.75h-36.377l33.726-74.148h132.581zm-126.618-174.968v-19.946h53.201v19.946zm-8.656-62.243c.565-13.068 9.439-27.586 27.754-45.242v36.18h-1.694c-4.143 0-7.5 3.357-7.5 7.5s3.357 7.5 7.5 7.5h18.395c4.143 0 7.5-3.357 7.5-7.5s-3.357-7.5-7.5-7.5h-1.7v-36.186c18.318 17.657 27.194 32.178 27.76 45.247.396 9.168-3.31 18.123-11.289 27.297h-47.935c-7.981-9.173-11.687-18.128-11.291-27.296zm21.317 77.243h27.881v25.291h-27.881z"/><path d="m271.779 104.243h-31.559c-5.79 0-10.5 4.71-10.5 10.5v8.367h-75.79c-3.144-9.827-12.362-16.963-23.219-16.963-13.44 0-24.375 10.935-24.375 24.375s10.935 24.375 24.375 24.375c10.791 0 19.962-7.052 23.159-16.787h75.849v8.192c0 5.79 4.71 10.5 10.5 10.5h31.559c5.79 0 10.5-4.71 10.5-10.5v-5.625c47.127 9.962 84.341 47.19 94.286 94.322h-5.626c-5.79 0-10.5 4.71-10.5 10.5v31.559c0 5.79 4.71 10.5 10.5 10.5h31.559c5.79 0 10.5-4.71 10.5-10.5v-31.558c0-5.79-4.71-10.5-10.5-10.5h-10.624c-7.918-42.374-35.403-77.978-72.677-97.03h38.912c3.182 9.745 12.37 16.807 23.181 16.807h.026c13.44-.016 24.363-10.963 24.348-24.403-.016-13.432-10.946-24.347-24.374-24.347h-.028c-11.05.012-20.097 7.325-23.18 16.943h-75.801v-8.227c-.001-5.79-4.711-10.5-10.501-10.5zm-141.067 35.654c-5.169 0-9.375-4.206-9.375-9.375s4.206-9.375 9.375-9.375 9.375 4.206 9.375 9.375-4.206 9.375-9.375 9.375zm267.286 132.662h-22.559v-22.559h22.559zm-130.719-130.756h-22.559v-22.56h22.559zm113.998-20.777h.012c5.164 0 9.368 4.198 9.374 9.364.006 5.169-4.2 9.383-9.369 9.386-5.166.003-9.377-4.177-9.383-9.314-.006-5.174 4.178-9.43 9.366-9.436z"/></g></g></svg>