<svg id="Capa_1" enable-background="new 0 0 512 512" height="512" viewBox="0 0 512 512" width="512" xmlns="http://www.w3.org/2000/svg"><g><g><g><g><path d="m115.89 323.723 90.014 90.014c27.668 27.668 72.526 27.668 100.193 0 27.668-27.668 27.668-72.526 0-100.193l-90.014-90.014z" fill="#bed9fd"/><path d="m199.658 239.954 90.014 90.014c24.869 24.869 27.37 63.621 7.531 91.299 3.114-2.232 6.096-4.733 8.894-7.531 27.668-27.668 27.668-72.526 0-100.193l-90.014-90.014z" fill="#bed9fd"/><path d="m90.104 238.249h141.694v60.683h-141.694z" fill="#e592b8" transform="matrix(.707 -.707 .707 .707 -142.781 192.478)"/><path d="m191.221 196.365h23.228v60.683h-23.228z" fill="#de5791" transform="matrix(.707 -.707 .707 .707 -100.897 209.827)"/><path d="m47.194 195.34h141.694v60.683h-141.694z" fill="#de5791" transform="matrix(.707 -.707 .707 .707 -125.007 149.569)"/><path d="m148.312 153.456h23.228v60.683h-23.228z" fill="#db387e" transform="matrix(.707 -.707 .707 .707 -83.123 166.918)"/><path d="m10.271 218.104 36.219 36.219 100.193-100.193-36.219-36.219c-3.695-3.695-9.686-3.695-13.381 0l-86.812 86.812c-3.695 3.696-3.695 9.686 0 13.381z" fill="#db387e"/><path d="m97.084 117.911-16.425 16.425c3.695-3.695 9.686-3.695 13.381 0l36.219 36.219 16.425-16.425-36.219-36.219c-3.696-3.695-9.686-3.695-13.381 0z" fill="#c4237c"/></g><path d="m295.917 223.53-90.014 90.014c-27.668 27.668-27.668 72.526 0 100.193 27.668 27.668 72.526 27.668 100.193 0l90.014-90.014z" fill="#ddebfd"/><path d="m379.686 307.298-90.014 90.014c-24.869 24.869-63.621 27.37-91.299 7.531 2.232 3.114 4.733 6.096 7.531 8.894 27.668 27.668 72.526 27.668 100.193 0l90.014-90.014z" fill="#bed9fd"/><path d="m320.708 197.744h60.683v141.694h-60.683z" fill="#bce097" transform="matrix(.707 -.707 .707 .707 -87.103 326.898)"/><path d="m362.592 298.861h60.683v23.228h-60.683z" fill="#95c9a6" transform="matrix(.707 -.707 .707 .707 -104.452 368.782)"/><path d="m363.617 154.834h60.683v141.694h-60.683z" fill="#acd980" transform="matrix(.707 -.707 .707 .707 -44.193 344.671)"/><path d="m405.501 255.952h60.683v23.228h-60.683z" fill="#7fbd93" transform="matrix(.707 -.707 .707 .707 -61.542 386.556)"/><path d="m401.536 117.911-36.219 36.219 100.193 100.193 36.219-36.219c3.695-3.695 3.695-9.686 0-13.381l-86.812-86.812c-3.696-3.695-9.686-3.695-13.381 0z" fill="#9cd169"/><path d="m501.729 204.724-16.425-16.425c3.695 3.695 3.695 9.686 0 13.381l-36.219 36.219 16.425 16.425 36.219-36.219c3.695-3.696 3.695-9.686 0-13.381z" fill="#68b181"/><g><path d="m185.153 236.341v127.299c0 39.128 31.719 70.847 70.847 70.847s70.847-31.719 70.847-70.847v-127.299z" fill="#ddebfd"/><path d="m303.619 236.341v127.299c0 35.171-25.633 64.34-59.233 69.884 3.781.624 7.657.964 11.614.964 39.128 0 70.847-31.719 70.847-70.847v-127.3z" fill="#bed9fd"/><path d="m185.153 198.879h141.694v60.683h-141.694z" fill="#9ec8fc"/><path d="m303.619 198.879h23.228v60.683h-23.228z" fill="#80b6fc"/><path d="m185.153 138.196h141.694v60.683h-141.694z" fill="#80b6fc"/><path d="m303.619 138.196h23.228v60.683h-23.228z" fill="#62a4fb"/><path d="m185.153 86.974v51.221h141.694v-51.221c0-5.226-4.236-9.462-9.462-9.462h-122.771c-5.225.001-9.461 4.237-9.461 9.462z" fill="#5392f9"/><path d="m317.386 77.513h-23.228c5.226 0 9.462 4.236 9.462 9.462v51.221h23.228v-51.222c-.001-5.225-4.237-9.461-9.462-9.461z" fill="#4071f7"/></g><ellipse cx="256" cy="363.64" fill="#9ec8fc" rx="20.228" ry="20.228" transform="matrix(.973 -.23 .23 .973 -76.699 68.545)"/></g></g><g><path d="m507.032 199.42-86.813-86.813c-6.613-6.612-17.375-6.612-23.987 0l-36.219 36.219c-.01.01-.018.021-.028.031l-25.638 25.638v-87.521c0-9.353-7.609-16.961-16.961-16.961h-71.015c-4.142 0-7.5 3.358-7.5 7.5s3.358 7.5 7.5 7.5h71.015c1.082 0 1.961.88 1.961 1.961v43.722h-126.694v-43.722c0-1.082.88-1.961 1.961-1.961h16.756c4.142 0 7.5-3.358 7.5-7.5s-3.358-7.5-7.5-7.5h-16.756c-9.353 0-16.961 7.609-16.961 16.961v87.522c-2.082-2.082-60.687-60.69-61.885-61.888-6.613-6.614-17.374-6.613-23.987 0l-86.812 86.812c-3.204 3.204-4.969 7.463-4.969 11.994 0 4.53 1.765 8.79 4.968 11.994 12.368 12.367 78.673 78.673 91.065 91.065 1.464 1.465 3.384 2.197 5.303 2.197s3.839-.732 5.303-2.197c2.929-2.929 2.929-7.678 0-10.606l-6.635-6.635 77.648-77.648v64.607l-45.343 45.343-.786-.787c-2.93-2.929-7.678-2.928-10.607 0-2.929 2.929-2.929 7.678 0 10.607l2.9 2.901c.009.009.016.019.025.028l76.759 76.757c.215.215.441.409.674.592 14.133 13.817 33.447 22.356 54.726 22.356s40.593-8.539 54.727-22.356c.232-.183.459-.377.673-.591 44.747-44.748 148.331-148.332 195.632-195.632 3.204-3.204 4.968-7.463 4.968-11.994 0-4.532-1.765-8.791-4.968-11.995zm-141.714-34.682 89.584 89.583-32.302 32.303-88.253-88.253v-2.661zm-172.665 41.641h126.694v45.683h-126.694c0-4.695 0-40.539 0-45.683zm141.694 157.261v-58.237l34.738 34.738-35.692 35.692c.624-3.974.954-8.045.954-12.193zm45.343-34.106-45.343-45.343v-64.607l77.647 77.647zm-60.343-183.838v45.683h-126.694v-45.683zm-141.694 52.675-88.253 88.253-32.302-32.302 89.584-89.583 30.971 30.971zm-162.078 11.656 86.812-86.812c.383-.383.885-.574 1.388-.574s1.005.191 1.387.573l30.916 30.916-89.588 89.587-30.916-30.916c-.765-.765-.77-2.004.001-2.774zm163.032 165.807-35.692-35.692 34.738-34.738v58.237c0 4.147.33 8.218.954 12.193zm14.046-12.194v-96.578h126.694v96.578c0 34.93-28.417 63.347-63.347 63.347s-63.347-28.417-63.347-63.347zm303.772-150.839-30.914 30.914-89.587-89.587 30.914-30.914c.765-.765 2.01-.765 2.774 0l86.813 86.813c.766.765.771 2.004 0 2.774z"/><path d="m256 335.912c-15.289 0-27.728 12.439-27.728 27.728s12.439 27.728 27.728 27.728 27.728-12.439 27.728-27.728-12.439-27.728-27.728-27.728zm0 40.456c-7.018 0-12.728-5.71-12.728-12.728s5.71-12.728 12.728-12.728 12.728 5.71 12.728 12.728-5.71 12.728-12.728 12.728z"/></g></g></svg>