<svg id="Capa_1" enable-background="new 0 0 512 512" height="512" viewBox="0 0 512 512" width="512" xmlns="http://www.w3.org/2000/svg"><g><g><g><path d="m314.933 485.575h52.74l-43.994-96.701h-135.358l-43.994 96.701h52.74l23.6-48.997c1.685-3.499 5.226-5.723 9.109-5.723h52.447c3.884 0 7.424 2.224 9.109 5.723z" fill="#9ec8fc"/><path d="m504.5 350.899h-497v-313.761c0-5.917 4.796-10.713 10.713-10.713h475.574c5.917 0 10.713 4.796 10.713 10.713z" fill="#407194"/><path d="m448.705 316.213h-67.193c-2.761 0-5-2.239-5-5v-245.102c0-2.761 2.239-5 5-5h67.193c2.761 0 5 2.239 5 5v245.102c0 2.761-2.239 5-5 5z" fill="#ddebfd"/><path d="m453.71 66.11v80.03h-77.2v-80.03c0-2.76 2.24-5 5-5h67.2c2.76 0 5 2.24 5 5z" fill="#9cd169"/><path d="m376.51 231.18h77.2v80.03c0 2.76-2.24 5-5 5h-67.2c-2.76 0-5-2.24-5-5z" fill="#6cbff8"/><path d="m504.5 350.899h-497v34.815c0 5.917 4.796 10.713 10.713 10.713h475.574c5.917 0 10.713-4.796 10.713-10.713z" fill="#ddebfd"/><path d="m493.787 26.425h-30c5.917 0 10.713 4.796 10.713 10.713v313.761h30v-313.761c0-5.917-4.796-10.713-10.713-10.713z" fill="#365f7e"/><path d="m474.5 350.899v34.814c0 5.917-4.796 10.713-10.713 10.713h30c5.917 0 10.713-4.796 10.713-10.713v-34.814z" fill="#bed9fd"/><path d="m252.093 247.356h-188.798c-2.761 0-5-2.239-5-5v-176.246c0-2.761 2.239-5 5-5h188.798c2.761 0 5 2.239 5 5v176.246c0 2.761-2.239 5-5 5z" fill="#6cbff8"/><path d="m252.093 61.11h-25c2.761 0 5 2.239 5 5v176.246c0 2.761-2.239 5-5 5h25c2.761 0 5-2.239 5-5v-176.246c0-2.762-2.239-5-5-5z" fill="#5fa7ee"/><path d="m220.789 167.613c-9.674 0-18.752 2.538-26.612 6.983-3.82 2.16-8.618.206-10.056-3.94-9.09-26.215-33.992-45.039-63.301-45.039-5.93 0-11.676.781-17.149 2.232-2.47.655-4.938-.914-5.525-3.4-4.283-18.146-20.459-31.691-39.851-31.959v149.866c0 2.761 2.239 5 5 5h188.798c2.761 0 5-2.239 5-5v-60.773c-9.607-8.681-22.337-13.97-36.304-13.97z" fill="#ddebfd"/><path d="m257.093 242.356v-60.773c-6.939-6.271-15.513-10.757-25-12.773v73.546c0 2.761-2.239 5-5 5h25c2.761 0 5-2.239 5-5z" fill="#bed9fd"/><path d="m58.295 209.502v32.854c0 2.761 2.239 5 5 5h188.798c2.761 0 5-2.239 5-5v-32.854z" fill="#9cd169"/><path d="m257.093 242.356v-32.854h-25v32.854c0 2.761-2.239 5-5 5h25c2.761 0 5-2.239 5-5z" fill="#68b181"/><circle cx="211.369" cy="108.127" fill="#ddebfd" r="15.904"/><path d="m376.901 113.319-72.882 80.343 32.718 32.718 80.343-72.882c12.038-10.92 12.494-29.688 1.002-41.181-11.493-11.492-30.262-11.035-41.181 1.002z" fill="#5392f9"/><g><path d="m304.019 193.662 18.064 18.064z" fill="#e9a761"/><path d="m418.081 112.317c-2.551-2.551-5.461-4.51-8.564-5.887 4.654 10.701 2.182 23.826-7.175 32.332l-80.26 72.965 14.654 14.654 80.343-72.882c12.038-10.921 12.495-29.69 1.002-41.182z" fill="#4071f7"/></g><path d="m301.582 201.801c-9.956-4.351-21.557-2.226-30.803 3.647-25.698 16.324-9.516 46.125-38.106 55.577-4.517 1.493-5.696 7.395-2.008 10.399 44.189 35.997 103.78 3.49 103.78-40.135z" fill="#ddebfd"/><path d="m301.582 201.801c-.39-.17-.787-.313-1.181-.464l16.937 15.198c0 38.847-47.251 68.877-88.804 49.572-.23 1.91.422 3.925 2.132 5.318 44.189 35.997 103.78 3.49 103.78-40.135z" fill="#bed9fd"/><path d="m293.388 175.613-5.167 5.167c-5.762 5.762-5.762 15.105 0 20.867l40.53 40.53c5.762 5.762 15.105 5.762 20.867 0l5.167-5.167c5.762-5.762 5.762-15.105 0-20.867l-40.53-40.53c-5.763-5.762-15.105-5.762-20.867 0z" fill="#eec06b"/><path d="m354.785 216.144-14.74-14.74c5.634 5.634 5.531 14.873-.232 20.635l-5.167 5.167c-5.762 5.762-15.001 5.866-20.635.232l14.74 14.74c5.762 5.762 15.105 5.762 20.867 0l5.167-5.167c5.762-5.762 5.762-15.105 0-20.867z" fill="#e9a761"/></g></g><g><path d="m493.787 18.925h-475.574c-10.043 0-18.213 8.17-18.213 18.213v43.985c0 4.143 3.357 7.5 7.5 7.5s7.5-3.357 7.5-7.5v-43.985c0-1.771 1.441-3.213 3.213-3.213h475.574c1.771 0 3.213 1.441 3.213 3.213v306.261h-482v-227.276c0-4.143-3.357-7.5-7.5-7.5s-7.5 3.357-7.5 7.5v269.591c0 10.043 8.17 18.213 18.213 18.213h155.017l-33.726 74.148h-40.601c-4.143 0-7.5 3.357-7.5 7.5s3.357 7.5 7.5 7.5h314.193c4.143 0 7.5-3.357 7.5-7.5s-3.357-7.5-7.5-7.5h-40.601l-33.726-74.148h66.598c4.143 0 7.5-3.357 7.5-7.5s-3.357-7.5-7.5-7.5h-387.154c-1.771 0-3.213-1.441-3.213-3.213v-27.315h482v27.315c0 1.771-1.441 3.213-3.213 3.213h-53.419c-4.143 0-7.5 3.357-7.5 7.5s3.357 7.5 7.5 7.5h53.419c10.043 0 18.213-8.17 18.213-18.213v-348.576c0-10.043-8.17-18.213-18.213-18.213zm-284.778 459.15 18.423-38.25c.434-.903 1.333-1.465 2.349-1.465h52.439c1.016 0 1.915.562 2.354 1.474l18.418 38.241zm147.008 0h-36.377l-21.548-44.74c-2.908-6.06-9.138-9.975-15.872-9.975h-52.44c-6.734 0-12.964 3.915-15.867 9.965l-21.553 44.75h-36.377l33.726-74.148h132.581z"/><path d="m211.369 131.53c12.905 0 23.404-10.499 23.404-23.403 0-12.905-10.499-23.404-23.404-23.404-12.904 0-23.403 10.499-23.403 23.404 0 12.904 10.499 23.403 23.403 23.403zm0-31.807c4.634 0 8.404 3.771 8.404 8.404s-3.771 8.403-8.404 8.403-8.403-3.77-8.403-8.403 3.769-8.404 8.403-8.404z"/><path d="m252.09 53.61h-188.8c-6.893 0-12.5 5.607-12.5 12.5v176.25c0 6.893 5.607 12.5 12.5 12.5h164.837c-3.588 1.937-6.166 5.406-6.921 9.503-.894 4.839.913 9.771 4.717 12.871 13.849 11.282 30.175 17.146 46.795 17.146 7.124 0 14.303-1.077 21.363-3.268 19.582-6.074 35.501-20 43.055-37.212 6.721.61 13.119-1.753 17.784-6.419l5.169-5.168c7.877-7.878 8.577-20.23 2.149-28.935l6.771-6.143v103.975c0 6.893 5.607 12.5 12.5 12.5h67.2c6.893 0 12.5-5.607 12.5-12.5v-245.1c0-6.893-5.607-12.5-12.5-12.5h-67.2c-6.893 0-12.5 5.607-12.5 12.5v44.746l-51.988 57.306c-8.705-6.43-21.057-5.731-28.937 2.147l-5.167 5.168c-4.758 4.757-7.31 11.517-6.274 18.877-3.41 1.177-6.742 2.769-9.884 4.764-.755.479-1.473.972-2.17 1.471v-134.479c.001-6.892-5.607-12.5-12.499-12.5zm-186.3 47.344c12.241 2.97 22.067 12.552 25.056 25.218.75 3.178 2.778 5.958 5.564 7.627 2.785 1.67 6.047 2.128 9.182 1.3 4.962-1.314 10.086-1.981 15.229-1.981 25.329 0 47.92 16.073 56.215 39.996 1.435 4.138 4.599 7.395 8.681 8.936 4.006 1.513 8.438 1.177 12.152-.925 6.954-3.933 14.88-6.011 22.921-6.011 10.5 0 20.604 3.524 28.801 9.964v16.925h-183.801zm183.8-32.344v98.653c-8.804-4.656-18.662-7.15-28.801-7.15-10.406 0-20.674 2.64-29.738 7.639-10.513-29.708-38.675-49.635-70.23-49.635-5.43 0-10.844.594-16.136 1.768-5.399-18.019-20.576-31.197-38.895-34.229v-17.046zm-183.8 148.392h183.8v3.27c-1.626 4.178-2.683 8.32-3.651 12.13-.708 2.785-1.365 5.253-2.095 7.459h-178.054zm316.666-98.643c3.89-4.29 9.22-6.729 15.007-6.869 5.792-.128 11.223 2.038 15.314 6.134 4.093 4.093 6.27 9.534 6.129 15.321-.142 5.785-2.579 11.112-6.865 15l-60.218 54.629-23.998-23.997zm44.554 35.281h19.199v70.04h-62.2v-30.052c38.809-35.516 39.235-34.863 43.001-39.988zm-43 155.07v-70.03h62.2v70.03zm62.2-240.1v70.029h-12.831c.3-1.744.478-3.522.522-5.328.242-9.933-3.493-19.271-10.516-26.292-7.021-7.026-16.359-10.771-26.285-10.524-4.588.111-9.004 1.074-13.091 2.792v-30.677zm-152.686 117.474 5.166-5.167c2.83-2.828 7.433-2.828 10.261 0l40.53 40.529c2.828 2.829 2.828 7.433.001 10.261l-5.169 5.168c-2.835 2.835-7.424 2.836-10.259-.001l-40.531-40.53c-2.835-2.835-2.836-7.423.001-10.26zm-18.723 25.697c2.868-1.821 5.929-3.148 9.009-3.938l39.638 39.637c.025.025.054.047.079.072-12.353 28.88-53.841 43.83-86.023 19.7 15.056-5.974 19.323-16.796 22.974-31.154 2.696-10.612 4.95-18.365 14.323-24.317z"/></g></g></svg>