<svg id="Capa_1" enable-background="new 0 0 512 512" height="512" viewBox="0 0 512 512" width="512" xmlns="http://www.w3.org/2000/svg"><g><g><g><path d="m271.344 7.505c-55.011.405-104.783 22.874-140.903 58.994-36.441 36.452-58.99 86.796-58.99 142.418v40.578c0 14.382 11.659 26.042 26.042 26.042s26.042-11.659 26.042-26.042v-14.471c0-14.385 11.661-26.047 26.047-26.047 14.385 0 26.047 11.661 26.047 26.047v30.651c0 14.385 11.661 26.047 26.047 26.047s26.047-11.661 26.047-26.047v-49.645c0-25.001 20.453-46.108 45.453-45.936 12.34.085 23.507 5.125 31.611 13.218 8.163 8.173 13.219 19.462 13.219 31.928v76.481h156.27v-81.005c-.001-111.612-91.323-204.033-202.932-203.211z" fill="#eec06b"/><g fill="#e9a761"><path d="m123.581 208.977c-14.385 0-26.047 11.661-26.047 26.047v14.471c0 9.646-5.248 18.061-13.042 22.561 3.827 2.21 8.263 3.48 13 3.48 14.382 0 26.042-11.659 26.042-26.042v-14.471c0-9.649 5.251-18.066 13.047-22.567-3.827-2.209-8.264-3.479-13-3.479z"/><path d="m247.174 170.094c-25-.172-45.453 20.936-45.453 45.936v49.644c0 9.649-5.251 18.066-13.047 22.567 3.827 2.209 8.264 3.48 13 3.48 14.385 0 26.047-11.661 26.047-26.047v-49.644c0-20.419 13.646-38.235 32.268-43.987-4.061-1.233-8.359-1.918-12.815-1.949z"/><path d="m271.344 7.505c-3.889.029-7.748.18-11.581.426 104.948 6.828 188.513 96.021 188.513 202.785v81.005h26v-81.005c-.001-111.612-91.323-204.033-202.932-203.211z"/></g><path d="m206.719 504.5h-132.851c-5.552 0-10.053-4.501-10.053-10.053v-137.136h152.956v137.137c0 5.551-4.5 10.052-10.052 10.052z" fill="#db387e"/><path d="m189.771 357.311v137.137c0 5.552-4.501 10.053-10.053 10.053h27c5.552 0 10.053-4.501 10.053-10.053v-137.137z" fill="#c4237c"/><circle cx="140.293" cy="407.328" fill="#ddebfd" r="18.895"/><path d="m230.466 324.818h-180.346c-6.456 0-11.69 5.234-11.69 11.69v9.112c0 6.456 5.234 11.69 11.69 11.69h180.346c6.456 0 11.69-5.234 11.69-11.69v-9.112c0-6.456-5.234-11.69-11.69-11.69z" fill="#5392f9"/><path d="m230.466 324.818h-27c6.456 0 11.69 5.234 11.69 11.691v9.112c0 6.457-5.234 11.69-11.69 11.69h27c6.456 0 11.69-5.234 11.69-11.69v-9.112c0-6.457-5.234-11.691-11.69-11.691z" fill="#4071f7"/><path d="m318.008 269.919v49.919h156.27v-49.919c0-2.761-2.239-5-5-5h-146.27c-2.762 0-5 2.239-5 5z" fill="#ddebfd"/><path d="m469.278 264.919h-26c2.761 0 5 2.239 5 5v49.919h26v-49.919c0-2.761-2.239-5-5-5z" fill="#bed9fd"/><path d="m318.008 319.838h156.27v36.905h-156.27z" fill="#db387e"/><path d="m448.278 319.838h26v36.905h-26z" fill="#c4237c"/><path d="m318.008 356.743v31.984c0 13.574 26.251 27.088 49.569 34.476 5.277 1.672 8.872 6.548 8.872 12.083v54.008c0 8.398 6.808 15.205 15.205 15.205h8.978c8.398 0 15.205-6.808 15.205-15.205v-54.008c0-5.535 3.595-10.412 8.872-12.083 23.318-7.388 49.569-20.901 49.569-34.476 0-28.305 0-31.984 0-31.984z" fill="#5392f9"/><path d="m448.278 356.743v31.984c0 13.574-26.251 27.088-49.569 34.476-5.277 1.672-8.872 6.548-8.872 12.083v54.009c0 5.244-2.655 9.868-6.694 12.601 2.429 1.644 5.358 2.604 8.511 2.604h8.978c8.398 0 15.205-6.808 15.205-15.205v-54.009c0-5.535 3.595-10.411 8.872-12.083 23.318-7.387 49.569-20.901 49.569-34.476 0-28.305 0-31.984 0-31.984z" fill="#4071f7"/></g></g><g><path d="m272.821 55.003c40.776 0 79.325 16.277 108.547 45.835 29.281 29.615 45.406 68.638 45.406 109.879 0 4.143 3.358 7.5 7.5 7.5s7.5-3.357 7.5-7.5c0-45.216-17.665-87.984-49.739-120.426-32.062-32.429-74.399-50.288-119.214-50.288h-1.183c-4.142 0-7.5 3.357-7.5 7.5s3.358 7.5 7.5 7.5z"/><path d="m230.466 317.319h-180.346c-10.582 0-19.19 8.608-19.19 19.19v9.111c0 10.582 8.609 19.19 19.19 19.19h6.195v35.018h-18.592c-4.142 0-7.5 3.357-7.5 7.5s3.358 7.5 7.5 7.5h18.592v79.619c0 9.679 7.874 17.553 17.553 17.553h132.851c9.679 0 17.553-7.874 17.553-17.553v-51.426c0-4.143-3.358-7.5-7.5-7.5s-7.5 3.357-7.5 7.5v51.426c0 1.407-1.145 2.553-2.553 2.553h-132.851c-1.408 0-2.553-1.146-2.553-2.553v-79.619h43.675c3.24 10.911 13.354 18.895 25.303 18.895 14.554 0 26.395-11.841 26.395-26.394s-11.841-26.395-26.395-26.395c-11.949 0-22.063 7.984-25.303 18.895h-43.675v-35.018h137.956v43.211c0 4.143 3.358 7.5 7.5 7.5s7.5-3.357 7.5-7.5v-43.211h6.194c10.582 0 19.19-8.608 19.19-19.19v-9.111c.001-10.583-8.608-19.191-19.189-19.191zm-90.173 78.615c6.283 0 11.395 5.111 11.395 11.395 0 6.283-5.112 11.395-11.395 11.395s-11.395-5.111-11.395-11.395c.001-6.284 5.112-11.395 11.395-11.395zm94.363-50.314c0 2.311-1.88 4.19-4.19 4.19h-180.346c-2.311 0-4.19-1.88-4.19-4.19v-9.111c0-2.311 1.88-4.19 4.19-4.19h180.345c2.311 0 4.19 1.88 4.19 4.19v9.111z"/><path d="m481.774 210.716c0-28.52-5.673-56.269-16.861-82.476-10.807-25.313-26.231-48.02-45.844-67.489-39.872-39.58-92.366-61.193-147.78-60.744-55.195.407-107.098 22.138-146.152 61.19-5.432 5.435-10.617 11.225-15.411 17.211-2.589 3.233-2.067 7.953 1.166 10.543 3.234 2.588 7.953 2.066 10.542-1.166 4.452-5.559 9.267-10.937 14.311-15.981 36.248-36.249 84.425-56.42 135.655-56.797.48-.004.952-.006 1.431-.006 50.868 0 99.004 19.996 135.672 56.395 37.578 37.302 58.273 86.78 58.273 139.32v46.703h-101.27v-42.18c0-24.73-9.628-47.989-27.111-65.493-2.927-2.932-7.676-2.933-10.607-.007-2.931 2.928-2.934 7.676-.006 10.606 14.654 14.672 22.724 34.167 22.724 54.893v42.18h-25v-42.18c0-14.055-5.474-27.275-15.419-37.233-9.855-9.843-22.945-15.316-36.859-15.412-13.847-.105-27.007 5.342-37.043 15.31-10.144 10.074-15.961 23.972-15.961 38.127v49.644c0 10.227-8.32 18.546-18.547 18.546s-18.546-8.319-18.546-18.546v-30.651c0-18.498-15.049-33.547-33.547-33.547s-33.546 15.049-33.546 33.547v14.472c0 10.224-8.318 18.541-18.542 18.541s-18.541-8.317-18.541-18.541v-40.578c0-33.165 8.516-65.893 24.628-94.647 2.025-3.613.737-8.184-2.876-10.209-3.615-2.024-8.185-.737-10.209 2.877-17.368 30.989-26.546 66.252-26.546 101.98v40.578c0 18.494 15.047 33.541 33.541 33.541 18.495 0 33.542-15.047 33.542-33.541v-14.472c0-10.227 8.32-18.547 18.546-18.547 10.227 0 18.547 8.32 18.547 18.547v30.651c0 18.497 15.049 33.546 33.546 33.546 18.498 0 33.547-15.049 33.547-33.546v-49.644c0-10.187 4.203-20.205 11.532-27.483 7.18-7.13 16.57-11.013 26.37-10.953 9.95.068 19.313 3.984 26.356 11.019 7.11 7.119 11.026 16.575 11.026 26.627.001 37.16.004 133.041.003 173.488 0 8.98 6.57 17.693 19.529 25.894 9.291 5.881 21.818 11.468 35.274 15.73 2.175.689 3.637 2.672 3.637 4.934v54.009c0 12.52 10.186 22.705 22.706 22.705h8.978c12.52 0 22.705-10.186 22.705-22.705v-54.009c0-2.262 1.462-4.244 3.637-4.934 13.456-4.263 25.983-9.85 35.274-15.73 12.958-8.201 19.529-16.914 19.529-25.894 0 .1.001-38.975-.003-178.013zm-156.266 116.622h141.269v21.905h-141.269zm141.266-54.919c0 .114.002 39.774.002 39.919h-141.268v-39.919zm.003 116.309c0 2.551-3.297 7.363-12.551 13.221-8.233 5.211-19.52 10.22-31.782 14.105-8.438 2.673-14.107 10.402-14.107 19.232v54.009c0 4.249-3.457 7.705-7.705 7.705h-8.978c-4.249 0-7.706-3.456-7.706-7.705v-54.009c0-8.83-5.669-16.56-14.106-19.232-12.262-3.886-23.55-8.895-31.783-14.105-9.254-5.857-12.551-10.67-12.551-13.221v-24.484h141.269z"/></g></g></svg>