<svg id="Capa_1" enable-background="new 0 0 512 512" height="512" viewBox="0 0 512 512" width="512" xmlns="http://www.w3.org/2000/svg"><g><g><g><path d="m405.16 339.467-41.85 45.352-115.785-106.845 41.367-44.829c15.148-16.415 14.503-42.663-2.017-57.696-8.153-7.419-18.53-10.879-28.752-10.468-10.311.414-20.463 4.766-28.016 12.95l-82.865 89.799c-8.667 9.392-23.307 9.98-32.699 1.313s-9.98-23.307-1.313-32.699l42.257-45.793c9.773-10.591 9.11-27.1-1.481-36.873s-27.1-9.11-36.873 1.481l-11.406 12.36c-11.064 11.99-29.753 12.74-41.743 1.676s-12.741-29.753-1.676-41.743l52.014-56.366c31.866-34.533 73.254-55.121 116.476-61.463 57.145-8.406 117.478 8.104 163.134 50.234 80.18 73.991 85.224 199.422 11.228 279.61z" fill="#5392f9"/><g fill="#4071f7"><path d="m258.122 164.981c5.269-.211 10.577.614 15.603 2.471-2.106-4.644-5.136-8.928-9.111-12.544-8.071-7.343-18.374-10.735-28.542-10.275-10.256.464-20.375 4.847-27.928 13.031l-82.865 89.799c-4.815 5.218-11.45 7.73-17.991 7.47.657 5.226 3.082 10.258 7.255 14.11 9.392 8.667 24.032 8.079 32.699-1.313l82.865-89.798c7.552-8.185 17.705-12.537 28.015-12.951z"/><path d="m105.728 167.519 11.406-12.36c6.09-6.6 14.796-9.343 23.055-8.109-1.113-4.89-3.655-9.496-7.606-13.141-10.484-9.674-26.906-8.931-36.679 1.66l-11.406 12.36c-7.527 8.156-18.535 11.147-28.542 8.782 1.517 4.628 4.195 8.947 8.029 12.485 11.989 11.064 30.678 10.313 41.743-1.677z"/><path d="m393.931 59.858c-3.736-3.448-7.58-6.706-11.503-9.811 68.847 74.221 69.492 191.124-1.004 267.518l-41.85 45.352 23.735 21.902 41.85-45.352c73.997-80.188 68.953-205.619-11.228-279.609z"/></g><path d="m336.949 397.284-95.584-88.204c-10.412-9.608-11.063-25.837-1.456-36.248l8.624-9.345c9.608-10.412 25.837-11.063 36.248-1.456l95.584 88.204c10.412 9.608 11.063 25.837 1.456 36.248l-8.624 9.345c-9.608 10.412-25.837 11.064-36.248 1.456z" fill="#ddebfd"/><path d="m380.365 350.235-95.584-88.203 71.774 66.232c10.392 9.59 11.043 25.789 1.453 36.181l-8.688 9.415c-9.59 10.392-25.789 11.043-36.181 1.453l23.81 21.971c10.412 9.608 26.641 8.956 36.248-1.456l8.624-9.345c9.607-10.411 8.955-26.64-1.456-36.248z" fill="#bed9fd"/><path d="m210.376 410.332-57.257 62.048c-7.169 7.769-6.682 19.878 1.086 27.047 7.769 7.169 19.878 6.682 27.047-1.086l57.257-62.048c2.014-2.182 1.877-5.583-.305-7.597l-20.231-18.669c-2.182-2.014-5.584-1.878-7.597.305z" fill="#db377e"/></g></g><g><path d="m324.208 135.389-.465-.426c-13.858-12.61-30.886-20.782-49.242-23.634-4.1-.637-7.926 2.166-8.562 6.259s2.167 7.926 6.259 8.562c15.441 2.398 29.774 9.282 41.428 19.886l.426.391c11.615 10.718 19.698 24.515 23.374 39.899.959 4.015 4.992 6.516 9.037 5.551 4.029-.963 6.514-5.009 5.551-9.038-4.37-18.287-13.979-34.689-27.806-47.45z"/><path d="m417.976 324.37c-3.208-2.618-7.933-2.141-10.552 1.066-5.899 7.224-9.828 11.078-19.574 21.745-.752-.85-1.549-1.669-2.394-2.449l-67.509-62.297 11.202-12.137c12.909-13.989 21.306-31.281 24.284-50.006.651-4.091-2.138-7.933-6.228-8.585-4.087-.65-7.935 2.139-8.585 6.229-2.512 15.793-9.599 30.382-20.494 42.189l-11.203 12.138-17.048-15.731c-2.311-2.132-4.85-3.864-7.527-5.216l12.063-13.066c8.719-9.45 13.394-22.308 12.828-35.28-.561-12.84-5.999-24.578-15.31-33.049-9.352-8.514-21.464-12.924-34.103-12.417-12.758.52-24.554 5.973-33.216 15.357l-32.358 35.069c-2.808 3.044-2.618 7.789.426 10.597 3.043 2.809 7.788 2.618 10.598-.426l32.357-35.068c5.946-6.441 14.044-10.185 22.799-10.541 8.666-.364 16.981 2.678 23.401 8.523 6.335 5.763 10.036 13.793 10.421 22.611.394 9.006-2.838 17.919-8.865 24.452l-18.249 19.769c-8.162.555-16.135 4.096-22.108 10.568l-8.623 9.344c-12.396 13.433-11.552 34.448 1.881 46.844l95.58 88.199c12.973 11.972 33.35 11.801 46.046-1.058l6.245 5.766c2.811 2.592 4.443 6.121 4.596 9.938s-1.191 7.469-3.781 10.277l-6.577 7.119c-4.008 4.35-10.167 5.78-15.688 3.639l-104.615-40.623c-9.107-3.523-19.276-1.165-25.905 6.008l-4.52 4.896-4.6-4.245c-5.263-4.857-13.396-4.47-18.194.731l-57.254 62.045c-9.961 10.794-9.283 27.68 1.511 37.642 4.96 4.577 11.33 7.062 18.04 7.062.364 0 .729-.007 1.095-.021 7.11-.286 13.683-3.323 18.508-8.552l57.254-62.044c4.827-5.229 4.5-13.367-.729-18.194l-4.607-4.252 4.516-4.891c2.424-2.622 6.145-3.483 9.466-2.199l104.61 40.62c3.49 1.352 7.103 2.01 10.673 2.009 8.004 0 15.789-3.301 21.464-9.461l6.575-7.116c5.309-5.757 8.06-13.233 7.746-21.052-.314-7.822-3.658-15.054-9.412-20.36l-6.244-5.765c5.508-6.385 8.35-14.49 8.01-22.956-.088-2.196-.388-4.351-.888-6.441 13.163-14.388 17.373-18.488 23.832-26.401 2.619-3.21 2.142-7.934-1.067-10.553zm-41.662 57.034-8.624 9.344c-6.835 7.408-18.32 7.793-25.649 1.03l-95.579-88.199c-7.356-6.788-7.817-18.294-1.03-25.65l8.623-9.344c6.788-7.355 18.294-7.817 25.649-1.03 9.589 8.849 80.446 74.235 95.58 88.2 3.563 3.288 5.632 7.766 5.827 12.611.194 4.844-1.509 9.475-4.797 13.038zm-200.559 111.851c-4.361 4.726-11.719 5.023-16.447.66-4.728-4.362-5.023-11.719-.661-16.447l55.814-60.484c3.347 3.088 11.547 10.656 17.108 15.787z"/><path d="m462.643 174.05c-7.005-45.783-29.599-88.287-63.621-119.681-45.765-42.231-107.473-61.233-169.301-52.141-46.261 6.788-89.195 29.444-120.893 63.795l-52.011 56.362c-6.71 7.271-10.186 16.719-9.789 26.605.397 9.885 4.619 19.024 11.89 25.733 15.009 13.85 38.487 12.909 52.339-2.101l11.405-12.36c6.887-7.462 18.63-8.107 26.274-1.055 7.534 6.953 8.008 18.739 1.056 26.274l-42.255 45.791c-11.457 12.415-10.677 31.836 1.739 43.294 12.415 11.457 31.837 10.678 43.295-1.738l26.92-29.172c2.809-3.044 2.619-7.789-.425-10.597-3.045-2.81-7.789-2.62-10.598.426l-26.92 29.172c-5.849 6.335-15.763 6.733-22.1.887-6.338-5.848-6.736-15.762-.888-22.099l42.256-45.791c12.561-13.614 11.705-34.907-1.907-47.468-13.637-12.583-34.876-11.74-47.469 1.906l-11.405 12.36c-8.242 8.93-22.213 9.49-31.144 1.25-4.326-3.992-6.839-9.43-7.075-15.313s1.832-11.504 5.824-15.831l52.011-56.362c29.378-31.836 69.17-52.834 112.05-59.126 57.324-8.43 114.53 9.181 156.948 48.324 31.99 29.519 52.38 67.877 58.966 110.926 6.395 41.794-1.331 84.995-21.753 121.645-2.016 3.618-.717 8.185 2.901 10.202 1.156.644 2.408.949 3.643.949 2.632 0 5.186-1.388 6.558-3.85 22.036-39.547 30.374-86.147 23.479-131.216z"/><path d="m390.866 200.027c.162 4.037 3.485 7.199 7.488 7.199.102 0 .204-.002.306-.006 4.139-.166 7.359-3.656 7.193-7.795-1.57-39.085-18.225-75.181-46.897-101.64-11.116-10.257-23.648-18.676-37.248-25.02-26.198-12.23-55.242-16.384-83.993-12.024-32.699 4.948-63.053 21.052-85.47 45.345-2.809 3.044-2.619 7.789.425 10.597 3.044 2.809 7.789 2.619 10.598-.426 20.406-22.113 46.925-36.182 76.695-40.686 25.82-3.917 51.893-.19 75.403 10.786 12.197 5.69 23.441 13.243 33.418 22.451 25.728 23.743 40.673 56.138 42.082 91.219z"/></g></g></svg>