<svg id="Capa_1" enable-background="new 0 0 512 512" height="512" viewBox="0 0 512 512" width="512" xmlns="http://www.w3.org/2000/svg"><g><g><g><path d="m314.933 485.577h52.74l-43.994-96.701h-135.358l-43.994 96.701h52.74l23.6-48.997c1.685-3.499 5.226-5.723 9.109-5.723h52.447c3.884 0 7.424 2.224 9.109 5.723z" fill="#9ec8fc"/><path d="m504.5 350.901h-497v-313.761c0-5.917 4.796-10.713 10.713-10.713h475.574c5.917 0 10.713 4.796 10.713 10.713z" fill="#407194"/><path d="m504.5 350.901h-497v34.815c0 5.917 4.796 10.713 10.713 10.713h475.574c5.917 0 10.713-4.796 10.713-10.713z" fill="#ddebfd"/><path d="m493.787 26.427h-30c5.917 0 10.713 4.796 10.713 10.713v313.761h30v-313.761c0-5.916-4.796-10.713-10.713-10.713z" fill="#365f7e"/><path d="m474.5 350.901v34.814c0 5.917-4.796 10.713-10.713 10.713h30c5.917 0 10.713-4.796 10.713-10.713v-34.814z" fill="#bed9fd"/><g><path d="m251.249 189.954-71.806 33.508c-4.417 2.061-4.417 8.343 0 10.404l71.806 33.508c3.011 1.405 6.49 1.405 9.502 0l71.806-33.508c4.417-2.061 4.417-8.343 0-10.404l-71.806-33.508c-3.011-1.405-6.491-1.405-9.502 0z" fill="#ddebfd"/><path d="m251.249 149.954-71.806 33.508c-4.417 2.061-4.417 8.343 0 10.404l71.806 33.508c3.011 1.405 6.49 1.405 9.502 0l71.806-33.508c4.417-2.061 4.417-8.343 0-10.404l-71.806-33.508c-3.011-1.405-6.491-1.405-9.502 0z" fill="#9cd169"/><path d="m251.249 109.954-71.806 33.508c-4.417 2.061-4.417 8.343 0 10.404l71.806 33.508c3.011 1.405 6.49 1.405 9.502 0l71.806-33.508c4.417-2.061 4.417-8.343 0-10.404l-71.806-33.508c-3.011-1.405-6.491-1.405-9.502 0z" fill="#ddebfd"/></g><g fill="#6cbff8"><path d="m400.579 62.927v24c0 2.761 2.239 5 5 5h24c2.761 0 5-2.239 5-5v-24c0-2.761-2.239-5-5-5h-24c-2.761 0-5 2.239-5 5z"/><path d="m400.579 290.402v24c0 2.761 2.239 5 5 5h24c2.761 0 5-2.239 5-5v-24c0-2.761-2.239-5-5-5h-24c-2.761 0-5 2.238-5 5z"/><path d="m77.421 62.927v24c0 2.761 2.239 5 5 5h24c2.761 0 5-2.239 5-5v-24c0-2.761-2.239-5-5-5h-24c-2.762 0-5 2.239-5 5z"/><path d="m77.421 290.402v24c0 2.761 2.239 5 5 5h24c2.761 0 5-2.239 5-5v-24c0-2.761-2.239-5-5-5h-24c-2.762 0-5 2.238-5 5z"/></g></g></g><g><path d="m493.787 18.925h-475.574c-10.043 0-18.213 8.17-18.213 18.213v43.985c0 4.143 3.358 7.5 7.5 7.5s7.5-3.357 7.5-7.5v-43.985c0-1.771 1.441-3.213 3.213-3.213h475.574c1.771 0 3.213 1.441 3.213 3.213v306.261h-482v-227.275c0-4.143-3.358-7.5-7.5-7.5s-7.5 3.357-7.5 7.5v269.59c0 10.043 8.17 18.213 18.213 18.213h155.017l-33.727 74.148h-40.6c-4.142 0-7.5 3.357-7.5 7.5s3.358 7.5 7.5 7.5h314.194c4.143 0 7.5-3.357 7.5-7.5s-3.357-7.5-7.5-7.5h-40.601l-33.727-74.148h66.599c4.143 0 7.5-3.357 7.5-7.5s-3.357-7.5-7.5-7.5h-387.155c-1.772 0-3.213-1.441-3.213-3.213v-27.314h482v27.314c0 1.771-1.441 3.213-3.213 3.213h-53.419c-4.143 0-7.5 3.357-7.5 7.5s3.357 7.5 7.5 7.5h53.419c10.043 0 18.213-8.17 18.213-18.213v-348.576c0-10.043-8.17-18.213-18.213-18.213zm-284.778 459.15 18.422-38.249c.434-.904 1.334-1.466 2.349-1.466h52.44c1.016 0 1.915.562 2.354 1.475l18.417 38.24zm147.008 0h-36.377l-21.548-44.74c-2.908-6.06-9.138-9.975-15.872-9.975h-52.44c-6.733 0-12.962 3.915-15.867 9.965l-21.553 44.75h-36.376l33.727-74.148h132.58z"/><path d="m168.63 148.661c0 5.201 2.927 9.8 7.642 12l17.146 8.001-17.151 8.003c-4.709 2.199-7.634 6.796-7.634 11.996 0 5.199 2.925 9.796 7.636 11.996l17.152 8.004-17.154 8.004c-4.709 2.199-7.634 6.796-7.634 11.996 0 5.199 2.925 9.796 7.636 11.996l71.799 33.505c4.925 2.308 10.712 2.414 15.854.005l71.812-33.511c4.709-2.199 7.634-6.796 7.634-11.995 0-5.2-2.925-9.797-7.637-11.997l-17.151-8.003 17.154-8.005c4.709-2.199 7.634-6.796 7.634-11.995 0-5.2-2.925-9.797-7.637-11.997l-17.149-8.002 17.147-8.002c4.714-2.199 7.642-6.798 7.641-11.999 0-5.201-2.929-9.798-7.641-11.997l-71.807-33.509c-5.036-2.35-10.811-2.348-15.844 0l-71.805 33.509c-4.714 2.198-7.642 6.795-7.643 11.997zm157.336 80-68.397 31.917c-.998.467-2.14.468-3.147-.005l-68.388-31.912 25.124-11.723 36.91 17.224c2.522 1.182 5.229 1.771 7.935 1.771 2.703 0 5.405-.589 7.919-1.767l36.921-17.229zm0-40-68.397 31.917c-.998.467-2.14.468-3.147-.005l-68.388-31.912 25.122-11.722 36.922 17.23c2.518 1.176 5.22 1.763 7.922 1.763s5.406-.588 7.923-1.763l36.922-17.23zm-71.545-71.913c1.002-.467 2.155-.468 3.158 0l68.389 31.913-68.388 31.914c-1.006.469-2.157.468-3.16.001l-68.388-31.915z"/><path d="m442.079 86.924v-24c0-6.893-5.607-12.5-12.5-12.5h-24c-6.893 0-12.5 5.607-12.5 12.5v24c0 6.893 5.607 12.5 12.5 12.5h24c6.893 0 12.5-5.607 12.5-12.5zm-15-2.5h-19v-19h19z"/><path d="m393.079 314.399c0 6.893 5.607 12.5 12.5 12.5h24c6.893 0 12.5-5.607 12.5-12.5v-24c0-6.893-5.607-12.5-12.5-12.5h-24c-6.893 0-12.5 5.607-12.5 12.5zm15-21.5h19v19h-19z"/><path d="m425.079 135.818c0-4.143-3.357-7.5-7.5-7.5s-7.5 3.357-7.5 7.5v6.313c0 4.143 3.357 7.5 7.5 7.5s7.5-3.357 7.5-7.5z"/><path d="m425.079 185.505c0-4.143-3.357-7.5-7.5-7.5s-7.5 3.357-7.5 7.5v6.313c0 4.143 3.357 7.5 7.5 7.5s7.5-3.357 7.5-7.5z"/><path d="m417.579 227.694c-4.143 0-7.5 3.357-7.5 7.5v6.313c0 4.143 3.357 7.5 7.5 7.5s7.5-3.357 7.5-7.5v-6.313c0-4.143-3.357-7.5-7.5-7.5z"/><path d="m118.921 86.924v-24c0-6.893-5.607-12.5-12.5-12.5h-24c-6.893 0-12.5 5.607-12.5 12.5v24c0 6.893 5.607 12.5 12.5 12.5h24c6.892 0 12.5-5.607 12.5-12.5zm-15-2.5h-19v-19h19z"/><path d="m69.921 314.399c0 6.893 5.607 12.5 12.5 12.5h24c6.893 0 12.5-5.607 12.5-12.5v-24c0-6.893-5.607-12.5-12.5-12.5h-24c-6.893 0-12.5 5.607-12.5 12.5zm15-21.5h19v19h-19z"/><path d="m101.921 135.818c0-4.143-3.358-7.5-7.5-7.5s-7.5 3.357-7.5 7.5v6.313c0 4.143 3.358 7.5 7.5 7.5s7.5-3.357 7.5-7.5z"/><path d="m101.921 185.505c0-4.143-3.358-7.5-7.5-7.5s-7.5 3.357-7.5 7.5v6.313c0 4.143 3.358 7.5 7.5 7.5s7.5-3.357 7.5-7.5z"/><path d="m94.421 227.694c-4.142 0-7.5 3.357-7.5 7.5v6.313c0 4.143 3.358 7.5 7.5 7.5s7.5-3.357 7.5-7.5v-6.313c0-4.143-3.358-7.5-7.5-7.5z"/><path d="m169.592 309.899h6.313c4.142 0 7.5-3.357 7.5-7.5s-3.358-7.5-7.5-7.5h-6.313c-4.142 0-7.5 3.357-7.5 7.5s3.358 7.5 7.5 7.5z"/><path d="m225.093 294.899c-4.142 0-7.5 3.357-7.5 7.5s3.358 7.5 7.5 7.5h6.313c4.142 0 7.5-3.357 7.5-7.5s-3.358-7.5-7.5-7.5z"/><path d="m280.594 294.899c-4.143 0-7.5 3.357-7.5 7.5s3.357 7.5 7.5 7.5h6.313c4.143 0 7.5-3.357 7.5-7.5s-3.357-7.5-7.5-7.5z"/><path d="m342.407 294.899h-6.313c-4.143 0-7.5 3.357-7.5 7.5s3.357 7.5 7.5 7.5h6.313c4.143 0 7.5-3.357 7.5-7.5s-3.357-7.5-7.5-7.5z"/><path d="m175.905 67.424h-6.313c-4.142 0-7.5 3.357-7.5 7.5s3.358 7.5 7.5 7.5h6.313c4.142 0 7.5-3.357 7.5-7.5s-3.358-7.5-7.5-7.5z"/><path d="m231.406 82.424c4.142 0 7.5-3.357 7.5-7.5s-3.358-7.5-7.5-7.5h-6.313c-4.142 0-7.5 3.357-7.5 7.5s3.358 7.5 7.5 7.5z"/><path d="m286.907 82.424c4.143 0 7.5-3.357 7.5-7.5s-3.357-7.5-7.5-7.5h-6.313c-4.143 0-7.5 3.357-7.5 7.5s3.357 7.5 7.5 7.5z"/><path d="m342.407 67.424h-6.313c-4.143 0-7.5 3.357-7.5 7.5s3.357 7.5 7.5 7.5h6.313c4.143 0 7.5-3.357 7.5-7.5s-3.357-7.5-7.5-7.5z"/></g></g></svg>