<svg id="Capa_1" enable-background="new 0 0 512 512" height="512" viewBox="0 0 512 512" width="512" xmlns="http://www.w3.org/2000/svg"><g><g><g><path d="m482.11 165.865v328.44c0 2.761-2.239 5-5 5h-444.515c-13.86 0-25.095-11.235-25.095-25.095v-308.345z" fill="#ddebfd"/><path d="m452.11 165.865v328.439c0 2.761-2.239 5-5 5h30c2.761 0 5-2.239 5-5v-328.439z" fill="#bed9fd"/><g><path d="m218.815 12.696c-11.53 0-20.876 9.347-20.876 20.876v50.726h41.752v-50.726c.001-11.53-9.346-20.876-20.876-20.876z" fill="#0e4f6b"/><g><g><path d="m220.644 155.467-83.586 264.103c-2.252 7.116-9.518 11.379-16.828 9.874-8.046-1.656-13.132-9.634-11.239-17.627l70.311-296.931z" fill="#5392f9"/></g><g><path d="m216.986 155.467 83.586 264.103c2.252 7.116 9.518 11.379 16.828 9.874 8.046-1.656 13.132-9.634 11.239-17.627l-70.311-296.931z" fill="#5392f9"/></g></g><g transform="matrix(.924 -.383 .383 .924 -31.414 93.299)"><ellipse cx="218.815" cy="125.613" fill="#db387e" rx="56.575" ry="56.575"/><ellipse cx="218.815" cy="125.613" fill="#eec06b" rx="20.954" ry="20.954"/></g></g><path d="m488.996 107.617-331.965 331.966c-5.721 5.721-1.669 15.504 6.422 15.504h336.506c2.508 0 4.541-2.033 4.541-4.541v-336.507c0-8.091-9.782-12.143-15.504-6.422zm-59.366 269.874c0 1.505-1.22 2.725-2.725 2.725h-93.66c-4.045 0-6.071-4.891-3.211-7.752l91.844-91.848c2.861-2.861 7.752-.835 7.752 3.211z" fill="#9cd169"/><path d="m488.996 107.617-15.496 15.496v327.432c0 2.508-2.033 4.541-4.541 4.541h31c2.508 0 4.541-2.033 4.541-4.541v-336.506c0-8.091-9.782-12.143-15.504-6.422z" fill="#68b181"/><path d="m69.283 120.767v323.234c0 2.818-2.285 5.103-5.103 5.103h-31.585c-6.929 0-13.206 2.806-17.747 7.348-4.542 4.541-7.348 10.818-7.348 17.747 0 0 0-332.899 0-333.44 0-13.859 11.236-25.095 25.095-25.095h31.586c2.818 0 5.102 2.285 5.102 5.103z" fill="#bed9fd"/></g></g><g><path d="m218.815 154.066c15.689 0 28.454-12.764 28.454-28.453s-12.765-28.454-28.454-28.454-28.454 12.765-28.454 28.454 12.765 28.453 28.454 28.453zm0-41.907c7.419 0 13.454 6.035 13.454 13.454 0 7.418-6.035 13.453-13.454 13.453s-13.454-6.035-13.454-13.453c0-7.419 6.035-13.454 13.454-13.454z"/><path d="m429.696 272.702c-4.513-1.872-9.665-.848-13.122 2.61l-91.844 91.848c-3.455 3.456-4.48 8.607-2.609 13.123 1.87 4.515 6.236 7.433 11.124 7.433h93.66c5.638 0 10.225-4.587 10.225-10.225v-93.665c0-4.887-2.918-9.254-7.434-11.124zm-7.566 100.014h-81.741l81.741-81.746z"/><path d="m504.5 228.117c4.143 0 7.5-3.357 7.5-7.5v-106.578c0-6.73-4.018-12.744-10.236-15.32-6.216-2.574-13.312-1.164-18.071 3.595l-56.047 56.047h-151.316l-.735-3.105c4.65-8.871 7.296-18.951 7.296-29.643 0-25.146-14.567-46.944-35.7-57.428v-34.615c0-15.644-12.727-28.37-28.37-28.37-15.648 0-28.38 12.727-28.38 28.37v34.614c-21.133 10.484-35.7 32.282-35.7 57.428 0 10.691 2.646 20.771 7.296 29.642l-.736 3.106h-84.518v-37.594c0-6.949-5.653-12.603-12.603-12.603h-31.585c-17.973.001-32.595 14.623-32.595 32.597v333.439c0 17.976 14.624 32.601 32.6 32.601h444.51c6.893 0 12.5-5.607 12.5-12.5v-31.714h10.349c6.64 0 12.041-5.401 12.041-12.041v-194.928c0-4.143-3.357-7.5-7.5-7.5s-7.5 3.357-7.5 7.5v191.969h-34.256v-14.235c0-4.143-3.357-7.5-7.5-7.5s-7.5 3.357-7.5 7.5v14.235h-34.256v-14.235c0-4.143-3.357-7.5-7.5-7.5s-7.5 3.357-7.5 7.5v14.235h-34.256v-14.235c0-4.143-3.357-7.5-7.5-7.5s-7.5 3.357-7.5 7.5v14.235h-34.256v-14.235c0-4.143-3.357-7.5-7.5-7.5s-7.5 3.357-7.5 7.5v14.235h-34.256v-14.235c0-4.143-3.357-7.5-7.5-7.5s-7.5 3.357-7.5 7.5v14.235h-34.256v-14.235c0-4.143-3.357-7.5-7.5-7.5s-7.5 3.357-7.5 7.5v14.235h-38.012c-.262 0-1.058 0-1.462-.977-.404-.976.158-1.538.344-1.723l331.966-331.965c.185-.186.743-.749 1.724-.344.977.405.977 1.2.977 1.462v106.578c-.001 4.143 3.356 7.5 7.499 7.5zm-91.854-54.757-107.345 107.346-25.42-107.345h132.765zm-138.342 138.343-39.276-124.098c11.082-2.9 21-8.699 28.897-16.537l28.913 122.1zm-68.864-278.133c0-7.372 6.002-13.37 13.38-13.37 7.372 0 13.37 5.998 13.37 13.37v29.382c-8.668-1.848-17.73-1.923-26.75 0zm13.375 42.968c27.061 0 49.075 22.015 49.075 49.074 0 27.061-22.015 49.076-49.075 49.076s-49.075-22.016-49.075-49.076c0-27.059 22.015-49.074 49.075-49.074zm-203.815 64.222c0-9.702 7.893-17.596 17.595-17.596h29.188v42.638c0 .02-.003.039-.003.058s.003.039.003.058v275.686h-29.188c-6.335 0-12.394 1.793-17.595 5.14zm136.729 293.519c-4.76 4.759-6.171 11.852-3.596 18.07s8.589 10.236 15.32 10.236h311.157v29.215h-442.01c-9.704 0-17.6-7.896-17.6-17.601 0-4.703 1.829-9.122 5.151-12.443 3.321-3.322 7.74-5.151 12.443-5.151h31.586c6.949 0 12.603-5.653 12.603-12.603v-270.642h80.965l-43.407 183.321c-.955 4.031 1.539 8.072 5.569 9.026.581.138 1.163.204 1.734.204 3.397 0 6.476-2.324 7.292-5.773l44.768-189.07c7.897 7.837 17.816 13.636 28.897 16.537l-72.694 229.705c-1.095 3.464-4.606 5.528-8.172 4.782-3.893-.797-6.368-4.654-5.448-8.544l4.47-18.87c.955-4.03-1.538-8.072-5.569-9.026-4.029-.953-8.072 1.539-9.026 5.569l-4.471 18.871c-2.013 8.508 1.154 16.965 7.519 22.175l-6.724 20.727c-1.278 3.94.88 8.17 4.819 9.448 3.924 1.275 8.166-.866 9.448-4.819l6.611-20.381c9.393-.06 17.906-6.111 20.845-15.41l73.475-232.173c.377.007.751.029 1.13.029s.752-.022 1.129-.029l42.408 133.994z"/></g></g></svg>