<svg id="Capa_1" enable-background="new 0 0 512 512" height="512" viewBox="0 0 512 512" width="512" xmlns="http://www.w3.org/2000/svg"><g><g><g><path d="m504.5 70.186v428.318c0 2.899-2.35 5.249-5.249 5.249h-340.408c-2.899 0-5.249-2.35-5.249-5.249v-366.936l66.641-66.631h279.015c2.9 0 5.25 2.35 5.25 5.249z" fill="#db387e"/><path d="m499.251 64.937h-30c2.899 0 5.249 2.35 5.249 5.249v428.318c0 2.899-2.35 5.249-5.249 5.249h30c2.899 0 5.249-2.35 5.249-5.249v-428.318c0-2.899-2.35-5.249-5.249-5.249z" fill="#c4237c"/><path d="m447.811 13.497v428.318c0 2.899-2.35 5.249-5.249 5.249h-340.408c-2.899 0-5.248-2.35-5.248-5.249v-366.934l66.637-66.635h279.018c2.9.001 5.25 2.352 5.25 5.251z" fill="#ddebfd"/><path d="m442.562 8.247h-30c2.899 0 5.249 2.351 5.249 5.25v428.318c0 2.899-2.35 5.249-5.249 5.249h30c2.899 0 5.249-2.35 5.249-5.249v-428.318c0-2.899-2.35-5.25-5.249-5.25z" fill="#bed9fd"/><g fill="#db377e"><path d="m154.594 114.472v24.146c0 2.899 2.35 5.249 5.249 5.249h24.145c2.899 0 5.249-2.35 5.249-5.249v-24.146c0-2.899-2.35-5.249-5.249-5.249h-24.145c-2.899 0-5.249 2.35-5.249 5.249z"/><path d="m355.479 114.472v24.146c0 2.899 2.35 5.249 5.249 5.249h24.145c2.899 0 5.249-2.35 5.249-5.249v-24.146c0-2.899-2.35-5.249-5.249-5.249h-24.145c-2.899 0-5.249 2.35-5.249 5.249z"/><path d="m154.594 316.694v24.146c0 2.899 2.35 5.249 5.249 5.249h24.145c2.899 0 5.249-2.35 5.249-5.249v-24.146c0-2.899-2.35-5.249-5.249-5.249h-24.145c-2.899 0-5.249 2.35-5.249 5.249z"/><path d="m355.479 316.694v24.146c0 2.899 2.35 5.249 5.249 5.249h24.145c2.899 0 5.249-2.35 5.249-5.249v-24.146c0-2.899-2.35-5.249-5.249-5.249h-24.145c-2.899 0-5.249 2.35-5.249 5.249z"/></g><path d="m163.544 8.247-66.637 66.634h61.386c2.899 0 5.252-2.347 5.252-5.246v-61.388z" fill="#bed9fd"/><g><g><g><path d="m210.426 453.703c-42.858 0-137.27.003-137.27.003v-70.899s89.814-.001 137.27-.001c15.262 0 66.476 18.03 94.602 28.373 6.588 2.423 6.588 11.734 0 14.156-28.126 10.344-79.34 28.368-94.602 28.368z" fill="#5392f9"/><path d="m305.029 411.179c-9.929-3.662-22.746-8.275-35.835-12.711-23.981-8.119-48.89-15.662-58.767-15.662h-3.215c-11.342 7.701-18.802 20.705-18.802 35.447s7.46 27.749 18.802 35.45h3.215c9.877 0 34.786-7.545 58.767-15.664 13.089-4.436 25.906-9.052 35.835-12.703 6.591-2.428 6.591-11.74 0-14.157z" fill="#eec06b"/><path d="m305.029 425.336c-12.765 4.694-30.281 10.967-47.037 16.423v-47.004c16.756 5.456 34.272 11.73 47.037 16.424 6.588 2.423 6.588 11.734 0 14.157z" fill="#407194"/></g></g><path d="m48.095 371.82h19.631c3 0 5.431 2.432 5.431 5.431v82.012c0 3-2.432 5.431-5.431 5.431h-19.631c-3 0-5.431-2.432-5.431-5.431v-82.012c-.001-3 2.431-5.431 5.431-5.431z" fill="#9cd169"/><path d="m21.509 444.991h21.154v-53.468h-21.154c-7.737 0-14.009 6.272-14.009 14.009v25.449c0 7.737 6.272 14.01 14.009 14.01z" fill="#db387e"/></g></g></g><g><path d="m504.5 401.913c4.143 0 7.5-3.357 7.5-7.5v-324.223c0-7.033-5.717-12.755-12.744-12.755h-43.945v-43.934c0-7.032-5.717-12.754-12.744-12.754h-279.021c-1.989 0-3.896.79-5.304 2.196l-66.638 66.637c-1.407 1.407-2.197 3.314-2.197 5.304v73.8c0 4.143 3.359 7.5 7.5 7.5 4.143 0 7.5-3.358 7.5-7.5v-66.3h53.884c7.031 0 12.753-5.72 12.753-12.749v-53.888h269.266v423.817h-152.611c6.808-2.408 13.526-4.839 19.918-7.189 5.985-2.201 9.854-7.743 9.853-14.118 0-6.376-3.868-11.916-9.853-14.116-35.768-13.154-81.663-28.834-97.19-28.834h-106.019v-191.729c0-4.143-3.357-7.5-7.5-7.5s-7.5 3.357-7.5 7.5v191.729h-8.914c-.942-6.21-6.301-10.988-12.769-10.988h-19.63c-7.131 0-12.932 5.801-12.932 12.932v6.772h-13.653c-11.86 0-21.51 9.648-21.51 21.509v25.449c0 11.86 9.649 21.509 21.51 21.509h13.653v6.772c0 7.131 5.801 12.932 12.932 12.932h19.631c6.468 0 11.826-4.779 12.769-10.989h65.604v37.304c0 7.027 5.717 12.744 12.744 12.744h340.414c7.027 0 12.744-5.717 12.744-12.744v-69.201c0-4.143-3.357-7.5-7.5-7.5s-7.5 3.357-7.5 7.5v66.945h-335.903v-35.049h49.329c6.362 0 17.817-2.631 31.58-6.639h200.56c7.027 0 12.744-5.717 12.744-12.744v-369.385h41.689v321.978c0 4.142 3.357 7.499 7.5 7.499zm-389.485-334.531 41.03-41.028v41.028zm94.625 378.821c-8.636-6.679-13.729-16.97-13.729-27.949 0-10.978 5.094-21.269 13.729-27.947.834.142 5.238-1.397 40.853 9.923v36.055c-34.937 11.1-40.261 9.817-40.853 9.918zm-128.984.002v-20.45h100.838c1.109 7.364 3.827 14.336 7.916 20.45zm108.754-55.898c-4.088 6.115-6.807 13.084-7.916 20.448h-100.838v-20.448zm113.059 27.983s-.016.002-.029.007c-13.453 4.947-25.851 9.328-36.947 13.069v-26.215c11.101 3.745 23.509 8.131 36.978 13.086 0 .018-.001.035-.002.053zm-280.959 19.2c-3.59 0-6.51-2.92-6.51-6.509v-25.449c0-3.589 2.92-6.509 6.51-6.509h13.653v38.467zm44.146 19.704h-15.493v-77.875h15.493z"/><path d="m225.402 199.757c4.143 0 7.5-3.357 7.5-7.5v-6.196h31.956v90.691c0 4.143 3.357 7.5 7.5 7.5s7.5-3.357 7.5-7.5v-90.691h31.955v6.196c0 4.143 3.357 7.5 7.5 7.5s7.5-3.357 7.5-7.5v-9.805c0-6.281-5.11-11.392-11.392-11.392h-86.127c-6.282 0-11.393 5.11-11.393 11.392v9.805c.001 4.142 3.359 7.5 7.501 7.5z"/><path d="m159.843 303.945c-7.03 0-12.749 5.719-12.749 12.749v24.146c0 7.03 5.719 12.749 12.749 12.749h24.146c7.03 0 12.749-5.719 12.749-12.749v-5.905h151.242v5.905c0 7.03 5.719 12.749 12.749 12.749h24.145c7.03 0 12.749-5.719 12.749-12.749v-24.146c0-7.03-5.719-12.749-12.749-12.749h-4.576v-152.578h4.576c7.03 0 12.749-5.719 12.749-12.749v-24.146c0-7.03-5.719-12.749-12.749-12.749h-24.145c-7.03 0-12.749 5.719-12.749 12.749v4.567h-151.243v-4.567c0-7.03-5.719-12.749-12.749-12.749h-24.146c-7.03 0-12.749 5.719-12.749 12.749v24.146c0 7.03 5.719 12.749 12.749 12.749h4.569v152.578zm21.894 34.644h-19.644v-19.644h19.644zm200.885 0h-19.643v-19.644h19.643zm-19.643-221.865h19.643v19.644h-19.643zm-200.885 0h19.644v19.644h-19.644zm17.318 34.643h4.576c7.03 0 12.749-5.719 12.749-12.749v-4.578h151.242v4.578c0 7.03 5.719 12.749 12.749 12.749h4.568v152.578h-4.568c-7.03 0-12.749 5.719-12.749 12.749v3.24h-151.242v-3.24c0-7.03-5.719-12.749-12.749-12.749h-4.576z"/></g></g></svg>