<svg id="Capa_1" enable-background="new 0 0 512 512" height="512" viewBox="0 0 512 512" width="512" xmlns="http://www.w3.org/2000/svg"><g><g><g><path d="m504.5 69.626v429.609c0 2.908-2.357 5.265-5.265 5.265h-341.433c-2.908 0-5.265-2.357-5.265-5.265v-368.042l66.842-66.832h279.856c2.908 0 5.265 2.357 5.265 5.265z" fill="#5392f9"/><path d="m499.235 64.361h-30c2.908 0 5.265 2.357 5.265 5.265v429.609c0 2.907-2.357 5.265-5.265 5.265h30c2.908 0 5.265-2.357 5.265-5.265v-429.609c0-2.907-2.357-5.265-5.265-5.265z" fill="#4071f7"/><path d="m447.64 12.766v429.609c0 2.908-2.357 5.265-5.265 5.265h-341.433c-2.908 0-5.263-2.357-5.263-5.265v-368.039l66.837-66.836h279.859c2.908 0 5.265 2.358 5.265 5.266z" fill="#ddebfd"/><path d="m442.375 7.5h-30c2.908 0 5.265 2.358 5.265 5.266v429.609c0 2.908-2.357 5.265-5.265 5.265h30c2.908 0 5.265-2.357 5.265-5.265v-429.609c0-2.908-2.357-5.266-5.265-5.266z" fill="#bed9fd"/><path d="m162.516 7.5-66.838 66.836h61.571c2.908 0 5.267-2.354 5.267-5.262z" fill="#bed9fd"/><g><g><g><path d="m211.038 399.61c-42.987 0-137.684.003-137.684.003v-71.112s90.085-.001 137.684-.001c15.308 0 66.676 18.084 94.887 28.458 6.608 2.43 6.608 11.769 0 14.199-28.211 10.374-79.579 28.453-94.887 28.453z" fill="#5392f9"/><path d="m305.926 356.958c-9.959-3.673-22.815-8.299-35.943-12.749-24.053-8.144-49.037-15.709-58.944-15.709h-3.225c-11.376 7.724-18.858 20.768-18.858 35.554 0 14.787 7.482 27.832 18.858 35.556h3.225c9.907 0 34.891-7.568 58.944-15.712 13.128-4.45 25.984-9.079 35.943-12.742 6.611-2.434 6.611-11.774 0-14.198z" fill="#eec06b"/><path d="m305.926 371.157c-12.803 4.708-30.372 11-47.179 16.473v-47.146c16.806 5.473 34.376 11.766 47.179 16.474 6.607 2.43 6.607 11.769 0 14.199z" fill="#407194"/></g></g><path d="m48.217 317.479h19.69c3.009 0 5.448 2.439 5.448 5.448v82.259c0 3.009-2.439 5.448-5.448 5.448h-19.69c-3.009 0-5.448-2.439-5.448-5.448v-82.259c0-3.009 2.439-5.448 5.448-5.448z" fill="#eec06b"/><path d="m21.552 390.871h21.218v-53.629h-21.218c-7.761 0-14.052 6.291-14.052 14.052v25.525c0 7.761 6.291 14.052 14.052 14.052z" fill="#db387e"/></g></g></g><g><path d="m504.5 402.33c4.142 0 7.5-3.357 7.5-7.5v-325.2c0-7.041-5.724-12.77-12.76-12.77h-44.1v-44.09c0-7.041-5.724-12.77-12.76-12.77h-279.862c-2.003 0-3.907.804-5.303 2.196l-66.839 66.838c-1.323 1.326-2.196 3.249-2.196 5.304v74.022c0 4.143 3.358 7.5 7.5 7.5s7.5-3.358 7.5-7.5v-66.522h54.069c7.04 0 12.768-5.727 12.768-12.764v-54.074h270.123v425.14h-336.96v-33.028c1.705 0 97.825-.001 107.858-.001 15.576 0 61.605-15.724 97.477-28.914 5.994-2.205 9.867-7.756 9.866-14.14 0-6.385-3.874-11.934-9.867-14.138-35.874-13.193-81.907-28.919-97.476-28.919h-107.858v-137.64c0-4.143-3.358-7.5-7.5-7.5s-7.5 3.357-7.5 7.5v137.641h-7.485c-.935-6.227-6.305-11.021-12.788-11.021h-19.69c-7.14 0-12.948 5.809-12.948 12.947v6.815h-13.717c-11.884 0-21.552 9.668-21.552 21.552v25.525c0 11.884 9.668 21.552 21.552 21.552h13.718v6.815c0 7.139 5.808 12.947 12.948 12.947h19.689c6.483 0 11.853-4.795 12.788-11.021h7.485v35.267c0 7.036 5.724 12.76 12.76 12.76h44.1v44.101c0 7.036 5.724 12.76 12.76 12.76h341.44c7.036 0 12.76-5.724 12.76-12.76v-69.41c0-4.143-3.358-7.5-7.5-7.5s-7.5 3.357-7.5 7.5v67.17h-336.96v-41.86h282.34c7.036 0 12.76-5.724 12.76-12.76v-370.52h41.86v322.97c0 4.143 3.358 7.5 7.5 7.5zm-390.714-335.494 41.23-41.229v41.229zm76.213 269.164c-4.116 6.144-6.85 13.151-7.962 20.554h-101.183v-20.554zm61.248 9.957v36.2c-35.061 11.14-40.411 9.853-41.006 9.954-8.671-6.704-13.786-17.035-13.786-28.057 0-11.021 5.114-21.352 13.785-28.055.841.143 5.276-1.397 41.007 9.958zm-170.393 25.598h101.183c1.112 7.404 3.847 14.413 7.963 20.557-13.984 0-94.153.001-109.146.001zm222.527-7.541c.008.039.012.08.044.065-.01.006-.037.021-.087.039-13.506 4.966-25.953 9.364-37.09 13.119v-26.361c11.137 3.756 37.122 13.134 37.133 13.138zm-281.829 19.357c-3.613 0-6.552-2.939-6.552-6.552v-25.525c0-3.612 2.939-6.552 6.552-6.552h13.718v38.629zm44.302 19.763h-15.584v-78.154h15.585v78.154z"/><path d="m293.011 131.457h-104.019c-7.414 0-13.445 6.031-13.445 13.445v104.02c0 7.413 6.032 13.444 13.445 13.444h41.564c3.75 34.429 32.99 61.316 68.4 61.316 37.945 0 68.816-30.871 68.816-68.816 0-35.41-26.887-64.649-61.316-68.399v-41.565c0-7.414-6.032-13.445-13.445-13.445zm-102.465 15h100.909v40.01c-31.964 3.481-57.418 28.935-60.9 60.899h-40.009zm100.91 55.128v45.781h-45.782c3.317-23.682 22.099-42.463 45.782-45.781zm61.315 53.281c0 29.675-24.142 53.816-53.816 53.816-27.128 0-49.621-20.181-53.282-46.316h47.338c7.414 0 13.445-6.031 13.445-13.444v-47.337c26.135 3.662 46.315 26.153 46.315 53.281z"/></g></g></svg>