<svg id="Capa_1" enable-background="new 0 0 512 512" height="512" viewBox="0 0 512 512" width="512" xmlns="http://www.w3.org/2000/svg"><g><g><g><path d="m174.705 46.876v84.294h75.874v-84.294c0-3.024-2.452-5.476-5.476-5.476h-64.922c-3.024 0-5.476 2.452-5.476 5.476z" fill="#eec06b"/><path d="m245.103 41.4h-30c3.024 0 5.476 2.452 5.476 5.476v84.294h30v-84.294c.001-3.025-2.451-5.476-5.476-5.476z" fill="#e9a761"/><path d="m108.994 195.615c0-30.58 43.269-64.445 65.711-64.445h75.874c22.442 0 65.711 33.865 65.711 64.445-42.546 0-160.436 0-207.296 0z" fill="#ddebfd"/><path d="m250.58 131.17c-9.448 0-19.798 0-30 0 22.442 0 65.711 33.865 65.711 64.445h30c0-30.579-43.269-64.445-65.711-64.445z" fill="#bed9fd"/><path d="m250.579 60.278v37.005h34.814c3.024 0 5.476-2.452 5.476-5.476v-26.053c0-3.024-2.452-5.476-5.476-5.476z" fill="#407194"/><path d="m74.702 201.091v29.028c0 3.024 2.452 5.476 5.476 5.476h264.928c3.024 0 5.476-2.452 5.476-5.476v-29.028c0-3.024-2.452-5.476-5.476-5.476h-264.928c-3.024 0-5.476 2.452-5.476 5.476z" fill="#5392f9"/><path d="m345.107 195.615h-30c3.024 0 5.476 2.452 5.476 5.476v29.028c0 3.024-2.452 5.476-5.476 5.476h30c3.024 0 5.476-2.452 5.476-5.476v-29.028c-.001-3.024-2.452-5.476-5.476-5.476z" fill="#4071f7"/><path d="m92.892 235.595v263.905c0 2.761 2.239 5 5 5h229.5c2.761 0 5-2.239 5-5v-263.905z" fill="#ddebfd"/><path d="m302.392 235.595v263.905c0 2.761-2.239 5-5 5h30c2.761 0 5-2.239 5-5v-263.905z" fill="#bed9fd"/><path d="m92.892 316.951h14.708c18.332 0 33.192 14.86 33.192 33.192v42.331c0 13.227 10.723 23.95 23.95 23.95s23.95-10.723 23.95-23.95v-60.594c0-13.227 10.723-23.95 23.95-23.95s23.95 10.722 23.95 23.95v15.881c0 13.227 10.723 23.95 23.95 23.95s23.95-10.723 23.95-23.95v-38.071c0-13.157 10.666-23.822 23.823-23.822h24.077v-50.272h-239.5z" fill="#9cd169"/><path d="m308.315 285.867h24.077v-50.272h-30v51.015c1.894-.485 3.878-.743 5.923-.743z" fill="#68b181"/><path d="m240.332 416.423h92.06v48.83h-92.06c-2.761 0-5-2.239-5-5v-38.83c0-2.761 2.239-5 5-5z" fill="#5392f9"/><path d="m302.392 416.423h30v48.83h-30z" fill="#4071f7"/></g></g><g><path d="m345.107 188.116h-22.013c-5.216-28.764-39.691-58.313-65.015-63.604v-19.729h27.314c7.154 0 12.976-5.821 12.976-12.976v-26.053c0-7.155-5.821-12.977-12.976-12.977h-27.313v-5.902c0-7.154-5.821-12.976-12.976-12.976h-64.922c-7.155 0-12.976 5.821-12.976 12.976v77.637c-24.954 5.214-59.724 34.427-65.015 63.604h-22.013c-7.155 0-12.976 5.821-12.976 12.976v29.028c0 7.154 5.821 12.976 12.976 12.976h5.214v109.453c0 4.143 3.358 7.5 7.5 7.5s7.5-3.357 7.5-7.5v-28.097h7.208c14.167 0 25.692 11.525 25.692 25.691v42.331c0 17.341 14.108 31.449 31.45 31.449s31.45-14.108 31.45-31.449v-60.595c0-9.07 7.379-16.449 16.45-16.449s16.45 7.379 16.45 16.449v15.881c0 17.342 14.108 31.45 31.45 31.45 12.997 0 24.819-8.164 29.42-20.315 1.466-3.874-.485-8.203-4.359-9.67-3.872-1.468-8.203.486-9.67 4.359-2.405 6.355-8.591 10.626-15.391 10.626-9.071 0-16.45-7.38-16.45-16.45v-15.881c0-17.341-14.108-31.449-31.45-31.449-17.341 0-31.45 14.108-31.45 31.449v60.595c0 9.07-7.379 16.449-16.45 16.449-9.07 0-16.45-7.379-16.45-16.449v-42.331c0-22.438-18.254-40.691-40.692-40.691h-7.208v-66.356h224.5v35.272h-16.577c-17.271 0-31.322 14.051-31.322 31.322v11.896c0 4.143 3.357 7.5 7.5 7.5s7.5-3.357 7.5-7.5v-11.896c0-9 7.322-16.322 16.322-16.322h16.577v115.556h-84.56c-6.893 0-12.5 5.607-12.5 12.5v38.83c0 6.893 5.607 12.5 12.5 12.5h84.56v24.246h-224.5v-109.452c0-4.143-3.358-7.5-7.5-7.5s-7.5 3.357-7.5 7.5v111.952c0 6.893 5.607 12.5 12.5 12.5h229.5c6.893 0 12.5-5.607 12.5-12.5v-256.405h5.215c7.155 0 12.976-5.821 12.976-12.976v-29.028c-.001-7.154-5.821-12.975-12.976-12.975zm-102.275 269.637v-33.83h82.06v33.83zm40.538-389.975v22.005h-25.29v-22.005zm-101.165-18.878h60.875v74.771h-60.875zm-43.748 108.595c12.286-11.084 27.192-18.824 36.248-18.824h75.875c16.71 0 50.603 24.886 57.144 49.445h-190.163c2.619-9.834 10.012-20.803 20.896-30.621zm204.625 70.6h-260.88v-24.979h260.88z"/><path d="m362.359 71.281h-4.41c-4.143 0-7.5 3.357-7.5 7.5s3.357 7.5 7.5 7.5h4.41c4.143 0 7.5-3.357 7.5-7.5s-3.358-7.5-7.5-7.5z"/><path d="m407.329 78.781c0-4.143-3.357-7.5-7.5-7.5h-4.41c-4.143 0-7.5 3.357-7.5 7.5s3.357 7.5 7.5 7.5h4.41c4.142 0 7.5-3.358 7.5-7.5z"/><path d="m437.298 71.281h-4.41c-4.143 0-7.5 3.357-7.5 7.5s3.357 7.5 7.5 7.5h4.41c4.143 0 7.5-3.357 7.5-7.5s-3.357-7.5-7.5-7.5z"/><path d="m345.935 54.676c1.272 0 2.562-.324 3.742-1.005l3.82-2.205c3.588-2.071 4.817-6.658 2.747-10.245-2.072-3.589-6.659-4.814-10.245-2.747l-3.82 2.205c-3.588 2.071-4.817 6.658-2.747 10.245 1.39 2.407 3.911 3.752 6.503 3.752z"/><path d="m378.385 35.942c1.272 0 2.562-.324 3.742-1.005l3.82-2.205c3.588-2.071 4.817-6.658 2.747-10.245-2.072-3.589-6.659-4.814-10.245-2.747l-3.82 2.205c-3.588 2.071-4.817 6.658-2.747 10.245 1.39 2.407 3.911 3.752 6.503 3.752z"/><path d="m410.899 1.004-3.82 2.205c-3.588 2.071-4.817 6.658-2.747 10.245 1.39 2.407 3.911 3.752 6.503 3.752 1.272 0 2.562-.324 3.742-1.005l3.82-2.205c3.588-2.071 4.817-6.658 2.747-10.245-2.072-3.588-6.659-4.814-10.245-2.747z"/><path d="m342.179 116.881 3.82 2.205c3.601 2.079 8.183.824 10.245-2.747 2.07-3.587.841-8.174-2.747-10.245l-3.82-2.205c-3.586-2.071-8.174-.841-10.245 2.747-2.07 3.587-.841 8.174 2.747 10.245z"/><path d="m385.95 124.83-3.82-2.206c-3.59-2.07-8.175-.843-10.246 2.744-2.071 3.588-.843 8.175 2.744 10.246l3.82 2.206c3.582 2.066 8.17.849 10.246-2.744 2.071-3.587.843-8.174-2.744-10.246z"/><path d="m418.397 143.564-3.82-2.205c-3.586-2.071-8.174-.842-10.245 2.747-2.07 3.587-.841 8.174 2.747 10.245l3.82 2.205c3.601 2.079 8.183.824 10.245-2.747 2.07-3.587.841-8.174-2.747-10.245z"/></g></g></svg>