<svg id="Capa_1" enable-background="new 0 0 512 512" height="512" viewBox="0 0 512 512" width="512" xmlns="http://www.w3.org/2000/svg"><g><g><g><path d="m475.748 69.161h-272.774c-2.761 0-5 2.239-5 5v308.645h282.773v-308.645c.001-2.761-2.238-5-4.999-5z" fill="#ddebfd"/><path d="m475.748 69.161h-30c2.761 0 5 2.239 5 5v308.645h30v-308.645c0-2.761-2.239-5-5-5z" fill="#bed9fd"/><path d="m371.182 69.161h-63.642v-28.022c0-2.761 2.239-5 5-5h53.642c2.761 0 5 2.239 5 5z" fill="#407194"/><path d="m499.5 420.161h-320.278c-2.761 0-5-2.239-5-5v-27.355c0-2.761 2.239-5 5-5h320.278c2.761 0 5 2.239 5 5v27.355c0 2.762-2.239 5-5 5z" fill="#407194"/><path d="m499.5 382.806h-30c2.761 0 5 2.239 5 5v27.355c0 2.762-2.239 5-5 5h30c2.761 0 5-2.238 5-5v-27.355c0-2.761-2.239-5-5-5z" fill="#365f7e"/><path d="m261.929 271.258c0 18.23 6.303 34.987 16.846 48.215 4.687 5.881 11.829 9.271 19.35 9.271h82.473c7.521 0 14.662-3.39 19.35-9.271 10.543-13.228 16.846-29.984 16.846-48.215 0-27.853-18.436-47.558-36.785-65.904-14.983-14.981-8.733-39.067 8.667-55.651 2.331-2.222 3.659-5.297 3.659-8.518v-9.592c0-4.623-3.747-8.37-8.37-8.37h-89.207c-4.622 0-8.37 3.747-8.37 8.37v9.592c0 3.221 1.328 6.295 3.659 8.518 17.401 16.585 23.651 40.671 8.668 55.651-18.35 18.346-36.786 38.051-36.786 65.904z" fill="#5392f9"/><path d="m380.007 205.354c-14.983-14.98-8.733-39.066 8.667-55.651 2.331-2.222 3.659-5.297 3.659-8.518v-9.592c0-4.623-3.747-8.37-8.37-8.37h-30c4.623 0 8.37 3.747 8.37 8.37v9.592c0 3.221-1.328 6.295-3.659 8.518-17.4 16.584-23.651 40.67-8.667 55.651 18.349 18.346 36.785 38.051 36.785 65.904 0 18.23-6.303 34.986-16.846 48.215-4.687 5.881-11.829 9.271-19.35 9.271h30c7.521 0 14.662-3.39 19.35-9.271 10.543-13.229 16.846-29.984 16.846-48.215 0-27.853-18.435-47.558-36.785-65.904z" fill="#4071f7"/><path d="m31.724 186.079c0 15.273 6.607 29 17.116 38.488h69.454c10.509-9.488 17.116-23.215 17.116-38.488 0-18.649-12.343-31.841-24.629-44.125-10.032-10.03-5.847-26.156 5.803-37.26 1.561-1.488 2.45-3.546 2.45-5.703v-6.421c0-3.095-2.509-5.604-5.604-5.604h-59.726c-3.095 0-5.604 2.509-5.604 5.604v6.422c0 2.156.889 4.215 2.45 5.703 11.65 11.104 15.835 27.23 5.803 37.26-12.286 12.283-24.629 25.476-24.629 44.124z" fill="#5392f9"/><path d="m110.781 141.955c-10.032-10.03-5.847-26.156 5.803-37.26 1.561-1.488 2.45-3.546 2.45-5.703v-6.422c0-3.095-2.509-5.604-5.604-5.604h-30c3.095 0 5.604 2.509 5.604 5.604v6.422c0 2.156-.889 4.215-2.45 5.703-11.65 11.104-15.835 27.23-5.803 37.26 12.285 12.283 24.629 25.476 24.629 44.125 0 15.273-6.607 29-17.116 38.489h30c10.509-9.488 17.116-23.216 17.116-38.489-.001-18.649-12.344-31.842-24.629-44.125z" fill="#4071f7"/><path d="m139.664 258.607h-111.056c-2.824 0-5.113-2.289-5.113-5.113v-28.926h121.283v28.926c0 2.824-2.289 5.113-5.114 5.113z" fill="#eec06b"/><path d="m114.778 224.568v28.926c0 2.824-2.289 5.113-5.113 5.113h30c2.824 0 5.113-2.289 5.113-5.113v-28.926z" fill="#e9a761"/></g></g><g><path d="m499.5 375.305h-11.253v-301.144c0-6.893-5.607-12.5-12.5-12.5h-97.065v-20.523c0-6.893-5.607-12.5-12.5-12.5h-19.322v-19.899c0-4.143-3.357-7.5-7.5-7.5s-7.5 3.357-7.5 7.5v19.899h-19.32c-6.893 0-12.5 5.607-12.5 12.5v20.522h-97.066c-6.893 0-12.5 5.607-12.5 12.5v78.207c0 4.143 3.357 7.5 7.5 7.5s7.5-3.357 7.5-7.5v-75.706h267.773v298.645h-267.773v-187.938c0-4.143-3.357-7.5-7.5-7.5s-7.5 3.357-7.5 7.5v187.938h-11.252c-6.893 0-12.5 5.607-12.5 12.5v27.355c0 6.893 5.607 12.5 12.5 12.5h48.725l-7.397 74.862c-.407 4.122 2.604 7.794 6.727 8.201.251.024.499.037.746.037 3.811 0 7.072-2.893 7.455-6.764l3.437-34.787h200.892l3.437 34.787c.383 3.872 3.645 6.764 7.455 6.764.246 0 .496-.013.746-.037 4.122-.407 7.134-4.079 6.727-8.201l-7.397-74.862h48.725c6.893 0 12.5-5.607 12.5-12.5v-27.355c0-6.893-5.607-12.501-12.5-12.501zm-184.46-331.667h48.642v18.022h-48.642zm181.96 369.023h-103.47c-4.143 0-7.5 3.357-7.5 7.5s3.357 7.5 7.5 7.5h42.171l2.623 26.55h-197.927l2.623-26.55h115.51c4.143 0 7.5-3.357 7.5-7.5s-3.357-7.5-7.5-7.5h-176.808v-22.355h315.278z"/><path d="m254.43 271.257c0 19.432 6.391 37.721 18.479 52.89 6.128 7.687 15.317 12.096 25.215 12.096h82.474c9.897 0 19.087-4.409 25.215-12.097 12.09-15.17 18.479-33.459 18.479-52.889 0-32.234-22.531-54.761-38.982-71.208-4.214-4.214-6.313-9.471-6.24-15.625.115-9.632 5.641-20.582 14.78-29.294 3.803-3.625 5.984-8.708 5.984-13.946v-9.592c0-8.751-7.119-15.87-15.87-15.87h-89.206c-8.751 0-15.87 7.119-15.87 15.87v9.592c0 5.238 2.182 10.321 5.984 13.946 9.141 8.712 14.666 19.663 14.78 29.295.074 6.153-2.025 11.41-6.24 15.624-16.451 16.448-38.982 38.974-38.982 71.208zm40.792-126.984c-.848-.809-1.334-1.934-1.334-3.089v-9.592c0-.479.391-.87.87-.87h89.206c.479 0 .87.391.87.87v9.592c0 1.155-.486 2.28-1.334 3.089-12.183 11.611-19.265 26.182-19.43 39.973-.122 10.201 3.555 19.334 10.634 26.411 18.924 18.92 34.588 36.539 34.588 60.601 0 15.998-5.26 31.055-15.21 43.54-3.265 4.096-8.18 6.445-13.484 6.445h-82.474c-5.305 0-10.22-2.35-13.484-6.445-9.95-12.484-15.21-27.541-15.21-43.54 0-24.062 15.664-41.681 34.588-60.601 7.079-7.077 10.756-16.21 10.634-26.41-.165-13.792-7.247-28.362-19.43-39.974z"/><path d="m160.772 217.067h-26.634c5.662-9.248 8.771-19.962 8.771-30.988 0-22.608-15.504-38.109-26.825-49.429-2.332-2.332-3.494-5.252-3.453-8.68.069-5.795 3.481-12.467 9.129-17.849 3.034-2.894 4.774-6.95 4.774-11.131v-6.422c0-7.226-5.879-13.104-13.104-13.104h-59.727c-7.226 0-13.104 5.878-13.104 13.104v6.422c0 4.181 1.74 8.237 4.775 11.132 5.646 5.382 9.059 12.054 9.128 17.849.041 3.428-1.121 6.347-3.453 8.679-11.321 11.319-26.825 26.82-26.825 49.429 0 11.027 3.109 21.741 8.771 30.988h-25.495c-4.143 0-7.5 3.357-7.5 7.5s3.357 7.5 7.5 7.5h8.495v21.426c0 6.955 5.658 12.613 12.613 12.613h5.653v34.301c0 4.143 3.357 7.5 7.5 7.5s7.5-3.357 7.5-7.5v-34.301h69.749v34.301c0 4.143 3.357 7.5 7.5 7.5s7.5-3.357 7.5-7.5v-34.301h5.653c6.955 0 12.614-5.658 12.614-12.613v-21.426h8.494c4.143 0 7.5-3.357 7.5-7.5s-3.356-7.5-7.499-7.5zm-121.547-30.988c0-15.16 10.158-26.551 22.431-38.821 5.223-5.221 7.936-11.952 7.847-19.465-.119-9.897-5.141-20.296-13.776-28.526-.08-.076-.126-.177-.126-.275v-4.525h55.935v4.525c0 .099-.046.199-.125.274-8.637 8.231-13.658 18.629-13.777 28.525-.09 7.514 2.624 14.245 7.847 19.467 12.272 12.271 22.431 23.661 22.431 38.821 0 11.592-4.582 22.731-12.644 30.988h-63.399c-8.063-8.257-12.644-19.397-12.644-30.988zm98.053 65.027h-106.283v-19.039h106.283z"/></g></g></svg>