<svg id="Capa_1" enable-background="new 0 0 512 512" height="512" viewBox="0 0 512 512" width="512" xmlns="http://www.w3.org/2000/svg"><g><g><g><path d="m85.18 172.092h29.24v-65.862h-29.24c-5.523 0-10 4.477-10 10v45.862c0 5.523 4.477 10 10 10z" fill="#407194"/><path d="m85.18 279.272h29.24v-65.862h-29.24c-5.523 0-10 4.477-10 10v45.862c0 5.523 4.477 10 10 10z" fill="#407194"/><path d="m106.82 22.5v467c0 8.284 6.716 15 15 15h300c8.284 0 15-6.716 15-15v-467c0-8.284-6.716-15-15-15h-300c-8.284 0-15 6.716-15 15z" fill="#ddebfd"/><path d="m106.82 439.822v49.678c0 8.284 6.716 15 15 15h300c8.284 0 15-6.716 15-15v-49.678z" fill="#407194"/><path d="m421.82 7.5h-30c8.284 0 15 6.716 15 15v467c0 8.284-6.716 15-15 15h30c8.284 0 15-6.716 15-15v-467c0-8.284-6.716-15-15-15z" fill="#bed9fd"/><path d="m421.82 7.5h-300c-8.284 0-15 6.716-15 15v49.678h330v-49.678c0-8.284-6.716-15-15-15z" fill="#407194"/><g fill="#365f7e"><path d="m406.82 489.5c0 8.284-6.716 15-15 15h30c8.284 0 15-6.716 15-15v-49.678h-30z"/><path d="m421.82 7.5h-30c8.284 0 15 6.716 15 15v49.678h30v-49.678c0-8.284-6.716-15-15-15z"/></g><g><path d="m365.88 209.487h-188.12c-5.523 0-10-4.477-10-10v-72.681c0-5.523 4.477-10 10-10h188.12c5.523 0 10 4.477 10 10v72.681c0 5.523-4.477 10-10 10z" fill="#5392f9"/><path d="m370.88 281.038h-198.12c-2.761 0-5-2.239-5-5v-21.317c0-2.761 2.239-5 5-5h198.12c2.761 0 5 2.239 5 5v21.317c0 2.762-2.239 5-5 5z" fill="#db387e"/></g></g></g><g><path d="m421.82 0h-300c-12.407 0-22.5 10.093-22.5 22.5v76.23h-14.14c-9.649 0-17.5 7.851-17.5 17.5v45.86c0 9.649 7.851 17.5 17.5 17.5h14.14v26.32h-14.14c-9.649 0-17.5 7.851-17.5 17.5v45.86c0 9.649 7.851 17.5 17.5 17.5h14.14v202.73c0 12.407 10.093 22.5 22.5 22.5h36.479c4.142 0 7.5-3.358 7.5-7.5s-3.358-7.5-7.5-7.5h-36.479c-4.136 0-7.5-3.364-7.5-7.5v-42.178h315v42.178c0 4.135-3.364 7.5-7.5 7.5h-228.521c-4.142 0-7.5 3.358-7.5 7.5s3.358 7.5 7.5 7.5h228.521c12.406 0 22.5-10.093 22.5-22.5v-347.926c0-4.142-3.357-7.5-7.5-7.5s-7.5 3.358-7.5 7.5v290.749h-315v-352.645h315v26.896c0 4.142 3.357 7.5 7.5 7.5s7.5-3.358 7.5-7.5v-84.074c0-12.407-10.094-22.5-22.5-22.5zm-336.64 164.59c-1.378 0-2.5-1.122-2.5-2.5v-45.86c0-1.378 1.122-2.5 2.5-2.5h14.14v50.86zm0 107.18c-1.378 0-2.5-1.122-2.5-2.5v-45.86c0-1.378 1.122-2.5 2.5-2.5h14.14v50.86zm29.14-207.092v-42.178c0-4.136 3.364-7.5 7.5-7.5h300c4.136 0 7.5 3.364 7.5 7.5v42.178z"/><path d="m295.616 479.661c4.143 0 7.5-3.358 7.5-7.5s-3.357-7.5-7.5-7.5h-47.592c-4.142 0-7.5 3.358-7.5 7.5s3.358 7.5 7.5 7.5z"/><path d="m281.82 32.339h-20c-4.143 0-7.5 3.358-7.5 7.5s3.357 7.5 7.5 7.5h20c4.143 0 7.5-3.358 7.5-7.5s-3.357-7.5-7.5-7.5z"/><path d="m383.38 126.806c0-9.386-7.694-17.5-17.5-17.5h-188.12c-9.834 0-17.5 8.151-17.5 17.5v72.681c0 9.366 7.692 17.5 17.5 17.5h188.12c9.794 0 17.5-8.129 17.5-17.5zm-208.12 1.555 78.122 34.786-78.122 34.786zm27.768-4.055h137.584l-68.792 30.632zm68.792 47.051 68.788 30.63h-137.576zm18.438-8.21 78.122-34.786v69.572z"/><path d="m383.38 254.721c0-6.893-5.607-12.5-12.5-12.5h-198.12c-6.893 0-12.5 5.607-12.5 12.5v21.317c0 6.893 5.607 12.5 12.5 12.5h198.12c6.893 0 12.5-5.607 12.5-12.5zm-15 18.817h-193.12v-16.317h193.12z"/><path d="m167.76 345.617h104.06c4.143 0 7.5-3.358 7.5-7.5s-3.357-7.5-7.5-7.5h-104.06c-4.142 0-7.5 3.358-7.5 7.5s3.358 7.5 7.5 7.5z"/><path d="m167.76 402.694h208.12c4.143 0 7.5-3.358 7.5-7.5s-3.357-7.5-7.5-7.5h-208.12c-4.142 0-7.5 3.358-7.5 7.5s3.358 7.5 7.5 7.5z"/></g></g></svg>