<svg id="Capa_1" enable-background="new 0 0 512 512" height="512" viewBox="0 0 512 512" width="512" xmlns="http://www.w3.org/2000/svg"><g><g><g><path d="m91.395 72.989c0-23.167-18.781-41.948-41.948-41.948-23.166.001-41.947 18.781-41.947 41.948v361.816c0 2.971 2.408 5.379 5.379 5.379h330.104c2.971 0 5.379-2.408 5.379-5.379v-361.816z" fill="#ddebfd"/><path d="m318.362 72.989v361.815c0 2.971-2.408 5.379-5.379 5.379h30c2.971 0 5.379-2.408 5.379-5.379v-361.815z" fill="#bed9fd"/></g><path d="m311.928 330.761v145.197c0 2.761 2.239 5 5 5h42.867c2.761 0 5-2.239 5-5v-145.197z" fill="#eec06b"/><path d="m334.795 330.761v145.198c0 2.761-2.239 5-5 5h30c2.761 0 5-2.239 5-5v-145.198z" fill="#e9a761"/><path d="m172.224 219.705v38.832c0 5.941 4.816 10.757 10.757 10.757h87.479c4.574 0 8.649 2.893 10.156 7.212l16.018 45.881c1.751 5.014 6.481 8.373 11.792 8.373h59.872c5.311 0 10.041-3.359 11.792-8.373l16.018-45.881c1.508-4.319 5.582-7.212 10.156-7.212h87.479c5.941 0 10.757-4.816 10.757-10.757v-38.832z" fill="#5392f9"/><g fill="#4071f7"><path d="m366.107 276.507-16.018 45.881c-1.75 5.014-6.481 8.373-11.792 8.373h30c5.311 0 10.041-3.358 11.792-8.373l16.018-45.881c1.508-4.319 5.582-7.212 10.156-7.212h-30c-4.574 0-8.648 2.892-10.156 7.212z"/><path d="m474.5 219.705v38.832c0 5.941-4.816 10.758-10.757 10.758h30c5.941 0 10.757-4.816 10.757-10.758v-38.832z"/></g><path d="m172.224 219.705h332.276v-19.527c0-11.882-9.633-21.515-21.515-21.515h-289.247c-11.882 0-21.515 9.633-21.515 21.515v19.527z" fill="#db387e"/><path d="m482.985 178.663h-30c11.882 0 21.515 9.632 21.515 21.515v19.527h30v-19.527c0-11.883-9.633-21.515-21.515-21.515z" fill="#c4237c"/><path d="m422.261 72.987c0 10.484-3.847 20.068-10.197 27.42-2.001 2.316-4.958 3.583-8.019 3.583h-314.812c-4.246 0-6.833-4.699-4.529-8.265 4.231-6.55 6.689-14.356 6.689-22.738 0-23.161-18.782-41.943-41.943-41.943h330.856c23.172 0 41.955 18.782 41.955 41.943z" fill="#bed9fd"/><path d="m380.307 31.044h-30c23.172 0 41.954 18.782 41.954 41.943 0 10.484-3.847 20.068-10.197 27.42-2.001 2.316-4.958 3.583-8.019 3.583h30c3.061 0 6.018-1.267 8.019-3.583 6.35-7.352 10.197-16.936 10.197-27.42 0-23.161-18.782-41.943-41.954-41.943z" fill="#9ec8fc"/></g><path d="m482.985 171.162h-35.938c-4.143 0-7.5 3.357-7.5 7.5s3.357 7.5 7.5 7.5h35.938c7.728 0 14.015 6.287 14.015 14.016v12.027h-317.276v-12.027c0-7.729 6.287-14.016 14.015-14.016h218.309c4.143 0 7.5-3.357 7.5-7.5s-3.357-7.5-7.5-7.5h-56.188v-59.672h48.185c5.311 0 10.302-2.253 13.694-6.181 7.752-8.974 12.021-20.453 12.021-32.322 0-27.264-22.185-49.443-49.454-49.443h-330.82c-.013 0-.025-.002-.039-.002-27.265 0-49.447 22.182-49.447 49.447v204.269c0 4.143 3.357 7.5 7.5 7.5s7.5-3.357 7.5-7.5v-204.269c0-18.986 15.44-34.434 34.423-34.447l.027.001c18.992 0 34.443 15.451 34.443 34.443 0 6.653-1.898 13.109-5.49 18.669-2.552 3.951-2.738 8.976-.486 13.11 2.259 4.147 6.595 6.724 11.316 6.724h251.627v59.672h-147.122c-15.999 0-29.015 13.017-29.015 29.016v58.359c0 10.067 8.19 18.258 18.258 18.258h87.479c1.384 0 2.619.878 3.075 2.184l16.018 45.882c2.35 6.728 8.076 11.589 14.875 12.981v94.838h-289.428v-120.419c0-4.143-3.357-7.5-7.5-7.5s-7.5 3.357-7.5 7.5v122.54c0 7.102 5.778 12.88 12.88 12.88h291.548v28.278c0 6.893 5.607 12.5 12.5 12.5h42.868c6.893 0 12.5-5.607 12.5-12.5v-138.116c6.799-1.392 12.525-6.253 14.875-12.982l16.018-45.881c.456-1.306 1.691-2.184 3.075-2.184h87.479c10.067 0 18.258-8.19 18.258-18.258v-58.359c-.001-15.999-13.017-29.016-29.016-29.016zm-398.094-132.618h295.416c18.998 0 34.454 15.451 34.454 34.443 0 8.27-2.974 16.267-8.373 22.518-.533.617-1.409.985-2.343.985h-311.084c3.892-7.194 5.933-15.244 5.933-23.503 0-13.379-5.341-25.533-14.003-34.443zm234.537 434.914c0-16.185 0-114.002 0-135.197h37.868v135.197zm177.572-214.921c0 1.796-1.462 3.258-3.258 3.258h-87.479c-7.755 0-14.682 4.919-17.237 12.24l-16.018 45.88c-.698 2.001-2.592 3.346-4.711 3.346h-59.872c-2.119 0-4.013-1.345-4.711-3.345l-16.018-45.881c-2.556-7.321-9.482-12.24-17.237-12.24h-87.479c-1.796 0-3.258-1.462-3.258-3.258v-31.332h317.278z"/></g></svg>