<svg id="Capa_1" enable-background="new 0 0 512 512" height="512" viewBox="0 0 512 512" width="512" xmlns="http://www.w3.org/2000/svg"><g><g><g><path d="m437.358 17.966v380.602h-362.716v-314.658l76.409-76.41h275.842c5.78 0 10.465 4.686 10.465 10.466z" fill="#ddebfd"/><path d="m426.893 7.5h-32c5.78 0 10.466 4.686 10.466 10.466v380.602h32v-380.602c-.001-5.78-4.686-10.466-10.466-10.466z" fill="#bed9fd"/><path d="m437.358 229.428-62.143 62.143c-3.864 3.864-10.086 3.996-14.111.299l-132.22-121.463c-7.039-6.466-17.856-6.466-24.895 0l-129.347 118.822v109.338h362.717v-169.139z" fill="#5392f9"/><path d="m405.358 398.568h32v-169.14l-32 32z" fill="#4071f7"/><path d="m333.206 367.105-36.15-32.69c-1.838-1.662-4.229-2.583-6.707-2.583h-232.289c-5.523 0-10 4.477-10 10v152.668c0 5.523 4.477 10 10 10h395.88c5.523 0 10-4.477 10-10v-114.812c0-5.523-4.477-10-10-10h-114.026c-2.479 0-4.869-.921-6.708-2.583z" fill="#eec06b"/><g fill="#e9a761"><path d="m453.94 369.688h-32c5.523 0 10 4.477 10 10v114.812c0 5.523-4.477 10-10 10h32c5.523 0 10-4.477 10-10v-114.812c0-5.523-4.478-10-10-10z"/><path d="m301.206 367.105c1.838 1.663 4.229 2.583 6.707 2.583h32c-2.479 0-4.869-.92-6.707-2.583l-36.15-32.69c-1.838-1.663-4.229-2.583-6.707-2.583h-32c2.479 0 4.869.92 6.707 2.583z"/></g><path d="m151.051 7.5-76.41 76.409h65.944c5.78 0 10.466-4.686 10.466-10.466z" fill="#bed9fd"/><circle cx="349.487" cy="116.794" fill="#eec06b" r="32.719"/></g></g><g><path d="m286.985 412.361c4.142 0 7.5-3.357 7.5-7.5s-3.358-7.5-7.5-7.5h-26.32c-4.142 0-7.5 3.357-7.5 7.5v62.465c0 4.143 3.358 7.5 7.5 7.5h26.32c4.142 0 7.5-3.357 7.5-7.5s-3.358-7.5-7.5-7.5h-18.82v-16.232h16.879c4.142 0 7.5-3.357 7.5-7.5s-3.358-7.5-7.5-7.5h-16.879v-16.232h18.82z"/><path d="m351.643 412.074c4.814 0 9.457 1.417 13.425 4.098 3.433 2.318 8.094 1.416 10.413-2.017s1.416-8.095-2.017-10.413c-6.458-4.362-14.003-6.668-21.821-6.668-21.516 0-39.02 17.504-39.02 39.02s17.504 39.02 39.02 39.02c20.437 0 34.709-16.046 34.709-39.02 0-4.143-3.358-7.5-7.5-7.5h-18.858c-4.142 0-7.5 3.357-7.5 7.5s3.358 7.5 7.5 7.5h10.547c-1.947 8.692-7.583 16.52-18.898 16.52-13.245 0-24.02-10.775-24.02-24.02s10.775-24.02 24.02-24.02z"/><path d="m191.383 397.074c-4.142 0-7.5 3.357-7.5 7.5v63.039c0 4.143 3.358 7.5 7.5 7.5s7.5-3.357 7.5-7.5v-19.923c3.622-.019 7.68-.037 9.992-.037 14.137 0 25.638-11.345 25.638-25.289 0-13.945-11.501-25.29-25.638-25.29zm28.13 25.29c0 5.577-4.872 10.289-10.638 10.289-2.313 0-6.365.018-9.992.036v-20.615h9.992c5.767 0 10.638 4.712 10.638 10.29z"/><path d="m453.939 362.188h-9.08v-344.218c0-9.908-8.061-17.97-17.97-17.97h-275.838c-2.05 0-3.93.828-5.303 2.196l-76.411 76.41c-1.332 1.327-2.197 3.252-2.197 5.304v81.649c0 4.143 3.358 7.5 7.5 7.5s7.5-3.357 7.5-7.5v-74.149h58.445c9.906 0 17.965-8.06 17.965-17.967v-58.443h268.34c1.638 0 2.97 1.332 2.97 2.97v208.35l-59.947 59.948c-1.026 1.026-2.665 1.061-3.734.079l-132.222-121.463c-9.988-9.176-25.054-9.176-35.042 0l-116.775 107.273v-71.597c0-4.143-3.358-7.5-7.5-7.5s-7.5 3.357-7.5 7.5v123.772h-9.08c-9.649 0-17.5 7.851-17.5 17.5v152.668c0 9.649 7.851 17.5 17.5 17.5h320.792c4.142 0 7.5-3.357 7.5-7.5s-3.358-7.5-7.5-7.5h-320.791c-1.378 0-2.5-1.121-2.5-2.5v-152.668c0-1.379 1.122-2.5 2.5-2.5h232.289c.621 0 1.216.229 1.677.646l36.15 32.691c3.223 2.914 7.391 4.519 11.737 4.519h97.388c.02 0 .038.003.058.003s.038-.003.058-.003h16.522c1.378 0 2.5 1.121 2.5 2.5v114.812c0 1.379-1.122 2.5-2.5 2.5h-40.087c-4.142 0-7.5 3.357-7.5 7.5s3.358 7.5 7.5 7.5h40.087c9.649 0 17.5-7.851 17.5-17.5v-114.812c-.001-9.65-7.851-17.5-17.501-17.5zm-313.354-285.778h-47.838l50.804-50.804v47.837c0 1.636-1.33 2.967-2.966 2.967zm197.652 285.133-36.148-32.689c-3.223-2.916-7.392-4.521-11.739-4.521h-208.21v-31.807l126.922-116.595c4.204-3.861 10.543-3.861 14.747 0l132.222 121.463c3.403 3.126 7.691 4.68 11.973 4.68 4.531 0 9.056-1.74 12.514-5.198l49.341-49.342v114.654h-89.946c-.621 0-1.216-.23-1.676-.645z"/><path d="m389.706 116.794c0-22.177-18.042-40.219-40.219-40.219s-40.219 18.042-40.219 40.219 18.042 40.219 40.219 40.219 40.219-18.042 40.219-40.219zm-65.437 0c0-13.905 11.313-25.219 25.219-25.219s25.219 11.313 25.219 25.219-11.313 25.219-25.219 25.219-25.219-11.314-25.219-25.219z"/><path d="m143.46 475.094c-6.011 0-11.521-2.889-15.154-6.217-.29-.264-.46-.438-.49-.468-2.843-2.871-2.909-7.507-.104-10.452 2.857-2.999 7.599-3.12 10.598-.263.097.092.078.067.134.127.755.682 3.971 3.343 6.787 1.78 1.619-.898 2.625-2.678 2.625-4.644v-50.384c0-4.143 3.358-7.5 7.5-7.5s7.5 3.357 7.5 7.5v50.384c0 7.411-3.964 14.216-10.344 17.759-3.03 1.681-6.102 2.378-9.052 2.378z"/></g></g></svg>