<svg id="Capa_1" enable-background="new 0 0 512 512" height="512" viewBox="0 0 512 512" width="512" xmlns="http://www.w3.org/2000/svg"><g><g><g><path d="m437.358 17.966v380.602h-362.716v-314.658l76.409-76.41h275.842c5.78 0 10.465 4.686 10.465 10.466z" fill="#ddebfd"/><path d="m426.893 7.5h-32c5.78 0 10.466 4.686 10.466 10.466v380.602h32v-380.602c-.001-5.78-4.686-10.466-10.466-10.466z" fill="#bed9fd"/><path d="m333.206 367.105-36.15-32.69c-1.838-1.662-4.229-2.583-6.707-2.583h-232.289c-5.523 0-10 4.477-10 10v152.668c0 5.523 4.477 10 10 10h395.88c5.523 0 10-4.477 10-10v-114.812c0-5.523-4.477-10-10-10h-114.026c-2.479 0-4.869-.921-6.708-2.583z" fill="#eec06b"/><g fill="#e9a761"><path d="m453.94 369.688h-32c5.523 0 10 4.477 10 10v114.812c0 5.523-4.477 10-10 10h32c5.523 0 10-4.477 10-10v-114.812c0-5.523-4.478-10-10-10z"/><path d="m301.206 367.105c1.838 1.663 4.229 2.583 6.707 2.583h32c-2.479 0-4.869-.92-6.707-2.583l-36.15-32.69c-1.838-1.663-4.229-2.583-6.707-2.583h-32c2.479 0 4.869.92 6.707 2.583z"/></g><path d="m151.051 7.5-76.41 76.409h65.944c5.78 0 10.466-4.686 10.466-10.466z" fill="#bed9fd"/><g><circle cx="361.276" cy="148.401" fill="#407194" r="16.875"/><circle cx="150.7" cy="148.523" fill="#407194" r="16.875"/><path d="m375.175 234.445h-31.559c-1.657 0-3 1.343-3 3v31.559c0 1.657 1.343 3 3 3h31.559c1.657 0 3-1.343 3-3v-31.559c0-1.657-1.343-3-3-3z" fill="#5392f9"/><path d="m138.606 234.445h31.559c1.657 0 3 1.343 3 3v31.559c0 1.657-1.343 3-3 3h-31.559c-1.657 0-3-1.343-3-3v-31.559c0-1.657 1.343-3 3-3z" fill="#5392f9"/><path d="m271.767 129.682h-31.559c-1.657 0-3 1.343-3 3v31.559c0 1.657 1.343 3 3 3h31.559c1.657 0 3-1.343 3-3v-31.559c0-1.656-1.343-3-3-3z" fill="#db387e"/></g></g></g><g><path d="m453.939 362.188h-9.08v-344.218c0-9.908-8.061-17.97-17.97-17.97h-275.839c-1.989 0-3.897.79-5.303 2.196l-76.41 76.41c-1.407 1.407-2.197 3.314-2.197 5.304v81.649c0 4.143 3.358 7.5 7.5 7.5s7.5-3.357 7.5-7.5v-74.15h58.445c9.906 0 17.966-8.059 17.966-17.965v-58.444h268.339c1.638 0 2.97 1.332 2.97 2.97v344.218h-89.946c-.621 0-1.217-.229-1.677-.645l-36.148-32.689c-3.223-2.916-7.392-4.521-11.739-4.521h-208.21v-123.773c0-4.143-3.358-7.5-7.5-7.5s-7.5 3.357-7.5 7.5v123.772h-9.08c-9.649 0-17.5 7.851-17.5 17.5v152.668c0 9.649 7.851 17.5 17.5 17.5h320.792c4.142 0 7.5-3.357 7.5-7.5s-3.358-7.5-7.5-7.5h-320.791c-1.378 0-2.5-1.121-2.5-2.5v-152.668c0-1.379 1.122-2.5 2.5-2.5h232.289c.621 0 1.216.229 1.677.646l36.15 32.691c3.223 2.914 7.391 4.519 11.737 4.519h114.026c1.378 0 2.5 1.121 2.5 2.5v114.812c0 1.379-1.122 2.5-2.5 2.5h-40.087c-4.142 0-7.5 3.357-7.5 7.5s3.358 7.5 7.5 7.5h40.087c9.649 0 17.5-7.851 17.5-17.5v-114.812c-.001-9.65-7.851-17.5-17.501-17.5zm-313.354-285.779h-47.838l50.804-50.804v47.839c0 1.635-1.33 2.965-2.966 2.965z"/><path d="m197.726 412.361c4.142 0 7.5-3.357 7.5-7.5s-3.358-7.5-7.5-7.5h-26.32c-4.142 0-7.5 3.357-7.5 7.5v62.465c0 4.143 3.358 7.5 7.5 7.5h26.32c4.142 0 7.5-3.357 7.5-7.5s-3.358-7.5-7.5-7.5h-18.82v-16.232h16.879c4.142 0 7.5-3.357 7.5-7.5s-3.358-7.5-7.5-7.5h-16.879v-16.232h18.82z"/><path d="m233.983 397.074c-.999 0-1.978.201-2.875.573-.933.387-1.758.952-2.436 1.632-1.411 1.42-2.189 3.377-2.189 5.295v63.039c0 4.143 3.358 7.5 7.5 7.5s7.5-3.357 7.5-7.5v-19.923c3.63-.019 7.722-.037 10.053-.037 14.137 0 25.638-11.345 25.638-25.289 0-13.945-11.501-25.29-25.638-25.29zm28.191 25.29c0 5.577-4.872 10.289-10.638 10.289-2.311 0-6.381.018-9.992.036v-20.615h9.992c5.767 0 10.638 4.712 10.638 10.29z"/><path d="m321.625 460.114c-6.371 0-12.506-2.572-16.411-6.881-2.78-3.069-7.523-3.303-10.594-.521-3.069 2.782-3.302 7.524-.521 10.594 6.701 7.395 16.991 11.809 27.525 11.809 13.101 0 24.1-8.346 26.153-19.845 1.542-8.638-2.398-19.93-18.083-25.715-7.807-2.88-15.071-6.018-17.232-6.965-1.908-1.5-1.846-3.608-1.72-4.483.17-1.185 1.025-4.079 5.281-5.36 9.089-2.742 17.479 3.904 17.698 4.081 3.17 2.629 7.875 2.211 10.53-.946 2.665-3.171 2.255-7.902-.916-10.567-.588-.495-14.613-12.055-31.64-6.931-8.56 2.579-14.615 9.319-15.802 17.592-1.113 7.753 2.247 15.21 8.769 19.462 1.993 1.303 16.385 6.916 19.84 8.19 2.854 1.053 9.395 4.038 8.508 9.006-.656 3.677-5.094 7.48-11.385 7.48z"/><path d="m271.767 122.183h-31.559c-5.79 0-10.5 4.71-10.5 10.5v8.433h-55.775c-3.132-9.848-12.361-16.969-23.233-16.969-13.44 0-24.375 10.935-24.375 24.375s10.935 24.375 24.375 24.375c10.776 0 19.935-7.05 23.145-16.763h27.468c-25.91 15.233-45.021 40.751-51.75 70.811h-10.957c-5.79 0-10.5 4.71-10.5 10.5v31.559c0 5.79 4.71 10.5 10.5 10.5h31.559c5.79 0 10.5-4.71 10.5-10.5v-31.559c0-5.79-4.71-10.5-10.5-10.5h-5.173c8.366-31.963 33.069-57.51 64.716-66.958v4.254c0 5.79 4.71 10.5 10.5 10.5h31.559c5.79 0 10.5-4.71 10.5-10.5v-4.775c32.577 8.986 58.006 34.77 66.535 67.479h-5.186c-5.79 0-10.5 4.71-10.5 10.5v31.559c0 5.79 4.71 10.5 10.5 10.5h31.559c5.79 0 10.5-4.71 10.5-10.5v-31.559c0-5.79-4.71-10.5-10.5-10.5h-10.947c-6.757-30.273-25.902-55.826-51.924-71h25.791c3.18 9.769 12.369 16.833 23.182 16.832h.026c13.44-.016 24.362-10.963 24.347-24.403-.016-13.432-10.946-24.347-24.374-24.347h-.029c-10.901.011-20.029 7.119-23.179 16.938h-55.802v-8.281c.001-5.791-4.709-10.501-10.499-10.501zm-106.102 142.321h-22.559v-22.559h22.559zm205.01 0h-22.559v-22.559h22.559zm-219.975-106.607c-5.169 0-9.375-4.206-9.375-9.375s4.206-9.375 9.375-9.375 9.375 4.206 9.375 9.375-4.206 9.375-9.375 9.375zm116.567 1.844h-22.559c0-8.041 0-14.408 0-22.559h22.559zm93.998-20.715h.012c5.164 0 9.369 4.198 9.375 9.363.006 5.17-4.195 9.381-9.364 9.387h-.01c-5.165 0-9.37-4.199-9.376-9.365-.007-5.181 4.181-9.379 9.363-9.385z"/></g></g></svg>