<svg id="Capa_1" enable-background="new 0 0 512 512" height="512" viewBox="0 0 512 512" width="512" xmlns="http://www.w3.org/2000/svg"><g><g><g><path d="m437.358 17.966v380.602h-362.716v-314.658l76.409-76.41h275.842c5.78 0 10.465 4.686 10.465 10.466z" fill="#ddebfd"/><path d="m426.893 7.5h-32c5.78 0 10.466 4.686 10.466 10.466v380.602h32v-380.602c-.001-5.78-4.686-10.466-10.466-10.466z" fill="#bed9fd"/><path d="m333.206 367.105-36.15-32.69c-1.838-1.662-4.229-2.583-6.707-2.583h-232.289c-5.523 0-10 4.477-10 10v152.668c0 5.523 4.477 10 10 10h395.88c5.523 0 10-4.477 10-10v-114.812c0-5.523-4.477-10-10-10h-114.026c-2.479 0-4.869-.921-6.708-2.583z" fill="#eec06b"/><g fill="#e9a761"><path d="m453.94 369.688h-32c5.523 0 10 4.477 10 10v114.812c0 5.523-4.477 10-10 10h32c5.523 0 10-4.477 10-10v-114.812c0-5.523-4.478-10-10-10z"/><path d="m301.206 367.105c1.838 1.663 4.229 2.583 6.707 2.583h32c-2.479 0-4.869-.92-6.707-2.583l-36.15-32.69c-1.838-1.663-4.229-2.583-6.707-2.583h-32c2.479 0 4.869.92 6.707 2.583z"/></g><path d="m151.051 7.5-76.41 76.409h65.944c5.78 0 10.466-4.686 10.466-10.466z" fill="#bed9fd"/><g><g><g><path d="m175.22 114.445h31.559c1.657 0 3 1.343 3 3v31.559c0 1.657-1.343 3-3 3h-31.559c-1.657 0-3-1.343-3-3v-31.559c0-1.657 1.344-3 3-3z" fill="#5392f9"/></g><g><path d="m305.22 114.445h31.559c1.657 0 3 1.343 3 3v31.559c0 1.657-1.343 3-3 3h-31.559c-1.657 0-3-1.343-3-3v-31.559c0-1.657 1.344-3 3-3z" fill="#5392f9"/></g><g><path d="m175.22 244.445h31.559c1.657 0 3 1.343 3 3v31.559c0 1.657-1.343 3-3 3h-31.559c-1.657 0-3-1.343-3-3v-31.559c0-1.657 1.344-3 3-3z" fill="#5392f9"/></g><g><path d="m305.22 244.445h31.559c1.657 0 3 1.343 3 3v31.559c0 1.657-1.343 3-3 3h-31.559c-1.657 0-3-1.343-3-3v-31.559c0-1.657 1.344-3 3-3z" fill="#5392f9"/></g></g></g></g></g><g><path d="m453.939 362.188h-9.079v-344.218c0-9.908-8.061-17.97-17.97-17.97h-275.839c-1.989 0-3.897.79-5.303 2.196l-76.411 76.41c-1.407 1.407-2.197 3.314-2.197 5.304v81.649c0 4.143 3.358 7.5 7.5 7.5s7.5-3.357 7.5-7.5v-74.149h58.445c9.906 0 17.965-8.06 17.965-17.966v-58.444h268.34c1.638 0 2.971 1.332 2.971 2.97v344.218h-89.946c-.622 0-1.218-.229-1.678-.645l-36.148-32.69c-3.224-2.915-7.393-4.521-11.738-4.521h-208.211v-123.772c0-4.143-3.358-7.5-7.5-7.5s-7.5 3.357-7.5 7.5v123.772h-9.08c-9.649 0-17.5 7.851-17.5 17.5v152.668c0 9.649 7.851 17.5 17.5 17.5h320.791c4.143 0 7.5-3.357 7.5-7.5s-3.357-7.5-7.5-7.5h-320.79c-1.378 0-2.5-1.121-2.5-2.5v-152.668c0-1.379 1.122-2.5 2.5-2.5h232.289c.621 0 1.216.229 1.677.646l36.15 32.692c3.224 2.913 7.392 4.518 11.737 4.518h114.025c1.379 0 2.5 1.121 2.5 2.5v114.812c0 1.379-1.121 2.5-2.5 2.5h-40.088c-4.143 0-7.5 3.357-7.5 7.5s3.357 7.5 7.5 7.5h40.088c9.649 0 17.5-7.851 17.5-17.5v-114.812c0-9.65-7.85-17.5-17.5-17.5zm-313.354-285.778h-47.838l50.804-50.804v47.838c0 1.636-1.33 2.966-2.966 2.966z"/><path d="m175.221 236.945c-5.79 0-10.5 4.71-10.5 10.5v31.557c-.002 5.803 4.694 10.502 10.5 10.502h31.559c5.788 0 10.499-4.709 10.5-10.5v-8.284h77.441v8.284c0 5.79 4.71 10.5 10.5 10.5h31.559c5.79 0 10.5-4.71 10.5-10.5v-31.559c0-5.79-4.71-10.5-10.5-10.5h-8.28v-77.441h8.279c5.79 0 10.5-4.71 10.5-10.5v-31.559c0-5.79-4.71-10.5-10.5-10.5h-31.559c-5.79 0-10.5 4.71-10.5 10.5v8.274h-77.44v-8.274c0-5.79-4.71-10.5-10.5-10.5h-31.559c-5.79 0-10.5 4.71-10.5 10.5v31.557c-.001 2.806 1.091 5.443 3.075 7.427 1.983 1.983 4.62 3.075 7.424 3.075h8.28v77.441zm27.059 37.559h-22.559v-22.559h22.559zm129.999 0h-22.559v-22.559h22.559zm-22.558-152.559h22.559v22.559c-7.725 0-14.199 0-22.559 0zm-130 0h22.559v22.559c-7.725 0-14.199 0-22.559 0zm18.779 37.559h8.279c5.788 0 10.499-4.709 10.5-10.5v-8.284h77.441v8.284c0 5.79 4.71 10.5 10.5 10.5h8.279v77.441h-8.279c-5.79 0-10.5 4.71-10.5 10.5v8.274h-77.44v-8.274c0-5.79-4.71-10.5-10.5-10.5h-8.28z"/><path d="m332.388 412.074c4.814 0 9.457 1.417 13.425 4.098 3.433 2.317 8.095 1.416 10.413-2.017 2.318-3.432 1.416-8.094-2.017-10.413-6.457-4.362-14.003-6.668-21.821-6.668-21.516 0-39.02 17.504-39.02 39.02s17.504 39.02 39.02 39.02c20.437 0 34.71-16.046 34.71-39.02 0-4.143-3.357-7.5-7.5-7.5h-18.858c-4.143 0-7.5 3.357-7.5 7.5s3.357 7.5 7.5 7.5h10.547c-1.946 8.692-7.583 16.52-18.898 16.52-13.244 0-24.02-10.775-24.02-24.02s10.775-24.02 24.019-24.02z"/><path d="m174.371 460.114c-6.371 0-12.506-2.572-16.411-6.881-2.78-3.069-7.523-3.303-10.594-.521-3.069 2.782-3.302 7.524-.521 10.594 6.701 7.395 16.991 11.809 27.525 11.809 13.101 0 24.1-8.346 26.153-19.845 1.542-8.638-2.398-19.93-18.083-25.715-7.807-2.88-15.071-6.018-17.232-6.965-1.908-1.5-1.846-3.608-1.72-4.483.17-1.185 1.025-4.079 5.281-5.36 9.09-2.745 17.48 3.904 17.699 4.081 3.169 2.629 7.875 2.211 10.53-.946 2.665-3.171 2.255-7.902-.915-10.567-.589-.495-14.613-12.055-31.641-6.931-8.56 2.579-14.614 9.319-15.802 17.592-1.113 7.753 2.247 15.21 8.769 19.462.332.217.679.406 1.041.567.365.162 9.035 4.021 18.8 7.623 2.854 1.053 9.395 4.038 8.508 9.006-.658 3.677-5.096 7.48-11.387 7.48z"/><path d="m264.598 402.325-14.939 44.97-15.683-45.18c-1.358-3.914-5.632-5.987-9.545-4.626-3.913 1.358-5.984 5.631-4.626 9.544l21.571 62.145c1.264 3.558 4.638 5.937 8.408 5.937h.062c3.795-.026 7.165-2.458 8.402-6.101l20.583-61.96c1.307-3.931-.822-8.176-4.753-9.481-3.927-1.309-8.175.821-9.48 4.752z"/></g></g></svg>