<svg id="Capa_1" enable-background="new 0 0 512 512" height="512" viewBox="0 0 512 512" width="512" xmlns="http://www.w3.org/2000/svg"><g><g><g><path d="m437.358 17.966v380.602h-362.716v-314.658l76.409-76.41h275.842c5.78 0 10.465 4.686 10.465 10.466z" fill="#ddebfd"/><path d="m426.893 7.5h-32c5.78 0 10.466 4.686 10.466 10.466v380.602h32v-380.602c-.001-5.78-4.686-10.466-10.466-10.466z" fill="#bed9fd"/><g><path d="m250.843 193.062-77.947 36.374c-4.795 2.238-4.795 9.056 0 11.294l77.947 36.374c3.269 1.525 7.046 1.525 10.315 0l77.947-36.374c4.795-2.238 4.795-9.056 0-11.294l-77.947-36.374c-3.27-1.525-7.046-1.525-10.315 0z" fill="#5392f9"/><path d="m250.843 149.641-77.947 36.374c-4.795 2.238-4.795 9.056 0 11.294l77.947 36.374c3.269 1.525 7.046 1.525 10.315 0l77.947-36.374c4.795-2.238 4.795-9.056 0-11.294l-77.947-36.374c-3.27-1.525-7.046-1.525-10.315 0z" fill="#9cd169"/><path d="m250.843 106.22-77.947 36.374c-4.795 2.238-4.795 9.056 0 11.294l77.947 36.374c3.269 1.525 7.046 1.525 10.315 0l77.947-36.374c4.795-2.238 4.795-9.056 0-11.294l-77.947-36.374c-3.27-1.526-7.046-1.526-10.315 0z" fill="#5392f9"/></g><path d="m333.206 367.105-36.15-32.69c-1.838-1.662-4.229-2.583-6.707-2.583h-232.289c-5.523 0-10 4.477-10 10v152.668c0 5.523 4.477 10 10 10h395.88c5.523 0 10-4.477 10-10v-114.812c0-5.523-4.477-10-10-10h-114.026c-2.479 0-4.869-.921-6.708-2.583z" fill="#eec06b"/><g fill="#e9a761"><path d="m453.94 369.688h-32c5.523 0 10 4.477 10 10v114.812c0 5.523-4.477 10-10 10h32c5.523 0 10-4.477 10-10v-114.812c0-5.523-4.478-10-10-10z"/><path d="m301.206 367.105c1.838 1.663 4.229 2.583 6.707 2.583h32c-2.479 0-4.869-.92-6.707-2.583l-36.15-32.69c-1.838-1.663-4.229-2.583-6.707-2.583h-32c2.479 0 4.869.92 6.707 2.583z"/></g><path d="m151.051 7.5-76.41 76.409h65.944c5.78 0 10.466-4.686 10.466-10.466z" fill="#bed9fd"/></g></g><g><path d="m161.8 235.068c-.005 5.4 3.033 10.174 7.929 12.459l77.933 36.365c2.65 1.24 5.496 1.86 8.341 1.86 2.843 0 5.685-.619 8.33-1.856l77.939-36.369c4.896-2.285 7.934-7.059 7.929-12.459-.005-5.395-3.048-10.157-7.928-12.424l-19.859-9.272 19.856-9.266c4.896-2.283 7.935-7.057 7.931-12.456-.004-5.395-3.047-10.159-7.928-12.427l-19.858-9.271 19.861-9.268c4.889-2.281 7.925-7.049 7.925-12.442.001-5.395-3.035-10.163-7.924-12.445l-77.947-36.373c-5.293-2.471-11.365-2.471-16.658 0l-77.948 36.374c-4.888 2.281-7.924 7.05-7.923 12.444 0 5.394 3.036 10.161 7.924 12.442l19.862 9.268-19.845 9.265c-4.894 2.273-7.937 7.038-7.94 12.433-.004 5.399 3.034 10.173 7.929 12.456l19.857 9.266-19.845 9.265c-4.895 2.274-7.938 7.037-7.943 12.431zm92.215-122.052c1.262-.588 2.709-.589 3.971 0l75.484 35.225-75.484 35.225c-1.262.588-2.709.589-3.971-.001l-75.485-35.225zm-46.696 65.212 40.352 18.83c2.647 1.235 5.487 1.854 8.329 1.854 2.841-.001 5.683-.618 8.329-1.853l40.352-18.831 28.78 13.436-75.479 35.223c-1.26.589-2.704.589-3.97-.004l-75.473-35.219zm0 43.42 40.342 18.825c2.65 1.24 5.496 1.86 8.341 1.86 2.843 0 5.685-.619 8.33-1.856l40.348-18.829 28.781 13.438-75.479 35.222c-1.26.588-2.704.589-3.97-.004l-75.473-35.218z"/><path d="m453.939 362.188h-9.079v-344.218c0-9.908-8.061-17.97-17.97-17.97h-275.839c-1.989 0-3.896.79-5.304 2.196l-76.41 76.41c-1.406 1.407-2.196 3.314-2.196 5.304v81.649c0 4.143 3.357 7.5 7.5 7.5s7.5-3.357 7.5-7.5v-74.149h58.445c9.906 0 17.965-8.06 17.965-17.966v-58.444h268.339c1.638 0 2.971 1.332 2.971 2.97v344.218h-89.946c-.622 0-1.218-.229-1.678-.645l-36.148-32.69c-3.224-2.915-7.393-4.521-11.738-4.521h-208.211v-123.772c0-4.143-3.357-7.5-7.5-7.5s-7.5 3.357-7.5 7.5v123.772h-9.079c-9.649 0-17.5 7.851-17.5 17.5v152.668c0 9.649 7.851 17.5 17.5 17.5h320.791c4.143 0 7.5-3.357 7.5-7.5s-3.357-7.5-7.5-7.5h-320.791c-1.379 0-2.5-1.121-2.5-2.5v-152.668c0-1.379 1.121-2.5 2.5-2.5h232.289c.621 0 1.216.229 1.677.646l36.15 32.692c3.224 2.913 7.392 4.518 11.737 4.518h97.388c.02 0 .039.003.058.003s.039-.003.058-.003h16.521c1.379 0 2.5 1.121 2.5 2.5v114.812c0 1.379-1.121 2.5-2.5 2.5h-40.088c-4.143 0-7.5 3.357-7.5 7.5s3.357 7.5 7.5 7.5h40.088c9.649 0 17.5-7.851 17.5-17.5v-114.812c0-9.65-7.85-17.5-17.5-17.5zm-313.353-285.778h-47.839l50.804-50.804v47.838c0 1.636-1.33 2.966-2.965 2.966z"/><path d="m164.225 397.074c-4.143 0-7.5 3.357-7.5 7.5v63.039c0 4.143 3.357 7.5 7.5 7.5s7.5-3.357 7.5-7.5v-19.923c3.622-.019 7.68-.037 9.991-.037 14.138 0 25.639-11.345 25.639-25.289 0-13.945-11.501-25.29-25.639-25.29zm28.129 25.29c0 5.577-4.872 10.289-10.639 10.289-2.312 0-6.364.018-9.991.036v-20.615h9.991c5.767 0 10.639 4.712 10.639 10.29z"/><path d="m250.134 460.114c-6.371 0-12.506-2.572-16.41-6.881-2.782-3.071-7.526-3.302-10.594-.521-3.069 2.781-3.303 7.524-.521 10.594 6.7 7.395 16.99 11.809 27.525 11.809 13.101 0 24.1-8.346 26.153-19.845 1.542-8.638-2.398-19.93-18.083-25.715-7.808-2.88-15.071-6.018-17.232-6.965-1.908-1.5-1.847-3.609-1.721-4.484.17-1.185 1.025-4.078 5.28-5.359 9.094-2.742 17.479 3.904 17.699 4.08 3.171 2.631 7.875 2.213 10.53-.945 2.665-3.171 2.256-7.901-.915-10.567-.589-.495-14.618-12.053-31.641-6.931-8.56 2.579-14.614 9.319-15.802 17.592-1.113 7.753 2.247 15.21 8.77 19.462.331.217.679.406 1.04.567.364.162 9.034 4.021 18.8 7.623 2.854 1.053 9.395 4.038 8.508 9.006-.657 3.677-5.095 7.48-11.386 7.48z"/><path d="m299.296 472.928c1.405 1.4 3.309 2.187 5.293 2.187 0 0 13.36-.051 18.444-.141 18.718-.326 32.304-16.678 32.304-38.88 0-23.339-13.244-39.02-32.957-39.02h-17.791c-4.125 0-7.563 3.392-7.563 7.565v61.95c-.001 2.471.477 4.553 2.27 6.339zm12.793-60.854h10.291c13.239 0 17.957 12.408 17.957 24.02 0 16.286-8.822 23.729-17.566 23.882-2.439.043-6.826.077-10.682.101z"/></g></g></svg>