<svg id="Capa_1" enable-background="new 0 0 512 512" height="512" viewBox="0 0 512 512" width="512" xmlns="http://www.w3.org/2000/svg"><g><g><g><circle cx="256" cy="76.578" fill="#5392f9" r="19.185"/><path d="m7.5 164.607v280c0 5.523 4.477 10 10 10h477c5.523 0 10-4.477 10-10v-280c0-5.523-4.477-10-10-10h-477c-5.523 0-10 4.477-10 10z" fill="#ddebfd"/><path d="m494.5 154.607h-30c5.523 0 10 4.477 10 10v280c0 5.522-4.477 10-10 10h30c5.523 0 10-4.478 10-10v-280c0-5.523-4.477-10-10-10z" fill="#bed9fd"/><path d="m219.075 372.848v30c0 2.761 2.239 5 5 5h40c2.761 0 5-2.239 5-5v-30c0-2.761-2.239-5-5-5h-40c-2.761 0-5 2.239-5 5z" fill="#db387e"/><path d="m307.767 372.848v30c0 2.761 2.239 5 5 5h40c2.761 0 5-2.239 5-5v-30c0-2.761-2.239-5-5-5h-40c-2.761 0-5 2.239-5 5z" fill="#9cd169"/><path d="m352.767 201.366h-128.692c-2.761 0-5 2.239-5 5v118.069c0 2.761 2.239 5 5 5h128.692c2.761 0 5-2.239 5-5v-118.069c0-2.761-2.238-5-5-5z" fill="#5392f9"/><path d="m156.097 265.401h-85.619c-2.761 0-5-2.239-5-5v-44.886c0-2.761 2.239-5 5-5h85.618c2.761 0 5 2.239 5 5v44.886c.001 2.761-2.238 5-4.999 5z" fill="#6cbff8"/><path d="m156.097 304.607h-85.619c-2.761 0-5 2.239-5 5v93.241c0 2.761 2.239 5 5 5h85.618c2.761 0 5-2.239 5-5v-93.241c.001-2.761-2.238-5-4.999-5z" fill="#eec06b"/></g></g><g><path d="m494.5 147.107h-98.785l-113.239-73.811c-1.623-13.171-12.873-23.403-26.476-23.403s-24.853 10.233-26.476 23.404l-113.239 73.811h-98.785c-9.649 0-17.5 7.851-17.5 17.5v28.407c0 4.143 3.358 7.5 7.5 7.5s7.5-3.357 7.5-7.5v-28.407c0-1.379 1.122-2.5 2.5-2.5h477c1.378 0 2.5 1.121 2.5 2.5v280c0 1.379-1.122 2.5-2.5 2.5h-119.233c-4.142 0-7.5 3.357-7.5 7.5s3.358 7.5 7.5 7.5h119.233c9.649 0 17.5-7.851 17.5-17.5v-280c0-9.65-7.851-17.501-17.5-17.501zm-238.5-82.214c6.443 0 11.685 5.242 11.685 11.686s-5.242 11.684-11.685 11.684-11.685-5.241-11.685-11.685 5.242-11.685 11.685-11.685zm-23.479 24.356c4.518 8.338 13.348 14.014 23.479 14.014s18.961-5.676 23.479-14.014l88.765 57.859h-224.489z"/><path d="m340.267 447.107h-322.767c-1.378 0-2.5-1.121-2.5-2.5v-216.592c0-4.143-3.358-7.5-7.5-7.5s-7.5 3.357-7.5 7.5v216.593c0 9.649 7.851 17.5 17.5 17.5h322.767c4.142 0 7.5-3.357 7.5-7.5s-3.358-7.501-7.5-7.501z"/><path d="m264.075 415.349c6.893 0 12.5-5.607 12.5-12.5v-30c0-6.893-5.607-12.5-12.5-12.5h-40c-6.893 0-12.5 5.607-12.5 12.5v30c0 6.893 5.607 12.5 12.5 12.5zm-37.5-40h35v25h-35z"/><path d="m352.767 360.349h-40c-6.893 0-12.5 5.607-12.5 12.5v30c0 6.893 5.607 12.5 12.5 12.5h40c6.893 0 12.5-5.607 12.5-12.5v-30c0-6.893-5.607-12.5-12.5-12.5zm-2.5 40h-35v-25h35z"/><path d="m352.767 193.866h-128.692c-6.893 0-12.5 5.607-12.5 12.5v118.068c0 6.893 5.607 12.5 12.5 12.5h128.692c6.893 0 12.5-5.607 12.5-12.5v-118.068c0-6.892-5.607-12.5-12.5-12.5zm-2.5 128.069h-123.692v-113.069h123.692z"/><path d="m404.811 208.866h52.646c4.142 0 7.5-3.357 7.5-7.5s-3.358-7.5-7.5-7.5h-52.646c-4.142 0-7.5 3.357-7.5 7.5s3.357 7.5 7.5 7.5z"/><path d="m404.811 248.009h52.646c4.142 0 7.5-3.357 7.5-7.5s-3.358-7.5-7.5-7.5h-52.646c-4.142 0-7.5 3.357-7.5 7.5s3.357 7.5 7.5 7.5z"/><path d="m404.811 287.151h52.646c4.142 0 7.5-3.357 7.5-7.5s-3.358-7.5-7.5-7.5h-52.646c-4.142 0-7.5 3.357-7.5 7.5s3.357 7.5 7.5 7.5z"/><path d="m404.811 326.294h52.646c4.142 0 7.5-3.357 7.5-7.5s-3.358-7.5-7.5-7.5h-52.646c-4.142 0-7.5 3.357-7.5 7.5s3.357 7.5 7.5 7.5z"/><path d="m70.479 272.9h85.618c6.893 0 12.5-5.607 12.5-12.5v-44.886c0-6.893-5.607-12.5-12.5-12.5h-85.618c-6.893 0-12.5 5.607-12.5 12.5v44.886c0 6.893 5.607 12.5 12.5 12.5zm2.5-54.885h80.618v39.885h-80.618z"/><path d="m57.979 402.849c0 6.893 5.607 12.5 12.5 12.5h85.618c6.893 0 12.5-5.607 12.5-12.5v-42.621c0-4.143-3.358-7.5-7.5-7.5s-7.5 3.357-7.5 7.5v40.121h-80.618v-88.241h80.618v13.12c0 4.143 3.358 7.5 7.5 7.5s7.5-3.357 7.5-7.5v-15.62c0-6.893-5.607-12.5-12.5-12.5h-85.618c-6.893 0-12.5 5.607-12.5 12.5z"/></g></g></svg>