<svg id="Capa_1" enable-background="new 0 0 512 512" height="512" viewBox="0 0 512 512" width="512" xmlns="http://www.w3.org/2000/svg"><g><g><g><path d="m419.697 127.632h-412.197v296.337c0 4.418 3.582 8 8 8h396.197c4.418 0 8-3.582 8-8z" fill="#5392f9"/><path d="m389.697 127.632v296.336c0 4.418-3.582 8-8 8h30c4.418 0 8-3.582 8-8v-296.336z" fill="#4071f7"/><g><g fill="#ddebfd"><path d="m68.248 172.501v37.536c0 2.765 2.241 5.006 5.006 5.006h53.189c2.765 0 5.006-2.241 5.006-5.006v-37.536c0-2.765-2.241-5.006-5.006-5.006h-53.188c-2.765 0-5.007 2.241-5.007 5.006z"/><path d="m68.248 261.033v37.536c0 2.765 2.241 5.006 5.006 5.006h53.189c2.765 0 5.006-2.241 5.006-5.006v-37.536c0-2.765-2.241-5.006-5.006-5.006h-53.188c-2.765-.001-5.007 2.241-5.007 5.006z"/><path d="m68.248 349.564v37.536c0 2.765 2.241 5.006 5.006 5.006h53.189c2.765 0 5.006-2.241 5.006-5.006v-37.536c0-2.765-2.241-5.006-5.006-5.006h-53.188c-2.765 0-5.007 2.241-5.007 5.006z"/><path d="m181.998 172.501v37.536c0 2.765 2.241 5.006 5.006 5.006h53.189c2.765 0 5.006-2.241 5.006-5.006v-37.536c0-2.765-2.241-5.006-5.006-5.006h-53.189c-2.765 0-5.006 2.241-5.006 5.006z"/><path d="m181.998 261.033v37.536c0 2.765 2.241 5.006 5.006 5.006h53.189c2.765 0 5.006-2.241 5.006-5.006v-37.536c0-2.765-2.241-5.006-5.006-5.006h-53.189c-2.765-.001-5.006 2.241-5.006 5.006z"/><path d="m181.998 349.564v37.536c0 2.765 2.241 5.006 5.006 5.006h53.189c2.765 0 5.006-2.241 5.006-5.006v-37.536c0-2.765-2.241-5.006-5.006-5.006h-53.189c-2.765 0-5.006 2.241-5.006 5.006z"/><path d="m295.747 172.501v37.536c0 2.765 2.241 5.006 5.006 5.006h53.189c2.765 0 5.006-2.241 5.006-5.006v-37.536c0-2.765-2.241-5.006-5.006-5.006h-53.189c-2.764 0-5.006 2.241-5.006 5.006z"/><path d="m295.747 261.033v37.536c0 2.765 2.241 5.006 5.006 5.006h53.189c2.765 0 5.006-2.241 5.006-5.006v-37.536c0-2.765-2.241-5.006-5.006-5.006h-53.189c-2.764-.001-5.006 2.241-5.006 5.006z"/></g><path d="m295.747 349.564v37.536c0 2.765 2.241 5.006 5.006 5.006h53.189c2.765 0 5.006-2.241 5.006-5.006v-37.536c0-2.765-2.241-5.006-5.006-5.006h-53.189c-2.764 0-5.006 2.241-5.006 5.006z" fill="#5392f9"/></g><path d="m419.697 127.632h-412.197v-88.444c0-4.418 3.582-8 8-8h396.197c4.418 0 8 3.582 8 8z" fill="#ddebfd"/><path d="m411.697 31.188h-30c4.418 0 8 3.582 8 8v88.444h30v-88.444c0-4.418-3.582-8-8-8z" fill="#bed9fd"/><path d="m214.92 297.21v178.595c0 2.765 2.241 5.006 5.006 5.006h279.567c2.765 0 5.006-2.241 5.006-5.006v-178.595c0-2.765-2.241-5.006-5.006-5.006h-279.566c-2.765 0-5.007 2.241-5.007 5.006z" fill="#9cd169"/><path d="m499.494 292.204h-30c2.765 0 5.006 2.241 5.006 5.006v178.595c0 2.765-2.241 5.006-5.006 5.006h30c2.765 0 5.006-2.241 5.006-5.006v-178.595c0-2.765-2.241-5.006-5.006-5.006z" fill="#68b181"/><g><circle cx="313.154" cy="386.508" fill="#407194" r="63.265"/><path d="m344.415 427.786c0-17.265-13.996-31.261-31.261-31.261s-31.261 13.996-31.261 31.261v13.715c9.223 5.254 19.886 8.271 31.261 8.271s22.038-3.017 31.261-8.271z" fill="#6cbff8"/><path d="m315.805 358.239h-5.302c-9.225 0-16.703 7.478-16.703 16.703v12.454c0 9.225 7.478 16.703 16.703 16.703h5.302c9.225 0 16.703-7.478 16.703-16.703v-12.454c0-9.225-7.478-16.703-16.703-16.703z" fill="#eec06b"/></g><path d="m75.257 62.548c-9.313 0-16.863 7.55-16.863 16.862 0 9.313 7.55 16.863 16.863 16.863s16.863-7.55 16.863-16.863c0-9.312-7.55-16.862-16.863-16.862z" fill="#db387e"/><path d="m143.894 62.548c-9.313 0-16.863 7.55-16.863 16.862 0 9.313 7.55 16.863 16.863 16.863s16.863-7.55 16.863-16.863c0-9.312-7.55-16.862-16.863-16.862z" fill="#eec06b"/><path d="m212.531 62.548c-9.313 0-16.863 7.55-16.863 16.862 0 9.313 7.55 16.863 16.863 16.863s16.863-7.55 16.863-16.863c0-9.312-7.55-16.862-16.863-16.862z" fill="#9cd169"/></g></g><g><path d="m73.255 222.544h53.188c6.896 0 12.506-5.61 12.506-12.507v-37.536c0-6.896-5.61-12.506-12.506-12.506h-53.188c-6.896 0-12.506 5.61-12.506 12.506v37.536c0 6.897 5.61 12.507 12.506 12.507zm2.494-47.549h48.201v32.549h-48.201z"/><path d="m60.749 298.568c0 6.896 5.61 12.507 12.506 12.507h53.188c6.896 0 12.506-5.61 12.506-12.507v-37.536c0-6.896-5.61-12.506-12.506-12.506h-53.188c-6.896 0-12.506 5.61-12.506 12.506zm15-35.042h48.201v32.549h-48.201z"/><path d="m60.749 387.101c0 6.896 5.61 12.506 12.506 12.506h53.188c6.896 0 12.506-5.61 12.506-12.506v-37.536c0-6.896-5.61-12.507-12.506-12.507h-53.188c-6.896 0-12.506 5.61-12.506 12.507zm15-35.043h48.201v32.549h-48.201z"/><path d="m187.004 222.544h53.188c6.896 0 12.506-5.61 12.506-12.507v-37.536c0-6.896-5.61-12.506-12.506-12.506h-53.188c-6.896 0-12.506 5.61-12.506 12.506v37.536c0 6.897 5.61 12.507 12.506 12.507zm2.494-47.549h48.201v32.549h-48.201z"/><path d="m300.753 222.544h53.189c6.896 0 12.506-5.61 12.506-12.507v-37.536c0-6.896-5.61-12.506-12.506-12.506h-53.189c-6.896 0-12.506 5.61-12.506 12.506v37.536c0 6.897 5.61 12.507 12.506 12.507zm2.494-47.549h48.202v32.549h-48.202z"/><path d="m499.494 284.703h-72.294c0-.563-.003-240.514-.003-245.515 0-8.547-6.953-15.5-15.5-15.5h-396.197c-8.547 0-15.5 6.953-15.5 15.5v158.355c0 4.143 3.358 7.5 7.5 7.5s7.5-3.357 7.5-7.5v-62.412h397.2v149.571h-45.75v-23.672c0-6.893-5.612-12.5-12.51-12.5h-53.19c-6.893 0-12.5 5.607-12.5 12.5v23.673h-35.55v-23.673c0-6.893-5.612-12.5-12.51-12.5h-53.19c-6.893 0-12.5 5.607-12.5 12.5v37.54c0 6.897 5.607 12.51 12.5 12.51h20.42v25.979h-20.42c-6.893 0-12.5 5.607-12.5 12.5v37.54c0 6.898 5.607 12.511 12.5 12.511h20.42v24.859h-191.92c-.276 0-.5-.225-.5-.5v-191.429c0-4.143-3.358-7.5-7.5-7.5s-7.5 3.357-7.5 7.5v191.43c0 8.547 6.953 15.5 15.5 15.5h191.92v36.336c0 6.896 5.61 12.506 12.506 12.506h75.728c4.142 0 7.5-3.357 7.5-7.5s-3.358-7.5-7.5-7.5h-73.234v-173.609h274.58v173.608h-166.346c-4.142 0-7.5 3.357-7.5 7.5s3.358 7.5 7.5 7.5h168.839c6.896 0 12.506-5.61 12.506-12.506v-178.595c.001-6.897-5.609-12.507-12.505-12.507zm-87.297-164.571h-397.197v-80.944c0-.275.224-.5.5-.5h396.197c.276 0 .5.225.5.5zm-108.947 143.398h48.2v21.173h-48.2zm-113.75 121.08v-32.55h17.92v32.551h-17.92zm30.426-99.907c-6.515 0-11.875 5.009-12.449 11.377h-17.977v-32.55h48.2v21.173z"/><path d="m383.919 386.508c0-39.02-31.745-70.765-70.765-70.765s-70.765 31.745-70.765 70.765c0 39.144 31.931 70.765 70.765 70.765 38.839-.001 70.765-31.627 70.765-70.765zm-126.529 0c0-30.749 25.016-55.765 55.765-55.765s55.765 25.016 55.765 55.765c0 15.716-6.545 29.925-17.041 40.071-.349-11.399-5.572-21.803-14.206-28.817 1.496-3.144 2.337-6.658 2.337-10.365v-12.455c0-13.345-10.857-24.202-24.203-24.202h-5.302c-13.346 0-24.203 10.857-24.203 24.202v12.455c0 3.707.84 7.221 2.336 10.364-8.633 7.012-13.856 17.416-14.204 28.819-10.498-10.146-17.044-24.355-17.044-40.072zm43.91.888v-12.455c0-5.074 4.128-9.202 9.203-9.202h5.302c5.075 0 9.203 4.128 9.203 9.202v12.455c0 5.074-4.128 9.203-9.203 9.203h-5.302c-5.074.001-9.203-4.128-9.203-9.203zm-11.91 49.546c.7-4.615-3.184-18.804 9.629-28.246 3.419 1.851 7.331 2.903 11.484 2.903h5.302c4.153 0 8.065-1.053 11.484-2.903 12.797 9.435 8.945 23.728 9.631 28.245-14.701 6.955-32.177 7.265-47.53.001z"/><path d="m412.516 372.521h12.283c4.142 0 7.5-3.357 7.5-7.5s-3.358-7.5-7.5-7.5h-12.283c-4.142 0-7.5 3.357-7.5 7.5s3.358 7.5 7.5 7.5z"/><path d="m412.516 415.493h50.897c4.142 0 7.5-3.357 7.5-7.5s-3.358-7.5-7.5-7.5h-50.897c-4.142 0-7.5 3.357-7.5 7.5s3.358 7.5 7.5 7.5z"/><path d="m75.257 55.048c-13.434 0-24.363 10.929-24.363 24.362s10.929 24.362 24.363 24.362 24.363-10.928 24.363-24.362-10.929-24.362-24.363-24.362zm0 33.724c-5.163 0-9.363-4.2-9.363-9.362s4.2-9.362 9.363-9.362 9.363 4.2 9.363 9.362-4.2 9.362-9.363 9.362z"/><path d="m143.894 55.048c-13.434 0-24.362 10.929-24.362 24.362s10.929 24.362 24.362 24.362 24.363-10.929 24.363-24.362-10.929-24.362-24.363-24.362zm0 33.724c-5.163 0-9.362-4.2-9.362-9.362s4.2-9.362 9.362-9.362 9.363 4.2 9.363 9.362-4.2 9.362-9.363 9.362z"/><path d="m212.531 55.048c-13.434 0-24.363 10.929-24.363 24.362s10.929 24.362 24.363 24.362 24.362-10.929 24.362-24.362-10.928-24.362-24.362-24.362zm0 33.724c-5.163 0-9.363-4.2-9.363-9.362s4.2-9.362 9.363-9.362 9.362 4.2 9.362 9.362-4.199 9.362-9.362 9.362z"/></g></g></svg>