<svg id="Capa_1" enable-background="new 0 0 512 512" height="512" viewBox="0 0 512 512" width="512" xmlns="http://www.w3.org/2000/svg"><g><g><g><path d="m443.418 76.137h-4.054c3.84-22.722-5.95-46.56-26.671-59.597-27.489-17.295-63.794-9.032-81.09 18.457-1.995 3.171-3.649 6.46-4.973 9.824-4.677-3.227-10.345-5.12-16.457-5.12-16.03 0-29.025 12.995-29.025 29.025 0 2.562.335 5.045.958 7.411h-24.745c-25.527 0-46.22 20.693-46.22 46.22s20.693 46.22 46.22 46.22h186.056c25.527 0 46.22-20.693 46.22-46.22s-20.692-46.22-46.219-46.22z" fill="#ddebfd"/><path d="m443.418 76.137h-4.054c3.84-22.722-5.95-46.56-26.671-59.597-14.339-9.022-31.073-11.075-46.261-7.087 5.609 1.487 11.091 3.834 16.261 7.087 20.721 13.037 30.51 36.875 26.671 59.597h4.054c25.527 0 46.22 20.693 46.22 46.22s-20.694 46.22-46.22 46.22h30c25.527 0 46.22-20.693 46.22-46.22s-20.693-46.22-46.22-46.22z" fill="#bed9fd"/><path d="m280.764 470.9h-221.701c-5.634 0-10.202-4.567-10.202-10.202v-331.791c0-5.634 4.567-10.202 10.202-10.202h221.701c5.634 0 10.202 4.567 10.202 10.202v331.791c0 5.634-4.568 10.202-10.202 10.202z" fill="#5392f9"/><path d="m280.764 118.706h-30c5.634 0 10.202 4.567 10.202 10.202v331.791c0 5.634-4.567 10.202-10.202 10.202h30c5.634 0 10.202-4.567 10.202-10.202v-331.792c0-5.634-4.568-10.201-10.202-10.201z" fill="#4071f7"/><path d="m327.742 162.692v324.198h-242.105v-261.185l73.216-73.215h158.687c5.634 0 10.202 4.567 10.202 10.202z" fill="#ddebfd"/><path d="m317.54 152.49h-30c5.634 0 10.202 4.567 10.202 10.202v324.198h30v-324.199c0-5.634-4.567-10.201-10.202-10.201z" fill="#bed9fd"/><g><circle cx="255.028" cy="283.878" fill="#407194" r="15.223"/><path d="m267.567 361.499h-28.47c-1.495 0-2.706 1.212-2.706 2.706v28.47c0 1.495 1.212 2.706 2.706 2.706h28.47c1.495 0 2.706-1.212 2.706-2.706v-28.47c.001-1.494-1.211-2.706-2.706-2.706z" fill="#5392f9"/><path d="m174.282 266.992h-28.47c-1.495 0-2.706 1.212-2.706 2.706v28.47c0 1.495 1.212 2.706 2.706 2.706h28.47c1.495 0 2.706-1.212 2.706-2.706v-28.47c0-1.494-1.212-2.706-2.706-2.706z" fill="#db377e"/></g><path d="m158.853 152.49-73.215 73.216h62.809c5.747 0 10.406-4.659 10.406-10.406z" fill="#bed9fd"/><path d="m247.508 458.105-36.15-32.69c-1.838-1.662-4.229-2.583-6.707-2.583h-172.289c-5.523 0-10 4.477-10 10v61.668c0 5.523 4.477 10 10 10h311.879c5.523 0 10-4.477 10-10v-23.812c0-5.523-4.477-10-10-10h-90.026c-2.479 0-4.869-.921-6.707-2.583z" fill="#eec06b"/><g fill="#e9a761"><path d="m217.508 458.105c1.838 1.663 4.229 2.583 6.707 2.583h30c-2.479 0-4.869-.92-6.707-2.583l-36.15-32.69c-1.838-1.663-4.229-2.583-6.707-2.583h-30c2.479 0 4.869.92 6.707 2.583z"/><path d="m344.241 460.688h-30c5.523 0 10 4.477 10 10v23.812c0 5.523-4.477 10-10 10h30c5.523 0 10-4.477 10-10v-23.812c0-5.523-4.477-10-10-10z"/></g><g fill="#5392f9"><path d="m371.83 240.435v27.071c0 2.418 2.715 3.843 4.705 2.469l52.495-36.245c1.026-.708 2.383-.708 3.409 0l52.495 36.245c1.99 1.374 4.705-.05 4.705-2.469v-27.071c0-1.643-.807-3.181-2.159-4.115l-55.04-38.002c-1.026-.708-2.383-.708-3.409 0l-55.04 38.002c-1.354.934-2.161 2.472-2.161 4.115z"/><path d="m371.83 319.409v27.071c0 2.418 2.715 3.843 4.705 2.469l52.495-36.245c1.026-.708 2.383-.708 3.409 0l52.495 36.245c1.99 1.374 4.705-.05 4.705-2.469v-27.071c0-1.643-.807-3.181-2.159-4.115l-55.04-38.002c-1.026-.708-2.383-.708-3.409 0l-55.04 38.002c-1.354.934-2.161 2.472-2.161 4.115z"/><path d="m371.83 398.384v27.071c0 2.418 2.715 3.843 4.705 2.469l52.495-36.245c1.026-.708 2.383-.708 3.409 0l52.495 36.245c1.99 1.374 4.705-.05 4.705-2.469v-27.071c0-1.643-.807-3.181-2.159-4.115l-55.04-38.002c-1.026-.708-2.383-.708-3.409 0l-55.04 38.002c-1.354.933-2.161 2.472-2.161 4.115z"/></g></g></g><g><path d="m242.813 353.998h-3.717c-5.628 0-10.207 4.578-10.207 10.206v28.47c0 5.628 4.579 10.206 10.207 10.206h28.47c5.628 0 10.206-4.578 10.206-10.206v-28.47c0-5.628-4.578-10.206-10.206-10.206h-9.295c-6.046-26.369-22.453-48.726-44.776-62.557h20.1c3.115 8.82 11.546 15.159 21.434 15.158h.024c12.557-.014 22.711-10.188 22.697-22.748-.012-12.536-10.16-22.699-22.722-22.699h-.027c-6.073.007-11.78 2.39-16.071 6.71-2.446 2.462-4.237 5.394-5.344 8.578h-49.101v-6.745c0-5.628-4.579-10.206-10.206-10.206h-28.47c-5.628 0-10.207 4.578-10.207 10.206v28.47c0 5.628 4.579 10.206 10.207 10.206h28.47c5.628 0 10.206-4.578 10.206-10.206v-3.342c28.388 8.185 50.556 30.67 58.328 59.175zm19.959 33.882h-18.882v-18.882h18.883v18.882zm-7.754-111.727h.01c4.216 0 7.718 3.405 7.722 7.715.004 4.272-3.45 7.728-7.718 7.732-4.254 0-7.721-3.438-7.726-7.666-.005-4.277 3.449-7.777 7.712-7.781zm-85.532 17.219h-18.883v-18.882h18.883z"/><path d="m344.241 453.188h-9.001v-277.112h108.181c29.622 0 53.721-24.099 53.721-53.721 0-28.201-21.842-51.395-49.498-53.556.907-23.489-10.675-45.847-30.957-58.612-16.21-10.208-36.041-12.896-54.406-7.376-3.967 1.192-6.216 5.375-5.024 9.342 1.193 3.967 5.376 6.217 9.342 5.024 14.209-4.274 29.552-2.194 42.096 5.705 17.602 11.077 26.736 31.491 23.27 52.005-.367 2.177.242 4.404 1.668 6.091 3.146 3.722 7.368 2.377 9.788 2.658 21.351 0 38.72 17.369 38.72 38.72s-17.369 38.72-38.72 38.72h-108.262c-.817-9.007-8.403-16.09-17.619-16.09h-19.071v-16.08c0-9.76-7.944-17.7-17.71-17.7h-60.473c4.836-15.971 19.791-27.57 37.073-27.57h24.75c2.329 0 4.526-1.082 5.946-2.93 3.074-3.998.594-6.49.594-11.981 0-11.872 9.653-21.531 21.52-21.531 4.386 0 8.605 1.312 12.2 3.793 3.974 2.743 9.474 1.065 11.24-3.43 1.885-4.797 4.546-9.389 7.826-13.453 2.601-3.224 2.097-7.945-1.127-10.547-3.226-2.602-7.947-2.096-10.547 1.127-2.603 3.228-4.77 6.527-6.606 9.888-4.114-1.567-8.5-2.378-12.988-2.378-20.108 0-36.472 16.338-36.52 36.441h-16.29c-25.503 0-47.358 18.211-52.544 42.57h-145.757c-9.76 0-17.7 7.941-17.7 17.7v137.752c0 4.143 3.358 7.5 7.5 7.5s7.5-3.357 7.5-7.5v-137.752c0-1.489 1.211-2.7 2.7-2.7h221.703c1.494 0 2.71 1.211 2.71 2.7v16.08h-124.62c-2.063 0-3.992.885-5.303 2.196l-73.213 73.213c-1.378 1.378-2.197 3.284-2.197 5.304v189.632h-21.78v-113.673c0-4.143-3.358-7.5-7.5-7.5s-7.5 3.357-7.5 7.5v113.674h-8.998c-9.65 0-17.5 7.851-17.5 17.5v61.669c0 9.65 7.851 17.5 17.5 17.5h311.883c9.65 0 17.5-7.851 17.5-17.5v-23.812c.001-9.65-7.85-17.5-17.5-17.5zm-192.892-282.595v44.703c0 1.601-1.303 2.903-2.905 2.903h-44.701zm-58.213 62.606h55.307c9.873 0 17.905-8.031 17.905-17.904v-55.309h151.192c1.489 0 2.7 1.211 2.7 2.7v290.501h-66.026c-.621 0-1.216-.229-1.677-.646l-36.15-32.692c-3.224-2.914-7.392-4.52-11.737-4.52h-111.514zm253.605 261.301c0 1.379-1.121 2.5-2.5 2.5h-311.883c-1.378 0-2.5-1.121-2.5-2.5v-61.669c0-1.379 1.122-2.5 2.5-2.5h172.291c.621 0 1.217.229 1.677.646l36.15 32.691c3.224 2.914 7.392 4.52 11.738 4.52h73.487c.013 0 .026.002.039.002s.026-.002.039-.002h16.463c1.379 0 2.5 1.121 2.5 2.5v23.812z"/><path d="m491.743 230.145-55.044-38.004c-3.569-2.462-8.362-2.46-11.93.002l-55.04 38.002c-3.38 2.334-5.398 6.18-5.398 10.288v27.072c0 3.915 2.153 7.478 5.62 9.297 3.469 1.818 7.623 1.567 10.846-.656l49.938-34.48 7.095 4.899c3.407 2.355 8.081 1.499 10.434-1.91 2.354-3.409 1.498-8.08-1.91-10.434l-9.651-6.663c-3.571-2.466-8.366-2.466-11.934-.001l-45.438 31.374v-17.185l51.405-35.492 51.404 35.492v17.185l-6.946-4.797c-3.408-2.354-8.081-1.498-10.434 1.91-2.354 3.409-1.498 8.08 1.91 10.434l14.006 9.671c1.791 1.235 3.87 1.861 5.96 1.861 1.669 0 3.346-.399 4.885-1.208 3.466-1.819 5.619-5.382 5.619-9.296v-27.072c0-4.108-2.018-7.954-5.397-10.289z"/><path d="m491.743 309.121-55.044-38.005c-3.569-2.462-8.362-2.46-11.93.002l-55.037 38.001c-3.382 2.333-5.401 6.179-5.401 10.289v27.072c0 3.916 2.154 7.479 5.622 9.298 1.539.808 3.214 1.207 4.882 1.207 2.09 0 4.171-.627 5.962-1.864l49.938-34.48 49.939 34.48c3.223 2.227 7.379 2.478 10.845.657 3.467-1.82 5.621-5.383 5.621-9.298v-27.072c0-4.109-2.019-7.955-5.397-10.287zm-9.603 28.783-45.441-31.375c-1.784-1.23-3.874-1.846-5.964-1.846-2.091 0-4.182.616-5.966 1.848l-45.438 31.374v-17.185l51.405-35.493 51.404 35.493z"/><path d="m491.743 388.096-55.044-38.005c-3.569-2.462-8.362-2.46-11.93.002l-55.04 38.003c-3.38 2.334-5.398 6.18-5.398 10.287v27.072c0 3.916 2.154 7.479 5.622 9.298 1.539.808 3.214 1.207 4.882 1.207 2.09 0 4.171-.627 5.962-1.864l49.938-34.48 49.939 34.48c3.223 2.226 7.379 2.477 10.845.657 3.467-1.82 5.621-5.383 5.621-9.298v-27.072c0-4.107-2.018-7.952-5.397-10.287zm-9.603 28.782-45.441-31.375c-1.784-1.23-3.874-1.846-5.964-1.846-2.091 0-4.182.616-5.966 1.848l-45.438 31.374v-17.184l51.405-35.493 51.404 35.493z"/></g></g></svg>