<svg id="Capa_1" enable-background="new 0 0 512 512" height="512" viewBox="0 0 512 512" width="512" xmlns="http://www.w3.org/2000/svg"><g><g><g><path d="m415.595 87.366-47.258 3.373c-7.085.506-10.294 9.107-5.271 14.13l43.885 43.885c5.023 5.023 13.624 1.814 14.13-5.271l3.373-47.258c.359-5.034-3.825-9.218-8.859-8.859z" fill="#5392f9"/><path d="m34.636 202.736v263.196c0 6.214 5.038 11.252 11.252 11.252h263.196c6.214 0 11.252-5.038 11.252-11.252v-263.196c0-6.214-5.038-11.252-11.252-11.252h-263.196c-6.214 0-11.252 5.038-11.252 11.252z" fill="#ddebfd"/><path d="m309.084 191.484h-30c6.214 0 11.252 5.038 11.252 11.252v263.196c0 6.214-5.037 11.252-11.252 11.252h30c6.214 0 11.252-5.038 11.252-11.252v-263.196c0-6.215-5.038-11.252-11.252-11.252z" fill="#bed9fd"/><circle cx="252.826" cy="280.479" fill="#eec06b" r="20.479"/><path d="m247.383 420.894-79.162-90.805c-7.12-8.167-19.813-8.167-26.933 0l-106.652 122.34v13.503c0 6.214 5.038 11.252 11.252 11.252h263.196c6.214 0 11.252-5.038 11.252-11.252v-100.89l-62.166 56.481c-3.137 2.849-8.002 2.566-10.787-.629z" fill="#5392f9"/><path d="m290.336 465.932c0 6.213-5.035 11.249-11.247 11.252h29.995c5.826 0 10.617-4.428 11.193-10.102.038-.378.058-.762.058-1.15v-100.891l-30 27.257v73.634z" fill="#4071f7"/><g fill="#db387e"><path d="m7.68 12.001v44.911c0 2.486 2.015 4.501 4.501 4.501h44.911c2.486 0 4.501-2.015 4.501-4.501v-44.911c0-2.486-2.015-4.501-4.501-4.501h-44.911c-2.486 0-4.501 2.015-4.501 4.501z"/><path d="m450.408 12.361v44.911c0 2.486 2.015 4.501 4.501 4.501h44.911c2.486 0 4.501-2.015 4.501-4.501v-44.911c0-2.486-2.015-4.501-4.501-4.501h-44.911c-2.486 0-4.501 2.015-4.501 4.501z"/><path d="m450.408 455.088v44.911c0 2.486 2.015 4.501 4.501 4.501h44.911c2.486 0 4.501-2.015 4.501-4.501v-44.911c0-2.486-2.015-4.501-4.501-4.501h-44.911c-2.486 0-4.501 2.016-4.501 4.501z"/></g></g></g><g><path d="m415.062 79.885-47.258 3.373c-6.244.446-11.481 4.366-13.67 10.231-2.188 5.864-.797 12.257 3.629 16.684l16.638 16.638-30.455 30.456c-2.929 2.93-2.929 7.678 0 10.607 1.465 1.464 3.385 2.196 5.304 2.196s3.839-.732 5.304-2.196l30.455-30.456 16.639 16.639c3.041 3.04 7.008 4.647 11.096 4.647 1.863 0 3.752-.334 5.588-1.02 5.865-2.188 9.785-7.426 10.231-13.669l3.371-47.258c.327-4.57-1.344-9.05-4.584-12.289-3.24-3.238-7.704-4.901-12.288-4.583zm-1.461 63.063c-.013.177-.036.506-.512.684-.475.18-.709-.055-.834-.182-14.968-14.968-27.405-27.405-43.885-43.885-.126-.125-.359-.358-.182-.834.177-.475.507-.499.684-.511l47.258-3.374c.021-.001.043-.002.063-.002.211 0 .396.078.55.231.169.169.246.376.229.614z"/><path d="m280.805 280.479c0-15.428-12.551-27.979-27.979-27.979s-27.979 12.552-27.979 27.979 12.552 27.979 27.979 27.979 27.979-12.552 27.979-27.979zm-40.958 0c0-7.157 5.822-12.979 12.979-12.979 7.156 0 12.979 5.822 12.979 12.979s-5.822 12.979-12.979 12.979-12.979-5.822-12.979-12.979z"/><path d="m309.084 183.984h-263.196c-10.34 0-18.752 8.412-18.752 18.751v22.265c0 4.143 3.357 7.5 7.5 7.5s7.5-3.357 7.5-7.5v-22.265c0-2.068 1.684-3.751 3.752-3.751h263.196c2.068 0 3.752 1.683 3.752 3.751v158.984l-59.8 54.247-79.161-90.805c-10.109-11.596-28.141-11.585-38.24 0l-93.499 107.252v-172.413c0-4.143-3.357-7.5-7.5-7.5s-7.5 3.357-7.5 7.5v205.932c0 10.34 8.412 18.752 18.752 18.752h186.459c4.143 0 7.5-3.357 7.5-7.5s-3.357-7.5-7.5-7.5h-186.459c-2.069 0-3.752-1.684-3.752-3.752v-10.692l104.806-120.222c4.136-4.745 11.484-4.752 15.627 0l79.161 90.805c2.683 3.077 6.404 4.902 10.479 5.139 4.087.24 7.983-1.144 11.004-3.889l49.623-45.085v83.944c0 2.068-1.684 3.752-3.752 3.752h-41.737c-4.143 0-7.5 3.357-7.5 7.5s3.357 7.5 7.5 7.5h41.737c10.34 0 18.752-8.412 18.752-18.752v-263.197c0-10.339-8.412-18.751-18.752-18.751z"/><path d="m69.092 56.912v-44.911c0-6.617-5.383-12.001-12-12.001h-44.911c-6.617 0-12 5.384-12 12.001v44.911c0 6.617 5.383 12 12 12h44.911c6.617 0 12-5.383 12-12zm-15-3h-38.911v-38.912h38.911z"/><path d="m499.819.36h-44.911c-6.617 0-12 5.384-12 12.001v44.911c0 6.617 5.383 12 12 12h44.911c6.617 0 12-5.383 12-12v-44.911c0-6.617-5.382-12.001-12-12.001zm-3 53.912h-38.911v-38.912h38.911z"/><path d="m499.819 443.088h-44.911c-6.617 0-12 5.383-12 12v44.911c0 6.617 5.383 12.001 12 12.001h44.911c6.617 0 12-5.384 12-12.001v-44.911c0-6.617-5.382-12-12-12zm-3 53.912h-38.911v-38.912h38.911z"/><path d="m42.137 97.553c0-4.143-3.357-7.5-7.5-7.5s-7.5 3.357-7.5 7.5v11.59c0 4.143 3.357 7.5 7.5 7.5s7.5-3.357 7.5-7.5z"/><path d="m34.637 140.997c-4.143 0-7.5 3.357-7.5 7.5v11.59c0 4.143 3.357 7.5 7.5 7.5s7.5-3.357 7.5-7.5v-11.59c0-4.143-3.358-7.5-7.5-7.5z"/><path d="m477.363 116.643c4.143 0 7.5-3.357 7.5-7.5v-11.59c0-4.143-3.357-7.5-7.5-7.5s-7.5 3.357-7.5 7.5v11.59c0 4.142 3.358 7.5 7.5 7.5z"/><path d="m469.863 160.087c0 4.143 3.357 7.5 7.5 7.5s7.5-3.357 7.5-7.5v-11.59c0-4.143-3.357-7.5-7.5-7.5s-7.5 3.357-7.5 7.5z"/><path d="m469.863 211.031c0 4.143 3.357 7.5 7.5 7.5s7.5-3.357 7.5-7.5v-11.59c0-4.143-3.357-7.5-7.5-7.5s-7.5 3.357-7.5 7.5z"/><path d="m469.863 261.976c0 4.143 3.357 7.5 7.5 7.5s7.5-3.357 7.5-7.5v-11.59c0-4.143-3.357-7.5-7.5-7.5s-7.5 3.357-7.5 7.5z"/><path d="m469.863 312.919c0 4.143 3.357 7.5 7.5 7.5s7.5-3.357 7.5-7.5v-11.59c0-4.143-3.357-7.5-7.5-7.5s-7.5 3.357-7.5 7.5z"/><path d="m469.863 363.863c0 4.143 3.357 7.5 7.5 7.5s7.5-3.357 7.5-7.5v-11.59c0-4.143-3.357-7.5-7.5-7.5s-7.5 3.357-7.5 7.5z"/><path d="m469.863 414.808c0 4.143 3.357 7.5 7.5 7.5s7.5-3.357 7.5-7.5v-11.59c0-4.143-3.357-7.5-7.5-7.5s-7.5 3.357-7.5 7.5z"/><path d="m403.037 42.316h11.59c4.143 0 7.5-3.357 7.5-7.5s-3.357-7.5-7.5-7.5h-11.59c-4.143 0-7.5 3.357-7.5 7.5s3.358 7.5 7.5 7.5z"/><path d="m352.093 42.316h11.59c4.143 0 7.5-3.357 7.5-7.5s-3.357-7.5-7.5-7.5h-11.59c-4.143 0-7.5 3.357-7.5 7.5s3.357 7.5 7.5 7.5z"/><path d="m301.149 42.316h11.59c4.143 0 7.5-3.357 7.5-7.5s-3.357-7.5-7.5-7.5h-11.59c-4.143 0-7.5 3.357-7.5 7.5s3.358 7.5 7.5 7.5z"/><path d="m250.205 42.316h11.59c4.143 0 7.5-3.357 7.5-7.5s-3.357-7.5-7.5-7.5h-11.59c-4.143 0-7.5 3.357-7.5 7.5s3.358 7.5 7.5 7.5z"/><path d="m199.261 42.316h11.59c4.143 0 7.5-3.357 7.5-7.5s-3.357-7.5-7.5-7.5h-11.59c-4.143 0-7.5 3.357-7.5 7.5s3.357 7.5 7.5 7.5z"/><path d="m148.317 42.316h11.59c4.143 0 7.5-3.357 7.5-7.5s-3.357-7.5-7.5-7.5h-11.59c-4.143 0-7.5 3.357-7.5 7.5s3.358 7.5 7.5 7.5z"/><path d="m97.373 42.316h11.59c4.143 0 7.5-3.357 7.5-7.5s-3.357-7.5-7.5-7.5h-11.59c-4.143 0-7.5 3.357-7.5 7.5s3.357 7.5 7.5 7.5z"/><path d="m414.627 470.044h-11.59c-4.143 0-7.5 3.357-7.5 7.5s3.357 7.5 7.5 7.5h11.59c4.143 0 7.5-3.357 7.5-7.5s-3.357-7.5-7.5-7.5z"/><path d="m363.683 470.044h-11.59c-4.143 0-7.5 3.357-7.5 7.5s3.357 7.5 7.5 7.5h11.59c4.143 0 7.5-3.357 7.5-7.5s-3.358-7.5-7.5-7.5z"/></g></g></svg>