<svg id="Capa_1" enable-background="new 0 0 512 512" height="512" viewBox="0 0 512 512" width="512" xmlns="http://www.w3.org/2000/svg"><g><g><g><path d="m340.139 246.041v68h56.663v-68c0-3.735-3.028-6.763-6.763-6.763h-43.136c-3.736-.001-6.764 3.027-6.764 6.763z" fill="#bed9fd"/><path d="m456.616 349.669v145.252h-152.342c-13.222 0-23.942-10.72-23.942-23.942v-121.31c0-37.885 30.705-68.591 68.591-68.591h39.092c37.885 0 68.601 30.706 68.601 68.591z" fill="#ddebfd"/><path d="m388.014 281.078h-26c37.885 0 68.602 30.705 68.602 68.591v145.252h26v-145.252c0-37.885-30.716-68.591-68.602-68.591z" fill="#bed9fd"/><path d="m456.616 372.618h-176.284v98.361c0 13.222 10.72 23.942 23.942 23.942h152.342z" fill="#5392f9"/><path d="m430.616 372.618h26v122.303h-26z" fill="#4071f7"/><path d="m368.471 202.547c-10.895 0-19.726-8.832-19.726-19.726v-14.031c0-21.01 10.681-32.378 17.749-39.901 5.588-5.946 7.049-7.715 7.049-12.885 0-5.173-1.462-6.942-7.051-12.89-7.067-7.523-17.748-18.892-17.748-39.903 0-21.012 10.681-32.381 17.749-39.904 7.46-7.941 19.945-8.328 27.883-.869 7.94 7.46 8.33 19.944.87 27.884-5.588 5.948-7.049 7.717-7.049 12.889s1.462 6.942 7.049 12.89c7.068 7.523 17.749 18.892 17.749 39.904 0 21.01-10.681 32.378-17.749 39.9-5.588 5.946-7.049 7.715-7.049 12.885v14.031c0 10.894-8.831 19.726-19.726 19.726z" fill="#5392f9"/><path d="m84.615 116.784h56.663v96.981h-56.663z" fill="#bed9fd"/><path d="m201.089 456.386h-176.285v-208.117c0-37.886 30.713-68.598 68.598-68.598h39.088c37.886 0 68.598 30.713 68.598 68.598v208.117z" fill="#ddebfd"/><path d="m132.49 179.67h-30c37.886 0 68.598 30.713 68.598 68.598v208.118h30v-208.117c.001-37.886-30.712-68.599-68.598-68.599z" fill="#bed9fd"/><path d="m24.804 271.215h176.285v129.065h-176.285z" fill="#db387e"/><path d="m171.089 271.215h30v129.065h-30z" fill="#c4237c"/><path d="m13.136 494.921h199.621c3.113 0 5.636-2.523 5.636-5.636v-27.263c0-3.113-2.523-5.636-5.636-5.636h-199.621c-3.113 0-5.636 2.523-5.636 5.636v27.263c0 3.113 2.523 5.636 5.636 5.636z" fill="#bed9fd"/><path d="m212.757 456.386h-30c3.113 0 5.636 2.523 5.636 5.636v27.263c0 3.113-2.523 5.636-5.636 5.636h30c3.113 0 5.636-2.523 5.636-5.636v-27.263c0-3.112-2.524-5.636-5.636-5.636z" fill="#9ec8fc"/><path d="m33.461 133.365v-35.16c0-3.113 2.523-5.636 5.636-5.636h147.699c3.113 0 5.636 2.523 5.636 5.636v35.16c0 3.113-2.523 5.636-5.636 5.636h-147.699c-3.113 0-5.636-2.523-5.636-5.636z" fill="#407194"/><path d="m186.796 92.569h-30c3.113 0 5.636 2.523 5.636 5.636v35.16c0 3.113-2.523 5.636-5.636 5.636h30c3.113 0 5.636-2.523 5.636-5.636v-35.16c0-3.112-2.523-5.636-5.636-5.636z" fill="#365f7e"/><path d="m504.5 447.297v23.683c0 13.223-10.719 23.942-23.942 23.942h-176.284c13.222 0 23.942-10.72 23.942-23.942v-23.683c0-3.113 2.523-5.636 5.636-5.636h165.012c3.113 0 5.636 2.523 5.636 5.636z" fill="#bed9fd"/><path d="m498.864 441.661h-26c3.113 0 5.636 2.523 5.636 5.636v23.683c0 13.223-10.719 23.942-23.942 23.942h26c13.223 0 23.942-10.719 23.942-23.942v-23.683c0-3.113-2.523-5.636-5.636-5.636z" fill="#9ec8fc"/></g></g><g><path d="m368.471 210.046c15.013 0 27.227-12.213 27.227-27.226v-14.031c0-2.276 0-2.412 5.018-7.751 7.398-7.875 19.781-21.055 19.781-45.034s-12.382-37.16-19.783-45.039c-5.016-5.339-5.016-5.476-5.016-7.754 0-2.279 0-2.416 5.016-7.753 4.979-5.3 7.598-12.223 7.371-19.492-.228-7.269-3.271-14.015-8.571-18.993-11.053-10.389-28.26-9.683-38.484 1.199-7.399 7.875-19.783 21.056-19.783 45.04 0 23.979 12.382 37.161 19.782 45.039 5.016 5.338 5.016 5.475 5.016 7.754 0 2.276 0 2.413-5.015 7.749-7.399 7.875-19.783 21.056-19.783 45.037v14.031c-.002 15.011 12.211 27.224 27.224 27.224zm-12.226-41.257c0-18.04 9.083-27.707 15.715-34.765 5.664-6.028 9.083-9.666 9.083-18.021 0-8.358-3.419-11.997-9.085-18.026-6.631-7.06-15.713-16.728-15.713-34.767 0-18.042 9.083-27.709 15.715-34.769 4.623-4.92 12.357-5.165 17.282-.538 2.38 2.236 3.747 5.265 3.849 8.529s-1.073 6.373-3.31 8.752c-5.665 6.029-9.084 9.668-9.084 18.025 0 8.355 3.419 11.995 9.086 18.027 6.631 7.059 15.713 16.727 15.713 34.766 0 18.038-9.082 27.705-15.715 34.765-5.665 6.029-9.084 9.667-9.084 18.021v14.031c0 6.742-5.484 12.226-12.227 12.226-6.741 0-12.226-5.484-12.226-12.226v-14.03z"/><path d="m212.757 448.886h-4.168v-200.617c0-36.369-25.652-66.843-59.809-74.324v-27.443h38.016c7.243 0 13.136-5.893 13.136-13.136v-35.16c0-7.243-5.893-13.136-13.136-13.136h-147.699c-7.243 0-13.136 5.893-13.136 13.136v35.16c0 7.243 5.893 13.136 13.136 13.136h38.013v27.41c-10.998 2.384-21.31 7.192-30.395 14.259-3.27 2.543-3.858 7.255-1.315 10.525 2.544 3.27 7.256 3.858 10.524 1.315 8.658-6.735 18.708-10.917 29.422-12.313 10.948-1.065 8.893-.196 47.144-.527 33.689 0 61.099 27.409 61.099 61.098v15.446h-161.285v-15.446c0-7.929 1.495-15.641 4.443-22.922 1.556-3.839-.297-8.212-4.136-9.767-3.84-1.556-8.212.296-9.767 4.136-3.677 9.078-5.541 18.685-5.541 28.553v200.618h-4.168c-7.242-.001-13.135 5.892-13.135 13.136v27.263c0 7.243 5.893 13.136 13.136 13.136h199.621c7.243 0 13.136-5.893 13.136-13.136v-27.263c0-7.244-5.893-13.137-13.136-13.137zm-171.796-348.817h143.971v31.432h-143.971zm51.149 72.128v-25.695h41.67v25.702c-2.822-.048-39.214-.048-41.67-.007zm101.479 106.518v114.065h-161.285v-114.065zm-161.285 129.065h161.285v41.106h-161.285zm178.589 79.641h-195.893v-23.535h195.893z"/><path d="m498.864 434.161h-34.744v-84.496c0-12.661-3.178-25.203-9.19-36.27-1.978-3.639-6.528-4.988-10.17-3.01-3.64 1.978-4.987 6.531-3.01 10.17 4.821 8.876 7.37 18.942 7.37 29.11v15.453h-161.288v-15.449c0-33.686 27.405-61.091 61.091-61.091h39.092c11.708 0 23.08 3.318 32.889 9.595 3.488 2.232 8.127 1.214 10.36-2.274 2.232-3.489 1.214-8.127-2.274-10.36-7.602-4.865-15.955-8.302-24.689-10.207v-29.287c0-7.869-6.396-14.27-14.26-14.27h-43.141c-7.863 0-14.261 6.401-14.261 14.27v29.306c-34.156 7.478-59.808 37.951-59.808 74.318v121.31c0 17.337 14.105 31.442 31.442 31.442h176.283c17.337 0 31.442-14.105 31.442-31.442v-23.683c.002-7.243-5.891-13.135-13.134-13.135zm-151.224-187.386h41.66v26.826c-.428-.007-.856-.023-1.285-.023 0 0-39.946.025-40.375.033zm-59.808 224.204v-90.861h161.288v54.043h-115.268c-7.243 0-13.136 5.893-13.136 13.136v23.683c0 9.066-7.376 16.442-16.441 16.442-9.067-.001-16.443-7.377-16.443-16.443zm209.168 0c0 9.066-7.376 16.442-16.442 16.442h-149.493c2.949-4.787 4.65-10.419 4.65-16.442v-21.818c102.546 0-49.168.002 161.284 0v21.818z"/></g></g></svg>