<svg id="Capa_1" enable-background="new 0 0 512 512" height="512" viewBox="0 0 512 512" width="512" xmlns="http://www.w3.org/2000/svg"><g><g><g><path d="m107.803 98.477v242.34c0 5.722 4.638 10.36 10.36 10.36h242.341c5.722 0 10.36-4.638 10.36-10.36v-242.34c0-5.722-4.638-10.36-10.36-10.36h-242.341c-5.721 0-10.36 4.638-10.36 10.36z" fill="#ddebfd"/><path d="m360.504 88.117h-30c5.722 0 10.36 4.638 10.36 10.36v242.34c0 5.722-4.638 10.36-10.36 10.36h30c5.722 0 10.36-4.639 10.36-10.36v-242.34c0-5.722-4.638-10.36-10.36-10.36z" fill="#bed9fd"/><circle cx="304.605" cy="170.06" fill="#eec06b" r="22.904"/><path d="m303.692 299.349-72.889-83.609c-6.556-7.52-18.243-7.52-24.799 0l-98.201 112.645v12.433c0 5.722 4.638 10.36 10.36 10.36h242.34c5.722 0 10.36-4.638 10.36-10.36v-92.896l-57.24 52.005c-2.887 2.624-7.367 2.363-9.931-.578z" fill="#5392f9"/><path d="m340.864 275.178v65.639c0 5.721-4.636 10.358-10.356 10.36h29.996c3.186 0 6.033-1.441 7.933-3.703 1.512-1.801 2.427-4.122 2.427-6.657v-92.896z" fill="#4071f7"/><g fill="#db377e"><path d="m14.07 11.741v33.926c0 2.342 1.899 4.241 4.241 4.241h33.926c2.342 0 4.241-1.899 4.241-4.241v-33.926c0-2.342-1.899-4.241-4.241-4.241h-33.926c-2.342 0-4.241 1.899-4.241 4.241z"/><path d="m14.07 393.628v33.926c0 2.342 1.899 4.241 4.241 4.241h33.926c2.342 0 4.241-1.899 4.241-4.241v-33.926c0-2.342-1.899-4.241-4.241-4.241h-33.926c-2.342 0-4.241 1.898-4.241 4.241z"/></g><path d="m434.124 7.5h-33.926c-2.342 0-4.241 1.899-4.241 4.241v33.926c0 2.342 1.899 4.241 4.241 4.241h33.926c2.342 0 4.241-1.899 4.241-4.241v-33.926c0-2.342-1.899-4.241-4.241-4.241z" fill="#db377e"/><path d="m486.913 504.5h-155.526c-6.085 0-11.017-4.932-11.017-11.017v-155.525c0-6.085 4.932-11.017 11.017-11.017h155.525c6.085 0 11.017 4.933 11.017 11.017v155.525c.001 6.085-4.932 11.017-11.016 11.017z" fill="#eec06b"/><path d="m486.913 326.94h-30c6.085 0 11.017 4.933 11.017 11.017v155.525c0 6.084-4.932 11.017-11.017 11.017h30c6.085 0 11.017-4.933 11.017-11.017v-155.524c0-6.085-4.933-11.018-11.017-11.018z" fill="#e9a761"/></g></g><g><path d="m304.605 200.464c16.765 0 30.403-13.64 30.403-30.404s-13.639-30.403-30.403-30.403-30.403 13.639-30.403 30.403 13.639 30.404 30.403 30.404zm0-45.808c8.493 0 15.403 6.91 15.403 15.403 0 8.494-6.91 15.404-15.403 15.404s-15.403-6.91-15.403-15.404c0-8.493 6.91-15.403 15.403-15.403z"/><path d="m52.237 0h-33.925c-6.475 0-11.742 5.267-11.742 11.741v33.926c0 6.475 5.267 11.741 11.741 11.741h33.926c6.475 0 11.741-5.267 11.741-11.741v-33.926c.001-6.474-5.266-11.741-11.741-11.741zm-3.258 42.408h-27.409v-27.408h27.408v27.408z"/><path d="m52.237 381.887h-33.925c-6.475 0-11.741 5.267-11.741 11.741v33.926c0 6.475 5.267 11.741 11.741 11.741h33.926c6.475 0 11.741-5.267 11.741-11.741v-33.926c0-6.475-5.267-11.741-11.742-11.741zm-3.258 42.408h-27.409v-27.408h27.408v27.408z"/><path d="m400.198 57.408h33.926c6.475 0 11.741-5.267 11.741-11.741v-33.926c0-6.474-5.266-11.741-11.741-11.741h-33.926c-6.475 0-11.741 5.267-11.741 11.741v33.926c0 6.475 5.267 11.741 11.741 11.741zm3.259-42.408h27.408v27.408h-27.408z"/><path d="m277.436 403.091h-19.083c-4.143 0-7.5 3.357-7.5 7.5s3.357 7.5 7.5 7.5h19.083c4.143 0 7.5-3.357 7.5-7.5s-3.358-7.5-7.5-7.5z"/><path d="m194.083 403.091h-19.084c-4.143 0-7.5 3.357-7.5 7.5s3.357 7.5 7.5 7.5h19.084c4.143 0 7.5-3.357 7.5-7.5s-3.357-7.5-7.5-7.5z"/><path d="m110.729 403.091h-19.083c-4.143 0-7.5 3.357-7.5 7.5s3.357 7.5 7.5 7.5h19.084c4.143 0 7.5-3.357 7.5-7.5s-3.358-7.5-7.501-7.5z"/><path d="m341.706 36.204h19.083c4.143 0 7.5-3.357 7.5-7.5s-3.357-7.5-7.5-7.5h-19.083c-4.143 0-7.5 3.357-7.5 7.5s3.357 7.5 7.5 7.5z"/><path d="m258.353 36.204h19.083c4.143 0 7.5-3.357 7.5-7.5s-3.357-7.5-7.5-7.5h-19.083c-4.143 0-7.5 3.357-7.5 7.5s3.357 7.5 7.5 7.5z"/><path d="m174.999 36.204h19.084c4.143 0 7.5-3.357 7.5-7.5s-3.357-7.5-7.5-7.5h-19.084c-4.143 0-7.5 3.357-7.5 7.5s3.357 7.5 7.5 7.5z"/><path d="m91.646 36.204h19.084c4.143 0 7.5-3.357 7.5-7.5s-3.357-7.5-7.5-7.5h-19.084c-4.143 0-7.5 3.357-7.5 7.5s3.357 7.5 7.5 7.5z"/><path d="m27.774 354.219c0 4.143 3.357 7.5 7.5 7.5s7.5-3.357 7.5-7.5v-19.083c0-4.143-3.357-7.5-7.5-7.5s-7.5 3.357-7.5 7.5z"/><path d="m27.774 270.865c0 4.143 3.357 7.5 7.5 7.5s7.5-3.357 7.5-7.5v-19.083c0-4.143-3.357-7.5-7.5-7.5s-7.5 3.357-7.5 7.5z"/><path d="m27.774 187.513c0 4.143 3.357 7.5 7.5 7.5s7.5-3.357 7.5-7.5v-19.084c0-4.143-3.357-7.5-7.5-7.5s-7.5 3.357-7.5 7.5z"/><path d="m35.274 111.659c4.143 0 7.5-3.357 7.5-7.5v-19.084c0-4.143-3.357-7.5-7.5-7.5s-7.5 3.357-7.5 7.5v19.084c0 4.143 3.358 7.5 7.5 7.5z"/><path d="m417.161 244.282c-4.143 0-7.5 3.357-7.5 7.5v19.083c0 4.143 3.357 7.5 7.5 7.5s7.5-3.357 7.5-7.5v-19.083c0-4.142-3.357-7.5-7.5-7.5z"/><path d="m424.661 168.429c0-4.143-3.357-7.5-7.5-7.5s-7.5 3.357-7.5 7.5v19.084c0 4.143 3.357 7.5 7.5 7.5s7.5-3.357 7.5-7.5z"/><path d="m424.661 85.075c0-4.143-3.357-7.5-7.5-7.5s-7.5 3.357-7.5 7.5v19.084c0 4.143 3.357 7.5 7.5 7.5s7.5-3.357 7.5-7.5z"/><path d="m486.913 319.44h-108.553v-220.96c0-9.849-8.012-17.86-17.86-17.86h-242.34c-9.849 0-17.86 8.012-17.86 17.86v17.539c0 4.143 3.357 7.5 7.5 7.5s7.5-3.357 7.5-7.5v-17.539c0-1.577 1.283-2.86 2.86-2.86h242.34c1.577 0 2.86 1.283 2.86 2.86v146.126l-54.374 49.401-19.578-22.457c-2.723-3.123-7.459-3.447-10.582-.725-3.122 2.722-3.446 7.46-.725 10.582l19.937 22.868c5.323 6.108 14.626 6.656 20.629 1.201l44.693-40.605v54.568h-31.973c-10.211 0-18.518 8.307-18.518 18.518v5.722h-194.707c-1.576 0-2.859-1.283-2.859-2.861v-9.623l96.354-110.527c3.536-4.057 9.887-4.138 13.492 0l29.959 34.365c2.723 3.122 7.46 3.447 10.582.725s3.446-7.46.725-10.582l-29.959-34.365c-4.549-5.218-11.129-8.211-18.052-8.212-6.923 0-13.503 2.993-18.053 8.212l-85.048 97.558v-157.349c0-4.143-3.357-7.5-7.5-7.5s-7.5 3.357-7.5 7.5v189.799c0 9.849 8.012 17.861 17.859 17.861h194.708v134.804c0 10.21 8.307 18.517 18.518 18.517h155.525c10.21 0 18.517-8.307 18.517-18.517v-155.526c0-10.211-8.307-18.518-18.517-18.518zm3.517 174.043c0 1.939-1.577 3.517-3.517 3.517h-155.525c-1.939 0-3.518-1.577-3.518-3.517v-155.525c0-1.939 1.578-3.518 3.518-3.518h155.525c1.939 0 3.517 1.578 3.517 3.518z"/><path d="m395.559 379.244 6.092-3.819v15.921c0 4.143 3.357 7.5 7.5 7.5s7.5-3.357 7.5-7.5v-15.921l6.092 3.819c1.238.776 2.615 1.146 3.977 1.146 2.496 0 4.938-1.246 6.361-3.518 2.2-3.51 1.139-8.138-2.371-10.338l-17.575-11.018c-2.428-1.522-5.536-1.524-7.967 0l-17.575 11.018c-3.51 2.2-4.571 6.828-2.371 10.338 2.199 3.512 6.829 4.573 10.337 2.372z"/><path d="m422.742 452.197-6.092 3.818v-15.922c0-4.143-3.357-7.5-7.5-7.5s-7.5 3.357-7.5 7.5v15.922l-6.092-3.818c-3.508-2.198-8.138-1.139-10.338 2.371s-1.139 8.139 2.371 10.338l17.575 11.017c2.362 1.48 5.481 1.558 7.967 0l17.575-11.017c3.51-2.199 4.571-6.828 2.371-10.338s-6.827-4.572-10.337-2.371z"/><path d="m469.353 411.737-11.017-17.576c-2.2-3.51-6.828-4.572-10.338-2.371-3.51 2.199-4.571 6.828-2.371 10.338l3.819 6.093h-15.922c-4.143 0-7.5 3.357-7.5 7.5s3.357 7.5 7.5 7.5h15.922l-3.818 6.092c-2.2 3.51-1.139 8.139 2.371 10.338 1.238.776 2.615 1.146 3.977 1.146 2.496 0 4.938-1.246 6.361-3.518l11.017-17.575c1.554-2.482 1.476-5.61-.001-7.967z"/><path d="m368.855 423.221h15.922c4.143 0 7.5-3.357 7.5-7.5s-3.357-7.5-7.5-7.5h-15.923l3.819-6.093c2.2-3.51 1.139-8.138-2.371-10.338-3.508-2.199-8.138-1.139-10.338 2.371l-11.018 17.576c-.773 1.234-1.146 2.689-1.146 3.984 0 1.427.445 2.864 1.146 3.983l11.018 17.575c1.424 2.271 3.865 3.518 6.361 3.518 1.361 0 2.738-.37 3.977-1.146 3.51-2.2 4.571-6.828 2.371-10.338z"/></g></g></svg>