<svg id="Capa_1" enable-background="new 0 0 512 512" height="512" viewBox="0 0 512 512" width="512" xmlns="http://www.w3.org/2000/svg"><g><g><g><path d="m250.861 7.5v497h-194.647c-5.523 0-10-4.477-10-10v-477c0-5.523 4.477-10 10-10z" fill="#bed9fd"/><path d="m250.861 7.5v497h204.925c5.523 0 10-4.477 10-10v-477c0-5.523-4.477-10-10-10z" fill="#ddebfd"/><path d="m455.786 7.5h-25.104c5.523 0 10 4.477 10 10v477c0 5.523-4.477 10-10 10h25.104c5.523 0 10-4.477 10-10v-477c0-5.523-4.477-10-10-10z" fill="#bed9fd"/><path d="m308.464 59.832v95.584h99.719v-95.584c0-2.761-2.239-5-5-5h-89.719c-2.761 0-5 2.239-5 5z" fill="#5392f9"/><path d="m308.464 155.416h99.719v100.584h-99.719z" fill="#db387e"/><path d="m308.464 256h99.719v100.584h-99.719z" fill="#eec06b"/><path d="m308.464 356.584v95.584c0 2.761 2.239 5 5 5h89.719c2.761 0 5-2.239 5-5v-95.584z" fill="#9cd169"/><path d="m403.183 54.832h-30c2.761 0 5 2.239 5 5v95.584h30v-95.584c0-2.761-2.238-5-5-5z" fill="#4071f7"/><path d="m378.183 155.416h30v100.584h-30z" fill="#c4237c"/><path d="m378.183 256h30v100.584h-30z" fill="#e9a761"/><path d="m378.183 356.584v95.584c0 2.761-2.239 5-5 5h30c2.761 0 5-2.239 5-5v-95.584z" fill="#68b181"/><path d="m118.65 278.177v-213.345c0-5.523 4.477-10 10-10h22.182c5.523 0 10 4.477 10 10v213.345z" fill="#db387e"/><path d="m150.833 54.832h-22.183c-.138 0-.272.015-.409.021 5.332.216 9.591 4.595 9.591 9.979v213.345h23v-213.345c.001-5.523-4.477-10-9.999-10z" fill="#c4237c"/><path d="m163.457 330.649h-47.431c-38.173 15.896-39.148 100.187 23.716 126.519 62.864-26.332 61.888-110.624 23.715-126.519z" fill="#407194"/><path d="m163.457 330.648h-23c35.679 14.858 38.856 89.464-12.216 120.649 3.568 2.179 7.395 4.151 11.5 5.87 62.865-26.331 61.889-110.623 23.716-126.519z" fill="#365f7e"/><path d="m102.285 272.582v54.908c0 3.09 2.505 5.595 5.595 5.595h63.723c3.09 0 5.595-2.505 5.595-5.595v-54.908c0-3.09-2.505-5.595-5.595-5.595h-63.723c-3.09 0-5.595 2.505-5.595 5.595z" fill="#5392f9"/><path d="m171.603 266.987h-23c3.09 0 5.595 2.505 5.595 5.595v54.908c0 3.09-2.505 5.595-5.595 5.595h23c3.09 0 5.595-2.505 5.595-5.595v-54.908c0-3.09-2.505-5.595-5.595-5.595z" fill="#4071f7"/></g></g><g><path d="m465.786 288.293c4.143 0 7.5-3.358 7.5-7.5v-263.293c0-9.649-7.851-17.5-17.5-17.5h-399.572c-9.649 0-17.5 7.851-17.5 17.5v56.949c0 4.142 3.357 7.5 7.5 7.5s7.5-3.358 7.5-7.5v-56.949c0-1.378 1.121-2.5 2.5-2.5h187.147v482h-187.147c-1.379 0-2.5-1.122-2.5-2.5v-385.051c0-4.142-3.357-7.5-7.5-7.5s-7.5 3.358-7.5 7.5v385.051c0 9.649 7.851 17.5 17.5 17.5h399.572c9.649 0 17.5-7.851 17.5-17.5v-178.707c0-4.142-3.357-7.5-7.5-7.5s-7.5 3.358-7.5 7.5v178.707c0 1.378-1.121 2.5-2.5 2.5h-197.425v-482h197.425c1.379 0 2.5 1.122 2.5 2.5v263.293c0 4.143 3.358 7.5 7.5 7.5z"/><path d="m82.291 388.132c2.697 34.385 23.091 62.78 54.552 75.956.927.388 1.912.582 2.897.582s1.97-.194 2.896-.582c31.466-13.175 51.862-41.57 54.562-75.956 1.645-20.958-4.105-40.356-15.072-52.881 1.609-2.175 2.572-4.855 2.572-7.761v-54.908c0-7.221-5.874-13.095-13.095-13.095h-3.273v-23.877c0-4.142-3.357-7.5-7.5-7.5s-7.5 3.358-7.5 7.5v23.877h-27.18v-194.657c0-1.378 1.121-2.5 2.5-2.5h22.18c1.379 0 2.5 1.122 2.5 2.5v135.78c0 4.142 3.357 7.5 7.5 7.5s7.5-3.358 7.5-7.5v-135.78c0-9.649-7.851-17.5-17.5-17.5h-22.18c-9.649 0-17.5 7.851-17.5 17.5v194.657h-3.271c-7.221 0-13.095 5.874-13.095 13.095v54.908c0 2.909.965 5.59 2.575 7.765-10.963 12.526-16.712 31.921-15.068 52.877zm27.494-113.645h59.913v51.098h-59.913zm3.792 66.098h52.336c11.537 8.341 17.911 26.242 16.331 46.374-2.166 27.6-17.973 50.556-42.504 62.011-24.524-11.456-40.33-34.413-42.495-62.011-1.58-20.132 4.795-38.033 16.332-46.374z"/><path d="m313.465 47.332c-6.893 0-12.5 5.607-12.5 12.5v392.336c0 6.893 5.607 12.5 12.5 12.5h89.718c6.893 0 12.5-5.607 12.5-12.5v-392.336c0-6.893-5.607-12.5-12.5-12.5zm2.5 201.168v-85.584h84.718v85.584zm0 15h84.718v85.584h-84.718zm0-201.168h84.718v85.584h-84.718zm0 387.336v-85.584h84.718v85.584z"/></g></g></svg>