<svg id="Capa_1" enable-background="new 0 0 512 512" height="512" viewBox="0 0 512 512" width="512" xmlns="http://www.w3.org/2000/svg"><g><g><g><path d="m286.738 271.737v227.763c0 2.761-2.239 5-5 5h-51.476c-2.761 0-5-2.239-5-5v-227.763z" fill="#5392f9"/><path d="m260.738 271.737v227.763c0 2.761-2.239 5-5 5h26c2.761 0 5-2.239 5-5v-227.763z" fill="#4071f7"/><path d="m225.262 190.362h61.476v109.949h-61.476z" fill="#407194"/><path d="m260.738 190.362h26v109.949h-26z" fill="#365f7e"/><path d="m256 32.486c8.454 0 30.738 38.113 30.738 139.963v17.913h-61.476v-17.913c0-101.85 22.573-139.963 30.738-139.963z" fill="#ddebfd"/><path d="m256 32.486c-2.987 0-7.903 5.11-12.936 16.568 8.713 19.86 17.674 58.808 17.674 123.396v17.913h26v-17.913c0-101.851-22.284-139.964-30.738-139.964z" fill="#bed9fd"/><path d="m486.627 179.809v-96.207c0-5.596-4.537-10.133-10.133-10.133h-103.087c-5.596 0-10.132 4.537-10.132 10.133v96.207z" fill="#ddebfd"/><path d="m476.493 73.47h-28c5.596 0 10.133 4.537 10.133 10.133v96.207h28v-96.208c.001-5.596-4.537-10.132-10.133-10.132z" fill="#bed9fd"/><path d="m363.279 219.393v23.617c0 2.071.237 4.13.712 6.135.449 1.9 1.108 3.747 1.966 5.515l17.02 35.096c5.132 10.608 7.811 22.245 7.811 34.027v175.717c0 2.761 2.239 5 5 5h58.331c2.761 0 5-2.239 5-5v-175.717c0-11.782 2.665-23.419 7.811-34.027l17.02-35.096c.858-1.768 1.504-3.615 1.953-5.515.488-2.005.726-4.064.726-6.135v-23.617z" fill="#9cd169"/><path d="m458.629 219.393v23.617c0 2.071-.237 4.13-.726 6.135-.449 1.9-1.095 3.747-1.953 5.515l-17.02 35.096c-5.146 10.608-7.811 22.245-7.811 34.027v175.717c0 2.761-2.239 5-5 5h28c2.761 0 5-2.239 5-5v-175.717c0-11.782 2.665-23.419 7.811-34.027l17.02-35.096c.858-1.768 1.504-3.615 1.953-5.515.488-2.005.726-4.064.726-6.135v-23.617z" fill="#68b181"/><path d="m363.276 179.809.003 63.201c0 2.071.237 4.13.712 6.135h121.912c.488-2.005.726-4.064.726-6.135l-.002-63.201z" fill="#407194"/><path d="m486.627 179.809h-28l.002 63.201c0 2.071-.237 4.13-.726 6.135h28c.488-2.005.726-4.064.726-6.135z" fill="#365f7e"/><path d="m148.723 179.809v-110.633c0-34.062-27.614-61.676-61.676-61.676s-61.675 27.613-61.675 61.676v110.633z" fill="#ddebfd"/><path d="m87.047 7.5c-5.175 0-10.197.646-15 1.846 26.812 6.701 46.676 30.942 46.676 59.829v110.633h30v-110.632c0-34.063-27.613-61.676-61.676-61.676z" fill="#bed9fd"/><path d="m25.375 219.393v23.617c0 2.071.237 4.13.712 6.135.449 1.9 1.108 3.747 1.966 5.515l17.02 35.096c5.132 10.608 7.811 22.245 7.811 34.027v175.717c0 2.761 2.239 5 5 5h58.331c2.761 0 5-2.239 5-5v-175.717c0-11.782 2.665-23.419 7.811-34.027l17.02-35.096c.858-1.768 1.504-3.615 1.953-5.515.488-2.005.726-4.064.726-6.135v-23.617z" fill="#eec06b"/><path d="m118.725 219.393v23.617c0 2.071-.237 4.13-.726 6.135-.449 1.9-1.095 3.747-1.953 5.515l-17.02 35.096c-5.146 10.608-7.811 22.245-7.811 34.027v175.717c0 2.761-2.239 5-5 5h30c2.761 0 5-2.239 5-5v-175.717c0-11.782 2.665-23.419 7.811-34.027l17.02-35.096c.858-1.768 1.504-3.615 1.953-5.515.488-2.005.726-4.064.726-6.135v-23.617z" fill="#e9a761"/><path d="m25.372 179.809.003 63.201c0 2.071.237 4.13.712 6.135h121.913c.488-2.005.726-4.064.726-6.135l-.002-63.201z" fill="#407194"/><path d="m148.723 179.809h-30l.002 63.201c0 2.071-.237 4.13-.726 6.135h30c.488-2.005.726-4.064.726-6.135z" fill="#365f7e"/></g></g><g><path d="m256 24.986c-5.415 0-15.942 4.825-25.616 37.137-5.758 19.234-12.622 53.988-12.622 110.327v57.333c0 4.142 3.358 7.5 7.5 7.5s7.5-3.358 7.5-7.5v-31.92h46.476v94.949h-46.476v-28.029c0-4.142-3.358-7.5-7.5-7.5s-7.5 3.358-7.5 7.5v234.717c0 6.893 5.607 12.5 12.5 12.5h51.476c6.893 0 12.5-5.607 12.5-12.5v-327.051c0-56.449-6.803-91.148-12.511-110.316-9.624-32.321-20.25-37.147-25.727-37.147zm-23.238 157.876v-10.413c0-50.715 5.71-82.78 10.501-100.748 4.832-18.123 9.98-27.039 12.79-30.465 2.806 3.382 7.951 12.247 12.765 30.397 4.753 17.921 10.42 49.96 10.42 100.815v10.413h-46.476zm0 314.138v-189.189h46.476v189.189z"/><path d="m494.127 83.603c0-9.723-7.911-17.633-17.634-17.633h-103.086c-9.722 0-17.632 7.91-17.632 17.633 0 0 .023 160.734.06 161.393.002.029.005.058.007.087.266 4.46 1.406 8.813 3.365 12.851l17.017 35.09c4.621 9.549 7.063 20.186 7.063 30.76v175.716c0 6.893 5.607 12.5 12.5 12.5h58.331c6.893 0 12.5-5.607 12.5-12.5v-21.542c0-4.142-3.358-7.5-7.5-7.5s-7.5 3.358-7.5 7.5v19.042h-53.331v-173.217c0-12.823-2.96-25.719-8.563-37.299l-14.47-29.838h99.397l-14.47 29.837c-5.602 11.548-8.563 24.446-8.563 37.3v119.176c0 4.142 3.358 7.5 7.5 7.5s7.5-3.358 7.5-7.5v-119.176c0-10.6 2.441-21.234 7.06-30.754l17.02-35.095c2.146-4.424 3.43-9.63 3.43-14.923 0-20.902-.001-141.521-.001-159.408zm-123.349 158.042v-22.252l-.002-.02v-32.064h108.35v54.336zm2.629-160.675h103.085c1.452 0 2.633 1.181 2.633 2.633v88.707h-108.35v-88.707c0-1.452 1.181-2.633 2.632-2.633z"/><path d="m156.223 69.176c0-38.144-31.032-69.176-69.176-69.176-38.143 0-69.175 31.032-69.175 69.176 0 0 .023 175.161.06 175.819.002.029.005.058.007.087.266 4.468 1.41 8.82 3.365 12.851l17.018 35.09c4.62 9.548 7.062 20.185 7.062 30.76v48.08c0 4.142 3.358 7.5 7.5 7.5s7.5-3.358 7.5-7.5v-48.08c0-12.824-2.96-25.72-8.563-37.299l-14.47-29.838h99.397l-14.47 29.837c-5.602 11.548-8.563 24.446-8.563 37.3v173.217h-53.331v-90.137c0-4.142-3.358-7.5-7.5-7.5s-7.5 3.358-7.5 7.5v92.637c0 6.893 5.607 12.5 12.5 12.5h58.331c6.893 0 12.5-5.607 12.5-12.5v-175.717c0-10.6 2.441-21.234 7.06-30.754l17.02-35.095c2.188-4.51 3.43-9.727 3.43-14.924-.001-20.72-.002-153.599-.002-173.834zm-123.348 172.469v-22.252l-.002-.02v-32.064h108.351v54.336zm54.172-226.645c29.873 0 54.176 24.303 54.176 54.176v103.133h-108.351v-103.133c0-29.873 24.303-54.176 54.175-54.176z"/></g></g></svg>