<svg id="Capa_1" enable-background="new 0 0 512 512" height="512" viewBox="0 0 512 512" width="512" xmlns="http://www.w3.org/2000/svg"><g><g><g><path d="m104.75 68.632v311.929h302.5v-311.929c0-2.843-2.304-5.147-5.147-5.147h-292.206c-2.843 0-5.147 2.304-5.147 5.147z" fill="#ddebfd"/><path d="m402.103 63.485h-25.39c2.843 0 5.147 2.304 5.147 5.147v311.929h25.39v-311.929c0-2.843-2.304-5.147-5.147-5.147z" fill="#bed9fd"/><path d="m209.907 63.485v-28.972c0-2.274 1.843-4.118 4.118-4.118h83.951c2.274 0 4.118 1.844 4.118 4.118v28.972z" fill="#407194"/><g fill="#eec06b"><path d="m127.481 398.254-23.506 99.714c-.74 3.139 1.642 6.147 4.867 6.147h24.664c2.319 0 4.334-1.595 4.867-3.853l24.047-102.009h-34.939z"/><path d="m384.519 398.254 23.506 99.714c.74 3.139-1.641 6.147-4.867 6.147h-24.664c-2.319 0-4.334-1.595-4.867-3.853l-24.047-102.009h34.939z"/></g><path d="m60.502 410.801v-25.093c0-2.843 2.304-5.147 5.147-5.147h380.702c2.843 0 5.147 2.304 5.147 5.147v25.093c0 2.843-2.304 5.147-5.147 5.147h-380.702c-2.843 0-5.147-2.305-5.147-5.147z" fill="#407194"/><g><path d="m269.412 279.255c41.14 42.05 71.648 25.538 79.388 4.885v-22.569c-7.739-20.653-38.247-37.165-79.388 4.885-3.481 3.558-3.481 9.241 0 12.799z" fill="#407194"/><path d="m396.698 251.053c-20.295 0-35.796 1.135-47.417 3.107-3.427.582-5.924 3.561-5.924 7.037v23.316c0 3.476 2.496 6.456 5.924 7.037 11.621 1.972 27.122 3.107 47.417 3.107 59.537 0 107.802-9.761 107.802-21.803 0-12.04-48.265-21.801-107.802-21.801z" fill="#db387e"/></g><g><path d="m123.982 138.637h-111.482c-2.761 0-5 2.239-5 5v57.657c0 2.761 2.239 5 5 5h111.482c14.565 0 63.444-17.207 90.283-27.077 6.284-2.311 6.284-11.193 0-13.504-26.839-9.869-75.717-27.076-90.283-27.076z" fill="#5392f9"/><path d="m214.258 179.218c-9.475 3.495-21.706 7.898-34.197 12.131-22.885 7.748-46.658 14.947-56.083 14.947h-3.065c-10.823-7.349-17.942-19.759-17.942-33.828 0-14.068 7.119-26.479 17.942-33.828h3.065c9.425 0 33.199 7.199 56.083 14.947 12.491 4.233 24.722 8.637 34.197 12.121 6.291 2.318 6.291 11.204 0 13.51z" fill="#eec06b"/><path d="m214.258 165.711c-12.181-4.479-28.897-10.466-44.887-15.673v44.855c15.99-5.207 32.706-11.194 44.887-15.673 6.287-2.312 6.287-11.197 0-13.509z" fill="#407194"/></g></g></g><g><path d="m474.412 250.087c-16.489-3.335-37.221-5.478-59.662-6.23v-175.227c0-6.975-5.675-12.65-12.65-12.65h-92.507v-21.467c0-6.406-5.211-11.618-11.617-11.618h-34.476v-15.015c0-4.142-3.358-7.5-7.5-7.5s-7.5 3.358-7.5 7.5v15.016h-34.476c-6.406 0-11.617 5.211-11.617 11.618v21.466h-92.507c-6.975 0-12.65 5.675-12.65 12.65v62.507h-25.722c-4.142 0-7.5 3.358-7.5 7.5s3.358 7.5 7.5 7.5h31.766c-3.683 5.667-6.157 12.073-7.217 18.832h-81.077v-18.832h21.582c4.142 0 7.5-3.358 7.5-7.5s-3.358-7.5-7.5-7.5h-24.082c-6.893 0-12.5 5.607-12.5 12.5v57.657c0 6.893 5.607 12.5 12.5 12.5h84.75v159.266h-31.601c-6.974 0-12.647 5.673-12.647 12.647v25.093c0 6.974 5.673 12.647 12.647 12.647h48.189l-17.158 72.803c-.881 3.742-.019 7.617 2.368 10.632 2.384 3.011 5.953 4.738 9.792 4.738h24.67c5.828 0 10.83-3.967 12.16-9.639l9.111-38.641h202.437l9.109 38.633c1.333 5.68 6.334 9.647 12.162 9.647h24.67c3.839 0 7.408-1.727 9.792-4.738 2.387-3.015 3.25-6.89 2.368-10.632l-17.158-72.802h48.189c6.974 0 12.647-5.673 12.647-12.647v-25.093c0-6.974-5.673-12.647-12.647-12.647h-31.6v-71.208c5.418-.182 10.764-.441 15.989-.787 4.133-.273 7.262-3.846 6.989-7.979-.274-4.133-3.852-7.261-7.979-6.988-22.68 1.501-56.524 1.852-78.892-1.888v-22.711c25.253-4.223 78.329-4.289 115.716 2.366 17.892 3.185 26.228 6.886 29.324 8.99-3.162 2.15-11.776 5.951-30.39 9.175-4.081.707-6.816 4.589-6.11 8.67.708 4.081 4.589 6.816 8.67 6.11 29.974-5.191 43.933-12.804 43.933-23.956 0-10.346-11.944-17.581-37.588-22.768zm-342.89 246.533h-19.519l17.245-73.172h19.528zm26.796-48.28 5.869-24.892h183.625l5.869 24.892zm241.679 48.28h-19.519l-17.254-73.172h19.528zm44.001-88.172h-375.996v-20.387h375.996zm-226.591-370.552h77.186v18.084h-77.186zm-6.513 134.57c-12.358 4.538-23.767 8.569-34.022 12.033v-24.066c10.254 3.464 21.662 7.495 34.022 12.033zm-49.022 16.956c-32.518 10.322-38.115 9.303-38.522 9.372-8.102-6.311-12.879-15.995-12.879-26.326 0-10.334 4.78-20.021 12.886-26.332.602.103 5.375-1.148 38.515 9.373zm-146.872-9.453h81.077c1.06 6.756 3.532 13.16 7.213 18.826h-88.29zm321.786 109.7c-3.127 3.483-8.189 7.241-15.865 8.079-9.453 1.036-25.134-2.248-46.148-23.731-.625-.639-.627-1.673-.001-2.313 21.011-21.481 36.694-24.763 46.146-23.734 7.674.835 12.738 4.588 15.869 8.068-.602 1.61-.931 3.349-.931 5.16v23.316c.001 1.808.329 3.546.93 5.155zm11.743-42.985c-6.589-7.635-15.773-12.515-25.988-13.626-12.761-1.385-33.268 2.369-58.487 28.151-6.289 6.416-6.292 16.865-.006 23.294 15.432 15.777 36.464 30.559 58.501 28.155 10.212-1.115 19.391-5.997 25.974-13.633 15.952 2.652 35.067 3.198 51.226 3.108v70.926h-287.5v-159.265h11.732c17.62 0 76.241-21.422 92.872-27.538 5.847-2.15 9.625-7.563 9.625-13.791s-3.778-11.641-9.625-13.791c-16.637-6.118-75.252-27.538-92.872-27.538h-11.731v-60.156h287.5v172.588c-16.083-.089-35.298.47-51.221 3.116z"/><path d="m361.769 174.722-6.263 3.577v-29.987c0-19.204-15.624-34.828-34.829-34.828h-63.317c-4.142 0-7.5 3.358-7.5 7.5s3.358 7.5 7.5 7.5h63.316c10.934 0 19.829 8.895 19.829 19.828v29.987l-6.264-3.577c-3.596-2.055-8.178-.804-10.232 2.793s-.804 8.178 2.793 10.232l17.483 9.984c2.305 1.316 5.134 1.316 7.438 0l17.482-9.984c3.597-2.054 4.848-6.635 2.793-10.232-2.051-3.597-6.632-4.847-10.229-2.793z"/><path d="m191.323 315.562c-10.934 0-19.829-8.895-19.829-19.828v-29.987l6.264 3.577c3.595 2.055 8.178.804 10.232-2.793s.804-8.178-2.793-10.232l-17.483-9.984c-2.305-1.316-5.134-1.316-7.438 0l-17.482 9.984c-3.597 2.054-4.848 6.635-2.793 10.232 1.384 2.424 3.915 3.782 6.52 3.782 1.261 0 2.54-.319 3.712-.989l6.263-3.577v29.987c0 19.204 15.624 34.828 34.829 34.828h63.316c4.142 0 7.5-3.358 7.5-7.5s-3.358-7.5-7.5-7.5z"/></g></g></svg>