<svg id="Capa_1" enable-background="new 0 0 512 512" height="512" viewBox="0 0 512 512" width="512" xmlns="http://www.w3.org/2000/svg"><g><g><g><path d="m7.5 141.143v330c0 5.523 4.477 10 10 10h477c5.523 0 10-4.477 10-10v-330c0-5.523-4.477-10-10-10h-477c-5.523 0-10 4.477-10 10z" fill="#eec06b"/><path d="m494.5 131.143h-28c5.523 0 10 4.477 10 10v330c0 5.523-4.477 10-10 10h28c5.523 0 10-4.477 10-10v-330c0-5.523-4.477-10-10-10z" fill="#e9a761"/><path d="m51.5 432.143v-252c0-2.761 2.239-5 5-5h399c2.761 0 5 2.239 5 5v252c0 2.761-2.239 5-5 5h-399c-2.761 0-5-2.238-5-5z" fill="#ddebfd"/><ellipse cx="120" cy="236.37" fill="#5392f9" rx="24.738" ry="24.738" transform="matrix(.526 -.851 .851 .526 -144.156 214.181)"/><path d="m252.294 376.402 132.257-147.994c2.863-3.204 2.348-8.176-1.11-10.725-2.531-1.866-5.974-1.898-8.54-.08l-101.305 71.787c-4.965 3.519-11.72 3.064-16.169-1.088-5.06-4.723-5.461-12.608-.906-17.819l19.874-22.738c7.765-8.884 6.459-22.469-2.854-29.712-8.531-6.634-20.744-5.517-27.93 2.553l-101.686 114.199c-6.618 7.432-5.045 19.017 3.314 24.416 6.345 4.098 14.679 3.274 20.1-1.987l39.101-37.951c4.725-4.586 12.238-4.596 16.975-.022 4.389 4.238 4.974 11.067 1.369 15.989l-8.686 11.859c-7.694 10.506-5.292 25.278 5.335 32.804 9.679 6.854 22.959 5.352 30.861-3.491z" fill="#db387e"/><path d="m395.901 437.143h59.599c2.761 0 5-2.239 5-5v-204.384l-116.445 124.936c-7.929 8.507-6.875 21.979 2.28 29.15 7.682 6.018 18.6 5.556 25.747-1.089l27.992-26.027c6.173-5.739 16.032.053 14.024 8.239z" fill="#5392f9"/><circle cx="256" cy="50.757" fill="#407194" r="19.9"/></g></g><g><path d="m494.5 123.644h-133.768l-79.389-62.484c1.323-3.21 2.057-6.722 2.057-10.404 0-15.108-12.292-27.4-27.4-27.4s-27.4 12.292-27.4 27.4c0 3.682.735 7.193 2.057 10.403l-79.389 62.483h-133.768c-9.649 0-17.5 7.851-17.5 17.5v225.539c0 4.142 3.358 7.5 7.5 7.5s7.5-3.358 7.5-7.5v-225.537c0-1.378 1.122-2.5 2.5-2.5h477c1.379 0 2.5 1.122 2.5 2.5v330c0 1.378-1.121 2.5-2.5 2.5h-477c-1.378 0-2.5-1.122-2.5-2.5v-69.461c0-4.142-3.358-7.5-7.5-7.5s-7.5 3.358-7.5 7.5v69.461c0 9.649 7.851 17.5 17.5 17.5h477c9.649 0 17.5-7.851 17.5-17.5v-330c0-9.65-7.851-17.5-17.5-17.5zm-238.5-85.288c6.838 0 12.4 5.563 12.4 12.4s-5.563 12.4-12.4 12.4-12.4-5.563-12.4-12.4 5.563-12.4 12.4-12.4zm-16.056 34.584c4.516 3.278 10.062 5.218 16.056 5.218s11.54-1.94 16.056-5.217l64.422 50.704h-160.956z"/><path d="m455.5 444.644c6.893 0 12.5-5.607 12.5-12.5v-252c0-6.893-5.607-12.5-12.5-12.5h-399c-6.893 0-12.5 5.607-12.5 12.5v252c0 6.893 5.607 12.5 12.5 12.5zm-396.5-262h394v42.162l-52.586 56.42c-2.824 3.03-2.657 7.776.373 10.6 1.445 1.347 3.28 2.014 5.111 2.014 2.008 0 4.012-.802 5.488-2.386l41.614-44.648v182.838h-47.536l15.919-64.889c1.696-6.917-1.29-13.988-7.431-17.595-6.141-3.608-13.771-2.771-18.985 2.077l-27.992 26.027c-4.473 4.159-11.207 4.443-16.015.678-2.755-2.158-4.422-5.267-4.694-8.755s.891-6.818 3.275-9.377l37.99-40.76c2.824-3.03 2.657-7.776-.373-10.6-3.029-2.824-7.776-2.657-10.6.373l-37.99 40.76c-5.208 5.587-7.853 13.159-7.257 20.774s4.386 14.684 10.398 19.394c10.65 8.342 25.57 7.71 35.479-1.501l27.992-26.027c.203-.188.543-.499 1.173-.128.636.373.525.821.46 1.088l-16.796 68.462h-331.017z"/><path d="m152.238 236.371c0-17.776-14.462-32.238-32.238-32.238s-32.238 14.462-32.238 32.238 14.462 32.238 32.238 32.238c17.776-.001 32.238-14.463 32.238-32.238zm-32.238 17.237c-9.505 0-17.238-7.733-17.238-17.238s7.733-17.238 17.238-17.238 17.238 7.733 17.238 17.238-7.733 17.238-17.238 17.238z"/><path d="m393.826 222.028c-.428-4.133-2.591-7.917-5.936-10.382-5.146-3.794-12.108-3.86-17.326-.163l-101.306 71.788c-2.052 1.454-4.875 1.264-6.714-.453-2.113-1.972-2.279-5.223-.376-7.399l19.873-22.738c5.054-5.781 7.53-13.48 6.796-21.123-.733-7.644-4.631-14.731-10.692-19.445-11.608-9.026-28.358-7.495-38.136 3.486l-101.685 114.199c-9.681 10.873-7.365 27.816 4.847 35.704 9.333 6.027 21.419 4.833 29.392-2.905l39.102-37.951c1.832-1.778 4.705-1.782 6.542-.008 1.683 1.625 1.91 4.273.527 6.161l-8.686 11.859c-10.178 13.897-7.006 33.401 7.052 43.356 12.85 9.101 30.377 7.035 40.787-4.614l132.256-147.993c2.769-3.098 4.112-7.246 3.683-11.379zm-147.124 149.377c-5.364 6.003-14.364 7.021-20.933 2.368-7.215-5.109-8.844-15.119-3.62-22.252l8.686-11.859c5.792-7.909 4.842-19.008-2.21-25.816-7.681-7.417-19.721-7.426-27.408.036l-39.102 37.951c-2.931 2.845-7.375 3.286-10.807 1.068-4.458-2.879-5.379-9.088-1.783-13.128l101.686-114.198c4.546-5.104 12.333-5.815 17.725-1.621 2.859 2.223 4.624 5.433 4.971 9.038.346 3.604-.775 7.091-3.159 9.817l-19.874 22.738c-7.261 8.307-6.63 20.71 1.436 28.237 7.015 6.549 17.792 7.276 25.622 1.726l99.788-70.712z"/></g></g></svg>