<svg id="Capa_1" enable-background="new 0 0 512 512" height="512" viewBox="0 0 512 512" width="512" xmlns="http://www.w3.org/2000/svg"><g><g><g><path d="m159.513 232.52h44.37v121.86h-44.37z" fill="#bed9fd"/><path d="m234.702 93.477-44.45-16.179c-5.527-2.012-11.639.838-13.651 6.366l-3.795 10.427c-2.012 5.527.838 11.639 6.366 13.651l44.45 16.179c5.527 2.012 11.639-.838 13.651-6.366l3.795-10.427c2.011-5.527-.839-11.639-6.366-13.651z" fill="#407194"/><path d="m31.254 177.865h104.218v33.515h-104.218z" fill="#bed9fd"/><path d="m351.313 156.906c-24.116 10.737-52.37-.109-63.107-24.225l-20.14-45.236c-1.255-2.818.013-6.12 2.831-7.375l77.126-34.339c2.818-1.255 6.12.013 7.375 2.831l20.14 45.236c10.736 24.116-.11 52.37-24.225 63.108z" fill="#5392f9"/><path d="m375.537 93.798-20.141-45.236c-1.255-2.818-4.557-4.086-7.375-2.831l-17.22 7.667c2.458-1.095 5.339.011 6.433 2.47l22.912 51.461c8.466 19.014 1.549 40.974-15.392 51.939 2.208-.621 4.4-1.402 6.557-2.362 24.117-10.738 34.963-38.992 24.226-63.108z" fill="#4071f7"/><path d="m368.169 77.249-87.332 38.883-12.772-28.687c-1.255-2.818.013-6.12 2.831-7.375l77.126-34.339c2.818-1.255 6.12.013 7.375 2.831z" fill="#bed9fd"/><path d="m337.235 55.868 13.062 29.338 17.872-7.957-12.772-28.687c-1.254-2.818-4.557-4.086-7.375-2.831l-17.22 7.667c2.458-1.095 5.338.011 6.433 2.47z" fill="#9ec8fc"/><path d="m129.733 232.694 255.415-1.495-.456-74.649-255.409 1.495c-6.171.036-11.144 5.069-11.106 11.24l.32 52.306c.036 6.169 5.067 11.14 11.236 11.103z" fill="#db387e"/><path d="m384.981 203.936-255.843 1.504c-5.861.034-10.641-4.688-10.677-10.55l.035 26.701c.038 6.169 5.068 11.139 11.237 11.103l255.415-1.495z" fill="#c4237c"/><path d="m435.027 206.724-49.88 24.475-.456-74.649 50.175 23.864c1.935.92 3.173 2.867 3.187 5.01l.099 16.251c.013 2.143-1.201 4.105-3.125 5.049z" fill="#bed9fd"/><path d="m438.053 185.424c-.01-1.66-.762-3.197-1.997-4.235-.323.237-.668.451-1.051.621l-49.894 22.125.037 27.264 49.88-24.475c1.924-.944 3.138-2.906 3.125-5.049z" fill="#9ec8fc"/><path d="m144.653 392.157v-32.191c0-3.085 2.501-5.586 5.586-5.586h62.918c3.085 0 5.586 2.501 5.586 5.586v32.191c0 3.085-2.501 5.586-5.586 5.586h-62.918c-3.085 0-5.586-2.501-5.586-5.586z" fill="#5392f9"/><path d="m313.717 231.552v16.114c0 10.935-8.865 19.8-19.8 19.8h-35.561c-2.616 0-5 1.503-6.129 3.863l-2.204 4.609c-3.298 6.899-10.265 11.29-17.912 11.29h-28.228v-54.708z" fill="#eec06b"/><path d="m30.161 227.706h-11.489c-6.17 0-11.172-5.002-11.172-11.172v-43.824c0-6.17 5.002-11.172 11.172-11.172h11.489c6.17 0 11.172 5.002 11.172 11.172v43.824c-.001 6.17-5.002 11.172-11.172 11.172z" fill="#db387e"/></g></g><g><path d="m438.088 173.637-50.175-23.864c-.917-.436-2.103-.727-3.266-.727l-10.715.063c2.905-3.401 5.413-7.153 7.429-11.194 1.85-3.706.344-8.21-3.362-10.06s-8.211-.344-10.06 3.362c-3.948 7.913-10.156 14.118-18.007 18.032l-35.698.209c-8.523-4.134-15.3-11.122-19.173-19.834l-4.319-9.697 73.628-32.781c3.639 8.413 5.093 10.79 6.368 15.429 1.098 3.993 5.221 6.341 9.221 5.242 3.993-1.099 6.341-5.227 5.242-9.221-1.932-7.019-2.913-7.61-22.954-53.102-2.938-6.571-10.682-9.542-17.278-6.621l-77.108 34.337c-3.196 1.417-5.649 3.996-6.907 7.262-1.257 3.265-1.167 6.822.254 10.017 1.607 3.608 17.704 39.746 20.149 45.235 2.266 5.096 5.267 9.756 8.86 13.876l-93.983.55 9.068-24.918 15.753 5.734c4.583 1.668 9.511 1.43 13.879-.606 4.394-2.049 7.727-5.687 9.385-10.242l3.796-10.428c3.423-9.404-1.444-19.84-10.849-23.264l-44.45-16.179c-4.557-1.659-9.485-1.444-13.879.606-4.394 2.049-7.727 5.687-9.385 10.242l-3.796 10.428c-3.423 9.404 1.444 19.84 10.849 23.264l14.602 5.315-10.969 30.142-51 .299c-4.988.029-9.666 2-13.172 5.548s-5.421 8.249-5.391 13.238l.006 1.029h-62.014c-1.161-9.188-9.009-16.321-18.507-16.321h-11.488c-10.296-.002-18.672 8.374-18.672 18.67v43.824c0 10.296 8.376 18.672 18.672 18.672h11.488c9.5 0 17.348-7.136 18.508-16.326h62.311l.017 2.756c.062 10.256 8.426 18.558 18.669 18.558h.111l22.236-.13v28.739c0 4.142 3.357 7.5 7.5 7.5s7.5-3.358 7.5-7.5v-28.827l29.37-.172v107.075h-29.37v-43.077c0-4.142-3.357-7.5-7.5-7.5s-7.5 3.358-7.5 7.5v43.077h-1.774c-7.215 0-13.085 5.87-13.085 13.086v32.191c0 7.216 5.87 13.086 13.085 13.086h23.959v16.319c0 20.783-16.908 37.691-37.691 37.691s-37.691-16.908-37.691-37.691v-63.255c0-27.104-22.051-49.154-49.154-49.154h-25.949c-4.143 0-7.5 3.358-7.5 7.5s3.357 7.5 7.5 7.5h25.948c18.833 0 34.154 15.322 34.154 34.154v63.255c0 29.054 23.638 52.691 52.691 52.691s52.691-23.637 52.691-52.691v-16.319h23.959c7.216 0 13.086-5.87 13.086-13.086v-32.191c0-7.216-5.87-13.086-13.086-13.086h-1.773v-52.151h20.729c10.474 0 20.16-6.105 24.679-15.556l2.011-4.207h35.116c15.053 0 27.3-12.247 27.3-27.3v-8.592c.102-.001 64.04-.373 63.937-.373 1.191 0 2.422-.339 3.298-.769l49.881-24.476c4.477-2.197 7.35-6.839 7.32-11.827l-.1-16.25c-.03-4.988-2.96-9.596-7.465-11.738zm-404.256 42.893c0 2.025-1.647 3.672-3.672 3.672h-11.488c-2.024 0-3.672-1.647-3.672-3.672v-43.824c0-2.024 1.647-3.671 3.672-3.671h11.488c2.024 0 3.672 1.647 3.672 3.671zm15-12.653v-18.52h61.942l.113 18.52zm235.807-97.652-8.945-20.083 73.633-32.788 8.943 20.089zm-102.903-5.534c-1.633-.594-2.479-2.406-1.884-4.038l3.796-10.428c.595-1.635 2.408-2.477 4.037-1.883l44.45 16.179c1.633.594 2.478 2.406 1.884 4.038l-3.796 10.428c-.594 1.63-2.4 2.481-4.037 1.883l-22.767-8.287c-.012-.004-.023-.01-.035-.015s-.024-.007-.036-.011zm-55.74 120.854c0 .016 0 .018 0 0zm85.246 168.694h-59.089v-28.363h59.089zm94.975-142.577c0 6.782-5.518 12.3-12.3 12.3h-35.562c-5.473 0-10.534 3.19-12.896 8.129l-2.203 4.608c-2.04 4.268-6.415 7.025-11.146 7.025h-20.729v-40.012l94.834-.555v8.505zm-176.529-22.472c-.007 0-.015 0-.021 0-2.015 0-3.659-1.632-3.671-3.649-.002-.371-.043-7.072-.32-52.305-.012-2.026 1.62-3.683 3.65-3.695 9.56-.056 240.725-1.409 247.911-1.451l.364 59.649c-.384.002-242.829 1.422-247.913 1.451zm262.886-5.993-.31-50.744 38.296 18.214.085 13.849z"/><path d="m504.501 185.583c-.016 0-.031 0-.047 0l-17.142.104c-4.142.025-7.479 3.404-7.454 7.546.025 4.126 3.378 7.454 7.499 7.454h.047l17.142-.104c4.142-.025 7.479-3.404 7.454-7.546-.025-4.126-3.378-7.454-7.499-7.454z"/><path d="m473.583 166.11 13.19-13.352c2.91-2.947 2.882-7.695-.065-10.606-2.946-2.911-7.694-2.883-10.606.064l-13.19 13.352c-2.91 2.947-2.882 7.695.065 10.606 2.931 2.897 7.679 2.897 10.606-.064z"/><path d="m473.914 220.432c-2.947-2.912-7.696-2.883-10.606.065-2.911 2.947-2.882 7.695.065 10.606l13.353 13.19c2.938 2.901 7.687 2.891 10.606-.065 2.911-2.947 2.882-7.695-.065-10.606z"/></g></g></svg>